<svg fill="none" height="188" viewBox="0 0 188 188" width="188" xmlns="http://www.w3.org/2000/svg"><path d="m170.539 161.754c4.897-1.261-3.574-3.402 0-9.456 8.06-13.642 5.291-23.294 0-30.615-5.754-7.957-.627-4.574-7.206-10.975-9.148-8.903-14.441-17.9069-24.261-38.1243-7.304-5.6909-5.618-26.3839-13.25-30.7317-7.919-4.5133-15.511-11.14-23.836-13.6163-17.0241-5.0607-37.0134-.1018-52.3965 12.1872-4.7315 3.7812-10.3302 7.1582-13.7419 13.8263-10.8718 21.2424-25.0301 45.4576-22.3763 75.1508.6407 7.171 2.575 14.272 6.0615 19.068 7.26 9.985 18.245 7.076 27.1179 8.995 39.4309 8.53 80.9433 8.938 120.4153 6.385 5.414-.35-2.091-.662 3.471-2.094z" fill="#929642"/><path d="m55.6443 18.2622c.2652-.2448.4636-.4655.5953-.6639.1243-.1855.2597-.4767.4099-.8754.1595-.4136.2949-.7085.4062-.8866.2151-.3486.5248-.6509.9217-.9069.3394-.2226.74-.4043 1.1981-.5453.7085-.217 1.3261-.2596 1.8473-.1316.3079.076.5823.2132.816.4117.3265-.0872.6529-.1484.9737-.1855.6733-.0797 1.3094-.0501 1.9085.089.638.1503 1.2166.4266 1.723.8309.5341.4229.9162.9237 1.1406 1.506.0445.1113.0927.2578.1502.4396.0742.2522.1187.3987.1373.4451.115.3487.2503.6176.4098.8086.1447.1744.3561.3394.6343.4934.1595.089.4006.2151.7363.3783.6047.3264 1.1407.7679 1.608 1.3224.4489.5397.8013 1.1406 1.0535 1.8064.2337.6325.3487 1.2575.3394 1.877-.0093.6806-.1632 1.2815-.4711 1.8046-.243.4061-.5768.7678-1.0052 1.0849-.3784.2801-.8198.5156-1.3224.7104-.7011.2726-1.6395.4952-2.8154.6677-.6436.0871-1.1239.1539-1.4448.2021-.5638.0835-1.0404.1706-1.4373.2578-.7178.1651-1.5561.4303-2.5075.7957-.5509.2114-1.3706.5415-2.4593.9885-.957.3746-1.7712.6046-2.4537.6899-.9292.1169-1.7267-.0037-2.3981-.3598-.6343-.3412-1.1017-.8698-1.3929-1.5857-.2912-.7178-.3264-1.4207-.1057-2.1069.0705-.23.23-.5731.4711-1.0331.23-.4395.3783-.7845.4544-1.0367.128-.4526.1539-1.0516.0742-1.7972-.0483-.4062-.0835-.7122-.102-.9162-.039-.3542-.0538-.6603-.0445-.9162.0185-.5638.1409-1.1128.3653-1.6432.2244-.5323.5379-1.0016.9292-1.4077.0186-.0167.2337-.2207.6566-.6084z" fill="#a2a54b"/><path d="m96.6916 13.3898c-.3746-.1854-.6621-.3672-.8717-.5434-.1984-.165-.4451-.4451-.7382-.8364-.3115-.4062-.5526-.69-.7325-.8513-.3543-.3172-.7901-.5527-1.3113-.7104-.4488-.1372-.9514-.2095-1.5041-.2207-.8569-.0111-1.5524.1373-2.0921.4452-.3116.1836-.5675.421-.766.7159-.3876.0092-.7715.0426-1.1406.1057-.766.1261-1.4615.3616-2.0828.7066-.6621.3709-1.2111.8606-1.6413 1.4707-.4544.6381-.7141 1.315-.7809 2.029-.0148.1373-.0185.3135-.0241.5323-.0055.3023-.0055.4804-.0055.536-.0186.4229-.0798.7642-.1985 1.0257-.1038.2411-.2837.4896-.5434.7474-.1465.1502-.3784.3672-.6899.6528-.5676.5546-1.0182 1.213-1.3577 1.979-.3264.74-.5211 1.5189-.5823 2.3368-.0612.7753.0148 1.5042.2225 2.1848.2263.7512.5972 1.3651 1.1017 1.8454.3969.3728.8847.6659 1.4615.8791.51.1892 1.0738.3098 1.6933.3636.8606.0779 1.9734.0241 3.331-.1614.7437-.1094 1.2964-.1892 1.6655-.2393.6528-.0871 1.2073-.1446 1.6747-.1724.8513-.0483 1.8603-.0223 3.0324.0779.677.0593 1.6896.1613 3.0417.3078 1.1777.1095 2.1569.102 2.9377-.0204 1.0643-.1669 1.9123-.5564 2.5413-1.1647.597-.5805.936-1.3131 1.031-2.1996.089-.8866-.095-1.6766-.558-2.3666-.156-.23-.44-.5601-.857-.9922-.393-.4136-.672-.7475-.839-1.0015-.289-.46-.506-1.1128-.658-1.9641-.08-.4656-.137-.8142-.18-1.0479-.076-.4043-.156-.7475-.25-1.0275-.2043-.6176-.5122-1.1851-.9332-1.7026-.421-.5174-.918-.9384-1.4819-1.2593-.0241-.013-.3319-.1688-.9217-.4637z" fill="#748042"/><path d="m85.0107 15.3596v-9.03221l-12.404 1.40027v7.63194z" fill="#65a2c3"/><path d="m72.3062 8.50488v9.99852h1.9121v-9.99852z" fill="#6da2c8"/><path d="m66.8386 15.3394v19.0066h18.1294v-19.0066z" fill="#65a2c3"/><path d="m83.47 6.19019v28.16311h1.9177v-28.16311z" fill="#6ca9ca"/><path d="m66.4285 15.2505v19.0956h1.9177v-19.0956z" fill="#6ca9ca"/><path d="m65.6188 14.2155c-.0353.2318-.0353.5768.0037 1.0367.0575.3005.2522.4433.586.4322h19.2886c.1149-.0112.2114-.0427.2911-.0909.0835-.0575.1317-.128.1373-.2114.0352-.5917.0352-1.0164 0-1.2761-.0223-.1965-.1669-.3152-.4359-.3523l-19.4869.0167c-.1373.0148-.2244.0519-.2782.1075-.0482.0575-.0835.1688-.1057.3357z" fill="#5692b3"/><path d="m71.2527 7.30486c.0445-.05935.1373-.10572.2726-.14281l14.0769-2.16069c.2857-.01298.4544.06677.5064.2374.0742.22256.1372.5972.1854 1.12578.0093.07419-.0315.14467-.115.20958-.0741.05749-.1724.10015-.2911.12983l-13.8692 2.11246c-.3487.06677-.5731-.02782-.6788-.28191-.1057-.39875-.1595-.70292-.154-.9125 0-.15208.0223-.25594.0668-.31529z" fill="#5692b3"/><path d="m78.4785 10.9455c-.0871.4322.0056.996-.6843.9199-.7326-.0816-.5843-.638-.4971-1.0868.0835-.434.0649-1.09054.7252-1.02192.8197.08346.408.76972.4562 1.19072z" fill="#c2c5a3"/><path d="m79.7917 10.9636c.0594-.3728.1336-.8123.6065-.727.562.102.4841.6547.4952 1.0534.0111.3988-.1224.8643-.6714.7437-.5935-.1298-.319-.7066-.4284-1.0682z" fill="#c2c5a3"/><path d="m80.3238 20.779c.5137.1928.471.5934.4135.9885-.0574.3839-.2151.7307-.7159.6028-.5137-.1317-.5211-.5564-.4729-.9645.0519-.4228.3431-.6027.7734-.6287z" fill="#c2c5a3"/><path d="m78.4841 21.4076c-.0871.3783-.2244.6936-.625.6584-.5694-.0482-.5174-.5026-.5267-.8884-.0093-.3616.1595-.651.562-.6028.5174.0613.5508.4897.5879.8309z" fill="#c2c5a3"/><path d="m75.4855 21.1092c-.0296.3858-.0667.7548-.4878.7437-.5322-.0167-.4655-.4303-.4098-.7771.0445-.2949.0352-.6825.4803-.6788.5954.0056.3357.4896.4192.7122z" fill="#c2c5a3"/><path d="m116.388 18.0972c-1.054.076-2.005.3951-2.856.9533-.891.5842-1.618 1.3984-2.185 2.4426-.519.9533-.864 2.0086-1.028 3.1696-.035.2337-.07.549-.109.9478-.045.471-.074.7882-.097.9495-.089.7438-.229 1.3577-.422 1.8436-.097.2429-.238.5286-.42.8568-.105.1855-.265.4637-.476.8328-.375.6769-.583 1.2611-.621 1.7526-.032.3969.022.8031.163 1.2204.128.3765.317.7419.573 1.0998.33.4637.736.8643 1.207 1.2018.471.3394.979.5917 1.525.7586.736.2244 1.585.3042 2.546.2411.538-.0371 1.274-.1409 2.217-.3116.335.0705.73.1595 1.19.2708.864.2096 1.53.3431 1.992.4006.74.0872 1.423.0575 2.053-.0872.724-.1669 1.313-.4766 1.768-.931.237-.2374.471-.5564.701-.9551.243-.4748.428-.8291.551-1.0646.194-.3506.335-.6158.422-.7957.154-.3097.266-.5861.331-.8327.118-.4489.141-.9218.066-1.417-.07-.4637-.224-.9143-.458-1.352-.115-.2133-.259-.4526-.441-.7178-.004-.0037-.167-.2318-.493-.6881-.41-.5712-.689-1.0553-.833-1.4522-.145-.3932-.243-.9162-.295-1.5672-.013-.178-.032-.4469-.058-.803-.022-.3153-.053-.5824-.089-.7994-.154-1.0015-.541-1.9196-1.168-2.7523-.625-.8402-1.393-1.4689-2.305-1.8899-.922-.4229-1.903-.5972-2.953-.5193z" fill="#8bac4e"/><path d="m109.973 19.4047v18.3482h-19.5038l.0038-21.0393z" fill="#8eb96a"/><path d="m91.8562 16.0737v21.6922h-1.71v-21.6922z" fill="#aab29d"/><path d="m110.726 19.3843h-1.71v18.3704h1.71z" fill="#aab29d"/><path d="m89.6495 25.5733c-.039.2058-.0352.5156.0037.9236.0612.2671.2652.3969.612.3858h20.2618c.119-.0093.221-.0371.301-.0817.093-.05.141-.1131.145-.1873.035-.5286.035-.9069 0-1.1387-.023-.1762-.177-.2819-.459-.3153l-20.4639.0148c-.141.013-.2374.0464-.2875.0964-.0519.0501-.0927.1503-.115.3005z" fill="#95bf73"/><path d="m111.853 18.9447c.004.2096-.048.5137-.154.9125-.106.2541-.33.3487-.679.2819l-21.2228-3.5702c-.1187-.0297-.2151-.0724-.2912-.1299-.0834-.0649-.1224-.1354-.115-.2095.0482-.5286.1095-.9033.1855-1.1258.0538-.1707.2207-.2486.5063-.2374l21.4292 3.6184c.137.0371.23.0835.272.1428.045.0594.067.1632.067.3153z" fill="#95bf73"/><path d="m102.294 21.9529c-.1.4303.067 1.0646-.608 1.0015-.753-.0705-.61-.7251-.566-1.2148.043-.447-.006-1.1109.679-1.059.97.076.347.8569.495 1.2723z" fill="#c2c5a3"/><path d="m95.3302 21.0239c.0779-.3765.0371-.9478.6065-.8309.7196.1483.6158.8234.5954 1.3557-.0167.4377-.1169.9867-.7271.8495-.8012-.1818-.4284-.8792-.4748-1.3743z" fill="#c2c5a3"/><path d="m105.201 22.2405c-.1.4229-.137 1.009-.638.8828-.597-.1502-.546-.7975-.486-1.3019.048-.3932-.076-1.0628.558-.9886.965.115.245.996.566 1.4059z" fill="#c2c5a3"/><path d="m99.3585 21.5284c-.1317.3672-.0093 1.0442-.6584.9051-.7215-.1577-.4321-.9125-.5286-1.4077-.0723-.3784.1911-.7289.6566-.6455.6899.1243.5248.6807.5286 1.1462z" fill="#c2c5a3"/><path d="m50.887 21.8862c-.1892-.1502-.4358-.3116-.7307-.4822-.3357-.191-.6788-.3598-1.0312-.5045-.8995-.3691-1.6433-.5119-2.2349-.4284-.5545.0816-1.2259.4154-2.0049 1.0052-.3134.2356-.6028.4878-.881.753-.2596.2485-.4581.4674-.5953.6566-.1799.2448-.3171.4599-.4099.6472-.1242.2523-.1947.4915-.2077.7215-.0093.1391.0037.3338.0389.5824.0353.2726.0575.4673.052.5842-.0037.3932-.141.7864-.4099 1.1833-.2022.3023-.4971.6213-.881.957-.1094.0946-.2726.2374-.4933.4265-.1892.1688-.3487.3172-.4711.4433-.3431.3487-.5861.6955-.727 1.0386-.0928.2319-.1447.4711-.154.7159-.0129.2523.0223.4915.102.7178.0835.2337.2115.4377.384.6139.1762.1799.3783.3097.6083.3876.1539.0445.2726.0797.3487.1057.1279.0464.2244.1076.2911.1836.1095.1354.1317.3135.0705.5323-.0389.1502-.1317.3339-.2689.5508-.2652.4211-.4674.8365-.5991 1.2464-.1539.4655-.2207.9162-.1984 1.3539.026.4766.1669.9143.4136 1.3149.2652.4211.6046.7159 1.0182.8847.2244.0928.4841.1484.7715.1669.2337.0149.5026.0075.8068-.0241.5694-.0556 1.5728-.2726 3.0138-.6491.7586-.1966 1.2779-.3283 1.5598-.395.5379-.128.9607-.2059 1.2649-.2374.2244-.0223.5861-.0371 1.0887-.0464.2949-.0037.7882-.0093 1.4763-.0148 1.3669-.0167 2.3573-.0779 2.9786-.1818.3042-.0501.5638-.1131.7845-.1873.2727-.0946.5063-.2152.7011-.3654.3561-.2708.6046-.6454.7456-1.1184.1372-.4506.1502-.9106.0537-1.3761-.0964-.4266-.2782-.8457-.5508-1.2538-.2374-.3616-.5416-.7085-.9069-1.0441-.1892-.1725-.3264-.3265-.4099-.46-.115-.1947-.141-.3728-.0668-.5323.039-.0909.115-.1743.23-.2541.0668-.0445.1669-.1094.3042-.1929.2021-.1354.3653-.3134.484-.5323.1243-.2151.1892-.4469.2078-.6936.0185-.2374-.013-.4785-.0891-.7196-.0797-.2337-.1947-.4488-.3431-.6491-.2244-.2949-.5508-.5657-.9737-.8105-.1539-.0891-.3487-.1892-.5768-.3023-.2596-.1243-.4581-.2189-.586-.282-.4582-.2225-.8291-.4543-1.1054-.6917-.3617-.3116-.5991-.6566-.7104-1.0331-.0315-.1131-.0667-.3042-.102-.5768-.0315-.2504-.0705-.4395-.1187-.5712-.0705-.217-.2021-.4303-.3876-.6399-.141-.1558-.3264-.3283-.5694-.5174z" fill="#6f8c4c"/><path d="m62.675 36.3969c-.4674-.3208-1.0627-.4729-1.7898-.4562-1.4281.026-2.411.6547-2.9619 1.8806-.2689.6158-.4228 1.3261-.4544 2.1329-.0185.549.0223 1.4207.1243 2.6206h6.3634c.0964-1.0275.1224-1.9733.0834-2.8376-.0445-.8995-.1539-1.5616-.3357-1.9826-.2633-.6158-.6083-1.0683-1.0312-1.3577z" fill="#aab29d"/><path d="m63.0887 38.2572c-.2114-.5509-.4804-.957-.8198-1.2186-.3653-.2874-.8364-.4228-1.4095-.4061-1.1277.0241-1.9085.5861-2.3406 1.6859-.2151.5527-.3357 1.1925-.3617 1.9177-.013.4896.0186 1.2723.0965 2.348h5.028c.0797-.9199.102-1.7694.0667-2.5465-.0315-.8104-.1187-1.4039-.2596-1.7804z" fill="#aab29d"/><path d="m62.6658 38.6838c-.1799-.523-.4098-.9088-.6955-1.1555-.0445-.0389-.0871-.0742-.1372-.1075-.1187-.0798-.2504-.1447-.3913-.1911-.1985-.0649-.4192-.0927-.6659-.0834-.3078.0074-.5823.0667-.829.1817-.141.0631-.2689.1428-.3913.2411-.3265.2671-.5768.6566-.7586 1.1722-.1799.523-.2819 1.1276-.3042 1.8101-.0129.434.0093 1.1091.0668 2.0216h4.288c.0482-.7956.0668-1.5301.0389-2.207-.0315-.766-.102-1.3261-.2207-1.6822z" fill="#9fa792"/><path d="m64.2478 43.5151c.1372.0037.1984-.0593.1854-.191l-.0259-.7382c-.0353-.1855-.1317-.2763-.2912-.2726l-6.6453-.0037c-.1372.0074-.2207.0853-.2504.2392l-.0185.7363c-.0093.1447.0705.2226.2467.2319h6.7992z" fill="#b2b9a6"/><path d="m49.676 21.5244v23.2408h21.8572v-23.2408z" fill="#beb175"/><path d="m70.2273 21.9846v22.7864h1.9122v-22.7864z" fill="#aab29d"/><path d="m50.9925 21.9771h-1.9122v22.7882h1.9122z" fill="#aab29d"/><path d="m48.5203 20.8699c-.039.2467-.0353.6139.0092 1.1035.0668.319.2949.473.6881.4618h22.703c.1372-.0129.2466-.0445.3394-.0964.102-.0612.1595-.1354.1632-.2244.0389-.6306.0389-1.0831 0-1.3595-.0316-.2096-.1985-.3357-.5156-.3765l-22.9329.0186c-.1595.0167-.2653.0538-.3265.115-.0575.0612-.102.1799-.1279.3579z" fill="#ae9a71"/><path d="m58.7731 26.0421c-.1094.5156-.0872 1.161-.6862 1.0665-.7308-.115-.4155-.8717-.4934-1.3465-.0612-.3691.1094-.8087.5768-.779.7437.0482.4896.7029.6028 1.0572z" fill="#c2c5a3"/><path d="m54.6812 25.5696c.1595-.3283-.1113-.9904.536-.9255.6566.0649.4748.6732.434 1.1035-.0371.4006-.0556.957-.6399.8643-.6231-.102-.2633-.6677-.3282-1.0423z" fill="#c2c5a3"/><path d="m61.7496 26.0759c-.0761.4173-.1002.9941-.6102.9051-.6028-.1057-.3339-.7363-.3413-1.1443-.0055-.371.1076-.8309.5898-.7512.5898.1002.3338.6325.3579.9904z" fill="#c2c5a3"/><path d="m63.504 26.3711c.1465-.4024-.0056-1.0201.6658-.9941.3691.0149.4061.3802.3245.664-.1168.4136-.1483.983-.7103.9978-.3839.0111-.2838-.4025-.28-.6658z" fill="#c2c5a3"/><path d="m98.4553 34.4053v-7.5874l-23.0962.2559v7.3315z" fill="#b88da9"/><path d="m66.811 35.2378v12.9344h31.8298v-12.9344z" fill="#b88da9"/><path d="m90.029 26.4414h-1.8676v21.7385h1.8676z" fill="#c09db5"/><path d="m77.1635 26.9363h-1.8732v21.2377h1.8732z" fill="#c09db5"/><path d="m98.6943 26.4414h-1.8676v21.7385h1.8676z" fill="#c09db5"/><path d="m68.6711 34.978h-1.8732v13.1848h1.8732z" fill="#c09db5"/><path d="m98.6106 36.128c.1095-.0111.2078-.0408.2782-.089.0872-.0557.1317-.1243.1373-.2059.0315-.5787.0315-.9922 0-1.2445-.0223-.1929-.1632-.3079-.4229-.3449l-31.724.0166c-.128.0149-.2207.0501-.2689.1058-.0483.0556-.0835.165-.1058.3282-.0315.2263-.0315.5639.0093 1.0108.0538.2931.243.434.5694.4229h31.5293z" fill="#b088a2"/><path d="m98.6108 27.4244c.1149-.0111.2077-.0408.2782-.089.0871-.0557.1316-.1243.1372-.2059.0315-.5787.0315-.9923 0-1.2445-.0223-.1929-.1632-.3079-.4229-.345l-23.2723.0167c-.128.0149-.2151.0501-.2652.1057-.0501.0557-.0835.1651-.1057.3283-.0353.2263-.0353.5638.0037 1.0108.0538.2931.2429.434.5694.4229z" fill="#b088a2"/><path d="m82.9297 30.5805c-.0872.4322.0056.996-.6844.9199-.7326-.0816-.5842-.638-.497-1.0868.0834-.434.0649-1.0905.7251-1.0219.8198.0835.4081.7697.4563 1.1907z" fill="#c2c5a3"/><path d="m84.2427 30.5993c.0593-.3727.1335-.8123.6065-.727.5619.102.484.6547.4951 1.0535.0112.3987-.1224.8642-.6713.7437-.5935-.1298-.319-.7066-.4285-1.0683z" fill="#c2c5a3"/><path d="m84.7732 40.4159c.5138.1929.4711.5935.4136.9886-.0575.3839-.2151.7307-.7159.6027-.5137-.1317-.5212-.5564-.4729-.9644.0519-.4229.3431-.6028.7734-.6287z" fill="#c2c5a3"/><path d="m82.9356 41.0448c-.0872.3784-.2245.6936-.6251.6584-.5693-.0482-.5174-.5026-.5267-.8884-.0093-.3616.1595-.651.562-.6027.5174.0612.5508.4896.5879.8308z" fill="#c2c5a3"/><path d="m79.9365 40.7462c-.0297.3857-.0668.7548-.4878.7437-.5323-.0167-.4655-.4303-.4099-.7771.0445-.2949.0352-.6825.4804-.6788.5953.0055.3356.4896.4191.7122z" fill="#c2c5a3"/><path d="m132.069 35.2582v-10.0226l-19.257 1.3205v8.704h19.257z" fill="#bd806d"/><path d="m104.624 36.002v11.5415h27.625v-11.5415z" fill="#bd806d"/><path d="m114.007 26.6655h-1.672v20.8798h1.672z" fill="#c78d7b"/><path d="m132.778 24.9446h-1.665v22.6065h1.665z" fill="#c78d7b"/><path d="m132.928 25.3397c.138-.0204.247-.0575.336-.1076.097-.0575.145-.1242.141-.2003 0-.5156-.032-.8828-.093-1.1035-.035-.1688-.215-.2578-.538-.2652l-20.282 1.9233c-.16.0259-.265.0667-.321.1205-.054.0538-.089.1558-.106.3023-.022.204.004.5026.084.8958.092.2578.335.3654.727.3246l20.054-1.8899z" fill="#c78d7b"/><path d="m105.815 35.7683h-1.671v11.7641h1.671z" fill="#c78d7b"/><path d="m132.668 36.7957c.11-.0093.203-.0371.279-.0797.083-.0501.128-.1113.131-.1837.032-.5156.032-.8865 0-1.1109-.022-.1725-.163-.2745-.419-.3079l-28.404.0149c-.128.0129-.215.0445-.265.0946-.045.05-.08.1465-.102.293-.036.2021-.032.5026.003.9032.052.2615.243.3876.561.3765h28.215z" fill="#c78d7b"/><path d="m127.846 41.0651c-.143.7827.045 1.9196-1.018 1.9493-1.052.0296-.636-1.1295-.844-1.7675-.145-.4414-.154-.9144.189-1.3057.355-.4025.853-.4321 1.276-.2634.67.2652.332.9088.401 1.3873z" fill="#eee395"/><path d="m116.872 31.2226c.078-.4711.141-.9458.238-1.4132.1-.4785.419-.6584.903-.6306.501.0315.647.3858.657.7641.011.5063-.045 1.0201-.136 1.519-.102.5675-.339 1.1128-1.057.9774-.664-.1261-.675-.6732-.606-1.2204z" fill="#eee395"/><path d="m121.238 30.846c.035-.2207.08-.5935.154-.9607.092-.4451.308-.7308.838-.6918.582.0426.642.4655.644.868 0 .5415-.065 1.0887-.147 1.6265-.067.4359-.286.8049-.799.7586-.54-.0501-.742-.4192-.714-.9348.009-.1706.011-.3412.024-.664z" fill="#eee395"/><path d="m118.512 41.505c-.071.5471.111 1.2389-.729 1.3836-.339.0575-.725.0204-.846-.3506-.254-.79-.185-1.595.087-2.3702.121-.3413.462-.562.794-.4525.913.3004.597 1.1294.69 1.7916z" fill="#eee395"/><path d="m123.052 41.3694c-.024.256.006.5342-.087.7623-.241.6009-.683.6306-1.13.2467-.356-.306-.218-2.0457.177-2.2701.447-.2541.875-.2059 1.012.382.065.2801.021.5842.026.8791z" fill="#eee395"/><path d="m108.385 38.6355v-8.4424l-13.2773 1.111v7.3314z" fill="#be9c71"/><path d="m92.897 39.4683v12.9344h17.701v-12.9344z" fill="#be9c71"/><path d="m109.294 39.2104v13.1849h1.873v-13.1849z" fill="#caa67b"/><path d="m92.3401 39.2104v13.1849h1.8676v-13.1849z" fill="#caa67b"/><path d="m109.227 31.4912h-1.873v8.3312h1.873z" fill="#caa67b"/><path d="m94.2319 31.4954v8.3311h1.8677v-8.3311z" fill="#caa67b"/><path d="m111.123 40.3585c.109-.0112.202-.0408.278-.0891.083-.0556.128-.1261.128-.2114.035-.5749.035-.9867 0-1.2389-.019-.1929-.16-.3079-.419-.345l-18.9214.0167c-.128.0148-.2152.0501-.2653.1057-.05.0557-.0834.1651-.1057.3283-.0352.2263-.0315.562.0037 1.0052.0575.2968.2467.4396.5694.4285z" fill="#b08e64"/><path d="m93.7483 29.9336c.0556-.0501.1595-.0817.306-.0928l14.8897.3172c.296.0371.458.1446.484.3227.04.2318.042.612.003 1.1406-.003.0742-.055.1372-.152.1873-.087.0427-.195.0686-.321.0761l-14.6682-.3283c-.3709.0055-.586-.1261-.6528-.3969-.0427-.4117-.0464-.7215-.0074-.9273.0259-.1484.0649-.2486.1205-.2986z" fill="#b08e64"/><path d="m100.319 46.0967c.171-.6435-.263-1.5727.864-1.6265.829-.0371 1.071.395.939 1.6636-.074.7271.044 1.7601-1.048 1.6896-1.1147-.0723-.588-1.122-.755-1.7267z" fill="#eee395"/><path d="m96.2573 46.1727c.0353-.2208.0798-.5935.154-.9608.0927-.4451.3078-.7307.8383-.6918.5823.0427.6417.4656.6435.868 0 .5416-.0649 1.0887-.1465 1.6266-.0668.4358-.2856.8049-.7993.7585-.5398-.05-.7419-.4191-.7141-.9347.0093-.1707.0111-.3413.0241-.664z" fill="#eee395"/><path d="m102.712 34.9781c.035-.2207.08-.5935.154-.9607.093-.4452.308-.7308.838-.6918.583.0426.642.4655.644.8679 0 .5416-.065 1.0887-.147 1.6266-.067.4358-.285.8049-.799.7585-.54-.05-.742-.4191-.714-.9347.009-.1706.011-.3413.024-.664z" fill="#eee395"/><path d="m100.562 35.1023c-.024.256.006.5342-.087.7623-.241.6009-.6823.6306-1.1293.2467-.3561-.306-.2188-2.0457.1762-2.2701.447-.2541.8751-.2059 1.0131.382.064.2801.02.5843.026.8791z" fill="#eee395"/><path d="m72.7867 50.0161c-.0964-.1354-.1595-.2782-.1891-.4285-.0445-.2392-.0705-.5712-.0742-.9978v-1.0108l-2.476-.0426c-.0093.3932-.0315.7437-.0575 1.0516-.0352.395-.0797.6881-.1317.8828-.0445.1595-.1279.3246-.2466.4933-.1095.1503-.23.2801-.3561.3877-.039.037-.0668.0649-.0835.0853-.026.0371-.0389.0779-.0389.1168 0 .0779.0537.1428.1502.1929.1409.0668.3041.1057.4896.1187.0742.0056.2504.0037.5193-.0019.1317-.0037.3227.0446.5694.1447.2559.1039.4581.1558.6083.1595.0928 0 .2078-.0278.3394-.089.0668-.0315.1224-.0649.1725-.0983.1373-.0798.3264-.1187.5694-.1187.2726 0 .4488-.013.5286-.0408.0352-.013.0668-.0334.0927-.0631.0315-.0315.0445-.0704.0538-.115.0037-.0445-.0093-.0908-.0352-.1391-.0186-.0315-.0446-.0686-.0798-.1131-.1762-.2022-.2819-.3283-.3171-.3783z" fill="#a2b177"/><path d="m75.4353 32.4649c-.1855-.1929-.4266-.4062-.7234-.638-.3357-.2597-.6825-.4952-1.0441-.7085-.9162-.5416-1.7063-.8123-2.3666-.8142-.6176 0-1.3966.2634-2.335.7827-.3784.2077-.74.4358-1.0794.6825-.3209.23-.5731.4377-.753.6213-.2337.2392-.4136.4525-.5471.6399-.1725.254-.2857.5044-.3395.7511-.0315.1502-.0482.3635-.0482.6399 0 .3023-.0092.5156-.0315.6435-.0705.4266-.2819.8346-.6343 1.2222-.2689.2968-.6399.5991-1.1109.9051-.1317.0872-.3302.2152-.5991.3876-.2374.154-.4321.2894-.5861.4081-.4321.3264-.7493.6658-.9514 1.0163-.141.2374-.2337.4897-.2856.7549-.0483.2745-.0483.5397 0 .7956.0519.2671.1595.5082.3208.7289.1632.2226.3654.3951.6028.5156.1632.0723.2819.128.3561.1688.1372.0705.2337.1521.2912.2448.0964.1651.0964.3617-.0037.5898-.0705.1576-.1985.3431-.3784.5564-.3561.4154-.638.8364-.8494 1.263-.243.4822-.3839.9626-.4285 1.4411-.0445.523.039 1.0201.2467 1.493.2207.4989.5416.8717.9644 1.1184.2337.1372.5064.2374.8198.3023.2467.0519.5416.0853.8773.0983.6305.0278 1.7582-.052 3.3847-.2374.855-.0965 1.4411-.1595 1.7582-.1874.6084-.0537 1.0795-.076 1.4151-.063.2504.0093.6473.0501 1.1945.1187.3264.0408.8587.1131 1.6135.2133 1.4856.1929 2.578.2819 3.2698.2652.3394-.0074.6306-.0353.881-.0816.3134-.0594.586-.1558.8234-.2875.4266-.2392.7586-.6083.983-1.1017.2207-.471.3079-.9662.2726-1.4893-.0352-.4785-.1669-.9625-.4006-1.4485-.2021-.4302-.4766-.855-.8234-1.2778-.1799-.217-.3042-.4062-.3747-.5638-.0964-.23-.0927-.4266.0093-.5898.0575-.0909.1539-.1725.2912-.2393.0797-.0389.2021-.0927.3653-.1613.2374-.115.4414-.2838.6084-.5045.1669-.2151.2782-.4562.3357-.7215.0575-.2559.0612-.5211.0129-.7956-.0445-.2652-.1372-.5175-.2689-.7586-.1984-.3561-.5119-.701-.9347-1.033-.154-.1206-.3487-.2597-.5768-.4173-.269-.1762-.4674-.3079-.5954-.3969-.4674-.3135-.8327-.6213-1.0979-.9236-.3432-.3951-.5472-.8068-.6121-1.2334-.0185-.128-.0222-.3412-.0185-.6436.0037-.2763-.0093-.4896-.039-.6398-.0445-.2485-.1539-.5008-.3264-.7567-.1224-.1911-.3042-.408-.5323-.651z" fill="#6f8c4c"/><path d="m39.7068 35.5825v19.7819h18.1293v-19.7819z" fill="#bd806d"/><path d="m56.3374 35.7644v19.6149h1.9122v-19.6149z" fill="#c78d7b"/><path d="m39.2971 35.7644v19.6149h1.9177v-19.6149z" fill="#c78d7b"/><path d="m38.4828 41.7179c-.0352.2318-.0315.5768.0093 1.0368.0575.3004.2504.4432.5824.4321h19.2922c.115-.0111.2114-.0408.2856-.0909.0872-.0575.1372-.1279.1372-.2114.0353-.5916.0353-1.0164 0-1.276-.0222-.1966-.1669-.3153-.4321-.3524l-19.4907.0167c-.1316.0148-.2244.0519-.2726.1076-.0482.0575-.089.1687-.1094.3357z" fill="#c78d7b"/><path d="m38.4828 35.0263c-.0352.2318-.0315.5768.0093 1.0367.0575.3005.2504.4433.5824.4322h19.2922c.115-.0112.2114-.0408.2856-.0909.0872-.0575.1372-.128.1372-.2115.0353-.5916.0353-1.0163 0-1.276-.0222-.1966-.1669-.3153-.4321-.3523l-19.4907.0166c-.1316.0149-.2244.052-.2726.1076-.0482.0575-.089.1688-.1094.3357z" fill="#c78d7b"/><path d="m49.9634 46.5625c.0779-.4711.141-.9459.2374-1.4133.1002-.4785.4192-.6584.9032-.6306.5008.0316.6473.3858.6566.7642.0111.5063-.0445 1.02-.1354 1.5189-.102.5676-.3394 1.1128-1.0572.9774-.6639-.1261-.6751-.6732-.6064-1.2203z" fill="#eee395"/><path d="m46.9584 50.9484c-.0705.5471.1113 1.2389-.7289 1.3835-.3394.0575-.7252.0204-.8457-.3505-.2541-.7901-.1855-1.595.0872-2.3702.1205-.3413.4618-.562.7938-.4526.9125.3005.5972 1.1295.6899 1.7916z" fill="#eee395"/><path d="m51.4972 50.813c-.0241.256.0056.5342-.0872.7623-.2411.6009-.6825.6306-1.1295.2467-.3561-.306-.2188-2.0457.1762-2.2701.447-.2541.8754-.2059 1.0127.382.0649.2801.0204.5842.0259.8791z" fill="#eee395"/><path d="m109.083 50.0142c-.173-.2133-.39-.3672-.651-.4618-.262-.0946-.534-.128-.816-.1001-.445.0445-.853.2299-1.222.5564-.167.1521-.314.3208-.434.5044-.267-.4043-.627-.7233-1.083-.9533-.653-.3357-1.312-.4043-1.976-.2077-.283.0835-.537.2096-.764.3802-.254.1985-.443.4266-.569.6844-.141.2801-.197.5842-.169.9088.015.1873.058.3542.134.5007-.06.0242-.114.0575-.162.1002-.22.1836-.326.4062-.315.6677-.002.267.132.5156.401.7474.118.0946.792.2708 2.019.5286 1.236.2578 2.326.4358 3.276.536.947.0983 1.839.1224 2.672.0705.839-.052 1.375-.1429 1.606-.2764.199-.1001.368-.2374.507-.4117.148-.1929.239-.3988.272-.6176.045-.3042-.022-.6009-.196-.8903-.171-.2689-.395-.4655-.672-.586-.419-.1707-.997-.1799-1.736-.0297.154-.2411.217-.523.188-.842-.024-.3135-.126-.5842-.31-.8105z" fill="#7f8424"/><path d="m179.183 149.469c-13.207-9.406-28.515-8.68-43.194-10.329-.105-.012-.291-.051-.562-.12-1.068.032-6.196-.017-7.497-.153-2.277-.309-3.985-.536-5.124-.68-1.422-.177-2.973-.316-4.653-.416-1.085.032-2.211.09-3.375.173-.198.017-.371-.01-.514-.083-.126-.058-.21-.144-.256-.256-1.344-.029-3.011-.046-5.005-.063-11.7585-.102-25.2692-.005-31.2166.29-9.826.482-18.616 1.595-26.37 3.339-6.6736 1.5-13.4377 2.28-19.9443 4.954-5.922 2.436-24.29172 5.904-22.3119 20.104.75792 5.449 5.5041 8.878 8.7916 9.458 3.5211.621 7.0437 1.244 10.5632 1.865 3.5211.621 2.4232.246 9.9436 1.335 7.522 1.089 7.2662 1.074 10.8699 1.532 19.5376 1.281 18.8337 1.496 28.2561 1.496 10.1978 0 21.9877-.073 26.0494-.217 9.74-.346 11.761.331 30.288.331 0 0 4.242-.331 8.909-.331 4.95 0 5.374.433 11.174-.536 4.668-.434 7.596-.77 10.633-.891 3.627-.147 5.944-.604 9.095-1.386 1.509-.371 2.806-.789 3.883-1.269 1.37-.597 2.919-1.342 3.934-2.236 1.162-1.006 2.107-2.231 2.833-3.663.782-1.55 1.929-3.159 2.009-4.821.03-.633.009-1.276-.062-1.919.356-.67.518-1.683.478-3.04-.024-.789-.089-1.461-.195-2.016-.134-.677-.371-1.367-.707-2.071-.269-.555-.625-1.164-1.068-1.826-1.711-2.565-3.121-4.75-5.657-6.557h.002zm-12.068-14.204c-.119.046-.237.109-.355.19.01-.027.024-.054.034-.083.113-.042.219-.081.319-.107m-120.8464 5.2c-.0826.248-.1795.489-.286.723.1113-.036.2225-.073.3337-.107-.0143-.195-.0302-.402-.0492-.614z" fill="#cccf72"/><path d="m61.6167 123.359c-.0809-1.609-.5316-3.142-1.3579-4.588-.7859-1.26-1.6238-1.998-2.5425-2.189-.6414-.221-1.6353-.099-2.9469.354-.7801.267-1.4042.656-1.8896 1.167-.4218.558-.572 1.359-.4911 2.422.2138 1.254.3409 2.166.3698 2.735.0231 1.661-.6241 2.997-1.9357 3.99-.4103.383-.8552.673-1.329.865-2.0976-6.481-4.6978-14.153-7.7834-23.026-.7281-2.132-1.3175-3.717-1.7682-4.757-.7859-1.7418-1.6526-3.1763-2.606-4.3145-1.1557-1.3764-2.4558-2.4217-3.9293-3.1418-1.6526-.8305-3.259-1.1208-4.8307-.8885-1.8144.2206-3.4323 1.0685-4.8769 2.5552-1.3405 1.3822-2.2882 3.0373-2.8487 4.9712-.6934 3.0024-.5951 6.8004.3352 11.3884 1.1556 5.587 2.8487 11.493 5.0964 17.718-.6876.343-1.3694.61-2.057.813-2.6638.75-4.8943.448-6.7029-.906-1.1152-.772-1.9819-2.009-2.6291-3.693-.3467-.941-.7628-2.497-1.2481-4.681-.9535-4.17-2.5772-6.707-4.89428-7.613-1.42146-.57-2.91227-.442-4.51286.383-1.47925.784-2.6118 1.94-3.345649 3.455-1.103659 2.631-1.184557 5.779-.236913 9.437.953422 3.554 2.265102 6.423 3.958152 8.601 2.23621 2.735 4.8769 4.332 7.91055 4.785 2.2015.366 5.0733-.069 8.5923-1.283 2.4905-.784 5.0503-1.771 7.6447-2.95.5836 1.423 1.1904 2.863 1.8318 4.326 4.4724 10.175 6.7606 15.419 6.9051 15.709 3.4612 7.631 5.5992 11.679 6.4428 12.138 1.1036.61 3.7501.203 7.9972-1.231 4.247-1.435 6.7317-2.799 7.3962-4.089.3583-.737-.4507-4.361-2.4442-10.86-1.1441-3.693-3.0047-9.408-5.5587-17.143-.0347-.168-.0925-.337-.1734-.499.312-.053.6183-.128.8956-.21 1.0228-.319 2.242-.824 3.6751-1.527 1.2538-.743 2.109-1.272 2.5424-1.597.9072-.656 1.5948-1.336 2.0629-2.044.9187-1.307 1.3405-2.834 1.2828-4.582z" fill="#9da92c"/><path d="m179.742 156.157 4.929-39.819-84.9725-10.72-4.929 39.82z" fill="#bba389"/><path d="m98.9309 107.574-4.5117 36.462 6.6338.821 4.512-36.461z" fill="#d1c1ae"/><path d="m178.292 117.601-4.511 36.461 6.634.821 4.511-36.461z" fill="#d1c1ae"/><path d="m173.88 132.861c.21-.301.466-.572.769-.814l-.552-.983c-.5.363-.899.783-1.193 1.259-.296.477-.483 1.103-.563 1.875-.081.776.172 1.716.762 2.818s1.373 1.855 2.352 2.261c.531.225 1.079.335 1.646.328.379-.007.736-.065 1.068-.175l-.238-1.234c-.262.09-.543.139-.845.144-.427.004-.84-.079-1.241-.247-.734-.308-1.36-.864-1.876-1.669-.489-.772-.697-1.503-.623-2.194.047-.476.226-.934.538-1.371z" fill="#4d791c"/><path d="m181.747 153.86c-.188-.79-.433-1.209-.738-1.259l-86.4774-10.905c-.4083-.041-.8323.446-1.2675 1.453-.1975.458-.4218 1.098-.6753 1.921-.1212.437.0807.691.6057.765l88.1715 11.116c.48-.031.709-.28.691-.744-.061-.967-.164-1.75-.307-2.345z" fill="#9e8267"/><path d="m173.021 145.317c.071-.653-.353-1.064-1.273-1.23-.473-.085-1.186-.172-2.142-.264-.33-.032-.61.067-.841.3-.22.218-.373.525-.458.925-.249 1.224-.402 2.357-.462 3.405-.018.285.045.527.186.729.141.209.346.339.61.388.779.166 1.71.281 2.793.346.272.016.507-.047.709-.186.222-.155.362-.395.42-.72.085-.478.166-1.064.244-1.759.095-.833.166-1.479.214-1.934z" fill="#b39a80"/><path d="m112.78 118.312c.027.343.157.619.386.832.22.211.516.344.886.397 2.636.371 4.649.62 6.04.748.329.031.61-.068.841-.301.22-.218.372-.525.458-.924.249-1.223.401-2.358.459-3.406.018-.285-.044-.527-.186-.729-.141-.209-.345-.339-.61-.391-2.6-.504-4.83-.78-6.688-.827-.5-.009-.875.291-1.128.906-.287 1.124-.44 2.353-.458 3.693z" fill="#b39a80"/><path d="m149.221 123.066c.027.343.157.619.386.832.22.211.516.344.886.397 2.636.371 4.649.62 6.039.747.33.032.611-.067.842-.3.22-.218.372-.525.457-.924.25-1.223.402-2.358.463-3.406.018-.285-.045-.527-.187-.729-.141-.209-.345-.339-.61-.391-2.6-.504-4.83-.78-6.688-.827-.5-.009-.875.291-1.126.906-.289 1.124-.442 2.353-.458 3.693z" fill="#b39a80"/><path d="m106.777 124.84c.027.344.157.62.385.833.22.211.516.343.887.397 2.636.37 4.648.619 6.039.747.33.031.61-.067.841-.301.22-.217.373-.525.458-.924.249-1.223.402-2.358.462-3.406.018-.285-.045-.527-.186-.729-.141-.208-.345-.339-.61-.39-2.6-.505-4.83-.781-6.688-.828-.5-.009-.875.292-1.128.906-.288 1.124-.44 2.354-.458 3.693z" fill="#b39a80"/><path d="m111.669 114.316c.072-.653-.352-1.063-1.272-1.229-.473-.085-1.186-.173-2.142-.265-.33-.031-.61.067-.841.301-.22.217-.373.525-.458.924-.249 1.223-.402 2.358-.462 3.406-.018.285.045.527.186.729.141.208.345.339.61.388.779.166 1.71.28 2.793.345.272.016.507-.047.709-.186.222-.155.361-.395.42-.72.085-.478.166-1.063.244-1.759.095-.832.166-1.478.213-1.934z" fill="#b39a80"/><path d="m185.445 119.027c-.119-.105-.245-.201-.377-.291-.987.159-1.927.514-2.822 1.061-1.086.655-1.943 1.51-2.576 2.56-.619 1.052-.962 2.207-1.032 3.466-.067 1.259.144 2.439.635 3.54-1.081.631-1.909 1.645-2.484 3.042-.469 1.147-.747 2.493-.839 4.036-.103 1.757.191 3.079.882 3.967.446.545 1.041.857 1.784.936.792.085 1.379-.144 1.758-.687.054.482.357.817.911.998.532.166 1.021.119 1.468-.139.729-.424.942-1.332.639-2.723 1.29-2.513 1.689-5.041 1.202-7.586.337.005.642-.166.911-.509.211-.287.368-.644.471-1.07.55-2.102.494-4.191-.163-6.266.338-.411.561-.891.668-1.443.108-.552.07-1.083-.103-1.593-.213-.516-.52-.949-.931-1.301z" fill="#50801b"/><path d="m167.609 116.73c.065-.464.2-.922.404-1.373l-1.2-.796c-.359.706-.591 1.426-.696 2.162-.13.902-.049 1.732.245 2.491.421 1.099 1.301 2.046 2.638 2.838 1.402.818 2.777 1.177 4.126 1.074.736-.054 1.424-.247 2.064-.581.428-.229.801-.5 1.115-.819l-.987-1.267c-.247.255-.539.473-.878.655-.482.251-1.002.397-1.557.44-1.016.076-2.05-.196-3.105-.813-1.005-.594-1.667-1.308-1.985-2.135-.222-.57-.283-1.196-.184-1.874z" fill="#50801b"/><path d="m180.774 117.134c-.267-1.016-.678-1.673-1.23-1.972-.502-.235-1.095-.222-1.774.041-1.349.527-2.349 1.702-3.004 3.529-.193.623-.371 1.393-.53 2.31-.067.362-.15.844-.249 1.443-.072-.067-.146-.128-.22-.184-.253-.193-.507-.253-.758-.179-.384.103-.648.475-.797 1.115-.213 1.072-.206 2.182.021 3.331.119.628.307 1.153.567 1.58-.309.262-.547.596-.713 1.005-.245.572-.332 1.184-.263 1.839.041.895.256 1.571.651 2.024.22.28.476.458.767.529.424.122.889-.033 1.393-.468.007.314.043.63.108.949.137.756.408 1.46.815 2.113.403.57.787.877 1.15.922.364.045.7-.092 1.006-.413.267-.291.437-.639.511-1.048.029-.134.072-.533.13-1.198.047-.48.13-.861.247-1.148.159.296.428.464.805.498.355.031.673-.061.954-.281.453-.291.783-.857.991-1.698.467-1.526.626-3.103.481-4.727-.104-1.227-.375-2.394-.817-3.5.096-.601.161-1.205.191-1.815.089-1.561-.056-3.094-.438-4.597z" fill="#5a8d21"/><path d="m180.686 136.06c.621.038 1.341-.096 2.16-.401.81-.267 1.102-.748.875-1.445-.258-.68-.581-1.266-.967-1.757-.415-.489-.928-.769-1.543-.839-.649-.076-1.198.079-1.651.462-.483.382-.77.942-.855 1.683-.088.736.067 1.285.462 1.651.361.39.866.608 1.519.648z" fill="#d18b37"/><path d="m180.962 135.623c.112-.539.166-1.109.164-1.712.018-.581-.092-1.12-.335-1.622-.235-.507-.648-.779-1.238-.814-.615-.012-1.146.199-1.593.63-.469.453-.7.976-.689 1.57-.013.613.294 1.246.922 1.896.653.678 1.252.985 1.798.922.527-.04.85-.332.971-.872z" fill="#e59b42"/><path d="m181.097 133.63c.484-.363.987-.861 1.507-1.494.514-.641.685-1.222.512-1.743-.153-.485-.698-.792-1.631-.926-.92-.113-1.658-.036-2.215.231-.59.28-.971.704-1.148 1.272-.204.581-.146 1.207.175 1.88.318.668.742 1.052 1.272 1.148.511.137 1.021.014 1.528-.368z" fill="#efa750"/><path d="m178.364 134.537c.004-.862-.215-1.712-.657-2.546-.027-.021-.052-.041-.074-.057-.099-.074-.211-.127-.332-.161-.14-.045-.256-.054-.353-.031-.141.04-.244.121-.312.237-.148.157-.323.418-.527.777-.251.444-.392.848-.422 1.211-.022.393.086.846.324 1.362.177.35.455.805.832 1.364.119.206.247.312.384.321.139.027.242-.023.311-.146.534-.63.808-1.407.826-2.329z" fill="#769623"/><path d="m179.804 131.441c-.695.684-1.543 1.175-2.542 1.471-.038-.006-.069-.011-.098-.018-.133-.024-.256-.071-.373-.145-.137-.081-.231-.169-.283-.265-.069-.148-.08-.296-.033-.444.02-.247.101-.597.244-1.048.178-.559.402-.994.676-1.306.303-.329.747-.599 1.339-.81.413-.13.985-.262 1.712-.392.253-.065.433-.043.538.063.121.092.157.217.108.374-.123.938-.552 1.777-1.288 2.522z" fill="#769623"/><path d="m168.845 125.653c-.494.175-1.007.516-1.541 1.023-.541.473-.608.942-.202 1.409.424.441.866.789 1.328 1.043.482.242.974.289 1.474.141.527-.155.902-.455 1.126-.902.249-.455.285-.985.11-1.586-.175-.599-.475-.976-.902-1.126-.408-.184-.872-.184-1.391 0z" fill="#d18b37"/><path d="m168.979 126.095c.09.453.236.915.438 1.38.177.455.442.836.792 1.146.35.314.758.388 1.227.222.48-.193.823-.532 1.028-1.014.215-.505.22-.987.015-1.443-.193-.48-.639-.868-1.339-1.164-.729-.31-1.295-.35-1.696-.123-.395.204-.55.538-.465.996z" fill="#e59b42"/><path d="m169.182 127.564c-.256.442-.481.994-.676 1.656-.186.666-.125 1.173.177 1.519.279.325.801.386 1.569.179.749-.215 1.296-.518 1.64-.908.363-.413.52-.869.471-1.365-.034-.518-.285-.984-.754-1.399-.469-.413-.922-.57-1.364-.472-.442.063-.796.326-1.063.79z" fill="#efa750"/><path d="m171.297 126.148c.281.669.729 1.254 1.349 1.757.029.007.053.013.076.018.101.025.204.029.309.016.124-.012.218-.043.283-.092.097-.079.15-.173.162-.288.062-.17.114-.428.152-.774.05-.426.025-.785-.072-1.076-.112-.312-.345-.629-.697-.949-.254-.214-.617-.476-1.095-.783-.159-.119-.294-.162-.402-.122-.116.025-.179.097-.193.218-.206.664-.163 1.355.128 2.078z" fill="#769623"/><path d="m171.037 128.953c.314-.761.81-1.42 1.488-1.979.031-.007.058-.013.083-.018.11-.025.222-.029.336-.009.133.016.236.054.305.112.104.092.16.204.173.335.065.197.117.495.155.892.047.492.016.902-.094 1.234-.126.355-.384.712-.772 1.068-.278.238-.678.527-1.198.868-.175.133-.321.175-.438.128-.125-.031-.193-.116-.206-.253-.213-.767-.157-1.559.168-2.378z" fill="#769623"/><path d="m183.029 125.76c.572.247 1.294.366 2.167.359.855.027 1.292-.327 1.315-1.061-.009-.727-.113-1.387-.308-1.981-.222-.601-.61-1.039-1.164-1.315-.583-.294-1.153-.336-1.71-.128-.585.196-1.045.624-1.379 1.29-.333.662-.375 1.232-.128 1.71.206.491.608.866 1.207 1.128z" fill="#d18b37"/><path d="m183.21 125.242c.29-.467.537-.985.739-1.553.215-.538.296-1.085.24-1.637-.048-.557-.344-.952-.887-1.187-.574-.22-1.146-.204-1.714.049-.596.265-.989.68-1.182 1.241-.222.572-.148 1.272.22 2.098.384.859.841 1.352 1.373 1.48.509.142.913-.02 1.211-.489z" fill="#e59b42"/><path d="m184.227 123.934c.581-.178 1.222-.474 1.927-.891.704-.428 1.061-.918 1.074-1.463.021-.507-.383-.982-1.216-1.427-.825-.419-1.545-.599-2.16-.538-.651.063-1.155.332-1.514.803-.391.478-.55 1.086-.478 1.826.072.738.339 1.243.803 1.515.433.303.956.363 1.564.175z" fill="#efa750"/><path d="m181.236 123.164c.298-.81.384-1.682.254-2.618-.018-.029-.036-.056-.052-.076-.07-.103-.155-.191-.256-.265-.116-.09-.222-.139-.321-.15-.145-.009-.271.029-.374.116-.193.099-.447.281-.761.55-.388.332-.657.664-.81.994-.155.361-.208.826-.161 1.389.047.39.152.913.316 1.566.043.233.126.377.251.433.122.071.236.06.344-.032.715-.41 1.24-1.045 1.57-1.907z" fill="#769623"/><path d="m183.742 120.82c-.888.406-1.853.576-2.894.514-.034-.018-.063-.036-.087-.052-.117-.067-.216-.155-.301-.265-.101-.121-.159-.238-.175-.345-.013-.164.027-.308.121-.429.103-.224.299-.525.588-.902.357-.464.718-.796 1.081-.996.397-.206.909-.307 1.535-.303.433.018 1.014.09 1.743.216.26.027.422.107.485.242.083.128.074.258-.027.388-.436.839-1.127 1.483-2.073 1.93z" fill="#7d9e25"/><path d="m164.32 117.749c-.157-.332-.267-.689-.33-1.071h-1.126c.069.613.24 1.165.507 1.656.271.494.722.965 1.355 1.416.637.453 1.579.693 2.827.722 1.247.029 2.29-.282 3.127-.931.458-.352.823-.776 1.097-1.27.182-.334.305-.673.375-1.016l-1.191-.402c-.05.274-.149.541-.292.806-.207.372-.482.691-.828.958-.63.487-1.422.758-2.376.81-.913.045-1.651-.135-2.216-.539-.391-.276-.7-.657-.929-1.144z" fill="#5a8d21"/><path d="m155.195 79.2639-5.433-7.8455-16.539-2.0461-7.184 6.2908-2.075 5.8824-3.624 1.1711-1.653 13.3623 38.631 4.7811 1.655-13.3782-3.197-2.0057-.583-6.2122z" fill="#c3b7a3"/><path d="m135.119 77.5275c-.568.5317-1.064 1.2855-1.488 2.2614-.368.8458-.623 1.6849-.767 2.5194-.157.9984-.28 2.0708-.37 3.2239-.112 1.3865-.101 2.1852.029 2.4006.209.3365 2.425.7583 6.648 1.2676 4.208.5137 6.443.6416 6.708.3836.224-.2154.424-1.0343.601-2.4521.076-.6103.182-1.7298.316-3.3586.088-1.0185.032-1.9675-.164-2.8425-.219-.9916-.599-1.7948-1.137-2.4095-.556-.6304-1.232-1.1486-2.026-1.5592-.864-.4442-1.824-.7314-2.885-.8615-2.329-.2872-4.151.1862-5.465 1.4224z" fill="#d1c1ae"/><path d="m137.016 79.9482c-.341.3186-.637.7695-.89 1.3551-.22.507-.375 1.0096-.46 1.5099-.094.5967-.168 1.2406-.222 1.9294-.067.8301-.061 1.3102.018 1.4381.125.2019 1.454.4554 3.982.7605 2.522.3074 3.859.3836 4.018.2311.135-.1301.256-.6192.359-1.4673.045-.3657.108-1.0365.188-2.0101.052-.6103.021-1.1779-.098-1.7028-.133-.5946-.359-1.0747-.682-1.4426-.332-.3769-.738-.6888-1.214-.9333-.516-.2647-1.093-.4375-1.727-.516-1.396-.1728-2.486.1122-3.274.8525z" fill="#7c674a"/><path d="m152.167 75.8606c-.621-1.3192-1.804-2.5441-3.543-3.6793-1.886-1.2317-3.923-1.9922-6.111-2.2817-2.275-.3073-4.547-.0919-6.822.6484-2.093.6775-3.603 1.5839-4.532 2.7124-.68.8234-1.55 2.1605-2.614 4.0091-1.101 1.9137-1.961 3.2598-2.578 4.0361-.953 1.2249-2.414 2.2233-4.386 2.9928-2.288.8907-4.709 1.2025-7.257.94-.027.5026-.023.9243.02 1.2676.038.3724.11.608.22.7044.22.193.848.2805 1.887.2625.917-.0157 1.99-.1077 3.217-.2782 1.413-.1929 2.701-.59 3.865-1.189 1.286-.6574 2.302-1.5054 3.049-2.5441.574-.783 1.378-2.1358 2.41-4.0585.996-1.8576 1.812-3.2015 2.445-4.0316.866-1.1374 2.264-2.0573 4.195-2.755 2.098-.7605 4.193-.9983 6.284-.7134 2.011.267 3.875 1.0073 5.596 2.2188 1.588 1.115 2.663 2.3287 3.221 3.6389.413.958.878 2.4612 1.389 4.505.532 2.1156.981 3.6232 1.348 4.5229.472 1.189 1.25 2.2592 2.336 3.2104.983.866 2.136 1.5637 3.459 2.0977 1.495.6012 2.486.9804 2.975 1.1307.981.3006 1.638.3432 1.972.1301.124-.0785.247-.2849.373-.6147.119-.3074.226-.6977.327-1.1666-2.459-.4442-4.599-1.3596-6.421-2.7416-1.536-1.1688-2.62-2.4701-3.253-3.9036-.408-.9042-.913-2.4185-1.516-4.5431-.581-2.0528-1.1-3.5627-1.56-4.5251z" fill="#bd5656"/><path d="m148.624 72.1834c1.739 1.133 2.919 2.3601 3.543 3.6793.457.9647.978 2.4724 1.559 4.5251.603 2.1246 1.108 3.639 1.516 4.5431.631 1.4336 1.717 2.7348 3.254 3.9037 1.821 1.3842 3.962 2.2973 6.42 2.7416.151-.7516.229-1.4718.238-2.156.007-.7696-.081-1.2743-.262-1.5122-.063-.0807-.361-.2288-.895-.4464-.81-.3321-1.398-.5856-1.764-.7583-1.752-.8323-2.95-1.7903-3.589-2.8762-.581-.9535-1.003-2.3377-1.268-4.1549-.33-2.2682-.606-3.7265-.826-4.3726-.52-1.5839-1.559-3.0444-3.114-4.3838-1.049-.8974-2.611-1.9361-4.682-3.1184-1.507-.8548-3.549-1.4381-6.127-1.75-2.544-.3073-4.821-.258-6.833.1459-4.579.9288-7.709 2.7213-9.389 5.3754-.371.5721-.994 1.9204-1.867 4.0405-.7 1.6983-1.447 2.9367-2.243 3.7197-.893.8997-2.278 1.5413-4.151 1.9294-.444.0942-1.072.193-1.882.3029-.588.083-.929.1503-1.021.2042-.22.1278-.422.5631-.599 1.3034-.166.6731-.271 1.4-.314 2.1762 2.548.2625 4.967-.0516 7.258-.94 1.969-.7695 3.432-1.7679 4.386-2.9928.617-.7785 1.476-2.1246 2.577-4.0361 1.064-1.8509 1.937-3.1857 2.614-4.0091.929-1.1307 2.441-2.0348 4.532-2.7124 2.275-.7403 4.547-.9557 6.822-.6484 2.19.2895 4.227 1.05 6.112 2.2817z" fill="#ca5b5b"/><path d="m185.478 120.56c.799.092 1.338-.153 1.611-.734.42-.845.725-1.839.911-2.979l-91.4133-11.518c-.1929 1.068-.166 2.109.0808 3.118.157.496.5205.797 1.0903.904l87.7232 11.209z" fill="#bd5656"/><path d="m185.483 103.989c-.386-1.548-1.052-2.629-2.001-3.248-.725-.469-1.968-.8279-3.733-1.077-8.402-1.1644-30.804-4.4062-45.436-6.1-13.342-1.5458-22.067-2.5329-26.175-2.9659-1.207-.1234-2.328.1682-3.365.8772-.944.6416-1.839 1.6444-2.683 3.004-1.326 2.1223-2.3691 3.8925-3.1297 5.3126-1.18 2.1961-1.972 4.0431-2.3758 5.5371l91.4135 11.518c.018-1.907-.272-4.121-.871-6.639-.338-1.431-.888-3.504-1.644-6.216z" fill="#ca5b5b"/><g fill="#c35555"><path d="m159.315 107.063c-.007-.444-.086-.785-.24-1.021-.169-.256-.447-.428-.835-.52-1.16-.389-2.403-.656-3.724-.801-1.328-.155-2.587-.173-3.776-.05-.321.065-.594.175-.823.33-.267.184-.429.408-.487.671l-.512 4.242c-.038.44.211.718.745.835 2.917-.162 5.764.218 8.548 1.135.408 0 .662-.179.758-.532l.348-4.287z"/><path d="m109.267 100.868c.011-.442-.034-.778-.133-1.0069-.11-.249-.303-.4105-.576-.489-.812-.3433-1.685-.5654-2.621-.6641-.94-.1077-1.835-.0785-2.685.0852-.231.0763-.431.1952-.597.3567-.195.193-.318.4218-.37.6843l-.516 4.2398c-.043.438.126.707.5.806 2.08-.265 4.092.011 6.04.825.291-.015.478-.201.558-.556l.402-4.281z"/><path d="m154.246 99.1886c-.006-.4443-.085-.7853-.24-1.0208-.168-.2558-.446-.4285-.834-.5205-1.16-.3881-2.403-.6529-3.724-.801-1.329-.1548-2.587-.1727-3.776-.0493-.321.0651-.595.175-.824.3275-.267.184-.428.4084-.486.6708l-.512 4.2407c-.038.439.211.717.745.836 2.916-.161 5.766.218 8.548 1.136.408 0 .661-.18.758-.532l.348-4.2874z"/><path d="m147.117 105.553c-.007-.444-.085-.785-.24-1.02-.168-.256-.446-.429-.834-.521-1.16-.388-2.403-.655-3.725-.801-1.328-.155-2.586-.173-3.775-.049-.321.065-.595.175-.824.33-.267.183-.428.408-.487.67l-.511 4.243c-.038.44.211.718.745.834 2.916-.161 5.763.218 8.547 1.136.409 0 .662-.18.759-.532l.347-4.287z"/><path d="m142.049 97.6785c-.007-.4442-.085-.7852-.24-1.0207-.168-.2558-.447-.4286-.835-.5205-1.16-.3882-2.402-.6529-3.724-.801-1.328-.1548-2.587-.1727-3.776-.0493-.321.065-.594.175-.823.3275-.267.184-.429.4083-.487.6708l-.511 4.2407c-.036.439.21.717.744.836 2.917-.161 5.766.218 8.548 1.136.408 0 .662-.18.758-.532l.348-4.2875z"/><path d="m134.553 103.998c-.006-.444-.085-.785-.237-1.02-.169-.256-.447-.429-.837-.521-1.16-.388-2.403-.655-3.725-.801-1.328-.155-2.586-.173-3.775-.049-.321.065-.595.175-.824.33-.267.184-.428.408-.487.67l-.511 4.243c-.036.44.211.718.745.834 2.916-.161 5.763.218 8.548 1.136.408 0 .661-.18.758-.532l.348-4.287z"/><path d="m129.487 96.1239c-.006-.4443-.085-.7853-.237-1.0208-.169-.2558-.447-.4285-.835-.5205-1.16-.3881-2.403-.6529-3.722-.801-1.328-.1548-2.587-.1727-3.776-.0493-.321.0651-.594.175-.823.3275-.267.184-.429.4084-.487.6709l-.512 4.2402c-.035.4397.211.7179.745.8368 2.917-.1616 5.766.2173 8.548 1.1353.408 0 .662-.18.758-.532l.348-4.2871z"/><path d="m121.884 102.43c-.007-.444-.085-.785-.238-1.02-.168-.256-.446-.429-.837-.521-1.159-.388-2.402-.655-3.721-.801-1.329-.1545-2.587-.1725-3.776-.049-.321.065-.595.175-.824.33-.267.184-.428.408-.487.671l-.511 4.242c-.036.44.211.718.745.835 2.916-.162 5.766.217 8.548 1.135.408 0 .661-.18.758-.532l.348-4.287z"/><path d="m116.805 94.5533c-.007-.4442-.085-.7852-.238-1.0208-.168-.2558-.446-.4285-.835-.5205-1.159-.3881-2.402-.6528-3.724-.8009-1.328-.1548-2.586-.1728-3.776-.0494-.32.0651-.594.175-.823.3276-.267.184-.428.4083-.487.6708l-.511 4.2402c-.038.4397.211.7179.745.8368 2.916-.1615 5.765.2176 8.547 1.1352.409 0 .662-.1795.759-.5317l.347-4.2873z"/><path d="m183.672 110.282c-.006-.444-.085-.785-.237-1.02-.169-.256-.447-.429-.837-.521-1.16-.388-2.403-.655-3.722-.801-1.328-.155-2.587-.173-3.776-.049-.321.065-.594.175-.823.33-.267.184-.429.408-.487.67l-.512 4.243c-.036.44.211.718.745.834 2.917-.161 5.766.218 8.548 1.136.408 0 .662-.18.758-.532l.348-4.287z"/><path d="m178.618 102.408c-.007-.445-.086-.786-.238-1.021-.168-.256-.447-.429-.835-.521-1.16-.388-2.402-.653-3.722-.801-1.328-.1545-2.586-.1724-3.775-.049-.321.065-.595.175-.824.328-.267.183-.428.408-.487.67l-.511 4.241c-.036.439.211.717.745.836 2.916-.161 5.765.218 8.547 1.136.409 0 .662-.18.759-.532l.347-4.287z"/></g><path d="m145.194 120.297c-2.035-1.803-4.792-2.883-8.271-3.235-6.818-.713-11.895 1.701-15.232 7.244-1.662 2.785-2.808 6.096-3.439 9.935-.419 2.607-.738 6.806-.958 12.595l30.364 3.758c1.072-4.855 1.765-9.36 2.077-13.515.337-4.337.2-7.561-.41-9.679-.898-3.102-2.275-5.469-4.131-7.103z" fill="#d1c1ae"/><path d="m142.053 123.631c-1.472-1.545-3.484-2.438-6.042-2.678-5.012-.51-8.799 1.691-11.361 6.6-1.27 2.47-2.171 5.389-2.701 8.759-.357 2.283-.664 5.963-.929 11.038l22.316 2.761c.878-4.265 1.468-8.222 1.773-11.868.325-3.805.28-6.629-.133-8.471-.614-2.695-1.59-4.743-2.925-6.143z" fill="#7c674a"/><path d="m129.162 122.346c-1.967 1.16-3.618 3.022-4.956 5.586-1.348 2.601-2.308 5.679-2.88 9.235-.361 2.252-.684 5.783-.967 10.591l5.49.698 3.316-26.11zm7.083 27.429 3.54-27.882c-1.061-.478-2.266-.783-3.616-.918-1.699-.175-3.267-.056-4.703.361l-3.627 27.371 8.404 1.068zm9.302-19.449c-.626-2.851-1.64-5.019-3.045-6.502-.222-.235-.455-.455-.702-.659l-3.563 26.863 5.728.727c.821-4.107 1.389-7.935 1.701-11.484.347-4.014.309-6.995-.119-8.945z" fill="#ca5b5b"/><path d="m131.469 121.339c-.81.242-1.578.578-2.304 1.007l-3.316 26.11 1.994.253 3.628-27.37zm10.333 1.826c-.599-.509-1.272-.933-2.015-1.27l-3.54 27.882 1.995.254 3.562-26.864z" fill="#bd5656"/><path d="m149.558 151.753c-.054-.778-.467-1.204-1.236-1.281l-31.712-4.04c-.651-.054-1.088.222-1.308.828l-.455 2.977c-.131.581.215.944 1.038 1.086l32.437 4.119c.637.105.96-.115.973-.662l.267-3.027z" fill="#ad9478"/><path d="m172.152 108.651c-.007-.444-.085-.785-.238-1.02-.168-.256-.446-.429-.837-.521-1.16-.388-2.403-.655-3.722-.801-1.328-.155-2.586-.173-3.775-.049-.321.065-.595.175-.824.33-.267.184-.428.408-.487.67l-.511 4.243c-.036.44.211.718.745.835 2.916-.162 5.763.217 8.547 1.135.409 0 .662-.18.759-.532l.347-4.287z" fill="#c35555"/><path d="m167.097 100.777c-.006-.445-.085-.7855-.238-1.0211-.168-.2558-.446-.4285-.834-.5205-1.16-.3881-2.403-.6528-3.724-.8009-1.328-.1548-2.587-.1728-3.776-.0494-.321.0651-.595.175-.824.3276-.266.1839-.428.4083-.486.6708l-.512 4.2405c-.036.439.211.718.745.837 2.917-.162 5.766.217 8.548 1.135.408 0 .662-.18.758-.532l.348-4.287z" fill="#c35555"/><path d="m100.886 166.835c16.368-.049 29.629-2.687 29.619-5.892-.009-3.205-13.286-5.764-29.653-5.716-16.368.049-29.629 2.687-29.6194 5.892.0095 3.205 13.2858 5.764 29.6534 5.716z" fill="#000" fill-opacity=".15"/><path d="m104.053 130.719c.188.024.502.093.947.209-.164.446-.173 1.082-.027 1.91l.156.95c-.042.06-.078.129-.102.201-.045.122-.063.269-.054.442-.092-.32-.152-.523-.185-.604-.161-.403-.371-.699-.637-.878-.34-.245-.783-.326-1.321-.242-.322.05-.618.14-.89.272.027-.102.063-.216.099-.341.257-.825.179-1.399-.24-1.725-.014-.038 0-.068.051-.092.048-.015.096-.012.138.012.036.104.077.182.119.233.12.14.344.099.682-.123.343-.212.765-.287 1.264-.224z" fill="#efb207"/><path d="m81.5017 148.964-1.6855-4.211c.0239-1.225 2.7195-1.656 8.0897-1.288 5.4091.353 7.8327 1.094 7.2799 2.229l-1.1416 4.271-12.5396-1.001z" fill="#106651"/><path d="m112.465 137.527 4.704.998-.55 12.348-4.542 1.766c-1.324.006-1.904-2.627-1.74-7.901.159-5.32.867-7.722 2.125-7.214z" fill="#106651"/><path d="m84.6991 107.607c-.795.358-1.551.388-2.2712.095-8.1047-1.566-16.0062-5.286-23.7074-11.1616-.2929-3.356.8696-5.7229 3.4845-7.0946 7.0139 5.0804 14.3715 8.9205 22.0697 11.5202.3885.015.777.12 1.1595.311.7412.371 1.2223 1.001 1.4405 1.886.2211.884.1225 1.754-.2989 2.612-.4184.857-1.0459 1.467-1.8797 1.832z" fill="#efb207"/><path d="m54.2057 89.9061c.4542-.9204 1.1535-1.542 2.1039-1.8677.777-.257 1.539-.2511 2.2891.0179.3706-.7411.9324-1.2402 1.6825-1.5002.768-.257 1.5122-.1973 2.2324.1823.7023.3676 1.1744.9443 1.4135 1.7303.2032.6515.1913 1.288-.0418 1.9096.4183.4363.7291.9653.9354 1.5899.3645 1.1386.2869 2.2413-.2331 3.3022-.5111 1.0549-1.3299 1.7781-2.4536 2.1726-.7411.269-1.4643.3407-2.1696.2152-.3496.4811-.8128.8218-1.3896 1.022-.7591.278-1.4972.2421-2.2115-.1105-.7232-.3617-1.2133-.9354-1.4703-1.7214-.248-.786-.1912-1.551.1734-2.3011.0448-.0717.0836-.1464.1165-.2271-.5319-.4005-.9174-.9503-1.1535-1.6496-.3168-.9504-.26-1.8708.1733-2.7644z" fill="#efb207"/><path d="m119.389 124.662c.114-.969.443-1.656.99-2.062.361-.296.815-.422 1.359-.383.511.027.957.185 1.342.481.75.568 1.181 1.408 1.288 2.514 0 .017.006.041.021.071.102 1.276-.308 2.732-1.234 4.372-.945 1.761-2.038 3.177-3.279 4.25-1.715 1.497-3.884 2.537-6.517 3.114-1.471.32-3.162.496-5.075.532-.092 0-1.64-.102-4.638-.308l-.334-4.008c1.243.045 1.243-.011 0-.167 1.661.165 2.734.266 3.212.308.084.018.164.027.248.036.544.066 1.091.101 1.641.101.233-.009.457-.015.672-.023 1.542-.069 3.036-.362 4.477-.879 1.07-.401 1.963-.876 2.681-1.426.809-.636 1.521-1.476 2.133-2.522.371-.618.619-1.18.747-1.679.063-.284.117-.679.159-1.187.042-.6.077-.98.098-1.135z" fill="#efb207"/><path d="m105.636 130.164c.314-.186.619-.222.918-.102.278.451.514.929.714 1.431.182.464.332.942.448 1.435.081.362.2 1.079.356 2.152.036.236.072.472.104.708.081.454.168.902.26 1.348.12.242.24.463.362.66.326.541.681.989 1.07 1.351.475.433.998.735 1.569.905.481.144 1.073.192 1.775.141.394-.03.995-.096 1.805-.191 1.267-.114 2.364.015 3.29.385 1.088.439 1.991 1.216 2.702 2.331.654 1.025 1.064 2.173 1.222 3.443.114.95.054 1.763-.17 2.441-.368.359-.691.592-.968.697-.135.053-.419.059-.855.024-1.626-.144-2.773-.936-3.437-2.382-.272-.723-.472-1.22-.595-1.491-.203-.455-.442-.697-.72-.721-.167-.015-1.198.171-3.093.553-1.327.266-2.361.422-3.099.469-.308.018-.571.021-.783 0-2.698-.236-5.254-2.958-7.668-8.167-.251-.553-.493-1.109-.735-1.671.039-.006.071-.009.098-.006.042-.806.269-1.488.682-2.047.296-.394.645-.687 1.055-.884.272-.135.57-.224.89-.272.538-.084.977 0 1.321.242.263.182.475.475.637.878.029.078.086.278.17.601-.003-.167.018-.314.066-.442.024-.072.053-.141.086-.2l-.14-.948c-.141-.831-.138-1.464.012-1.897.012-.018.018-.03.018-.042.119-.314.331-.562.636-.741z" fill="#ffc421"/><path d="m81.3376 128.006c4.4648-1.1 7.4741.574 9.0311 5.02.9593 11.829.78 19.288-.5319 22.375-1.4315 2.304-4.6052 2.672-9.5272 1.106-.3526-.236-.6395-.526-.8607-.87-.003-.281.009-.568.0329-.864.0658-.544.2092-.941.4244-1.192.26-.302.777-.508 1.548-.619.8099-.113 1.3538-.296 1.6257-.541.263-.236.4423-.57.5349-1.001.0628-.302.0897-.708.0777-1.222-.0926-3.425-.3885-7.262-.8935-11.511-.2869-2.454-.777-6.016-1.4673-10.684z" fill="#efb207"/><path d="m127.85 137.491c-.087-.081.254.009 1.025.272.657.254 1.142 1.225 1.449 2.92.042.275.081.565.12.875.045.35.093.697.146 1.046.192 1.841.266 3.574.216 5.197-.009.194-.015.38-.021.556-.084 1.715-.281 3.269-.589 4.668-.329 1.524-.679 2.486-1.049 2.881l-1.683.565h-.015c.479-1.327.783-2.349.912-3.063.134-.688.314-2.098.538-4.238.033-.266.054-.553.063-.861.035-1.058 0-2.379-.114-3.959-.06-.592-.122-1.199-.191-1.817-.075-.631-.159-1.268-.251-1.907-.153-1.01-.338-2.053-.55-3.132z" fill="#106651"/><path d="m76.6484 162.426c-1.5361-.433-2.4744-.845-2.8121-1.237l-.3646-1.748v-.015c1.3119.571 2.316.938 3.0213 1.103.7023.173 2.1367.433 4.3034.783.2749.042.5708.077.8846.104 1.0907.096 2.4624.126 4.1121.096.6156-.012 1.2461-.039 1.8946-.087.6545-.045 1.3209-.092 1.9963-.146 1.0729-.111 2.1816-.242 3.3321-.392.0807-.086-.0687.254-.4542 1.022-.3377.67-1.4046 1.109-3.2036 1.324-.2899.021-.5947.051-.9145.087-.3646.024-.7351.048-1.1087.072-1.9275.101-3.7236.083-5.3882-.054l-.5678-.051c-1.7542-.182-3.3291-.469-4.7307-.861z" fill="#0d5644"/><path d="m76.4933 160.526c-.7023-.165-1.7094-.532-3.0184-1.103-.1703-.825-.2869-1.578-.3466-2.265-.254-3.15.759-4.955 3.0452-5.415 1.0161-.218 2.2951-.269 3.8402-.153.0627-1.79-.0628-3.634-.3826-5.534-.3018-1.889-.1404-2.334.4812-1.339.6036.965 2.4894 1.665 5.6541 2.101 3.1558.424 6.225.048 9.2074-1.136.4692-.666.5858-.568.3527.296-.8936 4.686-1.306 7.755-1.2373 9.204.0837 1.48.0509 2.63-.1075 3.452-.1554.825-.4782 1.572-.9653 2.247-1.1506.15-2.2593.281-3.3321.392-.6754.054-1.3418.102-1.9963.146-.6455.045-1.2761.075-1.8947.087-1.6526.033-3.0213 0-4.1121-.096-.3138-.026-.6096-.062-.8846-.104-2.1666-.347-3.6011-.61-4.3033-.783z" fill="#208f74"/><path d="m125.629 136.849c.807.041 1.548.257 2.221.642.212 1.079.397 2.125.549 3.132.093.643.177 1.276.251 1.907.066.618.132 1.225.192 1.817.113 1.583.152 2.901.113 3.959-.009.308-.03.592-.063.861-.224 2.14-.403 3.553-.537 4.238-.129.714-.431 1.736-.912 3.06-.798.275-1.527.49-2.193.645-3.049.655-4.854-.08-5.424-2.205-.26-.954-.377-2.179-.35-3.673-1.745.164-3.535.529-5.361 1.094-1.826.538-2.275.448-1.345-.272.92-.72 1.512-2.633 1.772-5.735.242-3.087-.287-5.986-1.587-8.696-.675-.368-.586-.493.272-.383 4.599.236 7.603.218 9.013-.048 1.438-.266 2.567-.379 3.383-.346z" fill="#25a384"/><path d="m108.73 109.202c.104.308.191.631.263.972.224.95.451 2.393.681 4.33l.699 5.911c.347 2.962.502 5.242.464 6.841-.072 2.525-.547 4.695-1.423 6.506-.454.92-1.016 1.772-1.691 2.561-.458.546-.972 1.061-1.545 1.539-.425.364-.861.696-1.318 1.001-.998.666-2.08 1.21-3.243 1.628-1.605.577-3.3259.906-5.1578.987-1.7124.083-3.4636-.051-5.2597-.404-2.0799-.406-3.9567-1.067-5.6362-1.987-1.8588-1.01-3.3441-2.28-4.4588-3.81-1.2073-1.65-2.0381-3.688-2.4953-6.109-.3437-1.817-.5021-4.07-.4692-6.757.0209-1.933.1046-3.741.251-5.421.269-3.084.792-6.12 1.566-9.105.7471.4 1.6436.785 2.6926 1.156 2.4654.867 5.2387 1.435 8.3168 1.703 4.5096.395 9.6826.033 15.5156-1.084.777-.147 1.528-.299 2.248-.461z" fill="#ffc421"/><path d="m108.727 109.199c-.724.162-1.471.314-2.248.461-5.833 1.117-11.0061 1.479-15.5157 1.084-3.0781-.268-5.8514-.836-8.3168-1.703-1.049-.37-1.9455-.756-2.6926-1.156.3765-1.429.8068-2.842 1.294-4.244.2629-.759.511-1.369.7471-1.835.3377-.648.7232-1.18 1.1595-1.587.762-.7141 1.7751-1.1803 3.0422-1.3954.8876-.1465 2.0591-.1823 3.5145-.1106 2.9227.1345 5.3254.4064 7.2081.8129 2.588.5531 4.7817 1.4371 6.5837 2.6571 1.01.684 1.906 1.47 2.686 2.357.458.506.873 1.043 1.241 1.617.532.858.962 1.871 1.297 3.045z" fill="#efb207"/><path d="m73.5101 37.1091c.5947-1.046 1.1805-1.9903 1.7572-2.8331 1.572-2.319 3.1349-3.9656 4.6919-4.9369.2361-.1464.4752-.2809.7202-.3975.8457-.4094 1.6945-.6335 2.5462-.6724 1.1027-.0418 2.2204.2361 3.35.8368 1.6287.8607 3.3112 2.3938 5.0445 4.6022 1.1177 1.4285 2.2862 3.1917 3.5055 5.2896.3287.5708.6634 1.1685 1.0041 1.7901 1.5899 2.8928 3.3381 8.4603 5.2443 16.6934 1.907 8.2272-.053 18.122-5.8778 29.6813l-25.0582-9.4644c-4.6919-2.2623-6.0934-8.0987-4.2107-17.5123 1.8767-9.4136 3.5263-15.6057 4.9488-18.5792.795-1.6646 1.572-3.1648 2.337-4.5006z" fill="#ffc421"/><path d="m120.501 46.9053c2.911-1.56 5.466-2.7106 7.663-3.4487 1.927-.6515 3.634-1.0221 5.125-1.1147.562-.0359 1.094-.0299 1.59.012.481.0448.935.1285 1.362.245.712.1973 1.345.4931 1.907.8936.699.508 1.291 1.1655 1.769 1.9693.141.2182.272.4573.398.7203.759 1.6586 1.165 3.8849 1.216 6.6821.048 2.331-.149 5.1342-.595 8.4065-.433 3.2664-2.441 9.3479-6.024 18.2505-3.572 8.9026-7.944 13.0177-13.108 12.3543l-26.1607-5.7797c1.4524-12.8653 5.2267-22.2221 11.3267-28.0735 6.108-5.8424 10.617-9.5451 13.531-11.114z" fill="#ffc421"/><path d="m138.579 76.5027c.514 2.2234.803 3.6519.866 4.2915.051.257.084.5199.099.7889.048.3108.075.6246.086.9414.021.3825.021.771-.003 1.1595.024.5887 0 1.1685-.068 1.7393.006.0478 0 .0986-.012.1524 0 .0269-.009.0597-.021.0956-.439 3.7415-1.868 7.4084-4.289 11.0035-.307.4482-.627.8846-.953 1.3119-.125.1554-.245.3078-.361.4572-.054.0688-.44.4872-1.157 1.2522-.69.7589-2.011 1.9519-3.96 3.5769-.119.084-.242.171-.37.26-.051.042-.105.084-.165.126l-1.243.798c-.415.263-.843.517-1.282.768-.009-.009-.024-.006-.042.009-.009.009-.024.018-.045.024-3.938 2.13-8.603 3.329-13.988 3.592-5.38.275-9.841.083-13.3887-.571-.1285-.03-.251-.051-.3706-.06-.0717-.015-.1434-.027-.2062-.033-4.3422-.52-8.3288-1.228-11.9687-2.122-.6844-.161-1.3598-.331-2.0232-.511-1.536-.433-3.0094-.887-4.4199-1.362-.4692-.18-.9414-.362-1.4195-.544-.1973-.072-.4064-.156-.6216-.251-.1076-.039-.2152-.081-.3228-.126-.4034-.164-.8009-.331-1.1864-.496-4.2884-1.865-7.8148-4.1358-10.5791-6.8165 22.6435 11.5685 42.1457 13.7285 58.5077 6.4875 9.515-5.0859 14.488-13.7344 14.913-25.9452z" fill="#efb207"/><path d="m71.5801 52.0869c2.8958-2.1188 6.7838-3.7296 11.6669-4.8293 5.8992-1.3359 12.7547-1.1267 20.563.6276 7.415 1.1415 14.049 3.6847 19.895 7.6325.959.6335 1.861 1.288 2.704 1.9664 4.28 3.362 7.468 7.1961 9.569 11.5025.12.2152.233.4333.335.6575.463.9981.861 2.0202 1.198 3.0631.057.1076.09.2122.099.3168.033.0687.054.1315.069.1883.319.9413.618 2.0351.899 3.2903-.424 12.2108-5.397 20.8593-14.912 25.9454-16.362 7.244-35.8676 5.081-58.5081-6.4876-.9444-.9115-1.802-1.8708-2.5701-2.8779-4.381-5.8006-5.8573-11.9747-4.4289-18.5224 2.1428-10.0143 6.6165-17.5034 13.4212-22.4732z" fill="#ffc421"/><path d="m83.166 90.4799c.4542-1.563 1.3328-2.9018 2.6328-4.0165 1.4763-1.2641 3.1827-1.9694 5.1192-2.1188 1.3478-.1106 2.7464.0627 4.1928.517.6575.1763 1.285.4124 1.8797.7112 2.7405 1.2582 4.7815 3.2903 6.1235 6.0965 1.264 2.6149 1.545 5.152.837 7.6115-.072.2839-.171.5768-.296.8752-.159.443-.338.849-.544 1.223-.09.173-.179.343-.278.508-.786 1.279-1.796 2.193-3.0273 2.74-1.4405.631-2.8869.909-4.3363.837-1.4046-.078-2.6776-.275-3.8162-.595-1.1207-.325-2.3191-.831-3.5981-1.518-1.297-.687-2.4326-1.769-3.4068-3.248-1.043-1.6201-1.6497-3.706-1.817-6.2522-.015-.3466-.0269-.6813-.0359-1.0011.0359-.8427.1614-1.6347.3706-2.3728z" fill="#684e3a"/><path d="m92.5171 79.2731c.8517-.0568 1.7452.0209 2.6746.2331.9414.2032 1.9186.5349 2.9317.9952 2.0056.9204 3.8046 2.7673 5.3976 5.5405 1.583 2.7644 2.109 5.0386 1.58 6.8257-.529 1.7781-2.065 3.0482-4.608 3.8132-2.534.7561-5.1429-.4931-7.8295-3.7415-4.65 1.6137-7.7371 1.5331-9.2702-.2391-1.53-1.7901-2.1785-3.1408-1.9514-4.0523.2391-.9205.4453-1.5331.6216-1.8439.9413-1.7034 2.4923-3.362 4.653-4.9668 2.1248-1.6108 4.0583-2.4655 5.7976-2.5641z" fill="#ffc421"/><path d="m82.0577 91.8154c-.3108-.8098-.4363-1.4583-.3735-1.9454.0627-.4961.3018-1.0071.7202-1.5271.4004 2.0172 1.1087 3.3321 2.1278 3.9417.7172.4363 1.4494.6933 2.1935.777 1.8259.2152 3.4068-.1823 4.7427-1.1894.1583-.1255.3197-.266.4841-.4184l1.0908-4.9578c.1852-.6455.3227-1.0131.4034-1.1087.6754-1.0011 1.0848-.9115 1.2342.2749.0628.1255.0568.3646-.0209.7113l-1.1326 5.43c.0926.2032.1733.3975.2421.5798.8009 1.4762 2.0769 2.5043 3.8222 3.084.7053.2391 1.6646.2989 2.8753.1823 1.201-.1195 2.686-1.0997 4.449-2.9466.051.8876-.083 1.6496-.409 2.2802-.326.6425-.92 1.1745-1.79 1.6018-.867.4274-1.721.7142-2.561.8637-1.0641.1404-2.0623.1076-2.9946-.0957-1.9097-.4183-3.5473-1.6048-4.9131-3.5562-2.3459 1.0519-4.3123 1.3866-5.8992 1.0041-1.5868-.3706-2.5222-.7142-2.8031-1.028-.6933-.4871-1.1894-1.1416-1.4913-1.9604z" fill="#684e3a"/><path d="m93.1061 89.1379c-2.1517-.5319-3.3112-1.9455-3.4845-4.2406.4034-.3467.8726-.6126 1.4105-.7979.9803-.3347 2.0979-.3616 3.3591-.0837 1.2611.2779 2.2592.771 3.0004 1.4763.2839.266.499.5379.6425.8099-.777 1.9693-2.4207 2.9167-4.928 2.836z" fill="#684e3a"/><path d="m103.115 85.1336c-.195.0119-.389-.0598-.58-.2391-.876-.8248.944-3.9477 1.387-4.7905.723-1.4195 1.763-2.6059 3.117-3.5622 1.365-.9474 2.827-1.566 4.381-1.8588 1.563-.2839 2.519-.4244 2.871-.4274.362 0 .822.006 1.387.0269.535.012.864.0239.983.0389.018 0 .033.003.042.0119 3.535.3347 6.309 1.8708 8.32 4.6082 1.043 1.3896 1.68 3.108 1.913 5.1461.056.8368-.069 1.6825-.38 2.5402-.122.1703-.263.1494-.43-.0687-2.197-4.8174-5.756-7.4114-10.678-7.785-3.353-.254-7.396 1.1177-9.811 3.6101-.574.5917-1.548 2.6956-2.522 2.7524z" fill="#684e3a"/><path d="m92.8456 71.5211c-.3138 3.5831-1.8439 6.5297-4.5873 8.8398-2.7523 2.3101-5.929 3.3052-9.5241 2.9915-3.5951-.3138-6.5298-1.8469-8.8309-4.5963-2.319-2.7523-3.3232-5.9201-3.0094-9.5062.3138-3.5832 1.8529-6.5298 4.6142-8.8369 2.7434-2.3101 5.9112-3.3082 9.4943-2.9944 3.5951.3138 6.5477 1.8469 8.8578 4.5992 2.3011 2.7524 3.2962 5.9201 2.9824 9.5033z" fill="#fff"/><path d="m86.304 70.4481c.8099.9563 1.1625 2.0561 1.0519 3.3023-.1105 1.2461-.6485 2.2891-1.6107 3.099-.9653.8098-2.071 1.1595-3.3202 1.0489-1.2492-.1105-2.2862-.6455-3.0871-1.6108-.8099-.9652-1.1595-2.0739-1.0489-3.3321.1105-1.2581.6455-2.2712 1.6107-3.0691.9563-.8188 2.0621-1.1745 3.3202-1.0639s2.2772.6515 3.0841 1.6227z" fill="#413535"/><path d="m135.841 96.9287c1.401 1.7602 1.861 3.7923 1.38 6.0963-7.626 6.043-16.837 10.044-27.634 12.005l-.027-.03c-.819.32-1.685.266-2.597-.159-.938-.445-1.635-1.165-2.089-2.163-.063-.135-.119-.281-.17-.433.914-1.838 1.691-2.774 2.328-2.813 10.642-1.999 20.247-6.168 28.809-12.5003z" fill="#ffd154"/><path d="m139.301 93.7791c.018-.006.033-.015.045-.0239.117-.0449.227-.0927.335-.1375.914-.3586 1.823-.4124 2.725-.1674.936.26 1.614.7711 2.032 1.5331.048.0777.093.1584.135.2361.397.8726.364 1.7901-.102 2.7554-.149.3137-.331.6006-.55.8606-.251.3228-.555.6037-.911.8428.027.0119.039.0269.039.0448.048.0867.092.1763.131.263.389.8729.434 1.7539.132 2.6509-.329.881-.912 1.521-1.745 1.912-.834.374-1.677.389-2.532.045-.666-.254-1.186-.657-1.557-1.21l-.012-.015c-.03.006-.056.018-.086.033-.885.203-1.749.176-2.591-.072-1.211-.329-2.041-.998-2.493-2.005-.233-.514-.34-1.043-.322-1.5929.018-.52.161-1.0609.436-1.6228.356-.759.867-1.3956 1.536-1.9036.12-.0926.242-.1733.371-.2481-.228-.6066-.275-1.2103-.15-1.8139.018-.0807.039-.1644.063-.2451.227-.78.675-1.3358 1.348-1.6705.681-.3318 1.389-.3437 2.127-.0359.332.1405.622.3287.873.5648.302.2779.547.6186.735 1.028z" fill="#ffd154"/><path d="m126.236 44.9505-.116.4184-1.489 8.535c2.529.9533 4.886 1.9186 7.08 2.8988 6.784 3.0542 9.963 5.3464 9.542 6.8824-.045.1674-.069.2301-.066.1883-.101.3945-.29 1.0997-.57 2.1098-.29 1.0161-3.156 1.3269-8.601.9354-5.457-.3855-11.945-1.4255-19.464-3.1139-7.525-1.6915-13.6572-3.3262-18.3909-4.9071-4.7457-1.5749-10.3162-3.9925-16.7174-7.2529-6.4013-3.2515-9.5003-5.4032-9.3001-6.4521.1853-.9832.2809-1.5062.2809-1.5719l.021-.0717c.4184-1.6616 4.3243-2.0561 11.7207-1.1805 2.7135.3198 5.2716.6784 7.6743 1.0788.9444-2.845 1.9455-5.4778 3.0034-7.8984l.1584-.3437c.4692-.78 2.4266-1.031 5.8723-.7471 3.4364.2809 6.2514.7292 8.4454 1.3418 2.185.6216 4.868 1.4165 8.054 2.3818 2.223.6395 4.847 1.7004 7.871 3.1827 3.016 1.4793 4.68 2.6747 4.994 3.5861z" fill="#404040"/><path d="m68.1376 45.1928c.1853-.9832.2809-1.5062.2809-1.572.2749 1.814 3.5473 4.0703 9.8171 6.7629 6.2727 2.7046 12.0165 4.9041 17.2314 6.5985 5.212 1.7034 10.286 3.2036 15.22 4.5066 4.928 1.3 10.938 2.3459 18.035 3.1319 7.095.7949 11.249.5469 12.456-.7441-.101.3944-.29 1.0997-.571 2.1098-.289 1.0161-3.155 1.3269-8.6.9354-5.457-.3855-11.945-1.4255-19.464-3.114-7.525-1.6914-13.6573-3.3261-18.391-4.907-4.7456-1.5749-10.3161-3.9926-16.7173-7.253-6.4013-3.2514-9.5003-5.4031-9.3001-6.452z" fill="#fc636a"/><path d="m80.16 42.3657c7.3874.8726 13.5974 2.0381 18.63 3.4905 5.021 1.4584 7.546 2.1905 7.582 2.1995l.036.009c.023.0059.047.0119.071.0209 10.024 2.7733 18.433 5.678 25.232 8.7203 6.784 3.0542 9.963 5.3463 9.542 6.8794-.045.1673-.069.2301-.066.1883-1.21 1.291-5.361 1.539-12.459.7441-7.097-.786-13.11-1.8319-18.035-3.1319-4.934-1.303-10.008-2.8032-15.2202-4.5066-5.2149-1.6945-10.9587-3.891-17.2314-6.5985-6.2698-2.6956-9.5421-4.9489-9.8171-6.7629l.0209-.0717c.4184-1.6646 4.3243-2.056 11.7207-1.1804z" fill="#404040"/><path d="m102.723 63.6886c.86.1703 1.557.5917 2.089 1.2701.499.6814.651 1.3418.46 1.9843-.2.6336-.457 1.1446-.768 1.5391-.302.3855-.971.6305-2.008.7292-1.022.1105-1.838-.1106-2.445-.6665-.6156-.5618-.8846-1.3029-.8039-2.2174.0807-.9234.4632-1.6317 1.1449-2.1278.708-.502 1.482-.6724 2.328-.514z" fill="#fc636a"/><path d="m102.374 65.2511c-.096-.0388-.195-.0837-.293-.1375-.099-.0627-.15-.1374-.147-.2181.021-.7232.114-1.5421.278-2.4565.173-.9205.308-1.4046.407-1.4494.098-.0538.215-.0717.343-.0568.132.0179.263.0508.401.1016.143.0508.227.1345.254.2451.036.1135.045.2868.03.517-.021.7321-.18 1.8169-.473 3.2574-.009.0747-.122.1345-.337.1823s-.371.0538-.466.0149z" fill="#fc636a"/><path d="m83.2202 56.1274c.8666.1375 1.5749.5379 2.1337 1.1954.523.6634.6993 1.3179.529 1.9664-.1793.6395-.4184 1.1595-.7143 1.5629-.2868.3975-.9473.6635-1.9813.798-1.0191.1464-1.8409-.0479-2.4685-.5798-.6335-.5409-.9264-1.2701-.8786-2.1875.0508-.9235.4065-1.6467 1.0729-2.1667.6903-.5259 1.4613-.7232 2.3101-.5917z" fill="#fc636a"/><path d="m82.9247 57.7023c-.0956-.0329-.1972-.0777-.2988-.1285-.1016-.0598-.1524-.1315-.1524-.2152-.003-.7232.0598-1.545.1913-2.4625.1404-.9264.26-1.4135.3556-1.4613.0956-.0568.2122-.0807.3437-.0688.1315.012.2659.0419.4034.0867.1464.0478.2331.1255.263.2361.0388.1106.0538.2839.0478.517 0 .7322-.1166 1.8229-.3586 3.2694-.006.0747-.1166.1374-.3317.1942-.2122.0538-.3676.0658-.4633.0299z" fill="#fc636a"/><path d="m68.4845 47.8881c.8667.1344 1.5779.5319 2.1398 1.1864.5259.6604.7052 1.3149.5349 1.9634-.1763.6395-.4124 1.1625-.7083 1.5659-.2869.3975-.9443.6665-1.9783.8069-1.0161.1494-1.8409-.0388-2.4715-.5678-.6365-.5379-.9324-1.2671-.8875-2.1816.0448-.9264.4004-1.6496 1.0638-2.1696.6874-.5289 1.4584-.7292 2.3071-.6036z" fill="#fc636a"/><path d="m68.191 49.4633c-.0956-.0329-.1973-.0747-.2989-.1255-.1016-.0598-.1524-.1286-.1554-.2122-.0059-.7232.0538-1.5451.1823-2.4655.1375-.9264.2541-1.4135.3497-1.4643.0956-.0568.2122-.0807.3436-.0688.1315.012.266.0419.4035.0867.1464.0448.2331.1255.263.2361.0388.1106.0568.2839.0508.514.006.7322-.1076 1.8229-.3437 3.2723-.006.0748-.1165.1405-.3287.1943-.2122.0568-.3676.0657-.4632.0329z" fill="#fc636a"/><path d="m122.936 68.0629c.858.1793 1.548.6126 2.074 1.297.491.6873.637 1.3508.434 1.9903-.209.6306-.472 1.1386-.786 1.5301-.305.3825-.977.6156-2.017.7023-1.022.0956-1.835-.1375-2.436-.6963-.61-.5708-.867-1.312-.774-2.2264.093-.9235.484-1.6257 1.171-2.1129.715-.4901 1.492-.6514 2.334-.4811z" fill="#fc636a"/><path d="m122.566 69.6232c-.096-.0388-.191-.0867-.293-.1405-.098-.0657-.146-.1374-.143-.2211.03-.7232.134-1.5391.308-2.4535.185-.9175.325-1.3986.424-1.4434.099-.0538.215-.0688.347-.0508.131.0179.263.0538.397.1075.144.0538.227.1375.251.2481.033.1135.042.2869.024.517-.033.7322-.203 1.814-.514 3.2514-.012.0747-.123.1315-.341.1763-.215.0449-.37.0479-.466.009z" fill="#fc636a"/><path d="m139.69 68.7926c.87.1165 1.59.4961 2.164 1.1386.541.6485.732 1.3.577 1.9514-.162.6426-.389 1.1715-.673 1.5809-.278.4035-.932.6874-1.96.8487-1.013.1704-1.841 0-2.484-.514-.648-.5229-.959-1.2461-.935-2.1636.027-.9264.365-1.6556 1.016-2.1935.675-.5439 1.44-.7591 2.295-.6545z" fill="#fc636a"/><path d="m139.433 70.3737c-.099-.0329-.197-.0717-.302-.1196-.105-.0567-.155-.1255-.158-.2091-.024-.7232.02-1.5451.128-2.4655.117-.9294.224-1.4195.317-1.4703.095-.0598.209-.0867.341-.0777.131.0089.266.0358.403.0777.146.0418.236.1195.269.2301.042.1106.063.2809.063.514.021.7322-.069 1.823-.275 3.2783-.006.0747-.114.1405-.326.2032-.212.0598-.365.0747-.463.0419z" fill="#fc636a"/><path d="m99.4024 50.1269c1.9876.7441 3.6546 1.3179 5.0086 1.7213 1.351.4035 3.213.8697 5.585 1.4016 2.361.5379 4.534.8995 6.518 1.0818 1.976.1764 3.162.278 3.557.3019 2.169.1614 3.657.0837 4.473-.2331l-.89 3.5951c-.472.6873-2.514.8876-6.127.6007-3.619-.2869-6.269-.6426-7.958-1.0669-1.685-.4244-3.455-.8995-5.31-1.4165-1.859-.5111-3.685-1.0759-5.4782-1.6945-1.799-.6186-4.2914-1.6855-7.4711-3.2006-3.1827-1.5092-4.7845-2.6717-4.7994-3.4935l1.0997-3.6041c.523.7292 1.3149 1.3627 2.3728 1.8947 1.0579.5319 2.3968 1.1625 4.0135 1.8977 1.6138.7351 3.4158 1.4733 5.4091 2.2174z" fill="#fc636a"/><path d="m104.412 51.8481c-1.354-.4034-3.022-.9772-5.009-1.7213-1.9933-.7441-3.7953-1.4853-5.4091-2.2174-1.6167-.7352-2.9526-1.3658-4.0105-1.8977-1.0579-.532-1.8498-1.1625-2.3728-1.8947 1.0131-3.105 2.0889-5.9619 3.2305-8.5709.0777.8906 1.5779 2.0471 4.4976 3.4756 2.9167 1.4345 5.4453 2.5372 7.5813 3.3082 2.134.783 4.692 1.5062 7.678 2.1756 2.973.6754 6.189 1.1595 9.643 1.4554 3.446.2988 5.407.1016 5.879-.5917l-1.575 9.0281c-.813.3168-2.304.3945-4.474.2331-.394-.0239-1.581-.1225-3.556-.3018-1.987-.1823-4.16-.541-6.518-1.0819-2.37-.5319-4.232-.9981-5.585-1.4016z" fill="#404040"/><path d="m90.996 35.2052c.4692-.78 2.4266-1.031 5.8723-.7471 3.4367.2809 6.2517.7292 8.4457 1.3418 2.184.6216 4.868 1.4165 8.057 2.3818 2.223.6395 4.847 1.7004 7.871 3.1827 3.015 1.4793 4.68 2.6747 4.994 3.5861l-.117.4184c-.475.6933-2.432.8906-5.878.5917-3.455-.2958-6.67-.78-9.644-1.4553-2.982-.6695-5.543-1.3927-7.677-2.1756-2.137-.774-4.6651-1.8768-7.5818-3.3083-2.9197-1.4254-4.4199-2.585-4.4976-3.4755l.1584-.3437z" fill="#4f4f4f"/></svg>