<svg fill="none" height="188" viewBox="0 0 188 188" width="188" xmlns="http://www.w3.org/2000/svg"><path d="m171.616 114.688c-.017-.162-.054-.251-.11-.261-.228-.06-.355-.104-.385-.135-.045-.034.005-.054.147-.062-4.957-.91-9.721-1.815-14.288-2.716-6.133-1.26-10.234-1.96-12.298-2.086-.646-.06-.995-.058-1.05.005l-1.303.686c-.19.819-.548 2.535-1.064 5.146-.317 1.467-1.02 4.684-2.116 9.653-.233.872-1.613 7.088-2.626 10.14-3.396-.489-6.792-.975-10.188-1.463.213-2.368.915-4.611 1.284-7.006.024-.166-.01-.314-.106-.444-.094-.142-.225-.234-.394-.28-4.773-1.105-9.804-2.08-15.096-2.92-.183-.023-.354.013-.503.118-.152.102-.238.24-.266.403-.628 3.296-1.375 6.987-2.238 11.066-.393-.049-.786-.092-1.182-.119-.632-.048-1.309.258-1.662.745l-.166-.035-2.665 11.428c-.953-.252-1.889-.557-2.863-.807-.8409-.22-1.6899-.4-2.5385-.543l.6751-2.905.3772-2.235c-.0003-.02-.0005-.037-.0067-.054-.8379-4.422-2.0408-8.781-3.5847-13.047-.1069-.493-.1962-.994-.3208-1.484-.3553-1.42-1.6442.142-2.1565.655-1.0888 1.091-2.1417 2.213-3.1588 3.366-2.0255 2.295-3.9048 4.708-5.6294 7.224-.0607.089-.0891.178-.0967.267l-1.5428 6.624c-6.8591-1.559-13.8201-3.463-20.9151-3.471-.7611-.001-1.4742.277-1.7689.967-1.7358 4.101-3.3269 13.51-3.6013 17.918-.0706 1.111.8436 1.753 1.9761 1.727.3155-.007.6311-.015.9466-.022 20.012-.524 43.3792 7.211 63.0292 10.481 9.455 1.573 29.552 9.795 36.107 1.836 4.534-5.507 4.626-17.8 6.085-24.497 1.793-8.226 3.657-16.436 5.518-24.646.897-3.965 1.43-6.411 1.592-7.333.132-.927.183-1.556.152-1.881z" fill="#e6818c"/><path d="m94.0155 24.2556c.2685-.1657.5142-.3686.6942-.6286.3172-.4543.3857-1.1371.0172-1.5171-.3515-.3657-.9314-.3343-1.4429-.2886-2.7457.2486-8.2114 1.42-9.4686-1.3486-.9943-2.1885-1.54-3.9971-3.7257-5.2943-3.74-2.2171-7.5486-.34-9.5086 3.4972-.1343-1.7715-.9657-3.5372-2.4686-4.3772-1.5028-.84-3.6828-.4885-4.6828 1.0086.9228-1.3857.9257-4.5771.4628-6.10286-.7114-2.32572-2.7-3.94858-4.8457-4.79715-2.1743-.85715-3.6343-.83143-5.7829.11714-1.9057.84-2.9628 2.70286-4.0657 4.35144-1.74-2.74858-4.6314-4.4743-8.0114-3.38287-3.0229.97429-5.2886 3.96572-5.8257 7.1572-.7401-.6943-1.5058-1.4058-2.4658-1.7315s-2.1685-.16-2.8257.6715c-3.9343 4.9657 11.42 9.9685 14.14 10.6457 5.6686 1.4086 11.4115 2.5486 17.2086 3.3686 2.2429.3171 4.5001.52 6.7601.72 8.12.7257 17.3857 1.8285 25.2086-1.7457.2114-.0943.4257-.2029.6257-.3258h.0029z" fill="#fcc5c5"/><path d="m167.941 148.697c-11.969-11.046-25.843-10.194-39.146-12.13-.095-.014-.264-.06-.51-.14-.968.037-5.615-.02-6.794-.18-2.064-.364-3.612-.63-4.645-.798-1.288-.209-2.694-.372-4.216-.489-.984.037-2.005.105-3.059.203-.18.02-.337-.012-.466-.098-.114-.068-.19-.168-.232-.3-1.218-.034-2.729-.054-4.536-.074-10.6568-.12-22.9016-.006-28.2918.34-8.9053.566-16.8718 1.873-23.8993 3.921-6.0482 1.762-12.1786 2.677-18.0756 5.818-5.3671 2.86-22.0157 6.933-20.2214 23.607.6869 6.398 4.9884 10.425 7.9679 11.106 3.1912.729 6.3838 1.461 9.5735 2.19 3.1912.73 2.1961.289 9.0119 1.568 6.8173 1.278 6.5854 1.261 9.8515 1.799 17.707 1.504 17.069 1.756 25.6086 1.756 9.2423 0 19.9276-.086 23.6084-.255 8.8273-.406 10.6593.389 27.4503.389 0 0 3.845-.389 8.075-.389 4.485 0 4.87.509 10.126-.629 4.231-.509 6.885-.904 9.637-1.047 3.288-.171 5.387-.709 8.243-1.627 1.368-.435 2.543-.927 3.519-1.49 1.242-.701 2.646-1.576 3.566-2.626 1.053-1.181 1.91-2.62 2.568-4.301.708-1.819 1.748-3.71 1.82-5.66.027-.744.009-1.499-.056-2.254.322-.787.469-1.977.433-3.57-.021-.926-.08-1.716-.177-2.368-.121-.795-.335-1.604-.641-2.431-.243-.652-.566-1.367-.967-2.145-1.551-3.012-2.829-5.577-5.127-7.699h.001zm-120.4623-10.574c-.0749.292-.1627.575-.2592.849.1008-.043.2016-.086.3024-.126-.013-.228-.0274-.471-.0446-.72z" fill="#ffe2d7"/><path d="m143.986 129.245-29.103-5.235-15.4345 15.869c1.9745.354 3.9775.757 5.9855.937.194.017.392.032.58-.037.766-.288 1.666-2.257 2.169-2.98.737-1.057 1.697-3.191 2.523-4.166 1.614-1.902 3.54-3.517 5.82-4.028 4.588-1.037 9.26-.4 13.723.654 3.148.743 6.98 1.737 9.294 4.36 1.377 1.56 2.517 3.389 3.377 5.386.44 1.028.6 3.188.886 4.291.223.872.317 2.126.794 2.843.403.603 1.111.792 1.769.949 1.062.248 2.1.623 3.171.737.466.048 2.029-.069 2.294.474l-7.851-20.057h.003z" fill="#a19e95"/><g fill="#c4c3be"><path d="m133.06 99.7539.018-.0322c-.009.0117-.018.0263-.018.0322z"/><path d="m133.08 99.7217s.017-.0313.031-.054c-.008.0199-.02.0369-.031.054z"/><path d="m86.14 137.068c-.1371 2.345 5.7743 2.882 7.0629 3.114 2.7715.5 5.0715 1.763 8.4061-.254 1.425-1.303 8.643-10.218 9.76-11.332.194-.197 2.26-2.711 2.52-2.666l26.405 4.749c.646.117 1.418.131 2.02.391 1.095.478 1.755 3.22 2.218 4.352 1.285 3.143 4.694 12.303 5.291 13.288 1.089 1.806 2.383 2.08 4.18 2.403l10.763 1.937c.977.175 2.051.543 3.043.549.114 0 .354.14.431.109.534-.229.4-1.009.323-1.675-.189-1.594-.911-3.005-1.683-4.288-1.017-1.7-1.797-3.589-2.786-5.312-1.288-2.243-2.42-5.303-3.708-7.545-2.534-4.418-5.177-8.772-7.614-13.263l-.258-1.106c-.854-.1-1.72-.171-2.58-.243l.558 2.383c.034.137.082.269.151.389 1.317 2.297 2.637 4.588 3.954 6.882l-5.88-1.091.535-5.046c.08-.763-.386-1.434-1.055-1.494-.663-.06-1.265.511-1.345 1.277l-.509 4.823-6.663-1.237.834-4.829c.132-.757-.294-1.468-.948-1.585-.654-.118-1.292.4-1.42 1.16l-.832 4.817-7.202-1.337 1.011-4.672c.166-.751-.226-1.488-.874-1.643-.655-.154-1.306.326-1.466 1.08l-1.04 4.792-6.834-1.272 1.634-4.985c.24-.729-.074-1.515-.697-1.76-.626-.246-1.323.148-1.56.877l-1.777 5.425-6.077-1.128 1.471-5.017c.214-.737-.123-1.506-.754-1.723-.632-.217-1.317.206-1.535.943l-1.571 5.357-4.763-.886c1.826-1.643 3.646-3.288 5.472-4.931.091-.08.171-.177.24-.283l1.748-2.706.543-.343c-.986-.16-1.971-.32-2.957-.477-.303.543-.723 1.383-1.146 1.763-4.034 3.637-8.166 8.08-12.2485 11.62-2.4943 2.16-4.9857 4.334-7.2686 6.791-1.0457 1.126-2.5828 2.518-3.2628 3.989l-.0143.009c-.1458.314-.22.6-.2343.86zm74.712 4.848-4.623-3.531 1.274-3.386c1.169 2.034 2.18 4.883 3.349 6.914zm-8.34 4.846c.085-.106.16-.22.22-.354l2.382-5.472 8.998 6.872h-.003c.105.362.183.765.183 1.125l-11.755-2.114c-.008-.02-.017-.037-.025-.057zm1.72-9.9-5.595-5.206 7.089 1.317-1.492 3.889zm-7.872-2.612h.003l6.763 5.166-1.983 4.554c-1.431-2.905-3.331-6.771-4.783-9.72zm-45.951-5.7-6.3775 2.852c.7286-.592 1.3914-1.074 1.7286-1.377 1.5885-1.435 3.18-2.872 4.7709-4.306l-.122 2.826zm2.331 1.889 6.692-2.994c-2.418 2.417-4.063 4.057-6.858 6.845l.166-3.848zm.434-7.229 5.3.986h-.002l-5.603 3.254.305-4.237zm-12.5368 12.48c3.1943-1.371 6.4457-2.717 9.6428-4.148l-.229 5.263c-.0909.091-.2766.277-.4909.488l-8.9229-1.605z"/><path d="m110.574 110.679c.986.157 1.972.317 2.958.477l8.385-5.3.866 7.063c-.094.32-.089.666.026.974.151.423.483.717.88.789l15.42 2.774c.385.069.783-.08 1.068-.406.177-.202.3-.457.349-.728.011-.069.02-.137.023-.206l3.191-6.38 6.434 9.126.015.066c.86.071 1.728.142 2.58.242l-.223-.954c0-.237-.049-.471-.157-.683-.306-.605-.369-1.585-.526-2.26-.4-1.725-.803-3.448-1.206-5.171-.988-4.243-1.902-8.492-3.034-12.6744-.191-.7114-.923-2.6514-.714-3.4257.14-.5229.168-1.1914.18-1.9429-1.512-.2028-3.186.0514-4.706-.2486l.009.0143-13.04-2.3285 1.111-.9058c-1.663-.2514-3.28-.7085-4.831-1.3228-.635 1.1514-1.075 1.7657-1.089 1.7828-.014.0229-.031.0458-.049.0686l-3.48 5.3857c-.022.0229-.042.0515-.06.08-.022.0343-.051.0686-.071.1058-.023.0371-.043.0742-.063.1171-.771 1.32-1.663 2.5743-2.488 3.8514-.766 1.1886-1.532 2.371-2.298 3.554-.691 1.069-1.545 1.926-2.06 3.095-.225.514-.528.974-.837 1.425-.871 1.289-1.803 2.586-2.543 3.9-.008.017-.02.037-.031.055zm34.489-3.591 1.623-3.246 1.928 8.28-3.551-5.037zm-14.957-14.629c-.109.1714-.194.3657-.232.5857l-.405 2.3515-5.437-.9772 1.78-2.7514c.065.0257.131.0486.202.06l4.092.7343zm9.171 4.6972-7.44-1.3372.406-2.3514c.037-.2229.023-.4343-.026-.6343l7.575 1.3514-.515 2.9743zm6.103 1.1-3.734-.6715.514-2.98 2.474.4458zm-5.211 1.8918 5.163.928-1.869 3.74-3.291-4.668zm-.149 11.551-1.126-8.857 3.252 4.608zm-6.788-12.2371s-.003 0-.006.0086c.017-.0315.031-.06.051-.0943.475-.8286 2.82-.2715 2.78.5-.043.7738 2.429 14.6318 1.849 14.5258l-11.96-2.152c-.749-.134 7.283-12.791 7.283-12.791zm-9.035 4.9431 5.286-3.34-4.686 8.225zm-.894-7.286 5.84 1.0515-5.3 3.3515zm-6.909 9.106 4.68-7.246.489 3.977z"/><path d="m143.014 88.5474c1.518.3 3.192.0457 4.706.2486 0-.1771.003-.3571.006-.5457.014-2.0943-.097-5.5514-.334-10.2715-.098-1.92-.08-4.0342.02-6.2857.008-.0371.02-.0686.025-.1028.003-.0172.006-.0343.009-.0515.011-.0628.017-.1285.017-.1914 0-.02 0-.0457 0-.0686 0-.0743-.006-.1428-.017-.2143 0-.0057-.003-.0171 0-.0257.577-11.2257 3.2-25.5914 5.051-35.72.706-3.8543 1.315-7.1886 1.677-9.5972.112-.7486-.311-1.4371-.954-1.5514l-12.137-2.1829c-.646-.1171-1.277.3886-1.417 1.1372-.077.4114-7.817 41.4629-9.492 49.8715-1.031 5.18-2.78 8.9543-3.911 11.0114 1.551.6172 3.168 1.0715 4.831 1.3229l6.638-5.3857 5.28 8.6057zm-4.628-12.46-3.26-5.3143 8.028 1.4429-4.768 3.8686zm4.231-43.5744 6.506 1.1715-4.343 4.8486zm.269 8.1343-5.172 5.7715c.903-4.7572 1.778-9.3829 2.5-13.2115zm3.406 9.4801c-1.526-.32-3.823-.7315-7.312-1.3315l4.874-5.4457 2.435 6.7772zm-6.792 9.4628-5.374 5.6715c.688-3.5943 1.506-7.8772 2.348-12.3086zm6.337-6.6857-4.457 4.7057-2.76-6.0457c2.589.4543 5.386.9686 7.217 1.34zm-5.197 9.1743 3.406 7.4686-8.957-1.6114 5.548-5.8572zm-8.108 11.4286c.085-.4314.188-.9486.305-1.54l3.535 5.7543-7.078 5.74c1.118-2.3714 2.4-5.7343 3.24-9.9571zm18.277-42.3515-9.872-1.7743c.357-1.9.649-3.4257.837-4.4343l9.809 1.7629c-.211 1.2943-.477 2.7943-.774 4.4457zm-2.875 16.1543-2.182-6.0743 4.045-4.5171c-.588 3.2457-1.237 6.8428-1.863 10.5914zm-2.568 19.0486-2.854-6.2571 4.108-4.3343c-.511 3.5857-.946 7.1686-1.254 10.5914zm-.052 21.0143-5.562-9.0628 5.177-4.2c-.023 1.4514-.012 2.8457.054 4.1485.229 4.5772.311 7.3886.329 9.1143z"/><path d="m133.203 99.5027c.009-.0147.02-.0352.02-.0352-.008.0117-.017.0264-.02.0352z"/><path d="m133.112 99.6675c.014-.0257.031-.0571.048-.0857-.017.0314-.034.0628-.048.0857z"/><path d="m133.16 99.5788c.014-.02.029-.0457.046-.0771-.012.0229-.029.0457-.046.0771z"/></g><path d="m148.4 92.2589 1.009-2.2486c.242-.5543.325-.9486.248-1.1771-.083-.22-.371-.3858-.871-.4972-5.097-1.0943-9.166-1.9228-12.175-2.4771-3.537-.6457-6.825-1.1686-9.845-1.5715-.84-.1028-1.663-.2028-2.475-.3028-.502-.06-.854-.0229-1.051.12-.251.1743-.411.5543-.486 1.1514-.105.9229-.12 1.8543-.043 2.7943.026.3257.063.6486.103.9629.066.5371.186.94.363 1.2142.154.2286.352.3915.594.4915.103.1.246.1743.426.2228 1.672.5886 3.549 1.0943 5.649 1.52 1.26.2657 3.157.5915 5.7.9886l9.314 1.4057c.603.0886 1.069.0743 1.4-.0343.263-.0942.491-.2428.689-.4457h.011s.017 0 .02-.0085c.169-.1229.306-.2629.411-.4315.075-.1.129-.2028.158-.3.265-.26.517-.64.754-1.1343.034-.0714.068-.1514.097-.2314z" fill="#b1ada4"/><path d="m150.232 87.6218c-2.669-.6657-4.709-.7029-6.352-.9915-3.8-.6657-7.6-1.3371-11.4-2.0028-3.131-.5143-5.614-1.0343-7.451-1.5629-.68-.2228-1.203-.3171-1.569-.2828-.623.06-1.108.3571-1.448.8885-.192.2829-.323.62-.389 1.0029-.283 2.2543 3.054 2.1857 4.089 2.4371 2.411.6315 5.848 1.2115 10.308 1.7429 4.846.5971 7.92 1.2457 9.969 1.6857 1.054.2286 2.471.3886 3.554.5057.312.0343.634.0486.943-.0828 1.249-.5343 1.171-2.2286.294-2.9829-.16-.1371-.325-.3086-.54-.36h-.005z" fill="#dddcd0"/><path d="m105.655 113.342-.326-2.023c-.074-.497-.037-.82.117-.966.157-.137.517-.163 1.077-.08 5.729.889 10.292 1.629 13.646 2.223 3.943.703 29.934 5.432 33.231 6.14.912.203 1.809.403 2.686.597.543.123.886.266 1.023.435.177.205.16.537-.04.994-.314.703-.734 1.383-1.246 2.043-.177.231-.357.451-.545.666-.315.365-.618.622-.918.762-.257.118-.525.172-.811.166-.146.04-.317.046-.52.023-1.923-.114-16.726-2.64-18.991-3.009-1.363-.214-13.032-2.323-15.732-2.86l-9.883-1.997c-.637-.131-1.106-.291-1.406-.486-.234-.16-.42-.345-.554-.562h-.014s-.017-.009-.017-.018c-.135-.145-.226-.3-.283-.46-.046-.102-.066-.191-.063-.277-.191-.283-.326-.651-.411-1.103-.012-.068-.02-.134-.023-.208z" fill="#b1ada4"/><path d="m122.517 114.37c5.786 1.023 11.572 2.052 17.355 3.075 4.765.808 10.891 1.982 13.703 2.685 1.045.289 1.842.432 2.391.432.931-.006 1.637-.263 2.106-.769.265-.271.431-.6.497-.983.228-2.263-4.794-2.5-6.374-2.848-3.689-.86-11.255-2.183-18.026-3.132-7.355-1.048-12.043-1.985-15.166-2.62-1.606-.325-9.84-1.714-11.477-1.928-.472-.066-.96-.109-1.414 0-1.835.428-1.572 2.157-.18 3.003.251.151.517.342.845.414 4.083.92 13.235 2.234 15.74 2.677z" fill="#dddcd0"/><path d="m150.726 1.09018c-.706.36286-1.174.92-1.406 1.66572-.151.44572-.28 2.08286-.28 2.08286l-.928 5.16854s-.212 1.1486.014 1.4743c.157.2686.443.4686.86.6057.44.1429.8.1429 1.08.0029.226-.1029.372-.3543.44-.7514l.897-7.87718c.109-.93143.115-1.63144.017-2.10858-.017-.19428-.114-.30571-.288-.33714-.12-.034288-.254-.01429-.397.07143h-.003z" fill="#e2e2d9"/><path d="m151.829 12.2244c-.352-.2858-.652-.48-.903-.5743-.263-.1143-.574-.2057-.934-.2715-.969-.2428-1.766-.3628-2.395-.3542-.465.0371-.794.0742-.977.1085-.483.0486-.826.1372-1.023.2543-.485.24-.925.72-1.317 1.44-.191.3457-.308.6343-.348.8686-.069.3143-.058.6314.034.96 0 .0857.017.1743.043.2657.057.1829.145.3286.26.4343.111.2086.257.4028.437.5714.477.4286 1.163.7257 2.054.8857.829.2029 1.809.3258 2.946.3743 1.103.0629 1.943-.02 2.517-.2428.349-.1257.611-.3057.783-.5315.208-.2571.323-.6314.351-1.1257.037-1.1657-.468-2.1857-1.523-3.0628z" fill="#e2e2d9"/><path d="m140.997 14.8701c-.054.1686-.094.3943-.117.68-.157 2.2886.1 4.1372 1.646 6 1.314 1.5857 4.068 1.84 6.034 2.0743.743.0943 1.463.0571 2.163-.1114.737-.1715 1.371-.4743 1.9-.9029.566-.4628 1.626-1.3657 2.089-2.2543.531-1.0371 1.351-2.4628.44-3.5371-.898-1.0515-2.989-1.5915-4.32-1.9572-.34-.1-2.063-.4257-2.306-.4628-.403-.0657-3.74-.6057-4.406-.6057-.523-.0058-.94.0085-1.251.0485-.457.0629-.846.1743-1.172.3372-.063.0314-.114.0657-.16.0971-.06.02-.111.0429-.157.0686-.177.1086-.306.2828-.386.5228z" fill="#c4c3be"/><path d="m151.437 26.756c2 .1542 3.306-.1172 3.906-.82.414-.48.457-1.0715.123-1.7715-.314-.6428-.837-1.1743-1.571-1.5971-.86-.4486-2.423-.82-4.695-1.1115-1.717-.22-3.303-.5057-4.757-.8514-1.174-.26-2.054-.4143-2.643-.4657-.985-.0629-1.803.06-2.443.36-.614.3314-.965.8286-1.057 1.4857-.128.6743.046 1.2714.523 1.7943.646.6629 1.789 1.1772 3.44 1.54 3.003.7172 6.063 1.1943 9.177 1.4372z" fill="#b5b3ae"/><path d="m153.939 149.299c.091-.492.085-.997-.05-1.496-.1-.377-.276-.743-.529-1.042-.423-.502-1.046-.799-1.683-.93-1.328-.27-3.543-.338-4.471.897.37-.487.182-1.313-.088-1.8-.623-1.119-1.931-1.621-3.138-1.698-1.783-.119-3.581.54-4.906 1.749-.076-.178-.17-.354-.294-.508-.667-.852-1.853-1.075-2.843-.781-2.016.597-3.446 3.213-2.997 5.274.212.977.808 1.868 1.678 2.328.279.199.581.368.881.514 1.566.757 3.284 1.256 4.979 1.618 1.719.368 3.467.564 5.224.633 1.73.062 3.36-.021 4.958-.79 1.507-.722 2.965-2.269 3.279-3.968z" fill="#556b2a"/><path d="m182.414 122.624c6.28 1.058 2.195-8.848 1.075-8.394 2.557-1.04 3.68-4.137 4.214-6.917.4-2.1.503-3.637-.377-5.497-.377-.8-2.666-4.9059-3.912-4.2973 2.72-1.3286 3.663-5.3286 2.169-7.9601-1.494-2.6342-4.857-3.7457-7.766-3.0085.757-2.1943-.403-4.7372-2.331-5.86-1.926-1.12-4.392-.9743-6.46-.0486-3.397 1.5228-5.86 5.1457-6.086 8.9486-1.9-2.0543-5.46-1.5829-7.528.3943-2.072 1.9771-2.9 4.9885-3.14 7.8685-.198 2.3491.094 4.5031.888 6.6691-3.794 2.477-5.58 9.102-2.817 13.077.506.728 1.169 1.317 1.863 1.848 2.523 1.935 5.574 2.903 8.471 4.04 1.855.729 7.606 2.195 9.329.375-.137.145.006.382.151.514 1.629 1.488 3.9 2.203 6.086 1.914 2.189-.288 4.883-1.794 6.174-3.671z" fill="#eda12d"/><path d="m158.006 117.496c-.009.023-.012.048-.017.074.017-.011.026-.037.017-.074z" fill="#eda12d"/><path d="m146.443 127.462c-.017.042-.031.082-.048.125.005 0 .017.002.025 0l.02-.128h.003z" fill="#f5b440"/><path d="m186.414 122.756c.432-1.5.34-3.186-.288-4.592-1.729-3.865-6.777-5.723-10.652-4.145-1.611.651-2.891 2.342-2.803 4.117-.922-.712-2.277-.649-3.3-.037-1.02.611-1.728 1.677-2.154 2.811-.297.797-.231 1.646-.471 2.414-.272.872-.452.857-.74 1.515-.8 1.834-1.592 3.36-.557 5.337.962 1.837 3.22 2.808 5.197 2.228-.16.909.508 1.729 1.234 2.238 2.346 1.645 5.803 1.368 7.96-.638 1.629.746 3.903-.08 5.26-1.24 1.189-1.014 1.886-2.622 1.811-4.194-.065-1.448-1.085-3.014-2.48-2.857.98-.717 1.643-1.777 1.983-2.954z" fill="#e68c35"/><path d="m153.363 129.63c.029-.174 0-.348-.109-.508-.054.194-.002.363.109.508z" fill="#f5b440"/><path d="m164.358 121.509c-.459-1.665-1.607-4.147-2.901-2.658.689-.793.619-2.008.3-3.001-1.429-4.501-7.489-7.033-11.612-4.463-1.832 1.14-2.902 3.756-1.835 5.614-1.205-.479-2.645-.091-3.666.763s-1.661 2.104-2.023 3.397c-.576 2.062-.457 4.399.726 6.126 1.184 1.726 3.556 2.626 5.461 1.729.067 1.365 1.437 2.198 2.674 2.675 1.467.564 3.118.963 4.607.385 1.483-.581 2.558-2.511 1.764-3.89.513.889 3.477-.302 4.077-.699 1.634-1.095 2.504-2.859 2.639-4.776.016-.209-.059-.658-.205-1.194v-.005z" fill="#f5b440"/><path d="m177.689 128.073c-.012-.054-.032-.111-.06-.171-.006-.015-.015-.029-.026-.04-.203-.34-.694-.435-1.132-.517-.18-.035-.348-.063-.46-.112-.14-.057-1.274-.811-1.714-1.128 1.22-.749 2.317-1.66 3.263-2.709l.191-.211c.68-.746 1.709-1.872 1.829-2.775.02-.16.083-.648-.231-.78-.006 0-.009-.003-.015-.005-.488-.18-1.263.791-1.348.905-1.657 2.123-4.023 3.952-6.175 4.775-.574.217-4.745 1.111-5.342.634-.032-.026-.035-.043-.032-.069l.177-1.263c.615-4.382 1.249-8.914 1.726-13.394 1.36-.503 2.654-1.208 3.849-2.094.642-.477 1.242-.994 1.788-1.537.012-.012 1.066-1.243.923-1.526-.034-.066-.137-.114-.209-.103-.231.037-1.951 1.057-2.794 1.712.106-.578.183-1.2.237-1.958.017-.237-.16-.385-.337-.402-.194-.02-.351.111-.377.311-.137 1.04-.483 2.017-1.026 2.9-.605.226-1.223.394-1.837.503.14-1.497.254-2.957.343-4.346.003-.063.014-.16.023-.283.183-2.014.12-2.837-.226-3.04-.071-.04-.226-.094-.428.049-.6.417-.729 1.323-.832 2.051-.023.163-.046.317-.071.452l-.649 3.434c-.626 3.3-1.343 6.794-2.257 10.991-.097.44-.274 1.192-.474 2.046-.529 2.237-.952 4.06-1.063 4.812-1.966-.843-3.026-3.138-3.483-4.443l-.054-.166c-.757-2.297-1.106-2.751-1.423-2.737-.257.011-.334.337-.357.446-.037.168.057.451.22.902.054.152.111.309.125.383.006.029.518 2.315.786 3.069-.797.554-1.837.548-2.56.491-.166-.014-.474-.108-.771-.203-.626-.194-1.055-.317-1.303-.237-.112.035-.457.143-.486.426-.031.306.34.551.623.709.466.26 1.246.437 1.874.58.166.037.326.074.466.108 1.16.292 2.143.254 2.923-.108.354.651.748 1.245 1.174 1.762.1.123.203.24.289.338.365.585.785 1.165 1.365 1.468-.411 1.843-1.088 5.549-1.097 5.589 0 .011-.003.023 0 .034-.014.146-.205 1.42-.451 3.029-.497 3.282-1.332 8.774-1.752 12.051-.165 1.294-.18 1.591-.2 1.966-.014.323-.034.688-.148 1.78-.009.065-.017.137-.029.208-.054.357-.12.8.135 1.12.131.166.32.272.525.346.195.071.4.114.586.154.066.015.131.029.189.04.091.023.185.046.288.072.754.194 1.789.457 2.409-.135.568-.54.694-1.991.783-3.051.02-.223.037-.42.054-.574.186-1.486.38-2.969.574-4.452.469-3.591.954-7.305 1.314-10.983.138-1.414.289-2.674.46-3.851.089-.611.503-2.22.612-2.64.426-.091 2.04-.434 2.686-.577.162-.037.545-.183 1.031-.369.617-.237 1.766-.674 1.937-.657.88.554 1.892.997 2.926 1.277.591.16 2.014.492 2.42.115.106-.098.146-.235.114-.392z" fill="#643c1b"/><path d="m180.186 105.322c-.266.12-.552.16-.84.103.065-.243.24-.446.385-.649.46-.654.675-1.486.583-2.283-.114-.994-2.014-1.688-2.848-1.668.837-1.0719.483-2.749-.449-3.6805-.934-.9343-2.277-1.2828-3.577-1.4714.509.1028.814-.5972.854-1.1372.117-1.6142-.114-4.2028-1.831-4.7514-.017-.1314.151-.2.277-.2143.311-.04.654-.0714.903.12.997.7686 2.208.8829 3.097 1.9315.206.2428.397.5114.509.8171.291.7771.094 1.6629-.152 2.4343.483-.1543 1.32.0714 1.809.2114.954.2743 1.734.98 1.968 1.9915.226.9742.06 2.3171-1.02 2.6885 1.137.4915 1.926 1.7205 1.929 3.0115 0 .889-.686 2.146-1.597 2.546z" fill="#d68a25"/><path d="m97.9311 163.463c.6279.441.9418.865.9559 1.295.017.232-.065.452-.2262.665-.1386.198-.3536.356-.6053.495-.3535.178-.9021.319-1.6261.424-3.3938.492-7.2457.642-11.5587.449-2.6386-.121-6.5217-.449-11.6689-.989-2.9356-.314-5.1444-.589-6.6405-.855-2.4294-.427-4.5477-1.004-6.352-1.728-.741-.288-1.3208-.625-1.7563-1.015-.5458-.466-.7919-.967-.7212-1.485.0453-.438.3196-.82.8089-1.148.4044-.271.9191-.481 1.53-.647.8937-.238 1.8383-.371 2.7886-.391.4553-.003.9672.017 1.5583.043.2941.014.806.065 1.5696.144 2.8366.305 7.0958.656 12.7889 1.086 5.0793.433 9.3215.93 12.7238 1.507 1.3999.241 2.5227.487 3.3853.755 1.2302.354 2.2512.821 3.0431 1.392z" fill="#000" fill-opacity=".15"/><path d="m77.7381 149.41-1.496 3.577-9.7826-1.34-1.0803-3.765c.0848-1.077 2.2229-1.334 6.417-.814 4.2196.501 6.2078 1.292 5.9419 2.344z" fill="#106651"/><path d="m69.053 136.748c.5458-2.375 2.0278-3.396 4.4656-3.037 3.3514.526 4.576 3.063 3.6682 7.63-.8881 3.861-1.6828 9.401-2.3898 16.652v.099c-.0085.065-.0198.144-.0283.21-.1923 1.224-.4129 2.214-.6759 2.952-.2659.735-1.0861 1.044-2.4662.925s-3.1279-.328-5.2292-.602c-2.0844-.289-3.357-.823-3.7982-1.629-.1018-.181-.181-.391-.2461-.614-.2008-.707-.1923-1.544.0424-2.517.2998-1.31 1.1964-2.034 2.6981-2.209.5656-.065 1.1454-.13 1.7252-.192.7438-7.396 1.4904-13.273 2.2314-17.665z" fill="#efb207"/><path d="m60.5429 160.705-.1867-1.394v-.023c.9531.492 1.6969.837 2.2399 1.013.5232.147 1.5951.424 3.2241.78.198.051.4185.085.6646.122.823.122 1.8553.201 3.1194.246.4723.023.9503.023 1.4283 0 .4977 0 1.0011-.017 1.5243-.034.823-.045 1.6686-.085 2.5425-.17.0736-.036-.0565.227-.3676.818-.2998.497-1.1143.803-2.4888.908-.2291.014-.4582.028-.6872.039-.2744.006-.5685.011-.8428.017-1.4735-.003-2.8225-.085-4.0895-.271-.1556-.023-.2885-.043-.4214-.063-1.3293-.217-2.5142-.511-3.5493-.873-1.185-.433-1.8836-.795-2.1098-1.112z" fill="#106651"/><path d="m60.3592 159.289c-.1102-.654-.1612-1.25-.1725-1.793-.0509-2.484.8032-3.866 2.5482-4.152.789-.119 1.7647-.119 2.9215.028.1357-1.417.1159-2.859-.0311-4.366-.1471-1.508-.0057-1.864.4213-1.047.4073.792 1.8157 1.423 4.1998 1.889 2.3842.467 4.723.294 7.0393-.523.3903-.509.4695-.427.2602.249-.8881 3.665-1.3434 6.049-1.3519 7.206-.0113 1.177-.0961 2.084-.2319 2.724-.1584.636-.4468 1.207-.8371 1.716-.8739.085-1.7195.125-2.5425.17-.5232.017-1.0266.037-1.5244.034-.4977 0-.9757 0-1.4282 0-1.2642-.045-2.2964-.125-3.1194-.246-.2433-.037-.4667-.068-.6647-.122-1.629-.356-2.7008-.633-3.2467-.783-.5458-.15-1.2896-.495-2.2399-.99z" fill="#25a384"/><path d="m84.3871 140.034-.6561-5.283c9.7712 4.123 18.997 2.421 27.648-5.105l.772 6.233c-7.91 6.559-17.1612 7.95-27.7667 4.158z" fill="#efb207"/><path d="m108.517 133.266c-.02-.885.322-1.705 1.018-2.438.696-.735 1.341-1.159 1.906-1.269.58-.114 1.199.101 1.87.608.67.506 1.055 1.204 1.162 2.073.107.871-.192 1.682-.913 2.437-.71.739-1.415 1.174-2.11 1.29-.699.116-1.346-.093-1.974-.605-.614-.515-.939-1.222-.956-2.093z" fill="#efb207"/><path d="m67.3396 105.61-.1245 5.9c-6.7791-.074-13.4591.925-20.094 2.969l-3.2495-6.818c6.7706-1.875 14.5565-2.795 23.3605-2.698l.1075.644z" fill="#efb207"/><path d="m41.9626 109.734c.8201.503 1.349 1.23 1.5894 2.177.2347.934.1188 1.841-.3535 2.721-.4638.848-1.1454 1.428-2.0589 1.7-.9248.274-1.7987.158-2.6472-.337-.8371-.515-1.3716-1.256-1.6148-2.217-.2489-.993-.1386-1.929.3506-2.797.5063-.86 1.2105-1.414 2.1438-1.66.9191-.241 1.7845-.094 2.5906.415z" fill="#efb207"/><path d="m45.956 108.305c.9842.614 1.6233 1.482 1.9146 2.634.2857 1.136.1414 2.239-.4214 3.286-.5656 1.046-1.3858 1.731-2.4774 2.064-1.1087.326-2.1777.204-3.2043-.401-1.0153-.622-1.6771-1.513-1.9712-2.681-.3027-1.197-.1641-2.328.4412-3.386.6108-1.043 1.4678-1.705 2.599-2.005 1.103-.291 2.1381-.127 3.1223.487z" fill="#efb207"/><path d="m39.2051 107.225c.396-.704.9758-1.145 1.7394-1.343.7494-.195 1.4593-.065 2.1437.37.6646.425 1.1001 1.018 1.3038 1.822.1979.786.1131 1.53-.2659 2.228-.3761.713-.9559 1.171-1.7025 1.38-.7636.198-1.482.102-2.1635-.333-.6816-.433-1.1228-1.044-1.3293-1.861-.2206-.812-.1216-1.559.2743-2.263z" fill="#efb207"/><path d="m40.7267 114.451c.3959-.704.9757-1.145 1.7393-1.343.7495-.196 1.4593-.065 2.1381.353.6646.424 1.1001 1.018 1.3038 1.821.1979.787.1131 1.53-.28 2.232-.3762.713-.9559 1.171-1.7026 1.38-.7636.198-1.4819.102-2.1635-.331s-1.1228-1.043-1.3292-1.861c-.2037-.803-.1047-1.547.2913-2.251z" fill="#efb207"/><path d="m65.3455 107.965c.7325.436 1.6149.871 2.6443 1.276 2.4181.95 5.1105 1.569 8.1027 1.875 4.1178.418 8.7983.113 14.0163-.919 1.1227 3.328 1.9938 6.629 2.6075 9.907.8371 4.468 1.1482 8.645.9474 12.531-.1272 2.481-.7664 4.698-1.9174 6.624-.7523 1.261-1.6856 2.367-2.8282 3.331-.5289.309-1.0803.566-1.646.795-1.5413.625-3.1901.967-4.9605 1.058-1.663.087-3.3542-.071-5.0992-.458-2.0278-.447-3.8632-1.174-5.5234-2.184-1.8298-1.103-3.2976-2.483-4.426-4.143-1.2161-1.79-2.0872-3.996-2.5991-6.632-.3846-1.977-.608-4.418-.6504-7.319-.017-.481-.017-.962-.0198-1.443 0-1.561.0339-3.029.1046-4.434.1725-3.346.5826-6.624 1.2472-9.859z" fill="#ffc421"/><path d="m71.132 98.1772c.8569-.1527 1.991-.2036 3.4051-.1188 2.8366.1528 5.167.4639 7.0053.922 2.517.6024 4.6777 1.5726 6.4566 2.9076.9984.746 1.8864 1.589 2.6585 2.554.4581.543.871 1.139 1.2444 1.764.5458.928.987 2.037 1.3405 3.306.1046.326.2064.682.2828 1.05.2432 1.032.5147 2.59.7834 4.706l.8456 6.408c.1839 1.414.3337 2.693.4384 3.815.1301 1.426.2008 2.633.2064 3.595.0085 2.735-.3959 5.079-1.1849 7.042-.4158.993-.9333 1.918-1.5725 2.769-.4214.588-.9078 1.154-1.448 1.671-.3988.396-.8202.758-1.2557 1.089-.4638.359-.9389.67-1.4508.965 1.1397-.951 2.073-2.057 2.8281-3.332 1.1511-1.926 1.7902-4.129 1.9175-6.624.1979-3.883-.1131-8.06-.9474-12.531-.6138-3.275-1.482-6.578-2.6076-9.907-5.2179 1.032-9.8985 1.338-14.0163.919-2.9922-.303-5.6959-.925-8.1026-1.875-1.0295-.404-1.9119-.826-2.6443-1.275.3224-1.545.7098-3.066 1.1397-4.585.2319-.817.4525-1.485.6674-1.974.3055-.704.6731-1.284 1.0861-1.7223.7296-.7975 1.6968-1.2981 2.9243-1.5356z" fill="#efb207"/><path d="m92.0093 143.595 4.2704.984-.7042 11.689-4.1601 1.629c-1.2246 0-1.7167-2.506-1.4763-7.509.2432-5.031.9332-7.297 2.0673-6.791z" fill="#106651"/><path d="m83.0583 141.926c.2008.523.4271 1.075.6533 1.601 2.1211 4.955 4.4063 7.571 6.8526 7.82.6307.065 1.8185-.08 3.5578-.408 1.745-.353 2.6755-.495 2.8282-.48.2517.025.4581.257.6448.675.1018.249.28.744.5176 1.429.5741 1.383 1.6205 2.124 3.0824 2.274.405.039.659.039.792-.026.266-.105.569-.314.908-.65-.037.101-.071.203-.108.308-.229.506-.576.922-1.018 1.247-.359.28-.763.478-1.204.566-.162.09-.348.175-.56.234-.3681.097-.6961.088-.9903-.048-.2432-.104-.4581-.257-.6646-.492-.3365-.192-.6222-.407-.871-.698-.3225-.351-.6251-.886-.9305-1.632-.1386-.385-.2828-.744-.3762-1.072-.082.045-.1866.088-.2941.13-.4242.17-.9446.274-1.5639.345-.0255 0-.5657.048-1.5923.13-.5911.045-1.0294.108-1.3349.102-.5119.028-.9474.037-1.3264 0-.6335-.037-1.2274-.204-1.81-.501-1.5809-.743-2.9271-2.282-4.0867-4.677-.2092-.444-.4581-1.001-.7523-1.638l-.9502-2.189c-.3705-.86-.4327-1.502-.1358-1.92.1217-.198.3111-.311.5713-.365.0085-.079.0849-.071.1584-.062z" fill="#efb207"/><path d="m83.686 143.499c-.2262-.526-.427-1.05-.6533-1.601l.1018.011c.0509-.763.2687-1.402.6562-1.945.2658-.371.6024-.654.9757-.829.2432-.133.5317-.212.8145-.235.4921-.082.8908.011 1.1991.229.2376.184.4355.467.5769.854.017.082.0736.272.1471.572-.0085-.162.0283-.289.0679-.416.0339-.076.065-.127.0707-.204l-.1131-.885c-.1245-.781-.0877-1.386.0282-1.799 0-.025.0283-.022.0312-.051.1074-.308.3082-.526.5797-.681.2998-.181.5826-.207.8259-.102.2375.421.444.894.6278 1.36.1584.442.2913.903.3959 1.364.0651.35.1754 1.023.2772 2.041.0283.215.0566.456.0848.671.0594.43.1414.862.2263 1.292.1046.224.2093.444.3196.617.625 1.123 1.4169 1.863 2.3558 2.146.444.15.9757.178 1.6177.139.3592-.017.8994-.068 1.646-.15 1.1567-.093 2.1635.034 2.995.385.9784.415 1.7934 1.162 2.4234 2.231.589.987.936 2.082 1.069 3.286.085.908.034 1.672-.209 2.308-.339.337-.642.543-.908.651-.133.039-.39.065-.792.025-1.4872-.15-2.5054-.916-3.0823-2.274-.2347-.687-.4186-1.154-.5176-1.428-.1838-.441-.3931-.648-.6448-.673-.1527-.014-1.086.155-2.8281.481-1.7167.328-2.9017.472-3.5578.407-2.3983-.218-4.6834-2.834-6.8046-7.789z" fill="#ffc421"/><path d="m106.727 161.175-1.544.523h-.026c.456-1.262.767-2.223.905-2.879.111-.654.311-2.017.543-4.028.04-.246.051-.517.068-.814.051-1.004.034-2.248-.045-3.759-.023-.568-.074-1.134-.125-1.699-.073-.591-.121-1.214-.198-1.805-.135-.967-.268-1.965-.452-2.986-.074-.079.235.017.928.285.591.246 1.015 1.177 1.275 2.761.04.268.051.54.091.809.036.322.07.673.107.998.147 1.753.198 3.374.119 4.921-.009.189-.017.353-.026.515-.107 1.629-.314 3.096-.613 4.409-.337 1.476-.671 2.381-1.001 2.749z" fill="#106651"/><path d="m56.2869 132.416c-.1778-.821-2.5533-9.635-2.5533-9.635s0 0-.0018.002c-.0517-.173-.1035-.347-.1575-.522-.1105-.356-.2285-.707-.3408-1.061-1.9614 1.042-3.9116 2.164-5.1713.581-2.2947-2.267.4672-4.515 3.2183-6.213-.5054-1.349-1.0296-2.688-1.5743-4.015-1.5181.997-3.0724 1.747-4.6784 2.099 1.6077-.354 3.1581-1.104 4.6784-2.099-.2245-.55-.4547-1.098-.6906-1.643-1.7246 1.091-3.5002 1.84-5.3912 1.983-.951-.194-2.775-.144-2.2059-2.117.695-2.649 2.5948-4.558 4.6681-6.223-.5818-1.181-1.1784-2.352-1.7938-3.514-1.3022.969-2.6964 1.986-4.1482 2.535 1.4501-.547 2.8421-1.566 4.1442-2.534-.5151-.9816-1.045-1.9533-1.588-2.9175-2.1706 1.6161-4.589 3.1565-7.1903 2.1635-.2533-.1583-.8428-.902-.6675-1.1812 1.4556-2.2197 3.0488-4.6485 5.0288-6.5018-3.9089-6.4202-13.5946-18.917-19.9546-14.0484-3.6282 2.7757-1.5695 5.7307-.5781 8.5031 1.3549 3.787 3.2921 7.2642 5.1257 10.7771 2.6192 5.0272 5.285 10.0272 7.9954 14.9982 4.8823 8.95 9.5336 17.952 14.4566 26.891.4352.789.8863 1.594 1.6272 2.111 1.445 1.008 3.8407.626 5.4726-.717 2.4461-2.012 2.7968-5.299 2.2703-7.702z" fill="#db852a"/><path d="m48.0616 121.777c1.2563 1.588 3.206.461 5.1696-.579-.3851-1.203-.7872-2.399-1.2064-3.587-.2437-.683-.4932-1.364-.7483-2.043-2.7489 1.701-5.5113 3.945-3.2149 6.209z" fill="#f0b95a"/><path d="m41.4188 109.78c-.5696 1.969 1.2543 1.919 2.2093 2.113 1.8875-.139 3.6632-.888 5.3878-1.979-.6045-1.414-1.2335-2.814-1.8868-4.202 0 0 0 0-.0018.002-.3379-.723-.6872-1.44-1.0404-2.157-2.0734 1.665-3.9732 3.575-4.6681 6.223z" fill="#f0b95a"/><path d="m34.8392 98.1054c-.1775.2774.4124 1.025.6692 1.1789 2.6.9997 5.0201-.5434 7.1868-2.159-.0625-.1105-.1232-.2231-.1857-.3335-.3107-.5544-.6275-1.11-.9482-1.6652l.0096-.0031c.1596-.1379-.4973-1.5395-1.7007-3.5182-1.98 1.8533-3.5732 4.2821-5.0289 6.5018z" fill="#f0b95a"/><path d="m105.154 161.698c-.718.246-1.383.435-1.991.571-2.78.603-4.4172-.113-4.9178-2.121-.215-.911-.3139-2.07-.2432-3.481-1.6036.147-3.2439.486-4.9182.989-1.6742.504-2.09.413-1.2161-.274.8456-.656 1.4056-2.466 1.711-5.402.28-2.932-.1583-5.676-1.2868-8.255-.6108-.354-.526-.464.2546-.362 4.2026.257 6.9233.28 8.2185.037 1.321-.243 2.347-.342 3.08-.317.73.051 1.425.266 2.036.619.184 1.021.317 2.017.453 2.984.073.619.147 1.21.198 1.804.048.594.099 1.16.124 1.7.082 1.513.096 2.755.045 3.759-.014.297-.028.568-.068.814-.231 2.011-.432 3.374-.568 4.028-.139.681-.45 1.643-.905 2.907z" fill="#25a384"/><path d="m56.6036 125.152c9.0585-1.883 17.7862-4.85 26.1377-8.925l-2.1267-7.271c-7.8453 4.796-16.6409 7.463-26.4121 7.992-.8654 3.569-.0622 6.31 2.4011 8.204z" fill="#efb207"/><path d="m82.5632 116.354c.823-.283 1.4339-.888 1.8129-1.796.3761-.905.427-1.858.1216-2.851-.2913-.995-.8286-1.762-1.6205-2.271-.8004-.543-1.6319-.684-2.4633-.432-.8457.257-1.4792.851-1.8694 1.762-.4073.916-.4526 1.883-.1528 2.913.2998 1.026.857 1.801 1.6828 2.319.8117.523 1.6516.642 2.4916.356z" fill="#efb207"/><path d="m45.9218 122.519c.0452 1.109.4411 2.017 1.2104 2.747.7834.709 1.6771 1.04 2.7122.972 1.004-.067 1.8524-.503 2.5425-1.303.6929-.804 1.0153-1.734.9757-2.792-.0424-1.043-.4384-1.937-1.1765-2.681-.7523-.729-1.6318-1.074-2.6358-1.041-1.038.037-1.9005.456-2.6245 1.259-.7071.82-1.0465 1.768-1.004 2.842z" fill="#efb207"/><path d="m49.1147 122.095c.0538 1.335.5374 2.438 1.4678 3.32.9475.866 2.0306 1.25 3.2722 1.171 1.2246-.079 2.2399-.605 3.0685-1.575.8258-.973 1.2218-2.087 1.1709-3.374-.0509-1.27-.5345-2.339-1.4339-3.224-.8993-.885-1.9542-1.304-3.1817-1.276-1.2415.048-2.3077.543-3.1647 1.516-.8427.99-1.2528 2.138-1.2019 3.439z" fill="#efb207"/><path d="m54.429 123.619c-.6052-.605-1.3236-.879-2.1579-.837-.8484.06-1.5583.405-2.1296 1.072-.5713.682-.8371 1.462-.8032 2.359.0368.913.3649 1.646.9842 2.234.6222.588 1.3547.846 2.2003.769.8315-.059 1.5244-.435 2.0815-1.1.5544-.664.8089-1.428.7749-2.308-.0198-.879-.3478-1.597-.953-2.189z" fill="#efb207"/><path d="m53.7979 115.653c-.6052-.606-1.3264-.88-2.1578-.837-.8485.059-1.5555.421-2.1268 1.088-.5713.682-.84 1.463-.8032 2.359.0368.914.3648 1.646.9842 2.234.6222.589 1.3547.846 2.2031.787.8315-.06 1.5244-.436 2.0957-1.103.5543-.665.8088-1.429.7721-2.308-.0368-.914-.3649-1.629-.9701-2.22z" fill="#ffd154"/><path d="m49.3661 121.346c.0424 1.091.5345 1.996 1.4452 2.718.9389.704 2.0221 1.006 3.2608.944 1.2246-.079 2.2456-.523 3.0771-1.332.8484-.809 1.2528-1.728 1.2104-2.788-.0424-1.044-.5175-1.915-1.4112-2.639-.8937-.721-1.9458-1.061-3.1704-1.013-1.2415.048-2.3106.478-3.1732 1.273-.8654.812-1.2839 1.762-1.2415 2.84z" fill="#ffd154"/><path d="m45.8989 121.965c.0368.927.4299 1.691 1.1935 2.305.7777.596 1.6714.862 2.7065.792 1.004-.068 1.8553-.439 2.551-1.126.6958-.673 1.0266-1.456.9927-2.353-.0339-.88-.4271-1.626-1.1595-2.243-.7467-.599-1.6234-.896-2.6302-.862-1.0379.036-1.9034.407-2.6302 1.08-.7127.704-1.0577 1.507-1.0209 2.404z" fill="#ffd154"/><path d="m50.4976 122.89c-.4638.611-.6872 1.309-.6561 2.124.0311.814.3111 1.484.8201 2.013.5091.529 1.1143.761 1.8044.707.6731-.051 1.2444-.39 1.7082-.984.4497-.594.6561-1.272.625-2.073-.0311-.78-.2941-1.437-.7862-1.968-.5091-.546-1.1002-.792-1.7761-.758-.6901.034-1.2755.342-1.7393.936z" fill="#ffd154"/><path d="m84.5032 111.679c-.8286.88-1.8241 1.697-2.9836 2.46-1.4056.931-3.507 2.017-6.2842 3.27-5.0086 2.228-8.8804 3.784-11.618 4.669-2.9187.942-5.6676 1.556-8.2639 1.847-1.448-1.799-1.8326-4.129-1.1397-6.994 9.1208-.489 17.4129-2.857 24.8651-7.085.3591-.404.7975-.701 1.3292-.854.8315-.251 1.6573-.127 2.4576.416.7948.526 1.3265 1.275 1.6347 2.268z" fill="#ffd154"/><path d="m86.2763 45.9955c-1.2246-2.9893-2.4379-5.4357-3.6144-7.3418-1.4339-2.3134-2.8847-3.9651-4.3384-4.9521-1.0181-.6872-2.0476-1.0549-3.0996-1.1058-.8202-.0509-1.646.1075-2.4888.4355-.2319.0962-.4723.2036-.7042.3337-1.5668.8315-3.2043 2.3106-4.9097 4.4572-1.4225 1.7817-2.9497 4.0838-4.5759 6.8894-1.6262 2.8055-3.7614 8.7616-6.4171 17.8625-2.6556 9.101-1.875 14.9666 2.353 17.5826l28.4088 10.3001c2.8988-10.1389 3.8349-19.3332 2.7942-27.5914-1.0521-8.2638-2.1805-13.8946-3.4108-16.8699z" fill="#ffc421"/><path d="m107.765 53.1309c2.825-1.4763 5.3-2.5453 7.412-3.2099 2.557-.8202 4.712-1.1256 6.443-.9079 1.21.1471 2.228.543 3.063 1.2133.659.5006 1.187 1.1652 1.623 1.974.116.2263.232.4667.328.7184.67 1.6658.987 3.8774.93 6.6405-.039 2.2993-.328 5.0624-.873 8.2751-.532 3.2156-2.667 9.1717-6.395 17.8739-3.725 8.7022-8.032 12.6645-12.925 11.8584l-28.2018-10.8883c4.1941-9.6384 9.2933-17.2772 15.3201-22.8967 6.0187-5.6365 10.4387-9.1915 13.2757-10.6508z" fill="#ffc421"/><path d="m111.24 61.1487c.835.7127 1.624 1.4396 2.356 2.1947 3.705 3.6964 6.338 7.7717 7.894 12.2091.087.2291.164.4553.237.6816.337 1.0209.608 2.0532.823 3.1279.04.1046.065.2065.062.3139.023.0679.031.133.057.1895.198.9446.373 2.0504.512 3.3146-1.454 11.8245-6.542 21.423-16.075 25.541-16.234 5.594-35.1826.235-55.4406-13.247-.789-.9899-1.5074-2.0165-2.1239-3.0884-3.5578-6.1116-4.3327-12.3222-2.3078-18.6233 3.0459-9.6412 8.0517-16.5899 15.0118-20.8491 2.9554-1.8129 6.8017-3.0318 11.5501-3.6568 5.7242-.758 12.1865.0877 19.3955 2.5255 6.8889 1.8213 12.9129 4.9408 18.0549 9.3668z" fill="#ffc421"/><path d="m123.181 83.1797c.252 2.2427.382 3.6737.382 4.3044.022.2546.025.5176.011.7891.003.3082-.011.6278-.04.9417-.019.379-.051.7523-.116 1.1341-.036.5742-.118 1.1454-.24 1.7082 0 .0453-.017.1018-.031.1443-.009.0283-.017.0565-.031.0961-.792 3.6342-2.523 7.1043-5.193 10.4164-.339.41-.678.82-1.029 1.21-.122.144-.255.283-.385.41-.068.071-.469.444-1.219 1.117-.741.69-2.118 1.74-4.115 3.148-.124.065-.254.147-.379.212-.059.043-.113.071-.183.108l-1.253.673c-.425.212-.863.418-1.296.613-.014-.005-.017.009-.036.02-.017.009-.031.006-.048.014-3.949 1.726-8.4877 2.481-13.6208 2.235-5.119-.241-9.3188-.852-12.6192-1.822-.1188-.039-.2263-.076-.3507-.102-.0679-.022-.1386-.031-.1923-.048-4.0556-.916-7.7689-1.979-11.109-3.193-.6222-.226-1.2415-.463-1.875-.707-1.4028-.562-2.749-1.156-4.0358-1.756-.4186-.218-.8484-.438-1.2811-.662-.1924-.096-.3818-.189-.5685-.299-.1018-.051-.2008-.114-.3026-.164-.3648-.201-.7297-.399-1.0775-.609-3.8661-2.239-6.9629-4.7904-9.3103-7.6921 20.2863 13.5381 38.5278 17.4781 54.7618 11.8841 9.536-4.115 15.13-12.1613 16.782-24.1215z" fill="#efb207"/><path d="m103.503 70.7192c3.492 1.1595 6.057 3.4277 7.661 6.8102 1.609 3.3683 1.819 6.8724.631 10.498-1.182 3.6116-3.422 6.304-6.72 8.0405-3.298 1.7393-6.6857 2.0306-10.1926.8654-3.4786-1.1539-6.0154-3.4136-7.6247-6.7847-1.6148-3.4023-1.827-6.8922-.6448-10.5038 1.1878-3.6257 3.4334-6.2983 6.7451-8.0319 3.275-1.7619 6.663-2.0533 10.142-.8994z" fill="#fff"/><path d="m71.2307 59.8702c3.4758 1.1567 6.0267 3.4221 7.6218 6.8045 1.6007 3.3655 1.8044 6.8696.6194 10.4953-1.1822 3.6115-3.4108 6.3039-6.6971 8.0461-3.2863 1.7421-6.6603 2.0362-10.1474.8739-3.4616-1.1511-5.9871-3.408-7.5879-6.7763-1.6035-3.3994-1.8157-6.8893-.6335-10.5009 1.185-3.6257 3.4249-6.3011 6.7253-8.0376 3.2637-1.7647 6.6349-2.0589 10.0994-.9078z" fill="#fff"/><path d="m92.6199 80.3941c1.0831-.56 2.1861-.6561 3.323-.2743s1.9656 1.1312 2.4973 2.2314c.5288 1.1001.6109 2.2455.2291 3.4277s-1.12 2.0674-2.189 2.6302c-1.0747.5769-2.172.6618-3.309.28-1.1369-.3818-1.9655-1.1313-2.4916-2.2456-.5288-1.1001-.6052-2.2597-.2234-3.4418.3649-1.1737 1.0832-2.0476 2.1664-2.6048z" fill="#413535"/><path d="m60.2461 69.6527c1.0832-.56 2.1861-.6562 3.323-.2744 1.137.3818 1.9656 1.1313 2.4973 2.2314.5289 1.1002.6109 2.2456.2291 3.4277-.3818 1.1822-1.12 2.0674-2.189 2.6302-1.0747.577-2.172.6618-3.3089.28s-1.9656-1.1312-2.4916-2.2455c-.5289-1.1002-.6053-2.2597-.2235-3.4419.3649-1.1737 1.0832-2.0476 2.1664-2.6075z" fill="#413535"/><path d="m77.9643 91.902c.3733.116.7381.2518 1.0718.4045 1.6121.7127 2.9074 1.8552 3.8802 3.3994 1.1398 1.8242 1.5188 3.6992 1.1539 5.6051-.0961.498-.2262.959-.3818 1.366-.4242 1.1-1.0605 1.921-1.9401 2.438-1.0747.648-2.1918.973-3.3542.95-1.1652-.014-2.22-.158-3.1505-.435-.9418-.28-1.9203-.713-2.9441-1.327-1.0238-.602-1.8326-1.547-2.435-2.833-.6081-1.313-.7806-2.8964-.5204-4.7403.0283-.2291.0848-.4525.1357-.6646.396-1.6008 1.3123-2.8253 2.7575-3.6681.9983-.5883 2.0928-.8852 3.2608-.8824.7919-.0057 1.6121.1159 2.4605.3874z" fill="#684e3a"/><path d="m77.3592 85.0098c.8173.0396 1.6601.1782 2.517.4497.8739.2658 1.7705.6391 2.6868 1.1369 1.8439.9587 3.4362 2.6754 4.7626 5.1529 1.3292 2.4661 1.6912 4.4062 1.0888 5.8203-.6052 1.4254-2.0843 2.2257-4.4402 2.4096-2.4011.1838-4.8418-.9842-7.3277-3.4871-4.1008.3959-6.9798-.2037-8.6315-1.7931-1.3349-1.2868-1.8072-2.4944-1.4197-3.6228.1046-.2659.246-.5232.4327-.7665.9898-1.3348 2.5566-2.5764 4.6975-3.719 2.1098-1.1397 3.9877-1.6629 5.6337-1.5809z" fill="#ffc421"/><path d="m79.2935 89.0737c.0509.1244.0198.3591-.082.6957l-1.5725 5.249c.0651.2206.1245.4073.1838.5968.6194 1.5187 1.7309 2.6443 3.3231 3.357.6477.2856 1.5555.4072 2.7094.3959s2.3728-.7099 3.6681-2.073c.2178.5317.1612 1.0945-.1725 1.694-.3366.6137-.8739 1.0999-1.6036 1.4619-.7466.359-1.5244.583-2.3304.662-1.0379.065-1.974-.054-2.8338-.328-1.7846-.574-3.2213-1.8807-4.3299-3.9113-2.3134.8512-4.1998 1.0266-5.6648.526-1.4706-.4893-2.3247-.9163-2.5594-1.2528-.6166-.5346-1.0351-1.2246-1.2388-2.042-.2177-.823-.2658-1.4678-.1612-1.9542.1019-.4723.3705-.9559.8259-1.4226.1866 2.0108.7381 3.3683 1.6318 4.0556.6448.4836 1.3179.7919 2.0221.9418 1.7026.3648 3.2467.0933 4.6099-.7863.1499-.1046.3054-.2234.4836-.3676l1.4876-4.7853c.2404-.6278.4073-.9757.4751-1.0605.7099-.9531 1.0974-.8287 1.1313.3479z" fill="#684e3a"/><path d="m82.0712 88.5507c.2517.28.427.5684.5317.8484-.9248 1.8836-2.5708 2.6726-4.9323 2.3898-1.9938-.7042-2.9639-2.1833-2.9215-4.4572.4073-.3139.8768-.5458 1.4056-.6844.9616-.2432 2.0165-.1781 3.1845.1952 1.1793.379 2.0815.9474 2.7292 1.7082z" fill="#684e3a"/><path d="m79.6621 56.2986c.0898-.4605.1331-.7559.1325-.8776.0395-.2022.0732-.4018.0961-.6131l20.6303 8.3992c.012.0514.007.1022-.015.155-.043.3436-.195.5949-.462.7622-.202.1643-.4916.2542-.8574.2702-.2243.0162-.7542.0991-1.5869.2486-.847.1518-2.6423.0323-5.3772-.3638-2.7434-.3965-5.484-1.3392-8.2216-2.8365-2.7403-1.4974-4.1688-2.6151-4.2883-3.3532-.1228-.7268-.1349-1.3246-.0451-1.7851z" fill="#206ce9"/><path d="m89.9138 43.5828c1.9265.575 3.8071 1.301 5.633 2.186 1.8262.8794 3.7477 2.0542 5.7612 3.5273 2 1.481 3.407 2.7025 4.234 3.6594.826.957 1.61 1.8584 2.345 2.7068.734.8512 1.213 1.672 1.435 2.4681.213.8042.348 1.5118.41 2.1257.053.6278.037 1.5018-.049 2.6219-.086 1.1202-.693 1.8962-1.823 2.3335-1.128.4374-2.064.6223-2.806.5548-.756-.0567-1.849-.2378-3.283-.549-1.445-.3116-4.8785-1.4698-10.3124-3.4748-5.4423-2.0054-9.2825-4.2192-11.5174-6.644-.4402-.239-.9469-1.061-1.5228-2.4661-.5873-1.4056-.7881-2.6423-.6048-3.7189.1719-1.077.8688-2.3247 2.0879-3.7406 1.213-1.4076 2.6938-2.17 4.4592-2.2867 1.777-.1218 3.6245.1046 5.5506.688l-.0003.0085z" fill="#4189ff"/><path d="m96.3136 49.8084-1.0424-1.1442c.2237-.9616.5414-2.2789.9532-3.9545.0657-.3568.1654-.647.3017-.8622.0622-.1361.1774-.2502.3423-.3368.1372-.1019.2778-.147.4245-.1353.2118.0116.3963.1352.5508.3709.3139.2791.5032.5615.5684.833.0203.2641-.0614.6655-.2449 1.2014-.5255 1.4134-1.1388 2.7608-1.8507 4.0278z" fill="#206ce9"/><path d="m150.418 150.553c-.37.099-.702.253-.999.468-.308.217-.561.488-.758.809-.132.209-.229.42-.288.643-.012.042-.024.087-.032.128-.018.084-.033.167-.044.253-.047.471.061 1.013.329 1.629.308.729.693 1.271 1.149 1.622.214.164.473.307.778.435.238.098.529.196.873.286.121.029.259.062.415.101.367.08.817.17 1.351.268.882.155 1.481.268 1.805.345.235.054.59.137 1.063.259.424.095.782.164 1.085.211.914.123 1.766.066 2.554-.172.429-.128.831-.313 1.199-.557.39-.25.717-.545.987-.881.253-.322.438-.664.552-1.03.024-.083.047-.167.065-.247.112-.488.088-.935-.065-1.346-.179-.488-.52-.875-1.019-1.149-.485-.271-1.014-.393-1.584-.363.144-.515.217-.997.22-1.453-.006-.518-.109-.976-.306-1.375-.199-.402-.505-.75-.91-1.045-.365-.271-.794-.479-1.285-.628-.085-.027-.173-.054-.261-.077-.103-.027-.206-.051-.312-.069-.294-.062-.593-.098-.899-.11-.508-.024-1.011.018-1.51.125-.459.092-.867.232-1.229.417-.417.208-.758.47-1.025.783-.35.396-.62.94-.811 1.628-.371-.03-.732.006-1.088.101l.003-.006z" fill="#637c37"/></svg>