<svg fill="none" height="189" viewBox="0 0 188 189" width="188" xmlns="http://www.w3.org/2000/svg"><path d="m164.507 124.871c-.445-3.308-.75-5.653-.906-7.022-.24-1.981-.545-4.744-.912-8.268-.9.065-1.774.094-2.635.112 0 0 0 0 0-.003.861-.018 1.738-.05 2.641-.118-.077-.681-.148-1.386-.225-2.13l-.539-4.936-3.935-34.8579h.009l-.637-5.8402s-.014 0-.023 0l-.515-4.7414c-.057-.462-.279-3.4917-.122-3.5154.042-.1332-3.091-8.7069-3.091-8.7069-.24-.4443-.5-.696-.778-.7404-.32-.0563-.56.1569-.714.6397l-1.986 9.1985h-.009.02c-.047.2103-.047.4591-.006.7582l.921 7.5342h.024l.527 4.3475c-1.839.1037-3.917.2488-4.281.2073-.193-.924-.021-1.7562-.335-2.6861-.26-.7552-.459-1.2586-.61-1.5044-.159-.2607-.379-.3791-.666-.3377-.287.0415-.681.0859-1.172.1452-.506.077-1.042.1569-1.614.2458-.53.071-.867.1392-1.006.2073-.282.1717-.45.5923-.495 1.2675.009.2606.009.5272.009.7878.039.77-.035 1.5341-.059 2.3011-.734.2429-1.809.0355-2.576.0059-.056-.1865-.071-.3672-.089-.5656-.011-.1451-.035-.4946-.074-1.0573-.026-.4709-.062-.844-.1-1.1165-.024-.2665-.131-.5242-.332-.7818-.178-.2755-.397-.4235-.669-.4532-.281-.0592-.681-.077-1.19-.0533-.169-.0089-.323.006-.45.0178-.281.0267-.498.0681-.663.1214-.172.0385-.406.0741-.726.0889-.319.0148-.553.0355-.681.0622-.568.074-.947.3376-1.128.7907-.112.2843-.115.7611.015 1.4215.089.6427.127 1.2202.122 1.771-1.241.0563-2.482.1215-3.722.1896-.018-.3406-.033-.6901-.05-1.0543-.033-.6842-.06-1.4186-.092-2.1857h-.009c-.033-.7137-.062-1.4541-.095-2.2389-.1-1.8717-.086-6.5006-.044-6.6339l-4.228-7.5637c-.269-.4413-.559-.6901-.876-.7316-.364-.0503-.643.1659-.82.6486l-2.259 8.7544h-.006v.0148l-.119.462c.057-.003.11-.0089.166-.0119.237 2.2863.477 4.543.708 6.7642h-.009c.044.4087.095.8026.133 1.2113h.009c.109 1.0158.219 2.0257.326 3.0296-1.706.1244-3.411.2518-5.113.3969-.012-.5509-.054-1.0958-.151-1.6526-.125-.6989-.344-1.1076-.678-1.232-.157-.0473-.524-.0592-1.111-.0355-.589.0089-1.16.0296-1.699.0622s-.965.0563-1.261.0681c-.305.0119-.512.1599-.64.462-.139.3021-.287.8677-.435 1.6999-.074.3584-.115.7523-.124 1.1669-1.182.1155-2.318.2339-3.417.3554-.018-.1807-.021-.4176-.05-.7226-.027-.4709-.062-.8441-.101-1.1165-.024-.2666-.13-.5242-.323-.7819-.183-.2725-.405-.4235-.675-.4502-.281-.0592-.681-.077-1.19-.0533-.169-.0088-.32.006-.45.0178-.272.0237-.497.0681-.663.1214-.068.0208-.157.0385-.255.0474-.023-.2517-.038-.5094-.071-.767-.08-.5272-.136-.8352-.18-.9092-.051-.0326-.113-.3021-.178-.7937-.08-.4679-.477-.6901-1.184-.6664-2.1288.0326-4.3819 1.078-6.4987 1.5312.302 4.2409 1.2642 8.3663 1.4566 12.5777.0918 2.076.2013 4.1491.3198 6.2222-6.6704.6841-54.1441 8.9557-64.0296 10.1048-.6188.1125-1.1902.2191-1.7143.3228.3316 1.3327.6721 2.6624 1.0303 3.9921 3.2242 11.9912 7.3128 23.7342 10.4688 35.7462 1.4034 5.342 2.4544 10.726 3.4344 16.149 24.6324-2.268 72.0617-9.089 89.7987-10.614 3.476-.29 6.191-.545 8.142-.767 2.09-.237 4.012-.498 5.77-.782.409-.03.817-.059 1.229-.089 2.484-.181 5.966-.243 8.156-1.016.069-.023.128-.05.19-.074l6.022-.675c-.364-2.568-1.004-9.791-1.184-11.097z" fill="#0c4274"/><path d="m153.373 68.2227c-.228.0177-.456.0325-.687.0473.228-.0148.456-.0296.687-.0473z" fill="#0c4274"/><path d="m9.26441 31.9111c-.00593.0326-.01483.0711-.02076.1067.03262.0148.0682.0266.10378.0414-.01779-.1007-.03558-.2043-.05337-.308-.0089.0533-.02076.1066-.02965.1599z" fill="#939991"/><path d="m26.5002 28.7247c-.527-1.075-1.128-2.2211-1.8119-3.4443-.4678-.8292-1.2287-2.1471-2.2797-3.9477l-5.7436-9.7376c-.2073-.3465-.373-.6041-.4974-.7759-.1036-.1422-.2102-.2547-.3138-.3435-.154-.2222-.3079-.3673-.4648-.4295-.0356-.0207-.0681-.0325-.0977-.0355-.1333-.02962-.2547-.0059-.3612.0681-.0889-.0089-.1688.0059-.2458.0474-.1302.08-.2487.228-.3582.4472-.077.151-.1628.3731-.2517.6634-.6039 1.8806-1.279 4.6289-2.028 8.2479-.8319 4.0188-1.4655 6.8145-1.9037 8.3812-.1184.4264-.26347 1.0395-.43519 1.8361-.13323.5983-.24869 1.1639-.34936 1.697l16.79275-2.7542c.1213.0266.2368.0533.3493.0799z" fill="#91a5b5"/><path d="m11.7215 40.4261c.302-.1214.9978-.3347 2.0843-.6397 2.41-.5568 3.9376-.8974 4.586-1.0217 2.336-.3998 4.6749-.622 7.0197-.6634 1.1872.0029 2.1553.0888 2.9014.2547.0888.0237.1924.0503.3109.0829l.0355.0355-.2043-1.2497c-.1243-1.158-.3168-2.3456-.5832-3.5569-.1481-.7522-.4589-2.0997-.9386-4.0395-.068-.2725-.1391-.5568-.2102-.8529-.071-.0178-.145-.0356-.219-.0533-.1125-.0267-.231-.0534-.3494-.08l-16.79271 2.7542-.12434.0208c.01776.1125.03849.225.05625.3346.01776.1037.03553.2044.05329.308.39969 2.2952.79051 4.2943 1.17541 5.9972.2635 1.1253.4885 2.1086.6809 2.9585.077-.154.1451-.308.2043-.456.1036-.0356.2072-.08.3138-.1333z" fill="#b7884d"/><path d="m18.3498 44.2838c3.8103-.6249 7.0433-.9418 9.699-.9506 1.4566.0059 2.8007.1036 4.0264.2843-.0473-.2429-.148-.5361-.299-.8796-.2191-.4324-.6217-1.0721-1.205-1.9132-.7579-1.075-1.3944-1.8598-1.9155-2.3514-.0118-.0119-.0237-.0237-.0355-.0356-.1184-.0326-.2221-.0622-.3109-.0829-.7461-.1659-1.7112-.2517-2.9014-.2547-2.3448.0415-4.6837.2636-7.0197.6634-.6483.1244-2.176.4649-4.586 1.0217-1.0895.3051-1.7852.5183-2.0843.6397-.1036.0504-.2072.0948-.3138.1333-.0622.1481-.1303.3021-.2043.4561-.074.148-.151.302-.2398.456-.4026.7167-.7105 1.2528-.9237 1.6141-.42633.7196-.85859 1.6377-1.2938 2.7572-.12139.3287-.20724.613-.2635.8559.87931-.4709 1.8386-.8589 2.8718-1.161.7609-.1954 3.0909-.613 6.993-1.2527z" fill="#91a5b5"/><path d="m8.4771 46.7339c-.03855.1747-.0593.3287-.06523.462.04151-.0178.08598-.0355.1275-.0533-.00297-.0237-.00593-.0504-.0089-.0741z" fill="#939991"/><path d="m33.3302 47.0029-1.0392-3.3525c-.0711-.0119-.1451-.0208-.2191-.0326-1.2287-.1836-2.5698-.2784-4.0265-.2843-2.6557.0089-5.8887.3258-9.699.9507-3.9021.6396-6.2321 1.0572-6.993 1.2527-1.0333.3021-1.98956.6871-2.87183 1.1609-.00296 0-.00888.0059-.01184.0059l.00592.0297.05329.3346c.00296.0237.00592.0504.00888.074.2487 1.9784.50035 3.7968.75792 5.4552l23.75316-3.8944c.2724.0266.5329.0533.7816.0859-.148-.5568-.3168-1.1521-.5033-1.7858z" fill="#b7884d"/><path d="m50.3807 151.412c.4973-.089.8881.018 1.1635.228 1.3115-.118 2.555 0 3.7274.362l-.225-1.404c-.5655-3.474-1.0599-6.083-1.4773-7.83-.1836-.747-15.2177-76.8645-16.5973-81.5852-.5744-1.9961-1.0392-3.8263-1.4004-5.4937-3.0051-.1688-5.2966-.2132-6.8805-.1392-.8764.0385-1.9541.1451-3.2301.3169.1026.535.1026.535 0 0-1.1221.1303-2.3922.308-3.8074.5331-2.1109.3583-3.8488.693-5.2136.998-.1984.0474-.3908.0889-.5774.1303-2.0694.5035-3.9021 1.1017-5.4979 1.7947l15.4516 93.3541c.0207.329.0414.643.0622.948 8.1713-.72 16.393-.75 24.5022-2.213z" fill="#ca9e67"/><path d="m17.6244 100.011c-.2961.05-.53.16-.6987.323-.2576.255-.3346.583-.231.983.077.35.2547.563.533.637.2398.068.5033.059.7904-.027 2.561-.782 5.9835-1.451 10.2646-2.0018 5.4771-.7196 8.9351-1.2112 10.3799-1.4748 1.8386-.3702 3.6623-.8381 5.4772-1.3979.2931-.1095.4767-.2191.5477-.3257.2043-.2162.2339-.4857.0888-.8115-.0888-.305-.3434-.4294-.7638-.3702l-11.8159 1.7444c-5.0123.7848-9.8737 1.694-14.5752 2.7215z" fill="#ad6f1c"/><path d="m39.3174 102.742c1.8445-.471 3.6683-1.025 5.4742-1.662.2932-.13.4708-.24.5389-.331.2368-.22.2753-.486.1095-.803-.1125-.3347-.3671-.4472-.7609-.3347l-11.8839 2.2477c-5.0035 1.016-9.8589 2.15-14.5604 3.403-.2931.077-.5329.19-.7195.338-.2368.269-.299.598-.1835.986.0592.349.2398.565.5359.645.2427.045.5121 0 .8023-.127 2.5461-.891 5.9686-1.688 10.2675-2.39 5.489-.977 8.95-1.638 10.3829-1.975z" fill="#ad6f1c"/><path d="m27.4991 29.5767c-.2191.4531-.5803.7729-1.0688.9862-.222.1095-7.289 1.3682-7.9256 1.5163l-8.0707 1.5489c-.45589.0947-.80228.1125-1.03913.0385-.4589-.1659-.75793-.6042-.89115-1.3031-.07402-.4413-.0533-.7789.06809-1.0129.17764-.3702.67206-.6574 1.47439-.8618l7.674-1.5874c.5388-.1244 7.6147-1.3267 7.9463-1.3416.4826-.0236.8882.0534 1.2287.231.4618.2725.7194 1.5608.601 1.8007l.0059-.0178z" fill="#efa625"/><g fill="#b7884d"><path d="m30.5279 125.44c.0473.421-.0356.983.6039 1.084.2102.039.4441.009.6691-.015.2576-.032.5063-.05.7639-.08.1895-.02.376-.038.5418-.115.4559-.211.1865-.815.1214-1.12-.1274-.539-.231-1.291-.308-2.245l-1.5602-12.023c.0148-.48-.0474-.91-.151-1.307-.2576-.885-.6957-1.347-1.3382-1.397-.4115-.027-.7846.168-1.0777.574-.2694.388-.4056.85-.4145 1.365-.0384.409.0089.892.1007 1.437l.3109 1.412c.0473.421.8674 5.681.903 6.726.0088.903.4677 3.88.5773 4.386l.2694 1.309-.0089.015z"/><path d="m42.0829 124.617c.1924.071.4589.089.7994.059.3315-.027 1.1576.044 1.3855-.234.1895-.228.1303-.847.1481-1.108.0236-.5-.0415-1.089-.154-1.762l-.3671-1.738c-.0622-.515-.379-2.805-.453-4.084-.0444-1.105-.6158-4.762-.7461-5.384l-.3227-1.611c-.1125-.883-.1983-1.377-.2427-1.505-.3909-.894-.983-1.14-1.7794-.749-.4915.142-.7727.521-.8142 1.128-.0503.264 0 .705.1333 1.345.148.666.2812 1.59.3967 2.757l1.3175 10.588c.0029.586.0799 1.113.2013 1.602.1036.403.2605.616.5063.725l-.006-.029z"/><path d="m37.2711 125.553.1155-.021c.2339-.039.4529-.077.6868-.116.7698-.13.7254-.586.7224-1.098.0356-.35.0119-.699-.074-1.063-.5596-2.313-1.8178-11.565-1.9451-13.94-.0474-.847.1332-1.549-.8616-1.967-.4115-.175-.8319-.104-1.3086.187-.4707.263-.7253.598-.7845 1.024-.0652.462 0 1.001.0829 1.549.2783 1.774 1.5661 10.363 1.8089 12.143.077.598.0947 1.193.1688 1.779.0799.536.0236 1.475.9059 1.532.1688.008.3346-.009.4974-.036l-.0207.027z"/><path d="m27.6617 127.017c.5981-.432.2399-1.557.154-2.129-.3464-2.18-1.2612-8.556-1.5721-10.741-.1776-1.262-.2368-5.636-2.1376-4.97-.7638.234-1.1102 1.013-1.0599 2.357-.0237.424.0119.853.1125 1.304.6514 2.849 1.5603 10.036 1.7764 12.944.0326.474-.1214 1.327.4441 1.561.1688.077.3612.089.5507.071.3553-.015.7165-.077 1.0747-.154.2102-.035.4263-.103.6099-.21.0118 0 .0237-.003.0325-.021l.0089-.018z"/><path d="m31.7057 78.6908c-.0414-.385.0504-.9063-.5862-.9922-.2102-.0325-.4441-.0029-.6661.0237-.2576.0326-.5063.0533-.7639.0859-.1895.0207-.376.0415-.5447.1155-.456.2014-.1954.7522-.1362 1.0336.1214.4975.2132 1.1876.2783 2.0672l1.4004 11.0702c-.0208.4413.0355.8381.1332 1.2024.2457.8115.678 1.235 1.3175 1.2705.4115.0207.7875-.1658 1.0806-.542.2753-.3613.4175-.7907.4323-1.2645.0444-.3791.0029-.8204-.08-1.3238l-.2931-1.3002c-.0414-.385-.7905-5.2271-.8112-6.1896 0-.8322-.4145-3.5716-.5181-4.0366l-.2517-1.2053.0089-.0119z"/><path d="m20.1652 79.6004c-.1895-.0651-.4559-.074-.7994-.0444-.3315.0296-1.1546-.0237-1.3855.2339-.1925.2133-.1421.7849-.1629 1.0218-.0296.462.0267 1.0039.1303 1.6229l.3434 1.5993c.0563.4738.3435 2.5824.3997 3.7611.0296 1.0188.5537 4.3831.6721 4.9576l.299 1.4838c.1007.8114.1806 1.2675.2221 1.386.3789.8203.9681 1.0365 1.7675.6663.4914-.1392.7786-.4916.826-1.0513.0533-.2429.0089-.6516-.1155-1.2379-.1391-.6131-.2605-1.463-.3582-2.5381l-1.1754-9.7494c.003-.539-.0651-1.0247-.1776-1.4749-.0977-.3701-.2517-.5656-.4945-.6633l.006.0266z"/><path d="m24.9756 78.6765-.1155.0208c-.2339.0385-.4529.077-.6868.1155-.7698.1303-.7343.5508-.7372 1.0247-.0415.3228-.0237.6456.0592.9802.527 2.1235 1.6639 10.6438 1.7586 12.8324.0355.7819-.151 1.4305.8319 1.8036.4086.154.829.0829 1.3086-.1895.4737-.2488.7313-.5627.7964-.9566.0711-.4294.0119-.924-.0621-1.4275-.2517-1.6318-1.4271-9.5362-1.6461-11.1739-.0681-.5509-.08-1.0987-.1451-1.6377-.0711-.4946-.003-1.3594-.8852-1.4009-.1688-.0059-.3346.0119-.4974.0385l.0207-.0266z"/><path d="m34.5863 77.1962c-.601.4057-.2576 1.4393-.1806 1.9665.3168 2.0049 1.1457 7.8747 1.427 9.8856.1599 1.1609.1628 5.1946 2.0665 4.5549.7639-.2251 1.1191-.9507 1.0895-2.1886.0296-.3909 0-.7878-.0947-1.1994-.6129-2.618-1.4241-9.2371-1.6017-11.9143-.0267-.4384.1391-1.2261-.4234-1.4334-.1687-.0681-.3612-.077-.5477-.0593-.3553.0178-.7165.08-1.0747.154-.2102.0356-.4263.1007-.6129.2014-.0118 0-.0237.003-.0325.0208l-.0089.0148z"/><path d="m40.2937 130.214c-.077-.596-.0326-1.386-.6869-1.57-.2161-.068-.45-.044-.675-.024-.2576.027-.5092.036-.7668.063-.1895.014-.379.029-.5418.127-.4471.266-.1303 1.134-.0444 1.572.1658.77.3256 1.84.4678 3.19l2.4188 17.079c.0178.676.1095 1.286.2428 1.854.3227 1.268.7993 1.952 1.4536 2.064.4175.069.7816-.186 1.0481-.734.2457-.527.3523-1.173.3257-1.898.0088-.575-.0711-1.259-.2014-2.035l-.4144-2.017c-.077-.595-1.2761-8.076-1.3827-9.554-.071-1.273-.7431-5.505-.8881-6.228l-.3642-1.869.0089-.017z"/><path d="m28.6556 130.569c-.1984-.115-.4707-.154-.8142-.139-.3316.015-1.1753-.142-1.3855.234-.1747.308-.0741 1.188-.0711 1.552.0118.702.1184 1.54.2783 2.496l.4915 2.482c.1006.732.5802 3.984.7431 5.793.1214 1.561.9563 6.761 1.1309 7.65l.4382 2.298c.1777 1.253.2961 1.957.3523 2.141.4589 1.291 1.0747 1.676 1.8534 1.182.4855-.169.7461-.681.7461-1.537.0325-.37-.0504-.995-.228-1.908-.1984-.95-.3967-2.262-.5921-3.918l-2.0725-15.035c-.0444-.827-.1598-1.576-.3138-2.278-.1332-.574-.3079-.888-.5625-1.057l.0059.041z"/><path d="m33.4577 129.583-.1155.021c-.2339.038-.4529.077-.6868.115-.7698.131-.6958.779-.6543 1.502-.0119.489.0355.986.148 1.504.7283 3.303 2.6468 16.449 2.9429 19.807.1066 1.2-.0267 2.177 1.0096 2.837.4292.276.8497.205 1.3115-.171.4589-.338.6928-.797.7224-1.392.0326-.649-.071-1.413-.1924-2.192-.4027-2.523-2.3093-14.733-2.6764-17.26-.1214-.85-.1806-1.691-.2961-2.523-.1184-.761-.1244-2.082-1.0244-2.224-.1717-.024-.3375-.012-.5003.015l.0177-.039z"/><path d="m43.0798 128.184c-.5743.569-.1332 2.18-.0059 2.994.5033 3.098 1.8711 12.163 2.3389 15.267.2694 1.792.6336 7.97 2.5077 7.161.7549-.278 1.051-1.353.9089-3.252-.0059-.598-.074-1.205-.2043-1.845-.8586-4.063-2.2797-14.274-2.7001-18.391-.0651-.672.0296-1.866-.5596-2.236-.1746-.118-.373-.151-.5625-.139-.3612-.003-.7194.059-1.0776.139-.2103.036-.4234.116-.604.252-.0119 0-.0237.003-.0326.027z"/></g><path d="m15.537 10.5315c-.0325.1363-.1006.2695-.1865.3821-.0829 0-.1806 0-.299.0089-.1599.0118-.4145.0059-.7757-.0149l-.0059-.0385c-.4263-.8292-.6573-1.95458-.6958-3.37908-.0148-.47681.0474-.82924.2043-1.04247.1125-.14807.2694-.23988.4648-.27542.2073-.02666.3553.0385.453.17473.0415.05923.0859.17177.1303.34354.1421.693.2368 1.21127.2961 1.55185.0592.34058.1065.57454.1391.7315.0444.16289.1214.42647.228.77297.074.29618.0769.55678.0325.77588l.0089.006z" fill="#ad6f1c"/><path d="m15.7517 5.22431c-.1391-.09774-.302-.10366-.4589-.10958-.148-.00889-.2931 0-.4382.00888l-.2605.04443c.1569-.03554-.1895-1.50447-.2724-1.64662-.1154-.20731-.7135-.66043-.903-.47978-.6779.66043-.3315 1.54593-.2605 2.35443-.0148-.07996-.6928.27247-.7342.31097-.1629.14807-.3139.3465-.2665.58342.1007.45312.7194.50346 1.0925.44127.2842-.04738.527-.154.8112-.19546.4767-.06515 1.0925-.07996 1.5129-.32873.1539-.09181.296-.21323.3493-.39389.0622-.21323.0119-.45608-.1806-.58638h.0089z" fill="#c2a56b"/><path d="m37.8308 73.0018c1.2731-.2843 2.2738-.5834 2.9992-.9003.7786-.9951.9651-2.5588.5625-4.697-.2043-1.081-.4204-2.159-.6514-3.237-.1154-1.1935-.2901-2.5025-.521-3.924-.5004-3.0564-1.0185-5.7306-1.5573-8.0258-.2931-1.3002-.5951-2.4759-.9001-3.5302-.2546-.9003-.5477-1.5311-.8763-1.8984-.53-.6071-1.3649-1.0158-2.5017-1.2231-1.5011-.2991-3.0347-.2073-4.5979.2695-.1806.0533-.4944.0948-.9504.1185-1.9629.1718-4.2455.4472-6.8479.8263-.6809.1125-1.4803.2428-2.3981.3939-1.803.3198-4.0916.7196-6.8657 1.1994l-4.26629.8114c-2.35074.4354-3.76592 1.161-4.24259 2.1827-.22797.5834-.27534 1.3564-.14211 2.3248.07402.2843.12435.5864.14803.9033.3464 1.9487.91484 4.5904 1.70237 7.9281l2.90734 11.3338c.33455 1.3801.79049 2.2834 1.37075 2.7098.4589.3465 1.1547.5657 2.0873.6604.6039.0741 1.424.077 2.4632.006 7.7628-1.0751 15.4545-2.4848 23.0781-4.2291" fill="#d3a76e"/><path d="m35.7051 63.0875c.2073-2.2596.0888-4.1136-1.0362-6.1037-.0385-.0622-.0681-.1037-.1036-.1659-.5093-1.1875-1.2228-2.3011-2.0666-3.2932-.8852-1.4097-2.1701-2.6358-3.8813-3.4828-1.0274-.5153-2.0725-.847-3.1176-1.0128-1.9274-.5509-3.9584-.6368-5.9716-.0149-3.2804 1.007-6.016 3.3969-7.3453 6.5688-3.03466 7.241.6158 15.5007 8.3934 17.5353 6.5519 1.7177 14.5071-2.9704 15.1347-10.0278z" fill="#efefef"/><path d="m25.0651 67.3464c.3552.3377.8852.0563.897-.4027.0208-2.0405 0-4.2558-1.1546-6.0416 0-.0799-.0237-.1895-.077-.2724-.1451-.2133-.5122-.3525-.7313-.1688-.0503.0414-.1036.0681-.1539.1095-.0267-.0266-.0592-.0444-.0888-.0622-1.4774-.8055-3.1886-.5449-4.7637-.2547-1.7438.3258-3.4521.7671-5.1367 1.2883-.5063.157-.4589.8944.0474 1.0247 2.9132.7285 6.2351 1.0987 8.9973-.1688.003 1.8628.7965 3.7049 2.1554 4.9695l.0118-.0208z" fill="#176096"/><path d="m170.409 148.2c-12.52-11.379-27.033-10.5-40.947-12.492-.099-.015-.275-.062-.534-.144-1.012.038-5.873-.021-7.107-.186-2.158-.373-3.778-.646-4.858-.822-1.347-.215-2.818-.382-4.41-.503-1.029.038-2.096.109-3.199.209-.188.02-.352-.012-.487-.1-.119-.071-.199-.174-.242-.309-1.274-.035-2.855-.056-4.746-.076-11.1466-.124-23.9539-.006-29.5927.349-9.3148.585-17.6474 1.931-24.9979 4.038-6.3262 1.813-12.7381 2.757-18.9063 5.992-5.6133 2.945-23.02758 7.141-21.15049 24.315.71896 6.589 5.21769 10.738 8.33409 11.441 3.3376.752 6.6767 1.504 10.0142 2.257 3.3376.752 2.2966.297 9.4268 1.613 7.1302 1.317 6.8881 1.299 10.3038 1.851 18.521 1.549 17.8535 1.811 26.7863 1.811 9.6667 0 20.8436-.088 24.6941-.262 9.2331-.417 11.1491.4 28.7121.4 0 0 4.022-.4 8.447-.4 4.692 0 5.094.524 10.591-.648 4.424-.524 7.202-.93 10.079-1.077 3.44-.176 5.636-.732 8.623-1.675 1.43-.447 2.659-.955 3.68-1.534 1.3-.723 2.768-1.622 3.73-2.704 1.101-1.216 1.998-2.697 2.685-4.431.742-1.875 1.829-3.82 1.904-5.831.029-.767.009-1.542-.058-2.321.338-.811.492-2.037.454-3.676-.023-.956-.084-1.77-.185-2.44-.128-.82-.352-1.651-.671-2.503-.254-.673-.592-1.408-1.012-2.21-1.623-3.101-2.959-5.746-5.362-7.932zm-11.44-17.18c-.113.056-.225.133-.337.229.009-.032.023-.064.032-.099.107-.05.209-.097.304-.13m-114.5603 6.289c-.0783.3-.17.594-.2708.876.1053-.044.2106-.088.3159-.129-.0136-.236-.0286-.485-.0467-.744z" fill="#deefff"/><path d="m98.459 140.125c-.0018-.138.0008-.268.0079-.392.0091-.132.0695-.566.1805-1.299.2755-1.817.9926-3.158 2.1526-4.027-4.3001-.631-7.6734-1.107-10.1189-1.429-.0838 1.276-.0772 2.371.0212 3.293.1343 1.269 1.3449 2.349 3.6347 3.242l4.1242.615m46.9918 4.194c.139-.379.356-.753.654-1.12.437-.537.889-.975 1.359-1.312-4.004-.645-8.345-1.364-13.025-2.159-8.119-1.38-15.957-2.649-23.515-3.805.126.193.243.4.351.62.715 1.457.935 3.321.652 5.594l31.263 4.669c.486.097.871.079 1.161-.055-.009-.039-.018-.08-.026-.125-.025-.143-.033-.251-.025-.326.019-.126.074-.217.168-.269.101-.053.206-.047.315.024.039.027.076.063.105.11.005-.021.013-.043.021-.066.215-.654.324-1.019.328-1.092.008-.071.078-.299.218-.681z" fill="#f6514b"/><path d="m158.495 143.608c-.25-.04-.501-.076-.757-.114.054.083.104.168.151.255.033.056.063.112.09.164.765 1.401 1.116 2.537 1.054 3.403-.013.162-.012.314 0 .463.031-.23.06-.525.075-.884.017-.259.022-.453.013-.583-.012-.201-.036-.389-.071-.565-.098-.568-.245-1.144-.438-1.722-.058-.16-.094-.281-.11-.37-.003-.016-.008-.032-.01-.048m6.925 6.667s.015.004.023.006l.349.059c.032.007.061.014.09.02l.091.015c2.882.439 4.558.188 5.025-.756.392-.788.812-2.053 1.263-3.803-1.666-.319-3.967-.712-6.902-1.172-.035.257-.073.513-.111.773-.08.03-.184.043-.311.038-.021.001-.049.001-.076.001-.271-.014-.645-.057-1.122-.131-.527-.079-.896-.13-1.113-.153-.197-.018-.479-.037-.847-.054-.389-.02-.673-.04-.853-.054l-.102-.008c-.024-.118-.058-.251-.094-.397-.004-.01-.007-.023-.013-.036-.028-.144-.067-.305-.111-.486-.019-.074-.038-.152-.057-.226-.301-.042-.608-.089-.92-.133-.153-.023-.309-.047-.468-.071.041.058.079.118.115.185.169.313.309.735.425 1.265.143.636.188 1.168.139 1.593-.023.22-.035.351-.036.394-.004.044-.001.121.004.232.007.102.011.179.003.239-.002.06-.027.182-.072.364l-.112.41c-.067.222-.124.404-.173.539.125.157.275.298.448.421l4.733.803.79.131z" fill="#f95b56"/><path d="m143.184 94.7322 23.104 3.2716c5.029.7623 7.919 1.2057 8.673 1.3307.948.1603 1.772.3106 2.477.4546-.158-1.1153-.525-1.9557-1.103-2.5156-1.265-1.2272-2.319-1.9029-3.166-2.0341-24.648-4.0873-47.799-7.4734-69.456-10.1646-.354-.054-.883.0495-1.589.3076-.675.2468-1.375.5884-2.1 1.0219-.7616.4494-1.3855.9091-1.8761 1.3722-.121.1153-.2314.224-.3324.3318.8379.0529 2.1155.1155 3.8315.1938 2.801.1273 5.316.3621 7.545.6989 5.522.934 11.071 1.871 16.656 2.8132 11.163 1.883 16.941 2.8576 17.33 2.9166z" fill="#f3e9e9"/><path d="m140.644 97.2354c9.296 1.59 17.179 2.8606 23.642 3.8096 6.464.95 10.835 1.67 13.106 2.166.165-1.336.177-2.473.044-3.4155-.704-.144-1.528-.2972-2.476-.4547-.755-.125-3.645-.5683-8.673-1.3306l-23.105-3.2717c-.392-.0597-6.167-1.0307-17.33-2.9166-5.582-.9415-11.134-1.8792-16.656-2.8132-2.229-.3368-4.747-.5723-7.545-.6989-1.7159-.0783-2.9935-.1409-3.8314-.1938-.3422.3875-.5388.7385-.5857 1.0477l-.2137 1.4169c2.763.3073 8.4008 1.0972 16.9118 2.366 8.513 1.2724 17.416 2.7018 26.715 4.2924z" fill="#e5d9d9"/><path d="m165.504 122.597 2.265.391c.173.031.311.068.417.108-.027.052-.039.104-.03.158.007.05.036.109.082.174.026.034.062.088.113.154.066.098.101.225.106.375 0 .092-.012.226-.037.4-.54 3.335-1.126 7.12-1.757 11.355-.282 1.9-.718 4.876-1.313 8.926 2.934.463 5.236.853 6.903 1.173.091-.342.182-.699.272-1.077.022-.096.044-.191.067-.29.042-.118.086-.266.129-.442.26-1.05.478-2.234.661-3.554.117-.866.245-2.068.391-3.601.032-.368.041-.655.026-.857-.024-.316-.107-.579-.251-.789-.074-.112-.191-.239-.349-.389-.203-.19-.328-.31-.376-.364-.1-.123-.176-.214-.229-.278-.079-.091-.157-.164-.233-.215.445-2.266 1.121-6.402 2.019-12.416.025-.149.048-.303.069-.456.016-.097.032-.194.043-.295.026-.165.051-.327.074-.492.026-.153.048-.303.069-.457.932-6.177 1.753-11.129 2.465-14.855.123-.627.217-1.221.288-1.78-2.272-.493-6.639-1.216-13.106-2.166-6.463-.95-14.346-2.2203-23.642-3.8103-9.295-1.5899-18.202-3.02-26.714-4.2924-8.513-1.2723-14.1519-2.0593-16.9119-2.366l-2.5298 16.6807-.0673.451-.1209.789-.0673.451-3.4158 22.524c-.0601.526-.1056 1.027-.1422 1.504 2.4456.322 5.8188.798 10.1192 1.429.147-.11.301-.211.46-.306 1.361-.799 3.165-1.026 5.42-.684 1.934.294 3.351 1.129 4.249 2.509 7.557 1.159 15.397 2.429 23.515 3.805 4.68.795 9.02 1.515 13.025 2.16.357-.253.725-.449 1.099-.591.02-.008.037-.013.057-.021.012-.003.022-.006.03-.011.012 0 .022-.004.029-.008.013-.003.026-.007.036-.013.013-.003.026-.007.037-.013.006-.002.014-.006.017-.008.624-.183 1.494-.257 2.612-.216.012.003.022-.001.028-.002l.43.026c.184.008.376.022.57.039.008.002.016-.002.024 0 .143.015.293.028.444.044.017.004.039.003.057.004.119.013.241.025.363.038 2.103.238 3.581 1.017 4.435 2.336.253.037.506.077.757.113-.015-.119-.012-.228.013-.32.242.004.457.142.648.414.159.025.315.049.468.072.312.044.619.09.92.132-.131-.502-.283-.982-.464-1.438-.199-.525-.524-1.02-.97-1.492-.444-.465-1.089-.931-1.934-1.39-.843-.457-1.411-.74-1.705-.853-.023-.006-.048-.018-.07-.029-.655-.276-1.331-.437-2.022-.481l2.486-16.356s.008-.01.012-.015c.009-.013.03-.048.063-.101.025-.04.049-.068.072-.087.026-.019.086-.045.178-.072.077-.028.126-.06.148-.1.01-.019.017-.036.019-.054.148-.021.319-.024.519-.008 1.36.118 2.517.238 3.471.357 1.237.158 2.958.426 5.159.805z" fill="#de423c"/><path d="m167.77 122.985-2.266-.39c-2.201-.38-3.921-.648-5.159-.805-.956-.123-2.11-.242-3.47-.358-.201-.015-.375-.013-.52.009-.004.017-.009.037-.019.053-.02.038-.071.072-.148.1-.091.028-.152.054-.178.072-.022.019-.044.048-.071.087-.031.054-.051.086-.063.101-.005.006-.009.011-.013.016l-2.485 16.356c.69.043 1.367.202 2.022.481.024.012.047.02.069.028.294.114.863.397 1.705.853.845.46 1.491.923 1.935 1.391.446.471.767.969.969 1.491.179.456.333.936.464 1.439.02.074.038.152.058.227.043.18.082.342.11.485.003.013.009.027.013.037.04.143.071.275.095.396l.101.009c.179.016.462.033.853.053.368.018.651.034.847.055.217.022.587.071 1.113.153.477.073.851.116 1.122.13.028 0 .051.003.077-.001.126.005.231-.01.31-.038.038-.259.077-.519.111-.773.595-4.051 1.031-7.026 1.313-8.927.631-4.234 1.217-8.019 1.757-11.354.028-.174.04-.305.037-.4-.005-.15-.04-.274-.105-.375-.051-.069-.088-.121-.114-.154-.049-.066-.075-.124-.082-.174-.01-.051 0-.104.03-.158-.103-.042-.244-.078-.417-.108z" fill="#3e3e3e"/><path d="m137.809 115.946c9.295 1.59 17.175 2.86 23.641 3.81 6.258.918 10.555 1.627 12.887 2.128l.067-.451.045-.3c.02-.167.046-.331.074-.492-2.332-.501-6.629-1.211-12.887-2.128-6.466-.95-14.346-2.22-23.642-3.81-9.295-1.59-18.202-3.02-26.714-4.292-8.513-1.273-14.1519-2.06-16.9119-2.366l-.1209.789-.0673.45c2.763.308 8.3981 1.097 16.9111 2.366 8.513 1.273 17.419 2.703 26.715 4.293z" fill="#f6514b"/><path d="m174.675 122.428c.12-.732.235-1.467.353-2.205.032-.218.068-.429.101-.638-.378.346-.768.716-1.166 1.106-.82.808-1.577 1.609-2.275 2.402-.238 1.856-.564 4.46-.977 7.812l-.162 1.338c-.025.165-.024.29.008.376.043.117.16.22.353.307.525.222 1.072.333 1.645.331.047-.005.093-.006.132-.004.012-.039.03-.075.046-.108.015-.051.031-.106.043-.16l.129-.626c.177-.834.361-1.779.555-2.832.423-2.365.828-4.732 1.215-7.099z" fill="#a4ced4"/><path d="m175.398 114.255-.189-.053c-.258-.059-.672-.155-1.245-.287-.194-.041-.321-.061-.378-.062-.173-.016-.347.011-.515.076-.06.023-.109.051-.145.089-.003.002-.008.007-.012.015l-.003.012c-.047.321-.095.648-.141.982-.322 2.242-.656 4.723-1.002 7.444-.027.195-.05.403-.077.623.698-.794 1.456-1.598 2.275-2.402.398-.39.787-.758 1.166-1.106.42-2.735.599-4.383.543-4.947-.012-.107-.025-.198-.046-.279-.034-.008-.071-.023-.115-.042-.05-.036-.088-.057-.115-.069z" fill="#dcf6f9"/><path d="m174.105 113.024c-.101-.023-.185-.043-.253-.049-.038-.009-.068-.01-.093-.009-.042-.004-.137.001-.289.012-.261.022-.467.085-.621.183-.228.131-.36.32-.398.564l-.01.068c-.151.364-.291.881-.419 1.54-.171.878-.336 1.831-.491 2.859-.078.512-.152 1.047-.226 1.606-.141 1.022-.315 2.478-.529 4.371l-.017.112-.894 7.715c-.029.274-.041.485-.039.634.011.232.057.425.145.576.083.141.205.258.366.356.114.06.27.123.467.193l1.047.36c.164.056.3.09.405.109.012.002.023.005.038.005.166.02.312-.001.433-.068.144-.079.236-.216.276-.415.043-.2.001-.347-.126-.434-.045-.029-.11-.05-.194-.057-.041-.003-.085-.001-.131.003-.574.002-1.124-.109-1.646-.33-.19-.086-.307-.189-.353-.307-.029-.086-.03-.211-.007-.376l.161-1.338c.413-3.352.738-5.953.978-7.812.026-.22.052-.427.076-.623.347-2.721.681-5.204 1.002-7.444.047-.336.095-.664.144-.982l.003-.011s.009-.013.012-.016c.036-.037.085-.065.146-.088.168-.068.338-.093.514-.077.057.002.184.021.378.063.573.132.987.228 1.245.287l.189.053c.027.012.068.034.115.069.044.019.081.031.115.042l.012.002c.106.016.198-.027.278-.125.07-.078.116-.183.135-.319.026-.168-.004-.303-.085-.401-.051-.069-.158-.121-.318-.152-.324-.075-.839-.193-1.545-.344z" fill="#b33a35"/><path d="m158.281 143.674.09-.549c-.028-.132-.055-.239-.083-.327-.088-.28-.237-.573-.45-.878-.13-.189-.335-.449-.62-.786-.327-.383-.579-.664-.755-.839-.297-.297-.591-.529-.881-.699-.199-.116-.435-.228-.712-.332-.16-.061-.412-.147-.752-.256-.293-.091-.504-.155-.631-.185-.066-.015-.133-.03-.194-.044l-.268 1.773c.119.012.241.025.363.038 2.232.255 3.766 1.099 4.595 2.54.109.186.207.37.298.544z" fill="#b33a35"/><path d="m158.571 144.198c-.041-.14-.085-.373-.138-.699-.02-.139-.043-.26-.064-.368l-.09.549c.138.26.26.511.366.752l.006.001c-.03-.068-.058-.147-.081-.232z" fill="#b33a35"/><path d="m168.066 122.029-1.202-.216c-2.192-.392-3.838-.668-4.941-.827-1.837-.265-3.497-.428-4.975-.491-.368-.018-.652-.001-.857.055-.017.006-.033.008-.048.011-.305-.013-.559.032-.761.138-.02.011-.042.024-.062.035-.025.079-.05.162-.073.248-.036.132-.087.364-.159.689-.671 3.244-1.238 6.433-1.709 9.564-.431 2.903-.778 5.755-1.037 8.561-.024.247-.088.409-.199.481-.089.053-.191.06-.303.016-.089-.036-.161-.092-.217-.169-.02.114-.035.22-.054.317.011.002.021.001.028-.003l.43.026c.183.009.375.025.569.04.009.002.015 0 .025-.001.065.009.13.015.2.019l.005.001c.06.008.12.012.176.016l.063.008c.017.004.039.003.057.004l.268-1.773c.064.015.127.03.194.045.127.029.335.092.631.185.34.109.592.191.751.255.277.107.514.216.713.332.29.171.583.406.881.7.175.178.428.455.754.838.286.334.49.598.621.786.21.305.361.599.449.878.029.089.056.196.084.327.023.109.043.233.064.369.05.325.097.558.137.699.024.084.052.161.081.232.077.167.175.284.298.361.035.02.068.034.102.045.021.133.103.243.243.333l.424.064c.087-.019.186-.024.291-.018.087.005.217.025.389.059.671.139 1.14.232 1.406.281.529.101 1.003.173 1.42.227.373.049.935.109 1.681.177.338.041.647.088.924.14.106-.049.191-.1.256-.158.135-.124.247-.333.342-.622.115-.358.229-.798.343-1.32.102-.48.201-.99.295-1.529l2.546-17.677c.033-.304.05-.562.054-.777-.001-.01-.007-.023-.013-.037.003-.039.006-.081.007-.123.001-.113-.001-.22-.014-.324.001-.005.003-.011-.001-.021 0 0 .001-.006.002-.012.002-.005-.003-.013-.002-.015-.03-.242-.096-.458-.2-.653-.117-.219-.27-.388-.459-.508-.178-.114-.485-.209-.92-.291" fill="#b33a35"/><path d="m161.607 124.857c-.306.234-.686.506-1.138.814-1.07.716-1.906 1.279-2.507 1.693-1.446.996-2.65 1.925-3.608 2.79-.321 2.172-.567 4.34-.739 6.498l-.082.542c-.055.109-.081.219-.077.336 0 .04.006.078.011.109.006.002.009.002.012.003.855.017 1.653.137 2.398.357.821.245 1.529.599 2.122 1.065.36.278.707.623 1.045 1.031.026.033.053.064.079.097.005.001.008.002.011.003l.706-4.242-.004-.01 1.774-11.083m7.28-.693s.001-.028.001-.043c-.256.078-1.142.395-2.66.954-1.516.559-2.992 1.465-4.435 2.718l-1.913 12.614c.002.031.004.062.003.092-.004.084-.015.198-.041.335.152.227.279.457.374.693.115.267.219.544.312.827.028.08.053.156.074.234l.009.029c.007.036.015.068.019.102l.084.468s.003.016.001.021c.002.034.014.138.034.316.011.127.026.234.041.314.016.114.05.204.103.265.014.018.029.034.045.044.037.039.087.071.148.098.062.023.16.046.295.068l2.583.36c.379.051.661.067.852.047.031-.002.062-.007.094-.012.232.011.407-.019.525-.083.235-.123.372-.372.413-.746.004-.033.006-.066.009-.096.185-.643.336-1.391.458-2.25.13-1.107.228-1.941.291-2.494.161-1.334.426-2.998.796-4.989.608-3.249.917-4.906.927-4.974.16-.963.281-1.779.365-2.446.107-.886.171-1.707.189-2.461z" fill="#a4ced4"/><path d="m161.662 122.069c-.083-.037-.232-.078-.449-.116-.796-.128-1.869-.272-3.22-.427-.269-.035-.47-.051-.603-.054-.122-.001-.311.014-.56.039-.15.014-.263.04-.342.079l-.006-.001c-.098-.01-.198.015-.3.074-.088.053-.162.121-.222.211-.029.045-.056.097-.082.155-.019.032-.03.054-.039.064-.004.005-.008.01-.012.016l-.034.224c-.008.037-.017.075-.024.116l-.789 3.997c-.235 1.241-.443 2.476-.627 3.711.961-.864 2.162-1.794 3.608-2.79.6-.41 1.437-.976 2.507-1.693.453-.31.832-.579 1.139-.813l.392-2.431c-.015-.028-.028-.052-.04-.076-.02-.035-.04-.067-.055-.095-.057-.095-.097-.147-.114-.154-.037-.012-.076-.024-.126-.035m7.21 1.703c-.021-.145-.066-.265-.135-.363-.076-.109-.188-.205-.331-.284-.104-.051-.246-.108-.425-.167-.641-.203-1.378-.364-2.21-.482-.518-.08-1.273-.162-2.265-.251-.399-.037-.651-.001-.754.113-.105.113-.199.454-.282 1.026l-.672 4.426c1.44-1.253 2.92-2.158 4.435-2.718 1.518-.558 2.404-.875 2.66-.953 0-.147-.004-.26-.017-.349z" fill="#dcf6f9"/><path d="m130.648 120.55c-.061-.343-.18-.632-.359-.863-.227-.283-.562-.507-1.006-.67-.305-.116-.724-.219-1.258-.305-.575-.099-1.174-.198-1.797-.295-.991-.156-2.042-.303-3.151-.449-1.289-.169-2.944-.367-4.964-.595-.086-.008-.163-.016-.226-.022-.015-.003-.028-.009-.044-.01-.054-.015-.125-.025-.21-.027-.091 0-.164-.001-.212-.003-.08-.009-.222-.03-.424-.064-.179-.032-.322-.047-.425-.046-.239.006-.466.078-.681.215-.197.128-.356.293-.48.499-.104.174-.185.381-.249.619-.037.144-.082.365-.129.662l-.68 4.33c-.089.556-.161 1.03-.215 1.423l-.016.106c-.034.227-.06.422-.083.587-.096.786-.15 1.496-.162 2.13-.007.27.01.487.05.655.062.234.17.414.329.545.053.046.112.084.166.111.008.02.018.041.032.063.042.067.104.13.18.181.151.099.385.183.701.25 1.768.408 3.72.772 5.854 1.096 1.617.244 3.59.501 5.916.762.287.036.502.055.642.057.238.009.447-.01.631-.056.433-.095.782-.338 1.045-.725.207-.306.314-.638.322-.99l.013-.055c.266-1.554.472-2.909.611-4.068.143-1.175.242-2.279.295-3.316.005-.13.007-.257.012-.384.003-.133.01-.266.015-.396.014-.39-.001-.707-.04-.948m-1.63-.796c.436.183.729.433.872.75.057.122.097.269.114.431.008.087.009.2.006.346-.001.03-.003.063-.004.097-.005.072-.005.142-.003.212-.103 2.653-.424 5.264-.965 7.837-.031.163-.04.295-.025.387-.005.023-.014.046-.021.065-.091.287-.188.485-.298.59-.143.135-.351.215-.625.24-.192.014-.441-.001-.748-.044-3.854-.547-5.869-.831-6.051-.861-2.299-.353-4.3-.725-6.005-1.118-.141-.033-.261-.054-.36-.062-.039-.054-.095-.131-.173-.228-.085-.133-.131-.293-.14-.478-.006-.117.008-.284.037-.503.147-1.076.297-2.136.447-3.183.03-.222.063-.446.096-.667.216-1.508.439-2.98.666-4.424.043-.283.095-.506.159-.668.098-.236.235-.412.414-.526.249-.156.568-.202.95-.144l.233.035c.056.01.106.016.154.018l10.085 1.604c.555.091.951.185 1.188.282m-20.13-4.189c-.577-.1-1.183-.196-1.813-.293-.169-.03-.341-.054-.506-.077-.856-.133-1.746-.262-2.679-.382-1.304-.17-2.977-.369-5.0203-.599-.0865-.008-.1609-.016-.2252-.028-.0151 0-.0296-.003-.0441-.007-.0578-.013-.1279-.026-.2152-.031-.0921.003-.162.002-.2125-.003-.0815-.004-.2237-.021-.4283-.059-.1814-.033-.3236-.05-.4295-.054-.2397.009-.4703.084-.6859.226-.1971.129-.3611.298-.4848.504-.1041.175-.1859.384-.2506.625-.0356.142-.0805.363-.1282.663l-.6805 4.342c-.0975.608-.1723 1.118-.2303 1.529l-.0302.197c-.0211.145-.0382.272-.052.384-.0957.786-.1489 1.493-.1602 2.124-.0053.261.0123.476.0529.644.0626.23.1704.411.3284.545.0541.043.1096.08.1663.111.0083.017.0187.038.0314.062.0423.068.1053.125.1826.173.1502.102.3837.186.7011.25 1.7679.407 3.7194.772 5.8541 1.096 1.616.244 3.59.501 5.914.768.288.033.504.049.643.051.238.012.45-.006.63-.05.439-.094.794-.336 1.061-.716.162-.24.265-.49.311-.754.011-.074.02-.151.022-.227.004-.017.008-.035.01-.056.143-.768.269-1.489.379-2.165.116-.674.212-1.301.29-1.878.197-1.438.32-2.779.371-4.02.004-.026.004-.057.002-.085.019-.388.01-.704-.029-.945-.054-.348-.17-.637-.355-.868-.223-.286-.561-.513-1.011-.678-.305-.116-.729-.22-1.268-.314m.99 1.048c.437.19.73.44.871.756.055.131.091.277.106.436.006.068.008.151.01.249-.002.06-.007.123-.012.195-.005.145-.011.287-.013.43-.143 2.579-.496 5.113-1.054 7.603-.033.169-.045.3-.029.392-.004.018-.01.041-.02.06-.091.287-.194.482-.302.583-.147.136-.358.216-.63.232-.192.014-.441-.001-.748-.044-3.857-.544-5.875-.832-6.055-.858-2.299-.35-4.304-.721-6.0111-1.114-.1418-.033-.2596-.051-.3619-.056-.0379-.061-.0933-.137-.1715-.235-.0837-.126-.1327-.283-.1412-.471-.0036-.117.007-.282.0368-.504.1481-1.066.2965-2.12.4444-3.159.012-.052.0182-.105.0244-.159.2454-1.687.4915-3.337.7441-4.949.0444-.285.1-.513.1596-.679.0994-.233.2403-.408.4196-.525.2521-.156.5746-.206.9632-.147.0521.012.1286.023.2313.041.0578.013.109.016.1529.011l10.1944 1.62c.559.095.958.19 1.198.285m1.838-20.2757c-.295-.0435-.593-.0877-.897-.1303-.309-.0439-.623-.0856-.945-.1265-.174-.0277-.342-.0512-.508-.0712-.866-.1172-1.763-.2294-2.696-.3345-1.301-.1473-2.966-.3115-4.992-.4979-.087-.0077-.161-.0157-.227-.0217-.011-.0027-.029-.0038-.044-.0071-.052-.012-.119-.0245-.203-.0315-.095.0053-.169.0067-.215.0083-.078-.0029-.217-.0226-.419-.057-.183-.0269-.326-.0415-.427-.0404-.2402.0117-.4621.0886-.669.233-.1943.1289-.3554.2991-.482.5046-.1012.1748-.183.3846-.2448.6264-.0349.1382-.0814.3531-.1271.6443l-.6762 4.2972c-.0955.6-.172 1.104-.2293 1.511-.0333.224-.0621.415-.0808.576-.0149.13-.032.257-.0462.385-.0053.023-.0049.048-.0051.075-.0661.592-.1058 1.134-.1146 1.635-.0023.262.016.473.0543.637.0633.228.1682.408.3176.54.0576.041.113.078.1662.111.0083.018.0187.038.0314.062.0437.062.1067.12.181.167.1445.1.3693.183.6774.248 1.7472.402 3.6782.765 5.7952 1.085 1.626.243 3.614.5 5.964.776.291.034.509.051.655.054.242.01.455-.005.642-.047.449-.101.81-.344 1.079-.73.165-.24.269-.493.312-.76.015-.079.024-.156.029-.231.004-.018.009-.038.01-.056.145-.777.274-1.507.382-2.189.077-.424.141-.824.201-1.203.038-.242.07-.475.1-.7.158-1.173.269-2.276.329-3.3163.017-.2857.032-.5626.046-.8367-.006-.0135-.005-.0287.002-.0454-.002-.0338-.003-.0677-.001-.1037.011-.3266 0-.5944-.035-.8006-.056-.3512-.178-.6415-.362-.8758-.233-.2853-.578-.5051-1.035-.6652-.312-.1116-.744-.2109-1.294-.2951m1.022 1.0401c.448.1826.748.4314.89.7536.062.1271.098.2727.119.433.001.0245.003.0554.004.0922-.001.0273-.002.0576-.002.085-.005.075-.004.1636-.007.2696-.017.2582-.03.5143-.041.7738-.153 2.4885-.498 4.9385-1.033 7.3545-.039.168-.048.3-.03.393-.003.014-.014.033-.02.059-.097.289-.2.484-.309.587-.148.14-.364.221-.643.242-.198.009-.453-.007-.773-.047-3.886-.548-5.92-.833-6.103-.86-2.284-.35-4.266-.715-5.9445-1.099-.1389-.032-.2595-.05-.3619-.056-.0349-.059-.0881-.133-.1612-.226-.0837-.126-.1327-.283-.1412-.471-.0043-.114.0057-.276.0341-.492.1244-.91.2525-1.81.3802-2.695.0069-.057.0167-.112.0258-.165.0142-.088.0291-.179.0411-.271.2476-1.723.4975-3.4028.7545-5.0474.0445-.2854.0994-.5105.1612-.6731.0972-.2366.2351-.4121.4079-.5278.251-.1617.568-.2166.954-.1611.052.0027.128.0142.231.0288.055.0127.104.0147.15.0102l10.203 1.4362c.569.0823.975.1728 1.219.2655m21.005 3.7757c-.062-.234-.17-.414-.329-.545-.053-.046-.111-.084-.166-.112-.007-.02-.018-.04-.031-.062-.043-.068-.104-.13-.181-.182-.151-.098-.384-.183-.701-.2496-1.768-.4073-3.719-.7715-5.854-1.0956-1.616-.2444-3.59-.5009-5.915-.7624-.288-.0357-.503-.0548-.642-.0565-.239-.0092-.448.0098-.632.0557-.433.0953-.782.3381-1.044.7255-.208.3058-.315.6378-.323.9895l-.013.055c-.266 1.5544-.472 2.9084-.611 4.0684-.154 1.239-.252 2.405-.299 3.494-.004.069-.004.136-.006.2-.004.133-.011.269-.014.402-.014.39.002.708.041.948.061.344.18.633.358.863.228.284.563.508 1.007.671.305.116.723.219 1.258.305.575.099 1.173.197 1.797.295.85.132 1.741.261 2.679.383.158.024.315.045.475.066 1.289.17 2.944.368 4.963.595.087.008.164.017.227.022.014.003.028.01.043.01.055.016.125.026.211.027.091 0 .164.001.212.003.08.01.222.03.424.065.179.032.321.046.425.046.239-.006.466-.079.68-.215.198-.129.357-.293.481-.499.104-.174.185-.381.249-.619.037-.145.081-.366.129-.663l.68-4.33c.064-.394.117-.747.162-1.06.027-.167.05-.323.071-.468.034-.227.061-.422.084-.587.096-.786.149-1.496.162-2.13.007-.27-.01-.487-.051-.655m-1.483-.308c.047.011.09.021.133.031.142.032.262.054.361.061.039.055.095.132.173.229.085.133.13.293.14.477.006.118-.008.285-.037.504-.08.57-.158 1.134-.238 1.695-.067.5-.138.995-.208 1.485-.033.233-.065.467-.1.696-.216 1.496-.435 2.96-.659 4.396-.044.283-.095.506-.16.667-.067.159-.152.291-.256.396-.048.05-.101.095-.158.131-.249.156-.567.201-.95.144l-.233-.036c-.055-.009-.106-.015-.154-.017l-10.085-1.604c-.555-.091-.951-.186-1.187-.283-.142-.06-.268-.122-.381-.197-.23-.154-.395-.338-.495-.553-.057-.123-.096-.269-.113-.432-.007-.105-.009-.252-.001-.445.003-.014.003-.029 0-.039.004-.14.012-.278.017-.42.015-.369.035-.736.057-1.106.144-2.188.441-4.348.89-6.485.032-.1633.041-.2953.026-.3872.005-.0232.013-.0457.021-.0653.09-.287.188-.484.297-.5898.043-.0419.095-.0789.15-.1087.129-.0709.288-.1135.475-.1313.192-.0137.442.0011.749.0444 3.853.5464 5.869.8309 6.051.8607 2.24.3422 4.195.7042 5.871 1.0872m17.159 21.357c-.043-.067-.105-.127-.182-.179-.15-.098-.384-.183-.701-.249-1.768-.408-3.719-.772-5.854-1.096-1.616-.245-3.589-.501-5.914-.768-.288-.033-.503-.049-.643-.051-.239-.009-.447.007-.63.05-.435.101-.783.344-1.046.731-.208.306-.315.638-.323.99l-.012.055c-.267 1.554-.472 2.908-.612 4.068-.122.993-.212 1.942-.27 2.84-.023.43-.04.85-.052 1.256-.005.196-.006.373 0 .53.006.108.016.208.023.298.006.038.013.076.016.113.06.349.18.636.359.863.227.284.563.508 1.007.671.305.116.723.219 1.257.311.574.099 1.174.194 1.798.289.991.155 2.041.306 3.152.455 1.29.169 2.945.365 4.965.592.086.008.163.02.225.028.014.003.029.006.044.007.054.015.124.029.209.033.091-.001.164.001.212.003.082.004.22.023.426.058.18.036.32.053.423.052.239-.006.466-.078.679-.221.197-.129.357-.293.481-.499.104-.174.185-.381.249-.619.035-.142.08-.36.13-.656l.68-4.33c.098-.609.173-1.122.232-1.535.033-.221.062-.412.08-.57l.002-.011c.097-.789.151-1.502.162-2.133.006-.264-.011-.481-.051-.649-.062-.234-.169-.417-.327-.551-.054-.043-.11-.08-.167-.111-.008-.017-.018-.038-.031-.062m-.282.733c.083.129.132.287.14.477.007.118-.007.285-.037.504-.076.556-.153 1.105-.233 1.65-.07.514-.141 1.022-.215 1.526-.019.121-.037.239-.055.357-.229 1.617-.464 3.194-.707 4.735-.044.285-.096.511-.161.673-.062.15-.139.276-.236.375-.053.061-.113.111-.178.151-.249.156-.567.202-.95.144-.053-.009-.129-.02-.231-.041-.056-.01-.107-.012-.153-.011l-10.085-1.604c-.555-.091-.951-.185-1.187-.282-.15-.065-.283-.136-.401-.218-.222-.148-.378-.328-.474-.533-.002-.006-.006-.013-.009-.017-.031-.074-.056-.153-.073-.236-.015-.056-.025-.116-.032-.178-.007-.105-.009-.252-.001-.446.012-.329.023-.659.041-.987.011-.18.02-.364.033-.55.146-2.197.445-4.369.894-6.515.033-.169.041-.298.024-.394.004-.017.015-.039.02-.059.091-.29.188-.487.297-.59.04-.04.087-.074.137-.106.13-.073.292-.118.488-.134.192-.014.442.001.749.044 3.853.547 5.869.831 6.051.861 2.248.344 4.212.708 5.895 1.09.037.009.075.017.112.026.142.033.263.051.362.056.038.06.094.137.172.234m-.857-20.817c-.167-.029-.334-.055-.502-.082-.841-.142-1.724-.281-2.643-.417-1.295-.185-2.961-.411-5.001-.67-.09-.009-.166-.02-.231-.029-.012-.003-.029-.007-.044-.01-.055-.013-.128-.027-.215-.031-.091 0-.163-.005-.211-.009-.081-.004-.223-.024-.43-.066-.183-.036-.328-.057-.434-.06-.242.005-.471.074-.689.213-.199.125-.359.289-.485.492-.106.17-.191.379-.256.62-.035.142-.079.36-.129.656l-.681 4.33c-.098.612-.173 1.122-.232 1.535-.034.227-.06.422-.082.581l-.013.086c-.092.756-.14 1.44-.15 2.05-.003.264.018.48.059.644.062.234.175.419.333.553.056.046.115.081.172.112.008.018.018.041.031.063.045.071.104.13.182.178.153.103.393.186.712.253 1.792.41 3.758.777 5.898 1.103 1.614.244 3.572.5 5.876.762.285.032.497.051.638.05.232.01.44-.006.619-.044.43-.096.775-.333 1.033-.716.161-.234.258-.483.297-.745.014-.073.021-.145.02-.221.004-.017.009-.038.01-.056.135-.758.253-1.468.358-2.133.102-.669.192-1.285.262-1.854.113-.9.198-1.759.259-2.577.011-.192.021-.385.028-.572.02-.298.032-.59.041-.878.014-.381.004-.691-.04-.924-.056-.342-.173-.628-.349-.854-.221-.283-.55-.511-.988-.682-.302-.118-.716-.226-1.245-.326-.567-.104-1.161-.21-1.783-.317m1.597 1.06c.547.099.938.201 1.165.299.434.192.721.441.862.753.057.126.094.269.109.428.01.103.01.249.002.439-.004.139-.012.278-.017.42-.013.308-.03.618-.049.927-.145 2.216-.447 4.402-.908 6.558-.032.166-.043.295-.031.389-.004.017-.01.04-.02.059-.087.285-.186.476-.293.573-.142.138-.346.219-.613.237-.189.014-.432.001-.737-.042-3.826-.546-5.832-.832-6.015-.859-2.307-.354-4.322-.733-6.049-1.131-.145-.034-.266-.052-.368-.057-.038-.061-.096-.138-.177-.236-.083-.129-.132-.287-.14-.478-.007-.114.007-.281.037-.503.135-.999.273-1.982.411-2.95l.033-.221c.185-1.335.38-2.644.579-3.93.06-.392.119-.78.182-1.162.045-.285.096-.508.162-.673.099-.233.239-.405.418-.519.253-.149.577-.193.965-.131.053.012.131.027.236.048.056.01.107.012.153.011l10.106 1.752m14.411 1.196c-.278-.064-.586-.129-.923-.198-.223-.051-.558-.119-1.006-.21-.657-.139-1.169-.23-1.539-.279-.296-.037-.577-.06-.843-.069-.155-.054-.361-.086-.627-.096-.291-.006-.525.004-.698.028-.261.047-.475.132-.644.255-.192.147-.343.35-.445.607-.016.03-.029.063-.043.097-.042.1-.064.183-.066.244-.001.006-.002.011-.004.017-.025.123-.048.263-.071.429-.087.379-.18.888-.284 1.522l-.731 4.526c-.125.767-.209 1.342-.255 1.727-.081.643-.126 1.221-.136 1.74 0 .21.01.38.033.507.031.181.094.333.192.45.12.152.331.28.633.384.204.068.39.105.559.113 1.046.275 2.193.505 3.439.695 1.015.154 2.252.302 3.707.439.178.05.369.064.571.034.022-.001.042-.008.061-.013.12-.006.23-.032.327-.071.061-.026.12-.058.177-.093.035-.02.067-.04.102-.059.373-.24.666-.603.882-1.089.137-.304.272-.758.403-1.364.297-1.386.516-2.667.656-3.842.16-1.368.224-2.664.191-3.885-.012-.503-.075-.889-.187-1.159-.168-.395-.449-.682-.848-.866-.119-.054-.225-.082-.317-.082-.168-.063-.375-.117-.62-.164-.372-.067-.756-.131-1.159-.194-.159-.024-.321-.049-.486-.072m2.645 1.679c.01.036.019.075.029.113.036.158.063.347.076.567.016.275.024.557.02.852-.109 1.386-.256 2.766-.446 4.133-.038.232-.079.476-.123.731l-.214 1.219c-.1.553-.178.971-.235 1.247-.067.329-.142.589-.236.784-.135.283-.315.482-.54.598-.099.05-.244.096-.43.136-.102.022-.189.041-.263.058-2.314-.314-3.528-.478-3.64-.494-1.486-.23-2.775-.493-3.873-.795-.049-.011-.095-.022-.139-.032-.103-.094-.156-.143-.163-.15-.01-.024-.023-.048-.035-.075-.05-.125-.073-.279-.069-.467.002-.116.019-.283.049-.501.139-.977.282-1.941.422-2.893.016-.094.028-.189.044-.283.059-.416.118-.829.177-1.242l.112-.739c.01-.071.02-.142.031-.216l.103-.723c.113-.73.225-1.454.336-2.172.016-.109.033-.212.052-.305.033-.078.083-.203.145-.381.065-.174.121-.31.167-.406.013-.031.024-.062.035-.087l.007-.004c.155-.077.35-.127.578-.154.172-.018.335-.023.495-.017l6.369 1.041c.361.062.615.135.763.218.151.087.269.196.361.327.016.035.029.071.041.11z" fill="#b33a35"/><path d="m130.004 121.597c-.226-.076-.471-.136-.736-.176-1.805-.272-3.415-.043-4.824.69-.58.297-1.058.65-1.43 1.061-.354.388-.569.765-.644 1.132.045-.304.106-.832.181-1.583.075-.748.115-1.147.124-1.2.022-.147.062-.348.116-.607-.075-.018-.156-.036-.248-.048-1.107-.167-2.212-.095-3.323.219-1.03.293-1.988.773-2.873 1.441-.431.324-.823.676-1.176 1.058-.033.221-.066.445-.096.667-.15 1.047-.3 2.107-.447 3.183-.029.218-.04.386-.037.503.009.185.058.346.14.477.078.098.134.171.173.229.099.008.219.026.361.062 1.707.393 3.708.766 6.004 1.118.179.026 2.197.314 6.051.861.31.044.559.058.748.044.274-.025.482-.105.625-.24.11-.106.207-.303.298-.59.005-.023.013-.045.021-.065-.018-.096-.009-.225.025-.387.541-2.573.862-5.185.965-7.837m-20.721-3.424c-1.195-.18-2.482.114-3.864.887-.504.283-.962.605-1.381.956-.359.304-.592.546-.704.731l.48-3.023c-.046.026-.088.05-.127.075-.568-.22-1.295-.241-2.177-.06-1.05.218-2.1493.678-3.3033 1.376-.9026.544-1.6951 1.154-2.3771 1.826-.0062.054-.0153.107-.0244.159-.1479 1.039-.2963 2.093-.4444 3.159-.0291.219-.0404.387-.0368.504.0085.188.0575.345.1412.471.0782.098.1365.175.1715.235.0994.005.2201.023.3619.056 1.71.394 3.712.764 6.0114 1.113.179.03 2.2.315 6.055.859.309.044.559.059.748.044.272-.016.482-.096.63-.233.109-.102.211-.295.301-.582.009-.023.016-.042.02-.06-.012-.094-.003-.226.03-.392.561-2.489.91-5.024 1.054-7.603-.062-.023-.132-.052-.208-.078-.614-.233-1.069-.372-1.367-.416m-3.643-16.299c.034-.543.158-1.545.369-3.0022-.06.0349-.117.0706-.165.1082-.562-.0472-1.247.042-2.05.2716-1.032.3017-2.031.7634-3.004 1.3864-.8282.529-1.5382 1.124-2.1303 1.789-.0113.01-.0227.019-.034.029-.1277.885-.2559 1.785-.3802 2.695-.0278.213-.0384.379-.0342.492.0114.189.0576.346.1413.472.073.093.1256.169.1612.226.0995.004.2201.023.3619.056 1.6793.384 3.6603.749 5.9443 1.098.183.027 2.216.315 6.103.861.32.043.576.056.773.046.279-.024.493-.102.644-.241.109-.103.212-.299.308-.588.006-.026.014-.045.02-.059-.017-.096-.006-.224.03-.393.537-2.412.883-4.865 1.033-7.3541-.204-.0409-.413-.0737-.632-.1028-2.035-.2769-3.734-.1502-5.1.3829-1.057.408-1.844 1.02-2.36 1.83m19.91 1.905c.043-.545.072-.855.084-.935.003-.011.077-.36.228-1.044-.188.17-.296.361-.328.567-.057-.031-.141-.103-.256-.211-.157-.1-.408-.176-.746-.23-1.519-.231-3.127.188-4.823 1.254-.584.365-1.123.775-1.617 1.228-.032.23-.067.463-.1.696-.07.493-.142.988-.214 1.487-.024.369-.042.737-.057 1.105-.005.142-.013.281-.017.42.003.013.003.025 0 .04-.005.191-.005.34.001.445.017.165.054.308.114.432.097.214.261.398.494.552.111.072.239.138.381.198.237.097.629.191 1.187.283l10.085 1.604c.045.004.095.009.155.017l.232.035c.383.058.702.009.95-.144.058-.038.111-.081.159-.131.106-.103.191-.233.255-.395.062-.163.117-.388.16-.667.224-1.436.446-2.903.659-4.396.035-.23.067-.46.1-.696.071-.493.139-.986.208-1.486.026-.365.048-.735.062-1.104-2.007-.136-3.695.039-5.061.532-1.034.371-1.833.906-2.397 1.606.026-.165.059-.52.104-1.059m16.694 20.717c.027-.277.054-.542.085-.794-.103.052-.205.108-.304.168-.107-.104-.297-.178-.568-.22-2.102-.319-4.046.196-5.83 1.541-.521.395-.982.837-1.384 1.327l-.055.356c-.074.504-.145 1.012-.219 1.519-.012.183-.021.367-.032.55-.015.329-.03.658-.042.988-.004.191-.005.34.001.445.007.062.017.123.032.178.018.083.042.162.074.236.002.004.006.011.008.017.095.208.253.385.474.533.116.082.252.153.401.218.237.097.63.19 1.187.282l10.085 1.604c.046-.001.097.004.153.011.102.021.179.032.231.041.383.058.702.01.951-.143.065-.043.125-.093.178-.151.096-.1.174-.226.236-.376.061-.162.116-.387.161-.673.242-1.541.478-3.121.707-4.735.018-.118.036-.236.054-.356.074-.505.145-1.012.215-1.527.014-.179.025-.36.037-.543-.459-.231-.888-.378-1.295-.438-1.678-.256-3.076-.032-4.198.669-.416.261-.757.563-1.021.914-.226.295-.355.564-.391.8-.087-.282-.065-1.094.071-2.437m1.326-19.723c-.543-.089-1.024-.093-1.447-.016-.829.15-1.781.577-2.853 1.275-.724.473-1.456 1.124-2.2 1.946-.138.968-.276 1.951-.412 2.95-.029.219-.04.387-.037.504.011.191.057.348.14.477.081.098.14.176.177.236.1.005.224.021.368.057 1.727.398 3.743.774 6.05 1.132.183.027 2.188.315 6.015.859.304.042.551.056.737.041.269-.017.473-.095.612-.237.108-.097.207-.287.293-.572.009-.023.016-.042.02-.06-.012-.091-.004-.22.032-.388.46-2.156.762-4.342.907-6.558-.315-.085-.67-.158-1.063-.224-1.819-.294-3.332-.167-4.547.373-.402.182-.784.414-1.145.699-.322.286-.537.465-.642.538.052-.332.17-1.213.349-2.638-.03.036-.053.07-.073.105-.403-.196-.605-.298-.608-.298-.202-.09-.431-.155-.68-.197m13.167 9.188c-.029.219-.046.385-.048.501-.007.187.018.342.069.467.012.027.025.051.035.075.004.007.059.059.163.15.043.01.09.021.139.032 1.097.302 2.387.565 3.872.795.112.016 1.327.18 3.641.494.073-.017.16-.036.263-.058.186-.043.33-.086.43-.136.225-.116.405-.315.54-.598.091-.195.169-.455.236-.784.057-.276.135-.691.235-1.247l.214-1.219c.043-.255.085-.501.123-.73.19-1.371.34-2.747.446-4.134.004-.295-.004-.577-.02-.852-.013-.22-.037-.408-.077-.567-2.557.204-4.653.769-6.291 1.69-1.633.926-2.817 2.003-3.548 3.231-.14.952-.279 1.914-.422 2.893z" fill="#a4ced4"/><path d="m129.892 120.508c-.143-.317-.435-.57-.872-.75-.237-.097-.63-.191-1.188-.283l-10.084-1.604c-.045-.004-.096-.009-.155-.017l-.232-.035c-.383-.058-.702-.01-.951.144-.178.114-.316.289-.414.526-.061.163-.116.388-.159.667-.227 1.445-.447 2.918-.666 4.425.353-.382.745-.734 1.176-1.058.885-.668 1.842-1.145 2.873-1.441 1.109-.315 2.216-.386 3.323-.219.091.015.173.031.248.048-.054.259-.094.46-.116.607-.009.053-.049.452-.124 1.2-.075.751-.136 1.279-.181 1.583.075-.367.29-.744.644-1.132.374-.408.849-.761 1.43-1.061 1.412-.732 3.019-.962 4.824-.689.262.039.507.098.736.175-.002-.07-.001-.14.004-.212.001-.033.003-.067.004-.097.003-.146.002-.262-.006-.346-.017-.165-.054-.308-.114-.431zm-24.475-1.436c1.379-.773 2.665-1.068 3.864-.887.3.045.756.184 1.366.416.077.027.147.052.208.078.002-.143.008-.288.014-.43.007-.071.009-.134.011-.195.002-.1 0-.183-.01-.249-.014-.162-.051-.308-.106-.436-.141-.316-.434-.566-.871-.756-.237-.097-.636-.192-1.199-.285l-10.1941-1.62c-.0432.002-.0973-.001-.1529-.011-.0997-.017-.1785-.032-.2313-.041-.3892-.056-.7082-.008-.9632.147-.1822.116-.3201.292-.4196.525-.0631.168-.1151.394-.1596.68-.2525 1.612-.5015 3.261-.7441 4.949.682-.672 1.4746-1.282 2.3771-1.827 1.1511-.698 2.2537-1.157 3.3027-1.376.886-.18 1.61-.162 2.177.06.039-.022.082-.048.127-.074l-.48 3.022c.112-.181.348-.425.705-.73.416-.353.877-.673 1.381-.956m8.231-20.9519c-.143-.3194-.442-.5711-.89-.7536-.244-.0928-.65-.1832-1.219-.2655l-10.203-1.4362c-.043.0022-.094-.0004-.15-.0102-.105-.0182-.182-.0268-.231-.0288-.383-.0549-.703-.0006-.954.1611-.1758.115-.3108.2911-.408.5278-.0618.1626-.1139.3883-.1612.6731-.2534 1.6424-.5069 3.3242-.7545 5.0472-.012.092-.0269.183-.0411.271-.012.052-.0182.106-.0258.165.0114-.01.0227-.019.0341-.029.5891-.666 1.2998-1.264 2.1305-1.789.972-.62 1.972-1.0849 3.004-1.3866.803-.2296 1.488-.3216 2.049-.2716.052-.037.106-.0733.165-.1082-.21 1.4574-.334 2.4584-.368 3.0024.518-.81 1.305-1.421 2.359-1.831 1.366-.5322 3.068-.6583 5.101-.382.216.0284.427.062.631.1028.011-.2596.028-.5149.041-.7738.001-.1067.003-.1946.008-.2696 0-.0274.001-.0577.001-.0851-.001-.0367-.003-.0676-.003-.0921-.017-.1625-.058-.3059-.12-.433m18.78 2.7328c-.043-.01-.086-.02-.133-.031-1.676-.38-3.631-.742-5.871-1.0873-.179-.0262-2.197-.3143-6.051-.8607-.31-.0439-.559-.0588-.748-.0444-.187.0179-.346.0605-.475.1313-.056.0299-.104.0675-.15.1087-.11.1058-.207.3029-.298.5899-.005.0231-.013.0456-.021.0652.018.0955.009.2246-.025.3873-.45 2.137-.747 4.299-.891 6.485.072-.498.143-.991.215-1.487.032-.233.067-.463.099-.696.494-.453 1.034-.862 1.618-1.228 1.696-1.066 3.303-1.485 4.822-1.254.339.051.587.126.746.23.115.109.199.18.256.211.032-.206.14-.397.329-.567-.149.685-.226 1.033-.229 1.045-.012.079-.041.389-.084.934-.042.539-.078.894-.104 1.058.564-.699 1.363-1.234 2.397-1.606 1.365-.49 3.051-.668 5.061-.531-.015.371-.036.738-.062 1.104.08-.56.161-1.124.238-1.695.029-.218.04-.386.037-.503-.009-.185-.058-.346-.14-.477-.078-.098-.134-.172-.173-.229-.099-.008-.219-.026-.361-.062m9.893 22.872c-.03.252-.058.519-.085.794-.135 1.34-.158 2.155-.071 2.437.036-.236.168-.504.391-.8.263-.348.605-.653 1.022-.914 1.12-.699 2.522-.921 4.197-.669.407.06.839.208 1.295.438-.011.18-.023.364-.037.543.08-.545.158-1.094.234-1.65.029-.219.04-.387.037-.503-.011-.192-.057-.349-.14-.478-.078-.097-.137-.174-.172-.234-.099-.005-.22-.023-.362-.056-.034-.008-.072-.017-.112-.026-1.68-.381-3.647-.746-5.895-1.09-.18-.026-2.198-.314-6.051-.861-.31-.044-.56-.058-.749-.044-.196.016-.358.061-.488.134-.05.032-.097.066-.137.106-.109.103-.206.3-.297.59-.006.023-.013.043-.02.059.017.096.008.228-.024.394-.449 2.146-.748 4.318-.894 6.515.074-.507.145-1.015.219-1.519l.054-.357c.402-.489.864-.931 1.385-1.327 1.784-1.344 3.728-1.859 5.83-1.54.271.041.461.116.568.22.099-.06.197-.114.304-.168m8.74-20.243c-.23-.099-.618-.197-1.165-.299l-10.106-1.752c-.046.002-.097-.001-.152-.011-.102-.023-.181-.035-.236-.048-.388-.062-.712-.018-.966.131-.181.114-.319.289-.418.519-.063.166-.117.391-.161.673-.061.383-.123.771-.183 1.162-.198 1.287-.39 2.596-.579 3.93l-.032.221c.741-.823 1.475-1.471 2.2-1.947 1.073-.701 2.023-1.125 2.853-1.275.42-.077.903-.069 1.447.016.249.043.478.108.68.197.003 0 .205.102.608.298.02-.035.046-.068.073-.105-.179 1.425-.296 2.303-.349 2.639.105-.074.32-.253.642-.538.36-.283.744-.518 1.145-.7 1.212-.54 2.728-.666 4.547-.372.39.065.744.141 1.063.223.02-.309.034-.62.05-.927.004-.139.012-.278.017-.42.007-.187.007-.334-.002-.439-.015-.159-.05-.298-.109-.428-.141-.313-.428-.565-.862-.753m15.915 2.707c-.008-.042-.018-.078-.028-.114-.013-.039-.026-.076-.042-.11-.089-.13-.21-.237-.36-.327-.149-.083-.403-.157-.764-.218l-6.369-1.041c-.157-.006-.323.002-.494.017-.229.027-.421.08-.578.154l-.007.004c-.012.025-.025.055-.035.086-.047.096-.1.233-.167.407-.063.178-.11.304-.146.381-.018.093-.035.193-.052.305-.111.718-.223 1.442-.336 2.172l-.102.723c-.011.074-.022.145-.032.215l-.112.74c-.059.413-.117.826-.177 1.242-.012.095-.028.189-.043.283.73-1.228 1.914-2.306 3.547-3.231 1.638-.921 3.737-1.486 6.292-1.69z" fill="#dcf6f9"/><path d="m123.694 119.07c.043-.243.042-.435-.006-.571-.036-.094-.099-.166-.187-.22-.09-.057-.182-.069-.271-.041-.133.052-.226.216-.277.488l-.29 1.805c-.396 2.457-.662 4.194-.801 5.207-.2 1.502-.343 2.853-.431 4.055-.018.209.003.357.052.448.042.068.105.113.189.132.081.019.148.004.198-.052.03-.027.13-.065.301-.117l1.52-11.134m-19.66-.25c.198-1.442.313-2.525.345-3.255.018-.277-.048-.444-.196-.503-.053-.018-.114-.017-.18.002-.057.023-.111.059-.156.11-.059.072-.11.185-.149.341-.054.222-.106.487-.156.796-.456 2.879-.808 5.702-1.052 8.471l-.193 2.227c-.017.164.005.278.071.339.054.055.123.074.21.055.079-.013.146-.052.198-.119.069-.076.209-.184.424-.323l.837-8.141m3.004-22.3259c.039-.2349.011-.3907-.077-.469-.063-.0572-.147-.0794-.251-.0609-.097.0205-.177.066-.241.1428-.081.0909-.148.2614-.2.5117-.803 4.2553-1.294 7.9433-1.464 11.0623-.015.237.016.409.09.511.067.092.146.132.234.121.086-.016.161-.078.226-.185.083-.14.144-.312.182-.516.03-.13.054-.314.073-.553.138-1.523.344-3.28.627-5.272.072-.487.338-2.251.801-5.2929zm17.349 12.3729c-.131 1.018-.21 1.796-.232 2.327l.531.079c.212-1.331.47-3.137.774-5.411.375-2.843.725-5.064 1.051-6.6648l-.627-.0957c-.26 1.3115-.51 2.7535-.747 4.3265-.184 1.211-.435 3.024-.75 5.439zm18.548 11.978c-.081.034-.158.065-.227.088-.059.017-.113.054-.157.111-.047.059-.089.177-.124.355l-.355 2.07c-.353 2.046-.607 3.585-.764 4.612-.26 1.711-.455 3.258-.58 4.634-.021.196.009.331.097.4.062.048.136.056.225.028.082-.027.145-.077.19-.152.041-.057.067-.134.085-.224.007-.029.005.084.001.342-.006.261.043.208.152-.157.11-.362.195-.848.25-1.458.061-.607.111-1.184.152-1.732.063-.812.201-1.838.421-3.082.321-1.792.551-3.132.685-4.018.134-.884.177-1.417.135-1.603-.041-.18-.104-.253-.187-.22m2.439-18.473c-.003-.168-.032-.294-.082-.369-.039-.055-.088-.097-.149-.12-.063-.03-.127-.029-.185-.006-.093.049-.148.167-.17.354l-1.349 10.845c-.021.181-.015.314.016.394.027.064.069.119.125.157.058.04.122.052.184.033.117-.031.192-.157.224-.375.54-3.338.985-6.695 1.335-10.068.036-.409.05-.693.049-.848z" fill="#b33a35"/><path d="m159.011 147.674c.257-2.004-.192-3.769-1.353-5.289-1.163-1.512-2.706-2.382-4.621-2.613s-3.656.194-5.224 1.275c-1.588 1.06-2.53 2.556-2.823 4.488-.267 1.929.155 3.669 1.262 5.223 1.099 1.551 2.693 2.504 4.778 2.856 2.081.36 3.864-.04 5.354-1.205 1.497-1.152 2.373-2.733 2.63-4.737z" fill="#363b3c"/><path d="m154.37 145.176c-.446-.667-1.075-1.062-1.887-1.185-.812-.114-1.544.062-2.197.527-.652.466-1.041 1.108-1.166 1.929-.125.819.051 1.551.526 2.197.478.638 1.132 1.026 1.967 1.173.827.141 1.557-.026 2.193-.501.639-.484 1.007-1.13 1.102-1.938.097-.806-.084-1.54-.538-2.199z" fill="#586061"/><path d="m148.745 144.541c-.041.045-.053.097-.038.162.025.064.063.1.113.108.047.017.114.008.197-.022l.146-.118.169-.181c.064-.077.102-.138.119-.186.031-.081.013-.146-.045-.199-.048-.032-.1-.042-.162-.025-.054.009-.104.04-.155.092l-.213.302c-.02.022-.063.046-.126.071m.179-1.556c-.082-.031-.178-.01-.291.058-.47.279-.764.619-.887 1.021-.036.114-.022.199.04.25.061.051.152.041.276-.034.123-.075.251-.192.386-.353.154-.181.273-.315.356-.396.113-.121.182-.208.207-.264.054-.128.024-.223-.085-.281m-2.159.328c-.08.134-.12.253-.118.354.005.068.035.124.089.167.052.051.106.067.159.049.046-.011.096-.045.158-.104l1.376-1.448c.073-.093.118-.153.131-.186.037-.08.027-.155-.03-.224-.062-.05-.16-.048-.298.008-.274.12-.535.288-.782.497-.238.228-.467.523-.685.884z" fill="#2c3132"/><path d="m155.247 149.98c-.155.181-.274.315-.357.397-.113.12-.182.208-.206.263-.054.128-.024.223.084.281.081.031.177.011.291-.058.469-.278.764-.619.887-1.02.035-.114.021-.2-.04-.25-.061-.051-.152-.042-.276.034-.124.075-.251.192-.386.353m-.289-.61c.041-.045.053-.097.037-.162-.025-.063-.062-.099-.112-.108-.048-.017-.114-.008-.197.022l-.146.119-.17.18c-.063.077-.102.138-.119.186-.031.081-.012.146.046.199.047.033.1.042.161.025.054-.008.104-.04.156-.092l.212-.301c.021-.023.063-.047.127-.072m1.974 1.229c.08-.134.119-.253.118-.354-.005-.068-.035-.123-.089-.166-.052-.052-.107-.068-.16-.049-.045.011-.095.045-.158.103l-1.375 1.448c-.073.093-.118.153-.131.186-.037.08-.027.156.03.224.062.051.16.049.298-.008.274-.119.535-.288.781-.496.239-.229.468-.523.686-.885z" fill="#2c3132"/><path d="m152.126 146.015c.023.02.062.035.121.043l.03-.021c.047-.019.074-.044.087-.077.021-.023.025-.055.014-.1-.013-.037-.035-.06-.065-.073l-.083-.038-.003.012c-.041-.007-.076.001-.105.021l-.044.033-.02.047c-.01.068.012.119.065.152m.156-.836-.015.012c-.049-.008-.097-.001-.143.016-.066.033-.101.08-.111.136.009.054.027.095.057.123l.056.046.05.012.103-.001.038.009.071-.045.062-.068c.049-.043.05-.098-.001-.168-.042-.058-.1-.084-.168-.078m.096-.286c.077.012.131.012.168-.001.098-.029.139-.102.125-.224.002-.127-.062-.209-.193-.249l-.153.002-.223.031-.088.065-.055.106c-.017.048-.016.097.004.141.02.047.077.076.18.09l.239.037z" fill="#858f91"/><path d="m158.627 148.074-.009.065c-.045.249-.062.44-.048.568.018.224.099.389.242.495.075.057.167.096.275.115.119-.713.145-1.435.08-2.17-.096-1.052-.376-2.034-.836-2.945-.466-.915-1.068-1.66-1.811-2.243-.782-.616-1.651-.996-2.608-1.14-2.232-.337-4.142-.037-5.73.905-1.7 1.004-2.713 2.584-3.041 4.734-.002.009 0 .213-.002.618.001.049-.001.097-.002.14.07.001.142-.004.211-.015.221-.035.395-.129.524-.276.103-.119.177-.279.22-.48.019-.096.04-.28.066-.551.055-.567.172-1.092.355-1.58.009-.013.018-.026.024-.04.09-.165.199-.332.326-.501.018-.038.035-.083.05-.126.074-.095.156-.186.244-.276.315-.351.694-.647 1.137-.89.013-.003.024-.01.041-.018.786-.517 1.718-.845 2.795-.983 1.104-.136 2.182-.028 3.24.325 1.101.37 2.001.946 2.704 1.73.585.659 1.011 1.443 1.274 2.351.207.703.301 1.431.285 2.19z" fill="#ec5c57"/><path d="m160.236 144.034c-.142-.481-.391-1.053-.752-1.722-.249-.453-.471-.825-.669-1.117-.272-.392-.555-.725-.846-.997-.497-.459-1.148-.862-1.955-1.206-.866-.367-1.747-.619-2.642-.755-.279-.043-.562-.072-.841-.09-1.234-.092-2.395.036-3.476.391-1.117.367-2.081.953-2.887 1.752-.519.508-.929 1.057-1.233 1.648-.12.18-.227.378-.324.599-.182.449-.317.994-.407 1.638-.027.182-.048.354-.061.516-.016.161-.025.305-.025.436.002.19.014.366.035.538-.052.055-.088.133-.102.23-.009.08.001.195.027.348.01.048.021.093.027.131.023.1.043.174.059.224.046.129.104.234.177.315.087.099.221.179.398.244.133.043.264.067.393.066.001-.045.002-.091.001-.14.002-.402.001-.609.003-.618.324-2.15 1.34-3.73 3.04-4.734 1.589-.942 3.498-1.243 5.73-.905.957.144 1.826.524 2.608 1.14.743.583 1.345 1.328 1.811 2.243.461.911.74 1.893.836 2.945.065.735.039 1.457-.08 2.17.067.016.138.026.217.026.181.008.329-.025.437-.098.107-.067.202-.191.282-.38.022-.053.046-.12.074-.202.031-.078.061-.169.091-.275.012-.024.024-.052.031-.081.106-.302.186-.582.236-.839.065-.323.087-.617.065-.878-.004-.089-.007-.178-.008-.27.028-.277.017-.6-.03-.964.001-.006 0-.015-.004-.025-.015-.397-.094-.833-.242-1.303z" fill="#f96560"/><path d="m112.496 140.626c.258-2.005-.192-3.769-1.353-5.29-1.163-1.511-2.706-2.382-4.621-2.613-1.915-.23-3.655.195-5.223 1.275-1.5886 1.061-2.5304 2.557-2.8232 4.489-.2676 1.928.1542 3.668 1.2619 5.222 1.0993 1.552 2.6923 2.504 4.7783 2.856 2.08.361 3.863-.039 5.354-1.205 1.496-1.151 2.372-2.733 2.63-4.737z" fill="#363b3c"/><path d="m107.856 138.123c-.446-.667-1.075-1.061-1.887-1.185-.812-.113-1.544.062-2.197.528-.652.465-1.041 1.107-1.166 1.928-.125.819.051 1.551.527 2.198.477.637 1.131 1.025 1.966 1.172.827.142 1.557-.025 2.193-.501.639-.483 1.007-1.13 1.102-1.937.097-.807-.084-1.541-.538-2.2z" fill="#586061"/><path d="m102.232 137.492c-.041.045-.053.097-.038.162.025.064.063.1.113.108.047.017.113.008.196-.022l.147-.118.169-.181c.064-.077.102-.138.119-.186.031-.081.013-.146-.045-.199-.048-.032-.1-.042-.162-.025-.054.009-.104.04-.155.092l-.213.301c-.021.023-.063.047-.126.072m.178-1.556c-.081-.031-.177-.01-.29.058-.47.279-.764.619-.887 1.021-.036.114-.022.199.039.25.062.051.152.041.276-.034s.252-.192.386-.353c.155-.181.274-.315.357-.397.113-.12.182-.208.207-.263.054-.128.024-.223-.085-.281m-2.156.326c-.08.134-.119.253-.118.354.006.068.035.124.09.167.052.051.106.067.159.048.045-.01.096-.045.158-.103l1.376-1.448c.073-.093.117-.153.131-.186.036-.08.026-.156-.031-.224-.061-.051-.159-.049-.297.008-.275.12-.536.288-.782.496-.239.229-.468.524-.685.885z" fill="#2c3132"/><path d="m108.732 142.93c-.154.181-.273.315-.356.396-.113.121-.182.208-.207.264-.054.127-.024.223.085.281.081.031.177.011.29-.058.47-.279.765-.619.887-1.021.036-.113.022-.199-.039-.25-.062-.05-.152-.041-.276.034s-.252.192-.386.353m-.29-.609c.041-.045.053-.097.038-.162-.025-.064-.063-.1-.113-.108-.047-.017-.114-.008-.197.022l-.146.118-.169.181c-.064.076-.102.138-.119.186-.031.081-.013.146.045.199.048.032.1.041.162.025.054-.009.104-.04.155-.092l.213-.302c.02-.022.062-.046.126-.071m1.976 1.226c.079-.134.119-.253.118-.354-.006-.068-.036-.124-.09-.167-.052-.051-.106-.067-.159-.049-.045.011-.096.045-.158.104l-1.376 1.448c-.073.093-.117.153-.131.186-.037.08-.027.156.031.224.061.051.159.049.297-.008.274-.12.536-.288.782-.496.238-.229.468-.524.685-.885z" fill="#2c3132"/><path d="m105.612 138.965c.022.021.062.036.121.044l.029-.021c.047-.02.074-.044.088-.077.02-.023.025-.056.014-.101-.013-.036-.035-.06-.066-.073l-.082-.037-.003.011c-.041-.006-.076.001-.106.022l-.044.032-.02.048c-.009.068.013.118.066.152m.156-.836-.015.012c-.05-.009-.097-.001-.144.016-.066.033-.101.08-.11.136.008.053.026.094.057.122l.056.047.049.011h.104l.037.008.072-.044.061-.068c.05-.044.05-.098-.001-.168-.041-.058-.099-.084-.168-.078m.097-.289c.077.012.131.012.168-.001.098-.029.139-.102.125-.224.002-.128-.062-.209-.193-.249l-.152.002-.224.03-.088.066-.055.106c-.017.048-.016.097.004.141.02.047.077.076.18.09l.239.037z" fill="#858f91"/><path d="m112.112 141.024-.009.065c-.045.248-.061.44-.048.568.018.223.099.388.242.494.075.057.167.097.275.115.119-.713.145-1.435.08-2.17-.096-1.052-.376-2.034-.836-2.945-.466-.915-1.068-1.66-1.811-2.243-.782-.615-1.651-.996-2.608-1.14-2.232-.337-4.142-.037-5.73.905-1.6997 1.004-2.7128 2.585-3.0405 4.734-.002.009-.0003.213-.0022.618.0009.049-.0011.098-.0018.14.0699.001.1411-.004.2108-.015.2212-.035.3952-.129.5236-.276.1037-.119.1771-.279.2202-.479.0191-.097.0402-.281.0662-.552.0543-.567.1721-1.091.3547-1.58.009-.013.018-.026.024-.04.09-.165.199-.332.326-.501.018-.038.035-.083.05-.125.074-.096.156-.187.244-.276.315-.351.694-.648 1.137-.891.013-.003.024-.009.041-.018.786-.516 1.718-.844 2.795-.983 1.104-.136 2.182-.028 3.24.326 1.101.369 2.001.945 2.704 1.729.585.659 1.011 1.443 1.274 2.351.207.703.301 1.432.285 2.19z" fill="#ec5c57"/><path d="m113.724 136.982c-.142-.481-.391-1.054-.752-1.722-.249-.454-.471-.825-.669-1.117-.272-.392-.555-.726-.846-.997-.498-.459-1.148-.862-1.956-1.206-.866-.367-1.746-.619-2.641-.755-.28-.043-.563-.072-.842-.09-1.234-.093-2.394.036-3.475.391-1.118.367-2.081.953-2.8871 1.752-.5194.508-.9291 1.057-1.233 1.648-.1206.179-.2271.377-.3239.599-.1825.449-.3173.994-.4076 1.637-.0269.183-.0482.355-.0611.517-.0158.161-.0246.305-.0243.436.002.189.0132.366.0344.538-.0523.055-.0883.132-.1016.23-.0094.08.0007.195.0265.347.0103.048.0212.094.0277.132.0227.099.0421.174.0581.223.0464.13.1045.235.1773.315.0868.1.2208.179.3978.245.1333.042.2648.067.393.066.0013-.046.0027-.091.0018-.14.0012-.402.0002-.61.0022-.618.3248-2.151 1.3407-3.73 3.0408-4.734 1.588-.942 3.498-1.243 5.73-.905.957.144 1.826.524 2.607 1.14.744.583 1.346 1.328 1.812 2.243.46.911.74 1.893.836 2.945.065.734.039 1.457-.08 2.17.067.015.137.026.217.026.181.008.328-.025.436-.098.107-.067.203-.191.283-.38.021-.053.046-.12.074-.202.03-.079.06-.169.091-.275.012-.025.024-.052.031-.081.106-.302.186-.582.236-.839.065-.323.087-.617.065-.878-.004-.089-.008-.179-.008-.27.027-.277.016-.6-.031-.964.001-.006.001-.015-.003-.025-.016-.397-.095-.833-.243-1.303z" fill="#f96560"/><path d="m171.833 146.431c.075.044.171.091.289.149.09-.327.181-.669.27-1.026.002-.009.003-.015.005-.024-.166-.151-.358-.244-.576-.278-.097-.014-.181.031-.25.134-.052.079-.084.182-.103.302-.05.324.072.572.365.743zm.37-3.313c-.044.047-.082.157-.106.329-.032.218.055.409.265.57.08.064.19.138.329.222.075-.324.154-.681.239-1.073.002-.009.003-.014.005-.023-.021-.014-.043-.025-.066-.034-.033-.013-.127-.029-.279-.055-.189-.028-.315-.008-.385.058m.453-2.231c-.052.08-.09.217-.119.409-.033.221.052.436.255.638.114.114.228.189.34.231.1-.471.184-.903.253-1.296-.012-.002-.026-.008-.039-.018-.143-.078-.24-.122-.292-.131-.186-.028-.317.027-.401.164m.943-2.386c-.2-.031-.356-.015-.467.045-.124.063-.201.185-.228.368-.038.241.057.425.281.549.089.051.229.105.422.155.055-.371.099-.733.135-1.087-.055-.016-.101-.026-.139-.032z" fill="#877d7c"/><path d="m173.856 136.22c.001-.03.001-.057.001-.085-.014-.006-.025-.012-.038-.018-.133-.058-.284-.09-.454-.092-.294-.01-.536.05-.725.183-.155.105-.279.259-.37.47-.064.144-.124.34-.182.589-.122.569-.22 1.208-.296 1.919-.045.422-.14 1.032-.282 1.822.046-.029.05.005.018.107-.038.123-.074.322-.108.6-.038.269-.085.569-.147.902l-.53 2.881-.498 2.07c-.093.366-.139.642-.136.828.004.327.103.585.293.766.105.1.231.163.374.19.15.022.284-.002.397-.073.082-.052.15-.121.206-.218.007-.029.013-.055.019-.084.041-.216.149-.578.32-1.082.139-.406.274-.845.407-1.317-.119-.055-.214-.104-.289-.149-.293-.171-.415-.419-.365-.742.018-.121.051-.22.103-.303.07-.106.154-.15.25-.134.218.032.41.125.576.279.084-.34.181-.772.294-1.289-.139-.084-.249-.161-.33-.222-.21-.161-.3-.353-.265-.57.028-.174.063-.284.107-.329.067-.067.196-.086.385-.058.153.023.246.042.279.055.02.008.042.019.066.034.073-.346.14-.675.203-.987-.113-.041-.226-.116-.34-.23-.203-.206-.288-.417-.255-.638.028-.192.069-.329.118-.409.083-.136.215-.191.4-.164.053.009.15.053.293.132.014.006.025.012.039.018.082-.435.147-.823.198-1.152l.014-.101c-.192-.053-.332-.104-.421-.155-.224-.127-.316-.31-.282-.549.028-.186.105-.308.228-.368.114-.059.27-.075.467-.045.038.009.084.019.139.032.089-.821.129-1.589.119-2.301m-.687.774-.001.006-.006-.002z" fill="#999392"/><path d="m171.634 135.84c-.117.031-.235.107-.351.224-.187.164-.34.379-.461.64-.073.157-.129.324-.169.495-.006.029-.014.061-.022.095-.015.055-.025.11-.031.164-.022.147-.028.347-.023.601.004.236.007.407.015.516.006.135.025.249.053.338.03.135.087.261.174.372.083.102.186.183.309.242.061.029.129.051.198.07.051.003.105.006.165.008.133-.006.26-.041.381-.105.209-.125.384-.332.527-.619.067-.173.133-.393.191-.657.008-.074.021-.147.038-.22.086-.492.112-.882.081-1.17-.026-.192-.066-.347-.127-.468-.116-.249-.281-.418-.496-.507-.055-.025-.101-.036-.137-.038-.015-.004-.023-.006-.029-.007-.105-.021-.202-.01-.292.024z" fill="#ffd080"/><path d="m92.3123 130.909c-.2059-.111-.4392-.183-.7012-.21-.2223-.027-.4202-.014-.5935.037-.2134.067-.3712.183-.4662.344-.0607.105-.107.253-.1338.435-.094.567-.1252 1.337-.0899 2.308.0136.272.0375.472.0723.599.0668.226.175.391.3239.498.1102.078.2538.129.4285.151.091.015.2482.021.4707.02.2802.001.4774-.009.588-.026.2255-.04.3953-.128.5072-.27.0845-.103.1548-.275.2043-.517.1691-.866.1809-1.671.0376-2.412-.0343-.181-.0818-.332-.1395-.452-.1046-.207-.2698-.376-.4997-.503z" fill="#f9d239"/><path d="m93.6341 135.023c.0107-.125.0171-.246.0193-.361-.0495-.182-.1256-.328-.2278-.44-.1314-.131-.3431-.243-.6409-.339-.284-.09-.6737-.171-1.1743-.246-.1206-.019-.2448-.036-.3726-.05-.3654-.053-.6488-.067-.8515-.047-.0483-.002-.0973-.001-.1491 0-.4006-.007-.6743.07-.8205.228-.0614.068-.117.177-.1611.329-.1269.379-.2243.762-.2956 1.151-.1262.654-.1781 1.315-.1557 1.985.0135.457.0657.826.1501 1.107.0793.238.1876.403.3176.5.0839.059.1892.105.3136.133.0601.017.1389.032.2415.05l.1061.015 1.0419.134c.5308.076.8731.125 1.0285.151.3042.055.5186.077.6481.07.154-.007.2838-.041.3892-.102.0548 0 .1073-.003.1576-.009.0554-.043.1093-.091.1609-.143.075-.074.1234-.139.1475-.204.0033-.014.0073-.032.0084-.05.0127-.055.0171-.127.0149-.21l.0131-2.094c.0555-.584.0832-.956.0838-1.117.0035-.161.0095-.306.0137-.43m75.2922 12.183c-.292-.095-.547-.178-.765-.25-.149.024-.271.066-.364.124-.045.197-.106.463-.184.799-.109.474-.2.868-.259 1.177-.066.302-.151.764-.262 1.388-.008.05-.011.089-.012.119.075.139.221.243.437.314.152.053.39.105.708.154l.271.041c.715.162 1.34.278 1.876.347.118.018.222.027.314.024.291-.004.542-.101.76-.295.064-.055.123-.124.18-.202.232-.806.46-1.638.679-2.495-.004-.102-.013-.195-.028-.275-.086-.145-.22-.261-.408-.344-.145-.061-.35-.111-.612-.15-.695-.118-1.387-.25-2.081-.397-.08-.025-.162-.05-.247-.079z" fill="#b33a35"/><path d="m170.338 131.334c.002-.076-.002-.138-.018-.187-.023-.072-.067-.119-.13-.137-.069-.016-.137.015-.196.086-.035.044-.063.114-.084.206l-.073.289c-.137.584-.236 1.143-.296 1.681-.005.115-.009.184-.007.205l.085.358c.055.171.118.32.186.449.098.181.204.315.318.405.114.087.244.142.395.164.064-.028.114-.074.148-.139.033-.066.038-.129.017-.195-.015-.052-.046-.105-.092-.158-.056-.059-.101-.102-.13-.136-.11-.117-.186-.251-.234-.399-.017-.059-.036-.148-.057-.269-.021-.081-.036-.148-.045-.202-.004-.074.006-.157.028-.25.108-.628.168-1.22.184-1.78z" fill="#999392"/><path d="m170.785 123.363c-.087.072-.168.214-.246.431-.17.513-.314 1.114-.428 1.807-.017.075-.032.163-.046.263-.06.395-.131.94-.212 1.637-.192 1.626-.315 2.716-.363 3.269-.017.164-.023.285-.019.362.002.134.021.248.058.342.067.196.198.342.395.442.058.025.123.046.198.064.102.02.215.031.342.039.227.003.397-.034.513-.114.138-.093.267-.298.388-.611.226-.582.42-1.254.584-2.018.013-.097.036-.199.063-.302.082-.46.177-1.044.282-1.752.051-.393.102-.763.153-1.114.068-.533.134-1.02.195-1.467.019-.178.029-.31.029-.392 0-.146-.016-.272-.047-.377-.052-.143-.131-.265-.239-.366-.108-.098-.23-.165-.367-.206-.05-.018-.108-.034-.173-.043-.164-.026-.377-.029-.633-.015-.196.004-.336.045-.421.123z" fill="#f6514b"/><path d="m101.334 115.133c-1.133.149-2.0483.676-2.7411 1.576-.6928.897-.9681 1.916-.8171 3.05.1539 1.138.6779 2.053 1.572 2.746.9002.687 1.9182.959 3.0522.817 1.134-.148 2.049-.675 2.742-1.575.687-.892.959-1.905.811-3.042s-.672-2.055-1.572-2.754c-.894-.69-1.91-.963-3.044-.82z" fill="#efb207"/><path d="m124.667 111.811c-4.529 6.678-11.419 7.975-20.665 3.882l-3.585 7.419c9.796 6.225 19.827 4.602 30.095-4.866.006-.654-.057-1.258-.184-1.815-.554-2.408-2.44-3.948-5.658-4.617z" fill="#efb207"/><path d="m123.459 114.221c.237 1.043.802 1.854 1.7 2.435.882.571 1.853.752 2.904.545 1.051-.211 1.868-.752 2.457-1.626.595-.895.782-1.878.56-2.953-.24-1.069-.811-1.898-1.72-2.488-.933-.604-1.931-.79-2.994-.562-1.056.246-1.871.82-2.439 1.732-.557.895-.711 1.866-.468 2.914z" fill="#efb207"/><path d="m120.638 118.018c.287 1.265.971 2.245 2.049 2.947 1.068.693 2.241.912 3.514.657 1.27-.248 2.256-.903 2.963-1.96.723-1.081.948-2.269.681-3.563-.284-1.297-.98-2.301-2.081-3.015-1.125-.728-2.33-.953-3.621-.675-1.276.299-2.259.998-2.946 2.097-.672 1.081-.858 2.253-.562 3.512z" fill="#efb207"/><path d="m121.831 110.418c-.862.19-1.519.661-1.972 1.413-.45.74-.571 1.543-.358 2.411.201.853.678 1.519 1.421 2.002.74.479 1.533.633 2.38.459.862-.172 1.528-.619 1.999-1.351.467-.743.601-1.552.405-2.428-.207-.874-.69-1.558-1.45-2.05-.764-.494-1.573-.645-2.425-.459z" fill="#efb207"/><path d="m128.729 114.498c-.862.189-1.519.66-1.972 1.412-.45.741-.571 1.543-.358 2.411.201.853.678 1.519 1.421 2.002.74.48 1.534.634 2.38.459.862-.172 1.528-.619 1.999-1.35.468-.744.601-1.552.405-2.429-.207-.874-.689-1.558-1.45-2.049-.764-.495-1.572-.646-2.425-.459z" fill="#efb207"/><path d="m85.9872 170.245c-3.766 0-6.9161.071-9.4504.21-4.0235.219-7.6029.64-10.7382 1.262-1.6994.331-2.9725.71-3.8133 1.137-.5655.293-1.0007.619-1.2908.98-.2576.314-.3849.625-.3819.933 0 .083.0118.166.0266.249.1036.474.5359.956 1.2968 1.448 1.2197.806 2.931 1.422 5.1307 1.845 1.7083.311 3.7956.524 6.2706.634 1.7054.074 3.5291.109 5.4772.109 2.034 0 4.1656-.041 6.4068-.118 2.6172-.092 6.5815-.305 11.8988-.634 2.6024-.175 4.4739-.314 5.6189-.411 2.108-.193 3.962-.427 5.566-.696 1.469-.258 2.579-.545 3.331-.865 1.14-.504 1.756-1.075 1.842-1.721v-.16c-.006-.334-.175-.669-.51-1.013-.334-.364-.802-.681-1.412-.947-.891-.406-2.235-.747-4.041-1.019-2.887-.462-6.123-.785-9.711-.966-2.6349-.145-5.942-.228-9.9211-.248-.5566-.018-1.0895-.021-1.5957-.015z" fill="#000" fill-opacity=".15"/><path d="m80.2485 148.209-1.3027-5.532c-8.7516 8.307-19.1138 10.581-31.0896 6.826l1.5395 6.527c10.8271 3.116 21.1093.513 30.8528-7.818z" fill="#efb207"/><path d="m52.3304 152.185c-.3108-.888-.977-1.546-1.9925-1.978-1.0155-.436-1.8474-.581-2.4869-.436-.6454.143-1.2257.613-1.732 1.416-.5092.797-.6572 1.653-.4441 2.562.2132.912.8438 1.584 1.883 2.02 1.0332.429 1.9362.556 2.703.373.7698-.184 1.3856-.667 1.8445-1.448.453-.788.53-1.626.225-2.509z" fill="#efb207"/><path d="m96.281 159.643 3.893 2.393 8.82-8.206-1.46-4.395c-.805-.972-3.114.272-6.93 3.734-3.8463 3.48-5.2882 5.639-4.323 6.474z" fill="#106651"/><path d="m69.7801 153.913-1.2672 4.409 10.9485 5.586 4.0205-2.784c.7461-1.066-1.205-2.822-5.8532-5.266-4.6778-2.467-7.295-3.115-7.8545-1.945z" fill="#106651"/><path d="m101.263 111.139c-.453-.841-1.193-1.383-2.2146-1.623-1.0185-.234-2.0192-.097-2.9991.406-.98.503-1.6669 1.238-2.0666 2.203-.4085.978-.4026 1.896.0237 2.755.4293.879 1.1606 1.445 2.1939 1.703 1.0303.26 2.0517.127 3.0642-.391 1.0125-.522 1.7115-1.28 2.0995-2.269.39-.992.358-1.919-.104-2.778z" fill="#efb207"/><path d="m97.6307 143.005c-1.9332-1.721-3.8813-1.653-5.8442.198-2.6942 2.597-2.2501 5.589 1.3352 8.971 3.1294 2.792 7.2123 7.11 12.2453 12.956l.068.089c.05.057.104.11.154.166.912.948 1.708 1.665 2.392 2.141.675.471 1.599.217 2.765-.773 1.167-.989 2.612-2.274 4.326-3.859 1.702-1.581 2.51-2.86 2.422-3.832-.018-.228-.068-.459-.145-.696-.246-.737-.767-1.457-1.567-2.162-1.057-.944-2.309-1.013-3.754-.207-.55.308-1.104.616-1.658.93-5.163-5.917-9.412-10.558-12.7452-13.913v-.006z" fill="#efb207"/><path d="m101.843 117.18c-.746.358-1.637.684-2.6701.983-2.4307.699-5.1337 1.063-8.1121 1.102-4.1035.053-8.722-.628-13.8617-2.041-1.2464 3.066-2.2353 6.131-2.9695 9.199-1.0007 4.179-1.4774 8.121-1.43 11.831.0296 2.373.5744 4.523 1.6372 6.448.6899 1.261 1.581 2.393 2.6735 3.397.5092.328 1.0451.627 1.6017.894 1.504.72 3.1323 1.19 4.885 1.416 1.6402.216 3.3337.213 5.0834-.009 2.0281-.255 3.8814-.788 5.5601-1.605 1.8563-.892 3.3692-2.082 4.5505-3.569 1.279-1.599 2.223-3.628 2.833-6.08.462-1.842.773-4.14.936-6.904.029-.462.053-.918.074-1.365.062-1.481.083-2.887.065-4.226-.041-3.19-.326-6.35-.856-9.477z" fill="#ffc421"/><path d="m96.4845 107.395c-.8408-.222-1.9629-.352-3.3692-.391-2.8155-.089-5.1426.006-6.9811.282-2.5255.364-4.6956 1.104-6.5164 2.218-1.0214.619-1.9362 1.359-2.7415 2.212-.4797.483-.9149 1.004-1.3086 1.564-.5714.841-1.0599 1.851-1.4626 3.029-.1214.305-.228.631-.3197.975-.2843.959-.607 2.425-.9652 4.401l-1.0925 6.012c-.2428 1.329-.4352 2.526-.5803 3.589-.1865 1.347-.3019 2.482-.3434 3.4-.1095 2.597.1895 4.863.9 6.794.3701.98.8497 1.898 1.4448 2.757.3997.598.8586 1.164 1.3767 1.703.379.408.7757.787 1.1961 1.134.4441.373.9089.717 1.3945 1.031-1.0925-1.001-1.9837-2.136-2.6735-3.397-1.0628-1.928-1.6076-4.075-1.6372-6.448-.0474-3.707.4293-7.652 1.43-11.831.7342-3.065 1.7231-6.133 2.9665-9.199 5.1367 1.413 9.7583 2.094 13.8617 2.041 2.9784-.039 5.6815-.406 8.1121-1.102 1.0333-.299 1.9243-.625 2.6703-.983-.263-1.493-.58-2.979-.944-4.454-.199-.803-.394-1.448-.586-1.94-.279-.696-.6133-1.27-1.0041-1.721-.6809-.793-1.6254-1.35-2.8274-1.67z" fill="#efb207"/><path d="m66.6564 164.089-.0711.098c-.0414.068-.0859.139-.1243.207-.7461 1.247-1.2702 2.298-1.5781 3.16-.299.844.2843 1.682 1.7409 2.511 1.4507.827 3.3189 1.831 5.6015 3.006 2.2738 1.158 3.9258 1.526 4.9561 1.099.2457-.095.4855-.225.7165-.388-.077-.027-.154-.041-.231-.047-.4529-.095-1.051-.255-1.8-.471-.3582-.077-1.0185-.299-1.9777-.678-.977-.371-1.7231-.687-2.2412-.942-2.2086-1.099-3.5705-1.943-4.0916-2.523-.8823-.99-.8764-2.227.0296-3.72.1243-.207.2398-.391.3345-.548.2339-.361.3879-.598.4708-.705.1066-.154.6395-.773 1.5958-1.863l7.8723-12.968-.1925-2.553c-1.8385 3.178-4.2396 7.037-7.2061 11.571-1.1784 1.809-2.4455 3.728-3.8044 5.751h.0029z" fill="#efb207"/><path d="m84.7345 145.585-.0059.006c-2.7209-1.268-5.0746-.877-7.0641 1.175l.1924 2.553-7.8723 12.969c-.9592 1.09-1.4892 1.709-1.5958 1.863-.0799.109-.2368.343-.4707.705-.0947.159-.2072.34-.3346.547-.9059 1.487-.9148 2.731-.0296 3.72.5211.584 1.886 1.422 4.0916 2.523.5152.258 1.2613.572 2.2412.942.9622.376 1.6225.601 1.9777.678.7491.217 1.3471.376 1.8001.471.077.006.154.021.2309.048.7224-.504 1.3412-1.283 1.8593-2.331.6839-1.392.3582-2.674-.9829-3.844-.5152-.45-1.0303-.898-1.5544-1.345.7965-1.202 1.5514-2.345 2.262-3.426 3.4609-5.236 5.9479-9.048 7.4608-11.444 1.0569-2.683.3197-4.62-2.2176-5.813h.006z" fill="#ffc421"/><path d="m120.992 158.352-.752-1.475-.008-.009c-.622 1.167-1.137 2.017-1.552 2.55-.408.527-1.302 1.543-2.679 3.054-.172.189-.367.385-.578.583-.737.696-1.717 1.513-2.933 2.443-.456.344-.93.687-1.425 1.028-.5.349-1.012.699-1.542 1.042-.835.542-1.717 1.084-2.641 1.635-.109-.009.195.154.915.492.631.284 1.664-.015 3.097-.894.225-.149.459-.306.71-.465.282-.196.566-.385.85-.581 1.457-1.039 2.753-2.091 3.887-3.154.134-.127.261-.249.388-.367 1.17-1.146 2.15-2.263 2.94-3.356.868-1.199 1.309-2.04 1.329-2.526z" fill="#106651"/><path d="m120.233 156.862c-.347-.701-.702-1.317-1.054-1.853-1.629-2.438-3.402-3.169-5.329-2.186-.865.426-1.827 1.131-2.881 2.106-1.084-1.265-2.055-2.681-2.916-4.247-.877-1.552-1.25-1.789-1.125-.711.121 1.057-.847 2.659-2.893 4.804-2.049 2.129-4.4971 3.627-7.3423 4.486-.7313-.213-.7609-.074-.0888.424 3.3514 2.896 5.4181 4.889 6.2051 5.988.797 1.122 1.487 1.94 2.073 2.455.592.507 1.258.865 1.995 1.072.927-.551 1.809-1.096 2.641-1.635.527-.349 1.039-.695 1.543-1.042.494-.344.968-.684 1.427-1.028 1.222-.93 2.199-1.744 2.934-2.443.21-.201.405-.394.577-.583 1.377-1.508 2.274-2.527 2.679-3.054.415-.533.933-1.38 1.552-2.55h.003z" fill="#25a384"/><path d="m81.9453 172.73c-1.3145.459-2.3093.752-2.9843.88-.675.115-2.0695.272-4.1716.468-1.1191.112-2.6882.085-4.7103-.089-1.0747-.095-2.1968-.237-3.3692-.43-1.0658-.154-2.1642-.346-3.2982-.58-.0917-.119-.0029.21.2635.989.1125.323.376.595.7935.817.6424.329 1.6017.575 2.8718.747 2.179.308 4.2248.45 6.1315.423 1.8681-.053 3.5705-.24 5.0982-.554 1.4921-.314 2.4218-.651 2.7889-1.013l.5862-1.646v-.015z" fill="#106651"/><path d="m82.1702 162.688c1.051-1.019 1.0718-1.378.0592-1.078-1.0095.299-2.9103-.157-5.6992-1.363-1.0096-.453-1.9422-.968-2.7948-1.56-1.5395-1.046-2.9399-2.219-4.2071-3.525.1747-.977-.0562-.885-.6898.273-.3997 1.128-.8823 2.239-1.4507 3.329-.9681 1.874-1.7261 3.157-2.2708 3.841-.6218.737-1.1339 1.836-1.5366 3.299-.2072.722-.3849 1.525-.5299 2.413-.376 2.222-.3227 3.652.1598 4.286.0622.118.1244.24.1984.367 1.1369.234 2.2353.424 3.2981.581 1.1725.192 2.2975.334 3.3692.429 2.0192.172 3.5913.201 4.7104.089 2.1021-.193 3.4936-.353 4.1715-.468.6751-.127 1.6698-.421 2.9844-.88 1.3411-3.654 1.1783-6-.4886-7.045-.0592-.03-.1184-.059-.1806-.086-.219-.125-.4855-.228-.7993-.314-.2369-.074-.5033-.136-.7994-.184.6129-.589 1.4448-1.395 2.4929-2.41h.0029z" fill="#25a384"/><path d="m59.9156 137.614 14.9423-25.072 6.7621 3.891c-6.5963 7.037-11.2889 15.56-14.0838 25.568-3.7511.068-6.2884-1.392-7.6236-4.387z" fill="#efb207"/><path d="m74.7038 112.71c.4737-.79 1.2079-1.279 2.2086-1.466.9948-.18 1.954-.003 2.8718.528.9237.53 1.5543 1.27 1.8919 2.218.3523.962.3019 1.845-.1451 2.65-.453.827-1.1843 1.339-2.1909 1.543-1.0066.205-1.9866.036-2.9369-.515-.9534-.548-1.5928-1.306-1.9215-2.283-.3345-.975-.2576-1.866.225-2.675z" fill="#efb207"/><path d="m79.9261 115.534-5.1722-2.977c-7.3809 7.647-12.3666 16.008-14.9453 25.079.9267 2.082 2.4425 3.42 4.5416 4.022 3.1501-9.833 8.3431-18.543 15.5759-26.127z" fill="#ffd154"/><path d="m58.9287 148.22c.9829.566 2.0103.705 3.082.412 1.0658-.305 1.8652-.939 2.3952-1.898.521-.942.6306-1.937.3227-2.991-.2961-1.052-.9149-1.845-1.8623-2.39-.9326-.536-1.9273-.67-2.9932-.403-1.0599.269-1.8681.865-2.4218 1.786-.5625.941-.6987 1.954-.4174 3.035.299 1.078.9267 1.893 1.8889 2.443h.0029z" fill="#efb207"/><path d="m60.4001 145.137c1.1842.681 2.4277.847 3.7274.498 1.2849-.371 2.2501-1.138 2.8955-2.293.6277-1.137.755-2.339.3879-3.61-.3612-1.273-1.1073-2.236-2.2442-2.89-1.128-.649-2.3359-.809-3.6179-.483-1.2819.323-2.256 1.04-2.9192 2.153-.6779 1.137-.8467 2.36-.5062 3.667.3612 1.306 1.122 2.292 2.2856 2.961h-.0089z" fill="#efb207"/><path d="m64.7626 141.21c-.8704.219-1.5247.714-1.9629 1.481-.4352.781-.5329 1.614-.2872 2.496.2576.88.7875 1.549 1.5869 2.014.8053.462 1.6402.578 2.4988.341.8674-.24 1.5129-.756 1.9362-1.546.4204-.779.5004-1.605.2369-2.473-.2517-.856-.7727-1.514-1.5543-1.967-.7816-.447-1.5988-.562-2.4514-.34z" fill="#efb207"/><path d="m57.5058 137.423c-.8705.219-1.5248.714-1.9629 1.481-.4353.782-.533 1.614-.2872 2.496.2576.88.7875 1.549 1.5869 2.014.8053.462 1.6402.578 2.4988.341.8674-.24 1.5128-.755 1.9362-1.546.4204-.779.5003-1.605.2369-2.473-.2517-.856-.7728-1.513-1.5544-1.967-.7816-.447-1.5987-.562-2.4514-.34z" fill="#ffd154"/><path d="m59.894 144.5c.974.56 2.0339.622 3.1827.187 1.1398-.456 2.0339-1.262 2.6823-2.417.6306-1.134.8349-2.292.6128-3.483-.2102-1.187-.7845-2.049-1.7171-2.588-.9267-.533-1.957-.592-3.0909-.181-1.1369.406-2.0369 1.167-2.6972 2.284-.675 1.14-.9118 2.324-.7164 3.547.2042 1.218.7875 2.1 1.7408 2.651z" fill="#ffd154"/><path d="m58.4438 147.945c.823.474 1.7201.539 2.6823.187.9622-.368 1.7053-1.028 2.2353-1.987.521-.942.6839-1.905.4885-2.897-.1865-.989-.678-1.712-1.4685-2.165-.7816-.447-1.6491-.509-2.6083-.18-.9504.334-1.6994.962-2.253 1.883-.5566.945-.7461 1.928-.5655 2.95.1895 1.013.6839 1.753 1.4892 2.215h-.003z" fill="#ffd154"/><path d="m61.8837 144.334c.2576.749.7431 1.333 1.4596 1.747.7253.418 1.4596.539 2.2145.368.752-.172 1.2997-.581 1.6491-1.229.3405-.64.3819-1.33.1184-2.07-.2516-.723-.7313-1.289-1.4418-1.697-.6987-.403-1.4182-.528-2.1583-.377-.755.157-1.3145.548-1.6728 1.176-.3582.643-.4115 1.336-.1658 2.082z" fill="#ffd154"/><path d="m74.7126 112.697c-.4855.802-.5654 1.697-.2368 2.677.3375.968.977 1.73 1.9274 2.274.6779.391 1.7497-.272 3.2182-1.984.752-.112.9296-1.335.5388-3.669-.1155-.086-.2398-.166-.373-.243-.9208-.53-1.8741-.705-2.8659-.524-1.0037.183-1.735.672-2.2087 1.466h-.0029z" fill="#ffd154"/><path d="m112.09 43.4855c-.189-.2013-.382-.3879-.574-.5597-.702-.6101-1.457-1.0395-2.271-1.2853-1.039-.3258-2.173-.3495-3.408-.0652-1.764.4058-3.754 1.4394-5.9684 3.0978-1.8267 1.3653-3.7423 3.0682-5.7555 5.1087-2.5017 2.5499-5.3232 5.8135-8.4615 9.7909-1.7053 2.1708-3.5823 4.6555-5.6311 7.4542l34.2455 26.4822 2.235 2.0464c1.525-10.7386 2.191-18.9717 1.999-24.6993-.193-5.7277-.586-10.1937-1.176-13.3981-.589-3.2044-1.267-5.8964-2.025-8.0643-.909-2.6121-1.977-4.5785-3.212-5.9053z" fill="#efb207"/><path d="m48.215 81.15c-.7579 2.1323-1.208 3.5005-1.3501 4.1136-.0769.2428-.145.4945-.1954.7611-.0769.308-.1391.613-.1776.921-.0681.3732-.1155.7523-.1362 1.1313-.0947.5716-.1391 1.1462-.1391 1.7177-.006.0504-.0089.0978-.006.1481 0 .0296.003.0622.0148.1007-.0177 3.7197.9534 7.4868 2.9163 11.2955.2457.48.5062.945.7756 1.398.0948.166.1954.331.2961.491.0444.08.3731.533.977 1.363.5951.832 1.7468 2.156 3.4521 3.974.1125.098.225.195.3375.296.0533.051.1066.095.154.139l1.1221.939c.3819.305.7756.601 1.1724.892.0089 0 .0237.008.0385.032.0118.009.0266.018.0473.027 3.6061 2.553 8.0322 4.276 13.2755 5.168 5.2314.885 9.6221 1.217 13.1778.992.1243-.015.2487-.021.3701-.024.074 0 .1421 0 .2042-.006 4.3107 0 8.2987-.222 11.964-.669.6868-.083 1.3678-.175 2.0487-.275 1.5484-.243 3.0434-.519 4.4764-.83.477-.121.959-.24 1.445-.358.21-.05.423-.104.642-.16.11-.033.222-.062.335-.095.414-.115.823-.231 1.226-.349 4.408-1.33 8.124-3.145 11.149-5.449-23.5249 8.698-42.8726 8.538-58.0488-.48-8.725-6.11-12.5827-15.1811-11.5701-27.211v.0089z" fill="#efb207"/><path d="m65.2184 62.3025c-1.0036.5094-1.9629 1.0484-2.8747 1.614-4.5801 2.7928-8.1536 6.1867-10.7205 10.17-.1391.2014-.2724.4057-.3937.613-.5655.9181-1.0748 1.8717-1.5337 2.8609-.071.0888-.1125.1895-.1332.2932-.0385.0622-.071.1244-.0918.1777-.4174.8825-.8349 1.925-1.2582 3.1214-1.0126 12.0298 2.8451 21.0983 11.5701 27.2103 15.1762 9.021 34.524 9.178 58.0493.48 1.027-.788 1.975-1.632 2.842-2.538 4.968-5.174 7.138-11.0583 6.505-17.6507-.93-10.0663-4.438-17.944-10.517-23.6242-2.587-2.4137-6.205-4.4483-10.859-6.1008-5.619-1.9961-12.349-2.5944-20.1976-1.7947-7.3957.2547-14.1874 1.9753-20.381 5.1619h-.003z" fill="#ffc421"/><path d="m98.1608 99.5552c-.3908.0355-.7757.0948-1.1517.1747-1.7527.3821-3.31 1.2791-4.6689 2.6921-1.6017 1.676-2.484 3.575-2.6497 5.701-.0445.554-.0474 1.069-.0119 1.552.1036 1.279.5004 2.298 1.1961 3.056.8586.948 1.8504 1.555 2.9725 1.813 1.128.26 2.179.355 3.156.284.98-.071 2.0428-.308 3.1948-.714 1.157-.403 2.197-1.214 3.12-2.437.945-1.253 1.543-2.894 1.794-4.922.03-.255.051-.501.06-.744.062-1.791-.486-3.314-1.647-4.56-.808-.865-1.776-1.44-2.901-1.7181-.7519-.1925-1.572-.2488-2.4573-.1718z" fill="#684e3a"/><path d="m71.3933 51.9645c-2.6705-1.8747-5.0331-3.2992-7.0878-4.2795-2.4958-1.1905-4.6511-1.8095-6.4601-1.8628-1.2642-.0355-2.3744.2103-3.3277.7374-.7461.4028-1.4063.9714-1.9689 1.7089-.1539.2073-.3079.4264-.4559.6604-.9474 1.5429-1.6076 3.6841-1.9866 6.4236-.3168 2.2774-.45 5.0494-.3997 8.3071.0504 3.2577 1.3057 9.4651 3.7689 18.6193 2.4603 9.1512 6.2588 13.7031 11.3925 13.6468l30.5982-6.5598c-2.7889-10.1552-6.8332-18.4594-12.1268-24.9096-5.2877-6.4503-9.2697-10.6142-11.9402-12.4889h-.0059z" fill="#ffc421"/><path d="m75.7454 72.8043c-3.6919.3673-6.7029 2.0198-9.0329 4.9577-2.3211 2.9378-3.2952 6.3021-2.9221 10.0929.376 3.7849 1.9895 6.8916 4.8465 9.3171 2.86 2.4166 6.1345 3.444 9.8264 3.074 3.6711-.3642 6.6673-2.0138 8.9885-4.9457 2.3418-2.9438 3.3247-6.3081 2.9517-10.096-.376-3.7907-2.0014-6.8944-4.8732-9.317-2.8511-2.4225-6.1137-3.4532-9.7849-3.0859z" fill="#fff"/><path d="m109.837 69.6864c-3.289.3287-5.915 1.9161-7.872 4.7622-1.951 2.846-2.6794 6.1185-2.1791 9.8205.5001 3.696 2.0811 6.7404 4.7431 9.1304 2.664 2.3841 5.643 3.4117 8.932 3.083 3.275-.3258 5.886-1.9073 7.834-4.7503 1.969-2.852 2.703-6.1275 2.206-9.8205-.501-3.699-2.091-6.7435-4.767-9.1275-2.659-2.387-5.622-3.4206-8.894-3.0919v-.0059z" fill="#fff"/><path d="m85.2429 83.987c-.9178-.7493-1.9658-1.0662-3.1353-.9507-1.1724.1155-2.1316.6338-2.8807 1.5489-.749.9122-1.0658 1.9546-.9503 3.1244.1154 1.1847.6335 2.1501 1.5513 2.8994.9149.7552 1.957 1.075 3.1294.9566 1.1724-.1155 2.1346-.6338 2.8866-1.5578.7491-.9181 1.0659-1.9665.9504-3.1511-.1155-1.1757-.6306-2.1323-1.5455-2.8786v.0059z" fill="#413535"/><path d="m110.302 81.6359c-.918-.7493-1.966-1.0662-3.135-.9507-1.173.1155-2.132.6338-2.881 1.5489-.749.9122-1.066 1.9547-.95 3.1245.115 1.1846.633 2.1501 1.548 2.8993.915.7552 1.957 1.0751 3.129.9566 1.173-.1185 2.135-.6338 2.887-1.5578.749-.918 1.066-1.9664.95-3.1511-.115-1.1757-.63-2.1323-1.545-2.8786v.0059z" fill="#413535"/><path d="m99.6651 91.2192c-.1539-.4886-.7046-.693-1.6461-.616-.9444.0711-1.9392.2665-2.9902.5864-2.0873.619-4.1005 2.1738-6.0367 4.6733-1.9274 2.4788-2.7564 4.6081-2.487 6.3881.2694 1.789 1.5721 3.101 3.9169 3.927 2.3626.835 5.0983.145 8.2099-2.07 4.0651 1.543 7.1171 1.617 9.1691.222 1.646-1.125 2.41-2.384 2.286-3.782-.033-.326-.69-.9298-1.969-1.8094-1.285-.8766-2.976-2.2241-5.069-4.0425-2.087-1.8184-3.2121-2.9764-3.3779-3.4769z" fill="#ffc421"/><path d="m99.0748 102.319-.5211 2.209c.1836.184.376.356.5744.518 1.4299 1.185 2.8899 1.754 4.3849 1.709.817-.026 1.646-.237 2.49-.642.645-.353 1.219-.824 1.726-1.41.494-.589.746-1.137.758-1.641.006-.305 0-.595-.024-.876-.015-.199-.039-.388-.068-.575-1.102 1.516-2.117 2.479-3.053 2.891-.666.269-1.323.382-1.971.337-1.593-.127-2.905-.808-3.9409-2.037-.1155-.143-.231-.305-.3553-.486h-.003z" fill="#684e3a"/><path d="m97.6871 96.6957c-.0859.1155-.1125.3466-.0859.696l.3612 5.4763c-.1095.195-.222.373-.3227.53-.98 1.344-2.3596 2.176-4.1449 2.499-.7253.125-1.4951.092-2.3004-.106-1.1309-.294-2.4484-1.123-3.9554-2.488 0 .471.0415.954.1332 1.454.0977.495.4767 1.007 1.1369 1.531.6662.524 1.4004.921 2.1998 1.185 1.0303.296 2.0073.406 2.9369.334 1.9333-.156 3.6919-1.092 5.2847-2.807.4589-.971.6692-1.721.6218-2.257l-.3819-4.9959c-.1007-.6634-.1806-1.0425-.2339-1.1461-.53-1.0691-.9474-1.0366-1.2494.0947z" fill="#684e3a"/><path d="m95.2589 96.139c-.3316.2014-.5892.4146-.7787.6456.3583 2.0642 1.7527 3.3084 4.1864 3.7284 2.1874-.086 3.5944-1.214 4.2164-3.3937-.311-.4235-.711-.7789-1.197-1.0662-.876-.5153-1.9536-.7641-3.2237-.7463-1.2731.0148-2.3419.2932-3.2005.8292z" fill="#684e3a"/><path d="m97.1744 53.5274c-.0622-.0089-.3582.0118-.8882.0562-1.4951.1274-4.8673.4591-10.1194.9892-2.1524.2132-4.0235.4057-5.6164.5805-4.4083.4412-6.7236.69-6.9486.7433-.7638.1866-1.3263.5746-1.6875 1.1669-.1629.2576-.2606.7404-.2872 1.4482-.0415.8559.074 1.6584.3523 2.4047.4619 1.2824 1.5514 2.47 3.2626 3.5687 1.5218.9862 3.1916 1.694 5.0124 2.1264 1.5869.388 3.4758.4916 5.6725.308 1.6758-.1392 3.2035-.3998 4.589-.7818 1.4182-.3791 2.8274-1.0011 4.2367-1.8658 1.3441-.8204 2.4425-1.8006 3.2952-2.9408.9267-1.2794 1.4448-2.5766 1.5514-3.8856.068-.8322-.0297-1.5785-.2991-2.236-.148-.379-.3464-.7107-.5951-.998-.4174-.4265-.9237-.6545-1.5217-.6871z" fill="#404040"/><path d="m91.2145 42.0726c-.6987-.4531-1.4921-.7848-2.3744-.998-.8852-.2132-2.3419-.2429-4.3758-.0948-2.028.1481-3.6593.4265-4.8998.8381-1.2346.4087-2.3271 1.0336-3.2834 1.8717-.9474.8382-1.5602 1.6289-1.8356 2.3722-.228.622-.4381 1.4512-.6306 2.4877-.1539.7493-.225 1.5371-.2102 2.3574.0089.6101.0681 1.4512.1806 2.5233.0118.1925.0799.687.2043 1.4837.1362.847.2516 1.4571.3405 1.8273 1.7911 1.2764 3.5794 2.0286 5.3705 2.2596 1.8001.2044 3.1087.311 3.9229.3258.829.0178 1.7112-.0355 2.6497-.1629.7668-.1036 1.6314-.2665 2.5936-.4827.3789-.0829.8674-.2458 1.4684-.4827.4027-.157 1.0362-.4265 1.9008-.8085 1.3974-.6723 2.7001-1.7799 3.908-3.3199-.0119-.2162-.0563-.6871-.1303-1.4127-.0888-.7996-.1569-1.3475-.2072-1.6377-.2902-1.7207-.7431-3.2903-1.359-4.7148-.5418-1.1639-.9296-1.9191-1.1576-2.2567-.5003-.7523-1.1931-1.4097-2.0754-1.9754z" fill="#404040"/><path d="m90.3362 58.198c-.601.2369-1.0924.3998-1.4684.4827-.9622.2192-1.8268.3791-2.5936.4828-.9385.1273-1.8208.1806-2.6497.1629-.8172-.0119-2.1228-.1215-3.9229-.3258-1.7911-.231-3.5794-.9832-5.3705-2.2597.0266.157.1687.6841.4263 1.5785.2812.9566.4648 1.5282.5507 1.7148 1.88 1.4926 3.6534 2.3929 5.3232 2.7068 1.5691.2932 2.8215.462 3.7481.5035.4619.0059 1.1724-.0504 2.1317-.1659 1.2435-.1451 2.2027-.3405 2.8748-.5863 1.2138-.4383 2.4188-1.0692 3.6179-1.8895 1.803-1.2409 2.8747-2.5351 3.2152-3.8856.0148-.0533-.0059-.9358-.0651-2.6505-1.208 1.54-2.5106 2.6476-3.9081 3.3198-.8645.3821-1.498.6516-1.9007.8085z" fill="#33ccd7"/></svg>