<svg fill="none" height="600" viewBox="0 0 600 600" width="600" xmlns="http://www.w3.org/2000/svg" xmlns:xlink="http://www.w3.org/1999/xlink"><clipPath id="a"><path d="m0 0h600v600h-600z"/></clipPath><clipPath id="b"><path d="m9-2h582v604.101h-582z"/></clipPath><g clip-path="url(#a)"><g clip-path="url(#b)"><path d="m52.9992 26.9436c-.963-8.8849-1.9856-15.2676-2.3388-24.21692.0359-1.48968.1606-2.436355.3739-2.865121.4135-1.359429 1.2529-1.902969 2.5518-1.605849 1.2798.03793 2.0166 1.018175 2.1771 2.93269l8.8657 56.1583c3.4967 23.7373 6.3949 46.9863 8.6776 69.7063.1473 1.413.1006 2.643-.1403 3.683-.5801 1.428-1.6016 2.166-3.0647 2.188-1.2605.221-2.2353-.28-2.9159-1.495-.4864-1.024-3.8081-1.227-3.7804-2.7-1.1232-13.401-2.724-29.5175-4.9692-50.0622-3.5102-26.8999-4.3107-42.4047-5.154-49.266z" fill="#d9dada"/><path d="m59.0034 83.7821c3.1983-.4407 6.3804-.831 9.1622-1.1004.6131 4.6545 1.1924 9.2843 1.7549 13.8974l-9.4086 1.5546c-.4613-4.5221-.9668-9.2948-1.5084-14.3432z" fill="#ca5b5b"/><path d="m55.9685 57.6139 8.508-1.3117.1958 1.2448c.6436 4.3447 1.2534 8.6645 1.8548 12.9761-2.5389.3172-5.721.6908-8.97 1.0818-.626-5.1397-1.147-9.7867-1.5886-13.991z" fill="#ca5b5b"/><path d="m54.7627 45.2253c-.6546-7.2562-1.0378-12.3481-1.4279-15.5489l-.064-.5767c2.1713-.2802 4.5015-.5703 6.7814-.86l2.4389 15.4639c-.6258.1399-1.1596.2789-1.5346.4164-.9502.3187-3.4381.7275-6.1938 1.1053z" fill="#ca5b5b"/><path d="m50.7224 3.06924c.036-1.48131.1608-2.427984.3741-2.856752.4135-1.359428 1.2528-1.902988 2.5518-1.597528 1.2797.0379 2.0165 1.009763 2.1769 2.92427l2.2696 14.38617c-2.079.3296-4.1999.6344-6.2543.9052-.5017-4.3795-.9188-8.65103-1.118-13.753z" fill="#ca5b5b"/><path d="m71.3954 109.124c.6762 6.018 1.3187 12.003 1.919 17.946.1473 1.413.1005 2.635-.1405 3.674-.58 1.428-1.6015 2.158-3.0729 2.189-1.2605.221-2.2352-.28-2.9157-1.487-.4863-1.016-3.8078-1.218-3.7801-2.691-.4535-5.46-.995-11.37-1.6171-17.848 3.0774-.85 8.3132-1.578 9.5153-1.782z" fill="#ca5b5b"/><path d="m53.4058 106.987c.0218-.335.0436-.678.0739-1.013.0223-.284.0202-.51-.0149-.686-.1136-.509-.2189-1.027-.3241-1.536.0329-.059.0404-.151.0307-.285.0479-.243.0956-.494.1518-.738-.0201-.359-.0074-.778.0382-1.255.2941-.722.8718-1.5144 1.7247-2.3844 1.293-1.1921 2.6397-2.0166 4.0231-2.49.6334-.2153 1.651-.476 3.0696-.7825 1.4944-.2402 2.9804-.4804 4.4749-.7122 1.5215-.0314 3.4536.0338 5.7963.1954 1.1387.1564 2.269.3129 3.4075.4609 1.2238.3146 2.2403.8152 3.0666 1.5268.8852.7613.6042 4.604.7485 5.699.0092.092.0268.184.036.267-8.9986-.173-17.9761.984-26.2946 3.725z" fill="#d9dada"/><path d="m54.6686 127.132c-.3885-6.531-1.6929-13.53-1.2711-20.136 8.3186-2.74 17.2878-3.897 26.2948-3.724.3155 2.39.631 4.78.9464 7.161.7478 5.624 1.5039 11.248 2.2768 16.871.4046 2.967.8175 5.925 1.2305 8.891.1793 1.262 1.0957 3.537.681 4.763-.5042 1.485-1.9201 1.198-3.9411 1.451-4.2927.535-8.5854 1.079-12.8863 1.622-2.2967.29-8.9672 2.245-10.7192.906-1.4993-1.149-1.9071-6.19-2.0063-7.821-.2074-3.328-.4064-6.656-.5971-9.984z" fill="#c6c7c7"/><path d="m86.3212 127.59c-.7152-1.341-1.7949-2.334-3.1972-2.957-.6513-.78-12.4042-1.311-14.1453-.642-4.7274.547-8.1037 1.592-12.7041 3.176-1.2252.405-2.0903.873-2.5784 1.422-.9173 1.13-1.0947 2.688-.5646 4.783.3553 1.31.8075 2.251 1.3477 2.79.8361.862 2.2689 1.174 4.2981.904 3.9729-.741 6.6687-1.261 10.7043-1.575 1.3427-.365 11.988-1.103 12.8335-1.002 1.2023-.187 2.1847-.632 2.9892-1.309 1.0771-1.039 1.4078-4.925 1.0163-5.64.0002.016.0171.033.0172.05 0 0 0 0-.0084-.009z" fill="#aeaeaf"/><path d="m63.2163 203.35c.0214-.386.01-.703-.034-.937-.1321-.702-.2644-1.412-.3965-2.113.0327-.076.0398-.21.0213-.394.047-.335.094-.67.1408-1.014-.0298-.493-.0269-1.07.0087-1.715.3084-.982.9085-2.059 1.817-3.23 1.3812-1.595 2.8172-2.696 4.3165-3.305.683-.274 1.7836-.603 3.3185-.985 1.6193-.292 3.2388-.575 4.8582-.859 1.6555-.007 3.7641.14 6.3171.425 1.2398.239 2.488.487 3.7279.726 1.3423.464 2.4696 1.181 3.3737 2.168 3.3449 27.127 10.8875 88.319 16.1755 118.473 4.25 28.206 7.246 59.019 12.482 94.127 1.867 12.541 9.343 55.417 8.955 62.098-.136 4.16 1.791 8.007-.512 10.229-2.933 2.823-13.73 3.529-18.673 4.279-6.796 1.036-21.6491 5.128-25.4337-1.529-2.8066-4.944-3.5234-22.181-4.1391-30.609-.3533-1.963-3.3539-44.673-3.8643-61.311-.3805-21.424-2.2304-46.984-4.7995-76.922-3.8556-45.547-7.5933-106.741-7.6518-107.611z" fill="#d9dada"/><path d="m63.8064 233.557c-1.4099-1.417-2.6831-4.275-1.1365-6.047.5954-.691 2.022-1.023 2.8387-1.315 1.5752-.534 3.4947-.904 5.7164-1.16 1.9385-.144 3.8774-.246 5.8165-.315 1.6953-.217 4.8409-.916 6.9397-.911 1.8058-.018 3.6035-.018 5.4098.006 2.9167-.153 4.5725-.127 5.0163-.065 3.1591.723 4.3423 2.042 3.6452 4.333-.1208 1.357-1.1224 2.42-3.0223 3.1-.7991.375-2.2345.665-4.3734.836-2.2311.147-5.271.528-9.0955 1.05.0009.092-10.6238 1.248-10.6247 1.148-2.0536.346-4.254.208-6.5827-.238-.1843-.041-.362-.256-.5393-.43z" fill="#aeaeaf"/><path d="m63.301 246.263c-.001-.1-.002-.209-.0113-.309-.0394-.619-.0617-1.204-.1012-1.832-.1115-2.04 1.9996-2.495 3.6674-2.963 1.1164-.429 2.2676-.7 3.5211-.779 7.9813-.402 13.8458-.944 21.7799-1.907 2.8312-.345 5.0323-1.002 7.1124 1.421.8707.987.9227 2.058.3012 3.511-.53 1.411-1.4403 2.407-2.7894 2.972-1.4573.617-3.2686.952-5.1141 1.196-6.013.752-10.3104.785-16.3603 1.186-2.0305.136-3.4077.392-5.4052.478-1.8305.068-4.9031.532-5.7109-1.752-.1463-.442-.8024-.846-.8316-1.272-.0248.025-.0497.042-.0746.067 0 0 0-.008-.0001-.017z" fill="#aeaeaf"/><path d="m95.9893 171.532c-3.514-.234-7.7445-.185-12.7164.147-18.0662 1.186-33.0855 4.468-45.0663 9.854-3.1221 1.402-5.5753 2.807-7.393 4.221-2.7043-8.249-2.8986-17.208.4577-25.615h.0251c1.935-4.888 4.0363-8.991 7.1634-12.502 1.6132-1.814 3.487-3.472 5.7636-4.984.2161-.135.3743-.212.5903-.357 3.4757-2.911 7.4833-5.276 11.6974-7.04 5.0131-3.018 10.9828-4.816 17.6893-4.755 4.0387.012 7.8407.636 11.3718 1.774 6.9109 1.331 13.411 4.289 18.7358 9.433 8.684 8.367 13.463 20.194 12.6 32.25-.081 1.156-.212 2.303-.369 3.434-2.741-1.571-5.796-2.864-9.192-3.852-3.614-1.053-7.3915-1.711-11.3492-1.991z" fill="#d9dada"/><path d="m38.1991 181.535c11.9807-5.387 27.0083-8.668 45.0661-9.854 4.9719-.332 9.2107-.382 12.7164-.147 3.9575.271 7.7354.938 11.3484 1.991 3.396.988 6.46 2.28 9.193 3.852-.51 3.527-1.397 6.916-2.612 10.124-7.618 20.145-28.323 33.019-51.1299 28.093-14.7968-3.188-27.2468-15.418-31.9834-29.838 1.8093-1.415 4.2709-2.819 7.3931-4.221z" fill="#c6c7c7"/><path d="m40.6466 192.638-.982-2.141c-.934-.619.4227-2.138 1.0453-2.612.6226-.475 1.7896.016 2.6422.87.8527.853 1.4654 1.969 1.9608 3.06.5377 1.141 1.0102 2.458.6501 3.282-.4828 1.101-2.5888 1.221-3.7713-.022-1.1908-1.236-.8864-.887-1.5368-2.446z" fill="#aeaeaf"/><path d="m55.0594 191.538.2813.557c.3418.767 1.3607.64 2.438.504.7432-.099 1.1096-1.132 1.3469-1.678.3355-.764.2441-1.584.0945-2.369-.4124-2.029-1.3016-4.079-3.1886-5.541-.2106-.166-.4463-.331-.7479-.386-.5696-.112-1.1521.186-1.5502.525-.937.82-1.2272 1.953-1.1002 2.997.1354 1.045.6549 2.027 1.1573 2.985.4174.799.843 1.581 1.2603 2.381l.0084-.001z" fill="#aeaeaf"/><path d="m72.3565 187.774 1.3984 1.091c1.2148.248 1.9351.366 2.9266-.003s.8796-1.573 1.0889-2.429c.2093-.847.0588-1.715-.1667-2.567-.2345-.909-.5607-1.793-.9537-2.668-.265-.608-.58-1.199-1.1029-1.671-.5314-.48-1.3205-.807-2.1143-.75-.9358.076-1.7077.678-2.0942 1.359-.3781.682-.421 1.443-.4641 2.18-.087 2.268-.2244 3.642 1.4734 5.433l.0169.025z" fill="#aeaeaf"/><path d="m89.9064 185.957.6946.939c.5959.229 1.2337.474 1.8599.376 1.1356-.162 1.6689-1.238 1.961-2.17.5756-1.888.8049-4.141-.8143-5.589-.3963-.348-.8924-.636-1.445-.706-.7618-.093-1.5028.24-1.9831.722-.4803.49-.7253 1.103-.8867 1.715-.4998 1.946-.3739 2.874.6221 4.722h-.0084z" fill="#aeaeaf"/><path d="m105.37 187.215.08.418c.742.746 2.317.17 3.089-.407.789-.568.948-1.439.932-2.234-.017-.912-.454-2.004-1.659-2.168-.871-.117-1.761.368-2.182.958-.429.598-.489 1.277-.542 1.938-.037.427.264 1.278.274 1.478h.008z" fill="#aeaeaf"/><path d="m52.041 142.611c1.544-1.178 3.5343-1.155 5.4943.081.2944.181.5731.471.7938.812.1437.166.271.366.3647.549.6136 1.207.6917 2.378.2152 3.27-.3446.681-.8842 1.087-1.4319 1.528l-1.751 1.389c-.5725.457-1.1618.914-2.0216 1.065-1.0602.186-2.2521-.296-3.106-1.276l-.0676-.074c-.8373-.996-1.1845-2.332-.9024-3.43.1932-.789.5714-1.462.9004-2.034.3618-.631.8317-1.338 1.5039-1.863h.0084z" fill="#fff" opacity=".37"/><path d="m45.8016 152.87c.6329-.274 1.4455-.114 2.094.373.5981.463.9303 1.104.9196 1.732.4989.589.5812 1.325.2029 1.981-3.4562 5.831-4.9336 8.724-5.1537 14.566-.1268 3.356.1185 4.525 1.0923 7.553.3966 1.252.9118 2.661.5393 3.928-.2999.998-1.2116 1.835-2.2989 1.812-2.785-.065-5.3746-5.052-6.0475-7.213-1.0608-3.386-1.143-4.984-.8245-8.401.318-3.475.5261-3.569 1.879-7.247 1.6632-4.45 4.2663-7.671 7.6142-9.084h-.0083z" fill="#fff" opacity=".37"/><path d="m295.576 182.628c-28.001 13.686-54.723 34.487-80.158 62.421-25.139 27.584-47 59.887-65.596 96.908-19.049 37.943-33.152 77.886-42.316 119.811l408.485 33.62c-3.667-53.767-7.977-97.913-12.93-132.436-5.885-41.012-13.46-74.725-22.715-101.12-10.118-28.939-22.921-51.15-38.415-66.633-16.35-16.359-36.395-25.99-60.149-28.902-28.092-3.429-56.828 2.018-86.206 16.331z" fill="#56b397"/><path d="m404.677 107.348c-5.806-1.447-10.772-2.217-14.897-2.312-3.881-.094-7.401.37-10.559 1.376-6.2-2.146-12.58-3.671-19.125-4.56-3.904-.527-7.299-.668-10.167-.424-3.692.314-6.898 1.25-9.617 2.822-3.527 1.989-6.191 5.001-8.006 9.042-.841 1.879-1.398 3.766-1.681 5.653-3.19 1.242-6.003 2.846-8.439 4.82-2.302 1.887-4.18 4.072-5.633 6.541-1.564 2.626-2.507 5.354-2.837 8.185-.369 3.168.055 6.384 1.258 9.647 1.131 3.059 2.82 5.834 5.083 8.311 3.874 4.237 9.264 7.555 16.178 9.946 7.299 2.508 14.873 3.608 22.722 3.286.275-.008.55-.024.817-.039 7.92 2.925 16.17 4.528 24.75 4.812 4.777.165 9.483-.087 14.127-.755 2.978.369 5.971.574 9.004.613 4.809.063 9.609-.299 14.386-1.077 5.422-.936 10.159-2.422 14.206-4.458 4.84-2.445 8.58-5.614 11.22-9.506 1.87-2.791 3.19-5.967 3.96-9.545.722-3.373.911-6.871.573-10.488-.306-3.318-1.053-6.361-2.239-9.128-1.32-3.043-3.08-5.52-5.288-7.43-2.098-1.824-4.604-3.122-7.527-3.884-2.703-.716-5.547-.928-8.533-.637-.801.071-1.618.181-2.443.322-1.477-1.785-3.237-3.381-5.272-4.772-2.208-1.463-4.793-2.744-7.755-3.845-2.2-.818-4.958-1.659-8.281-2.508z" fill="#2b725a"/><path d="m424.846 135.385c-.165 1.589-.84 3.153-2.011 4.694-1.178 1.557-2.805 3.019-4.879 4.372-3.324 2.186-6.859 3.892-10.607 5.118.173.252.44.503.801.771.841.613 1.312 1.124 1.407 1.533-.102-.409-.566-.92-1.407-1.533-.361-.26-.628-.519-.801-.771-2.074.684-4.219 1.219-6.427 1.604-3.614.629-7.182.818-10.709.574.141-5.173.345-10.355.62-15.528.346-6.479.794-12.957 1.336-19.436l-13.962-1.046c-.44 4.419-1.068 9.506-1.886 15.277-.235 1.682-.534 3.742-.887 6.172-.472 3.302-1.053 7.296-1.753 11.974-.66 4.655-1.225 9.129-1.705 13.429-.11.032-.22.063-.337.087-.543.11-1.234.126-2.067.047-2.828-.33-5.484-.951-7.983-1.879-1.547-.574-3.001-1.258-4.36-2.044-.597.228-1.21.432-1.831.597-1.673.456-3.355.668-5.06.645.747 1.415 1.697 2.728 2.829 3.931-1.132-1.211-2.082-2.516-2.829-3.931 1.697.023 3.387-.197 5.06-.645.621-.165 1.234-.369 1.831-.597-1.006-.574-1.964-1.211-2.86-1.903-2.247-1.73-4.125-3.782-5.61-6.172-1.249-2.013-2.129-4.096-2.648-6.266l-4.321-.323c-.205 3.924.369 7.8 1.736 11.629 1.509 4.238 3.779 7.846 6.804 10.826 3.033 3.012 6.6 5.197 10.702 6.55 3.26 1.085 6.529 1.533 9.821 1.352-.409 5.283-.66 10.245-.747 14.883-1.076.622-2.341 1.219-3.787 1.801-.777.307-1.822.723-3.119 1.242-.99.425-1.713.857-2.161 1.298-.534.534-.825 1.202-.856 2.004-.039.912.801 1.518 2.538 1.809 1.273.212 3.261.267 5.963.173 3.065-.165 5.257-.26 6.577-.275 2.247-.032 3.685.125 4.321.479.369.212 1.147.889 2.326 2.037 1.233 1.006 2.357 1.399 3.37 1.179 1.148-.244 1.768-.873 1.87-1.887.016-.55.024-.944.032-1.179.023-.441.11-.755.267-.952.189-.236.511-.346.966-.33.048 0 .433.063 1.147.173 2.695.401 4.526.629 5.5.684 2.043.11 3.159-.142 3.348-.763.385-1.242-.37-2.602-2.271-4.088-1.383-1.085-3.316-2.194-5.799-3.326-.008-.362-.015-.723-.031-1.085-.126-3.845-.212-7.697-.275-11.55-1.296.236-2.491.299-3.583.189 1.1.11 2.294.055 3.583-.189-.016-1.612-.032-3.223-.039-4.843 0-.802-.008-1.612-.016-2.414-.354.032-.739-.023-1.147-.157.416.142.801.189 1.147.157 0-2.547.016-5.095.047-7.642 3.056-.047 6.129-.393 9.209-1.03 5.774-1.203 11.133-3.357 16.091-6.455 3.795-2.398 6.898-5.15 9.302-8.279 2.57-3.334 4.11-6.817 4.636-10.449l-4.416-.33zm-46.961 29.256c-.071-.047-.141-.102-.212-.149-.338-.204-.621-.385-.849-.535.228.15.511.323.849.535.078.047.141.102.212.149zm-3.033-2.94c.134.739.668 1.407 1.595 1.997-.927-.59-1.453-1.258-1.595-1.997zm-.306 27.314c.55.707 1.123 1.218 1.728 1.525-.597-.314-1.178-.818-1.728-1.525z" fill="#6a5439"/><path d="m433.112 99.3835c-1.249-.283-2.066-.456-2.451-.5032-.873-.1022-1.58-.055-2.13.1416-.369.1336-1.5.8963-3.394 2.2721-2.365 1.73-4.321 3.074-5.877 4.041-5.861 3.641-10.693 5.119-14.496 4.435-1.957-.362-4.251-.936-6.883-1.73-3.033-.959-5.311-1.675-6.812-2.139-5.579-1.706-10.183-2.539-13.805-2.492-1.108.024-2.718.142-4.84.346-2.247.22-3.865.346-4.84.377-3.74.134-6.702-.526-8.902-1.997-.801-.542-2.035-1.674-3.7-3.4119-1.501-1.5489-2.774-2.5946-3.835-3.145-1.068-.5582-2.962-1.0614-5.696-1.5096-2.514-.4009-4.353-1.0063-5.508-1.8162-1.587-1.0928-2.671-2.7204-3.26-4.8982-.543-2.0128-.566-4.0885-.063-6.2349.369-1.6039 1.037-3.2865 2.011-5.0477-2.208 1.1637-4.195 2.6654-5.955 4.4973-2.538 2.6654-4.157 5.5902-4.848 8.7823-.04.1808-.079.3853-.118.6133-.094.4874-.149.9828-.181 1.5017-.078.9592-.071 1.9341.032 2.9248.086 1.0772.29 2.1858.605 3.3415.495 1.8556 1.257 3.7186 2.27 5.5906-.487.872-.778 1.871-.872 3.011-.149 1.462.071 2.87.637 4.222.95 2.209 2.812 4.199 5.57 5.968 3.253 2.13 6.985 3.671 11.196 4.623 3.874.888 7.991 1.242 12.344 1.069 3.268-.142 6.757-.566 10.473-1.266 8.494 3.727 17.514 6.062 27.068 7.005 10.206 1.015 20.239.354 30.084-1.989 3.402-.817 6.2-1.832 8.407-3.058 2.255-1.258 4.007-2.776 5.265-4.545 1.673-1.163 3.048-2.571 4.117-4.214 1.225-1.942 1.862-3.97 1.917-6.085.07-2.603-.786-5.339-2.569-8.2087-.99-1.5489-2.067-2.8148-3.222-3.7818-.518 1.5489-1.453 2.6496-2.805 3.3022-1.061.4953-2.711.5032-4.942 0z" fill="#2d7c64"/><path d="m415.85 57.8385c-1.477-3.8211-3.842-6.9425-7.087-9.3719-.699-.5268-1.422-1.0064-2.176-1.4467-2.483-1.4781-5.296-2.5553-8.447-3.2472-1.689-.3774-3.41-.629-5.17-.7626-2.145-.173-4.36-.1494-6.647.055-4.447.3695-8.682 1.3287-12.705 2.8776-4.282 1.6276-8.084 3.8212-11.408 6.5887-3.52 2.9248-6.356 6.3764-8.509 10.3469-1.799 3.3337-2.947 6.7459-3.434 10.2368-3.331.1494-6.395.7627-9.2 1.8556-.841.3302-1.65.6997-2.436 1.1164-.974 1.7691-1.642 3.4516-2.011 5.0477-.503 2.1385-.48 4.2142.063 6.2348.581 2.1701 1.673 3.8054 3.26 4.8983 1.155.8098 2.994 1.4152 5.508 1.8162 2.734.4482 4.636.9514 5.696 1.5096 1.053.5504 2.334 1.6039 3.835 3.1449 1.665 1.7294 2.907 2.8694 3.7 3.4124 2.2 1.462 5.162 2.131 8.902 1.997.982-.031 2.593-.157 4.84-.377 2.122-.205 3.732-.323 4.84-.346 3.622-.048 8.219.786 13.805 2.492 1.508.472 3.779 1.179 6.812 2.139 2.632.794 4.926 1.368 6.883 1.729 3.803.676 8.635-.802 14.496-4.434 1.556-.959 3.512-2.312 5.877-4.041 1.894-1.3841 3.025-2.1389 3.394-2.2726.55-.1965 1.257-.2516 2.129-.1415.385.0472 1.203.2123 2.452.5032 2.231.4953 3.881.4953 4.942 0 1.351-.6526 2.286-1.7533 2.805-3.3022-.361-.3145-.739-.5976-1.124-.8492.008-.1258.024-.2437.04-.3616.149-1.1872.172-2.4216.086-3.7111-.039-.6761-.118-1.368-.236-2.0678-.471-3.1528-1.461-6.1641-2.962-9.0181-1.5-2.8462-3.394-5.3307-5.673-7.4457-2.262-2.115-4.824-3.8054-7.692-5.0712-2.019-.8964-4.085-1.5253-6.191-1.9106.189-2.5396-.228-5.142-1.257-7.8073z" fill="#2d7c64"/><path d="m457.869 133.632c-.047.197-.102.393-.173.59-.51 1.549-1.65 3.011-3.417 4.387-3.041 2.351-6.852 3.766-11.432 4.238-3.45.346-7.629.165-12.556-.551-2.695-.424-4.84-.912-6.427-1.47-2.31-.802-4.172-1.926-5.586-3.357-1.03-1.234-1.8-2.162-2.31-2.768-.927-1.1-1.823-1.863-2.679-2.288-.81-.408-2.012-.676-3.607-.809-1.807-.15-3.048-.338-3.74-.566-2.011-.677-3.386-2.21-4.117-4.6-.243-.802-.377-1.572-.401-2.312-.683 1.746-1.06 3.594-1.115 5.543-.063 1.353.055 2.509.353 3.468-.165.204-.322.416-.471.621-.864 1.329-1.399 2.799-1.603 4.403-.071.417-.102.833-.094 1.234-.032 1.227.18 2.335.636 3.334.605 1.336 1.603 2.398 2.986 3.184 1.021.582 2.365 1.062 4.038 1.447 5.084 1.195 9.885 1.73 14.402 1.619 4.518 1.825 9.091 2.831 13.703 3.035 6.325.283 12.155-1.006 17.498-3.86 2.16-1.164 3.912-2.618 5.248-4.348 1.587-2.076 2.294-4.246 2.114-6.518-.11-1.211-.48-2.359-1.116-3.451-.039-.071-.087-.134-.134-.205z" fill="#308e68"/><path d="m457.869 133.632c-.44-.716-.966-1.352-1.579-1.919-.189-.165-.369-.33-.558-.487-.644-.488-1.383-.928-2.215-1.329-.236-.817-.503-1.557-.794-2.225-.534-1.305-1.179-2.445-1.933-3.436-.833-1.053-1.752-1.863-2.742-2.429-1.532-.826-3.386-1.148-5.555-.975-.471-1.478-1.1-2.917-1.886-4.317-2.05-3.624-4.698-6.124-7.943-7.516-2.719-1.132-5.61-1.376-8.674-.723-3.002.629-5.72 2.012-8.164 4.167-1.453 1.313-2.647 2.736-3.582 4.277-.11.189-.22.369-.323.558-.487-.11-.982-.173-1.485-.189-1.862-.047-3.567.511-5.107 1.667-1.516 1.125-2.726 2.689-3.63 4.702-.102.22-.196.44-.29.652.023.74.157 1.51.4 2.312.739 2.39 2.106 3.923 4.117 4.6.684.228 1.933.424 3.74.566 1.595.133 2.798.401 3.607.809.856.425 1.752 1.188 2.679 2.288.511.606 1.281 1.526 2.31 2.768 1.414 1.431 3.276 2.555 5.586 3.357 1.587.558 3.732 1.046 6.427 1.47 4.927.716 9.107.897 12.556.551 4.581-.472 8.391-1.879 11.432-4.238 1.768-1.376 2.907-2.838 3.418-4.387.07-.197.125-.393.173-.59z" fill="#308e68"/><path d="m388.028 152.376c-1.021-.369-2.561-.998-4.612-1.887-1.83-.715-3.418-1.093-4.769-1.14-.778-.031-2.184.102-4.211.401-1.76.259-3.143.307-4.157.134-1.768-.291-3.284-1.188-4.549-2.705-.566-.676-.998-1.384-1.32-2.123-.031.024-.063.055-.11.094-.558.59-.935 1.243-1.131 1.943-.346 1.336-.055 2.704.864 4.096.794 1.156 1.901 2.186 3.323 3.098 3.513 2.217 7.535 3.561 12.069 4.025 3.3.33 6.647.173 10.041-.472 3.206.504 6.679.661 10.411.464 1.233-.063 2.239-.22 3.025-.471 1.06-.331 1.878-.857 2.443-1.589.417-.558.676-1.203.77-1.926.047-.252.063-.503.055-.755.008-.605-.078-1.195-.275-1.769-.015.032-.039.055-.063.079-.62.597-1.43 1.03-2.42 1.297-2.53.653-5.115.92-7.762.794-2.64-.141-5.194-.668-7.645-1.58z" fill="#3e9787"/><path d="m398.557 139.466c-.503-1.006-1.21-1.974-2.13-2.901-1.532-1.518-3.331-2.611-5.397-3.271-2.122-.692-4.196-.833-6.231-.425-2.451.504-4.581 1.738-6.403 3.704-.692.747-1.273 1.541-1.753 2.382-1.54-.315-2.891-.299-4.062.031-.762.236-1.492.637-2.192 1.188-.628.503-1.202 1.116-1.713 1.831-.267.378-.534.795-.777 1.251-.629.165-1.203.353-1.698.566-.157.086-.298.165-.44.243-.495.276-.935.606-1.327.999.314.739.754 1.447 1.32 2.123 1.265 1.517 2.773 2.414 4.549 2.704 1.013.173 2.396.126 4.156-.133 2.027-.299 3.434-.433 4.212-.401 1.343.047 2.93.424 4.769 1.14 2.05.888 3.583 1.509 4.612 1.887 2.451.912 4.997 1.439 7.645 1.58 2.648.126 5.233-.133 7.755-.794.99-.267 1.799-.7 2.42-1.297.023-.024.047-.055.062-.079-.102-.338-.251-.676-.432-1.006-.094-.134-.188-.275-.275-.425.299-.542.487-1.218.574-2.028.157-1.172.071-2.304-.252-3.397-.039-.141-.086-.291-.125-.432-.456-1.29-1.163-2.335-2.129-3.153-.99-.849-2.145-1.352-3.465-1.502-.362-.039-.723-.047-1.093-.016-.047-.133-.102-.251-.172-.369z" fill="#3e9787"/><path d="m496.793 173.02c-6.576-2.792-14.085-4.461-22.527-4.998-6.9-.436-14.741-.127-23.515.933-2.798.348-5.059.791-6.782 1.321-1.059.332-2.008.72-2.846 1.17-4.521-.759-8.963-1.036-13.31-.822-5.541.277-10.616 1.344-15.232 3.203-4.908 1.993-9.05 4.841-12.41 8.535-3.517 3.844-5.635 8.044-6.363 12.576-.743 4.714.19 9.262 2.799 13.652.332.57.687 1.123 1.067 1.661-1.961.894-3.462 2.468-4.49 4.746-1.399 3.061-1.431 6.051-.095 8.97 1.21 2.594 3.28 4.959 6.197 7.095 2.292 1.661 5.241 3.266 8.845 4.809 12.465 5.347 26.558 8.495 42.288 9.444 6.742.403 13.761.403 21.057.016 4.695.316 8.876.458 12.552.427 14.07-.143 26.1-2.476 36.091-7 7.335-3.306 11.92-7.348 13.753-12.118 1.083-2.895.925-5.806-.474-8.748-1.383-2.919-3.525-4.77-6.434-5.553.237-.308.482-.624.719-.957 1.937-2.855 3.028-5.979 3.281-9.396.26-3.647-.443-7.222-2.103-10.718-1.636-3.496-4.023-6.438-7.153-8.827-3.115-2.405-6.743-4.082-10.885-5.039-2.481-.569-4.94-.83-7.398-.783-1.834-1.321-4.047-2.523-6.624-3.614z" fill="#138269"/><path d="m492.486 215.203c-.735 1.692-1.605 3.306-2.624 4.825-1.526 2.278-3.297 4.223-5.312 5.821-2.079 1.685-4.379 2.935-6.885 3.757-1.589.522-3.177.855-4.758.997 0-4.216-.016-7.854-.048-10.915-.008-.91-.023-1.82-.039-2.721-.095-6.138-.245-12.15-.459-18.05-1.059.182-2.885.364-5.493.538-2 .142-3.241.261-3.715.364.482-.095 1.723-.222 3.715-.364 2.608-.174 4.434-.356 5.493-.538-.284-8.195-.687-16.16-1.201-23.895l-14.726-.514c.032 7.577-.253 15.218-.853 22.938-.032.363-.056.735-.087 1.107-.554 6.676-1.439 14.372-2.664 23.096-.221 1.543-.427 2.998-.617 4.374-4.671.815-8.505 1.068-11.485.744-3.383-.388-7.082-1.59-11.097-3.631-.111-.055-.221-.111-.324-.166-.49.135-.988.237-1.502.309-.569.079-1.13.11-1.684.094.554.008 1.115-.023 1.684-.094.514-.072 1.012-.174 1.502-.309-2.474-1.329-4.83-3.338-7.067-6.019-2.268-2.697-3.928-5.497-4.979-8.384l-6.774-.238c1.09 6.043 2.679 10.979 4.758 14.799 2.545 4.675 6.007 8.108 10.386 10.307 6.964 3.48 15.248 5.204 24.843 5.18-.347 2.413-.545 3.821-.577 4.224-.901 7.522-1.351 14.048-1.335 19.592-2.996 1.29-5.937 2.793-8.814 4.485-.877.514-1.549 1.076-1.999 1.693-.577.791-.72 1.55-.427 2.286.363.909 1.257 1.479 2.663 1.685 1.02.166 2.822.15 5.407-.032 2.759-.229 4.553-.356 5.391-.403 1.494-.064 2.656.11 3.478.522.577.276 1.106.751 1.588 1.439.577.815 1.012 1.337 1.305 1.574.632.522 1.517.815 2.655.886.838.055 1.89-.656 3.162-2.12 1.241-1.645 2.008-2.618 2.308-2.934.506-.483 1.486-.673 2.941-.593 1.233.063 2.584.308 4.039.727 2.41.704 4.576 1.076 6.497 1.108 2.11.039 3.328-.372 3.644-1.226.419-1.163-.735-2.745-3.446-4.746-1.731-1.282-3.7-2.484-5.913-3.623-.095-.039-.182-.087-.276-.134.015-1.274.023-2.516.031-3.742.016-1.036.024-2.048.024-3.045.047-4.959.079-9.531.103-13.731-.214.047-.396.095-.554.119.158-.032.34-.072.554-.119 0-.87 0-1.724 0-2.563 2.023-.253 4.023-.743 6.007-1.471 3.335-1.226 6.292-3.021 8.861-5.402 2.584-2.405 4.647-5.244 6.204-8.527 1.384-2.942 2.261-6.027 2.633-9.246l-4.111-.143z" fill="#74654d"/><path d="m516.269 142.782c.443 3.456-.079 6.731-1.557 9.816-1.359 2.847-3.391 5.386-6.086 7.601-2.403 1.969-5.217 3.599-8.45 4.88-5.303 2.104-11.263 3.164-17.887 3.204-5.454.015-10.165-.53-14.141-1.638-3.968-1.099-9.548-3.1-16.741-6.011-7.193-2.895-14.149-4.176-20.859-3.852-6.711.34-11.13.166-13.248-.538-3.889-1.305-6.561-3.409-8.007-6.312-1.217-2.412-1.494-5.094-.83-8.028-2.529 3.251-4.094 7.15-4.703 11.698-.15 1.044-.229 2.073-.237 3.077-.119 4.627 1.004 8.811 3.375 12.553 3.122 4.864 8.133 8.637 15.026 11.303 2.095.799 4.624 1.582 7.596 2.341 5.691 3.338 12.56 5.608 20.606 6.802 5.288.783 12.884 1.226 22.773 1.321 8.576.071 15.255-.364 20.029-1.305.933-.174 1.85-.388 2.743-.633 12.52-1.684 20.203-3.939 23.057-6.762 3.596-3.568 6.102-7.633 7.525-12.189 1.478-4.754 1.604-9.603.379-14.554-1.281-5.102-3.731-9.152-7.351-12.141-1.028-.847-2.118-1.582-3.272-2.191.11.498.197 1.02.26 1.55z" fill="#1f8f76"/><path d="m498.667 101.794c-4.047-6.5492-9.707-11.3187-16.979-14.3165-7.382-3.0452-14.583-3.4723-21.61-1.2972-4.877 1.5345-9.295 4.2317-13.271 8.0758-3.858 3.7571-6.837 8.1549-8.94 13.1929-2.039 4.857-3.17 10.093-3.407 15.709-.158 3.899.119 7.783.838 11.651-3.138-1.234-6.545-1.732-10.212-1.503-5.62.356-10.379 2.365-14.275 6.027-.862.807-1.637 1.661-2.348 2.571-.664 2.942-.387 5.616.83 8.028 1.447 2.903 4.118 5.007 8.007 6.312 2.118.696 6.537.878 13.248.538 6.718-.324 13.666.957 20.859 3.852 7.193 2.903 12.773 4.904 16.741 6.011 3.976 1.108 8.687 1.661 14.141 1.638 6.624-.032 12.584-1.1 17.888-3.204 3.232-1.281 6.046-2.911 8.449-4.88 2.696-2.215 4.727-4.746 6.086-7.601 1.479-3.093 2-6.36 1.558-9.816-.064-.538-.151-1.052-.261-1.55-.387-.206-.775-.396-1.17-.578-1.684-.767-3.502-1.289-5.438-1.574-2.482-.387-4.885-.332-7.201.166 1.707-4.92 2.545-10.108 2.506-15.59-.048-8.178-2.055-15.463-6.031-21.862z" fill="#239d81"/><path d="m546.385 209.271c-.64-1.029-1.486-1.851-2.537-2.492-.087.593-.253 1.202-.498 1.803-.57 1.4-1.431 2.595-2.601 3.591-1.921 1.606-4.6 2.674-8.023 3.204-3.256.49-6.884.538-10.892.158-2.656-.253-6.284-.807-10.9-1.685-5.233-1.004-8.868-1.637-10.924-1.914-4.078-.538-7.738-.688-10.955-.435-2.205.245-3.865.427-4.98.546-1.976.221-3.636.293-4.987.221-1.818-.11-3.454-.49-4.917-1.147-1.644-.727-2.932-1.755-3.865-3.076-.332-.483-.601-.997-.814-1.527-.079.316-.158.633-.221.949-.467 2.207-.396 4.303.229 6.273.498 1.645 1.383 3.163 2.656 4.571 1.162 1.282 2.561 2.35 4.189 3.212 1.423.759 3.051 1.368 4.877 1.835 1.431.348 3.138.648 5.138.901 4.647.594 9.88.791 15.706.586 1.818-.064 3.999-.182 6.56-.364 8.9.625 17.761.245 26.582-1.123 2.719-.396 4.94-.989 6.648-1.772 2.316-1.06 3.944-2.531 4.892-4.414.609-1.218.878-2.547.815-3.994-.079-1.447-.467-2.745-1.178-3.899z" fill="#1f8f76"/><path d="m533.746 187.828c-2.348-1.187-4.719-1.772-7.114-1.748-1.122-1.685-2.545-3.125-4.252-4.319-2.111-1.479-4.387-2.389-6.814-2.713-2.458-.317-4.885-.024-7.288.862-2.395.878-4.442 2.238-6.157 4.081-2.435-1.154-4.948-1.763-7.541-1.819-2.727-.047-5.201.546-7.406 1.78-2.34 1.273-4.134 3.164-5.399 5.655-1.075 2.136-1.525 4.279-1.351 6.415-1.36.443-2.648 1.012-3.842 1.708-1.873 1.092-3.422 2.429-4.671 4.003-1.107 1.463-1.913 3.061-2.411 4.785.213.53.482 1.044.814 1.527.933 1.321 2.221 2.349 3.865 3.077 1.463.656 3.107 1.036 4.917 1.146 1.344.072 3.003 0 4.987-.221 1.107-.119 2.767-.301 4.98-.546 3.225-.245 6.877-.103 10.955.435 2.056.277 5.692.918 10.924 1.914 4.608.87 8.244 1.432 10.9 1.685 4.008.38 7.636.324 10.892-.158 3.431-.53 6.102-1.598 8.023-3.203 1.162-.997 2.032-2.191 2.593-3.591.245-.61.403-1.211.498-1.804-.127-.079-.269-.158-.403-.229-1.241-.657-2.522-.942-3.842-.854 1.518-.997 2.363-2.603 2.537-4.841.166-2.017-.229-3.987-1.177-5.909-1.581-3.124-3.992-5.497-7.217-7.126z" fill="#239d81"/><path d="m503.014 217.963c.119-1.669-.261-3.274-1.146-4.817-.016-.039-.04-.071-.055-.095-.388-.688-.838-1.305-1.36-1.858.04.063.079.118.111.181.853 1.511 1.185 3.117.988 4.825-.182 1.614-.783 3.109-1.81 4.501-.949 1.297-2.127 2.318-3.534 3.077-1.233.672-2.632 1.139-4.213 1.4-1.288.213-2.766.3-4.426.269-2.15-.032-4.007-.301-5.588-.807-1.969-.641-3.541-1.669-4.727-3.077-.435-.514-.917-1.226-1.447-2.135-.585-1.021-1.035-1.78-1.335-2.271-1.099-1.748-2.237-2.808-3.423-3.195-.514-.158-1.533-.214-3.059-.19-1.272.024-2.229-.182-2.869-.617-1.51-1.036-2.024-3.251-1.549-6.644-.079.095-.158.19-.238.285-1.596 1.874-2.529 3.709-2.798 5.521-.166 1.075-.071 2.112.293 3.116.371 1.052.98 1.875 1.818 2.468-1.771.04-3.296.799-4.569 2.278-.727.83-1.209 1.748-1.438 2.737-.19.759-.238 1.566-.143 2.404.214 1.97 3.012 3.726 8.395 5.26 3.707 1.06 10.046 1.408 19.025 1.028.293.032.593.072.901.111 2.451.324 4.292.514 5.525.57 4.403.284 8.007-.388 10.813-2.009 1.463-.839 2.348-1.828 2.64-2.982.206-.728.143-1.495-.189-2.302-.316-.751-.799-1.384-1.455-1.883-.308-.237-.648-.443-1.003-.617 1.146-1.352 1.762-2.863 1.873-4.548z" fill="#28a084"/><path d="m500.453 211.193c-.648-.696-1.399-1.29-2.245-1.772-1.47-.831-3.106-1.297-4.916-1.4-1.123-.056-2.221.031-3.312.245-.68-1.811-1.842-3.441-3.486-4.888-2.3-2.033-4.932-3.18-7.888-3.449-2.838-.269-5.644.253-8.426 1.551-2.546 1.194-4.743 2.871-6.6 5.046-.475 3.393.039 5.608 1.549 6.644.632.435 1.589.633 2.869.617 1.526-.032 2.545.032 3.059.19 1.178.379 2.324 1.447 3.423 3.195.3.491.743 1.242 1.335 2.27.53.91 1.012 1.622 1.447 2.136 1.186 1.416 2.758 2.444 4.727 3.077 1.573.514 3.438.783 5.588.815 1.668.031 3.138-.056 4.426-.269 1.573-.261 2.98-.728 4.213-1.4 1.407-.752 2.585-1.78 3.534-3.077 1.027-1.392 1.628-2.887 1.81-4.501.197-1.708-.127-3.314-.988-4.825-.032-.063-.072-.126-.111-.182z" fill="#2ca88c"/><path d="m536.939 464.931c-37.257-34.926-80.439-32.231-121.846-38.354-.296-.045-.821-.19-1.587-.443-3.012.118-17.477-.063-21.148-.57-6.423-1.148-11.241-1.989-14.455-2.523-4.012-.66-8.386-1.175-13.124-1.546-3.061.118-6.239.335-9.52.642-.561.063-1.049-.036-1.453-.307-.354-.218-.591-.534-.721-.95-3.792-.109-8.494-.172-14.12-.235-33.169-.38-71.281-.018-88.059 1.076-27.718 1.791-52.514 5.923-74.388 12.399-18.825 5.57-37.906 8.464-56.261 18.394-16.706 9.043-68.5256 21.921-62.9407 74.644 2.1381 20.231 15.5267 32.964 24.8005 35.116 9.9328 2.306 19.8702 4.621 29.7982 6.927 9.933 2.306 6.836.914 28.05 4.956 21.219 4.043 20.498 3.988 30.664 5.688 55.114 4.757 53.128 5.553 79.708 5.553 28.767 0 62.026-.271 73.483-.805 27.476-1.284 33.178 1.23 85.441 1.23 0 0 11.968-1.23 25.132-1.23 13.963 0 15.159 1.61 31.52-1.989 13.169-1.61 21.43-2.858 29.995-3.31 10.233-.543 16.768-2.243 25.657-5.146 4.258-1.375 7.916-2.93 10.955-4.712 3.863-2.215 8.234-4.983 11.098-8.301 3.276-3.735 5.943-8.284 7.992-13.602 2.205-5.751 5.441-11.729 5.665-17.897.085-2.351.027-4.738-.175-7.126 1.004-2.487 1.462-6.249 1.35-11.286-.068-2.93-.251-5.426-.552-7.488-.376-2.514-1.044-5.073-1.994-7.687-.758-2.062-1.762-4.323-3.012-6.783-4.828-9.522-8.804-17.634-15.957-24.345h.004zm-34.043-52.742c-.336.172-.668.407-.999.706.026-.1.067-.199.094-.308.318-.154.618-.298.901-.398" fill="#fff3d4"/><path d="m436.431 414.18c.443.195.853.388 1.269.607.998.542 1.876 1.235 2.587 2.074.768.873 1.3 1.85 1.577 2.871.267.918.313 1.829.138 2.741 2.346 1.599 4.142 3.618 5.478 6.053 1.475 2.778 2.158 5.812 1.995 9.116-.13 3.312-1.063 6.269-2.787 8.932-1.716 2.636-4.072 4.69-7.042 6.148-.441.215-.875.405-1.342.593-2.169.213-4.363.172-6.585-.066-10.553-1.241-18.715-2.306-24.426-3.193-9.535-1.467-17.86-3.186-24.945-5.132-3.688-1.005-6.893-2.55-9.571-4.607-.178-.135-.375-.296-.546-.457-.319-.919-.552-1.887-.692-2.925-.378-2.799-.006-5.421 1.107-7.86.859-1.952 2.044-3.446 3.494-4.439.484-.351 1.011-.609 1.569-.841-.239-.5-.446-1.02-.618-1.59-.442-1.65-.447-3.327.004-5.089.41-1.679 1.186-3.198 2.329-4.589 1.049-1.291 2.287-2.368 3.771-3.191 1.485-.823 3.058-1.332 4.681-1.534 1.648-.195 3.308-.09 4.959.346.742.209 1.423.462 2.097.766.359-1.491.924-2.658 1.72-3.488.61-.665 1.417-1.189 2.368-1.533.918-.319 1.851-.475 2.864-.454 1.667.079 3.457.675 5.374 1.801.001-.026.034-.052.035-.078 1.149-2.074 2.74-3.713 4.76-4.879 1.901-1.097 4.043-1.727 6.483-1.874 2.245-.145 4.517.126 6.817.807 1.849.571 3.51 1.339 5.003 2.329 1.62 1.066 2.943 2.311 3.963 3.737 1.087 1.545 1.807 3.235 2.113 5.089.236 1.352.214 2.587-.001 3.796z" fill="#3a722f"/><path d="m423.649 390.374c3.122-.14 6.144.502 9.119 1.937 2.923 1.4 5.331 3.365 7.256 5.869 1.204 1.535 2.004 3.15 2.427 4.773.164.655.269 1.301.298 1.906.34.153.699.338 1.083.524 2.147 1.048 3.735 2.113 4.802 3.241.821.848 1.462 1.867 1.911 3.029.429 1.156.631 2.312.61 3.521-.02 1.208-.279 2.358-.758 3.476-.076.153-.152.307-.228.468.427.304.878.661 1.289 1.075 2.185 2.018 3.745 4.589 4.737 7.717 1.155 3.808 1.376 7.552.624 11.249-.8 4.021-2.633 7.135-5.448 9.325-2.569 2.002-5.66 3.386-9.321 4.226-1.249.278-2.482.471-3.706.587.434-.19.874-.379 1.341-.594 2.964-1.458 5.319-3.485 7.043-6.148 1.716-2.637 2.656-5.62 2.787-8.931.123-3.286-.52-6.339-1.996-9.116-1.303-2.428-3.131-4.455-5.477-6.054.174-.912.103-1.856-.139-2.74-.277-1.028-.808-2.005-1.577-2.871-.717-.839-1.588-1.526-2.586-2.074-.41-.219-.827-.413-1.27-.607.242-1.209.237-2.444.026-3.763-.306-1.854-.993-3.537-2.113-5.089-1.026-1.426-2.343-2.672-3.963-3.737-1.493-.991-3.154-1.758-5.002-2.329-2.3-.688-4.58-.927-6.818-.807-2.414.154-4.556.777-6.483 1.874-2.02 1.166-3.611 2.799-4.76 4.879 0 .026-.034.051-.034.077-1.911-1.132-3.707-1.721-5.374-1.8-.987-.047-1.939.102-2.865.454-.951.344-1.732.874-2.368 1.533-.77.836-1.36 1.996-1.72 3.488-.673-.311-1.381-.565-2.096-.767-1.653-.384-3.319-.488-4.961-.293-1.649.194-3.197.71-4.681 1.534-1.484.823-2.748 1.893-3.771 3.19-1.142 1.366-1.918 2.885-2.329 4.589-.444 1.73-.446 3.433-.004 5.09.146.569.353 1.088.618 1.59-.551.205-1.079.49-1.569.84-1.476.993-2.627 2.462-3.494 4.44-1.113 2.439-1.485 5.061-1.107 7.86.14 1.037.373 1.999.692 2.924-2.63-2.159-4.572-4.748-5.834-7.747-.688-1.657-1.008-3.459-.942-5.401.053-1.89.453-3.679 1.195-5.368.75-1.747 1.782-3.149 3.086-4.269.839-.718 1.73-1.233 2.708-1.596-.522-.866-.926-1.767-1.177-2.769-.441-1.682-.432-3.411-.013-5.174.418-1.73 1.169-3.282 2.278-4.623 1.067-1.238 2.399-2.189 3.978-2.918 1.52-.712 3.134-1.077 4.818-1.128 1.625-.032 3.268.208 4.903.754.657.226 1.286.471 1.901.8l.025-.188c.223-1.508.787-2.864 1.71-4.066.786-1.188 1.904-2.145 3.288-2.873 1.299-.685 2.709-1.16 4.247-1.371 2.551-.384 5.461-.141 8.782.738 2.231.595 3.911 1.389 5.071 2.422.753-.7 1.576-1.334 2.502-1.9 2.705-1.764 5.661-2.722 8.809-2.862z" fill="#417b35"/><path d="m429.235 406.934c.34-.088.591-.25.753-.473.163-.229.271-.395.307-.518.023-.142.16-.84.396-2.114.243-1.28.456-2.386.637-3.317.176-.937.26-1.643.254-2.112.004-.376-.1-.633-.317-.756-.39-.245-2.637-.723-6.756-1.429-.342-.061-.672-.116-1.002-.171 2.72-16.628 5.206-28.772 7.834-39.014l117.876 16.182-7.787 69.05c-.659-.122-1.383-.246-2.191-.386-3.95-.688-7.275-1.203-9.974-1.544-.64-.109-1.116-.057-1.434.168l-.007.006c-.286.239-.472.65-.579 1.219l-1.092 6.138c-.131.75-.195 1.178-.179 1.314.029.118.117.244.275.398.184.142 1.301.4 3.369.796 2.068.389 3.709.681 4.938.871 1.1.167 3.027.5 5.761.986l-2.126 18.387c-40.356-3.168-81.443-9.028-123.261-17.592.49-3.367 1.447-9.814 1.904-12.934 1.28.231 2.359.423 3.226.558 1.242.197 3.537.592 6.872 1.191 1.197.17 1.956.211 2.276.135.334-.088.573-.257.728-.48.163-.23.258-.402.288-.532.029-.129.172-.827.409-2.101.236-1.28.449-2.385.624-3.317.175-.937.266-1.65.273-2.124.01-.364-.1-.62-.311-.749-.363-.232-2.52-.688-6.49-1.37-2.379-.417-4.526-.769-6.447-1.057 1.412-9.508 2.63-17.612 3.666-24.304 1.286.218 2.922.51 4.939.872 1.235.183 2.02.231 2.353.149z" fill="#dfcfab"/><path d="m423.511 396.04c.329.055.665.116 1.002.171 4.118.706 6.365 1.191 6.755 1.429.217.123.321.379.317.756.006.468-.078 1.175-.253 2.112-.182.931-.394 2.037-.638 3.317-.236 1.274-.372 1.972-.396 2.114-.036.116-.144.289-.306.518-.156.223-.407.385-.754.473-.334.089-1.118.034-2.354-.15-2.017-.361-3.659-.654-4.939-.871.135-.874.269-1.728.395-2.55.388-2.505.78-4.951 1.171-7.325z" fill="#aaa9a5"/><path d="m431.221 432.655c.211.136.314.392.31.756-.006.468-.097 1.18-.272 2.118-.176.931-.388 2.036-.625 3.317-.236 1.273-.379 1.971-.409 2.101-.036.129-.131.301-.287.531-.162.223-.394.392-.728.48-.32.082-1.079.035-2.276-.134-3.342-.6-5.637-.995-6.872-1.192-.867-.135-1.947-.321-3.226-.558.504-3.437.991-6.719 1.454-9.852 1.921.288 4.068.633 6.447 1.057 3.97.682 6.127 1.138 6.491 1.369z" fill="#aaa9a5"/><path d="m529.608 450.357c-2.062-.389-3.185-.654-3.369-.796-.159-.147-.246-.273-.275-.397-.016-.131.048-.565.179-1.315l1.092-6.138c.107-.575.294-.979.58-1.219l.006.001v-.007c.318-.225.8-.277 1.434-.168 2.693.335 6.024.85 9.974 1.544.808.14 1.532.27 2.191.386l-1.119 9.965c-2.735-.485-4.661-.818-5.761-.985-1.229-.19-2.871-.483-4.939-.872z" fill="#aaa9a5"/><path d="m427.768 351.523c.334-.082.585-.244.741-.48.169-.229.271-.395.307-.518.03-.142.166-.853.396-2.121.243-1.273.456-2.373.644-3.316.169-.938.253-1.644.253-2.112.011-.377-.099-.633-.304-.756-.376-.245-2.592-.709-6.639-1.4-.595-.101-1.17-.201-1.739-.295 1.037-6.959 1.974-13.16 2.807-18.603 4.232-27.623 6.698-38.351 10.542-54.52l79.51-71.376 56.127 92.328-10.098 88.292c-3.394-.575-6.293-1.013-8.701-1.314-.659-.122-1.154-.071-1.479.154-.292.239-.479.65-.586 1.219l-1.091 6.125c-.138.757-.202 1.19-.179 1.315.022.13.122.256.281.397.184.148 1.326.421 3.433.817 2.107.39 3.801.691 5.056.888.524.08 1.241.203 2.127.352l-1.792 16.427c-46.621-3.102-94.011-9.878-142.163-20.347 1.918-13.232 3.195-21.841 4.737-32.257 1.332.226 3.155.543 5.489.959 1.21.176 1.981.224 2.315.135z" fill="#dfcfab"/><path d="m423.175 340.832c4.047.691 6.262 1.162 6.639 1.4.211.123.314.379.304.749 0 .475-.078 1.175-.253 2.119-.189.943-.401 2.042-.644 3.316-.237 1.268-.373 1.972-.397 2.121-.035.116-.138.289-.306.518-.156.236-.408.398-.741.48-.334.088-1.099.041-2.315-.136-2.334-.416-4.157-.739-5.489-.958.511-3.45.998-6.752 1.469-9.898.569.094 1.144.195 1.739.296z" fill="#aaa9a5"/><path d="m551.991 385.366c-2.107-.396-3.255-.669-3.433-.817-.165-.141-.259-.267-.282-.398-.016-.124.048-.557.18-1.314l1.091-6.125c.107-.575.294-.98.586-1.219.325-.225.82-.276 1.479-.154 2.402.308 5.306.739 8.701 1.314l-1.139 9.952c-.886-.154-1.604-.272-2.128-.351-1.261-.198-2.948-.498-5.055-.888z" fill="#aaa9a5"/><path d="m451.951 357.919c.143 3.54-1.383 8.437 3.285 9.23 4.617.784 3.505-4.589 4.814-7.277.908-1.853 1.239-3.937-.026-5.876-1.316-2-3.493-2.431-5.461-1.959-3.113.759-2.022 3.805-2.625 5.875h.007z" fill="#eadf91"/><path d="m527.365 370.397c-.018-.995.022-2.665-.082-4.332-.132-2.025-.906-3.411-3.266-3.574-2.593-.176-3.118 1.649-3.369 3.429-.339 2.389-.393 4.838-.363 7.263.024 1.964.755 3.726 3.051 3.842 2.414.119 3.534-1.39 3.727-3.679.066-.759.158-1.51.309-2.949z" fill="#eadf91"/><path d="m496.297 366.136c-.029 2.456-1.26 5.399 2.352 6.552 1.462.463 3.188.537 3.946-1.022 1.612-3.322 1.809-6.924 1.083-10.512-.321-1.576-1.691-2.764-3.218-2.495-4.211.761-3.33 4.614-4.156 7.47h-.007z" fill="#eadf91"/><path d="m474.534 362.464c-.051 1.149-.351 2.357-.088 3.417.69 2.794 2.621 3.212 4.83 1.791 1.759-1.127 2.233-8.888.63-10.128-1.813-1.396-3.734-1.456-4.7 1.059-.462 1.196-.454 2.567-.659 3.855h-.006z" fill="#eadf91"/><path d="m492.26 293.055-24.56 41.756-5.632-3.523 24.56-41.756z" fill="#bb9e6a"/><path d="m531.125 300.041-34.874 38.902-5.061-4.911 34.874-38.902z" fill="#bb9e6a"/><path d="m462.862 290.44-34.874 38.902-3.917-6.329 33.723-37.485 5.061 4.912z" fill="#bb9e6a"/><path d="m535.101 299.721 22.8 47.023 6.217-3.318-22.8-47.023z" fill="#bb9e6a"/><path d="m536.479 299.292-6.357 43.828-6.038-.85 6.34-43.218c2.012.075 4.047.021 6.055.24z" fill="#bb9e6a"/><path d="m469.692 289.627-6.617 44.056-6.277-.883 5.714-44.067c2.388.326 4.783.633 7.18.894z" fill="#bb9e6a"/><path d="m497.928 293.602-6.616 44.055-6.277-.883 5.714-44.067c2.388.326 4.783.633 7.179.895z" fill="#bb9e6a"/><path d="m428.547 286.574c.797-2.265.89-7.033.89-7.033l142.102 20.587s-.953 4.373-.769 6.666z" fill="#bb9e6a"/><path d="m438.167 403.928c-.894 2.023-1.269 6.907-1.642 9.113-.791 4.664-1.051 6.769-1.694 11.451l12.66 1.905c1.017-6.699 2.705-15.57 2.031-21.524-.292-2.588-.99-5.552-3.052-6.838-.332-.21-.692-.363-1.066-.465-3.133-.867-5.941 3.41-7.237 6.358z" fill="#aee2ff"/><path d="m516.537 413.549c-.894 2.023-1.269 6.907-1.642 9.113-.792 4.665-1.051 6.77-1.694 11.451l12.66 1.905c1.017-6.699 2.704-15.57 2.031-21.523-.292-2.589-.99-5.553-3.052-6.838-.332-.211-.692-.364-1.066-.465-3.133-.867-5.941 3.41-7.237 6.357z" fill="#aee2ff"/><path d="m497.597 248.059c-1.294 2.616-1.724 8.994-2.225 11.866-1.058 6.08-1.394 8.827-2.225 14.927l19.33 2.876c1.346-8.731 3.64-20.282 2.433-28.09-.523-3.394-1.675-7.287-4.856-9.033-.518-.281-1.064-.498-1.632-.643-4.799-1.226-8.94 4.282-10.819 8.097z" fill="#aee2ff"/><path d="m431.59 367.436c.298-.206.741-.253 1.343-.151 2.518.317 5.629.799 9.327 1.435 3.704.636 5.732 1.062 6.071 1.28.198.116.295.346.292.69-.005.429-.081 1.071-.241 1.931-.16.847-.357 1.862-.591 3.032-.214 1.157-.342 1.804-.365 1.939-.023.11-.118.264-.267.474-.155.204-.373.354-.681.436-.301.083-1.008.037-2.127-.131-3.135-.561-5.275-.932-6.439-1.108-1.145-.181-2.683-.445-4.616-.81-1.932-.366-2.977-.609-3.142-.75-.153-.128-.234-.247-.257-.365-.016-.111.04-.506.163-1.198l1-5.594c.099-.524.271-.896.537-1.116z" fill="#aaa9a5"/><path d="m541.96 346.01c-.005.435-.082 1.083-.242 1.943-.16.847-.357 1.862-.577 3.033-.221 1.163-.349 1.797-.378 1.913s-.125.276-.28.486c-.155.204-.38.354-.701.436-.307.069-1.046.023-2.211-.14-3.245-.577-5.482-.964-6.685-1.154-1.196-.182-2.806-.467-4.815-.848-2.01-.381-3.101-.632-3.273-.767-.158-.128-.246-.247-.269-.365-.016-.111.04-.506.17-1.198l.999-5.594c.099-.524.278-.896.55-1.116.305-.199.78-.251 1.407-.136 2.615.332 5.843.831 9.689 1.504 3.86.659 5.966 1.095 6.317 1.312.204.123.315.36.305.698z" fill="#aaa9a5"/><path d="m478.257 267.888c-.007.475-.091 1.187-.267 2.125-.175.931-.387 2.036-.637 3.316-.237 1.274-.379 1.972-.409 2.095-.036.129-.138.302-.307.531-.168.223-.42.385-.766.473-.34.075-1.144.02-2.419-.152-3.555-.638-5.999-1.057-7.318-1.269-1.313-.206-3.071-.514-5.275-.933-2.197-.412-3.391-.692-3.582-.84-.171-.135-.265-.268-.294-.398-.016-.124.048-.558.179-1.315l1.092-6.125c.107-.575.306-.979.605-1.224.338-.219.852-.276 1.537-.146 2.861.365 6.393.912 10.601 1.646 4.222.722 6.528 1.201 6.911 1.44.224.136.347.393.336.763z" fill="#aaa9a5"/><path d="m579.448 201.402.922-5.376-7.674-2.039-1.797 5.559z" fill="#9b5d0e"/><path d="m565.768 192.007-5.719-1.523-1.198 6.447 5.585 1.214z" fill="#9b5d0e"/><path d="m552.621 206.085 1.857.279 23.343 3.612 3.091.508 1.672-8.773-5.224-1.14-6.787-1.468-6.489-1.409-4.436-.968-4.397-.954z" fill="#794502"/><path d="m581.412 228.823c-.287-1.847-4.377-7.57-5.481-9.239l2.225-9.539-23.352-3.605-3.344 15.708c3.341.632 6.202 1.219 8.565 1.765.685.123 1.153.351 1.391.676.199.33.238.78.145 1.356l-1.092 6.125c-.132.757-.228 1.183-.283 1.292-.068.115-.2.203-.417.275-.229.078-1.44-.079-3.651-.453-2.212-.373-3.97-.689-5.268-.952-.388-.076-.892-.174-1.48-.282l-9.816 46.092c.659-.34 29.791 18.831 30.45 18.486 1.205-.812 9.623-57.894 11.408-67.698z" fill="#dfcfab"/><path d="m574.189 240.504c-5.667-1.1-8.803-1.622-9.383-1.567-.338.036-.597.224-.723.565-.181.443-.35 1.141-.5 2.085-.142.939-.303 2.052-.495 3.347-.191 1.282-.289 1.987-.299 2.117-.003.136.056.34.178.622.122.277.382.531.791.763.403.213 1.454.502 3.146.874 3.36.633 5.971 1.134 7.844 1.498l2.071-9.796c-.853-.166-1.726-.333-2.63-.508z" fill="#aaa9a5"/><path d="m556.12 233.184c2.204.373 3.422.524 3.651.452.21-.072.342-.159.417-.274.055-.109.151-.536.282-1.292l1.092-6.125c.1-.576.054-1.026-.145-1.356-.237-.325-.705-.553-1.39-.676-2.363-.546-5.218-1.133-8.565-1.765l-2.083 9.796c.588.113 1.085.205 1.479.281 1.305.264 3.057.579 5.268.952z" fill="#aaa9a5"/><path d="m558.569 394.871-.367 11.149-145.421-20.608 3.254-11.471c10.084 1.066 20.393 2.236 30.926 3.509 34.594 4.314 72.272 10.299 111.608 17.415z" fill="#9b5d0e"/><path d="m529.581 258.884 1.137-6.117c.113-.576.332-.979.677-1.21.408-.21 1.013-.245 1.821-.105 3.133.405 6.956.986 11.456 1.734-.403 2.375-.802 4.814-1.196 7.325-.133.822-.267 1.682-.402 2.55-1.144-.188-2.063-.337-2.729-.44-1.565-.238-3.673-.602-6.304-1.072-2.63-.476-4.051-.782-4.267-.937-.217-.143-.343-.289-.379-.414-.009-.124.048-.558.192-1.308z" fill="#aaa9a5"/><path d="m409.963 288.019c-.041-.164-.076-.328-.097-.484-.31-2.193 5.399-5.915 6.859-7.297 3.015-2.855 6.018-5.716 9.007-8.59 5.525-5.313 29.778-29.417 41.255-40.681 6.036-5.909 12.307-12.579 18.628-18.241 4.596-4.11 9.446-9.448 14.187-13.424 3.731-3.134 10.847-11.243 14.316-11.25 3.106-.012 7.782 9.179 10.623 13.781 4.148 6.713 8.037 14.764 12.006 21.562 7.313 12.526 15.241 25.324 21.916 38.125 5.811 11.152 11.924 22.177 18.228 33.115 3.167 5.502 6.308 11.03 9.593 16.477 1.771 2.928 2.217 3.714-1.472 5.341-2.446 1.069-8.286 4.371-10.971 3.751-1.653-.384-5.553-8.734-6.998-11.686-3.812-7.788-7.401-15.668-11.509-23.341-8.246-15.413-17.084-30.556-26.099-45.619-3.428-5.724-6.875-11.442-10.224-17.202-1.389-2.392-2.642-4.754-4.579-6.829-1.539-1.648-2.274-4.457-3.987-3.341-2.659 1.733-10.154 7.564-13.408 10.847-4.317 4.352-8.703 8.643-13.07 12.955-11.346 11.183-23.049 22.388-33.88 33.995-5.63 6.032-26.248 26.512-27.281 26.958-4.562 1.979-11.895-4.646-13.037-8.929z" fill="#9b5d0e"/><path d="m564.142 343.232-.651 6.169-140.418-19.935c.349-2.285.688-4.439 1.004-6.452z" fill="#bb9e6a"/><path d="m470.249 406.235c2.244-2.226 4.731-3.853 7.449-4.649 1.906-.558 5.173-1.02 9.686-.485 2.505.33 5.127 1.364 7.792 3.174 2.902 1.959 4.88 4.198 6.068 6.324 4.83 9.064 5.871 19.591 3.485 32.108-.139.809-.305 1.636-.497 2.489-.558 2.558-3.247 19.22-4.047 21.85-1.896-.267-3.792-.534-5.688-.801.657-2.628 3.32-19.986 3.787-22.573 1.923-11.269 1.294-20.504-2.169-28.009-.847-1.772-2.291-3.593-4.437-5.148-1.896-1.431-3.803-2.244-5.661-2.471-3.284-.371-5.672.011-7.095.485-2.006.673-3.863 2.051-5.552 3.941-5.37 6.26-8.507 14.954-9.763 26.32-.267 2.612-2.548 20.026-2.642 22.734-1.747-.243-3.495-.493-5.242-.737-.021-2.744 2.046-19.501 2.19-22.117.069-.869.125-1.712.167-2.53 1.176-12.687 5.079-22.524 12.194-29.898z" fill="#aaa9a5"/><path d="m473.344 412.469c1.689-1.89 3.546-3.268 5.552-3.94 1.416-.475 3.811-.857 7.094-.486 1.865.221 3.766 1.034 5.662 2.471 2.146 1.555 3.596 3.376 4.437 5.148 3.463 7.506 4.091 16.74 2.169 28.009-.468 2.587-3.13 19.946-3.787 22.573l-.466-.065c-10.871-1.53-21.743-3.061-32.614-4.591l-.466-.065c.094-2.701 2.375-20.122 2.642-22.734 1.256-11.366 4.394-20.06 9.764-26.32z" fill="#8f4618"/><path d="m512.569 466.102c.65-.95 1.47-1.72 2.461-2.31 2.148-1.364 4.503-1.734 7.059-1.124 1.697.411 3.131 1.159 4.29 2.257.458-.364.972-.642 1.549-.841 1.254-.452 2.534-.475 3.841-.062.889.265 1.67.677 2.356 1.248.34-.562.745-1.097 1.227-1.623 1.507-1.642 3.269-2.652 5.281-3.039 1.906-.337 3.822-.121 5.763.648 1.831.733 3.463 1.864 4.915 3.373 1.296 1.297 2.134 2.679 2.523 4.126.172.59.266 1.184.288 1.782.335-.133.689-.247 1.049-.348 1.669-.447 3.314-.512 4.949-.187 1.603.285 2.773.935 3.505 1.956.801 1.114 1.026 2.602.709 4.446-.381 1.796-1.289 3.383-2.717 4.747-1.354 1.289-2.905 2.162-4.652 2.614-1.564.431-3.289.565-5.149.39-1.367-.129-2.937-.432-4.703-.917-.143-.004-.266-.02-.401-.05-5.485-.626-9.82-1.234-12.987-1.829-6.08-1.15-11.421-2.741-16.01-4.76-4.235-1.872-6.311-4.315-6.215-7.315.05-1.117.417-2.173 1.095-3.194h-.013z" fill="#698c45"/><path d="m223.171 441.834 2.007-18.123c-32.498 16.803-63.351 13.664-92.542-9.414l-2.359 21.378c26.669 20.013 57.64 22.075 92.903 6.168z" fill="#edb007"/><path d="m138.709 433.442c2.052-1.963 3.1-4.45 3.154-7.434.036-3.002-1.129-5.661-3.497-7.958-2.368-2.324-4.501-3.572-6.417-3.744-1.925-.208-4.003.678-6.208 2.622-2.205 1.927-3.48 4.387-3.805 7.371-.334 2.993.714 5.652 3.136 7.994 2.404 2.324 4.772 3.572 7.076 3.771 2.314.199 4.492-.678 6.552-2.631z" fill="#edb007"/><path d="m201.075 513.648c-1.843.127-4.328.28-7.437.461-2.142.163-4.058.398-5.757.733-.262.054-.524.099-.786.153-4.519.95-9.959 3.048-16.34 6.295-2.349 1.881-3.497 3.753-3.443 5.625.154 5.805 13.511 9.993 40.053 12.543 9.661.931 20.37 1.555 32.11 1.899 9.534.28 17.695.326 24.491.145 5.847-.154 12.137-.633 18.897-1.447 7.627-.896 14.496-2.071 20.641-3.518 15.616-3.69 23.334-8.293 23.19-13.819-.127-4.829-8.794-8.202-26.001-10.11-13.303-1.492-29.651-1.972-49.045-1.456-10.492.271-19.981.642-28.44 1.103-3.064.172-10.429.624-22.124 1.393z" fill="#000" fill-opacity=".15"/><path d="m251.277 473.929 2.838 13.447 40.812-.741 6.318-12.788c.171-3.798-8.459-5.643-25.91-5.507-17.587.099-25.594 1.953-24.03 5.571l-.018.018z" fill="#0e644f"/><path d="m288.565 423.819c-15.336-1.573-24.645 4.857-27.925 19.263 1.31 25.557 3.533 44.448 6.642 56.675l24.762-.651c-.388-.479-.714-1.058-.976-1.709-.334-.95-.596-2.225-.75-3.817-1.175-10.644-1.852-22.662-2.024-36.074-.109-7.714-.009-18.946.289-33.696h-.018z" fill="#efb207"/><path d="m316.798 526.182 1.473-5.255v-.054c-4.293 1.501-7.592 2.433-9.878 2.822-2.277.388-6.913.913-13.944 1.582-.877.073-1.826.136-2.847.163-3.507.09-7.908-.072-13.195-.47-1.961-.154-3.976-.362-6.046-.606-2.087-.235-4.211-.516-6.38-.823-3.389-.516-6.913-1.103-10.564-1.791-.262-.271.144.814 1.22 3.211.967 2.071 4.31 3.617 10.04 4.594.913.135 1.889.262 2.901.425 1.175.144 2.35.307 3.516.443 6.154.651 11.911.922 17.279.814l1.843-.045c5.658-.236 10.755-.823 15.309-1.755 4.998-1.031 8.089-2.116 9.246-3.255h.036z" fill="#095442"/><path d="m318.289 520.874c.723-2.478 1.247-4.766 1.572-6.837 1.446-9.523-1.419-15.184-8.639-17.011-3.218-.85-7.302-1.229-12.264-1.166.145-5.462.913-11.051 2.323-16.758 1.328-5.706.931-7.099-1.238-4.196-2.133 2.849-8.315 4.639-18.545 5.39-10.194.715-19.936-.986-29.244-5.128-1.392-2.134-1.781-1.844-1.22.851 1.924 14.406 2.629 23.82 2.105 28.206-.542 4.486-.669 7.994-.343 10.554.361 2.541 1.238 4.874 2.648 7.008 3.651.688 7.175 1.284 10.564 1.791 2.16.307 4.293.579 6.381.823 2.069.244 4.066.452 6.045.606 5.287.398 9.697.56 13.195.47 1.003-.027 1.952-.081 2.847-.163 7.031-.669 11.676-1.194 13.944-1.582 2.296-.389 5.594-1.321 9.878-2.822v-.018z" fill="#218a70"/><path d="m370.325 414.459c4.058-1.103 7.176-2.74 9.408-4.91 4.139-4.042 5.133-9.894 2.982-17.59-26.75-9.387-47.454-26.596-62.113-51.647l-17.152 16.713c5.765 13.963 14.541 25.837 26.352 35.622 10.935 9.043 24.446 16.323 40.532 21.794z" fill="#edb007"/><path d="m294.473 329.822c-2.187-2.559-5.214-4.359-9.091-5.417-2.702-.732-6.344-1.203-10.899-1.383-9.119-.398-16.656-.199-22.63.606-8.196 1.067-15.273 3.309-21.219 6.782-3.335 1.926-6.326 4.241-8.983 6.909-1.573 1.511-3.019 3.147-4.311 4.92-1.889 2.641-3.524 5.833-4.88 9.559-.407.977-.768 1.998-1.084 3.084-.976 3.038-2.079 7.678-3.326 13.936l-3.805 19.072c-.84 4.223-1.536 8.022-2.051 11.386-.669 4.277-1.094 7.868-1.256 10.78-.461 8.256.406 15.464 2.629 21.632 1.148 3.138 2.666 6.068 4.555 8.817 1.274 1.917 2.738 3.735 4.392 5.462 1.22 1.311 2.485 2.523 3.823 3.645 1.428 1.211 2.91 2.315 4.483 3.337 1.644 1.076 3.352 2.043 5.151 2.903 4.844 2.351 10.103 3.906 15.77 4.693 5.305.751 10.799.805 16.475.181 6.579-.723 12.616-2.351 18.101-4.874 6.037-2.759 11.008-6.484 14.894-11.151 4.22-5.037 7.365-11.44 9.453-19.208 1.572-5.842 2.684-13.14 3.334-21.903.118-1.456.217-2.903.308-4.323.262-4.703.397-9.179.397-13.421.027-10.146-.777-20.194-2.34-30.159-.787-4.748-1.744-9.487-2.865-14.181-.615-2.559-1.22-4.621-1.817-6.194-.867-2.216-1.934-4.052-3.172-5.508h-.018z" fill="#ffc221"/><path d="m292.659 329.883c-2.142-2.559-5.115-4.368-8.92-5.426-2.648-.741-6.226-1.212-10.7-1.392-8.947-.407-16.348-.208-22.213.596-8.044 1.059-14.984 3.31-20.822 6.774-3.272 1.926-6.209 4.232-8.812 6.909-1.545 1.51-2.955 3.147-4.229 4.92-1.853 2.641-3.452 5.833-4.781 9.559-.397.967-.75 1.998-1.066 3.084-.949 3.038-2.034 7.677-3.254 13.935l-3.732 19.064c-.822 4.223-1.5 8.022-2.006 11.386-.651 4.277-1.067 7.867-1.229 10.779-.452 8.257.406 15.465 2.584 21.632 1.13 3.129 2.621 6.068 4.474 8.827 1.247 1.917 2.684 3.735 4.311 5.462 1.192 1.311 2.44 2.523 3.759 3.653 1.401 1.212 2.865 2.316 4.401 3.338-3.425-3.238-6.217-6.864-8.359-10.916-3.29-6.168-4.935-13.022-4.935-20.565 0-11.783 1.699-24.29 5.052-37.539 2.458-9.713 5.739-19.416 9.833-29.102 16.267 4.712 30.952 7.054 44.002 7.063 9.471 0 18.084-1.058 25.847-3.165 3.298-.904 6.154-1.917 8.549-3.011-.777-4.748-1.717-9.487-2.82-14.19-.605-2.559-1.192-4.621-1.789-6.194-.849-2.216-1.898-4.052-3.118-5.508l-.045.018z" fill="#edb007"/><path d="m139.053 423.53c-.1-.244-.217-.488-.317-.724l.28.742s.019 0 .037-.018z" fill="#37b37b"/><path d="m187.538 165.684c-6.842-4.54-13.231-8.211-19.205-11.006-7.247-3.382-13.537-5.164-18.851-5.344-3.715-.118-7.004.56-9.869 2.025-2.223 1.113-4.22 2.695-5.956 4.766-.479.57-.948 1.203-1.391 1.854-2.928 4.323-5.097 10.319-6.444 18.015-1.148 6.393-1.789 14.171-1.952 23.341-.154 9.17.904 21.695 3.136 37.584 2.232 15.89 8.188 38.245 17.876 67.057l5.485-6.846 86.55-91.429c-7.329-6.62-13.989-12.462-19.999-17.553-11.071-9.288-20.849-16.776-29.38-22.455v-.018z" fill="#ffc421"/><path d="m272.217 155.483c4.031-6.927 8.061-12.896 12.083-17.933 4.871-6.095 9.561-10.382 14.098-12.842 3.163-1.709 6.281-2.559 9.344-2.541 2.377 0 4.745.516 7.095 1.546.65.281 1.31.624 1.97 1.004 4.311 2.478 8.621 6.756 12.968 12.842 3.615 5.064 7.122 11.096 10.493 18.105 4.392 8.79 8.928 19.814 13.61 33.044 2.494 6.937 6.47 29.726 11.911 68.387l-14.912-6.511-104.895-38.842c3.615-8.944 6.967-16.92 10.085-23.965 5.748-12.896 11.143-23.658 16.177-32.312l-.036.018z" fill="#ffc421"/><path d="m178.211 188.284c18.653-11.865 39.629-19.272 62.918-22.229 24.572-4.811 46.027-4.884 64.363-.208 15.192 3.861 27.22 9.224 36.095 16.106 20.867 16.161 34.233 40.017 40.098 71.543 3.923 20.628-1.229 39.845-15.444 57.633-2.476 3.102-5.224 6.06-8.242 8.836-71.819 34.311-133.029 39.429-183.602 15.365-29.344-16.767-44.165-44.286-44.454-82.567.994-3.907 2.015-7.307 3.082-10.219.063-.181.135-.38.244-.588.036-.334.144-.66.334-.967 1.166-3.265 2.504-6.421 4.022-9.487.316-.696.678-1.375 1.066-2.044 6.959-13.33 17.261-25.077 30.926-35.233 2.72-2.053 5.585-4.033 8.621-5.932z" fill="#ffc421"/><path d="m129.943 252.736c.289 38.281 15.11 65.8 44.454 82.567 50.573 24.064 111.773 18.946 183.601-15.365-8.901 8.157-20.126 14.967-33.663 20.447-1.238.497-2.495.977-3.769 1.465-.352.127-.696.262-1.03.389-.678.235-1.338.47-1.988.687-1.51.516-2.992 1.031-4.465 1.547-4.446 1.392-9.082 2.695-13.908 3.915-2.124.516-4.248 1.004-6.389 1.465-11.451 2.478-23.994 4.341-37.614 5.598-.198.018-.406.046-.641.082-.38.036-.768.099-1.166.181-11.17 1.736-25.151 1.962-41.933.687-16.836-1.293-31.323-5.444-43.46-12.462-.063-.018-.118-.036-.154-.063-.063-.064-.108-.091-.135-.091-1.356-.795-2.666-1.618-3.968-2.469l-3.813-2.631c-.163-.127-.344-.253-.524-.398-.389-.289-.769-.561-1.157-.841-5.92-5.236-9.941-9.089-12.065-11.54-2.16-2.441-3.317-3.789-3.488-4.024-.38-.479-.741-.967-1.085-1.465-.976-1.347-1.934-2.749-2.856-4.187-7.302-11.458-11.468-23.061-12.489-34.817-.054-.118-.081-.226-.081-.317-.009-.153-.019-.316-.019-.47-.171-1.8-.198-3.626-.063-5.462-.045-1.203 0-2.406.109-3.609.045-.985.144-1.971.298-2.966.09-.85.217-1.673.398-2.46.28-1.971 1.31-6.439 3.081-13.384z" fill="#efb207"/><path d="m158.989 268.336c-.705 2.496-.786 5.091-.226 7.813.289.588.804.579 1.536-.036 10.628-13.366 24.618-19.389 41.988-18.087 20.18 3.22 32.525 11.657 36.989 25.313.398.723.967.886 1.744.461 1.121-1.827 1.799-3.301 2.025-4.413.65-3.183.144-7.081-1.528-11.684-1.653-4.621-4.564-8.7-8.703-12.254-4.112-3.527-8.784-6.086-14.007-7.714-5.215-1.61-8.441-2.514-9.679-2.686s-2.865-.389-4.88-.606c-1.817-.226-2.947-.353-3.407-.335-.064-.036-.1-.036-.127 0-12.499-.732-23.108 2.505-31.838 9.713-4.483 3.672-7.772 8.51-9.869 14.533h-.018z" fill="#674d39"/><path d="m317.566 206.352c-11.939-.28-22.322 3.5-31.161 11.35-8.802 7.859-13.501 17.463-14.107 28.858-.596 11.394 3.1 21.206 11.053 29.454 7.989 8.248 17.957 12.516 29.904 12.796 11.92.281 22.268-3.508 31.07-11.34 8.856-7.85 13.601-17.472 14.179-28.858.597-11.394-3.117-21.206-11.143-29.445-7.952-8.248-17.902-12.516-29.813-12.778l.018-.018z" fill="#fff"/><path d="m325.536 237.127c-3.09 2.74-4.744 6.095-4.934 10.047-.199 3.988 1.094 7.425 3.877 10.31 2.784 2.885 6.263 4.377 10.438 4.467 4.148.1 7.772-1.221 10.854-3.979 3.091-2.74 4.735-6.113 4.943-10.101.208-3.952-1.093-7.371-3.886-10.256-2.792-2.903-6.272-4.395-10.42-4.494-4.166-.091-7.79 1.221-10.872 3.979v.018z" fill="#413434"/><path d="m244.554 328.457c1.735 5.58 5.585 9.387 11.531 11.413 5.423 1.854 11.93 2.043 19.557.596 11.279-2.179 18.192-13.357 16.222-24.815-1.003-5.806-.569-8.51-6.796-8.048-5.621.425-11.233 1.067-16.837 1.745-14.369 1.764-22.412 2.695-24.192 2.794-.036 9.596.117 15.04.515 16.315z" fill="#674d39"/><path d="m266.397 281.72c-3.949.552-5.919 1.004-5.919 1.33-4.438 1.926-8.884 4.015-13.312 6.258-8.893 4.503-13.303 7.777-13.285 9.812 0 .452-.208 1.139-.633 2.053-.461.895-.668 1.573-.659 2.025.018 1.04.108 2.08.271 3.093.126 4.45.605 6.647 1.455 6.611.47-.009.587.154.334.506-.271.344-.154.507.316.498s.687.154.624.506c-.063.344.126.489.596.48.073-.019.886.352 2.459 1.067 1.572.714 2.385 1.067 2.458 1.067.587-.027 1.093.099 1.491.398.416.271.732.407.958.389.47-.009 1.455.135 2.937.479 1.491.325 2.458.47 2.946.461 2.061-.199 4.085-.461 6.055-.787 3.922-.642 5.874-1.266 5.856-1.872-.009-.054 1.085-.651 3.272-1.79 2.187-1.131 3.262-1.737 3.262-1.809 0-.615.271-1.013.832-1.221.343-.145.994-.217 1.933-.253.47-.009.588.154.344.524-.262.371-.163.543.325.534.624-.027 1.139.289 1.573.941.424.633.75.94.967.949.47-.009.795.127.931.452.153.308.46.461.93.452s.976.181 1.51.624c.533.444 1.039.643 1.509.624.47-.009 1.075.199 1.789.606.714.434 1.32.633 1.79.606.47-.009 1.5.127 3.09.425 1.582.299 2.603.452 3.091.425 2.675-.099 5.07-.407 7.167-.904 3.262-.778 4.871-1.908 4.862-3.373-.009-.199.343-.525 1.048-.95.705-.434 1.057-.759 1.066-.976 0-.453.217-.941.696-1.456.479-.516.696-1.004.696-1.456 0-.706-.461-2.252-1.328-4.64-1.04-2.821-2.341-5.182-3.923-7.126-1.59-1.926-3.931-4.232-7.049-6.918-3.117-2.686-5.512-4.567-7.175-5.625-1.654-1.04-2.883-1.556-3.678-1.519-1.266.054-2.648-.335-4.185-1.14-1.536-.796-2.946-1.185-4.22-1.13-.678.027-2.702.289-6.073.786z" fill="#ffc421"/><path d="m267.273 288.241c-.289.343-.433 1.067-.415 2.161l.054 17.092c-.398.588-.795 1.122-1.166 1.619-3.47 4.06-8.142 6.493-14.035 7.316-2.395.298-5.467-.054-9.209-1.067-3.75-.995-7.049-4.088-9.914-9.297-1.201 1.411-1.554 3.156-1.057 5.255.515 2.107 1.78 4.024 3.832 5.733 2.069 1.709 4.383 3.039 6.941 3.952 3.289 1.04 6.47 1.51 9.516 1.384 6.344-.263 12.272-2.967 17.821-8.13 6.742 4.44 12.725 6.538 17.966 6.285 5.26-.253 8.432-.796 9.526-1.646 2.512-1.112 4.509-2.813 6-5.101 1.492-2.297 2.296-4.214 2.422-5.742.145-1.538-.298-3.192-1.283-4.983-2.548 5.887-5.603 9.496-9.209 10.807-2.548.904-5.052 1.284-7.483 1.148-5.883-.343-10.628-2.396-14.224-6.212-.38-.444-.787-.941-1.22-1.493l-.226-15.609c-.19-2.08-.38-3.282-.534-3.599-1.509-3.391-2.882-3.328-4.103.163z" fill="#674d39"/><path d="m257.396 287.951c-1.012.733-1.808 1.492-2.359 2.261 1.753 6.276 6.66 9.649 14.695 10.147 7.094-1.004 11.368-4.992 12.778-11.947-1.138-1.202-2.539-2.179-4.202-2.894-3.009-1.284-6.579-1.7-10.736-1.229-4.157.479-7.546 1.709-10.185 3.644v.018z" fill="#674d39"/><path d="m296.536 369.722c2.223 5.426 6.525 11.34 13.14 18.087 1.076 1.103 2.296 2.197 3.615 3.255.054.046.117.064.181.064h.045l.154-.027c.144-.028.298-.046.451-.064 10.149-1.103 18.373-5.29 21.988-11.223.072-.126.036-.289-.09-.37-2.639-1.628-6.372-4.396-6.977-4.875-2.892-2.27-4.853-4.377-6.57-7.045-1.121-1.745-2.061-3.599-2.838-5.525-6.751 4.087-15.734 4.639-23.958 5.471.281.769.561 1.519.859 2.243z" fill="#9e5707"/><path d="m372.196 380.746s-.045.027-.064.036c-.659.57-1.427 1.049-2.286 1.438-9.109 4.133-20.975 4.069-30.962-.163-.578-.244-1.183-.533-1.906-.922-.028-.018-.064-.027-.091-.027l-.217-.037c-.235-.036-.461-.072-.696-.108-6.705-.959-14.342.353-20.424 3.5-1.021.524-2.024 1.157-2.44 2.17-.217.534-.271 1.167-.153 1.944.451 3.048 3.253 5.345 5.72 7.371.398.325.786.642 1.148.958 4.528 3.853 9.01 5.779 10.926 6.602 2.702 1.149 13.249 3.889 16.068 4.052 4.627.271 8.034.407 10.004.397.516 0 .94-.009 1.257-.027 7.627-.497 7.916-.542 15.318-1.655 3.045-.452 8.287-2.55 11.423-3.807l.813-.325c2.856-1.149 5.404-2.84 7.863-4.477.09-.063.135-.172.117-.271-.009-.045-.027-.091-.063-.127 1.636-1.393 3.091-3.057 4.329-4.947.515-.443 1.039-.913 1.608-1.438 2.775-2.613 4.654-5.218 5.567-7.75.163-.307.47-.777.859-1.374 1.147-1.755 3.109-4.757 4.844-8.935-8.405-.29-16.855-2.351-25.088-4.377-2.901 5.218-7.537 9.459-13.474 12.29z" fill="#964e03"/><path d="m414.328 356.121c.018-.633.054-1.357.09-2.126.145-2.848.325-6.393-.217-8.754-.976-4.196-2.368-9.097-5.332-13.574-6.236-9.423-19.294-13.366-29.434-13.909-5.233-.28-11.658.642-16.764 2.415-4.555 1.583-10.393 4.603-12.39 10.02-1.175 3.21-1.257 7.795-.181 11.666.307 1.112.876 2.686 2.259 3.482 1.835 1.049 4.148.208 5.359-.389.606-.299 1.22-.525 1.826-.751 1.373-.506 2.675-.994 3.732-2.179 1.889-2.125 4.718-3.663 7.573-4.124.588-.09 1.157-.199 1.736-.298 1.979-.353 3.849-.679 5.847-.67 4.166.037 7.889 1.366 10.221 3.663 1.816 1.791 3 4.368 3.335 7.253.623 5.363-1.022 9.287-2.928 13.845-.217.525-.443 1.058-.66 1.601-.515 1.266-1.211 2.577-2.07 3.916 0 0-.009.018-.018.027-.027.054-.063.108-.09.163-.027.054-.063.108-.091.172-.153.298-.316.596-.479.895 8.233 2.026 16.683 4.087 25.088 4.377.389-.941.768-1.935 1.13-2.994 1.482-4.386 2.304-9.007 2.44-13.718z" fill="#aa5e0b"/><path d="m362.562 334.751c-1.663-4.784-4.853-9.161-9.209-12.67-1.545-1.239-3.669-2.188-5.549-3.02-.253-.118-.506-.226-.75-.335-4.401-1.98-8.938-3.274-13.474-3.834-8.586-1.058-16.755.723-24.97 5.462-5.784 3.337-13.113 10.734-14.849 16.875-2.286 8.076-1.961 17.752.913 27.23.317 1.031.651 2.043 1.012 3.029 8.224-.832 17.207-1.383 23.958-5.471-.163-.416-.325-.823-.47-1.248-1.572-4.459-2.096-9.152-1.527-13.574.633-4.929 2.115-8.691 7.537-12.227 3.57-2.324 9.444-1.375 11.161-1.031 4.925.995 7.194 3.853 8.224 6.068 1.473 3.174 1.31 7.036-.416 9.849-.931 1.519-1.419 2.857-1.943 4.648-.343 1.166-.181 2.378.425 3.337.976 1.519 2.458 2.252 4.031 3.029.162.082.334.163.497.245.876.434 1.626 1.012 2.349 1.564.624.479 1.275.977 1.997 1.384 1.211.678 2.386.841 3.48.479 2.051-.678 3.389-3.039 4.157-4.902 1.744-4.277 3.552-8.699 4.383-13.311.696-3.871.38-7.76-.949-11.576z" fill="#b56712"/><path d="m333.11 361.809c-3.136 2.125-6.833 3.907-10.167 5.526-2.784 1.347-5.938 2.839-8.956 3.635-4.239 1.112-9.146.308-13.511.651-1.825.145-5.061-.063-7.329.733-.081.072-.172.163-.208.199-.099.108-.19.208-.28.325-.072.091-.398.615-.127.154-.072.127-.144.244-.217.371-.171.316-.325.651-.461.985-.063.163-.117.326-.171.489-.027.081-.045.163-.072.244-.091.362-.181.714-.263 1.085-.162.769-.289 1.547-.424 2.324-.145.896-.299 1.8-.488 2.695.189 1.945.488 3.889.605 5.752.271 4.332 2.63 5.887 7.067 6.484 2.151.289 4.32.407 6.471.597 2.133.199 4.338.335 6.534.335 3.479-.606 6.904-1.637 9.905-2.659 4.292-1.465 8.26-3.346 12.119-5.634 3.832-2.27 8.63-4.603 12.037-7.497-5.675-4.196-10.112-10.075-12.073-16.758z" fill="#c47410"/><path d="m349.937 373.421c3.841-3.916 6.688-8.664 8.974-13.52-2.693-1.33-5.106-3.346-7.42-5.589-1.888-1.818-3.732-3.572-5.919-5.073-.868-.597-1.699-1.194-2.494-1.809-.75 2.152-1.22 4.621-1.79 6.213-.054.144-.09.298-.117.452-.262.515-.533 1.013-.85 1.474-1.247 1.827-3.533 3.437-5.286 4.847-.606.489-1.257.95-1.925 1.402 1.961 6.683 6.398 12.561 12.073 16.758.217-.181.425-.371.633-.552 1.455-1.339 2.847-2.912 4.13-4.594z" fill="#b56712"/><path d="m412.222 388.55c.027-.117.054-.226.081-.343.506-2.216 1.627-5.3-.443-7.126-1.925-1.692-5.747-1.972-8.187-2.515-6.905-1.546-14.514-1.537-20.885-4.386-11.857-5.317-21.175-15.174-28.242-25.195-1.355-1.926-3.073-2.857-4.609-4.603-1.5-1.7-6.76-5.769-9.019-3.237-.515.579-.868 1.356-1.121 2.197-.732.977-1.355 2.053-1.771 3.129-.777 2.017-.813 4.151-.624 6.276.172 1.836.398 3.699.832 5.499.117.488.235 1.013.416 1.519.225.85.56 1.646 1.048 2.351 4.781 6.937 10.781 14.09 17.586 19.399 6.525 5.091 13.113 8.88 20.641 12.642 4.745 2.37 10.032 3.039 15.011 4.694 3.733 1.239 10.077 2.948 13.502.389.578-.434 1.039-.995 1.455-1.565 2.051-2.749 3.525-5.86 4.32-9.125z" fill="#c47410"/><g fill="#ead2b2"><path d="m388.521 386.397c.101-.867-.136-1.505-.693-1.934-.583-.429-1.331-.721-2.252-.858s-1.669-.009-2.234.402c-.593.392-.885 1.049-.876 1.971.009.921.356 1.706 1.022 2.336.693.657 1.495.93 2.407.83.894-.109 1.532-.374 1.915-.803.337-.429.575-1.077.711-1.944z"/><path d="m362.897 368.412c-.52-.429-1.021-.575-1.514-.429-.529.146-1.03.447-1.495.921-.484.475-.712.968-.684 1.479 0 .511.301.967.884 1.35.584.383 1.213.52 1.897.402.684-.11 1.176-.447 1.495-1.022.311-.575.42-1.059.338-1.451-.137-.384-.438-.812-.912-1.26z"/><path d="m391.859 330.542c.347-.447.602-1.122.748-2.025.1-.904-.137-1.579-.73-2.026-.611-.447-1.395-.749-2.352-.895-.958-.146-1.742-.009-2.335.42-.62.411-.921 1.095-.912 2.062.009.968.365 1.78 1.067 2.446.721.684 1.559.976 2.517.867.939-.11 1.605-.392 1.997-.84z"/><path d="m322.052 323.662c-.647.182-1.058.493-1.213.94-.182.529-.191 1.095-.018 1.724.11.648.392 1.114.83 1.369.465.31 1.021.347 1.669.119.675-.21 1.131-.63 1.368-1.26.292-.602.292-1.195-.019-1.761-.31-.602-.647-.976-1.03-1.131-.438-.137-.967-.128-1.587 0z"/><path d="m372.335 328.033c-.666.493-1.103 1.077-1.313 1.743-.283.712-.082 1.213.584 1.515.647.273 1.176.465 1.577.574.401.083.812-.018 1.231-.319.401-.319.675-.757.821-1.287.064-.574.036-1.241-.091-1.998-.228-.73-.602-1.077-1.113-1.031-.483.018-1.058.292-1.696.803z"/><path d="m319.125 384.153c.638.538 1.322.702 2.061.52.766-.146 1.331-.603 1.669-1.387.346-.803.465-1.469.346-1.999-.146-.556-.465-1.14-.966-1.752-.584-.575-1.149-.766-1.697-.584-.574.201-1.121.639-1.632 1.296-.547.657-.784 1.323-.72 1.998 0 .721.319 1.351.93 1.908z"/><path d="m402.547 362.288c.073.676.465 1.196 1.167 1.57.711.383 1.468.429 2.27.119.812-.311 1.377-.895 1.706-1.762.355-.821.465-1.469.328-1.943-.182-.475-.556-.958-1.14-1.442-.629-.475-1.24-.539-1.86-.21-.62.292-1.195.812-1.742 1.57-.52.72-.775 1.414-.748 2.098z"/><path d="m342.005 397.412c-.119-.329-.374-.685-.775-1.059-.438-.347-.867-.474-1.277-.365-.456.137-.875.402-1.267.794-.411.401-.602.812-.575 1.232 0 .447.255.83.739 1.159.483.328 1.021.447 1.586.328.575-.091.994-.383 1.268-.867.274-.483.365-.894.292-1.222z"/><path d="m299.546 346.915c.009.967.374 1.789 1.067 2.455.73.693 1.569.976 2.535.867.94-.11 1.605-.393 2.007-.84.346-.456.601-1.131.747-2.035.101-.903-.136-1.588-.729-2.035-.611-.456-1.405-.757-2.362-.903-.967-.146-1.751-.009-2.353.42-.62.41-.93 1.104-.921 2.071z"/></g><path d="m209.29 180.307-1.003-7.171c-.976.072-1.916.289-2.828.66-1.428.588-2.766 1.537-4.022 2.831-1.545 1.609-2.097 4.06-1.654 7.352.063.416.145.832.235 1.266 2.377 8.528 8.549 15.229 18.527 20.094.171.055.343.118.515.199-1.365-1.266-2.386-2.378-3.055-3.337.09.027-.578-.958-2.033-2.939-5.314-7.687-6.878-14.008-4.691-18.964z" fill="#5da40a"/><path d="m281.823 169.075c-.876-3.744-2.647-5.923-5.313-6.529-.94-.208-1.844-.335-2.703-.371-1.174-.045-2.286.063-3.334.326-.208.063-.407.135-.597.189l1.202 5.237c.1.678.741 2.052 1.943 4.142 1.193 2.061 1.862 5.272 1.988 9.622.109 4.359-.162 7.84-.804 10.445-.669 2.586-1.021 3.97-1.048 4.133.542-.543 1.066-1.067 1.59-1.583 2.079-2.188 3.868-5.679 5.377-10.463 1.989-6.367 2.558-11.422 1.709-15.148z" fill="#5da40a"/><path d="m273.021 172.069c-1.202-2.08-1.852-3.464-1.943-4.142l-1.184-5.173c-.135 0-.262.018-.397.045-.091.018-.163.036-.226.045-40.297 6.828-60.622 10.256-60.975 10.292l1.003 7.171c-2.196 4.956-.632 11.277 4.691 18.964 1.446 1.99 2.124 2.967 2.033 2.939.669.959 1.69 2.071 3.055 3.337.361.127 2.467.986 6.299 2.587.271.126.551.235.84.325 3.236 1.276 7.194 2.334 11.875 3.166.678.126 1.392.244 2.133.361 6.046.977 11.378.154 16.023-2.459 4.654-2.623 8.296-5.02 10.908-7.217 2.612-2.216 4.609-4.223 6.001-6.05.036-.163.379-1.538 1.048-4.133.642-2.605.913-6.086.804-10.445-.126-4.35-.786-7.561-1.988-9.622z" fill="#6cb616"/><path d="m261.553 175.324c-4.103 2.37-7.7 4.115-10.791 5.236-3.09 1.122-5.793 1.854-8.124 2.216-2.35.362-4.013.57-4.98.642-.994.073-5.033-.009-12.11-.253-7.076-.244-12.95-1.348-17.631-3.301-.145 2.84-.037 5.2.343 7.072 4.853 2.17 10.718 3.699 17.596 4.594 6.877.895 12.082 1.112 15.625.66s5.928-.805 7.148-1.067c5.116-1.275 9.896-3.346 14.325-6.213 4.645-3.02 8.296-6.692 10.953-11.033l-1.067-5.742c-3.416 2.423-7.184 4.82-11.287 7.189z" fill="#2d5805"/><path d="m251.079 139.078c-6.814-.181-12.436.1-16.864.85-4.446.733-8.115 1.583-11.016 2.551-2.919.976-6.01 2.36-9.291 4.178-3.28 1.79-5.079 4.992-5.395 9.595-.316 4.585-.515 12.453-.596 23.612 4.672 1.963 10.555 3.057 17.631 3.301 7.077.244 11.116.326 12.11.253.976-.072 2.639-.28 4.98-.642 2.332-.353 5.034-1.094 8.124-2.216 3.091-1.121 6.688-2.866 10.791-5.236 4.103-2.369 7.871-4.766 11.287-7.189-3.786-13.131-7.058-21.75-9.796-25.837-1.175-1.954-5.16-3.03-11.956-3.22z" fill="#6cb616"/><path d="m244.951 150.943c11.966-3.843 18.156-6.357 18.554-7.542-.091-2.451-4.211-3.934-12.381-4.44-8.17-.507-16.62.379-25.368 2.667-7.546 2.352-12.417 4.757-14.613 7.217-.786 1.691 7.781 2.776 25.702 3.256 2.847.416 5.278.135 7.302-.823.136-.118.398-.226.804-.335z" fill="#5da40a"/><path d="m272.172 118.74c-1.229 2.911-2.504 6.276-3.805 10.101-2.576 7.615-3.967 13.719-4.175 18.295-.244 5.037.235 9.559 1.437 13.583 1.066 3.699 2.684 6.783 4.835 9.261.027-.028.045-.046.054-.082l.126-3.093c-1.437-13.465-.93-29.49 1.528-48.065z" fill="#d6efa0"/><path d="m272.181 118.767v-.037c-2.467 18.576-2.973 34.601-1.537 48.066l-.126 3.093c1.97-3.156 3.389-7.027 4.266-11.612.876-4.856 1.355-11.295 1.436-19.307.055-4.531-.225-8.98-.849-13.339-.289-2.008-.642-4.016-1.057-6.014-.353-1.673-.741-3.328-1.175-4.974l-.958 4.106z" fill="#81b448"/><path d="m273.437 166.823c-.705-.768-1.645-1.058-2.811-.895-1.147.172-2.033.497-2.657.995-.397.353-.714.823-.949 1.411-.108.208-.217.443-.325.705-.352.886-.09 1.854.777 2.903.805 1.04 1.726 1.483 2.766 1.302.027 0 .063-.009.099-.018.443.045.895-.027 1.338-.217 1.12-.443 1.87-.823 2.25-1.148.379-.299.578-1.022.587-2.18.018-1.139-.334-2.098-1.075-2.876z" fill="#f3ffb3"/><path d="m363.304 422.997c1.418.76 2.946 1.357 4.563 1.773 2.666.669 5.513.913 8.541.75 3.298-.226 6.299-.868 8.965-1.944 4.518-1.827 8.558-5.173 12.128-9.993.939-1.212 1.699-2.397 2.304-3.59.533-1.058.904-2.089 1.112-3.093.434-1.827.443-3.69.018-5.607-.461-1.926-1.338-3.69-2.63-5.282-1.365-1.582-3.037-2.83-5.007-3.716-2.024-.878-4.03-1.257-6.037-1.131-.162.036-.307.045-.46.045-.615-.669-1.202-1.193-1.736-1.573-.876-.669-1.861-1.185-2.964-1.565-.84-.307-2.187-.588-4.021-.886-1.609-.226-2.883-.217-3.823.054-.66.217-1.437.651-2.296 1.284l-.488.308c-.596.316-1.147.714-1.654 1.212-.723.569-1.192.995-1.418 1.302-.29.344-.606.868-.958 1.574-.425.832-.66 1.519-.714 2.071-.082.542-.027 1.166.162 1.872-.027.262-.063.515-.117.768-1.166-.515-2.422-.669-3.732-.452-1.202.226-2.314.705-3.317 1.429-1.401 1.112-2.675 2.957-3.778 5.544-.334.813-.578 1.474-.75 2.025-.108.29-.199.543-.28.76-.542 2.333-.325 4.802.669 7.416.985 2.64 2.503 4.847 4.609 6.592.958.796 1.988 1.492 3.091 2.062l.018.027z" fill="#edb007"/><path d="m192.237 459.351-5.567 14.298 36.7 18.105 13.276-9.442c2.44-3.572-4.13-9.333-19.719-17.264-15.671-8.012-23.904-9.911-24.681-5.706z" fill="#106651"/><path d="m247.771 452.46c3.732-7.886 1.916-13.909-5.422-18.033h-.009c-7.881-4.395-15.011-3.707-21.392 2.071-6.163 9.225-14.152 20.375-23.957 33.461-3.904 5.218-8.08 10.762-12.571 16.586l-.226.289c-.145.199-.28.398-.425.597-2.494 3.617-4.275 6.683-5.368 9.215-1.066 2.487.497 5.146 4.69 7.967 4.176 2.813 9.562 6.24 16.15 10.283 6.561 3.979 11.423 5.453 14.604 4.377.75-.226 1.491-.57 2.223-1.013 2.269-1.375 4.293-3.599 6.046-6.665 2.323-4.061 1.618-8.012-2.151-11.838-1.446-1.456-2.91-2.93-4.374-4.386 2.63-3.455 5.133-6.755 7.483-9.875 11.441-15.103 19.665-26.1 24.699-33.018z" fill="#edb007"/><path d="m247.789 452.487c3.733-7.886 1.916-13.909-5.422-18.032h-.018c-7.881-4.396-15.011-3.708-21.392 2.07l.055 7.76-26.254 37.53c-3.081 3.084-4.807 4.856-5.16 5.299-.271.317-.777.986-1.554 2.026-.317.47-.678.995-1.103 1.592-3.009 4.304-3.298 8.048-.858 11.223 1.428 1.863 5.35 4.702 11.721 8.491 1.491.887 3.651 1.999 6.498 3.328 2.783 1.339 4.717 2.153 5.775 2.469 2.187.814 3.949 1.42 5.286 1.809.226.036.461.099.687.19 2.269-1.375 4.293-3.599 6.046-6.665 2.323-4.061 1.618-8.013-2.151-11.838-1.446-1.456-2.91-2.93-4.374-4.386 2.63-3.455 5.133-6.755 7.483-9.875 11.441-15.103 19.665-26.1 24.699-33.018h.018z" fill="#ffc221"/><path d="m224.482 531.934.027-.046c-4.564-.624-7.962-1.275-10.176-1.953-2.196-.669-6.534-2.288-13.032-4.874-.804-.326-1.672-.715-2.557-1.14-3.1-1.501-6.851-3.608-11.243-6.348-1.617-1.022-3.253-2.107-4.925-3.256-1.681-1.158-3.389-2.36-5.097-3.599-2.684-1.99-5.422-4.097-8.233-6.349-.081-.343-.316.778-.705 3.392-.289 2.269 1.772 5.127 6.209 8.582.723.524 1.5 1.076 2.295 1.673.94.66 1.88 1.32 2.82 1.98 5.007 3.355 9.878 6.177 14.622 8.501.57.262 1.103.534 1.645.787 5.052 2.333 9.823 4.124 14.315 5.345 4.925 1.338 8.206 1.754 9.86 1.284l4.184-3.988v.018z" fill="#106651"/><path d="m224.536 531.906c2.007-1.872 3.706-3.653 5.142-5.335 6.525-7.75 7.131-14.063 1.844-18.928-2.341-2.189-5.675-4.386-10.04-6.547 3.136-4.766 6.886-9.36 11.26-13.783 4.32-4.431 4.727-5.86 1.229-4.268-3.443 1.555-9.823.353-19.132-3.581-9.272-3.952-16.836-9.858-22.665-17.707-.036-2.505-.542-2.433-1.518.19-6.272 13.61-10.854 22.228-13.728 25.891-2.946 3.726-4.98 6.773-6.109 9.17-1.094 2.405-1.618 4.865-1.555 7.388 2.811 2.252 5.549 4.359 8.233 6.349 1.708 1.239 3.407 2.442 5.097 3.599 1.654 1.149 3.299 2.234 4.926 3.256 4.374 2.74 8.133 4.847 11.242 6.348.895.434 1.744.805 2.557 1.14 6.498 2.568 10.845 4.205 13.032 4.874 2.214.696 5.612 1.348 10.176 1.954h.018z" fill="#25a182"/><path d="m212.218 374.479c.217 2.74.525 5.688 1.464 8.274.94 2.614 2.459 5.155 4.51 7.696 1.347 2.768 3.154 5.399 5.413 7.904 2.838 3.183 6.128 5.896 9.914 8.221 3.371 2.089 7.158 3.87 11.414 5.435 3.543 1.311 7.583 2.532 12.146 3.735 4.754 1.248 9.047 2.206 12.897 2.767 4.654.705 8.947.922 12.896.524 3.452-.334 6.082-1.184 7.871-2.667.642-.525 1.166-1.149 1.582-1.836.922-1.547 1.392-3.726 1.337-6.575-.054-3.337-.623-6.638-1.662-9.911-.606-1.972-.877-2.677-1.754-4.124-2.331-.127-4.672-.226-6.995-.289-4.184-.136-7.175-.163-9.028-.254-4.5-.153-9.263-.895-13.628-1.582-4.365-.688-8.45-1.899-12.49-3.898-1.527-.751-2.855-1.619-3.994-2.605-.244-.208-.488-.425-.705-.642-.741-.551-1.365-1.121-1.907-1.7-1.22-1.311-2.205-2.93-2.928-4.874-.56-1.474-1.039-3.283-1.437-5.444-.587-3.175-.994-5.001-1.111-5.463-.561-2.07-1.329-3.825-2.269-5.272-.768-1.166-1.256-1.935-1.437-2.288-.126-.253-.226-.506-.298-.732-.352-.272-.741-.543-1.157-.787-1.952-1.158-4.103-1.827-6.407-1.99-1.735-.135-3.344.036-4.835.489-5.748 1.564-7.826 12.416-7.429 17.607 0 .082 0 .172.027.253z" fill="#ffcf54"/><path d="m211.794 374.497c.189 1.456.46 2.866.75 4.151.37 1.654.75 3.011 1.138 4.105.949 2.614 2.459 5.155 4.51 7.696 1.347 2.767 3.154 5.399 5.413 7.904 2.838 3.183 6.119 5.896 9.914 8.221 3.371 2.089 7.158 3.87 11.414 5.435 3.543 1.311 7.583 2.532 12.146 3.735 4.754 1.248 9.047 2.188 12.897 2.767 4.654.705 8.947.922 12.896.524 3.452-.334 6.082-1.184 7.871-2.667-4.121-.018-9.652-.407-16.502-.869-6.868-.461-15.291-2.387-25.413-5.127-3.822-.914-7.934-2.867-12.489-5.779s-9.2-7.605-14.433-14.053c-5.232-6.466-7.392-14.298-6.317-23.893.109-1.049.904-3.147 2.341-6.331.56-1.238 1.13-2.477 1.69-3.707-.443.126-.877.28-1.292.452-6.815 2.912-7.429 10.762-6.543 17.445h.018z" fill="#edb007"/><path d="m314.936 386.66c-.09-.145-.217-.371-.407-.66-.569-.859-1.509-1.547-2.837-2.08-3.1-1.158-6.778-.932-11.035.705-4.338 1.673-7.853 4.061-10.565 7.172-1.455 1.682-2.611 3.509-3.479 5.471-.904 2.053-1.437 4.178-1.59 6.376-.226 2.903.171 5.878 1.201 8.898.66 2.071 1.474 3.781 2.495 5.119 1.599 2.17 3.895 3.861 6.877 5.073 2.178.896 4.916 1.547 8.224 1.972 2.458.371 4.537.497 6.227.407 2.973-.091 5.883-.733 8.73-1.881 2.729-1.14 5.259-2.695 7.564-4.667 2.494-2.134 4.284-4.422 5.368-6.882.624-1.429.994-2.894 1.094-4.386.144-1.564-.037-3.075-.506-4.512-.489-1.502-1.293-2.84-2.422-4.025-1.166-1.203-2.495-2.017-3.95-2.433.217-1.13.127-2.287-.244-3.49-.37-1.176-.976-2.198-1.789-3.084-.841-.904-1.835-1.574-3.01-1.99-1.147-.434-2.313-.569-3.488-.416-.542.073-.868.109-1.012.127-.38 0-.696-.09-.949-.28-.19-.127-.362-.308-.515-.57l.018.054z" fill="#ffcf54"/></g></g></svg>