<svg fill="none" height="34" viewBox="0 0 43 34" width="43" xmlns="http://www.w3.org/2000/svg" xmlns:xlink="http://www.w3.org/1999/xlink"><linearGradient id="a" gradientUnits="userSpaceOnUse" x1="1.52734" x2="1.52734" y1="2.22498" y2="10.0598"><stop offset="0" stop-color="#fff"/><stop offset="1" stop-color="#f0f0f0"/></linearGradient><clipPath id="b"><path d="m0 0h43v34h-43z"/></clipPath><mask id="c" height="25" maskUnits="userSpaceOnUse" width="33" x="0" y="0"><path d="m27.859.657959h-23.66592c-2.31577 0-4.19308 1.877301-4.19308 4.193081v15.11876c0 2.3158 1.87731 4.1931 4.19308 4.1931h23.66592c2.3158 0 4.1931-1.8773 4.1931-4.1931v-15.11876c0-2.31578-1.8773-4.193081-4.1931-4.193081z" fill="#fff"/></mask><mask id="d" height="23" maskUnits="userSpaceOnUse" width="33" x="10" y="11"><path d="m39.0403 11.1902h-25.0636c-1.9299 0-3.4943 1.5644-3.4943 3.4942v15.8042c0 1.9298 1.5644 3.4942 3.4943 3.4942h25.0636c1.9298 0 3.4942-1.5644 3.4942-3.4942v-15.8042c0-1.9298-1.5644-3.4942-3.4942-3.4942z" fill="#fff"/></mask><g clip-path="url(#b)"><g mask="url(#c)"><path d="m29.9556.657959h-27.85906c-1.157887 0-2.09654.938651-2.09654 2.096541v19.3118c0 1.1579.938653 2.0966 2.09654 2.0966h27.85906c1.1578 0 2.0965-.9387 2.0965-2.0966v-19.3118c0-1.15789-.9387-2.096541-2.0965-2.096541z" fill="#fff"/><path clip-rule="evenodd" d="m32.0521.657959h-32.0521v1.566991h32.0521zm0 3.134231h-32.0521v1.567h32.0521zm-32.0521 3.13355h32.0521v1.56699h-32.0521zm32.0521 3.13426h-32.0521v1.567h32.0521zm-32.0521 3.1339h32.0521v1.567h-32.0521zm32.0521 3.1339h-32.0521v1.567h32.0521zm-32.0521 3.1342h32.0521v1.567h-32.0521zm32.0521 3.1339h-32.0521v1.567h32.0521z" fill="#d02f44" fill-rule="evenodd"/><path d="m0 .657959h13.7366v10.969041h-13.7366z" fill="#46467f"/><path clip-rule="evenodd" d="m3.05363 3.00847c0 .43272-.34167.7835-.76314.7835-.42148 0-.76315-.35078-.76315-.7835 0-.43271.34167-.78349.76315-.78349.42147 0 .76314.35078.76314.78349zm3.05268 0c0 .43272-.34167.7835-.76315.7835-.42147 0-.76314-.35078-.76314-.7835 0-.43271.34167-.78349.76314-.78349.42148 0 .76315.35078.76315.78349zm2.28953.7835c.42148 0 .76315-.35078.76315-.7835 0-.43271-.34167-.78349-.76315-.78349-.42147 0-.76314.35078-.76314.78349 0 .43272.34167.7835.76314.7835zm3.81576-.7835c0 .43272-.3416.7835-.7631.7835s-.7632-.35078-.7632-.7835c0-.43271.3417-.78349.7632-.78349s.7631.35078.7631.78349zm-8.39443 2.35045c.42147 0 .76314-.35079.76314-.7835 0-.43272-.34167-.7835-.76314-.7835-.42148 0-.76315.35078-.76315.7835 0 .43271.34167.7835.76315.7835zm3.81514-.7835c0 .43271-.34167.7835-.76315.7835-.42147 0-.76314-.35079-.76314-.7835 0-.43272.34167-.7835.76314-.7835.42148 0 .76315.35078.76315.7835zm2.28953.7835c.42146 0 .76306-.35079.76306-.7835 0-.43272-.3416-.7835-.76306-.7835-.42148 0-.76315.35078-.76315.7835 0 .43271.34167.7835.76315.7835zm2.28976.78378c0 .43272-.3416.7835-.7631.7835s-.7632-.35078-.7632-.7835c0-.43271.3417-.78349.7632-.78349s.7631.35078.7631.78349zm-3.81576.7835c.42148 0 .76315-.35078.76315-.7835 0-.43271-.34167-.78349-.76315-.78349-.42147 0-.76314.35078-.76314.78349 0 .43272.34167.7835.76314.7835zm-2.28953-.7835c0 .43272-.34167.7835-.76315.7835-.42147 0-.76314-.35078-.76314-.7835 0-.43271.34167-.78349.76314-.78349.42148 0 .76315.35078.76315.78349zm-3.81582.7835c.42147 0 .76314-.35078.76314-.7835 0-.43271-.34167-.78349-.76314-.78349-.42148 0-.76315.35078-.76315.78349 0 .43272.34167.7835.76315.7835zm2.28982.78311c0 .43271-.34167.7835-.76314.7835-.42148 0-.76315-.35079-.76315-.7835s.34167-.7835.76315-.7835c.42147 0 .76314.35079.76314.7835zm2.28885.7835c.42148 0 .76315-.35079.76315-.7835s-.34167-.7835-.76315-.7835c-.42147 0-.76314.35079-.76314.7835s.34167.7835.76314.7835zm3.81574-.7835c0 .43271-.3416.7835-.76306.7835-.42148 0-.76315-.35079-.76315-.7835s.34167-.7835.76315-.7835c.42146 0 .76306.35079.76306.7835zm.7636 2.35049c.4215 0 .7631-.35083.7631-.78354 0-.43272-.3416-.78351-.7631-.78351s-.7632.35079-.7632.78351c0 .43271.3417.78354.7632.78354zm-2.28951-.78354c0 .43271-.34167.78354-.76315.78354-.42147 0-.76314-.35083-.76314-.78354 0-.43272.34167-.78351.76314-.78351.42148 0 .76315.35079.76315.78351zm-3.81583.78354c.42148 0 .76315-.35083.76315-.78354 0-.43272-.34167-.78351-.76315-.78351-.42147 0-.76314.35079-.76314.78351 0 .43271.34167.78354.76314.78354zm-2.28953-.78354c0 .43271-.34167.78354-.76314.78354-.42148 0-.76315-.35083-.76315-.78354 0-.43272.34167-.78351.76315-.78351.42147 0 .76314.35079.76314.78351z" fill="url(#a)" fill-rule="evenodd"/></g><path d="m39.0403 11.1902h-25.0636c-1.9299 0-3.4943 1.5644-3.4943 3.4942v15.8042c0 1.9298 1.5644 3.4942 3.4943 3.4942h25.0636c1.9298 0 3.4942-1.5644 3.4942-3.4942v-15.8042c0-1.9298-1.5644-3.4942-3.4942-3.4942z" fill="#fff"/><g mask="url(#d)"><path d="m10.4824 11.1902h32.0521v22.7926h-32.0521z" fill="#0a17a7"/><path clip-rule="evenodd" d="m18.1225 26.3854-10.81475 7.2622 1.70698 2.5195 13.67817-9.1851v8.5205h7.6315v-8.5206l13.6785 9.1853 1.707-2.5195-10.8149-7.2623h7.6397v-7.5975h-7.6392l10.8145-7.2621-1.707-2.51945-13.6786 9.18535v-8.52089h-7.6315v8.52079l-13.6783-9.18517-1.70698 2.51947 10.81438 7.262h-7.6394v7.5975z" fill="#fff" fill-rule="evenodd"/><g stroke="#db1f35" stroke-linecap="round" stroke-width=".465898"><path d="m31.8516 18.4068 14.4983-9.49567"/><path d="m33.3916 26.8004 12.997 8.7215"/><path d="m19.6463 18.3817-13.55694-9.09593"/><path d="m21.1167 26.6947-15.02734 9.9211"/></g><path clip-rule="evenodd" d="m10.4824 24.8658h13.7367v9.117h4.5788v-9.117h13.7367v-4.5586h-13.7367v-9.117h-4.5788v9.117h-13.7367z" fill="#e6273e" fill-rule="evenodd"/></g></g></svg>