<svg fill="none" height="31" viewBox="0 0 42 31" width="42" xmlns="http://www.w3.org/2000/svg" xmlns:xlink="http://www.w3.org/1999/xlink"><mask id="a" height="31" maskUnits="userSpaceOnUse" width="42" x="0" y="0"><rect fill="#fff" height="30" rx="5" width="42" y=".547119"/></mask><rect fill="#fff" height="30" rx="5" width="42" y=".547119"/><g mask="url(#a)"><path d="m0 .547119h42v30h-42z" fill="#f1361d"/><g clip-rule="evenodd" fill="#ffdc42" fill-rule="evenodd"><path d="m15.1089 5.1983 1.4527.24766 1.0895.99224.2476-1.45266.9923-1.08951-1.4527-.24766-1.0895-.99224-.2477 1.45266zm3.891 5.0809 1.2588-.76611 1.4733.03407-.7662-1.25881.0341-1.47324-1.2588.76613-1.4732-.03407.7661 1.25881zm-1.7076 8.2243-1.2313.8096-.0174-1.4736-.8096-1.2313 1.4736-.0173 1.2313-.8096.0173 1.4735.8096 1.2313zm1.0693-3.8092 1.4647-.1623 1.3208.6535-.1624-1.4647.6535-1.3208-1.4646.1624-1.3208-.6535.1623 1.4646z"/><path d="m10 12.8871-3.52671 2.5141 1.30124-4.131-3.48087-2.57718 4.33092-.039 1.37542-4.1069 1.3754 4.1069 4.3309.039-3.4808 2.57718 1.3012 4.131z"/></g></g></svg>