<svg fill="none" height="35" viewBox="0 0 43 35" width="43" xmlns="http://www.w3.org/2000/svg" xmlns:xlink="http://www.w3.org/1999/xlink"><mask id="a" height="24" maskUnits="userSpaceOnUse" width="33" x="0" y="0"><rect fill="#fff" height="22.9589" rx="3.64732" stroke="#fff" stroke-width=".383929" width="32.2961" x=".191964" y=".388009"/></mask><mask id="b" height="25" maskUnits="userSpaceOnUse" width="33" x="9" y="10"><rect fill="#fff" height="23.2391" rx="3.83929" width="32.68" x="9.21387" y="10.9465"/></mask><rect fill="#fff" height="22.9589" rx="3.64732" stroke="#f5f5f5" stroke-width=".383929" width="32.2961" x=".191964" y=".388009"/><g mask="url(#a)"><path d="m21.7864.196045h10.8933v23.3429h-10.8933z" fill="#e3283e"/><path clip-rule="evenodd" d="m0 23.5389h10.8933v-23.342855h-10.8933z" fill="#128a60" fill-rule="evenodd"/><path d="m13.7394 11.0892c0-.2827-.2291-.5119-.5119-.5119-.2827 0-.5119.2292-.5119.5119zm.7839 3.1367c.2445.1419.5577.0587.6996-.1858.1419-.2446.0587-.5578-.1858-.6997zm3.2155-.9439c-.2381.1524-.3077.4689-.1554.7071s.4689.3078.7071.1554zm2.2255-2.1926c0-.2827-.2292-.5119-.5119-.5119-.2828 0-.5119.2292-.5119.5119zm-7.2487-.0002c0 1.3405.728 2.5103 1.8077 3.1367l.5138-.8855c-.777-.4508-1.2977-1.2905-1.2977-2.2512zm5.5749 3.0553c1.0054-.643 1.6738-1.7708 1.6738-3.0551h-1.0238c0 .9205-.478 1.7298-1.2017 2.1926z" fill="#8c9157"/><path clip-rule="evenodd" d="m16.3396 12.6455c.8595 0 1.5562-1.0451 1.5562-2.3343 0-1.28918-.6967-2.33427-1.5562-2.33427-.8594 0-1.5562 1.04509-1.5562 2.33427 0 1.2892.6968 2.3343 1.5562 2.3343z" fill="#c59262" fill-rule="evenodd"/></g><rect fill="#fff" height="23.2391" rx="3.83929" width="32.68" x="9.21387" y="10.9465"/><g mask="url(#b)"><g clip-rule="evenodd" fill-rule="evenodd"><path d="m9.21387 17.1436h32.68003v-6.1971h-32.68003z" fill="#dd172c"/><path d="m9.21387 34.1857h32.68003v-6.1971h-32.68003z" fill="#dd172c"/><path d="m9.21387 27.9887h32.68003v-10.8449h-32.68003z" fill="#ffd133"/><path d="m17.7727 21.7915h1.5562v.7746h-1.5562z" fill="#ffedb1"/></g><path d="m16.1291 21.5501c-.0125-.1493.1053-.2773.2551-.2773h2.7774c.1497 0 .2675.128.255.2773l-.264 3.1548c-.0333.3979-.366.7038-.7652.7038h-1.229c-.3993 0-.7319-.3059-.7652-.7038z" stroke="#a41517" stroke-width=".511905"/><path clip-rule="evenodd" d="m16.2168 22.566h3.1124v.7747h-.7781l-.7781 1.5493-.7781-1.5493h-.7781z" fill="#a41517" fill-rule="evenodd"/><rect fill="#a41517" height="5.42246" rx=".511905" width="1.55619" x="13.8826" y="20.2422"/><rect fill="#a41517" height="5.42246" rx=".511905" width="1.55619" x="20.1072" y="20.2422"/><path d="m16.2168 19.7168c0-.5654.4584-1.0238 1.0238-1.0238h1.0648c.5654 0 1.0238.4584 1.0238 1.0238v.2695c0 .1414-.1146.256-.256.256h-2.6005c-.1413 0-.2559-.1146-.2559-.256z" fill="#a41517"/></g></svg>