<svg fill="none" height="231" viewBox="0 0 159 231" width="159" xmlns="http://www.w3.org/2000/svg"><path d="m136.078 174.264 1.44-10.081c-9.651-3.356-18.503-8.835-26.571-16.439l-6.771 7.943c9.522 9.161 20.156 15.363 31.902 18.577z" fill="#947dcf"/><path d="m47.4415 182.646c.0571-.07.1283-.141.1996-.198s.1568-.113.2423-.141c.7555-.439 1.8247-.439 2.794-.269-.9123-.864-1.6108-1.94-2.067-3.144-.7412-1.911-1.4825-4.885-.2708-6.768 1.0691-1.671 2.4376.326 3.1503 1.133 1.2259 1.387 2.5089 2.718 3.8488 3.979 2.7084 2.534 5.6592 4.814 8.8665 6.683 3.5922 2.095 7.7119 3.596 11.9028 3.709 1.9672.057 7.2557-1.09 8.1395 1.501.7413 2.181-3.1646 4.319-4.6471 5.183-3.136 1.826-7.2842 2.392-10.9904 2.506-2.4946.071-4.975-.298-7.3555-1.02-2.124-.637-4.6186-1.401-6.2721-2.945-.6415-.595-1.2687-1.444-.8839-2.35.1426-.34.3564-.581.6273-.722-2.3093-.468-4.6471-1.572-6.2294-3.13-.6272-.623-1.3114-1.458-1.4968-2.364-.0142-.085-.0285-.17-.0285-.255-.057-.198-.057-.425.0285-.666.0998-.297.2566-.538.4562-.736z" fill="#947dcf"/><path d="m72.0455 221.812c-.955.708-1.4682 1.459-1.5537 2.266-.0571.439.0142.863.228 1.302.1853.411.4419.751.7983 1.062.4847.411 1.2402.779 2.2665 1.119 4.7754 1.586 10.2777 2.605 16.5071 3.072 3.7918.284 9.4225.411 16.8633.354 4.234-.014 7.455-.141 9.636-.339 3.55-.34 6.672-1.02 9.366-2.039 1.112-.411 1.996-.935 2.666-1.572.855-.793 1.268-1.671 1.254-2.662 0-.835-.342-1.614-1.012-2.336-.542-.595-1.24-1.105-2.11-1.529-1.254-.623-2.58-1.048-3.948-1.261-.656-.099-1.397-.169-2.238-.198-.414-.014-1.169-.042-2.253-.042-4.105-.014-10.263-.17-18.488-.467-7.3415-.156-13.4853 0-18.4602.424-2.0385.184-3.692.439-4.9607.765-1.7961.453-3.3071 1.147-4.5473 2.067z" fill="#000" opacity=".15"/><path d="m101.453 214.845c-.028.722-.057 1.459-.085 2.209v.142.297c.014 1.713.128 3.101.356 4.163.214 1.048 1.326 1.628 3.321 1.741 1.996.114 4.533.184 7.584.227 3.036.028 4.961-.453 5.745-1.444.185-.227.356-.496.484-.793.428-.921.585-2.068.457-3.441-.157-1.841-1.283-3.016-3.379-3.554-.798-.198-1.611-.411-2.409-.609 0-.071 0-.141 0-.226-2.48 1.515-6.514 1.939-12.074 1.288z" fill="#947dcf"/><path d="m113.883 189.259c-.299-3.355-2.209-5.026-5.744-5.04-4.904.042-7.17 3.256-6.786 9.656.428 5.027.471 12.022.1 20.956 5.56.665 9.579.241 12.074-1.288.399-10.096.527-18.195.371-24.298z" fill="#947dcf"/><path d="m118.402 162.74c-.057-.567-.114-1.119-.171-1.685-.271-2.053-.599-4.135-.969-6.216-.086-.439-.171-.864-.243-1.274-.299-1.445-.584-2.606-.884-3.498-.441-1.288-.983-2.35-1.625-3.2-1.183-1.529-2.836-2.591-4.96-3.228-1.511-.439-3.535-.694-6.073-.765-1.454-.056-2.837-.085-4.1337-.056-.1996 0-.4134 0-.613.014-3.0648.028-5.6877.226-7.8829.623-4.5473.736-8.2963 2.195-11.2613 4.375-1.6393 1.189-3.0363 2.591-4.1624 4.205-.7128.878-1.2972 1.827-1.7534 2.846-.6985 1.473-1.1689 3.229-1.4112 5.253-.1141.51-.1711 1.048-.1853 1.615-.1426 1.557-.1568 3.879-.0143 6.98l.3421 8.68c.0428 1.784.1283 3.37.2566 4.771.0143.213.0428.425.057.638.0713.736.1569 1.415.2424 2.038.0855.567.171 1.091.2566 1.572.057.241.0998.482.1568.736.0998.425.2138.836.3421 1.261.0713.297.1568.58.2708.877.5987 1.827 1.4113 3.441 2.4233 4.871.7413 1.034 1.6108 1.983 2.6372 2.86.67.595 1.397 1.161 2.2095 1.685.5844.383 1.1831.751 1.8104 1.091.6414.354 1.3114.665 1.9956.962.7128.298 1.4398.567 2.2095.793 2.01.623 4.1197.992 6.3719 1.133 1.1119.071 2.2523.085 3.4355.028.4133 0 .8267-.042 1.2401-.07.5417-.057 1.0976-.114 1.6821-.184 2.495-.326 4.79-.921 6.857-1.756 2.309-.949 4.219-2.181 5.759-3.71 1.339-1.345 2.423-3.002 3.264-4.956.228-.509.428-1.047.613-1.6.727-2.095 1.297-4.8 1.71-8.113.057-.58.114-1.133.186-1.699.099-1.048.185-2.067.242-3.058.071-.85.114-1.671.157-2.492.014-.453.043-.921.057-1.374.014-1.104.014-2.209 0-3.299-.029-1.402-.086-2.818-.157-4.248-.028-.34-.057-.679-.085-1.019-.057-.807-.129-1.6-.2-2.407z" fill="#b194e8"/><path d="m118.231 161.055c-.271-2.053-.599-4.135-.969-6.216-.086-.439-.171-.864-.243-1.274-.299-1.445-.584-2.606-.884-3.498-.441-1.288-.983-2.35-1.625-3.2-1.183-1.529-2.836-2.591-4.96-3.228-1.511-.439-3.535-.694-6.073-.765-1.454-.056-2.837-.085-4.1337-.056-.1996 0-.4134 0-.613.014-3.0648.028-5.6877.226-7.8829.623-4.5473.736-8.2963 2.195-11.2613 4.375-1.6393 1.189-3.0363 2.591-4.1624 4.205-.7128.878-1.2972 1.827-1.7534 2.846-.6985 1.473-1.1689 3.229-1.4112 5.253-.1141.51-.1711 1.048-.1853 1.615-.1426 1.557-.1568 3.879-.0143 6.98l.3421 8.68c.0428 1.784.1283 3.37.2566 4.771.0143.213.0428.425.057.638.0713.736.1569 1.415.2424 2.038.0855.567.171 1.091.2566 1.572.057.241.0998.482.1568.736.0998.425.2138.836.3421 1.261.0713.297.1568.58.2708.877.5987 1.827 1.4113 3.441 2.4233 4.871.7413 1.034 1.6108 1.983 2.6372 2.86.67.595 1.397 1.161 2.2095 1.685.5844.383 1.1831.751 1.8104 1.091.6414.354 1.3114.665 1.9956.962-1.6108-.948-3.0077-2.053-4.1909-3.299-1.8816-1.996-3.136-4.304-3.7775-6.924-1.1119-4.446-1.5253-9.43-1.2402-14.952.1853-4.46.8411-9.118 1.9529-13.975 8.7953 2.152 16.4929 3.144 23.1218 2.988 2.893-.085 5.63-.354 8.21-.807 1.625-.298 3.222-.666 4.747-1.105 1.654-.495 3.093-1.033 4.348-1.628z" fill="#947dcf"/><path d="m93.8411 197.826-.0285.779c-.1854 2.053-.3136 5.649-.3849 10.775-.0143 1.09.0713 3.724.2566 7.887l-13.1145.127c0-4.177 0-6.81 0-7.886.0428-4.574.0856-8.425.1426-11.554z" fill="#b194e8"/><path d="m93.5987 217.154-2.181.354c.2709-7.094.4704-12.602.613-16.552.1425-4.092.8125-5.536 2.0242-4.333-.1426 6.669-.2709 11.03-.3707 13.083-.114 2.266-.1283 4.744-.0712 7.448z" fill="#947dcf"/><path d="m80.3702 216.814c.2138.029.4277.043.6272.057-.1568 1.048-.2423 1.997-.2423 2.874.0428 2.846.9693 4.645 2.8225 5.353.6414.127 1.3256.198 2.0241.212l7.7404.411c2.2523.014 3.8773-.383 4.8609-1.204-.6842 1.529-2.5231 2.308-5.5451 2.308-.057 0-.0998 0-.1568 0l-7.7404-.411c-.6985 0-1.3685-.07-2.0242-.212-1.8388-.722-2.7797-2.506-2.8224-5.352 0-1.175.1425-2.521.4419-4.036z" fill="#947dcf"/><path d="m98.4026 223.88c-.0428.227-.114.425-.1996.623-.9836.822-2.6086 1.218-4.8609 1.204l-7.7403-.411c-.6985 0-1.3685-.07-2.0242-.212-1.8389-.722-2.7797-2.506-2.8225-5.352 0-.864.0713-1.827.2424-2.875 5.2457.482 9.5792.567 12.9861.255 2.3235.269 3.749.906 4.2907 1.912.2851.51.4277 1.161.4277 1.94 0 .637-.0998 1.614-.2994 2.902z" fill="#b194e8"/><path d="m92.0164 88.3751c3.2644-8.6513 5.8588-14.4141 7.7832-17.2884 1.8814-2.8036 3.6064-5.0832 5.1744-6.8531 1.882-2.1097 3.664-3.6389 5.317-4.5734.271-.1699.556-.3115.841-.4248.043-.0283.086-.0425.114-.0566.841-.3823 1.682-.6089 2.481-.6797.883-.0849 1.767 0 2.637.2266.156.0424.313.0991.484.1557 14.996 16.3964 19.758 37.7343 14.269 64.0136-.256.114-.527.213-.798.298l-44.7458 3.639c.613-15.873 2.7655-28.7012 6.4575-38.4852z" fill="#b194e8"/><path d="m74.6399 88.6303c-6.6428-6.4707-11.4467-10.6052-14.3974-12.4035-2.8938-1.7557-5.4311-3.1008-7.5978-4.0353-2.6087-1.1186-4.8609-1.7558-6.7711-1.9115-.3136-.0284-.6272-.0425-.9408-.0284-.0428 0-.0855 0-.1283 0-.9266 0-1.7819.1558-2.5374.4248-.841.2832-1.5965.7221-2.2807 1.3168-.1283.1133-.2424.2266-.3707.3399-6.6285 21.1538-1.8673 42.4919 14.2691 64.0279.2851 0 .5702-.028.8553-.071l42.1088-15.462c-7.2985-14.131-14.6967-24.8632-22.209-32.1835z" fill="#b194e8"/><path d="m35.9666 146.131c1.9101-2.294 4.6185-4.39 5.2742-7.42.0285-.127.0571-.24.0713-.34.0998-.424.1711-.679.0428-1.26-.1711-.849-.4134-1.699-.6557-2.52-.5275-1.784-1.1262-3.554-1.5823-5.352-.7555-3.016-1.3828-6.259-1.5681-9.36-.0427-.792-.0712-1.571-.0855-2.364 0-.071 0-.213 0-.326 0-.099 0-.184 0-.283 0-1.246.0428-2.492.114-3.738.9836 4.885 4.2052 14.442 5.2316 16.779.8838 1.982 2.6371 5.196 3.749 6.966-.4562 3.228-4.5616 8.467-4.5616 8.467s1.5681.368 2.067.411c3.6492.283 7.2557-.014 10.8194-.906.057.042.114.085.1711.127 0 .566-1.5396 2.973-4.5901 7.207 10.6911 3.328 18.9162 5.112 24.6894 5.366 4.0341.524 8.7097.723 14.0267.595 5.3171-.127 10.178-.481 14.6252-1.076 3.692-.481 8.653-1.274 12.844-2.067-.299.099-.599.212-.884.311-1.867.595-3.806 1.176-5.844 1.714-.884.212-1.768.424-2.666.623-.798.184-1.597.354-2.409.523-4.134.836-8.5815 1.515-13.3426 2.011-.0856 0-.1711.028-.2566.028-.1711.029-.3421.057-.4847.085-3.4924.581-7.6406.822-12.473.751-.841-.029-.9978-.029-.4989-.029-2.1525-.07-3.6777-.127-4.59-.184-.0286 0-.0713 0-.0998 0-1.6108-.099-2.794-.269-3.5352-.495-3.3071-.482-7.6834-.991-13.1145-1.529s-10.0924-1.699-13.9839-3.484c.7412-1.104 1.8246-3.129 3.2643-6.046-3.8773-.028-7.1274-1.09-9.7645-3.2z" fill="#947dcf"/><path d="m103.805 157.075c-4.4329.595-9.3081.949-14.6251 1.076-5.3171.128-9.9927-.07-14.0268-.594-5.7732-.255-13.9982-2.053-24.6893-5.367 3.0505-4.233 4.5758-6.64 4.59-7.207-.057-.042-.114-.085-.171-.127-3.5637.892-7.1702 1.189-10.8195.906-.4989-.028-2.0669-.41-2.0669-.41s4.1054-5.239 4.5615-8.468c-1.1118-1.755-2.8652-4.97-3.749-6.966-1.0263-2.336-4.2479-11.894-5.2315-16.779.1853-3.299 1.2972-6.655 2.5516-9.713 4.4618-10.8459 15.0388-21.0122 25.7157-25.5432 17.7758-7.561 32.2302-7.1787 50.2483.1558 12.459 5.069 22.494 14.2441 25.858 26.9304 1.112 4.192 1.825 8.468 1.725 12.786.143.255.57.567 1.283.949.941.51 2.138.977 3.606 1.402-.228 2.279-1.354 4.531-3.364 6.754 2.438.339 3.707.396 3.792.198-.47 2.605-1.682 5.083-3.635 7.433-1.953 2.351-3.763 4.276-5.431 5.806-1.668 1.529-3.165 2.803-4.504 3.851-.229.227-.457.453-.699.665-.698.623-1.425 1.246-2.181 1.855-1.953 1.53-4.12 2.945-6.486 4.234-.684.368-1.368.722-2.067 1.076-.214.099-.427.198-.627.297-.955.453-1.924.878-2.922 1.289-.513.212-1.041.425-1.583.637-.142.057-.285.099-.427.156-.285.099-.556.212-.841.311-.328.114-.656.227-.984.34-4.191.793-9.151 1.586-12.843 2.067z" fill="#b194e8"/><path d="m136.178 104.474c-.428-2.634-1.254-4.9418-2.48-6.9241-1.041-1.6567-2.438-3.2-4.206-4.6443-1.539-1.246-3.079-2.1522-4.618-2.7185-.884-.3257-1.982-.5806-3.279-.7929-1.725-.2549-3.877-.1558-6.471.2831-1.911.3257-3.407.623-4.476.8779-1.768.4248-2.937.8354-3.479 1.246-1.126.8637-2.181 2.0106-3.178 3.4407-1.369 1.9823-2.196 4.0354-2.509 6.1591-.157 1.119-.186 2.761-.072 4.942.086 1.869.2 3.157.343 3.851.983 4.814 2.708 8.382 5.146 10.719 2.765 2.647 6.528 3.794 11.304 3.454.356 0 1.083-.056 2.195-.169 1.14-.128 1.939-.227 2.38-.298 4.291-.864 7.684-2.605 10.193-5.21 3.15-3.328 4.219-8.071 3.221-14.216z" fill="#fff"/><path d="m89.4792 114.031c-.4846-2.634-1.3827-4.928-2.6656-6.896-1.0834-1.642-2.5231-3.157-4.3335-4.545-1.568-1.203-3.136-2.081-4.7041-2.6192-.8838-.2974-1.9957-.5381-3.3214-.708-1.739-.2124-3.8915-.0708-6.4859.4531-1.9101.3681-3.3926.7081-4.476.9911-1.7676.467-2.9222.906-3.4639 1.331-1.1119.892-2.1383 2.067-3.0933 3.526-1.3257 2.024-2.1097 4.092-2.3521 6.23-.1283 1.132-.114 2.775.0428 4.955.1283 1.869.2851 3.158.4419 3.852 1.1119 4.8 2.9222 8.34 5.4311 10.619 2.8367 2.591 6.6427 3.653 11.4323 3.186.3564 0 1.0834-.085 2.1953-.227 1.1404-.155 1.9386-.269 2.3805-.368 4.2765-.977 7.6406-2.803 10.0925-5.479 3.079-3.413 4.0341-8.199 2.8794-14.344z" fill="#fff"/><path d="m118.359 147.477c3.322-3.271 4.733-6.868 4.191-10.804-.541-3.936-2.837-7.023-6.913-9.317-4.077-2.294-8.753-3.086-14.027-2.393-5.2744.708-9.5651 2.691-12.9008 5.976-3.3213 3.284-4.7183 6.881-4.1909 10.789.5275 3.908 2.8367 7.037 6.9136 9.331 4.0769 2.308 8.7521 3.101 14.0271 2.407 5.274-.694 9.565-2.69 12.886-5.989z" fill="#d2c8ff"/><path d="m83.2639 113.239c-1.6678-1.105-3.4782-1.459-5.4311-1.062-1.9529.382-3.4782 1.416-4.59 3.058-1.1119 1.642-1.4683 3.441-1.0834 5.381.3991 1.953 1.4255 3.483 3.0933 4.587 1.6678 1.105 3.4782 1.473 5.4311 1.076 1.9529-.396 3.4782-1.416 4.6043-3.072 1.1119-1.657 1.4683-3.455 1.0691-5.409-.3849-1.94-1.4112-3.455-3.079-4.545z" fill="#2d261a"/><path d="m129.606 103.836c-1.667-1.104-3.478-1.458-5.431-1.062-1.953.383-3.478 1.416-4.59 3.059-1.112 1.642-1.468 3.44-1.083 5.38.399 1.954 1.425 3.483 3.093 4.588 1.668 1.104 3.478 1.472 5.431 1.076 1.953-.382 3.478-1.416 4.605-3.073 1.112-1.656 1.468-3.455 1.069-5.409-.385-1.939-1.411-3.454-3.079-4.545z" fill="#2d261a"/><path d="m100.797 150.053c2.21 1.685 6.387.779 7.955-1.387 1.183-1.629.883-4.39-.371-5.933-.143-.184-1.853-1.289-1.853-1.189 0-.043 0-.071 0-.114-.214-2.775-.428-5.55-.642-8.325 0-.014 0-.029 0-.057.228-.127.442-.283.685-.439.812-.609 1.397-1.232 1.796-1.855.228-.439.385-.878.456-1.331 0-.155 0-.311.043-.453 0-.34-.057-.623-.143-.878-.285-.651-.912-1.104-1.882-1.331-.869-.198-1.796-.226-2.779-.085-.143-.042-.257-.042-.357-.014-.256.014-.499.071-.712.156-.285 0-.528 0-.713.028-.043 0-.071 0-.1.014-.085.015-.157.029-.214.057-.099.014-.199.043-.299.057-.185.028-.356.071-.527.113-.058 0-.1 0-.143.042-.057 0-.1 0-.143.029-.556.141-1.0687.325-1.5248.566-.8553.411-1.3828.963-1.5823 1.628-.1426.27-.1996.595-.1568.963 0 .085.0142.156.0427.241.0143.396.1283.779.3279 1.147.2993.524.8125 1.019 1.5253 1.458.741.468 1.511.751 2.295.864l2.181-.142c.2 2.507.385 5.027.584 7.533-1.054.17-2.081.694-2.893 1.501-1.7109 1.685-3.1934 5.31-.827 7.122z" fill="#3b3068"/><path d="m101.04 213.699 7.526.113-2.694 4.234-5.374.028c-.7414-1.415-.342-3.624.542-4.361z" fill="#6f4620"/><path d="m118.359 214.789c-1.596 1.529-2.879 3.71-3.863 6.542l10.192-.099c.043-.977-.114-2.082-.47-3.328-.67-2.28-2.623-3.313-5.859-3.129m-2.395-.198c0-.609-.47-1.388-1.382-2.308-.913-.935-1.369-1.331-1.354-1.175-6.258 1.472-10.335 4.913-12.203 10.364l9.081-.085c.413-3.087 2.366-5.352 5.858-6.782z" fill="#885928"/><path d="m101.025 221.458 9.081-.084 4.39-.029 10.192-.099c0 .453-.071.892-.171 1.289-.099.396-.242.736-.456 1.047-.784 1.345-3.221 2.025-7.284 2.053-1.14 0-2.238 0-3.279 0-2.651-.014-4.946-.07-6.87-.141h-.057c-2.709-.113-4.348-.864-4.918-2.266-.228-.538-.428-1.132-.628-1.77z" fill="#5e3218"/><path d="m79.5008 216.757 8.0825-.042-3.3072 4.304-4.6043-.127c-.5417-1.416-.5844-2.79-.1568-4.135z" fill="#6f4620"/><path d="m97.2053 217.522c3.2497-.255 5.0457.75 5.3737 3.03.171 1.246.157 2.35-.014 3.327l-10.1779.283c1.397-2.874 3.0078-5.097 4.8182-6.655m-9.1944 6.754-9.0661.241c2.6657-5.508 7.2272-9.048 13.6847-10.633 0-.142.4133.24 1.1831 1.161.7698.92 1.1119 1.685 1.0406 2.308-3.692 1.5-5.9728 3.808-6.8423 6.923z" fill="#9c6730"/><path d="m79.3013 226.3c-.1426-.538-.2709-1.119-.3706-1.77l9.066-.241 4.3905-.113 10.1778-.283c-.085.467-.199.892-.37 1.302-.157.397-.357.751-.599 1.062-.984 1.359-3.5068 2.096-7.5695 2.195-1.1403.028-2.2237.042-3.2643.056-2.6372.029-4.9179.029-6.8281-.014h-.057c-2.6942-.056-4.2194-.793-4.5758-2.18z" fill="#5e3218"/><path d="m71.9032 157.741c.3421.609.6129 1.161.8125 1.671.3706.92.5559 1.798.5702 2.633 0 1.048-.2566 2.167-.784 3.356-.3136-.127-.6272-.255-.9694-.382-4.3334-1.827-7.5978-3.271-9.793-4.347-3.5637-1.742-6.6143-3.526-9.1516-5.381-1.2972-.934-2.5089-1.911-3.635-2.916l7.555-5.098c4.6329 4.432 9.7503 7.915 15.381 10.464z" fill="#beaaf2"/><g fill="#947dcf"><path d="m71.903 157.741c.4847.85 3.521 1.36 4.4618 1.997 1.3257.892 2.5231 2.223 2.8937 3.724s0 3.186-1.0263 4.361c-1.6108 1.84-4.975-.057-7.0277-.708-9.0518-2.846-16.8349-7.519-23.3351-14.004l1.0833-.736c1.1262 1.019 2.3378 1.982 3.635 2.917 2.5516 1.855 5.6022 3.639 9.1516 5.38 2.1953 1.076 5.4596 2.535 9.7931 4.347.3279.142.6557.269.9693.382.5275-1.189.784-2.307.784-3.355 0-.836-.1995-1.714-.5702-2.634-.1995-.51-.4704-1.076-.8125-1.671z"/><path d="m55.4956 142.859c.7555.836 1.1974 1.798 1.3542 2.875l-8.168 7.15c-2.0812.439-3.4782.227-4.2052-.651-1.0976-1.317-1.4967-2.889-1.2116-4.73.2851-1.84 1.1689-3.384 2.6656-4.672 1.4683-1.26 3.1504-1.883 5.032-1.897 1.8674 0 3.3641.651 4.5188 1.911z"/><path d="m50.2356 148.891c-1.6678 1.416-3.5637 2.039-5.7162 1.883-2.124-.226-3.7775-1.288-4.9749-3.186-1.2117-1.897-1.7534-3.865-1.6108-5.932.1425-2.068.9693-3.668 2.4803-4.786 1.511-1.119 3.3214-1.586 5.4311-1.416 2.0955.17 3.8345 1.033 5.203 2.563 1.4112 1.571 2.0385 3.426 1.8959 5.564-.1711 2.138-1.0834 3.908-2.7084 5.296z"/><path d="m38.9457 145.096c1.0263-.892 2.181-1.274 3.4782-1.119 1.2972.142 2.409.751 3.3213 1.813.9124 1.09 1.3115 2.364 1.1974 3.808-.1425 1.445-.7697 2.648-1.8958 3.611-1.1262.963-2.4091 1.388-3.8346 1.274-1.4397-.113-2.6086-.722-3.5067-1.84-.898-1.091-1.1689-2.393-.8268-3.908.3422-1.515 1.0264-2.733 2.0527-3.639z"/></g><path d="m52.4878 136.007c1.4255.085 2.6086.665 3.5352 1.727.9123 1.091 1.3114 2.365 1.1974 3.809-.1426 1.444-.7698 2.648-1.8959 3.611s-2.4091 1.387-3.8345 1.274c-1.4398-.113-2.6087-.722-3.5067-1.841-.8981-1.09-1.2687-2.35-1.1119-3.794.1425-1.416.7555-2.591 1.8674-3.526 1.0976-.934 2.3378-1.345 3.749-1.26z" fill="#beaaf2"/><path d="m50.8484 147.744c-1.3685 1.161-3.0078 1.572-4.9464 1.232-1.9244-.368-3.578-1.359-4.9464-2.974-1.3257-1.585-1.9957-3.327-1.9957-5.253-.0285-1.911.6272-3.426 1.9244-4.545 1.2972-1.104 2.8937-1.501 4.8039-1.189 1.9101.297 3.5494 1.218 4.9179 2.761 1.3969 1.586 2.1239 3.356 2.181 5.324.0427 1.954-.613 3.511-1.953 4.644z" fill="#beaaf2"/><path d="m55.8519 148.693c-2.3663 3.129-4.8752 4.503-7.498 4.121-.9836-.383-1.8389-.992-2.5517-1.855-1.0976-1.317-1.5537-2.846-1.3969-4.574.1568-1.727.898-3.157 2.2095-4.276 1.2972-1.104 2.8224-1.614 4.59-1.515 1.7391.113 3.3642 1.062 4.8467 2.86 1.4825 1.799 1.4112 3.554-.1854 5.239z" fill="#beaaf2"/><path d="m47.1566 148.58c-.171 1.246-.7697 2.294-1.7818 3.158-1.0121.863-2.1382 1.274-3.3641 1.231-1.2402-.042-2.2238-.523-2.9508-1.43-.727-.892-.9978-1.954-.7983-3.185.1853-1.204.7698-2.223 1.7676-3.073.9836-.835 2.0812-1.246 3.2786-1.232 1.2402.014 2.2238.467 2.9793 1.331.7555.892 1.0406 1.968.8838 3.2z" fill="#beaaf2"/><path d="m116.235 175.509c-1.553 3.3-4.761 5.721-8.909 4.984 1.825-3.242 5.032-5.663 8.909-4.984z" fill="#e1ddc8"/><path d="m84.7323 187.871-2.1097.368 29.6354 26.082 23.621-4.715-28.596-29.112-22.565 7.377m31.489-12.361 25.887 30.357 16.906-24.948-21.268-29.593-1.925 2.209-19.6 21.989z" fill="#f00"/><path d="m107.298 180.494h.028c4.149.736 7.356-1.699 8.91-4.984l25.886 30.357c-1.938 1.43-3.734 3.002-6.229 3.738z" fill="#e00000"/><path d="m131.374 154.003 4.462-.482-19.6 21.99c-3.878-.68-7.085 1.756-8.91 4.984 0 0-.014 0-.028 0l-22.5656 7.377.7698-2.549c6.2008-5.649 16.5358-11.695 25.2448-10.733 8.981-11.143 13.927-15.546 20.613-20.587z" fill="#fff"/><path d="m105.559 190.364-3.992 3.313-1.482-1.019-3.3642-2.422-2.8509 6.245c9.0661 3.738 17.9471 7.929 26.6421 12.573-4.034-8.127-7.37-16.255-10.035-24.382l-7.27 1.685 2.366 4.007m1.568 4.29.784-.651 2.552 5.72-1.297-.849-4.134-2.747 2.109-1.487z" fill="#fcc248"/><path d="m151.431 161.209c1.411.354 2.608 1.147 3.635 2.393.998 1.232 1.539 2.577 1.596 4.021.057 1.445-.37 2.549-1.311 3.342-.955.793-2.153 1.034-3.592.708-1.44-.354-2.68-1.175-3.707-2.435-1.054-1.303-1.61-2.677-1.639-4.135 0-1.444.485-2.549 1.454-3.313.969-.736 2.167-.935 3.564-.567z" fill="#947dcf"/><path d="m144.118 164.891c-.713-.878-1.012-1.855-.898-2.945s.613-1.968 1.497-2.634c.869-.651 1.853-.906 2.95-.764 1.098.141 1.996.637 2.695 1.501.698.849.983 1.812.883 2.888-.099 1.09-.57 1.968-1.411 2.648-.855.679-1.853.948-2.965.821-1.112-.142-2.024-.651-2.737-1.529z" fill="#947dcf"/><path d="m150.205 170.993c.114-1.09.613-1.968 1.497-2.634.869-.651 1.853-.906 2.95-.764 1.098.141 1.996.637 2.695 1.5.698.85.983 1.813.883 2.889-.099 1.09-.57 1.968-1.411 2.648-.855.679-1.853.948-2.965.821-1.112-.142-2.024-.651-2.737-1.529s-1.012-1.855-.898-2.945z" fill="#947dcf"/><path d="m150.575 162.696c1.326.156 2.424.751 3.25 1.784.827 1.02 1.184 2.195 1.07 3.526-.129 1.331-.685 2.407-1.697 3.256-1.04.85-2.238 1.218-3.592 1.077-1.368-.156-2.48-.751-3.336-1.799-.869-1.076-1.24-2.279-1.097-3.639.157-1.345.77-2.421 1.839-3.242 1.04-.807 2.223-1.133 3.549-.963z" fill="#947dcf"/><path d="m8.30649 13.4059c-2.49252 2.6461-4.41795 5.3838-5.76312 8.2526-1.22647 2.6068-2.017748 5.3708-2.347446 8.3051-.342886 2.895-.2373824 5.7637.329698 8.6194.883588 4.349 2.690338 8.2658 5.433418 11.7371 2.11007 2.7247 4.53666 4.7551 7.25336 6.1044 4.0751 2.0173 9.2843 2.5675 15.6277 1.6636 7.5698-1.061 14.9287-3.8643 21.5886-7.5453 6.2906-3.4713 11.6449-6.1829 15.9969-12.2218 2.1892-3.0259 3.7454-6.1043 4.6685-9.2482 1.0287-3.563 1.1737-6.9296.422-10.1128-.8572-3.5892-2.8354-6.8248-5.9477-9.71976-2.7431-2.5675-6.0928-4.63721-10.036-6.19605-3.996-1.55883-8.1501-2.528193-12.4626-2.894978-4.3256-.353686-8.5721-.0786006-12.7527.825262-4.2069.903866-8.1897 2.423406-11.9482 4.545516-3.785 2.12211-7.1347 4.75511-10.03604 7.87281z" fill="#ffe39b"/><path d="m47.9362 48.5776c-.2901.9038-.4747 1.8601-.5671 2.8426 2.4662.5763 4.9983 1.3885 7.4776 1.6505 2.7299.2882 10.9987 2.502 7.8336-2.8164-2.0705-3.4844-3.9959-6.9034-6.739-10.0473-3.8641 1.4279-6.7786 4.5455-7.9919 8.3968z" fill="#ffe39b"/><path d="m35.9221 43.8358c.2242.7074.5275 1.4802.9231 2.2924.1715.3406.3825.7336.6594 1.2052.0396 0 .066.0262.0923.0393.2506.3929.5671.6811.9232.8252.1451.0655.2901.0917.4352.0786.0923 0 .211-.0393.3429-.0786l.1319-.0524c.1714 0 .3692 0 .567-.0524.1715-.0393.4221-.131.7254-.2489l3.7058-1.4802c.3824-.1572.6726-.2882.8704-.4192.2901-.1965.4879-.4323.5934-.6943.0924-.2095.1187-.4584.0924-.7466-.0132-.1834-.066-.4323-.1583-.7598-.211-.7729-.3825-1.3361-.5143-1.716-.1583-.4716-.3429-.9039-.5275-1.2838-.2111-.2358-.3957-.4061-.5539-.524-.3957-.2881-.7781-.3667-1.1606-.275-.0395 0-.1187.0262-.211.0655-.0791.0262-.1582.0393-.211.0524 0 0-.0264 0-.0396 0l-5.9873 2.2924h-.0263c-.0792.1048-.1451.2096-.211.3275-.2111.3929-.3693.7728-.4616 1.1527zm8.704-25.1641c0-1.1396-.1714-2.2138-.4748-3.2224-.0659-.1834-.1318-.3668-.1978-.5371-.1714-.4323-.3561-.8384-.5803-1.2313-.6989-1.2314-1.6484-2.2794-2.8749-3.157-1.1606-.83838-2.4662-1.44096-3.9168-1.82084-2.664-.68117-5.5785-.58948-8.7304.28819-.8572.23579-1.6485.51087-2.387.82526-1.8463.78599-3.3498 1.82079-4.5103 3.10459-1.266 1.3885-2.2156 3.1832-2.8222 5.3577 0 .0786 0 .1834.0132.2751 0 .2619.0395.4715.1055.6287 0 .0131 0 .0393.0264.0524 0 .0262.0131.0393.0395.0655.0396.0786.1319.1965.2506.3668.0396.0655.0791.1441.1055.2096.7649.9301 1.5825 1.7684 2.4661 2.5151.3297.2882.7781.6419 1.3188 1.0479.2506.0393.5144.0524.8045.0262.2901-.0393.5671-.1178.8572-.2357l.0791-.0786c.1187-.1572.2242-.2751.3297-.3537 1.2001-1.7423 2.6112-3.1832 4.207-4.3228.8572-.6026 1.6353-.9825 2.3342-1.1266.8572-.1834 1.6881-.0524 2.4794.393.7912.4454 1.3319 1.0741 1.6221 1.8732.1318.4061.1846.7991.1714 1.1659-.0396.5632-.2769 1.2182-.6989 1.9649-.7254 1.2444-1.6353 2.3317-2.7299 3.2617-.2902.2358-.5012.4061-.6331.524-.2373.2096-.422.4061-.567.5895-.0792.1179-.1583.2358-.2242.3668l.567 1.716c.5671 1.6898.9891 2.9474 1.2793 3.7858l.7385 2.1483c.2769.8121.5011 1.4147.6726 1.8339.1319.2751.2374.5109.3033.7074.0791.1964.1583.3667.2374.5239l.3692.7598c.0924.131.1451.2358.1847.3275.0132.0262.0527.131.1187.3144.0395.0786.0791.1703.1187.2358.1186 0 .2373-.0262.356-.0524.2506-.0524.5935-.131 1.0551-.2751 1.0814-.3144 1.965-.6026 2.6507-.8384.9627-.3406 1.8068-.7205 2.5453-1.1003.422-.2227.7253-.4323.91-.6157.1055-.1048.1978-.2227.2769-.3537-.1187-.2489-.2638-.5633-.4088-.9563-.2242-.5632-.5539-1.4147-.9891-2.5544-.3956-1.0086-.7253-1.8601-1.0155-2.5412-.2242-.524-.3561-.917-.422-1.1659-.1187-.4454-.1451-.8515-.0527-1.2052.0527-.1702.1055-.2881.1714-.3536.0527-.0655.1187-.1048.1846-.131.0264-.0524.0528-.1048.0792-.1572 0-.0262.0263-.0524.0395-.0786.0528-.0524.1187-.0917.1847-.131.1978-.2227.4352-.4716.6989-.7467.6067-.6681 1.0814-1.2968 1.4639-1.8601.2901-.4585.5275-.9039.7253-1.3624 0-.0131.0264-.0261.0528-.0392.6989-1.4541 1.055-3.0129 1.0682-4.6635z" fill="#6d603b"/></svg>