<svg fill="none" height="216" viewBox="0 0 608 216" width="608" xmlns="http://www.w3.org/2000/svg"><path d="m259.53 29.4283c-4.105-2.7279-7.894-4.9554-11.471-6.6719-4.3-2.0167-8.025-3.0799-11.122-3.195-2.187-.0469-4.062.354-5.727 1.2659-1.259.7115-2.386 1.6759-3.376 2.9458-.284.3478-.511.743-.79 1.1434-1.648 2.6662-2.769 6.3438-3.416 11.038-.563 3.9408-.778 8.6981-.697 14.2772.086 5.6318.957 13.2601 2.572 22.9955 1.614 9.7353 5.532 23.3371 11.764 40.9108l3.091-4.195 48.796-56.2408c-4.395-4.0291-8.42-7.5631-12.03-10.6599-6.629-5.6143-12.51-10.133-17.594-13.614z" fill="#ffc421"/><path d="m316.984 21.1733c2.755-3.8701 5.399-7.1807 8.029-9.9586 3.176-3.2968 6.163-5.5373 8.913-6.70811 1.952-.79537 3.779-1.08051 5.591-.83298 1.379.20693 2.726.68688 4.055 1.48914.376.21514.716.49293 1.105.75732 2.402 1.83262 4.679 4.75743 6.878 8.76093 1.865 3.3542 3.567 7.2813 5.157 11.7678 2.123 5.6642 4.136 12.6803 6.203 21.0571 1.093 4.4101 2.175 18.5027 3.308 42.3136l-8.363-5.0779-59.186-31.5082c2.569-5.1415 4.976-9.7101 7.159-13.7418 4.021-7.3876 7.758-13.4818 11.151-18.3183z" fill="#ffc421"/><path d="m329.529 32.9218c-12.219-3.8839-25.074-4.9244-38.563-3.1216-13.601 1.7621-25.844 6.0874-36.783 12.9816-1.792 1.11-3.472 2.2606-5.042 3.4518-8.011 5.9216-14.003 12.7321-18.081 20.4436-.221.3982-.442.7964-.61 1.1886-.913 1.8092-1.669 3.6004-2.359 5.4909-.087.1698-.175.3396-.203.556-.041.1112-.082.2224-.122.3336-.61 1.668-1.108 3.3767-1.495 5.126-.156.4974.425-.9542 1.696-4.2963-2.262 6.812-3.53 11.113-3.806 12.9029-.11.4388-.214.9302-.265 1.4156-.092.5967-.137 1.1347-.177 1.7253-.08.7019-.107 1.3978-.082 2.0876-.09 1.0761-.076 2.1402.044 3.1923.012.1052-.034.1638-.023.269.006.0526.012.1052.077.2045.615 6.8038 3.031 13.5098 7.306 20.1638 4.268 6.601 9.943 11.976 17.064 16.014s15.547 6.436 25.383 7.181c9.831.692 17.969.564 24.515-.448.211-.024.468-.106.678-.13.105-.012.263-.03.368-.042 31.793-2.982 53.409-11.572 64.894-25.829 11.299-14.0222 12.647-29.7892 4.098-47.3064l.651 1.0448c-.328-.5487-.605-1.1034-.875-1.6055-.071-.1518-.141-.3036-.27-.502-.13-.1985-.206-.4029-.335-.6013-1.14-2.055-1.816-3.3103-2.086-3.8123-.811-1.5063-1.728-3.0006-2.644-4.4949-.246-.2917-.44-.5893-.575-.8404-7.227-10.5806-18-18.1461-32.378-22.7432z" fill="#ffc421"/><path d="m225.914 81.3845c-.967 3.2009-1.569 5.401-1.706 6.5357-.11.4388-.214.9302-.266 1.4157-.091.5966-.137 1.1346-.176 1.7253-.08.7018-.107 1.3977-.082 2.0876-.091 1.076-.076 2.1401.044 3.1922.012.1052-.035.1638-.023.2691.006.0526.012.1052.077.2044.615 6.8045 3.03 13.5095 7.305 20.1635 3.23 4.961 7.235 9.247 12.004 12.754 1.57 1.153 3.292 2.236 5.06 3.26 7.121 4.039 15.548 6.436 25.384 7.181 9.831.692 17.969.565 24.515-.447.21-.024.467-.107.678-.131.105-.012.263-.03.368-.042 27.736-2.573 47.784-9.492 60.096-20.699-47.359 21.646-85.622 23.5-114.777 5.665-14.38-11.631-20.547-26.0092-18.501-43.1345z" fill="#efb207"/><path d="m332.676 48.3065c-6.988 0-12.918 2.4355-17.842 7.3595-4.924 4.9239-7.36 10.8538-7.36 17.8427 0 6.9888 2.436 12.9187 7.36 17.8427 4.924 4.9239 10.854 7.3594 17.842 7.3594 6.989 0 12.919-2.4355 17.79-7.3594 4.924-4.924 7.413-10.8539 7.413-17.8427 0-6.9889-2.489-12.9188-7.413-17.8427-4.871-4.924-10.801-7.3595-17.79-7.3595z" fill="#fff"/><path d="m266.521 62.999c-6.989 0-12.919 2.4355-17.843 7.3594-4.924 4.924-7.359 10.8539-7.359 17.8427s2.435 12.9189 7.359 17.8429 10.854 7.359 17.843 7.359 12.919-2.435 17.79-7.359c4.923-4.924 7.412-10.8541 7.412-17.8429s-2.489-12.9187-7.412-17.8427c-4.871-4.9239-10.801-7.3594-17.79-7.3594z" fill="#fff"/><path d="m269.296 82.5593c-1.715 1.7147-2.572 3.7969-2.572 6.1975 0 2.4496.857 4.5317 2.572 6.2464 1.714 1.7147 3.796 2.5721 6.222 2.5721 2.425 0 4.507-.8574 6.222-2.5721 1.714-1.7147 2.572-3.7968 2.572-6.2464 0-2.4251-.858-4.4828-2.572-6.1975-1.715-1.7392-3.797-2.5966-6.222-2.5966-2.401 0-4.483.8819-6.222 2.5966z" fill="#413535"/><path d="m320.262 71.43c-1.715 1.7147-2.572 3.7968-2.572 6.1974 0 2.4496.857 4.5318 2.572 6.2465s3.797 2.5721 6.222 2.5721 4.507-.8574 6.222-2.5721 2.572-3.7969 2.572-6.2465c0-2.4251-.857-4.4827-2.572-6.1974-1.715-1.7393-3.797-2.5966-6.222-2.5966s-4.507.8818-6.222 2.5966z" fill="#413535"/><path d="m309.729 92.6401c-1.62-.1675-3.302-.0725-5.078.2631-1.775.3357-3.645.912-5.549 1.7457-3.846 1.6187-7.334 4.981-10.492 10.0921-3.131 5.106-4.255 9.331-3.404 12.653.883 3.344 3.614 5.559 8.221 6.638 4.692 1.092 9.744-.783 15.203-5.66 8.027 2.077 13.843 1.591 17.419-1.454 2.9-2.498 4.092-5.037 3.571-7.641-.143-.614-.373-1.239-.684-1.849-1.673-3.251-4.507-6.449-8.479-9.6268-3.881-3.1395-7.467-4.8582-10.728-5.1611z" fill="#ffc421"/><path d="m305.275 104.53c-.126.219-.152.67-.025 1.343l1.808 10.302c-.176.396-.33.759-.494 1.069-1.571 2.749-4.034 4.608-7.357 5.598-1.347.394-3.152.429-5.436.136-2.28-.266-4.502-1.852-6.695-4.753-.546.939-.563 2.029-.05 3.269.513 1.241 1.458 2.261 2.818 3.118 1.361.857 2.836 1.442 4.433 1.781 2.016.344 3.884.353 5.66.017 3.632-.686 6.791-2.844 9.46-6.414 4.354 2.103 8.035 2.856 11.043 2.26 3.008-.597 4.787-1.212 5.341-1.818 1.336-.893 2.31-2.081 2.943-3.594.607-1.508.877-2.729.785-3.659-.065-.935-.495-1.885-1.269-2.881-.85 3.755-2.256 6.195-4.19 7.313-1.389.764-2.784 1.195-4.208 1.324-3.451.318-6.401-.545-8.866-2.531-.266-.229-.569-.506-.851-.815l-1.748-9.394c-.314-1.222-.559-1.928-.681-2.128-1.279-1.904-2.059-1.757-2.421.457z" fill="#684e3a"/><path d="m299.906 103.292c-.548.493-.988.967-1.256 1.463 1.351 3.757 4.381 5.637 9.118 5.633 4.095-.886 6.362-3.488 6.805-7.779-.718-.7-1.598-1.231-2.588-1.601-1.829-.685-3.938-.788-6.306-.34-2.394.452-4.32 1.318-5.773 2.624z" fill="#684e3a"/><g fill="#fff"><path d="m207.514 177.396c-1.275-.88-3.156-1.547-5.614-1.972-1.365-.243-3.246-.516-5.613-.85-1.699-.364-2.549-.91-2.549-1.699-.091-.303-.03-.546.243-.789.455-.485 1.548-.758 3.277-.758 1.214 0 2.579.303 4.096.88 1.517.576 2.458.88 2.761.88.759 0 1.487-.911 2.124-2.731.546-1.487.82-2.579.82-3.307 0-.577-1.123-1.244-3.368-2.003-2.428-.85-4.916-1.274-7.404-1.305-3.095-.06-5.552.607-7.373 1.973-2.245 1.668-3.368 4.278-3.368 7.858 0 2.185.88 3.884 2.64 5.037 1.244.849 3.186 1.547 5.795 2.063 3.581.698 5.522 1.092 5.765 1.183 1.73.547 2.61 1.396 2.61 2.519l-.152.425c-.152.333-.364.637-.668.91-1.001.88-2.579 1.335-4.794 1.335-2.336 0-4.43-.698-6.28-2.063-.243-.213-.82-.668-1.669-1.426-.486-.425-.85-.638-1.062-.638-.698 0-1.335 1.032-1.972 3.095-.334 1.032-.577 2.094-.759 3.186 0 .759 1.123 1.608 3.338 2.579 2.639 1.153 5.643 1.76 9.011 1.73 5.219 0 8.89-1.73 11.014-5.158 1.123-1.851 1.699-3.824 1.699-5.917 0-2.154-.849-3.854-2.548-5.037z"/><path d="m225.961 157.659c-.242-.729-1.304-1.002-3.125-.82-2.063.213-3.368.638-3.944 1.275-.243.273-.364.88-.364 1.76 0 2.457.121 4.824.364 7.069-.516.031-.971.031-1.305.031l-5.431.091c-.486.606-.728 1.153-.728 1.668 0 1.426.182 2.762.546 3.975.091.304.182.607.303.85 1.093.334 3.126.516 6.099.516h.759c.03.697.03 1.365.091 1.972v3.277c.121.971.182 2.518.182 4.642-.122 1.638-.152 3.156-.122 4.612.122 2.822.607 4.46 1.457 4.885l6.22.03c.273-.303.516-.758.667-1.365.122-.425.182-.819.182-1.214 0-.303-.182-2.7-.546-7.16 0-.759 0-1.517 0-2.215 0-2.761 0-4.461-.03-5.098-.061-.94-.152-1.82-.243-2.579.121 0 .243-.03.395-.06h2.093c1.517-.122 2.519-.274 3.034-.425.122-.031.213-.091.304-.122h.364c.061-.151.121-.303.152-.455.121-.516.182-1.122.121-1.79 0-.334-.03-.819-.061-1.456-.06-.82-.151-1.457-.242-1.912-.031-.152-.092-.455-.183-.91-.091-.364-.273-.546-.546-.546-.758 0-1.972.03-3.61.121-1.153.061-2.033.121-2.67.212v-7.069c-.061-.122-.091-.425-.061-.85-.03-.425-.03-.758-.122-.94z"/><path d="m261.568 166.397c-.091 0-.152.03-.213.03 0 0-.03 0-.03.031h-4.43s-.03-.031-.061-.031c-.485-.06-.819.031-1.031.334-.152.182-.243.334-.243.516 0 0 0 .03-.03.03v.273c0 .031.03.031.03.061 0 2.974-.243 5.795-.759 8.496-.273 1.396-.576 2.64-.91 3.671-.91 3.52-2.427 5.28-4.551 5.28-2.519 0-4.127-1.093-4.824-3.247-.122-.394-.243-.94-.334-1.578-.152-1.153-.243-2.245-.213-3.246 0-2.185.122-3.975.364-5.401.243-1.456.425-2.609.577-3.489.121-.88 0-1.366-.425-1.457-1.396-.06-2.67-.121-3.793-.212h-1.456c-.061 0-.091-.031-.152-.031h-.06c-.031 0-.152 0-.364-.03-.243-.061-.425.03-.547.273-.091.243-.182.395-.182.486-.06.091-.091.151-.091.212-.364 1.001-.607 1.79-.698 2.306-.182 1.001-.303 2.154-.364 3.429-.03.698-.06 1.851-.06 3.459 0 5.583 1.213 10.073 3.641 13.502l.03.03c.061.061.121.152.212.212.243.243.456.486.668.698 1.79 1.062 3.489 1.608 5.128 1.608h.242c.759.091 1.548.152 2.397.152 2.124 0 3.884-.88 5.28-2.67.243-.303.455-.576.667-.849 0 .333.031.637.061.879.152 1.275.395 2.306.789 3.035v.06c.364.182.85.304 1.456.334h2.306c.971-.121 1.639-.334 2.033-.637.061-.061.122-.121.182-.212.304-.274.486-.577.516-.941.213-1.699.334-2.609.364-2.761v-8.071c.031-1.396.152-3.702.304-6.857.151-3.186.212-4.946.212-5.219 0 0 0-.273.03-.819 0-.547-.06-.941-.151-1.153-.091-.273-.364-.395-.789-.425-.243-.061-.455-.061-.728-.061z"/><path d="m292.092 156.096-4.794-.091c-1.032-.061-1.639.425-1.791 1.426.061 1.032.122 1.578.122 1.608.242 4.855.364 7.434.364 7.737v.365l-.031.091c-.212-.031-.728-.243-1.547-.638-1.183-.364-2.852-.546-5.037-.546-5.279 0-8.92 1.851-10.862 5.553-.971 1.881-1.457 4.157-1.457 6.796-.091 2.337.334 4.552 1.336 6.615 1.972 4.157 5.734 6.19 11.287 6.19 2.579 0 4.521-.213 5.825-.638.395-.151.698-.303.88-.455 0 .607.031 1.153.061 1.608-.03.456-.03.85 0 1.184v.03c.03.03.03.03.091.061.061.03.091.091.121.091.061.121.091.243.152.303.273.395.941.637 2.003.759.242.03.455.06.667.06h.304.546c.91 0 1.608-.06 2.124-.151.091 0 .151-.031.242-.031.031 0 .031-.03.031-.03.03-.03.06-.061.091-.091.091-.03.151-.091.212-.121.061-.061.121-.122.182-.213.364-.425.546-.88.546-1.365-.151-1.912-.273-3.611-.364-5.158-.03-3.247-.212-8.375-.485-15.414-.061-1.517-.122-2.913-.182-4.187l.182-5.826c0-.971-.031-1.911-.122-2.761-.121-1.547-.364-2.457-.697-2.761zm-16.082 18.509c1.093-1.032 2.397-1.609 3.945-1.76 1.517-.122 2.822.243 3.884 1.062 1.183.94 1.79 2.306 1.79 4.066 0 1.608-.364 2.973-1.093 4.126-1.031 1.578-2.579 2.367-4.703 2.367-2.336 0-3.944-.82-4.824-2.428-.485-.88-.728-1.911-.728-3.125-.03-1.729.546-3.155 1.729-4.308z"/><path d="m323.45 166.746c-.03-.091-.03-.182-.091-.243-.182-.06-.334-.151-.516-.242h-3.55s0 0-.03 0c-.031 0-.031-.031-.061-.031-.212.031-.91.031-2.063-.03-.122.121-.304.243-.486.425-.273.212-.485.485-.607.819.031.395.061.698.061.941-.03 1.001-.03 1.881-.03 2.579v.242.061.425c0 .03-.031.03-.031.03-.182 1.942-.273 3.034-.273 3.308 0 .94-.212 2.093-.637 3.489s-.971 2.609-1.638 3.762c-.941-.485-1.942-1.183-3.004-2.124-.182-.151-.334-.273-.486-.394-1.062-1.123-1.972-2.458-2.761-3.975-.637-1.183-1.122-2.7-1.426-4.521-.151-.94-.394-2.306-.698-4.157 0 0 0-.03 0-.06-.182-.091-.333-.243-.455-.425-.516-.03-1.244-.061-2.154-.091-.971-.031-1.79-.061-2.488-.091-.212.03-.455.06-.698.091v-.031c-.485-.06-.819 0-1.092.152-.273.031-.486.152-.607.364-.03 0-.03.031-.061.061-.091.485-.121.91-.121 1.274 0 3.308.516 6.281 1.578 8.83.515 1.547 1.001 2.731 1.456 3.55.759 1.305 1.851 2.64 3.277 4.005 1.669 1.547 3.307 2.549 4.915 2.973-.515.516-1.547 1.184-3.064 1.942-.88.455-1.79.82-2.67 1.123-1.548.637-3.216 1.153-4.976 1.578-.152.182-.304.334-.364.485.121.759.182 1.184.182 1.275v.303c.182.546.424 1.274.698 2.215.03.091.303.667.788 1.79.061.182.152.395.243.607.122.061.273.152.425.243s.273.182.425.273c.455-.091.91-.152 1.365-.243.91-.152 1.73-.303 2.518-.485.456-.122.941-.243 1.427-.425.364-.122.758-.243 1.153-.364.303-.152.606-.273.94-.425 2.549-1.153 4.916-2.579 7.1-4.248 2.367-1.851 4.066-3.671 5.128-5.462 1.365-2.336 2.427-5.158 3.216-8.435.728-3.034 1.062-5.916 1.062-8.677 0-1.093-.03-1.79-.061-2.094-.091-.94-.364-1.578-.758-1.942zm-2.185 13.229v-.03c0-.061.031-.091.031-.121 0 .06-.031.121-.031.151z"/><path d="m352.305 166.883c-.121-.061-.273-.091-.425-.122-.698-.546-1.396-.971-2.124-1.274-1.487-.576-3.944-.91-7.343-1.001-4.642.516-8.131 2.002-10.437 4.43-.85.728-1.578 1.547-2.185 2.457-1.547 2.306-2.336 4.916-2.336 7.829 0 1.244.121 2.427.364 3.489.182 2.245 1.092 4.248 2.761 6.008 2.761 2.943 7.191 4.52 13.29 4.703.03.03.303.06.789.091.455.03.819.06 1.092.03 1.548 0 2.913-.182 4.157-.577.941-.091 1.76-.364 2.427-.758.031-.122.061-.243.091-.364 0-.213.031-.546.061-1.002.061-.485.061-.758.061-.819 0-.607-.091-1.82-.243-3.671v-.061c-.091-.182-.243-.334-.425-.485-.091 0-.182-.031-.334-.091-.121-.031-.242-.061-.364-.091-1.153.394-2.639.576-4.46.576-4.612 0-7.798-1.062-9.527-3.216-.941-1.123-1.396-2.458-1.396-4.066 0-2.488.971-4.278 2.913-5.401 1.638-.94 3.762-1.304 6.372-1.122 1.031.091 2.032.242 3.003.455.243.06.486.121.729.212.697.182 1.365.425 2.002.728.122 0 .243 0 .364-.03.122 0 .243.03.425.03.061 0 .121-.03.152-.091.03 0 .03 0 .06-.03.304-.577.547-1.426.698-2.549.091-.758.152-1.638.152-2.609v-.728c-.061-.182-.091-.364-.091-.547-.061-.091-.121-.182-.243-.303 0 0-.03 0-.03-.03z"/><path d="m375.759 166.048c-.273.122-.394.273-.424.455 0 .183.03.334.03.425 0 .122 0 .243.03.334-.394-.152-.819-.303-1.244-.485-2.245-.82-3.762-1.275-4.612-1.366-1.426-.364-2.73-.455-3.944-.334-2.67-.242-5.007.698-7.009 2.853-1.123 1.213-2.033 2.67-2.67 4.369-.455 1.183-.759 2.215-.819 3.125-.304 1.001-.486 1.729-.486 2.245 0 2.852.364 5.067 1.123 6.675.06.092.091.183.151.274.213.515.456 1.031.698 1.517 2.064 3.671 5.705 5.522 10.893 5.522 2.033 0 3.762-.152 5.219-.486.88-.182 1.729-.485 2.518-.849.031.243.061.91.091 2.033.122.637.334 1.062.698 1.304v.061h.091c.182.121.395.152.668.152.789 0 1.486-.061 2.093-.152l1.912.03c.88 0 1.456-.667 1.699-1.972.091-.425.121-1.304.121-2.67 0-.212 0-.516 0-.88.122-.789.182-2.002.182-3.61-.182-4.248-.273-7.434-.303-9.497 0-.698.061-2.428.212-5.159-.151-1.365-.242-2.427-.303-3.155-.273-.819-.698-1.214-1.274-1.214-2.853-.03-4.612.122-5.341.455zm-2.457 8.708c.91 1.336 1.365 2.792 1.365 4.309.152.85-.03 1.699-.576 2.549-1.062 1.669-3.308 2.518-6.736 2.518-2.124 0-3.702-.819-4.794-2.458-.698-1.062-1.062-2.002-1.062-2.852 0-1.365.515-2.822 1.547-4.399 1.335-2.033 3.034-2.913 5.128-2.67 2.245.273 3.944 1.274 5.128 3.003z"/><path d="m402.627 159.601c0-.698-.03-1.184-.121-1.396-.243-.728-.82-1.001-1.73-.759h-2.002c-1.882 0-3.004.031-3.399.061-.212.03-.364.061-.485.121l-.031-.03c-.121 0-.242.03-.303.091-.03.03-.061.091-.152.182-.06-.061-.091-.091-.151-.152-.091.456-.152.971-.152 1.548 0 2.458.03 4.005.03 4.642v.03c-.091 1.032-.121 1.851-.152 2.458v.243c-.242.091-.576.182-.97.243-.82.151-2.155.212-3.975.212-1.396 0-2.155.425-2.306 1.244-.061.061-.091.182-.091.364v.091c-.122.334-.182.759-.182 1.275.06 1.365.091 2.306.091 2.821-.031.395-.061.789 0 1.153.03.607.182.941.394 1.062v.061c0 .182.091.303.243.425.243.151.667.273 1.305.364l5.825.091v.03.091.182.971l.031 1.548c-.091 1.244-.152 2.852-.152 4.824 0 .152-.03.819-.091 1.942-.03 1.183 0 2.063.091 2.64 0 .06.03.819.091 2.306 0 .546.061 1.001.182 1.395-.03.213-.03.395-.03.607 0 .273.182.546.576.819.152 0 .304.031.486.031.455-.031 1.092-.031 1.881.06.546-.121 1.153-.182 1.911-.242 1.396-.122 2.519-.182 3.429-.122.03-.06.091-.121.121-.182.213-.121.334-.424.364-.88 0 0 0-.394 0-1.153 0-.788-.03-1.395-.151-1.82 0-.607-.031-1.214-.031-1.821v-5.856c-.091-.576-.212-1.365-.303-2.427-.03-.273-.061-.516-.091-.758-.061-1.366-.121-2.549-.182-3.581.03-.03.091-.03.121-.03 1.214-.061 2.701-.152 4.4-.213 1.244-.06 2.093-.242 2.518-.485h.304l-.031-.243c0-.03.031-.03.031-.06.06-.152.091-.365.121-.668 0-.182 0-.425 0-.728.061-.395.091-.91.091-1.578 0-.364 0-.758 0-1.214 0-1.153-.03-1.85-.061-2.124-.121-1.062-.394-1.638-.88-1.729-.819 0-1.365 0-1.608.03-.151 0-.212.031-.212.091-1.76.061-3.277.091-4.551.152-.031-.667-.091-1.456-.182-2.367 0-.182 0-.364.03-.546.03-1.942.091-3.064.091-3.337z"/></g></svg>