<svg fill="none" height="216" viewBox="0 0 216 216" width="216" xmlns="http://www.w3.org/2000/svg"><path d="m59.045 195.047c-2.3051.748-3.5496 1.55-3.7339 2.451-.1809.495-.0078.948.5186 1.448.4384.455 1.0539.866 1.8471 1.189 1.1457.46 2.9102.926 5.3825 1.353 11.3903 1.943 24.4654 3.314 39.3137 4.114 9.015.48 22.452.862 40.222 1.098 10.079.174 17.772.147 22.99.009 8.49-.246 15.923-.861 22.386-1.891 2.656-.429 4.782-.953 6.379-1.617 2.041-.84 3.022-1.825 3.031-2.908.008-.947-.781-1.811-2.366-2.636-1.232-.687-2.907-1.287-5.025-1.756-3.001-.747-6.091-1.268-9.36-1.566-1.591-.149-3.358-.253-5.303-.314-.972-.054-2.74-.068-5.392-.135-9.814-.171-24.488-.608-44.112-1.266-17.504-.46-32.1806-.581-44.0316-.273-4.8643.141-8.8448.333-11.8536.624-4.336.416-7.967 1.108-10.8928 2.076z" fill="#000" fill-opacity=".149"/><path d="m58.725 148.753c-.8016-.211-1.6031-.169-2.4047.084-.8437.338-1.3922.844-1.7297 1.561-.464.929-.3797 2.152.2532 3.671.8859 2.278 2.3203 4.345 4.3453 6.201 1.814 1.646 3.9234 3.08 6.4125 4.261 1.8562.928 3.6281 1.519 5.2312 1.814 1.0969.169 2.5313.296 4.261.253 4.1343 0 7.5093-.211 10.125-.632 2.7-.422 5.1468-1.013 7.3406-1.899.0422 0 .0422.042.0422.042l3.2062-5.568c-.2109-.127-.464-.211-.7172-.254-.5484-.126-1.4343-.042-2.6156.169-9.6187 1.856-17.7187 1.35-24.3-1.434-1.5609-.675-2.7844-1.435-3.5859-2.236-.3375-.38-.7172-.886-1.0969-1.519-.6328-1.012-1.0125-1.561-1.0547-1.645-1.0969-1.477-2.3625-2.489-3.7125-2.869z" fill="#022459"/><path d="m142.088 158.372-2.911-.338c-1.182-.126-1.941.043-2.321.507-.168.211-.253.506-.211.843 0 .085.043.169.043.254 0 .042.042.084.042.126-.886.338-1.561.844-2.025 1.519-.296.464-.507.97-.591 1.476-.042.338-.042.718.042 1.097.085.633.338 1.097.76 1.35.295.211.675.338 1.181.38.084 0 .337 0 .717-.042-.211.042-.337.126-.464.253-.084.042-.127.126-.169.169l-1.097.211c-.97.168-1.687.379-2.109.717 0 .042-.042.042-.042.042-.295.253-.464.591-.549.97-.084.422-.042.76.211 1.013.591.126 1.224.211 1.857.253.59.042 1.181.042 1.729-.042.422-.042 1.266-.169 2.532-.422.253-.042.548-.085.801-.169.549-.084 1.055-.126 1.603-.211.296.042.591.085.844.127 1.603.337 2.742 1.054 3.459 2.067.338.464.591 1.097.802 1.898.126.422.253 1.139.464 2.068.337 1.434.886 2.615 1.645 3.501.886 1.013 2.067 1.73 3.544 2.109 1.392.338 2.784.38 4.261.085 1.097-.253 1.941-.591 2.616-1.097.084-.084.211-.169.295-.253.506-.464.844-1.013 1.055-1.688.168-.548.253-1.097.211-1.645.042-.253.042-.506.042-.759 0-.464-.169-.886-.464-1.224-.211-.253-.464-.464-.802-.59-.337-.338-.717-.633-1.139-.802-.548-.253-1.308-.422-2.278-.548-.506-.043-.97-.085-1.392-.085 0-.126 0-.253.042-.379 0-.591-.084-1.266-.211-2.025 0-.043-.169-.718-.506-1.983-.169-.76-.296-1.308-.38-1.646-.169-.632-.337-1.139-.548-1.603-.296-.759-.718-1.392-1.266-1.983-1.477-1.645-3.839-2.742-7.088-3.248-.632-.084-1.392-.169-2.235-.253z" fill="#022459"/><path d="m130.359 117.703c-1.109.862-2.379 1.821-4.007 2.742-3.826 2.144-8.211 3.774-13.289 5.063-7.417 1.975-16.0317 2.953-25.8384 3.741-1.3427-.031-2.6047-.044-3.8668-.058-.1193.565-.1409 1.067-.1965 1.73-.0988 1.665-.028 4.126.1144 7.444l1.1413 9.77c-.0074 5.227.1771 9.145.7152 11.788.894 4.152 2.3451 7.663 4.2896 10.435l.0637.098.0636.097c.2081.213.3184.489.5265.702.879 1.029 1.775 1.977 2.8495 2.878.9301.787 1.958 1.51 3.02 2.072.8198.51 1.6566.94 2.5105 1.289 1.8524.812 3.8364 1.4 5.8714 1.745 2.842.516 5.787.548 8.915.112 2.868-.406 5.724-1.152 8.649-2.221 3.315-1.324 6.278-2.975 8.807-4.971 2.823-2.186 4.89-4.786 6.264-7.7 1.506-3.139 2.273-6.772 2.301-10.898.066-3.106-.395-6.914-1.221-11.389-.58-3.242-1.309-6.179-2.072-8.954-1.174-5.223-3.412-10.75-5.611-15.515z" fill="#00246b"/><path d="m117.775 105.174c-1.522.016-3.515.27-5.916.859-4.785 1.098-8.746 2.285-11.785 3.499-4.1443 1.654-7.5493 3.802-10.1981 6.363-1.4882 1.457-2.7512 3.045-3.772 4.685-.6252.964-1.1868 2.026-1.5699 3.041-.5831 1.564-1.0559 3.403-1.2399 5.473 1.2621.013 2.5071.107 3.8669.057 10.0154.091 18.731-.851 26.147-2.827 5.015-1.386 9.516-3.134 13.342-5.277 1.628-.922 2.997-1.813 4.124-2.756-1.044-2.244-2.169-4.505-3.391-6.703-.684-1.156-1.24-2.117-1.766-2.818-.718-.995-1.567-1.765-2.387-2.275-1.495-.906-3.254-1.362-5.455-1.321z" fill="#022459"/><path d="m160.861 170.1c1.223-.295 2.362-.169 3.291.295 1.139.464 2.025 1.477 2.742 3.08.084.169.169.337.253.506.506 1.181.717 2.236.759 3.206-5.779 3.671-12.276 6.413-19.533 8.143-.379-.928-.885-2.068-1.35-3.544-.168-.549-1.181-3.544-3.037-9.028 1.139-.591 2.278-1.139 3.417-1.645 3.544-1.646 6.835-2.954 9.914-3.84l.886 4.05c.802-.548 1.73-1.012 2.658-1.223z" fill="#282828"/><path d="m158.245 184.781c-5.062 2.067-8.1 3.038-9.028 2.7-.422-.169-.97-.886-1.561-2.151 7.51-1.814 14.26-4.599 20.25-8.396 0 0 .085.211.211.507.127.337.253.759.38 1.307.169.549-.253 1.139-1.224 1.857-.928.632-3.965 2.025-9.028 4.176z" fill="#080808"/><path d="m161.536 169.973c.084.127.127.465-.042 1.097-.169.718-.253 1.182-.338 1.435-.126.59-.295 1.054-.464 1.35-.169.379-.464.675-.801.928-.633.337-1.139.464-1.477.295-.211-.126-.422-.337-.548-.59-.253-.549-.253-1.266 0-2.11.295-.97.717-1.687 1.307-2.151.338-.254.76-.422 1.224-.507.506-.042.886 0 1.139.253zm-3.417 1.182c-.253.211-.506.506-.928.928-.38.422-.844.717-1.266 1.012-.548.38-1.055.507-1.434.422-.507-.169-.802-.548-.886-1.139-.042-.464.126-.928.506-1.434.211-.338.633-.675 1.181-1.055.296-.211.886-.506 1.856-.928.169-.042.38-.084.549.042.211.042.38.253.506.464.169.211.169.549.169.886.042.338-.042.633-.253.802z" fill="#939393"/><path d="m148.753 156.263c3.67 1.307 6.961 4.429 7.341 8.31-4.81 1.983-9.324 4.599-13.458 7.763-2.616-1.856-6.328-2.025-9.07-.422-.718.422-1.477.97-2.321.844-.97-.127-1.561-1.181-1.603-2.11 0-.97.422-1.856.844-2.742 1.097-2.236 2.236-4.472 3.333-6.708.759-1.56 1.603-4.682 3.037-5.737 1.224-.886 3.882-.422 5.316-.38 2.194.127 4.514.338 6.581 1.182z" fill="#285773"/><path d="m147.066 174.445c-2.194 1.393-3.46 2.025-3.839 1.983-.507-.042-1.182-.759-2.025-2.067-.844-1.35-1.139-2.32-.802-2.827.211-.379 1.35-1.307 3.417-2.742 1.224-.928 2.869-2.067 4.81-3.333 5.231-3.501 8.015-5.189 8.479-5.02.253.127.464.338.76.717.295.422.59.928.928 1.603.633 1.35.886 2.194.801 2.574-.126.506-2.193 2.109-6.159 4.809-.591.38-1.181.76-1.814 1.224-1.856 1.307-3.417 2.32-4.556 3.079z" fill="#3f4454"/><path d="m93.5297 175.5c5.5266 4.008 12.5723 5.484 19.3643 5.147 8.1-.422 16.284-3.586 21.769-9.577 5.484-5.99 7.889-15.018 5.062-22.612.211.548-28.856 6.876-31.556 7.298-5.4.844-10.8424 1.519-16.3268 1.941-4.4297.38-8.0156.042-6.75 5.526 1.2234 4.894 4.3453 9.324 8.4375 12.277z" fill="#2c6888"/><g fill="#022459"><path d="m166.598 93.5719c1.688 3.1641 5.443 5.0625 8.986 4.5563 3.544-.5063 6.624-3.4172 7.257-6.9188.632-3.5015-1.224-7.3406-4.388-8.9859-7.383-3.7125-15.947 3.7125-11.855 11.3484z"/><path d="m174.783 97.9383c-10.463 11.2217-23.119 19.5747-38.011 25.0597l-6.708-10.294c14.259-5.189 26.916-13.7954 37.969-25.8188 5.315 2.6156 7.551 6.2859 6.75 11.0531z"/><path d="m137.109 122.913c-1.223.76-2.615.928-4.134.464s-2.742-1.392-3.67-2.784-1.266-2.869-1.097-4.472c.211-1.603.886-2.826 2.109-3.628 1.224-.844 2.616-1.055 4.177-.591 1.561.422 2.826 1.35 3.754 2.827.929 1.434 1.308 2.953 1.097 4.556-.253 1.646-.97 2.827-2.236 3.628z"/><path d="m129.558 120.994c1.519-.042 3.122-.253 4.767-.675 2.194-.549 4.725-1.477 7.636-2.827 6.623-3.079 12.867-6.792 18.731-11.179 5.105-3.797 9.83-8.0161 14.175-12.6567-1.097-2.8266-3.375-5.0625-6.876-6.75-10.336 11.2641-22.064 19.5327-35.227 24.7637-.886.043-1.73.296-2.489.802-1.181.802-1.898 2.025-2.109 3.628-.211 1.561.168 3.08 1.097 4.472.126.169.21.295.295.422z"/><path d="m171.619 86.5266c-.042.0422-.042.0422-.085.0844-.59.4219-1.392.5906-2.067.2531s-1.012-1.139-1.181-1.8984c-.464-2.236.422-4.3875.928-6.5391.506-1.9828 1.097-3.7125 2.658-5.1047.759-.7172 1.898-1.2656 2.826-.8015.929.464 1.182 1.6453 1.14 2.6578-.043 1.7297-.718 3.2062-1.224 4.8094-.548 1.7296-.844 3.375-1.73 4.9781-.337.5484-.717 1.139-1.265 1.5609z"/><path d="m189.422 81.3797c.591.1688 1.097.5485 1.392 1.1391.549 1.0547.38 2.3203-.169 3.375-1.012 1.8562-3.206 2.9953-4.767 4.3453-1.856 1.5609-3.628 3.2906-5.4 4.9359-.633.5907-1.519 1.2235-2.278.8016-.633-.3375-.759-1.2234-.717-1.9406.169-2.9532 1.772-5.5688 3.67-7.7203 1.308-1.4766 2.574-3.2907 4.345-4.261 1.013-.5906 2.658-1.0547 3.924-.675z"/></g><path d="m171.661 86.1891c0 .9703.337 2.0672 1.223 2.3625.802.2531 1.604-.2953 2.236-.8016 1.097-.8437 2.194-1.6874 3.164-2.6999.718-.7172 1.35-1.561 1.646-2.5735.759-2.8266-2.11-4.3875-4.346-3.1219-2.32 1.35-3.923 4.2188-3.923 6.8344z" fill="#00246b"/><path d="m175.964 88.1297c-.211 1.1391 0 2.5313 1.013 2.9953.717.3375 1.603.0422 2.32-.2953 1.139-.5906 2.151-1.35 2.995-2.3203.717-.8016 1.308-1.7719 1.477-2.8687.337-2.1938-1.603-4.1766-3.797-3.4172-2.067.7172-3.67 3.9234-4.008 5.9062z" fill="#00246b"/><path d="m174.572 83.1516c.253.1688.506.3797.717.6329.886.9281 1.35 2.3625.802 3.5015-.422.886-1.308 1.4344-2.152 1.8563-1.392.6328-2.911 1.0547-4.43 1.139-1.265.0844-2.657-.0422-3.628-.8437-1.645-1.35-.759-4.0078.507-5.3156 2.067-2.1094 5.779-2.6579 8.184-.9704z" fill="#002c87"/><path d="m156.473 113.906c.507.886 1.013 1.941.633 2.911-.295.844-1.181 1.35-2.025 1.73-4.345 2.152-8.775 4.092-13.289 5.822-2.151.801-4.556 1.603-6.623.59-2.025-.97-2.953-3.248-3.713-5.357-.886-2.405-1.772-4.978-1.223-7.51.801-3.754 4.472-6.117 8.015-7.636 2.574-1.097 6.961-5.7372 9.957-5.02 3.332.844 6.665 11.517 8.268 14.47z" fill="#080808"/><path d="m194.778 27.0725c-.126.2532-.211.4641-.337.6329-.886 1.5187-1.983 2.6156-3.249 3.2484-1.772.8859-3.375 1.0125-4.851.4219-1.477-.5907-2.532-.9703-3.164-1.1391-.633-.1687-1.266-.2953-1.941-.3375s-1.561.0844-2.616.4219l9.282 14.2594c.295.0421.886.3375 1.687.8437.169.0844.338.2109.464.3375 1.013.8859 1.561 2.1516 1.603 3.7969.042 1.3922-.253 2.7422-.843 4.0922-.211.3797-.422.8015-.675 1.1812-1.182 1.8985-2.7 3.1641-4.515 3.7547-1.603.5484-2.953.4219-4.092-.4219-.168-.1265-.379-.2953-.59-.5062-1.182-1.2235-1.603-2.8688-1.266-5.0203.253-1.5188.802-2.911 1.688-4.1766.295-.3375.548-.675.885-1.0125.465-.5062 1.435-1.2234 2.954-2.1094l-14.091-21.7687c-.506-.9281-.253-1.8985.802-2.911 1.054-1.0125 2.235-1.6453 3.459-1.9406 1.223-.2953 2.405-.3375 3.459-.2531.633.0844 1.561.1687 2.785.3375 1.054.0844 2.025.1266 2.826.0422 1.013-.0844 1.899-.3375 2.658-.7172.844-.4219 1.603-1.0547 2.194-1.8141.59-.8015 1.265-.9281 2.025-.3375 2.447 2.5735 3.586 6.2438 3.459 11.0953z" fill="#6532ce"/><path d="m45.1925 145.51c2.2781.38 2.9531 1.772 1.9828 4.134l-7.5515 25.946c0 .422 0 .801-.1266 1.223-.0844.422-.2953 1.013-.675 1.772s-1.0547 1.392-2.1094 1.898c-1.0547.465-2.1937.675-3.5437.549-.3797-.042-.7594-.084-1.1813-.169-1.8984-.38-3.4172-1.223-4.5562-2.531-1.0547-1.139-1.5188-2.363-1.4344-3.586.0422-.295.0844-.548.1266-.759.4218-1.561 1.5187-2.616 3.3328-3.207 1.3922-.464 2.8265-.506 4.3031-.168.3797.084.8016.211 1.1812.337.5907.211 1.35.591 2.236 1.097l6.075-22.106-16.411-6.75-6.4968 24.764c-.1266.844-.2532 1.729-.3797 2.7-.0422.211-.0844.379-.1688.59-.3797 1.224-1.2656 2.152-2.6578 2.743-1.0969.464-2.3203.675-3.6281.59-.3797-.042-.7594-.126-1.1813-.169-1.8984-.379-3.41715-1.223-4.55621-2.531-1.05469-1.139-1.51875-2.32-1.43437-3.586.04219-.295.08437-.506.12656-.759.42187-1.561 1.51875-2.658 3.375-3.206 1.35002-.464 2.78442-.507 4.26092-.169.4219.084.8016.211 1.1813.38.1687.042.9281.379 2.3203 1.054l6.4125-25.312c.5484-1.603 1.6031-2.194 3.164-1.772z" fill="#ba58ff"/><path d="m107.241 109.013v.421c0 .043.042.043.042 0l-.042-.421c.042-.043 0-.043 0 0z" fill="#aa2e43"/><path d="m141.117 149.175c-.97-4.852-1.983-9.703-2.953-14.512-1.392-6.75-2.784-13.627-5.484-19.871-.464-1.097-1.055-2.194-2.025-2.742-1.097-.591-2.405-.211-3.586.169.844 4.345 1.097 8.606-1.224 12.614-3.797 6.961-11.39 10.209-18.562 7.425-4.683-1.477-7.7627-5.527-9.4502-10.378-3.0797 1.012-6.1593 2.025-9.239 3.037-.9703.338-2.025.675-2.7422 1.435-.886.928-1.2235 2.32-1.4766 3.67-1.8984 9.197-1.7297 18.141-2.6578 27.337-.2109 2.321-.0422 5.021 1.5609 6.539 1.0125.929 2.3625 1.266 3.6704 1.477 15.5245 2.658 31.3875-1.139 46.1535-7.045 2.742-1.097 6.581-2.911 7.72-6.033.422-.928.548-1.983.295-3.122z" fill="#080808"/><path d="m101.672 169.678c-1.603-.253-2.447-.337-2.5314-.253-.4218 3.544-1.6031 6.455-3.5437 8.733-2.1516 2.489-4.725 3.965-7.7203 4.514-.4641.084-1.2235.211-2.236.337-.8437.169-1.5609.422-2.0671.76-.6329.422-1.1813 1.012-1.6454 1.856-.3375.633-.675 1.434-.9703 2.405-.8437 2.868-1.35 5.779-1.4344 8.775.1266.042.2532.084.3797.126.211.042.4641.127.8438.211 1.4344.253 2.5312.422 3.2484.506 1.2235.127 2.2781.085 3.2485-.084.7171-.127 1.2234-.337 1.5187-.633.2531-.253.3797-.886.3797-1.898 0-.928-.0844-1.477-.2531-1.688-.211-.379-.7594-.675-1.6875-.97-.4219-.127-.8016-.295-1.0547-.506-.2531-1.139-.211-2.025.1265-2.616.2954-.591.7172-1.012 1.2235-1.308.5062-.295.9281-.422 1.1812-.379.2953.042.886.126 1.8141.295s2.0672.253 3.375.253 2.5734-.295 3.7969-.802c1.2234-.506 2.7419-1.771 4.5139-3.712 1.688-1.814 2.953-4.936 3.839-9.281 0-.338-.337-1.097-.97-2.321-.717-1.35-1.814-2.067-3.375-2.32z" fill="#00246b"/><path d="m99.1406 169.425c-1.6875.042-2.7422.253-3.164.633-.8438 3.248-1.8141 5.484-2.9531 6.708-1.0969 1.223-2.3626 2.109-3.7126 2.742s-2.3203 1.012-2.9109 1.139c-.5484.126-1.2234.253-2.025.422-.8015.168-1.5609.422-2.2359.759-.9282.464-1.6875 1.223-2.2781 2.363-.4219.801-.7172 1.94-.9282 3.375-.2109 1.476-.464 2.91-.8015 4.345-.3375 1.434-.3375 2.573-.0422 3.501.2953.886.7594 1.393 1.35 1.435.0844-2.996.5906-5.949 1.4343-8.775.2954-.971.6329-1.772.9704-2.405.464-.844 1.0125-1.476 1.6453-1.856.5062-.338 1.2234-.591 2.0672-.76 1.0125-.126 1.7297-.253 2.2359-.337 2.9953-.548 5.5687-2.025 7.7203-4.514 2.025-2.363 3.2063-5.274 3.6281-8.775z" fill="#022459"/><path d="m93.361 189.042c1.0125.211 1.8984.506 2.6156 1.266.8437.928 1.139 2.109 1.2234 3.375 0 .126.0422.337.0422.464 0 .928-.1687 1.814-.5484 2.658-8.1844-.507-12.825 1.392-20.8407-2.321.5485-2.32.2532-1.856 1.2657-4.978.3797-1.181 3.2062-8.226 4.4718-10.167 1.3079.127 2.5313.464 3.7125 1.013 3.6282 1.687 6.7079 3.965 9.7454 6.581-1.35.759-2.9954.464-4.0922 1.73.8015.126 1.6453.21 2.4047.379z" fill="#353535"/><path d="m84.4594 199.463c-2.7-.127-7.0453-.507-8.9016-2.574-.8859-.97-.0422-1.941-.2109-2.911 8.4375 4.008 12.8672 2.11 21.5156 2.616-.1265.253.1266.169-.0422.506-.1687.338.2532.675-.2531 1.266-.5062.548-.2109.886-2.1516.928-1.9406.042-7.2562.295-9.9562.169z" fill="#080808"/><path d="m92.5594 188.03c.0422.126-.0844.506-.4641 1.012-.4219.591-.7172.97-.8859 1.181-.3375.464-.675.844-.9703 1.055-.2953.295-.7172.464-1.1391.549-.7172.042-1.2234-.043-1.4766-.296-.1687-.211-.2531-.506-.2531-.801 0-.633.2953-1.266.8438-1.941.675-.759 1.35-1.266 2.0672-1.434.4218-.085.8437-.085 1.3078 0 .5062.168.8437.379.9703.675zm-3.586-.253c-.2953.084-.675.253-1.2234.464-.5062.211-1.0547.337-1.5609.421-.6328.127-1.1813.085-1.4766-.21-.4219-.338-.5062-.844-.3375-1.393.1266-.422.5063-.801 1.0547-1.097.3375-.21.8859-.379 1.5187-.464.3375-.084 1.0547-.126 2.0672-.126.1688.042.3797.084.5063.253.1687.127.2531.38.2953.633s-.0422.59-.2109.886c-.211.295-.4219.548-.6329.633z" fill="#bfbfbf"/><path d="m105.216 179.044c2.742-4.683-.296-7.214-2.785-10.547-1.772-.675-3.6701-1.097-5.2732-.211-1.0969.633-1.814 1.772-2.5312 2.827-1.3078 1.814-2.911 3.375-4.725 4.598-.886.633-4.936 1.983-5.1047 2.869-.4641 2.362 8.1 5.568 10.8422 6.497 3.6703-1.139 7.1719-2.743 9.5769-6.033z" fill="#2c6888"/><path d="m108.295 172.378c-.97-1.856-3.079-2.784-5.062-3.586-.253-.126-.549-.211-.802-.337 2.489 3.333 5.527 5.864 2.785 10.547-2.405 3.332-5.9066 4.936-9.5769 6.032.2109.085.4219.127.5484.169 1.1813.38 2.4469.717 3.6703.549 1.2232-.169 2.3202-.76 3.3332-1.519 1.982-1.477 3.628-3.417 4.682-5.695.971-1.899 1.435-4.219.422-6.16z" fill="#285773"/><path d="m83.3203 184.022c-2.2781-1.266-3.4594-2.025-3.6281-2.405-.2109-.464.0844-1.392.8016-2.784.7593-1.392 1.4765-2.11 2.1093-2.067.4219 0 1.8141.548 4.05 1.645 1.4344.633 3.2063 1.519 5.2735 2.573 5.6109 2.869 8.4374 4.472 8.5214 4.936.043.253-.084.591-.253 1.013-.2106.464-.5481.97-.97 1.603-.8437 1.181-1.4765 1.856-1.8562 1.941-.5063.126-2.911-.886-7.2141-3.038-.5906-.337-1.2656-.633-1.9406-1.012-1.9828-.886-3.6703-1.772-4.8938-2.405z" fill="#6b6f80"/><path d="m122.302 143.648c1.94-1.181 3.796-2.7 5.737-4.176.591-.97.295-2.489-.801-2.953-3.375-1.435-6.54-2.996-9.324-5.231-1.181-.971-4.936-5.105-6.623-3.08-3.924 4.767-7.088 11.053-13.2894 13.205-2.911 1.012-5.9906 1.012-8.986 1.307-2.9953.296-5.9484.844-8.8171 1.73-2.3204.717-5.1891 1.519-6.6235 3.628-1.35 1.983-1.3922 4.767-1.6031 7.088-.2109 2.784-.1266 5.568.2953 8.311.3375 2.109.5484 5.484 2.0672 7.256.0844.337.2531.633.5906.801.1266.043.2531.127.3797.169 14.8078-10.715 32.1473-17.381 46.9973-28.055z" fill="#c1272d"/><path d="m136.477 160.102c3.164-.085 7.34-.464 9.829-2.7 2.321-2.068 2.236-4.725-1.054-5.864-1.266-.422-2.616-.422-3.966-.507-4.472-.253-8.859-1.476-12.867-3.459-4.599-2.278-3.966-4.388-.633-7.763.084-.084.169-.211.253-.337-1.898 1.476-3.797 2.995-5.737 4.176-14.85 10.632-32.1895 17.34-47.0395 28.013 2.8688 1.308 5.611 2.573 8.1 4.556 2.4891 1.941 4.6828 4.261 7.2985 6.075 7.0031 4.767 13.795-2.362 17.128-8.058 1.941-3.29 3.628-6.834 6.708-9.281 3.037-2.362 6.666-3.417 10.378-4.092 3.923-.717 7.636-.675 11.602-.759z" fill="#ab171d"/><path d="m180.689 114.877c.633-.464 1.308-.886 1.983-1.308 2.658-1.73 5.316-3.46 7.973-5.231 1.941-1.266 4.05-2.49 5.907-3.882.928-.717 2.067-2.615.379-3.333-1.265-.548-3.543.254-3.797-1.3917-.042-.3375-.126-.675-.337-.886-.928-.9703-4.388.886-5.358 1.2657-5.316 2.067-10.505 4.43-15.862 6.497-.591.211-1.224.506-1.519 1.055-.211.464-.169 1.012-.169 1.518 0 2.574-4.05 5.105-1.055 7.425 1.013.76 2.447.886 3.671.717 1.265-.168 2.362-.843 3.628-.632 1.392.211 1.983.253 2.995-.633.506-.422 1.013-.802 1.561-1.181z" fill="#141213"/><path d="m172.336 110.995-54.464 31.725 4.261 6.792 52.228-33.792z" fill="#141213"/><path d="m175.669 110.278-7.721 3.375c-.337.127-.464.549-.295.886.675 1.181 1.266 2.278 1.899 3.459.168.338.59.422.886.211l6.876-4.978c.675-.506.886-1.434.506-2.193-.379-.802-1.35-1.14-2.151-.76z" fill="#c0262c"/><path d="m125.044 149.723c-.085-.632-.549-1.181-.928-1.729-.971-1.392-2.025-2.616-2.7-4.177-.549-1.223-1.139-3.08-2.489-3.67-1.393-.633-2.827.886-3.924 1.645-.801.549-2.278 1.139-2.109 2.32.084.591.422 1.182.675 1.688.295.675.675 1.35 1.012 1.983.717 1.265 1.603 2.447 2.489 3.586.633.801 1.393 2.151 2.489 2.236 1.224.126 2.405-.844 3.375-1.435.886-.548 2.279-1.181 2.11-2.447z" fill="#ebe9ea"/><path d="m108.802 159.764c-.085-.633-.549-1.181-.929-1.73-.97-1.392-2.025-2.615-2.7-4.176-.548-1.224-1.139-3.08-2.489-3.67-1.392-.633-2.8262.885-3.923 1.645-.8016.548-2.2782 1.139-2.1094 2.32.0844.591.4219 1.181.675 1.688.2953.675.675 1.35 1.0125 1.982.7172 1.266 1.6031 2.447 2.4889 3.586.633.802 1.392 2.152 2.489 2.236 1.224.127 2.405-.843 3.375-1.434.928-.548 2.321-1.139 2.11-2.447z" fill="#ebe9ea"/><path d="m101.461 164.32c-.211-.59-.633-1.139-.97-1.687-.9285-1.435-1.8988-2.7-2.6582-4.177-.6328-1.181-1.3922-2.911-2.4047-3.712-1.0546-.844-1.7296.211-2.3625.633-.4218.295-1.35.548-.9703 1.603.1688.506.5485 1.097.8016 1.603.3375.675.7172 1.308 1.0969 1.94.7172 1.266 1.5609 2.447 2.4047 3.629.5906.843 1.35 2.151 2.1515 2.446.8438.338 1.477-.253 2.025-.59.422-.253 1.266-.506.886-1.688z" fill="#3d384c"/><path d="m94.3735 168.708c-.2532-.549-.6329-1.139-1.0125-1.646-.9282-1.434-1.8141-2.742-2.6579-4.218-.675-1.182-1.5609-2.827-2.3625-3.755-.8437-.97-1.0546-.211-1.3078 0-.2109.169-.7172.169-.2531 1.139.2109.464.5906 1.097.8859 1.561.3797.633.7594 1.266 1.1391 1.898.7594 1.224 1.5609 2.49 2.3625 3.671.5484.844 1.35 2.151 1.8984 2.615.5907.464.8438.127 1.1391-.042.2531-.084.675-.126.1688-1.223z" fill="#23212d"/><path d="m114.455 134.873c.084-.126.168-.21.211-.421.042-.127.042-.211.042-.338 0-.337-.127-.675-.38-.886-.337-.295-.801-.337-1.223-.169-.042 0-.085 0-.127.043-.38.126-.633.421-.717.801-.084.253-.042.549.084.802.253.506.802.801 1.35.717.169-.042.211-.042.338-.084.169-.169.295-.296.422-.465z" fill="#23212d"/><path d="m104.625 169.552c0-.464-.295-.929-.717-1.097-.127-.042-.253-.085-.38-.127-.295-.042-.38-.042-.675 0-.211.042-.38.169-.548.338-.127.126-.211.295-.253.506-.127.211-.211.38-.211.633-.043.548.422 1.054.97 1.181.38.084.759.042 1.097-.169.464-.295.759-.759.717-1.265z" fill="#23212d"/><path d="m100.533 175.331c.084-.084.126-.211.169-.337.042-.042.042-.127.084-.169v-.042c0-.085.042-.296.042-.38s0-.126-.042-.211c0-.084 0-.169-.042-.253-.042-.127-.085-.253-.169-.38-.042-.084-.169-.253-.253-.337-.169-.169-.295-.211-.5064-.295-.0843-.043-.1265-.043-.2109-.085-.5062-.126-1.0125.042-1.35.38-.0844.042-.2109.169-.2531.211s-.1688.253-.211.295c-.0421.084-.0421.042-.0843.211 0 .042-.0422.127-.0844.211-.0422.127-.0422.253-.0422.38 0 .084.0422.295.0422.379.0422.085.1266.296.1687.38.0844.169.211.295.3797.422.0422.042.1266.084.1688.126.1265.085.2531.127.4219.169h.0421c.1266 0 .2954.042.3797.042.0844 0 .1688-.042.211-.042.0843 0 .1265 0 .2109-.042h.0422c.1266-.042.2531-.126.3375-.169h.0426c.295-.168.379-.295.506-.464z" fill="#23212d"/><path d="m97.6219 180.309c.2531-.211.3797-.506.4641-.843.1687-.675-.211-1.393-.8016-1.688-.1266-.042-.2109-.084-.3375-.126-.1688-.043-.3375-.043-.5484 0-.2954.042-.5907.168-.8016.421-.0422.043-.0422.085-.0844.127-.1265.084-.2531.211-.3375.337-.2109.254-.3797.591-.3797.971.0422.379.1688.717.4219.97.1688.169.4641.295.7172.38.1266.042.3375.042.4641.042.5062-.084.8859-.253 1.2234-.591z" fill="#23212d"/><path d="m178.369 106.228-83.1096 51.553" stroke="#999292" stroke-miterlimit="10" stroke-width=".8"/><path d="m183.6 103.908-87.539 55.223" stroke="#999292" stroke-miterlimit="10" stroke-width=".8"/><path d="m189.675 101.081-92.8969 59.189" stroke="#999292" stroke-miterlimit="10" stroke-width=".8"/><path d="m193.008 103.106-95.6814 58.008" stroke="#999292" stroke-miterlimit="10" stroke-width=".8"/><path d="m188.283 106.987-90.1549 55.477" stroke="#999292" stroke-miterlimit="10" stroke-width=".8"/><path d="m184.823 110.742-85.5558 53.536" stroke="#999292" stroke-miterlimit="10" stroke-width=".8"/><path d="m197.016 106.313c.084-.169 0-.38-.169-.422-.084-.085-.211-.127-.295-.085-.127.042-.254.085-.38.169-.127.042-.253.084-.38.127-.042-.085-.126-.169-.169-.211-.126-.169-.253-.296-.379-.464-.253-.296-.464-.591-.717-.844-.254-.295-.464-.591-.718-.844-.126-.126-.253-.295-.379-.422-.127-.126-.296-.169-.422-.211-.085-.042-.169.042-.169.127.042.169.042.337.127.464.084.169.211.337.337.464.211.295.464.591.717.886s.464.591.718.886c.126.169.253.295.379.464.042.084.127.126.169.211-.127.126-.253.253-.338.422-.084.126-.042.337.085.422.042.084.169.168.253.168.675-.211 1.35-.632 1.73-1.307z" fill="#999292"/><path d="m192.586 110.109c.084-.168 0-.379-.169-.421-.084-.085-.211-.127-.295-.085-.127.042-.253.085-.38.169-.126.042-.253.084-.379.126-.043-.084-.127-.168-.169-.21-.127-.169-.253-.296-.38-.465-.253-.295-.464-.59-.717-.843-.253-.296-.464-.591-.717-.844-.127-.127-.253-.295-.38-.422-.127-.126-.295-.169-.422-.211-.084-.042-.169.042-.169.127.043.168.043.337.127.464.084.169.211.337.337.464.211.295.465.59.718.886.253.295.464.59.717.886.126.168.253.295.38.464.042.084.126.126.168.211-.126.126-.253.253-.337.422-.085.126-.042.337.084.421.042.085.169.169.253.169.675-.211 1.35-.633 1.73-1.308z" fill="#999292"/><path d="m189 113.948c.084-.168 0-.379-.169-.421-.084-.085-.211-.127-.295-.085-.127.042-.253.085-.38.169-.126.042-.253.084-.379.126-.043-.084-.127-.168-.169-.21-.127-.169-.253-.296-.38-.465-.253-.295-.464-.59-.717-.843-.253-.296-.464-.591-.717-.844-.127-.127-.253-.295-.38-.422-.126-.126-.295-.169-.422-.211-.084-.042-.169.042-.169.127.043.168.043.337.127.464.084.169.211.337.338.464.21.295.464.59.717.886.253.295.464.59.717.886.126.168.253.295.38.464.042.084.126.126.168.211-.126.126-.253.253-.337.422-.085.126-.042.337.084.421.042.085.169.169.253.169.675-.211 1.35-.633 1.73-1.308z" fill="#999292"/><path d="m188.958 96.3563c.169 0 .337.1687.295.3375.042.1265 0 .2109-.084.2953-.085.0843-.211.1687-.296.2531-.084.1266-.168.2109-.295.2953.042.0844.085.1688.127.2531.084.1688.168.3375.253.5485.169.3375.295.675.464 1.0125s.295.6754.464 1.0124c.084.169.169.338.211.549.042.168.042.337 0 .506 0 .084-.127.126-.211.084-.127-.084-.253-.211-.38-.337-.126-.169-.168-.338-.253-.507-.169-.337-.295-.6746-.464-1.0121s-.295-.675-.464-1.0125c-.084-.1688-.169-.3375-.253-.5484-.042-.0844-.084-.1688-.127-.2532-.168.0422-.337.0844-.506.1266-.169 0-.295-.1266-.337-.2953-.043-.0844-.085-.211 0-.2953.421-.5485 1.096-.9704 1.856-1.0125z" fill="#999292"/><path d="m182.672 99.1406c.169 0 .337.1688.295.3375.042.1266 0 .211-.084.2953-.085.0844-.211.1688-.295.2536-.085.126-.169.211-.296.295.042.084.085.169.127.253.084.169.169.337.253.548.169.338.295.675.464 1.013.169.337.295.675.464 1.012.084.169.169.338.211.549.042.169.042.337 0 .506 0 .085-.127.127-.211.084-.127-.084-.253-.21-.38-.337-.126-.169-.168-.338-.253-.506-.169-.338-.295-.675-.464-1.013-.169-.337-.295-.675-.464-1.012-.084-.169-.169-.338-.253-.549-.042-.084-.084-.168-.127-.253-.168.042-.337.085-.506.127-.169 0-.295-.127-.337-.296-.043-.084-.085-.211 0-.295.422-.5905 1.097-.9702 1.856-1.0124z" fill="#999292"/><path d="m177.441 101.292c.168 0 .337.169.295.338.042.126 0 .211-.084.295-.085.084-.211.169-.296.253-.084.127-.168.211-.295.295.042.085.084.169.127.254.084.168.168.337.253.548.168.337.295.675.464 1.012.168.338.295.675.464 1.013.084.169.169.337.211.548.042.169.042.338 0 .507 0 .084-.127.126-.211.084-.127-.084-.253-.211-.38-.337-.126-.169-.169-.338-.253-.507-.169-.337-.295-.675-.464-1.012-.169-.338-.295-.675-.464-1.013-.085-.168-.169-.337-.253-.548-.042-.085-.085-.169-.127-.253-.169.042-.337.084-.506.126-.169 0-.295-.126-.338-.295-.042-.084-.084-.211 0-.295.422-.549 1.097-.971 1.857-1.013z" fill="#999292"/><path d="m190.519 100.912c0-.042 0-.042 0-.084 0-.169-.085-.337-.169-.464-.253-.253-.633-.169-.928.042-.042 0-.042 0-.084.042-.211.085-.338.296-.38.507-.042.168-.042.379.084.464.085.042.169.084.253.126.043 0 .085.042.127.042.084.043.169.043.253.043.169 0 .295-.043.422-.085.253-.126.422-.379.422-.633z" fill="#757070"/><path d="m193.472 103.739c.042-.042.084-.084.084-.169.042-.084.042-.168.042-.253 0-.084 0-.126 0-.211 0-.042-.042-.126-.042-.168 0-.043-.042-.085-.042-.085-.042-.084-.126-.126-.211-.169-.084-.042-.253-.084-.337-.084-.127 0-.253.042-.338.127-.042.042-.084.084-.126.126-.085.085-.085.127-.127.253 0 .042-.042.085-.042.127-.042.084-.042.211 0 .337.042.043.042.127.084.169.042.084.085.127.169.169s.169.084.253.084h.338c.084-.084.211-.169.295-.253z" fill="#757070"/><path d="m189.169 107.367c.042-.169 0-.295-.085-.464-.042-.042-.084-.084-.126-.126-.085-.043-.127-.085-.211-.127-.042 0-.127-.042-.169-.042-.084 0-.126 0-.211 0-.042 0-.042.042-.084.042s-.085.042-.127.042c0 0 0 0-.042 0-.084.042-.126.085-.169.169-.084.084-.126.169-.168.295v.169.127c.042.084.084.126.126.211.085.084.211.168.338.21.126.043.253.043.379 0 .296 0 .507-.253.549-.506z" fill="#757070"/><path d="m185.288 111.375c.042-.042.126-.084.168-.127.085-.084.085-.126.127-.253 0-.042.042-.126.042-.168 0-.169-.084-.296-.169-.422-.126-.127-.295-.169-.422-.169-.084 0-.168.042-.253.042h-.042c-.126 0-.211.042-.337.085-.043.042-.085.084-.127.126-.042.084-.084.127-.127.211-.042.169-.042.422.085.548.126.211.337.338.59.296.043 0 .085 0 .127-.042h.042c.085 0 .127-.043.211-.085 0 0 .042 0 .085-.042z" fill="#757070"/><path d="m183.938 104.119c.042-.085.084-.169.042-.296 0-.126-.042-.21-.085-.295-.042-.084-.126-.169-.211-.211-.084-.042-.126-.042-.253-.042-.042 0-.084 0-.168 0h-.043c-.042 0-.084.042-.126.084-.042.043-.085.085-.127.085-.042.042-.084.084-.084.126-.042.043-.085.127-.085.211v.127.084c0 .042.043.042.043.085.042.084.126.126.211.211.042.042.126.042.168.084h.085c.042.042.126.042.211.042.084 0 .211-.042.295-.084 0-.042.084-.127.127-.211z" fill="#757070"/><path d="m178.664 106.566c.084-.085.127-.211.169-.296 0-.042.042-.126.042-.168 0-.085-.042-.169-.084-.254 0-.042-.043-.042-.043-.084s-.042-.042-.042-.084c-.084-.042-.126-.085-.211-.127-.042 0-.126 0-.168 0-.085 0-.169.042-.254.085-.084.042-.126.084-.168.126 0 0 0 0-.042 0-.211.084-.296.338-.254.591.043.211.254.379.464.422.211.084.422-.043.591-.211z" fill="#757070"/><g fill="#cc8875"><path d="m95.5125 158.203c.0422 0 .0422-.042.0844-.084l.0422-.042.0422-.043c0-.042.0422-.084.0422-.126 0 0 0 0 0-.042 0-.043 0-.085 0-.085 0-.042 0-.084 0-.084 0-.042-.0422-.084-.0422-.127-.0422-.084-.0844-.126-.1688-.168-.0422 0-.0844-.043-.1265-.043-.0422 0-.0844 0-.0844 0-.0844 0-.1266 0-.211.043-.0421 0-.0843.042-.0843.084 0 0 0 0-.0422 0s-.0422.042-.0844.042c0 0 0 .042-.0422.042 0 0 0 .043-.0422.043 0 .042-.0422.042-.0422.084v.084.127.042c0 .042.0422.042.0422.084.0422.085.0844.127.1688.169h.0422.0422.0421.0422.0844.0844c.1265.042.1687 0 .2109 0z"/><path d="m95.5969 159.173c.0422 0 .0422-.042 0 0 0-.042 0-.084 0-.084.0422.042.0422.042 0 .084z"/><path d="m96.4828 159.384c0-.042.0422-.084.0422-.126v-.042c0-.043 0-.085 0-.127s0-.084 0-.084c0-.042-.0422-.085-.0422-.127-.0422-.084-.0843-.126-.1687-.126-.0422 0-.0844-.043-.1266-.043-.0844 0-.1265 0-.1687 0h-.0422c-.0422 0-.0844.043-.0844.085-.0422 0-.0422 0-.0844.042-.0843.042-.0843.084-.1265.127 0 .042 0 .042-.0422.084v.084.042.085.042c0 .042.0422.042.0422.084 0 .043.0422.043.0843.085l.0844.084h.0422c.0422 0 .0844.042.0844.042h.1265c.0844 0 .1688-.042.211-.084.0844 0 .1265-.042.1687-.127z"/><path d="m96.9891 160.734s.0422-.042.0844-.042c0 0 .0421-.042.0421-.084s.0422-.085.0422-.127v-.042-.042c0-.042 0-.084 0-.084v-.043c0-.042-.0422-.084-.0843-.126-.0422 0-.0422-.042-.0844-.042-.0422-.043-.0422-.043-.0844-.043 0 0 0 0-.0422 0s-.0422 0-.0844-.042c-.0421 0-.0421 0-.0843 0h-.0422c-.0422 0-.0422 0-.0422 0-.0422 0-.0422.042-.0844.042s-.0422.043-.0844.043c0 .042-.0421.042-.0421.084s-.0422.084-.0422.084v.043.042.084c0 .042.0422.084.0422.084.0421.043.0421.085.0843.085s.0422.042.0844.042c0 0 .0422 0 .0422.042h.0422.0844.0843.0422c.0844.085.1266.085.1266.042z"/><path d="m97.5797 161.663c.0422 0 .0422-.043.0844-.085l.0422-.042.0422-.042s0-.042.0421-.042v-.043-.042-.042-.084c0-.043-.0421-.085-.0421-.085l-.0422-.042c0-.042-.0422-.042-.0844-.042 0 0-.0422 0-.0422-.042-.0422 0-.0422 0-.0844-.042h-.0422s-.0421-.043-.0843-.043-.0422 0-.0844 0-.0422 0-.0844 0h-.0422s-.0422 0-.0422.043c-.0421 0-.0421.042-.0843.084s-.0422.042-.0422.084v.042.043.042.084.085.042c0 .042.0422.084.0422.084 0 .042.0422.085.0843.085.0422 0 .0422.042.0844.042h.0422c.0422 0 .0422.042.0844.042h.0422.0843.0422.0844c-.0844-.042-.0422-.042 0-.084z"/><path d="m98.3391 162.928c.0422 0 .0422-.042.0844-.042.0421-.084.0843-.127.1265-.211 0-.042 0-.084 0-.127 0-.042 0-.084-.0422-.126-.0422-.084-.0422-.127-.1265-.169-.0422 0-.0422-.042-.0844-.042-.0422-.042-.1266-.042-.1688-.042-.0421 0-.0421 0-.0843 0 0 0 0 0-.0422 0h-.0422c-.0422 0-.0422 0-.0844 0s-.0422 0-.0844.042c-.0421 0-.0421.042-.0843.084-.0422.043-.0844.127-.0844.169v.127c0 .042 0 .084.0422.126 0 .042.0422.085.0422.127.0422.042.0422.084.0843.084.0422 0 .0422.042.0844.085.0422 0 .0844.042.1266.042h.2531c0-.085.0422-.127.0844-.127z"/><path d="m99.7313 164.573c.0422-.084.0843-.084.0843-.168 0-.042 0-.085 0-.127 0-.084-.0421-.169-.0843-.211s-.0422-.084-.0844-.126c-.0422-.043-.0422-.043-.0844-.043s-.0844-.042-.1265-.042c-.0422 0-.1266 0-.1688 0s-.0844.042-.0844.042c-.0843 0-.1265.043-.2109.085-.0422.042-.0844.042-.0844.084-.0422.042-.0422.085-.0844.085-.0421.042-.0421.084-.0421.168 0 .043 0 .127.0421.169v.042c.0422.042.0422.085.0844.127s.0844.042.1266.084c0 0 .0422 0 .0422.042.0422 0 .0843.043.1265.043h.0844.0422c.0422 0 .0844 0 .1266-.043.0421 0 .0843-.042.1265-.042.0844-.084.1266-.126.1688-.169z"/></g><path d="m90.0055 129.172c-.0425-.997-.512-1.817-1.3691-2.497-.8502-.657-1.857-.99-2.9998-.93-1.1496.038-2.1199.425-2.9107 1.164-.8141.745-1.2184 1.597-1.1759 2.593.0192 1.004.4792 1.877 1.3432 2.58.8639.704 1.8871 1.007 3.0599.963 1.1728-.045 2.1663-.439 2.9735-1.208.7539-.778 1.1213-1.669 1.0789-2.665z" fill="#022459"/><path d="m93.3245 154.304c-2.8619-.037-5.5425-.228-7.9953-.588-2.476-.352-4.3066-.997-5.5123-2.003-1.2221-.976-2.0008-2.158-2.3291-3.525-.3515-1.359-.3524-2.898-.0121-4.563s.7365-3.397 1.1954-5.172c.3951-1.48 1.0018-3.097 1.843-4.86.3553-.761.9599-1.873 1.7675-3.323.5359.447 1.095.887 1.7099 1.26 1.0633.695 2.192 1.27 3.3328 1.715.8118-1.351 1.7491-2.788 2.8119-4.314-2.5459-1.442-5.3045-1.812-8.2296-1.124-.2752.435-.5736.876-.8255 1.304-1.0449 1.671-1.9574 3.279-2.7375 4.821-7.814 15.128-3.1863 22.843 13.9063 23.137.4765-.948.8534-1.892 1.0746-2.765z" fill="#022459"/><path d="m85.1689 137.389c.5566-1.275 1.2851-2.651 2.1622-4.121-1.1639-.438-2.2694-1.02-3.3327-1.714-.5986-.404-1.1741-.814-1.71-1.261-.8075 1.45-1.4122 2.562-1.7674 3.323-.8481 1.74-1.4779 3.364-1.8431 4.86-.4821 1.782-.8783 3.514-1.1954 5.172-.3402 1.665-.3394 3.204.0122 4.564.3283 1.366 1.1069 2.549 2.329 3.524 1.2221.976 3.0596 1.644 5.5124 2.004 2.4528.359 5.1334.551 7.9953.587.5469-2.331.0934-4.291-1.374-5.926-7.7869.032-10.0575-3.637-6.7885-11.012z" fill="#002c87"/><path d="m95.3734 149.03c-.6625.98-.8987 2.063-.6863 3.239.2021 1.153.7971 2.099 1.7871 2.784.9675.695 2.0381.964 3.1913.762 1.1855-.19 2.1325-.785 2.8395-1.785.697-1.023.933-2.106.711-3.304-.027-.177-.066-.321-.115-.488-.286-.98-.842-1.782-1.713-2.386-.851-.558-1.7568-.822-2.7289-.756-.1773.026-.3648.031-.5542.09-1.143.225-2.0569.832-2.7315 1.844z" fill="#002c87"/><path d="m90.1181 149.618c-.8026 1.206-1.0792 2.497-.8317 3.927.0288.123.0473.222.0761.345.2981 1.244 1.0013 2.25 2.0872 3.026 1.1717.846 2.4503 1.155 3.8582.918 1.4405-.225 2.5682-.957 3.4259-2.162.8474-1.226 1.1361-2.55.856-3.992-.0288-.123-.0474-.222-.0659-.322-.3064-1.322-1.0301-2.373-2.1384-3.139-1.2165-.825-2.552-1.081-3.9721-.811-1.3753.249-2.4927 1.004-3.2953 2.21z" fill="#002c87"/><path d="m97.2296 144.797c-.8184-.546-1.6932-.742-2.6486-.522-.9434.187-1.7005.723-2.2471 1.541-.5466.819-.7322 1.716-.5346 2.682.1753.976.6558 1.731 1.4518 2.288.8063.579 1.6811.775 2.6347.61.9657-.198 1.7208-.678 2.2898-1.507.5588-.851.7445-1.748.559-2.747-.1957-1.02-.6865-1.798-1.505-2.345z" fill="#002c87"/><path d="m94.2984 154.558c-.0813.119-.1402.227-.1991.335-.071.141-.1197.271-.1683.402-.2311.62-.2868 1.268-.1672 1.945.1752.976.6557 1.731 1.4518 2.288.8063.579 1.6811.775 2.6346.61.9657-.198 1.7209-.678 2.2898-1.507.35-.539.556-1.094.61-1.687.028-.175.024-.363.019-.55.006-.165-.021-.343-.048-.52-.185-.998-.676-1.776-1.4719-2.333-.6674-.453-1.3547-.653-2.1169-.603l-.2323.025c-.0448.021-.0774.008-.1222.029 0 0 0 0-.0224.01-.0448.021-.0774.008-.1222.029-.0224.01-.0224.01-.0551-.002-1.0086.163-1.7433.688-2.2796 1.529z" fill="#002c87"/><path d="m93.6826 156.41c-.7686-.082-1.4866-.349-2.1745-.847-.6021-.429-1.0577-.952-1.3892-1.559l-.7071.053c.3346 1.147 1.0173 2.107 2.0277 2.837.7736.567 1.5998.893 2.4784.979.2521.67.6731 1.236 1.2753 1.665.8063.579 1.6811.775 2.6346.61.9657-.198 1.7209-.678 2.2902-1.507.349-.539.556-1.094.61-1.687.028-.175.023-.363.019-.55.006-.165-.021-.342-.048-.52-.019-.1-.037-.199-.056-.299.76-.293 1.395-.8 1.905-1.521.697-1.022.933-2.105.711-3.303-.019-.1-.027-.177-.068-.267-.002.055.029.122.027.177.05.763-.162 1.483-.615 2.15-.557.796-1.29 1.266-2.221 1.421-.122.029-.233.025-.365.031-.1875.005-.3526-.001-.5177-.007-.0365.098-.073.196-.1095.294.1453.259.2131.525.2687.825.0288.122.0352.255.0416.387.0102.023-.0019.055-.0019.055.0063.133.0025.243-.0014.353-.048.428-.2061.852-.4743 1.273-.4186.624-.9824.99-1.726 1.14-.7213.141-1.3657-.025-1.9678-.454-.1184-.081-.247-.185-.343-.277-.3942-.388-.6418-.871-.7653-1.437 0 0 0 0-.0102-.022-.2323.025-.4851.005-.7276.007z" fill="#022459"/><path d="m75.0938 138.08c-1.35-1.055-2.1094-2.321-1.3922-3.839 2.2781-4.768 4.3453-10.294 9.6187-12.488 2.2782-.928 5.1047-.928 7.0453.591 1.6875 1.308 2.4469 3.501 2.5313 5.611.0844 3.164-1.3922 11.939-4.4297 13.879-1.7719 1.139-5.8219-.211-7.5516-.886-1.4765-.59-4.0921-1.56-5.8218-2.868z" fill="#232322"/><path d="m153.647 56.9953c-.042.0844-.042.1266-.085.211 3.207.0421 6.54 1.0546 9.704 1.6875 4.387.8437.042 6.1593-1.35 7.8468-.802 1.0125-3.755 3.1641-3.924 4.4719-.253 1.8984 4.092 6.2437 5.189 7.9734.422.7172.844 1.561.506 2.3203-.421.886-1.645.9704-2.657.886-3.671-.2531-7.425-.5485-10.758-2.0672-10.927-5.0203-7.594-27.0422.548-33.5391 9.619-7.7203 4.557 5.9485 2.827 10.2094z" fill="#00246b"/><path d="m123.145 7.1719c-1.223-.63282-2.489-1.0125-3.754-1.09688-1.646-.12656-3.291.25313-4.978 1.09688-2.405 1.22343-4.979 3.4172-7.594 6.6234-2.194 2.6157-4.514 6.0328-6.9612 10.2938-2.4469 4.2609-5.2734 12.4031-8.3953 24.5109-3.1641 12.15-.6328 26.8735 7.5094 44.2125l37.5051-12.9937c7.003-3.1641 9.323-11.7282 6.961-25.7344-2.405-14.0063-4.599-23.2453-6.582-27.7172s-3.923-8.1422-5.779-11.0531c-2.236-3.5016-4.472-5.99064-6.75-7.4672-.464-.25313-.802-.46407-1.182-.675z" fill="#00246b"/><path d="m82.8141 52.7766c-9.1969-8.5219-15.9469-13.8797-20.2922-16.1156-4.3453-2.236-8.1422-3.8813-11.4328-4.936-3.9657-1.2656-7.2985-1.7718-9.9985-1.4343-1.8562.1687-3.5015.7593-4.8093 1.7718-1.0125.7172-1.8985 1.7297-2.6157 2.911-.2109.3797-.3797.7172-.5484 1.0547-1.0969 2.489-1.6031 5.7796-1.6453 9.914 0 3.4594.3797 7.5938 1.0969 12.4031.7593 4.8516 3.8812 13.7954 9.4078 26.9157 5.5265 13.1203 12.1078 19.069 19.7015 17.93l38.5599-9.1972c-2.4474-18.9844-8.2271-32.7375-17.4239-41.2172z" fill="#00246b"/><path d="m145.462 101.714c15.061-20.0389 7.299-49.4014-12.571-63.3655-4.388-3.0797-10.21-5.2313-17.424-6.5391-8.859-1.6031-18.942-.5906-30.1639 2.9953-1.6875.3797-3.3328.8438-5.0203 1.35-8.7328 2.7422-16.4109 7.0454-23.1187 12.825-1.2657 1.0969-2.4891 2.236-3.6282 3.375-5.5687 5.6954-9.45 11.9391-11.6015 18.8157-.1266.3375-.2531.675-.3375 1.0547-2.2781 11.8125-2.5313 25.1437 3.5015 35.9859 6.4125 11.559 18.7735 16.537 31.3454 18.141 12.5296 1.645 25.3122-.211 37.1252-4.599 5.99-2.194 11.728-5.02 17.17-8.353 5.02-3.08 9.661-5.527 13.5-10.167.422-.464.844-.97 1.223-1.519z" fill="#00246b"/><path d="m107.072 80.2828c-1.266 0-2.616.2531-3.924.675-1.35.4219-2.742 1.0125-4.1761 1.8563-5.9063 3.4593-10.7156 11.7703-9.9141 18.6469.4219 3.797 2.6578 7.509 6.1172 9.155 3.5859 1.687 7.763 1.012 11.644.168 4.809-1.054 9.745-2.362 13.5-5.484 4.429-3.67 6.454-10.2094 3.037-15.2719-1.603-2.3625-4.092-4.6406-7.509-6.7078-3.249-2.1094-6.202-3.0797-8.775-3.0375z" fill="#002c87"/><path d="m54.8438 81.9704c-.1688 5.4843 2.5734 10.8 9.3234 13.7531 4.6406 2.025 9.6187 2.3203 15.0187.9281 5.3578-1.4344 9.4922-4.0922 12.4453-8.1422 4.3032-5.864 3.5016-10.1672-2.7421-13.8375-6.7922-3.9656-14.8079-5.7797-22.6969-5.2734-7.636.5062-11.0953 4.6828-11.3484 12.5719z" fill="#fff"/><path d="m143.058 59.0203c-3.67-11.6859-13.753-10.4203-22.233-4.4719-4.43 3.1219-8.395 7.0032-11.813 11.2641-5.526 6.8766-2.742 12.3188 5.485 15.2297 4.725 1.6453 9.703 1.5187 14.934-.2953 5.231-1.8141 9.155-4.8516 11.813-9.1125 2.573-4.05 3.079-8.6485 1.814-12.6141z" fill="#fff"/><path d="m80.8313 77.0344c-1.6875.5063-2.9532 1.561-3.7547 3.1641-.8438 1.6031-.9282 3.2062-.4219 4.8937.5062 1.6875 1.5609 2.9532 3.1641 3.7547 1.6031.8438 3.2062.9703 4.8937.4641 1.6875-.5063 2.9531-1.561 3.7547-3.1641.8437-1.6031.9703-3.2062.4641-4.8937-.5063-1.6875-1.561-2.9532-3.1641-3.7547-1.6031-.8438-3.2484-1.0125-4.9359-.4641z" fill="#000"/><path d="m115.214 66.2766c-1.687.5062-2.953 1.5609-3.755 3.164-.843 1.561-.928 3.2063-.421 4.8938.506 1.6875 1.56 2.9531 3.164 3.7969 1.603.8437 3.206.9703 4.893.464 1.688-.5062 2.953-1.5609 3.755-3.164.844-1.6032.97-3.2063.422-4.936-.506-1.6875-1.561-2.9531-3.164-3.7547-1.603-.8859-3.206-1.0125-4.894-.464z" fill="#000"/><path d="m106.608 89.6063c-.338-.9704-.633-1.4344-.717-1.6032-1.139-1.3921-1.73-1.1812-1.772.5485-.085.2109-.085.5484.126 1.0547l2.405 7.889c-.084.3375-.169.6328-.295.886-.971 2.2777-2.742 3.9657-5.232 5.0627-1.012.422-2.4464.633-4.2183.633-1.8141 0-3.6703-1.055-5.6953-3.08-.2531.591-.2531 1.223-.0422 1.898.0844.253.1687.422.2953.675.5063.886 1.35 1.646 2.4891 2.194 1.1812.549 2.3625.886 3.6281 1.013 1.6031.084 3.0373-.085 4.4293-.507 2.785-.886 5.021-2.868 6.793-5.906 3.586 1.224 6.539 1.477 8.817.717 2.278-.717 3.628-1.3919 3.965-1.8982.971-.8015 1.646-1.8562 1.941-3.0375.295-1.0125.422-1.814.338-2.489 0-.1688-.043-.2954-.043-.4641-.168-.7172-.59-1.4766-1.265-2.1516-.338 3.0375-1.224 5.0625-2.574 6.075-1.012.7172-2.067 1.1813-3.164 1.3922-2.658.5063-5.062.1266-7.172-1.139-.211-.1688-.506-.3375-.759-.5485z" fill="#000"/><path d="m106.313 86.2313c-.549.1265-1.14.2109-1.73.3797-1.814.5484-3.249 1.4343-4.219 2.5312-.4218.4219-.6749.8438-.8859 1.2656 1.3919 2.7844 3.9239 3.9657 7.6359 3.5438.084-.0422.169-.0422.253-.1266 2.953-1.0969 4.43-3.2906 4.345-6.6234-.632-.4641-1.349-.8016-2.151-1.0125-.97-.1266-2.067-.1688-3.248.0422z" fill="#000"/><path d="m101.714 118.969c2.574.633 5.527.464 8.227-.169 5.104-1.181 9.998-3.966 12.656-8.184 3.333-5.232 1.603-10.168-.169-15.23-1.476 1.9406-3.881 3.5859-6.37 4.2187-.802.211-7.467.0422-7.046-1.4765-.843 2.9948-3.375 5.6108-6.539 6.7498-2.8683 1.013-6.1168.38-8.9433.38-.5063 4.176 1.0547 9.661 4.725 12.234 1.0547.675 2.1933 1.181 3.4593 1.477z" fill="#000"/><path d="m124.158 121.078c-.085.295-.169.549-.211.802-1.266 3.881-5.316 7.889-9.788 7.34-4.936-.632-3.965-6.032-7.678-8.437-1.687-1.097-4.008-.928-5.653-2.152-1.8561-1.392-2.1514-4.261-.9702-6.286s3.4172-3.206 5.6952-3.586c1.983-.337 4.05.38 5.906.043 3.333-.549 8.227-3.839 11.391-1.097 2.784 2.447 2.32 9.618 1.308 13.373z" fill="#af4a52"/><path d="m115.72 115.763c-.548-1.857-1.476-4.43-3.417-5.147-.38-.127-.717.211-.717.548-.084 1.899 1.35 3.755 1.814 5.569.506 1.898.464 3.881 1.35 5.695.169.338.675.295.886 0 1.223-1.983.717-4.472.084-6.665z" fill="#aa2e43"/><path d="m38.3063 97.5375c.0421.0422.1265.0844.1687.1266-2.5734 1.8984-4.725 4.6409-6.9609 6.9609-3.0797 3.248 3.5437 5.062 5.6109 5.611 1.2656.337 4.9359.422 5.7797 1.35 1.3078 1.434.2531 7.467.3797 9.492.0422.802.2109 1.772.9281 2.152.8859.464 1.8984-.169 2.6578-.802 2.8266-2.32 5.7375-4.725 7.5938-7.889 6.0328-10.42-9.4078-26.4515-19.786-27.0843-12.2765-.675-.2531 7.5516 3.6282 10.0828z" fill="#00246b"/><path d="m76.5703 22.2328c-.464-.9281-.5484-2.0671-.1265-2.9953.4218-.9281 1.3921-1.6453 2.4468-1.6453s2.025.8438 2.1094 1.8985c.0844 1.0546-.675 1.9828-1.6453 2.4468-.9281.4641-2.025.5063-3.0797.5063 0-.2531.0422-.5485.0422-.8016" fill="#232322"/><path d="m66.3609 53.9157c.211.1266.4219.2531.675.3797 2.8266 1.4344 5.8641 2.5312 8.986 3.2062 13.5422 3.0797 27.2111-2.7422 39.4031-8.3109 2.658-1.1813 5.4-2.5734 6.919-5.0625 5.147-8.4375-6.244-12.5297-12.53-12.5297-3.712 0-7.341.9703-10.8421 2.0672-11.6016 3.6703-22.6969 8.9859-32.7797 15.7359-2.8688 1.9407-2.1516 3.2485.1687 4.5141z" fill="#b5105c"/><path d="m112.641 29.7c-.844-1.4343-1.688-2.9109-2.574-4.3453-.759-1.2656-1.603-2.5312-2.658-3.5859-1.012-1.0547-2.236-1.8563-3.543-2.4469-2.7-1.2234-5.7379-1.7297-8.691-1.8984-2.9953-.211-6.0328 0-8.9859.5062-8.2688 1.4766-16.4953 5.6953-21.5578 12.5719-2.5313 3.4172-4.1344 7.425-4.5141 11.6859-.2953 3.4594.5906 9.3235 4.4719 10.8 1.0968.4219 2.2781.0844 3.375-.2531 11.3484-3.5859 22.6125-7.7625 33.6659-12.2344 2.067-.8437 4.092-1.6875 6.159-2.5734 1.519-.6328 3.67-1.7297 4.978-3.0375 2.236-2.2781 1.519-2.3625-.126-5.1891z" fill="#080808"/><path d="m138.08 190.434 1.308 7.51 15.398.844 3.08-3.924-7.932-14.091z" fill="#333"/><path d="m149.934 180.773 28.604-2.236 7.509 14.091-28.181 2.236z" fill="#474747"/><path d="m186.047 192.628-3.544 6.623-27.717-.464 3.08-3.923z" fill="#1b1b1b"/><path d="m145.969 192.881c-4.05-.422-8.1-.97-12.108-1.603-4.05-.633-8.1-1.265-12.234-1.519-4.05-.253-8.143-.084-12.15.718-3.882.801-7.468 2.362-11.1379 3.839-3.6281 1.476-7.3406 2.911-11.3063 3.375-3.7968.464-7.8047.295-11.475-.802-2.9953-.928-5.864-2.784-6.6656-5.991-.3375-1.307-.2953-2.784.3375-4.007.5906-1.182 1.6875-1.899 2.7844-2.532 2.0672-1.181 5.0203-2.446 5.0625-5.231 0-.97-.4219-1.772-.675-2.7-.211-.675-.1688-1.35.0422-2.025.3796-1.35 1.4765-2.489 2.7421-3.037.2954-.127.5907-.169.886-.253.3797-.085.7172-.211 1.0969-.296.2953-.042.464-.422.1687-.59-.7172-.38-1.35-.464-2.1516-.296-.7593.169-1.4765.507-2.0671.928-1.2657.929-2.1938 2.321-2.4469 3.882-.1266.843-.0422 1.687.2531 2.531.2531.717.5906 1.476.3797 2.236-.2531 1.055-1.3922 1.73-2.3625 2.278-1.2234.717-2.4891 1.308-3.6281 2.194-1.2235.97-2.025 2.32-2.2782 3.839-.6328 3.417.9704 6.665 3.7125 8.69 2.9954 2.279 6.961 3.038 10.6313 3.291 4.2609.295 8.5641-.337 12.6141-1.645 3.8812-1.266 7.5512-3.08 11.3902-4.43 3.924-1.35 7.974-2.025 12.108-2.067 8.522-.127 16.875 1.94 25.271 2.953 1.054.127 2.109.211 3.164.295.548.042 1.054-.506 1.054-1.054.042-.549-.422-.929-1.012-.971z" fill="#1b1b1b"/><path d="m99.6047 28.7719c-.5062 1.139-1.3078 2.1937-2.0672 3.2062-2.489 3.2485-5.9906 5.4422-9.4922 7.4672-2.9531 1.6875-6.4125 3.5016-9.8718 3.7969-1.561.1266-3.2063-.1266-4.5141-1.0547-1.3078-.8859-2.1516-2.4891-1.9406-4.05.2531-1.8984 1.814-2.5734 3.4593-2.9531 2.1938-.4641 4.261-1.3078 6.2438-2.3625 4.1766-2.2781 7.8047-5.4844 11.3062-8.6485.9704-.8859 2.1516-2.4468 3.586-2.3203 1.3078.1266 2.7 1.2657 3.2484 2.4047.8855 1.6031.6755 3.1219.0422 4.5141z" fill="#d4b02e"/><path d="m99.8156 29.489c-.5062 1.1391-1.3078 2.1938-2.0671 3.2063-2.4891 3.2484-5.9907 5.4422-9.4922 7.4672-2.9532 1.6875-6.4125 3.5015-9.8719 3.7969-1.5609.1265-3.2063-.1266-4.5141-1.0547-1.3078-.886-2.1515-2.4891-1.9406-4.05.2531-1.8985 1.8141-2.5735 3.4594-2.9532 2.1937-.464 4.2609-1.3078 6.2437-2.3625 4.1766-2.2781 7.8047-5.4843 11.3063-8.6484.9703-.8859 2.1515-2.4469 3.5859-2.3203 1.3078.1266 2.7 1.2656 3.2485 2.4047.8855 1.5609.6745 3.0797.0421 4.514z" fill="#ffd238"/><path d="m97.7485 33.4547c-.2532.9282-1.1813 1.6875-2.1516 1.7297s-1.9406-.5484-2.3203-1.4766c-.3375-.9281 0-2.025.8015-2.6156 1.7719-1.2656 4.3032.1688 3.6704 2.3625z" fill="#7197af"/><path d="m97.2422 32.8641c-.2531.9281-1.1812 1.6875-2.1516 1.7296-.9703.0422-1.9406-.5484-2.3203-1.4765-.3375-.9281 0-2.025.8016-2.6156 1.7719-1.2235 4.3031.1687 3.6703 2.3625z" fill="#86aac5"/><path d="m96.1031 28.6875c.2954.5485.211 1.2235-.0843 1.7297-.2953.5484-.8016.9281-1.3078 1.2656-.6329.4219-1.3079.8016-1.9829 1.0969-.4218.1688-.8859.3375-1.2656.1266-.3375-.211-.464-.675-.3797-1.0547.0844-.3797.3375-.7172.5907-1.0125.7171-.8016 3.2906-4.05 4.4296-2.1516z" fill="#ef5d5e"/><path d="m93.4453 29.1516c.5485.4641.9282 1.1391 1.3922 1.6875.4219.5062 1.1391.9703 1.0125 1.7297-.0422.1687-.1687.3797-.3797.4219-.8437.1687-1.3078-.5063-1.8562-1.0547-.5485-.5907-1.1391-1.1813-1.4344-1.8985-.3375-.7593.675-1.3922 1.2656-.8859z" fill="#9d9998"/><path d="m94.4578 29.5735c-.2531.9281-1.139 1.6875-2.1093 1.7297-.9704.0843-1.9829-.5485-2.3204-1.4766s0-2.025.7594-2.6156c1.7719-1.2235 4.3031.1687 3.6703 2.3625z" fill="#7197af"/><path d="m93.9516 29.025c-.2531.9281-1.1391 1.6875-2.1094 1.7297s-1.9828-.5484-2.3203-1.4766c-.3375-.9281 0-2.025.7594-2.6156 1.7718-1.2234 4.3031.1688 3.6703 2.3625z" fill="#86aac5"/><path d="m90.9563 28.3922c0-.0844 0-.1688.0422-.2531.0421-.0844.0843-.1688.1265-.211s.0844-.0843.1266-.1265c.0844-.1266.2531-.1688.3797-.211.2109 0 .464.0844.5906.2953.0844.1688.1266.3797.0422.5485-.0422.1687-.1266.3797-.2953.464-.1688.1266-.4219.1266-.6328.0422-.1688-.0843-.3375-.2531-.3797-.464.0422.0422 0 0 0-.0844z" fill="#3b3e3b"/><path d="m86.2313 41.4703c-.2532.9282-1.1813 1.6875-2.1516 1.7297s-1.9406-.5484-2.3203-1.4765c-.3375-.9282 0-2.0251.8016-2.6157 1.7718-1.2234 4.3031.1688 3.6703 2.3625z" fill="#7197af"/><path d="m85.725 40.9219c-.2531.9281-1.1812 1.6875-2.1515 1.7297-.9704.0422-1.9407-.5485-2.3204-1.4766-.3375-.9281 0-2.025.8016-2.6156 1.7719-1.2656 4.3031.1687 3.6703 2.3625z" fill="#86aac5"/><path d="m84.586 36.7453c.2953.5485.2109 1.2235-.0844 1.7297-.2953.5484-.8016.9281-1.3078 1.2656-.6328.4219-1.3078.8016-1.9828 1.0969-.4219.1688-.886.3375-1.2657.1266-.3375-.211-.464-.675-.3797-1.0547.0844-.3797.3375-.7172.5907-1.0125.675-.8438 3.2906-4.0922 4.4297-2.1516z" fill="#ef5d5e"/><path d="m81.886 37.1672c.5484.464.9281 1.139 1.3921 1.6875.4219.5062 1.1391.9703 1.0125 1.7297-.0421.1687-.1687.3796-.3796.4218-.8438.1688-1.3079-.5062-1.8563-1.0547-.5484-.5906-1.1391-1.1812-1.4344-1.8984s.7172-1.3922 1.2657-.8859z" fill="#9d9998"/><path d="m82.9406 37.6313c-.2531.9281-1.139 1.6875-2.1093 1.7297-.9703.0843-1.9828-.5485-2.3203-1.4766s0-2.025.7593-2.6156c1.7297-1.2235 4.3032.1687 3.6703 2.3625z" fill="#7197af"/><path d="m82.4344 37.0406c-.2531.9282-1.1391 1.6875-2.1094 1.7297s-1.9828-.5484-2.3203-1.4765c-.3375-.9282 0-2.025.7594-2.6157 1.7297-1.2234 4.3031.1688 3.6703 2.3625z" fill="#86aac5"/><path d="m79.4391 36.45c0-.0844 0-.1687.0422-.2531s.0843-.1688.1265-.211c.0422-.0421.0844-.0843.1266-.1265.0844-.1266.2531-.1688.3797-.211.2109 0 .464.0844.5906.2953.0844.1688.1266.3797.0422.5485-.0422.1687-.1266.3797-.2953.464-.1688.1266-.4219.1266-.6328.0422-.1688-.0843-.3375-.2531-.3797-.464.0422 0 0-.0422 0-.0844z" fill="#3b3e3b"/></svg>