<svg fill="none" height="216" viewBox="0 0 216 216" width="216" xmlns="http://www.w3.org/2000/svg" xmlns:xlink="http://www.w3.org/1999/xlink"><clipPath id="a"><path d="m0 0h216v216h-216z"/></clipPath><mask id="b" height="216" maskUnits="userSpaceOnUse" width="216" x="0" y="0"><path d="m216 0h-216v216h216z" fill="#fff"/></mask><g clip-path="url(#a)"><g mask="url(#b)"><path d="m197.7 121.011c-1.35-2.56-3.395-4.886-4.586-7.449-2.18-4.698-1.001-10.409-.839-15.4948.816-25.7199-15.295-51.5319-42.428-53.4791-3.523-.2541-7.058.1112-10.575.4733-20.504 2.1251-41.1731 5.9432-51.5284 25.9867-3.9801 7.7061-5.7843 16.4255-5.3047 25.0782.4765 8.5637 5.94 15.7867 5.3301 24.0907-.2827 3.827-.918 7.846.5972 11.371 1.4135 3.291 4.5456 5.705 5.5303 9.149 1.1625 4.056-.6766 9.262 2.449 12.093 1.7534 1.588 4.3775 1.642 6.5245 2.63 5.889 2.703 8.024 10.457 14.3 13.039 6.439 2.649 12.09-3.281 17.093-6.467 6.68-4.257 12.312-3.586 19.38-1.166 6.543 2.243 11.68.569 17.159-3.488 4.418-3.268 9.218-7.106 14.682-6.537 3.919.407 7.531 3.103 11.438 2.605 3.342-.426 6.08-3.313 6.826-6.607.747-3.294-.298-6.836-2.303-9.552-1.213-1.645-2.827-3.161-3.154-5.181-.302-1.864.575-3.707.724-5.587.162-2.027-.425-3.815-1.318-5.502z" fill="#5b121b"/><path d="m94.5191 177.149c1.9948-.864 3.3543-1.789 5.3936-2.802 4.8153-2.395 11.2793-3.84 16.6923-4.101 1.159 2.535 2.173 5.13 3.316 7.671-.781 0-1.55.048-2.312.14-.232.025-.464.054-.696.092-.425.064-.848.14-1.267.229-.232.048-.464.098-.693.156-.514.12-1.023.26-1.531.416 0 0-.003.003-.006.003-.254.073-.505.156-.759.241-3.278 1.087-6.436 2.732-9.593 4.285-.01.007-.022.01-.032.016-.422.21-.842.413-1.267.616-.652.312-.887.833-1.544 1.122-.4353.19-1.1628.356-1.5979.533-.0032 0-.1239-.193-.1303-.193-2.341.949-4.4439 1.893-6.4387 3.246-.1461-.216-.2827-.438-.4193-.658-.4733-.771-.7051-1.178-1.1562-1.972-.2287-.404-.4574-.813-.5495-1.277-.143-.737.2541-1.423.594-2.106.1366-.178.2477-.365.3271-.575.0667-.165.1366-.372.0922-.546.0031-.051.0095-.096.0031-.14-.0222-.27-.1715-.527-.2827-.766-.1111-.247-.4542-.876-.5971-1.099-.0636-.092-.1335-.168-.2097-.238-.0032-.022-.0095-.048-.0159-.07 1.512-.781 3.0748-1.458 4.6599-2.217" fill="#c9371b"/><g fill="#d84f2e"><path d="m94.5064 177.152s.0063-.003.0095-.003z"/><path d="m99.8047 185.017c-.4351.19-.864.378-1.2991.556.4351-.181.864-.366 1.2991-.556z"/><path d="m119.931 177.94c-.785-.007-1.557.031-2.322.117.762-.092 1.531-.14 2.312-.14.003.007.007.016.01.023z"/><path d="m91.6412 188.158c.1366.223.2732.442.4193.658-.6226.416-1.2325.873-1.836 1.385-1.7344-2.789-3.0399-5.55-3.7419-8.767.486-.362.9784-.693 1.4771-1.001.6067-.375 1.2229-.718 1.8487-1.042.0159-.006.0286-.016.0444-.022.0032.022.0096.048.0159.07.0763.07.1461.146.2097.238.1429.226.486.855.5971 1.099.1112.238.2605.496.2828.766.0063.044-.0001.089-.0032.139.0444.172-.0254.378-.0921.547-.0795.209-.1906.397-.3272.575-.3399.679-.737 1.369-.594 2.106.0921.463.3208.873.5495 1.277.4479.794.6798 1.2 1.1562 1.972z"/><path d="m94.5064 177.152s.0063-.003.0095-.003z"/><path d="m98.5055 185.566s-.0031.007-.0063.007c0 0 .0031-.007.0063-.007z"/></g><path d="m93.2993 190.125c.1842.12.3717.254.4955.393-.648.375-1.2928.782-1.9249 1.227-.5495-.518-1.0927-1.039-1.6486-1.544.6035-.512 1.2134-.969 1.836-1.385.2001.298.4161.581.6671.832.1715.178.3653.334.5749.473z" fill="#c9371b"/><path d="m98.5055 185.573c.0413.066.0794.133.1207.193-.0413-.066-.0857-.13-.1302-.19.0032 0 .0032-.003.0064-.003z" fill="#c9371b"/><path d="m98.5055 185.566c.4352-.178.864-.362 1.2992-.552-.4352.19-.864.378-1.2992.555.0413.067.0794.134.1207.194-.0413-.067-.0857-.13-.1302-.19 0 0 .0032-.007.0064-.007z" fill="#c9371b"/><path d="m119.931 177.94c-.785-.007-1.557.031-2.322.117.762-.092 1.531-.14 2.312-.14.003.007.007.016.01.023z" fill="#c9371b"/><path d="m90.1324 193.145c-1.0165.928-1.6169 1.042-2.2331 1.331-.613.292-1.099.077-1.566-.467-.9847-1.159-9.1101-14.246-9.6247-15.39-.2573-.571.0508-.981.4384-1.442.2763-.279 1.2451-1.023 1.9725-1.493l11.0065 17.461z" fill="#cccbca"/><path d="m120.004 177.917c-1.95.642-2.313.867-4.53 1.789-2.22.918-4.71 2.646-7.617 4.116-1.734.88-5.841 2.843-7.9887 3.834-.1335-.162-.2573-.327-.3717-.495.108.168.2097.343.3177.511-2.106.886-4.0977 1.738-6.0195 2.846-.1238-.139-.3113-.273-.4955-.394-.2096-.139-.4002-.298-.5749-.473-.251-.251-.467-.533-.6671-.832 1.9948-1.353 4.0977-2.297 6.4387-3.243.0445.063.089.124.1303.19-.0413-.063-.0795-.13-.1208-.193.4352-.178.8641-.366 1.2992-.556.6543-.293 1.3123-.594 1.9633-.906.422-.203.842-.403 1.267-.616.01-.003.022-.006.032-.016 3.161-1.547 6.308-3.189 9.593-4.285.254-.086.505-.165.759-.241.003 0 .006-.003.006-.003.509-.153 1.017-.293 1.531-.416.229-.054.461-.108.693-.156.419-.089.839-.165 1.267-.229.232-.032.464-.063.696-.092.766-.086 1.537-.124 2.322-.117-.003-.007-.006-.016-.01-.023h.086z" fill="#c9371b"/><path d="m93.5725 191.335c-.4479.286-.899.562-1.3532.835-.6099.365-1.6486 1.175-2.43 1.274-.0508.006-.1017.009-.1557.009-.3843-.587-4.9997-7.69-8.1794-12.629-.0667-.111-.1334-.21-.2001-.315 0 0 .0032 0 .0032-.003.216-.133.4352-.27.6448-.413.143-.095.2859-.194.432-.302.0159-.006.0286-.019.0445-.031.1366-.099.2763-.204.4098-.308.0031 0 .0031-.004.0031-.004.1303-.101.2542-.206.3749-.314.0285-.026.0603-.051.0889-.076.1207-.108.2382-.216.3558-.331.0889-.085.181-.171.2636-.263.0159-.016.0286-.029.0413-.045.0508-.051.0985-.101.1461-.159.0985-.111.2001-.225.2954-.34.3907-.47.7274-.978 1.0038-1.531.1175.073.2351.153.3494.226l.0095-.006s.0064.003.0159.009c.1207.08.2383.159.3558.238.0985.07.1937.137.2954.207.1811.13.3653.26.5368.391.0191.015.0318.022.0445.038.1239.095.2509.184.3748.276.0064.003.0159.01.0223.016.0952.073.1905.143.2858.216.0953.07.1906.146.2923.216.0508.032.0953.07.1461.102.108.073.2128.139.3145.203.1524.095.2954.181.432.263.1461.096.2922.185.4192.283.0445.032.0858.07.1239.102.0191 0 .0413.003.0604.016.1366.054.2573.12.3621.203.0222.019.0413.032.0604.048.0762.07.1461.146.2096.238.1429.225.486.854.5972 1.099.1112.238.2604.495.2827.765.0063.045 0 .089-.0032.14.0445.172-.0254.378-.0921.547-.0794.209-.1906.397-.3272.575-.3399.679-.7369 1.369-.594 2.106.0921.463.3208.873.5495 1.276.4479.795.6798 1.201 1.1563 1.973.1366.222.2732.442.4193.658.2001.298.4161.581.667.832.1716.178.3653.333.575.473.1842.121.3716.254.4955.394.2128.241.2414.515-.2255.816z" fill="#a09c92"/><path d="m85.3677 176.389c-.8926 1.767-2.4046 3.094-4.1072 4.123-1.5152-2.353-2.6619-4.161-2.7921-4.415 2.3474-1.826 4.8155-.997 6.8993.292z" fill="#a09c92"/><path d="m86.1967 176.796c-.1143.029-.2446.226-.3939.588-.1651.432-.2763.724-.3335.876-.1493.366-.2319.655-.2509.883-.0318.258.0095.518.1207.782.2319.4.4637.629.6956.686.1684.022.3431-.01.5273-.105.3463-.187.5972-.553.756-1.099.2001-.607.216-1.143.0572-1.61-.0921-.274-.2605-.518-.4987-.731-.2541-.222-.4828-.311-.6861-.267h.0063z" fill="#cccbca"/><path d="m89.8814 181.265c-.1207.35-.3208.556-.594.642-.3716.089-.6956-.006-.9783-.286-.2065-.216-.324-.537-.3463-.972-.0031-.073-.0063-.143-.0063-.213-.0032-.27.0159-.533.0508-.797.054-.334.1017-.588.143-.762.0285-.146.1175-.261.2573-.35.0254-.019.0508-.032.0794-.047.1874-.089.378-.118.5622-.08.1938.041.3494.111.4669.207.1176.095.2002.212.2415.346.0317.152.0603.295.0857.422.0032.023.0095.048.0159.07.0762.404.1175.693.1302.861.0191.426-.019.75-.1111.966z" fill="#cccbca"/><path d="m145.851 145.285c.988 4.381 1.604 8.723 1.842 13.027.321 5.867-.067 11.324-1.162 16.365-.699 3.228-2.094 6.061-4.184 8.5-1.375 1.592-2.998 2.977-4.873 4.155-.848.362-1.718.677-2.604.941-2.421.711-4.949 1.067-7.589 1.064-2.474.012-4.968-.286-7.487-.89-2.906-.702-5.486-1.753-7.738-3.154-2.48-1.544-4.383-3.427-5.705-5.657-1.445-2.398-2.277-5.321-2.496-8.771-.172-2.588 0-5.774.524-9.558.092-.638.181-1.264.267-1.88.324-2.02.679-3.942 1.067-5.756.947-4.339 2.239-8.592 3.875-12.763.998.62 2.221 1.223 3.669 1.814 3.38 1.366 7.258 2.338 11.629 2.906 6.029.788 13.017.671 20.958-.349z" fill="#d84f2e"/><path d="m144.428 134.336c1.34 1.029 2.484 2.192 3.44 3.491.568.737 1.061 1.525 1.486 2.36.61 1.239 1.052 2.7 1.322 4.384.095.435.168.895.213 1.385.152 1.353.219 3.405.203 6.152l-.054 8.383c-.016 1.849-.06 3.51-.137 4.981-.098 1.868-.244 3.434-.438 4.692-.553 3.557-1.62 6.591-3.202 9.097-.807 1.274-1.766 2.443-2.875 3.507-.759.74-1.594 1.429-2.503 2.068-.67.495-1.362.94-2.077 1.337-.756.432-1.534.819-2.328 1.163 1.874-1.179 3.5-2.564 4.872-4.155 2.09-2.44 3.485-5.273 4.184-8.501 1.096-5.041 1.483-10.498 1.162-16.365-.238-4.304-.854-8.646-1.842-13.026-7.944 1.019-14.929 1.134-20.958.349-4.374-.572-8.25-1.541-11.629-2.906-1.449-.591-2.672-1.195-3.669-1.814.8-1.989 1.677-3.952 2.63-5.893.511-1.057.975-1.902 1.391-2.541.607-.899 1.255-1.623 1.947-2.172 1.226-.963 2.77-1.557 4.632-1.782 1.289-.153 2.973-.134 5.057.06 4.167.368 7.569.902 10.206 1.594 3.618.941 6.61 2.326 8.973 4.158z" fill="#c9371b"/><path d="m128.387 199.095c-.667-.41-1.325-.826-1.973-1.255.651.426 1.306.848 1.973 1.255z" fill="#d84f2e"/><path d="m128.387 199.095c4.872-5.788 8.579-13.189 15.459-16.689-2.201-1.722-4.307-3.555-6.514-5.27-4.679 2.738-9.736 7.007-12.897 11.362-1.337 1.846-2.109 3.291-3.478 4.981-.003.003-.007.006-.007.009-1.861 2.484-3.773 4.689-5.136 7.513 2.116 2.522 4.552 4.364 7.379 6.032 1.261-3.085 3.043-5.416 5.194-7.938z" fill="#d84f2e"/><path d="m128.387 199.095c-.667-.41-1.325-.826-1.973-1.255.651.426 1.306.848 1.973 1.255z" fill="#d84f2e"/><path d="m128.549 199.19c-.054-.032-.112-.063-.166-.092h.004c.054.029.108.06.162.092z" fill="#c9371b"/><path d="m130.524 200.349c-1.947 2.357-3.742 4.568-5.155 7.287-.724-.206-1.445-.413-2.176-.603 1.261-3.085 3.043-5.41 5.19-7.935.054.029.112.06.166.092-.054-.032-.108-.063-.162-.095 4.91-5.823 8.56-13.154 15.51-16.74-1.429 1.474-1.645 1.839-3.189 3.684-1.544 1.84-2.948 4.527-4.841 7.179-1.134 1.579-3.866 5.219-5.305 7.097" fill="#c9371b"/><path d="m128.549 199.19c-.054-.032-.112-.063-.166-.092h.004c.054.029.108.06.162.092z" fill="#c9371b"/><path d="m124.432 209.196c-.473 1.293-.95 1.671-1.363 2.214-.406.543-.937.578-1.604.311-1.41-.572-14.672-8.408-15.66-9.183-.492-.387-.41-.893-.279-1.483.114-.375.628-1.484 1.057-2.24l17.843 10.378h.006z" fill="#e9e6e4"/><path d="m112.863 196.585h.019c.267.026.524.061.782.092.222.032.444.064.66.099.023.003.038.003.058.013.152.025.304.047.457.07.127.019.254.041.381.06.118.019.238.041.359.057.06.01.118.019.181.025.318.035.6.051.874.07.171.016.34.029.505.058.054.009.108.022.155.034.019-.006.038-.015.061-.015.282-.026.537.009.784.146.232.13.826.53 1.039.695.21.162.461.321.607.55.025.038.041.079.06.124.118.136.153.349.172.527.025.222.015.438-.026.661.016.759-.019 1.553.451 2.141.296.365.686.625 1.077.876.766.496 1.156.747 1.938 1.214.524.314 1.067.629 1.651.816.239.076.48.13.731.156.591.057 1.239.175.801.946-.264.464-.534.915-.817 1.369-.397.648-.991 1.973-1.693 2.335-.613-.343-7.989-4.501-13.1-7.404-.108-.067-.212-.124-.32-.184 1.032-1.703 1.756-3.58 1.731-5.556.139.009.279.022.416.035z" fill="#b8b3a7"/><path d="m112.447 196.554c.025 1.979-.699 3.853-1.731 5.555-2.433-1.385-4.285-2.455-4.52-2.62 1.235-2.707 3.805-3.116 6.251-2.935z" fill="#b8b3a7"/><path d="m113.368 196.528c-.089.076-.111.311-.076.702.054.458.089.772.111.931.038.394.099.689.184.899.089.244.248.454.467.635.391.248.702.343.937.286.159-.057.299-.168.42-.337.219-.327.273-.765.162-1.324-.105-.632-.34-1.115-.696-1.455-.21-.2-.47-.337-.778-.416-.327-.08-.572-.051-.731.082v-.006z" fill="#e2dedb"/><path d="m116.062 197.465c.048.172.121.42.229.744.114.32.257.625.428.918.223.371.474.603.76.698.381.118.711.051.997-.197.203-.203.286-.476.229-.838-.016-.235-.134-.537-.347-.905-.12-.201-.397-.566-.832-1.096-.098-.096-.225-.162-.375-.197-.149-.029-.317-.019-.511.031-.181.054-.337.169-.461.337-.123.172-.165.337-.117.508z" fill="#e2dedb"/><path d="m96.5488 190.995c5.7942-2.729 11.5912-5.454 17.3852-8.183-2.316-4.926-5.029-9.666-8.104-14.157-2.252 1.759-4.628 3.36-7.1085 4.787-1.6835.968-6.1401 2.125-7.1852 3.567-1.188 1.642 4.7965 14.084 5.0125 13.986z" fill="#93c3be"/><path d="m143.602 172.292c-1.337-1.039-2.78-1.944-4.257-2.767-3.884-2.166-8.068-3.726-12.207-5.333-3.656-1.423-7.461-2.63-11.381-2.776-3.799-.14-11.632-.941-14.491 2.325-2.5064 2.865-1.798 7.518-.801 10.841 1.255 4.183 3.72 6.632 7.233 9.047.118.082.238.162.359.244 6.839 4.606 15.8 7.262 24.164 6.239 5.825-4.273 9.666-10.734 11.378-17.823z" fill="#b6d8d4"/><path d="m148.745 177.593c-.22-1.448-2.824-3.313-3.914-4.282-.397-.355-.81-.692-1.229-1.019-1.712 7.086-5.553 13.551-11.378 17.823 3.281-.4 6.473-1.369 9.408-3.008 2.888-1.614 5.404-4.041 6.677-7.093.321-.766.563-1.598.439-2.421z" fill="#93c3be"/><g fill="#c9371b"><path d="m84.4655 132.805 4.8029-5.905c5.6954 4.692 15.2316 8.43 28.6036 11.219l-3.926 6.287c-11.629-.769-21.4567-4.638-29.4805-11.601z"/><path d="m85.8378 125.413c.2287 1.087.0413 2.097-.5559 3.034-.5877.921-1.4262 1.512-2.5126 1.772-1.0832.258-2.0933.099-3.0272-.47-.9497-.584-1.5501-1.432-1.8042-2.541-.2383-1.112-.054-2.144.5527-3.094.6226-.975 1.4834-1.582 2.5856-1.826 1.1055-.229 2.1251-.035 3.0558.581.9116.604 1.4802 1.452 1.6994 2.548z"/><path d="m90.1482 127.77c.2732 1.319.0509 2.542-.667 3.666-.7115 1.118-1.728 1.83-3.0399 2.141-1.3087.314-2.5253.124-3.6498-.565-1.1498-.706-1.8773-1.728-2.1854-3.069-.289-1.347-.0667-2.595.6671-3.748.7496-1.175 1.7947-1.909 3.132-2.205 1.3341-.27 2.5666-.035 3.6942.706 1.0991.73 1.7852 1.753 2.052 3.071z"/><path d="m85.7393 121.116c.8958-.194 1.7217-.035 2.4745.479.7465.505 1.207 1.211 1.3786 2.119.1778.893.0159 1.728-.4797 2.506-.4923.775-1.1785 1.261-2.052 1.461-.8894.213-1.7121.077-2.4713-.406-.7623-.499-1.2388-1.204-1.4326-2.112-.181-.915-.019-1.77.486-2.564.5083-.797 1.2071-1.293 2.0965-1.483z"/><path d="m80.9714 127.951c.8958-.193 1.7217-.034 2.4745.48.7464.505 1.207 1.21 1.3786 2.119.1778.892.0158 1.728-.4797 2.506-.4923.775-1.1785 1.261-2.052 1.461-.8894.213-1.7121.076-2.4713-.406-.7623-.499-1.2388-1.204-1.4326-2.113-.181-.915-.019-1.769.486-2.563.5083-.797 1.2071-1.293 2.0965-1.484z"/></g><path d="m97.2572 143.564c1.5342 1.061 4.6698.854 6.0768 1.048 2.636.362 5.327.721 7.947.26 2.621-.46 5.213-1.89 6.407-4.269.54-1.077.763-2.369.327-3.491-.819-2.115-4.183-3.614-6.063-4.656-2.812-1.557-5.817-2.767-8.923-3.596-3.904-1.042-4.8506.136-5.8417 3.942-.7655 2.941-.7941 6.13-.8068 9.104 0 .759.3367 1.289.8767 1.661z" fill="#ce808a"/><path d="m36.2531 73.2971c-11.2003.9974-21.2665-2.2077-22.248-13.7827-.4066-4.7743 1.3245-10.2696-1.8043-13.9606-.5019-.594-1.1245-1.1213-1.4326-1.8233s-.1715-1.6804.5623-2.0711c.2001-.1048.4224-.1588.648-.1937 2.0964-.3209 4.0627 1.0514 5.0029 2.7667s1.0959 3.7228 1.3341 5.6636c.1588 1.3087.4606 2.7667 1.6423 3.4592 1.9757 1.1562 4.7837-.9943 4.9457-3.2083s-1.3246-4.1421-2.7699-5.8415-2.989-3.5608-2.9636-5.7748c.0159-1.6835.9498-3.2749 1.2833-4.9458.4542-2.2902-.305-4.7107-1.9917-6.337 1.5375-.9371 3.5926-.1525 4.7806 1.0514 2.2934 2.3252 2.646 5.7621 3.3385 8.8941.378 1.7089 1.0419 3.6466 2.4808 4.8314 3.7228 3.0685 2.6016-5.1745 2.4205-6.4641-.5559-3.9388-4.4566-6.8167-4.9267-10.7682-.413-3.4783 1.8709-7.4298-.0794-10.3585-.9021-1.3564-2.6683-2.8588-1.6264-4.2152.8894-1.16257 2.8271-.61622 3.9801.2287 1.6709 1.223 3.0082 2.8303 3.869 4.6504 1.1372 2.4077 1.4389 5.1395 2.6873 7.4964 1.6422 3.0971 4.7297 5.2253 7.4933 7.5124 2.5507 2.1124 3.5322 4.4502 5.3746 6.912.432.5781 1.1657 1.0038 1.9376.9116 1.7502-.2128 2.5888-3.4432 2.6746-4.6852.1652-2.43-.8577-4.7362-1.9631-6.8898-1.1054-2.1537-2.3315-4.32-2.6079-6.7214-.162-1.4199.0286-2.9192.7656-4.2088.1747-.3082.3939-.6131.7147-.791.756-.4193 1.6994.035 2.2616.6194 1.817 1.8996 1.6359 4.8124 2.4269 7.271 1.7851 5.5556 7.7823 8.1095 8.0237 14.3258.035.9403 0 1.9059.3113 2.7922.3113.8862 1.0641 1.693 2.0711 1.7851 5.9527.5369 1.6073-12.3628-.2001-14.2083-.4193-.4288-.899-.8704-.9625-1.458-.1747-1.674 2.5888-.7211 3.3512-.3971 1.188.5083 2.5475 1.5343 3.3384 2.4967 2.2331 2.7223 3.6879 6.9438 4.5202 10.2886 2.2521 9.0657-3.3957 18.8301-10.9398 24.8813-6.0194 4.8282-17.3531 9.3484-27.7147 10.2727z" fill="#f04b23"/><path d="m38.8228 69.228c-7.3027.8799-13.554-.5971-13.3221-6.9628.0953-2.6238 1.6232-5.7113-.1175-7.6585-.2796-.3144-.6417-.5844-.7878-.9656s.0159-.9212.5178-1.1594c.1366-.0636.2859-.1017.432-.1271 1.3786-.2382 2.5411.4606 3.0208 1.3818.4796.9212.4288 2.0234.4352 3.0875.0031.7179.0889 1.5152.8004 1.8646 1.188.5813 3.1606-.6893 3.4306-1.9186s-.5431-2.2489-1.35-3.1447c-.8036-.8958-1.6613-1.8805-1.4802-3.1034.1366-.9307.8576-1.836 1.1975-2.7699.4638-1.2769.1557-2.592-.81-3.4401 1.0641-.5622 2.3284-.1906 3.005.4415 1.3055 1.2166 1.2737 3.1066 1.4866 4.8155.1143.9339.4002 1.9822 1.2388 2.5952 2.1727 1.5851 2.0679-2.935 2.0456-3.6402-.0635-2.16-2.3633-3.6339-2.3696-5.8034-.0064-1.9091 1.7629-4.158.7242-5.7208-.4828-.7243-1.5056-1.5025-.7338-2.2808.6608-.667 1.871-.4224 2.5508.0096.9878.6257 1.728 1.4739 2.1473 2.4554.5527 1.296.5431 2.7985 1.1721 4.0627.8258 1.6613 2.6618 2.7476 4.2691 3.9293 1.4866 1.0927 1.944 2.3569 2.9478 3.6593.2351.3049.6766.5209 1.1817.4479 1.1467-.1684 1.9281-1.9758 2.0774-2.6651.289-1.3468-.2001-2.592-.7497-3.7482-.5495-1.1563-1.1816-2.3189-1.1785-3.6371 0-.7782.2351-1.6136.8101-2.3474.1365-.1747.2985-.3494.5209-.4574.5209-.2541 1.0927-.0318 1.4135.2763 1.0324.9975.6957 2.6111 1.0197 3.9452.7337 3.0177 4.4153 4.2533 4.104 7.6775-.0477.5178-.143 1.0546-.0064 1.5343.1366.4796.5591.9053 1.2007.9243 3.7991.1239 1.9631-6.877.9339-7.8427-.2382-.2255-.5146-.4542-.5114-.7782.0127-.9212 1.7248-.4733 2.1918-.3176.7274.2445 1.5278.7718 1.9662 1.2832 1.2356 1.439 1.8582 3.7292 2.1441 5.5525.7751 4.9426-3.6021 10.5014-8.9227 14.0622-4.2469 2.843-11.8959 5.6732-18.6491 6.4864z" fill="#ffd40d"/><path d="m27.4034 77.1343c4.5296 1.7534 9.5898 1.6231 14.3672.7337 13.5508-2.5189 25.8406-11.178 32.7653-23.0929 1.1403-1.9567 2.1441-4.0087 2.7476-6.1878 1.0737-3.8657.8259-8.0873-.6924-11.8037-.1906-.4638-.4193-.9498-.8355-1.2389-.0921-.0603-.1842-.1111-.2795-.1493-.8259-.324-1.8805.1906-2.4014.9625-.5749.864-.7084 1.9408-.9593 2.951-.9625 3.834-3.9356 6.9501-7.4234 8.8147-3.4878 1.8709-7.4615 2.6237-11.394 3.0208-3.8054.3843-7.6362.451-11.4639.4352-3.5386-.0096-7.1026-.0826-10.584.5304-6.1528 1.0832-12.3183 5.2603-13.5095 11.7816-.035.1778-.0604.3589-.089.54-.756 5.4698 5.1745 10.927 9.7486 12.6995z" fill="#b8121f"/><path d="m27.4034 77.1342c4.5296 1.7534 9.5898 1.6232 14.3672.7338 13.5508-2.519 25.8406-11.178 32.7653-23.093 1.1403-1.9567 2.1441-4.0087 2.7476-6.1877 1.0737-3.8626.8259-8.0841-.6924-11.8038-1.3215-3.2368-1.763 1.9758-1.7503 2.9097.0508 3.3638-.2509 6.5117-1.6168 9.6342-1.0609 2.43-2.592 4.6281-4.2184 6.7246-8.1825 10.5522-19.621 18.9032-33.372 19.2907-2.7.0762-5.4698-.2446-7.8998-1.4263-2.5031-1.2165-3.7705-3.0367-4.9712-5.4285-1.3659-2.7223-.5051-2.376 2.0012-3.3734 1.7121-.6862 3.1669-2.0489 3.9197-3.7356.1144-.2541.2128-.5273.1843-.8036-.0699-.6163-.7878-.9847-1.4104-.918-1.9376.2064-4.1548 2.0075-6.1083 2.611-1.2929.3939-2.6492.737-3.6085 1.6264-.035.1779-.0604.3589-.089.54-.756 5.4699 5.1745 10.927 9.7486 12.6995z" fill="#8b121b"/><path d="m23.2422 58.463c1.0514-1.5343 1.8329-3.9611.4733-5.5557-.3272-.3843-.972-.343-1.1022.2097-.359 1.5278-2.2362 2.0424-3.4497 2.6746-1.3087.6797-3.9229 3.0811-2.3029 4.7456.3558.3685.7782.5718 1.2293.6512 1.8741.3272 4.3009-1.4834 5.1522-2.7223z" fill="#017236"/><path d="m20.2818 73.008c.4828-.7274.6353-1.5882.6099-2.4522-.0286-.9816-.2764-1.8869-.5655-2.8207-.1588-.5146-.324-1.0324-.4192-1.5629-.0763-.4256-.0731-.8608-.1366-1.2896-.1239-.8354-.5242-1.6518-1.4104-1.8646-.5209-.1239-1.3754.0445-1.5819.5877-.6543.8735-1.0482 1.9408-1.1054 3.0367-.0572 1.0863.3875 2.017 1.0768 2.8302.5655.6702 1.2706 1.3055 1.4993 2.1854.1176.4606-.0381.8005-.0762 1.2515-.0318.3463.0635.6703.3875.845.6639.3557 1.3754-.2351 1.7217-.7528z" fill="#077339"/><path d="m17.9788 63.6438c.2192-.8513.6512-1.9631.3399-2.8334-.1715-.4765-.6353-.9149-1.1658-.9022-.1905.0032-.3875.0636-.5463.1652-.5305-.2732-1.061-.5495-1.5438-.9053-3.367-2.4713-4.8917-6.4514-4.4407-10.5554.3335-3.0526.6575-5.1586 3.2241-7.2265.9562-.7687 2.0425-1.369 2.9542-2.1917.9116-.8227 1.6549-1.9536 1.6072-3.1797-.1143-3.0653-6.0035-7.2614-8.85595-5.2951-.91483.6289-1.28647 1.8042-1.38177 2.9096-.48917 5.5175-3.01764 10.2664-2.33788 16.0698.61624 5.238 3.03035 10.5077 7.6394 13.3697.7941.4956 1.6137 1.0197 2.4713 1.404.8799.3971 1.782.1779 2.0425-.829z" fill="#025c22"/><path d="m18.6999 64.7555c1.5596-.2573 2.7921-1.4008 4.3581-1.6327.8449-.127 1.7089-.0984 2.5412-.3049.6639-.1652 1.2737-.4924 1.7883-.9403.9752-.8449 1.5279-2.0615 1.5279-3.348 0-.2985-.4098-.5304-.6543-.3271-1.9567 1.639-4.3931 2.0996-6.8549 1.5691-1.134-.2445-2.2838-.5431-3.4401-.2636-.6353.1525-1.3087.4955-1.6327 1.0514-.829.4701-1.0546 2.0075-.7115 2.8144.5114 1.2038 1.8773 1.5787 3.0812 1.3817z" fill="#008a41"/><path d="m81.7052 68.688c-2.1346-2.8239-5.3206-3.7197-8.046-5.7399-1.0355-.7687-1.6359-1.782-1.8201-3.1828-.1239-.9403 0-1.89 0-2.8302.0095-1.4866-.3558-2.4841-1.3564-3.5926-.7369-.8164-2.3029-1.0229-3.2177-.3876-1.8519 1.2865-2.2045 2.9414-2.2649 5.1014-.0508 1.7566.1398 3.618.7592 5.2698 1.1721 3.1161 3.5481 5.0665 6.3911 6.6261 1.9249 1.0546 4.2755 1.9409 4.8155 4.2597.5622 2.4204-.5051 4.8727-2.0393 6.715-2.0425 2.4554-4.7298 4.3709-7.3218 6.1973-2.9986 2.1124-6.1306 4.0977-9.3864 5.7907-2.0425 1.061-5.5716 2.6016-7.5823.6163-.9529-.9403-1.2134-2.4427-1.4739-3.7038-.3303-1.5978-.5463-3.2082-.9815-4.7838-.9879-3.5735-2.7063-7.0898-5.5588-9.5421-2.7921-2.3982-5.9178-3.3384-9.5326-2.808-1.6232.2383-1.404 2.681.0064 3.0621 2.6428.7116 5.2951 2.7096 6.7881 4.9998 1.9853 3.0462 2.6396 6.372 3.1574 9.9138.5178 3.5544 1.8042 7.0613 5.13 8.8941 3.2845 1.8107 7.2201 1.5537 10.6158.216 3.6815-1.4485 7.1438-3.5545 10.4569-5.7018 3.1669-2.0551 6.3752-4.2564 9.0911-6.8929 4.8091-4.6694 7.8712-12.5439 3.367-18.4998z" fill="#e69a0a"/><path d="m138.262 178.429c-1.728-1.112-3.929-1.474-5.962-1.217.94.216 1.874.718 2.732 1.061 2.207 1.474 4.418 4.784 2.944 7.363-2.747 5.156-6.461 10.308-10.536 14.863 1.817 1.331 3.634 2.687 5.397.803 1.925-2.055 3.443-4.955 4.904-7.356 1.687-2.773 4.009-5.051 4.155-8.513.114-2.748-1.318-5.511-3.631-7.001z" fill="#93c3be"/><path d="m135.029 178.273c-.855-.343-1.789-.842-2.732-1.061-.115.013-.229.022-.34.041-2.103.34-2.872 1.592-4.152 3.253-1.493 1.941-2.954 3.907-4.374 5.899-1.038 1.455-5.676 5.679-4.828 7.63.01.025.022.051.035.073.203.403.594.68.969.94 2.36 1.636 4.717 3.272 7.077 4.908.251.174.502.359.753.54 4.075-4.555 7.785-9.711 10.536-14.863 1.474-2.576-.737-5.889-2.944-7.363z" fill="#b6d8d4"/><path d="m145.587 137.557c-.572-.314-1.162-.61-1.772-.889-1.43-.655-2.856-1.153-4.285-1.531-2.087 7.34-5.083 13.652-15.667 10.409-5.374-2.684-6.146-6.471-5.273-11.896-7.051-1.236-8.656 4.307-11.26 9.793-2.052 4.323-3.869 8.758-5.438 13.278-.785 2.261-1.506 4.542-2.1699 6.842-.4828 1.664-1.6676 3.507-.559 5.146.6353.937 1.6549 1.531 2.6519 2.071 11.639 6.299 24.634 9.469 37.603 12.261 6.62-14.247 7.977-30.161 6.166-45.481z" fill="#e5979e"/><path d="m152.82 153.512c-.038-4.138-.27-8.897-2.852-12.343-.715-.953-1.551-1.731-2.462-2.402-.607-.444-1.249-.841-1.916-1.21 1.811 15.32.451 31.234-6.165 45.481 1.467.314 2.932.626 4.396.937 4.314.915 5.492-.855 6.741-4.778.854-2.687 1.229-5.498 1.486-8.306.057-.623.108-1.245.156-1.868.41-5.187.664-10.32.619-15.514z" fill="#ce808a"/><path d="m147.881 141.782c.644.384.953.584.924.6-.003.089-.01.175-.016.264 0 .124-.009.244-.022.362-.073.689-.289 1.27-.648 1.75-.029.064-.073.124-.127.184-.165.22-.356.404-.569.547-4.568 6.867-14.316 11.749-29.252 14.653l-1.245-4.632c9.237-1.2 16.206-3.916 20.911-8.15 4.688-4.228 7.375-6.309 8.055-6.242.677.067 1.341.289 1.989.667z" fill="#f45540"/><path d="m148.805 142.379c.086.051.171.105.264.162.063.051.127.102.187.152.159.127.445.369.861.721.394.359.575 1.023.546 1.992-.038.959-.184 1.703-.438 2.23-.264.521-.416.813-.461.874-.178.212-.333.432-.473.654-3.885 6.591-13.719 11.454-29.497 14.586-.768-1.023-1.308-2.226-1.617-3.611 14.933-2.904 24.685-7.789 29.253-14.653.212-.147.403-.328.568-.547.054-.06.099-.121.127-.184.359-.477.575-1.061.648-1.75.013-.118.019-.239.022-.362.007-.086.01-.175.016-.264z" fill="#c9371b"/><path d="m147.912 145.514c1.319-1.582 1.503-4.294.15-5.708-1.192-.461-2.634-.534-4.276-.067-4.479 1.277-8.065 5.006-11.41 8.049-1.591 1.449 1.684 4.695 2.63 6.198.159.254.324.502.496.749 4.482-2.607 9.374-4.831 12.41-9.218z" fill="#f2a0aa"/><path d="m150.682 141.969c-.626-.978-1.515-1.737-2.62-2.166 1.353 1.413 1.169 4.126-.15 5.708-3.036 4.387-7.931 6.61-12.41 9.218 1.251 1.823 2.763 3.472 4.479 4.87.222.181.47.368.756.378.251.009.486-.118.702-.242 4.39-2.528 8.259-6.331 9.831-11.146.8-2.452.521-4.882-.591-6.623z" fill="#ce808a"/><path d="m143.878 206.782c-.921-2.087-17.394-29.611-18.639-31.603-1.249-1.995-2.5-3.993-3.749-5.987-2.499-3.993-4.999-7.986-7.499-11.979-5-7.986-10-15.968-15.0026-23.954-10.0059-15.968-20.0436-31.93-30.1575-47.8627-2.8651-4.5106-5.7367-9.0212-8.6082-13.5286-1.4199-2.2299-2.8842-4.4407-4.3772-6.642-1.4739-2.1759-3.0399-4.5392-5.4857-6.2354-.8355-.5781-2.3284.0317-2.2776.8163.1398 2.1156 1.2706 4.2597 2.3983 6.191 1.1753 2.017 2.341 4.0341 3.5798 6.0321 2.4809 3.996 4.9553 7.9952 7.4393 11.9912 4.968 7.992 9.9233 15.9871 14.9136 23.9731 9.9868 15.971 19.9736 31.942 29.9568 47.917 2.828 4.523 5.655 9.043 8.478 13.566 1.395 2.233 2.789 4.463 4.184 6.696 1.455 2.332 17.868 30.291 19.688 32.489 1.629 1.967 6.086.223 5.161-1.874z" fill="#e69a0a"/><path d="m121.182 159.068c.248 1.572-.019 2.976-.803 4.209-.798 1.229-1.868 1.938-3.205 2.125-1.312.181-2.519-.2-3.618-1.15-1.099-.931-1.766-2.15-2.008-3.659-.235-1.487.026-2.849.778-4.091.756-1.236 1.786-1.973 3.088-2.211 1.331-.235 2.566.114 3.707 1.048 1.131.95 1.817 2.192 2.058 3.729z" fill="#c9371b"/><path d="m112.612 162.569c.648-.829 1.509-1.331 2.586-1.5 1.093-.159 2.084.057 2.976.648.886.607 1.411 1.417 1.573 2.43.162 1.023-.089 1.938-.753 2.751-.67.82-1.55 1.302-2.646 1.445-1.08.146-2.059-.085-2.932-.692-.864-.591-1.376-1.385-1.534-2.382-.156-.992.085-1.89.727-2.7z" fill="#c9371b"/><path d="m111.596 153.512c.648-.829 1.509-1.33 2.585-1.499 1.093-.159 2.084.057 2.977.648.886.607 1.41 1.417 1.572 2.43.162 1.023-.089 1.938-.753 2.751-.67.82-1.55 1.302-2.646 1.445-1.08.146-2.058-.085-2.932-.692-.864-.591-1.375-1.385-1.534-2.383-.155-.991.086-1.89.728-2.7z" fill="#f45540"/><path d="m119.893 158.738c.197 1.235-.219 2.373-1.242 3.411-1.039 1.023-2.367 1.658-3.98 1.9-1.582.232-2.999.003-4.254-.68-1.258-.673-1.982-1.601-2.169-2.789-.184-1.175.216-2.277 1.204-3.313.981-1.039 2.258-1.693 3.834-1.96 1.61-.273 3.068-.076 4.374.597 1.296.68 2.039 1.624 2.23 2.837z" fill="#f45540"/><path d="m121.058 158.29c.21 1.321-.092 2.516-.902 3.586-.826 1.052-1.909 1.671-3.246 1.858-1.312.188-2.503-.101-3.577-.873-1.073-.766-1.709-1.779-1.909-3.046-.197-1.249.096-2.408.877-3.479.785-1.057 1.826-1.705 3.129-1.944 1.334-.222 2.557.048 3.669.81 1.102.772 1.753 1.801 1.956 3.085z" fill="#f45540"/><path d="m117.488 160.736c.74.553 1.182 1.286 1.328 2.198.146.918-.051 1.737-.591 2.462-.537.724-1.255 1.146-2.154 1.261-.883.114-1.689-.105-2.417-.661-.711-.54-1.137-1.258-1.28-2.157-.14-.886.044-1.69.556-2.411.524-.733 1.223-1.172 2.106-1.312.896-.13 1.712.077 2.452.62z" fill="#f45540"/><path d="m115.004 38.5496c-4.148-1.5437-7.789-2.6079-10.924-3.1892-3.818-.7655-7.0166-.9084-9.6022-.4288-1.7979.3431-3.3417.9688-4.6345 1.89-.9275.7147-1.7439 1.6073-2.4618 2.6683-.2001.3113-.3716.6257-.5018.9593-1.0769 2.16-1.6423 4.9934-1.6995 8.5002-.0508 2.9033.2732 6.3402.9689 10.3267.6543 4.0468 3.5735 11.3432 8.7607 21.8891 5.1902 10.5681 11.4642 15.0691 18.7982 13.5095l42.543-17.0545c-5.858-11.6767-13.151-20.7265-21.886-27.1461-8.774-6.4324-15.225-10.4125-19.367-11.9308v.0095z" fill="#d84f2e"/><path d="m157.521 46.6687c4.098-2.0583 7.713-3.5481 10.841-4.482 3.803-1.1848 7.014-1.6518 9.635-1.3786 1.823.1906 3.402.7211 4.742 1.5883.966.6829 1.833 1.5564 2.599 2.6364.219.3145.403.6385.552.9911 1.182 2.2203 1.884 5.2126 2.103 8.9767.181 3.1161.016 6.8485-.499 11.1939-.473 4.4121-3.071 12.5375-7.801 24.3762-4.736 11.8643-10.832 17.3083-18.281 16.3273l-43.568-14.2594c5.346-13.1188 12.267-23.5472 20.752-31.2882 8.522-7.7602 14.834-12.6551 18.922-14.6849h.003z" fill="#d84f2e"/><path d="m90.0371 85.4661c-.972 3.3162-1.547 6.4927-1.7503 9.5961-.4606 6.8928.9117 13.4108 3.8308 20.1988 2.862 6.671 7.2265 12.122 12.4674 16.496 2.097 1.747 4.689 3.545 7.243 5.092 4.882 1.632 11.14 3.306 17.839 4.053 14.084 1.572 25.227-3.945 32.311-8.342 7.083-4.396 12.976-13.833 15.247-26.58 2.004-11.245 2.347-15.0091 1.731-26.4094-2.44-6.3307-5.645-12.2167-11.108-17.0799-1.007-.8926-2.055-1.763-3.151-2.6079-3.513-2.6809-7.249-4.7901-11.2-6.3307-3.758-1.4675-7.71-2.4205-11.861-2.8652-4.87-1.0577-10.063-1.4421-15.168-.829-.464.0571-.937.1175-1.404.1937-2.335.3685-4.638.9561-6.874 1.7979-5.613 2.0933-10.111 4.8378-13.49 8.2334-6.7662 6.7945-11.8899 15.9205-14.6598 25.3895v-.0063z" fill="#d84f2e"/><path d="m129.308 140.749c-6.703-.746-12.957-2.42-17.839-4.053 1.089.661 2.169 1.277 3.211 1.824 7.779 4.104 14.459 5.377 22.934 4.828 5.715-.369 12.627-2.211 17.925-4.352.102-.041.203-.079.302-.121 10.327-4.253 19.548-12.264 22.87-22.492 3.46-10.645 5.01-22.0546 1.293-33.061-.448-1.3183-.918-2.6206-1.41-3.9071.616 11.4004.273 15.1613-1.731 26.4091-2.275 12.744-8.161 22.185-15.247 26.581-7.087 4.399-18.233 9.91-32.315 8.344h.01z" fill="#c9371b"/><path d="m129.212 108.797v-.012c-.082.104-.216.587-.403 1.448l-.902 6.747c0 .108.013.206.038.314-1.556 1.636-3.396 2.57-5.517 2.792-.922.074-1.871-.088-2.866-.489-1.308-.61-2.662-2.004-4.059-4.183-.026.235-.076.499-.159.784-.06.394-.124.823-.206 1.296-.007.731.301 1.56.927 2.478.651.816 1.429 1.487 2.344 2.014 1.172.584 2.364.893 3.567.924 2.176-.009 4.317-.889 6.42-2.63.048-.051.114-.101.194-.155 0 .05.009.092.038.117 2.081 2.446 4.403 3.758 6.969 3.929.184-.028.343-.025.473 0 1.125-.044 2.268-.244 3.422-.603 1.026-.413 1.944-.969 2.763-1.671.842-.781 1.318-1.499 1.429-2.15.108-.598.156-1.15.131-1.646.022-.13.025-.235 0-.314-1.846 1.867-3.491 3.027-4.93 3.462-1.048.257-2.059.315-3.027.181-2.332-.457-4.117-1.62-5.365-3.484-.108-.213-.232-.461-.391-.75l.753-7.335c.076-.467.066-.775-.038-.902-.127-.816-.331-1.21-.62-1.185-.26-.057-.591.283-.988 1.014l.007.012z" fill="#70081a"/><path d="m128.812 107.698c-1.274-.066-2.452.14-3.532.613-.737.283-1.363.718-1.877 1.309.746 3.323 2.703 5.184 5.873 5.6 3.427-.203 5.533-1.721 6.318-4.549-.222-.371-.562-.711-1.013-1.026-1.131-.937-2.611-1.543-4.454-1.807-.422-.086-.864-.133-1.318-.133z" fill="#70081a"/><path d="m125.899 94.7891c-.368.1715-.673.4066-.921.7083-.257.3399-.384.6925-.378 1.0546-.022.5273.204.9942.677 1.3945.435.3653.94.5908 1.521.6702.416.054.969.0477 1.655-.0127.874-.0826 1.423-.127 1.649-.1239.54-.0031 1.315.0921 2.328.2891 1.039.2096 1.817.3113 2.332.3081.791.0095 1.416-.1429 1.877-.4574.28-.1906.492-.4352.639-.7306.146-.3081.187-.6194.12-.9275-.114-.4828-.533-.9307-1.258-1.3437-1.096-.5813-2.392-.9656-3.881-1.1499-1.125-.1397-2.494-.1747-4.107-.1016-1.039.054-1.789.1969-2.256.4225z" fill="#000"/><path d="m114.756 120.156c-.225 3.466.909 6.903 3.501 9.447 2.484 2.433 5.879 3.802 9.329 4.244 4.511.578 9.491-.546 12.48-3.974 2.386-2.735 3.19-6.505 3.422-10.123-1.827 2.045-4.552 3.262-7.294 3.256-2.744-.007-5.46-1.239-7.277-3.298-.168-.19-.353-.403-.607-.441-.228-.035-.448.086-.648.194-2.014 1.086-4.38 1.639-6.623 1.181-2.579-.524-3.815-2.404-5.536-4.148-.416 1.197-.667 2.43-.747 3.662z" fill="#70081a"/><path d="m119.2 120.693c.956.442 2.176.578 3.193.359-.01.747-.559 1.398-1.096 2.017-.248.286-.639.607-1.141.502-.495-.102-.66-.53-.724-.873-.114-.614-.229-1.227-.343-1.84" fill="#fff"/><path d="m135.829 122.863c.956.441 2.176.578 3.192.359-.009.746-.559 1.397-1.095 2.017-.248.286-.639.606-1.141.502-.495-.102-.661-.531-.724-.874-.114-.613-.229-1.226-.343-1.839" fill="#fff"/><path d="m134.158 100.091c-1.191 9.799 9.164 16.133 17.023 17.127 6.864.867 13.957-1.264 20.085-4.971 6.362-3.847 18.722-18.7032 7.382-23.4297-7.338-3.059-15.314-4.4598-23.28-4.139-7.322.2954-13.148.5464-18.122 7.5283-1.639 2.2965-2.748 5.0664-3.088 7.8804z" fill="#000"/><path d="m137.646 100.141c-.181 1.471-.108 2.958.267 4.371 3.634 13.691 25.669 10.371 33.851 3.386 1.023-.873 1.995-1.839 2.802-2.954 3.281-4.539 3.59-11.8004-.842-14.4432-5.038-3.0018-12.941-3.3321-18.655-3.0939-6.01.251-10.791.467-14.882 6.2291-1.347 1.8963-2.258 4.1802-2.544 6.505z" fill="#fff"/><path d="m127.891 99.252c-.203 1.779-.68 3.504-1.458 5.051-5.927 11.8-26.6219 7.366-34.1756.012-4.9203-4.7898-10.5427-17.896-5.3174-24.6206 4.6694-6.0098 19.951-2.4522 25.869-.5145 6.312 2.0647 11.331 3.726 14.126 11.6925.921 2.6238 1.277 5.5716.956 8.3828z" fill="#000"/><path d="m124.845 97.8893c-.169 1.423-.559 2.8047-1.195 4.0407-5.269 10.234-21.094 5.733-27.2028-.616-2.3411-2.4368-4.4661-5.2004-5.7113-8.4467-2.0107-5.2507-1.6835-11.394 4.3422-12.3692 5.7969-.9402 11.7499-.4765 17.3879 1.3246 5.181 1.6549 9.298 2.9827 11.594 9.361.756 2.0997 1.048 4.4598.785 6.7087z" fill="#fff"/><path d="m155.968 93.7853c-1.607-.3113-3.097.0127-4.469.9656-1.369.9561-2.199 2.249-2.484 3.8848-.318 1.6293.009 3.1353.962 4.5043.956 1.375 2.236 2.214 3.844 2.525 1.635.283 3.141-.051 4.513-1.007 1.373-.927 2.211-2.201 2.526-3.837.286-1.6357-.048-3.1541-1.001-4.5549-.956-1.3659-2.252-2.1981-3.888-2.484z" fill="#191919"/><path d="m110.824 89.605c-1.369.9562-2.198 2.249-2.484 3.8849-.318 1.6327.006 3.1383.962 4.5042.95 1.3754 2.233 2.2139 3.841 2.5249 1.636.283 3.141-.05 4.513-1.0034 1.373-.9307 2.214-2.2076 2.526-3.8403.286-1.6359-.048-3.1543-1.001-4.5551-.956-1.3659-2.252-2.1981-3.888-2.484-1.607-.3113-3.097.0127-4.469.9657z" fill="#191919"/><path d="m121.595 34.722c-.514-1.3309-1.048-2.6873-1.966-3.78-.206-.2478-.467-.4955-.788-.5146-.327-.019-.616.2033-.864.4193-5.79 5.0411-8.668 13.2173-7.312 20.7741 1.947-1.3659 4.088-2.4586 6.331-3.2527 1.677-.594 5.886-.5432 7.083-1.6359 2.831-2.5856-1.321-9.0116-2.484-12.0102z" fill="#27140e"/><path d="m160.145 39.3692c.842-1.1531 1.703-2.3284 2.868-3.1511.264-.1874.578-.3589.893-.2954.321.0667.543.3558.727.6258 4.304 6.3593 4.987 14.9993 1.731 21.9526-1.531-1.8201-3.319-3.4274-5.282-4.7679-1.468-1.0038-5.549-2.0361-6.426-3.3988-2.071-3.2241 3.589-8.37 5.483-10.9684z" fill="#27140e"/><path d="m119.381 44.5596c6.833-2.0393 14.037-1.9885 21.422-1.3977 14.126 1.1277 26.445 8.6273 35.45 19.3606 4.958 5.9114 8.621 13.0966 9.434 20.7678.083.7718-.14 1.8582-.915 1.8264-.438-.019-.746-.4256-.988-.7909-6.442-9.7613-13.875-18.8682-22.149-27.1334-9.114-9.1038-25.755-9.8248-37.235-5.5811-9.853 3.6403-18.786 9.3738-27.5462 15.0724-2.4904 1.62-4.9807 3.24-7.4711 4.86-.6543-2.0139.6099-4.1072 1.89-5.7939 5.7462-7.5568 13.1193-13.8653 21.4443-18.4204 2.176-1.1911 4.399-2.0964 6.664-2.7698z" fill="#27140e"/><path d="m171.212 74.3294c-6.036-4.447-13.024-5.7176-19.377-9.2117-4.764-2.8589-6.353-9.2118-2.859-13.6589.474-.5908 1.033-1.0037 1.646-1.3087-1.15-.1239-2.252-.0889-3.278.1525-6.22 1.4675-6.191 9.9328-3.199 14.2338 2.907 4.1834 7.789 6.4514 12.458 8.4875 5.06 2.2076 10.193 4.3931 14.615 7.6966 2.884 2.1536 5.495 4.8409 7.239 8.0142.975 1.7757 1.731 8.3097 4.641 7.6585.134-.0286.261-.0699.381-.1207-1.264-8.5193-4.958-16.4637-12.267-21.9463z" fill="#601220"/><path d="m186.23 84.4243c-.451-1.7662-1.162-3.5831-2.065-5.4064-3.748-7.5695-10.815-15.2534-16.527-20.0245-3.802-3.1764-11.022-8.1953-17.016-8.8401-.613.305-1.175.7179-1.646 1.3087-3.494 4.4471-1.905 10.8 2.859 13.6588 6.353 3.4942 13.341 4.7648 19.377 9.2118 7.309 5.4826 11.003 13.427 12.267 21.9463 1.045-.4098 1.776-1.4549 2.246-2.5031 1.296-2.9033 1.293-6.2672.505-9.3484z" fill="#6d1723"/><path d="m138.176 59.7176c3.495-.3176 7.624-2.5411 8.577-6.6706.149-.8227.314-1.8391.422-2.9191-.003-.0096-.006-.0191-.009-.0318-1.356-3.5259-5.276-5.5302-9.047-5.7526-9.304-.5495-22.333 4.9426-30.291 9.6025-.682.4002-1.353.8132-2.02 1.2388-8.1029 5.2126-19.8686 15.8474-22.0127 25.6405-.2478 1.1276-.3494 2.3315.054 3.4115.2668.7147.8037 1.3532 1.4707 1.6994 1.2261-3.564 3.1511-6.8389 5.5271-9.3864 12.3879-13.0236 29.8589-16.8353 47.3289-16.8353z" fill="#871d29"/><path d="m147.175 50.1279c-.104 1.08-.273 2.0964-.422 2.9191-.953 4.1295-5.082 6.353-8.577 6.6706-17.47 0-34.941 3.8118-47.3289 16.8353-2.3792 2.5476-4.301 5.8225-5.5271 9.3865.3431.1779.7179.2795 1.1086.27 1.2039-.0254 2.1536-.9942 2.9382-1.9122 8.3764-9.8058 20.3742-17.8486 33.8362-17.4706 4.602.1302 9.291 1.1499 13.747-.0096 5.35-1.3944 9.673-6.1178 10.588-11.5718.285-1.7058.254-3.5005-.359-5.1205z" fill="#701624"/></g></g></svg>