<svg fill="none" height="216" viewBox="0 0 216 216" width="216" xmlns="http://www.w3.org/2000/svg"><path d="m94.7076 173.705c.7991.912 1.1874 1.843 1.1691 2.796.0346 1.075-.5185 2.197-1.6571 3.368-.122.124-.2461.254-.3762.386-.8784.825-1.7649 1.433-2.6596 1.823-5.8682-3.298-11.1752-7.564-15.9231-12.796.6446-.677 1.5372-1.492 2.6759-2.445.4168-.347 2.7694-2.311 7.0537-5.894 1.0451.72 2.0516 1.437 3.0174 2.151 3.0663 2.254 5.6771 4.461 7.8345 6.617l-3.3855 2.248c.8946.482 1.6449 1.063 2.2509 1.746z" fill="#7c7c7c"/><path d="m80.039 177.115c-4.1541-3.337-6.287-5.438-6.4009-6.302-.0427-.415.3965-1.1 1.3156-2.061 4.9186 5.42 10.4167 9.839 16.4964 13.257-.0264.008-.1565.126-.3924.356-.244.221-.5856.498-1.0207.827-.427.321-1.1631.224-2.2103-.297-1.0472-.534-3.6437-2.461-7.7856-5.776z" fill="#cccac8"/><path d="m95.1368 174.157c-.0753.147-.423.283-1.0431.407-.732.134-1.2282.223-1.4864.27-.6202.124-1.1082.179-1.4681.163-.4209-.008-.8214-.112-1.2057-.311-.5734-.384-.8723-.736-.8967-1.055.0081-.226.1118-.451.3131-.679.3945-.419 1.0472-.683 1.9561-.791 1.0207-.144 1.8788-.065 2.5762.238.4067.177.7483.443 1.0207.803.2847.38.362.699.2339.955zm-2.6088-2.286c-.2867-.083-.6995-.216-1.2383-.396-.5307-.189-1.0248-.411-1.4823-.667-.5856-.327-.915-.667-.9862-1.022-.0813-.472.1464-.856.6812-1.153.4209-.209.9414-.252 1.5636-.13.4148.059.911.25 1.4884.569.3193.177.8764.569 1.6674 1.177.1423.136.2155.295.2216.476.0061.18-.0691.382-.2277.601-.1586.205-.4067.368-.7463.49-.3395.122-.6527.14-.9394.057z" fill="#332d22"/><path d="m87.3044 142.507c-1.5352.825-2.8142 1.848-2.6312 3.396.2827 6.071 6.3461 13.938.5226 18.487 1.3603.872 3.1741 1.632 4.0789 2.191 1.3501.833 4.1643 3.256 5.9109 3.057 3.5726-.417 5.4254-7.067 5.5794-9.721.23-3.923-.9963-7.799-2.446-11.487-1.5515-3.945-5.2643-8.203-10.1159-7.402-.1931.493-.5144 1.245-.8987 1.481z" fill="#172859"/><path d="m82.1784 146.425c-1.2769 4.691 3.3754 7.589 2.5295 12.209-.2582 1.406-1.6694 2.951-1.1285 4.201.2359.543.854 1.067 1.6165 1.555 5.8235-4.551-.2399-12.416-.5226-18.487-.183-1.549 1.096-2.571 2.6312-3.396.3843-.236.7055-.988.8987-1.482-.1261.021-.2501.043-.3782.069-2.7165.59-4.9471 2.752-5.6486 5.331z" fill="#172859"/><path d="m80.3707 163.384c.4962-1.154 1.3502-2.522 2.6495-2.361.3945.048.7503.242 1.096.433 4.3981 2.44 8.662 5.109 12.7632 7.989.1444.102.2989.215.3457.382.061.213-.0793.427-.2156.604-2.6087 3.373-4.9247.634-7.9767-1.258-.8032-.498-8.8593-5.327-8.66-5.789z" fill="#686c7a"/><path d="m60.0715 120.049c-1.277-1.839-2.3282-3.81-2.7694-4.656-1.8748-3.583-2.7593-7.694-2.4441-11.731.1118-1.437.4128-2.953 1.403-3.9975 3.6539-3.8575 5.3253 2.7535 4.943 5.3715.2969-.665.6812-1.404 1.3868-1.585.5571-.142 1.159.136 1.5311.575s.549 1.008.6547 1.573c.2562 1.36.0285 2.685-.1708 4.004 1.1509-.307 2.497-.057 3.1436 1.063s.5266 2.506.3883 3.79c-.2602 2.423-.5266 4.868-1.3196 7.17-1.5454 4.492-4.4957 1.665-6.7446-1.575z" fill="#e69a0a"/><path d="m132.623 108.202c-.031.634-.11 1.293-.234 1.982-.11.609-.258 1.242-.441 1.9-.974 3.465-2.412 6.774-3.866 10.068-.052.12-.105.24-.156.36-3.992 9.059-7.054 20.245-14.353 27.242-6.495 6.226-14.0386 7.193-22.6497 6.276-3.046-.315-6.0919-1.172-9.1379-2.573-2.625-1.201-4.9898-2.664-7.0922-4.388-1.1936-.973-2.2794-2.012-3.2554-3.119-.8642-.978-1.645-2.008-2.3383-3.087-3.6336-5.661-5.9638-11.449-5.301-18.396.5612-5.869 3.2757-11.55 7.6515-15.482 2.2814-2.049 4.9532-3.6 7.4644-5.358 5.8824-4.1194 9.8881-10.5357 16.5574-13.3993 1.0289-.4431 2.0883-.7947 3.17-1.0548 1.8602-.4919 3.7702-.7276 5.7262-.7154 1.935.0122 3.928.2784 5.97.7987 1.64.4187 3.314.9999 5.024 1.7458 2.804 1.2073 6.128 3.0933 9.978 5.6501 4.92 3.2701 7.523 6.5809 7.279 11.5459z" fill="#f1d470"/><path d="m132.391 110.184c-.109.609-.258 1.241-.441 1.9-.974 3.465-2.411 6.774-3.865 10.068-1.208-.76-2.212-1.843-2.825-3.136-2.966 1.632-6.708 1.765-9.778.344-3.072-1.421-5.404-4.36-6.096-7.683-7.289 2.474-16.0266-.29-20.5853-6.515-.2399-.33-.4921-.683-.8682-.84-.545-.227-1.1631.035-1.6918.303-4.5424 2.293-8.8287 5.254-12.0617 9.193-3.233 3.94-5.3558 8.93-5.2643 14.035.1057 5.965 3.1516 11.701 2.5864 17.641-.0163.151-.0326.305-.057.458-.8641-.978-1.6449-2.008-2.3383-3.088-3.6336-5.66-5.9638-11.448-5.3009-18.395.5612-5.869 3.2757-11.55 7.6514-15.482 2.2814-2.049 4.9533-3.6 7.4644-5.358 5.8825-4.1195 9.8881-10.5357 16.5575-13.3994 1.0288-.443 2.0882-.7946 3.17-1.0548 1.8608-.4918 3.7698-.7276 5.7258-.7154 1.936.0122 3.928.2785 5.97.7988 1.301.6707 2.578 1.3861 3.821 2.1035 4.924 2.8555 9.684 6.1602 13.361 10.5153 2.07 2.457 3.78 5.282 4.863 8.305z" fill="#eac14b"/><path d="m77.7454 108.134c-.3477-.071-.6995-.132-1.0513-.179-7.7978-1.028-11.5371 7.563-13.9853 13.91-.7401 1.923-1.2789 3.955-1.5453 6.012-.2501 1.941-.2562 3.9.0407 5.802 2.6718-9.96 8.9101-18.606 16.5412-25.547z" fill="#172859"/><path d="m112.969 140.71c-1.663-2.122-3.882-3.752-5.881-5.577-5.355-4.888-9.1415-11.168-13.9503-16.57-3.9467-4.435-9.3514-9.199-15.3924-10.426-7.6311 6.94-13.8714 15.584-16.5412 25.547.2379 1.528.671 3.02 1.3318 4.437 1.5555 3.327 4.2294 5.993 7.0049 8.399 5.4636 4.734 11.6917 8.821 18.7047 10.577 7.0129 1.756 14.9165.923 20.7055-3.408 4.148-3.104 7.662-8.331 4.018-12.977z" fill="#24315e"/><path d="m48.6499 148.249c-.8195.894-1.704 1.382-2.6515 1.467-1.0655.153-2.2428-.274-3.5319-1.276-.1383-.108-.2786-.218-.425-.331-.917-.783-1.6185-1.596-2.1045-2.443 2.6373-6.191 6.2993-11.932 10.9821-17.221.7442.567 1.6531 1.364 2.7246 2.39.3904.376 2.6027 2.498 6.6328 6.362-.6019 1.118-1.2038 2.195-1.8077 3.233-1.9052 3.293-3.8145 6.13-5.7238 8.508l-2.6047-3.118c-.3823.943-.8784 1.752-1.4904 2.429z" fill="#969595"/><path d="m43.6542 134.051c2.865-4.491 4.7194-6.841 5.5673-7.05.4067-.087 1.1387.272 2.194 1.081-4.8516 5.48-8.6437 11.426-11.3765 17.841-.0102-.027-.1424-.143-.3965-.352-.2481-.219-.5592-.526-.9333-.923-.366-.388-.3498-1.132.0528-2.229.4169-1.1 2.0476-3.89 4.8922-8.368z" fill="#e5e1dc"/><path d="m48.2477 148.727c-.1546-.059-.3274-.39-.5185-.992-.2135-.713-.3579-1.195-.4311-1.447-.1911-.601-.2989-1.083-.3213-1.441-.0366-.419.0224-.829.1769-1.232.3193-.611.6365-.947.9516-1.008.2257-.016.4616.061.7097.236.4595.346.793.966 1.0004 1.856.2562.998.2704 1.859.0467 2.585-.1301.425-.3599.791-.6872 1.104-.3477.323-.6568.437-.9252.337zm1.9865-2.843c.0509-.295.1383-.72.2603-1.275.1301-.548.2969-1.063.5002-1.546.2603-.618.5632-.982.9089-1.094.4595-.132.8662.051 1.222.551.2542.394.3538.909.301 1.539-.0143.418-.1485.932-.4026 1.54-.1403.337-.4697.933-.9862 1.787-.12.156-.2684.248-.4494.272-.1809.026-.3883-.026-.6242-.161-.2216-.134-.4107-.363-.5693-.689-.1586-.325-.2095-.634-.1586-.926z" fill="#3e382c"/><path d="m77.4914 141.466c-2.8466 5.894-10.1666 7.52-15.86 6.91-3.0093-.317-5.7686-1.374-8.2838-2.882-.4595 1.02-.7686 2.034-.5978 2.788.8052 3.504 7.6209 4.616 10.2785 4.48 3.9244-.202 7.6454-1.844 11.1549-3.689 2.1899-1.15 4.4042-3.047 5.6059-5.368-.0163-.136-.0366-.272-.059-.41-.2033-1.22-2.0333-2.642-2.2366-1.829z" fill="#172859"/><path d="m80.7164 138.795c-.0143.083-.0488.168-.0997.246.2644 1.666-.0935 3.243-.8296 4.664-.0162-.136-.0345-.272-.0589-.41-.2034-1.22-2.0334-2.643-2.2367-1.83-2.8467 5.894-10.1667 7.52-15.86 6.91-3.0094-.317-5.7686-1.373-8.2838-2.881.5835-1.303 1.4111-2.618 1.7934-3.421.4127-.87.8438-3.242 1.7364-4.284.0021-.004.0061-.008.0082-.012.5429-.842 1.1386-1.545 1.7913-1.87 1.5006-.744 3.5319.414 5.2948.441 3.4343.055 6.2099-2.313 9.6462-2.555.9618-.069 1.9378-.069 2.8324.142.057.013.1139.027.1688.043 2.2082.593 3.2554 2.49 3.963 4.154.0894.21.1708.431.1342.663z" fill="#24315e"/><path d="m52.156 150.18c.1911.115.4168.231.6242.148.1586-.065.2562-.23.3416-.384.6446-1.171 1.2709-2.352 1.8809-3.541-1.2505-.62-2.4441-1.355-3.5807-2.178-1.2404 2.29-2.0801 4.235.736 5.955z" fill="#797d8d"/><path d="m59.9803 135.251c.0183-1.309-1.4356-2.006-2.6393-2.374-.4819-.146-4.4022 8.386-4.8088 9.237-.3498.736-.7483 1.437-1.1123 2.108 1.1387.823 2.3323 1.558 3.5807 2.178 1.6816-3.272 3.2391-6.613 4.6665-10.015.1525-.364.305-.74.3111-1.136z" fill="#797d8d"/><path d="m10.3932 110.778c.8926-3.561 2.6758-6.983 6.5066-8.034-3.0296-1.106-5.311-3.7945-5.1219-6.9305.8275-3.8046 4.9125-2.2011 7.1634-.817-1.7832-3.7437-3.845-8.2657-.6568-11.6009 3.5767-3.4754 7.5519-.9552 10.7503 1.8414.8276-3.8047 3.3774-6.4732 7.013-7.339 3.4973-1.254 6.0878 3.516 6.037 7.0402 1.5534-.5569 2.9686-1.504 4.4143-1.1442 1.6613.4125 3.2188 1.1503 4.5872 2.134-.3782-.7053-.8316-1.376-1.3542-1.9958-1.3765-1.628-3.1415-2.8555-5.1626-3.512.181-2.5689-1.6267-4.8025-3.8877-5.9122-3.0541-1.4979-6.4213-.6605-9.1277 1.1869-1.5657 1.069-2.9199 2.4287-4.1541 3.8656-2.2895-2.2397-5.7828-3.0222-8.8572-2.0771-3.4648 1.0629-5.5734 4.3595-5.6934 7.8918-.0549 1.5974.3355 3.205 1.1387 4.585-2.6413.7602-4.81088 2.9856-5.32328 5.7314-.54086 2.9022.87027 5.9264 3.29808 7.5304-1.3156 2.272-1.9337 4.961-1.5697 7.556z" fill="#93c9ad"/><path d="m46.4995 83.7928c-1.4436-.3577-2.8588.5874-4.4143 1.1443.0488-3.5262-2.5397-8.2962-6.037-7.0402-3.6356.8658-6.1875 3.5343-7.013 7.3389-3.1984-2.7986-7.1736-5.3187-10.7503-1.8413-3.1882 3.3351-1.1264 7.8572.6568 11.6009-2.2509-1.3841-6.3359-2.9876-7.1634.817-.1891 3.136 2.0923 5.8246 5.1219 6.9306-3.8308 1.051-5.614 4.471-6.5066 8.034.0833.601.2216 1.197.4148 1.782 1.0634 3.216 3.9426 5.559 7.3098 5.967 1.5819.191 3.1761-.059 4.573-.8 1.6592 2.371 5.0467 2.751 7.562 1.394 3.0093-1.624 4.7722-5.138 5.3009-8.402.2562-1.583.2277-3.179-.0509-4.748 4.4307-.701 8.7048-2.581 12.0943-5.534.1688-.146.2461-.327.2623-.508 1.645-1.0304 2.926-2.7539 3.7027-4.4977 1.3766-3.0933 1.094-6.5951-.4697-9.5035-1.3684-.9816-2.928-1.7214-4.5872-2.134z" fill="#a9d9c1"/><path d="m30.0169 107.538c1.5576 2.128 3.5279 4.018 5.5754 5.668 3.0806 2.486 21.6714 12.808 18.3042.264-.4718-1.756-1.5393-3.282-2.5865-4.768-3.3773-4.792-7.017-10.2042-12.4928-12.8666-2.135-1.0386-4.7133-1.2357-6.9642-.4431-2.2915.8089-4.026 2.758-4.2415 5.2257-.2196 2.516.9536 4.938 2.4054 6.92z" fill="#79aa8e"/><path d="m24.7711 110.004c-.1403-.388-.0305-1.305-.9455-1.415 5.2216-.12 10.4615-5.069 8.1191-10.3671 3.1679 1.4938 8.0012 1.5142 9.7437-2.1807.3579-1.2621.1302-2.3129-.4493-3.1949-1.6979-.8293-3.7759-1.2439-5.4799-1.065-3.723.3902-7.3667 2.2234-10.1789 4.6542-2.562 2.2153-4.6177 5.0465-5.5408 8.3325-.8581 3.053-.8499 7.593 2.1126 9.498.2054-.002.4148-.015.6283-.041 2.0822-.309 2.9382-2.809 1.9927-4.223z" fill="#a9d9c1"/><path d="m27.9002 114.025c1.2932-1.079 1.9499-2.709 1.8117-4.347 3.784-.512 6.6551-4.443 6.1895-8.187 2.0699.675 4.4855.36 6.2057-1.002 4.0707-3.2229 2.2367-6.1252-.8682-7.6413.5795.882.8072 1.9328.4493 3.1949-1.7425 3.6949-6.5758 3.6745-9.7437 2.1807 2.3404 5.2987-2.8996 10.2477-8.1191 10.3677.917.109.8072 1.026.9455 1.414.9455 1.415.0894 3.914-1.9927 4.223-.2135.027-.4229.039-.6283.041.1403.089.2847.177.4392.254 1.6653.844 3.8572.718 5.3111-.496z" fill="#93c9ad"/><path d="m4.67154 105.751c.00813.116.02846.228.0854.339.0793.151.20943.262.35786.344.0366.034.0732.071.11184.101.51037.405 1.17527.525 1.80153.366.59781-.15 1.06751-.668 1.18544-1.27.1037-.526-.05897-1.112-.3843-1.532-.36397-.468-.8967-.771-1.49857-.75-.2684.01-.53883.101-.7808.233-.01627 0-.03457 0-.05084 0-.13216.017-.2684.045-.3904.102-.15046.069-.2684.152-.3599.295-.07523.118-.10573.244-.11183.382 0 0-.00203.002-.00407.004-.17893.201-.29076.423-.2318.701.05084.238.14437.472.27044.683z" fill="#a8dabf"/><path d="m33.3824 70.481c1.7303.4674 3.4262-.7439 3.8186-2.4348.1078-.4695.0935-.9451-.0346-1.3922-.0345-.2134-.0813-.4227-.1525-.6179-.5124-1.4165-1.9439-2.2722-3.4363-1.9815-1.4132.2764-2.7654 1.4043-2.8691 2.9185-.1138 1.6625 1.1062 3.0831 2.6718 3.5058z" fill="#a9d9c1"/><path d="m5.40749 84.6769c.03253.0773.06913.1545.11386.2277.17894.2947.48597.4776.8113.565.26231.0691.52664.0386.77267-.0549h.0061c.22164-.0427.42904-.0894.5795-.2845.09964-.1301.14437-.2805.1891-.435 0-.002.00407-.0061.00407-.0081.02237-.0467.04067-.0935.05897-.1402.10573-.0346.2013-.0955.2684-.1911.16673-.2398.28467-.5325.22977-.8312-.03864-.2073-.08744-.3374-.18911-.5223-.06303-.1139-.1525-.2073-.244-.3008-.18096-.185-.42293-.3069-.67506-.3618-.15454-.0346-.30704-.0325-.45547-.0041-.12607-.0244-.25417-.0345-.38837-.0142-.244.0386-.44937.1118-.65677.25-.3416.2256-.58966.6056-.66896 1.006-.0488.2459-.02237.4919.05083.7276.0427.1403.11183.2622.19317.376z" fill="#a9d9c1"/><path d="m35.1478 86.6242c-.4636-1.3394-.8519-2.2621-1.163-2.7661-.427-.691-.8276-1.2519-1.1977-1.6869-.4473-.5223-.8723-.882-1.2789-1.0792-.061-.0305-.1241-.0569-.1851-.0772-.2175-.0772-.4331-.1098-.6425-.0955-.2725.0183-.5368.1158-.7971.2947-.3721.252-.7421.6727-1.1081 1.256-.301.4817-.606 1.0975-.913 1.8474-.1098.2683-.2155.6179-.3192 1.0487-.4677.1159-.9517.2622-1.4458.435-.9617.2683-1.8564.628-2.6799 1.0832-.425-.3008-.7828-.5203-1.0777-.6605-.734-.3496-1.3725-.6016-1.9194-.756-.6629-.187-1.218-.25-1.6633-.1891-.3111.0448-.5754.1504-.7869.3191-.1667.1301-.305.2968-.4148.5-.0305.0589-.059.1179-.0854.1829-.1667.4167-.242.9695-.2216 1.6584.0162.5711.0996 1.2561.246 2.0528.1139.6097.4677 1.6076 1.0675 2.9957-.0468.2317-.0874.5-.1179.8048-.059.5589-.0895.9166-.0895 1.0731-.0041.063-.0061.1301 0 .1951-.002.0793 0 .1565.0081.2338.0041.0935.0163.1869.0326.2804.0101.1443.0325.2846.0671.4228.002.0122.004.0244.0081.0366 0 .0081.0041.0162.0102.0243.2135.9004.6689 1.754 1.3664 2.5609.0874.1016.1769.1991.2684.2926.0345.0346.0671.0691.1016.1016.0163.0163.122.1078.3152.2724.1952.1666.549.4187 1.0695.76.0326.016.0651.035.0997.051.0142.008.0305.018.0447.024l.3274.161c.1098.051.2216.099.3355.146.002 0 .0061 0 .0122.006 0 0 .0061.002.0122.002 1.0227.409 2.196.565 3.5176.476 1.3177-.092 2.4014-.268 3.2493-.531.0305-.01.059-.02.0875-.028.0183-.006.0345-.01.0488-.014 1.0451-.25 1.9987-.5388 2.8588-.8599.1627-.061.3213-.122.4799-.187.3599-.1504.7056-.3029 1.035-.4614l.3294-.1707c.0467-.0244.0976-.0508.1464-.0772.0244-.0143.0508-.0264.0752-.0427.0956-.0508.185-.1037.2786-.1565.9902-.5792 1.7852-1.2357 2.383-1.9674.2034-.252.3843-.5101.5409-.7784.9028-1.5425 1.0838-3.0912.547-4.648-.6446-1.882-1.5982-3.3393-2.863-4.3676zm-8.5684 8.1783c-.3071 1.1016-1.3238 1.8353-2.4482 1.9084-1.1427.0732-2.2509-.4918-2.7104-1.571-.4047-.9451-.2969-2.2559.5571-2.9185.0346-.0569.0834-.1077.1301-.1565.1363-.1402.2908-.2561.4535-.3638.3192-.2114.6689-.3699 1.0431-.4512.736-.1585 1.5189.0508 2.0943.5325.8642.7256 1.1814 1.945.8805 3.0201zm7.9605-2.6522c-.3071 1.1015-1.3237 1.8372-2.4482 1.9084-1.1427.0731-2.2488-.4919-2.7104-1.569-.4046-.9451-.2969-2.256.5571-2.9206.0346-.0569.0834-.1077.1302-.1544.1362-.1403.2928-.2561.4534-.3638.3192-.2114.6669-.372 1.0451-.4533.7341-.1565 1.5189.0529 2.0923.5325.8642.7256 1.1814 1.945.8805 3.0202z" fill="#3abd5d"/><path d="m43.2257 82.4746c-.1749-.2784-.4067-.4979-.6954-.6564-.1484-.059-.2969-.1159-.4453-.1748-.2461-.061-.4901-.0712-.7341-.0346.0305-.2113.0143-.4247-.0569-.6341-.0651-.1463-.1301-.2926-.1952-.439-.1667-.2682-.3884-.4776-.6649-.63-.1423-.0549-.2847-.1118-.427-.1667-.3131-.0772-.6263-.0711-.9374.0204-.2399.0609-.4453.1747-.6201.3434-.1932.1321-.3437.3049-.4494.5183-.122.2053-.1871.4248-.1932.6585-.0467.2357-.0325.4715.0468.7052l.1952.439c.0793.126.1708.2378.2725.3374-.9171.8617-1.9134 1.7052-2.1676 2.9856-.0691.3495.1891.8028.6019.756 1.3888-.1626 2.3302-1.1036 3.3225-2.0019.1708.2541.3883.4553.6567.6036.1485.059.2969.1159.4453.1748.3274.0813.6548.0732.9801-.0203.2501-.063.4657-.1829.6466-.3577.2013-.1382.3579-.3191.4697-.5406.1281-.2134.1952-.4431.2013-.687.0488-.2479.0346-.4938-.0488-.7377-.0691-.1524-.1362-.3049-.2053-.4593z" fill="#3abd5d"/><path d="m45.5482 97.3187c.1647-.2866.248-.5935.2541-.9227-.0183-.1585-.0366-.3171-.0569-.4756-.063-.2459-.1688-.4654-.3152-.6646.2013-.0731.3803-.187.5328-.3475.0976-.126.1972-.252.2948-.3801.1566-.2723.2379-.567.242-.882-.0183-.1525-.0366-.3029-.0529-.4553-.0793-.313-.2318-.5853-.4595-.817-.1668-.1829-.364-.311-.5938-.3841-.2074-.1077-.4311-.1586-.669-.1525-.2379-.0101-.4615.0346-.671.1382-.2318.0691-.431.1931-.6018.374l-.2949.3801c-.0732.128-.1301.2621-.1687.3983-1.1916-.4024-2.4055-.8861-3.656-.506-.3416.1036-.6201.5446-.3843.8861.7991 1.1483 2.072 1.5365 3.3306 1.9876-.1423.2683-.2196.5569-.2236.8638.0183.1585.0366.3171.0569.4756.0834.3272.244.6117.4799.8536.1728.191.3802.3252.6201.4024.2156.1138.4494.1667.6995.1585.2481.0122.4839-.0365.7015-.1443.242-.0731.4514-.2032.6283-.3902.1037-.1321.2054-.2642.3091-.3963z" fill="#3abd5d"/><path d="m9.4523 92.9337c-.00407-.3293.0732-.6382.22977-.9288.09353-.1301.18707-.2581.2806-.3882.17483-.1829.37413-.3252.59983-.4248-.1403-.1626-.242-.3496-.2948-.563-.0244-.1585-.0488-.317-.0732-.4755-.0041-.3151.0691-.6118.2196-.8882.0894-.124.1789-.2479.2684-.3719.2236-.2337.49-.3984.7991-.4898.2338-.0793.4697-.0935.7055-.0468.2339.0061.4535.0712.6588.1931.2135.1057.3864.2561.5185.4492.1688.1727.2827.38.3437.6198l.0732.4756c0 .1484-.0143.2907-.0468.4309 1.2363.2297 2.5315.4004 3.4384 1.3434.246.2561.2745.7784-.0976.9593-1.2587.6138-2.558.3292-3.8776.1097-.0061.3049-.0793.5935-.2257.8638-.0935.1301-.1871.2581-.2806.3882-.2318.2439-.5104.4146-.8357.5122-.244.0812-.49.0975-.7381.0487-.244-.0061-.4738-.0752-.6873-.2012-.2236-.1118-.4026-.2683-.54083-.4695-.17487-.1808-.29484-.3963-.35787-.6463-.0244-.1646-.05083-.3312-.07523-.4959z" fill="#3abd5d"/><path d="m15.5219 106.679c-.2928-.152-.5307-.364-.7117-.64-.0691-.144-.1403-.287-.2094-.431-.0793-.24-.1098-.484-.0936-.73-.2094.049-.4209.049-.6364-.004-.1505-.053-.303-.105-.4534-.158-.2807-.145-.5064-.35-.6812-.612-.0671-.138-.1342-.274-.2013-.413-.1017-.306-.12-.617-.0549-.934.0406-.244.1382-.46.2907-.645.1159-.203.2766-.366.4799-.49.1952-.138.4087-.219.6405-.245.2318-.068.4677-.07.7076-.011l.4535.159c.1321.067.2501.15.3578.244.7849-.984 1.5454-2.0448 2.804-2.4005.3436-.0975.8174.124.8011.5386-.0508 1.3979-.9129 2.4129-1.7283 3.4709.2664.149.486.35.6547.606.0692.144.1403.287.2095.431.1057.321.126.646.0589.978-.0427.254-.1443.479-.305.672-.122.212-.2887.382-.5022.512-.2033.145-.427.23-.669.257-.2419.069-.488.073-.7401.012-.1586-.055-.3152-.112-.4738-.167z" fill="#3abd5d"/><path d="m157.635 143.607c-8.552-10.115-18.127-18.403-28.729-24.862l6.525-7.79c10.899 4.979 20.75 12.936 29.559 23.87-.765 4.825-3.217 7.752-7.355 8.782z" fill="#e69a0a"/><path d="m129.089 118.982c-.907-.788-1.366-1.843-1.377-3.164-.004-1.315.44-2.504 1.328-3.565.889-1.061 1.979-1.703 3.272-1.925 1.313-.233 2.434.031 3.365.791.956.768 1.448 1.823 1.476 3.162.033 1.338-.408 2.555-1.328 3.651-.919 1.095-2.039 1.745-3.361 1.949-1.323.207-2.45-.092-3.375-.897z" fill="#e69a0a"/><path d="m159.91 142.863c-.11-1.415.291-2.667 1.204-3.756.899-1.071 2.058-1.685 3.479-1.835 1.417-.147 2.672.219 3.764 1.093 1.108.9 1.732 2.073 1.87 3.522.118 1.449-.284 2.728-1.211 3.833-.95 1.134-2.144 1.764-3.583 1.89-1.442.108-2.702-.304-3.784-1.237-1.06-.915-1.639-2.084-1.739-3.51z" fill="#e69a0a"/><path d="m154.829 139.161c-.132-1.715.352-3.229 1.45-4.54 1.088-1.301 2.493-2.039 4.211-2.217 1.712-.183 3.225.256 4.539 1.319 1.342 1.085 2.096 2.502 2.267 4.249.146 1.756-.342 3.303-1.464 4.642-1.145 1.366-2.591 2.128-4.335 2.283-1.739.124-3.262-.378-4.571-1.5-1.277-1.106-1.975-2.518-2.097-4.234z" fill="#e69a0a"/><path d="m159.329 148.327c-1.169.097-2.19-.24-3.062-1.016-.865-.763-1.332-1.734-1.401-2.915-.078-1.16.264-2.193 1.022-3.099.755-.901 1.702-1.407 2.845-1.516 1.163-.124 2.186.184 3.068.924.885.76 1.375 1.732 1.47 2.917.08 1.191-.266 2.248-1.039 3.17-.776.927-1.744 1.441-2.903 1.539z" fill="#e69a0a"/><path d="m166.503 140.444c-1.169.097-2.19-.24-3.063-1.016-.864-.762-1.331-1.734-1.401-2.915-.077-1.16.265-2.193 1.023-3.099.755-.9 1.702-1.407 2.845-1.516 1.163-.124 2.186.185 3.068.924.885.761 1.375 1.732 1.47 2.917.08 1.191-.266 2.248-1.039 3.17-.776.927-1.744 1.441-2.903 1.539z" fill="#e69a0a"/><path d="m152.55 118.796c-3.389-2.73-6.722-5.045-11.35-6.677-1.942-.695-3.993-1.231-6.047-1.05s-4.126 1.182-5.161 2.965c-.89 1.534-.913 3.461-.402 5.16 1.895 6.301 10.122 12.146 15.309 15.702.579.399 1.22.801 1.923.769.698-.033 1.295-.49 1.83-.939 3.561-2.984 6.666-6.51 9.173-10.418.132-.206.266-.433.244-.677-.029-.291-.273-.506-.499-.691-1.783-1.455-3.407-2.848-5.02-4.146z" fill="#111"/><path d="m52.8877 67.4697c-1.1774 15.2267 17.2813 31.376 29.2434 36.4973.7666.33 1.6389.641 2.4136.33 1.0675-.429 1.3704-1.767 1.5148-2.907 1.2139-9.6718 1.4213-19.47.6161-29.1848-.3741-4.5221-.9984-9.0909-2.503-13.3935-.9415-2.6929-2.3282-7.4101-4.9614-8.9445-3.6213-2.1096-9.697-.4614-13.2106 1.0426-4.4713 1.9145-8.5156 5.0668-10.8946 9.3063-1.3237 2.3596-2.0252 4.7944-2.2163 7.2536z" fill="#2b2b2b"/><path d="m61.4849 66.8565c.0081.5873.0366 1.1747.0711 1.758.6385 10.4546 4.2091 17.3607 10.9394 25.2646 2.2895 2.6889 5.49 5.5749 8.8775 4.5729 3.0338-.8983 4.3311-4.4245 4.9736-7.5219 1.5799-7.6296 1.8178-15.5335.7035-23.2444-.858-5.9366-1.5758-14.1515-8.5176-16.2977-4.39-1.3577-8.967 1.445-12.2794 4.6277-1.5921 1.5304-3.0988 3.2275-3.9223 5.2761-.7076 1.754-.8723 3.6603-.8438 5.5647z" fill="#111"/><path d="m78.5079 105.695c7.1167-6.9099 16.0634-10.7714 25.8231-11.9909 1.883-.25 3.766-.1931 5.6-.3028.315-.8394.653-1.6686 1.009-2.4775-3.115-.9857-6.367-1.506-9.634-1.4511-3.032.0508-6.0495.5325-8.9388 1.4592-7.2855 2.3353-13.3347 5.7781-18.5441 11.4611-3.6213 3.953-7.1451 7.993-10.5693 12.119-1.1569 1.394-2.3769 3.126-1.8686 4.863.2908.994 1.0939 1.738 1.8402 2.455.5144.496 1.0166 1.002 1.5087 1.519.9353-3.512 3.7231-6.492 6.0431-9.12 2.44-3.048 4.88-5.69 7.7267-8.536z" fill="#111"/><path d="m130.921 110.178c-4.599 5.323-11.266 9.784-17.033 6.29-7.95-4.709-7.159-14.532-3.957-23.0657-1.834.1098-3.717.0509-5.6.3029-9.7596 1.2194-18.7063 5.0809-25.823 11.9908-2.8466 2.846-5.2866 5.488-7.7266 8.536-2.3201 2.628-5.1078 5.608-6.0431 9.12 3.355 3.512 6.2728 7.436 9.6705 10.914 7.7552 7.932 17.6799 13.224 27.7672 17.986 1.852.874 3.713 1.732 5.563 2.583 1.261.58 2.727 1.163 3.984.571.658-.31 1.136-.9 1.592-1.469 7.44-9.345 14.278-18.525 18.084-29.937.925-4.461.771-9.317-.48-13.822z" fill="#2b2b2b"/><path d="m87.5256 203.566c1.1 2.701 3.7942 4.429 6.5392 5.416 10.1522 3.651 21.5132-.664 32.1492 1.157 5.217.894 10.219 3.26 15.512 3.16 3.717-.071 7.306-1.363 11.007-1.705 4.327-.398 8.652.512 12.972.988 4.667.512 9.388.514 14.055.006 6.421-.699 12.881-2.435 18.141-6.183 5.26-3.747 9.175-9.743 9.295-16.198.024-1.313-.226-2.831-1.361-3.491-.791-.462-1.777-.354-2.68-.206-4.599.764-9.03 2.301-13.491 3.657-4.136 1.256-9.428 3.573-13.772 3.56-4.017-.01-8.44-.928-12.442-1.491-9.469-1.334-18.824-3.374-28.31-4.596-13.361-1.721-27.458-1.701-39.6742 3.976-4.3757 2.034-10.2338 6.314-7.9402 11.952z" fill="#000" opacity=".16"/><path d="m207.035 128.44c-.045 1.205-.087 2.41-.13 3.615-.026.73-.053 1.46-.079 2.189-.012.358-.027.718-.037 1.075-.026.817-.057 1.634-.085 2.451-.012.385-.027.771-.039 1.155-.047 1.323-.091 2.646-.136 3.967-.102 2.923-.203 5.841-.307 8.762-.145 3.945-.291 7.889-.454 11.832-.012.301-.016.614-.016.943.006 2.913.411 6.764-.829 9.173-.11.056-.22.111-.332.166-4.205 2.108-8.953 3.11-13.733 3.114-2.891.004-5.793-.356-8.595-1.059-1.21-.303-2.401-.669-3.564-1.098-.844-.81-1.464-1.804-1.928-2.906-.805-1.898-1.155-4.101-1.421-6.164-.074-.571-.143-1.132-.21-1.673-.038-.303-.077-.599-.118-.888-.105-.744-.205-1.492-.297-2.242-.707-5.623-1.108-11.375-1.319-17.121-.053-1.447-.094-2.892-.124-4.339-.027-1.239-.045-2.477-.059-3.715 0-.101 0-.207 0-.309-.01-1.059-.016-2.12-.016-3.174 0-1.124 0-2.246.008-3.364v-.016c.573-.317 1.165-.598 1.767-.846 2.706-1.113 5.679-1.581 8.613-1.78.138-.008.272-.018.411-.024 1.781-.118 3.562-.198 5.343-.242h.014c.269-.008.537-.015.806-.019.984-.018 1.968-.026 2.952-.026.529 0 1.059.006 1.586.012 3.571.049 7.263.272 10.516 1.636.602.25 1.186.541 1.753.878.021.01.039.023.059.035z" fill="#fe5e4c"/><path d="m193.123 125.881c-.004.353-.059.703-.164 1.042-.738 2.334-1.788 4.667-3.248 6.646-2.295 3.114-5.142 5.793-8.56 7.593-.5.265-1.011.511-1.537.734-2.001.856-4.049 1.559-6.206 1.839-.053-1.447-.095-2.892-.124-4.337-.026-1.242-.047-2.479-.059-3.715.386-.12.771-.25 1.149-.392.053-.02.116-.051.181-.081-.035.018-.069.04-.11.065.22-.131.48-.218.712-.332 1.012-.494 1.982-1.069 2.907-1.715.216-.152.434-.303.645-.457.035-.025.065-.047.094-.067.443-.37.884-.742 1.301-1.143.382-.361.75-.739 1.104-1.13.201-.221.399-.449.592-.68.024-.031.053-.066.081-.104.004-.008.01-.014.014-.02.088-.126.183-.279.238-.37.006-.013.014-.025.023-.037.504-.768 1.053-1.498 1.49-2.313.13-.242.244-.49.36-.735 3.036-.2 6.075-.293 9.117-.285z" fill="#ffe2c5"/><path d="m182.155 129.214c.065-.114.025-.067-.274.428.004-.006.01-.014.014-.02.085-.138.171-.272.26-.408z" fill="#f2c6a5"/><path d="m174.555 135.206c.341-.171.74-.439 0 0z" fill="#f2c6a5"/><path d="m206.828 134.246c-.055 1.559-.11 3.12-.163 4.679-.047 1.323-.091 2.646-.138 3.967-.089.018-.177.041-.262.065-.313.089-.623.185-.928.291-.109.038-.502.193-.658.252-.139.065-.279.13-.332.158-.244.124-.486.25-.724.388-.453.26-.884.555-1.313.852-.047.039-.094.075-.138.114-.208.179-.409.362-.606.553-.336.325-.655.664-.956 1.022 0 0 0 .004-.004.004-.014.018-.029.041-.047.065-.132.191-.258.384-.38.581-.23.374-.401.781-.61 1.163-.016.04-.031.081-.045.122-.073.219-.14.441-.199.664-.069.262-.124.525-.177.791 0 .024 0 .053-.004.085-.075 1.309-.067 2.628-.185 3.935-.437 4.91-2.652 9.485-6.375 12.763-3.847 3.388-8.68 5.242-13.828 5.179-.661-.008-1.328-.045-1.991-.114-1.029-2.425-1.314-5.343-1.631-7.837.139.025.277.047.413.069.096.01.193.023.293.031.587.055 1.179.101 1.771.112.634.014 1.271-.007 1.901-.059.081-.009.163-.017.244-.025.279-.059.567-.085.844-.144.539-.114 1.071-.25 1.596-.417.24-.073.476-.154.714-.242.03-.01.061-.024.093-.034.834-.468 1.702-.835 2.503-1.37.187-.124.37-.258.553-.388.381-.315.749-.644 1.098-.992.354-.347.69-.715 1.011-1.093.006-.011.018-.021.026-.033.082-.112.299-.404.356-.49.277-.406.533-.829.771-1.262.161-.288.691-1.004.653-1.321 0 .088-.366.931-.165.37.039-.106.081-.211.118-.319.077-.213.148-.429.215-.644.145-.47.265-.947.356-1.433.004-.01.012-.059.025-.12.02-.216.042-.429.054-.644.043-.657.053-1.313.072-1.97.044-1.506.156-3.044.524-4.51.494-1.971 1.434-3.831 2.674-5.475 1.722-2.286 4.032-4.162 6.554-5.359 2.084-.99 4.2-1.596 6.419-1.982z" fill="#ffe2c5"/><path d="m207.037 128.44c-.071 1.935-.14 3.87-.207 5.805-.059 1.654.236 3.786-.706 4.904-.838.994-2.454 1.617-3.412 2.613-2.151 2.236-3.579 5.116-4.595 8.018-1.503 4.284-2.263 8.823-4.049 12.997-1.35 3.159-3.556 7.719-6.941 8.872-2.749.935-7.105.861-9.366-1.195-2.052-1.868-2.525-4.866-2.824-7.622-.972-8.948-1.619-18.2-1.71-27.151-.023-2.3-.025-4.591-.01-6.863 3.149-1.742 6.793-2.384 10.382-2.626.138-.01.272-.018.411-.024 3.035-.199 6.075-.293 9.117-.285.529 0 1.057.004 1.586.01 4.252.059 8.68.366 12.328 2.549z" fill="#000" opacity=".16"/><path d="m209.67 130.923c-.069 5.077-8.214 6.7-12.063 7.042-5.458.486-10.974.307-16.391-.52-5.209-.795-9.486-.85-10.61-6.508-.031-.149-.047-.323-.049-.514-.018-1.726-.303-3.476.667-4.947.938-1.425 2.198-2.638 3.664-3.506 1.177-.699 2.473-1.175 3.79-1.543 7.43-2.073 15.358-.707 22.839 1.169 2.501.628 5.49 1.528 7.391 3.349 1.592 1.525.791 3.945.762 5.982z" fill="#f2c6a5"/><path d="m172.705 131.801c1.36 1.166 3.267 1.996 5.461 2.483 5.354 1.189 10.919 1.707 16.385 1.106 3.973-.437 11.97-1.667 14.445-5.205 1.356-1.939.825-4.746-.673-6.575-1.499-1.829-3.752-2.868-5.987-3.648-7.808-2.723-16.586-3.034-24.536-.695-2.525.744-4.782 1.384-6.073 3.798-2.056 3.848-1.316 6.77.976 8.736z" fill="#ffe1c7"/><path d="m207.375 126.722c-.061 4.533-7.332 5.98-10.769 6.287-4.871.433-9.794.274-14.629-.464-4.836-.738-8.467-.758-9.472-5.808-.026-.134-.042-.289-.042-.46-.017-1.54-.271-3.103.595-4.416.838-1.272 1.963-2.354 3.27-3.13 1.051-.624 2.208-1.049 3.383-1.378 6.631-1.851 13.709-.63 20.387 1.043 2.232.559 4.9 1.363 6.598 2.989 1.421 1.362.705 3.52.681 5.339z" fill="#f2c6a5"/><path d="m174.378 127.507c1.214 1.041 2.916 1.783 4.874 2.217 4.778 1.061 9.745 1.523 14.625.988 3.547-.388 10.684-1.487 12.894-4.646 1.212-1.731.738-4.235-.602-5.869-1.338-1.634-3.347-2.561-5.344-3.256-6.97-2.431-14.804-2.707-21.901-.62-2.255.662-4.268 1.234-5.421 3.39-1.834 3.435-1.175 6.042.871 7.796z" fill="#ffe1c7"/><path d="m195.403 121.203c-.082-.366-.226-.711-.417-1.028-.295-.496-.708-.925-1.188-1.252-.335-.23-.705-.409-1.092-.527-.831-.252-1.722-.231-2.592-.073-.59.11-1.167.283-1.708.48-.026.01-.055.02-.083.03-.232.023-.456.059-.659.102-.431.091-.875.244-1.293.453-.791.394-1.503.986-1.924 1.724-1.785 3.123 2.521 4.723 4.907 4.812h.014c.032 0 .063.004.093.004.228.004.466-.004.712-.022 2.55-.203 5.907-1.691 5.232-4.701zm-4.563 1.077c-.075-.156-.181-.309-.319-.447.366-.1.732-.154 1.061-.075.049.012.104.047.161.079-.177.108-.399.26-.49.299-.133.053-.273.101-.413.144z" fill="#fde2c5"/><path d="m193.81 123.23c-.163.169-.348.299-.545.403-.384.199-.819.292-1.256.345-.179.022-.356.037-.531.047-.663.047-1.324.067-1.987.065-.166 0-.335-.004-.504-.006-.15-.004-.303-.006-.453-.012-.879-.033-1.828-.096-2.501-.738-.612-.59-.83-1.616-.405-2.372.175-.309.399-.512.651-.646.27-.35.541-.567.996-.764.49-.214 1.023-.307 1.551-.368.393-.045.793-.067 1.196-.059.667.01 1.336.091 1.976.248.027.006.053.012.082.02.581.15 1.143.404 1.57.813.164.154.309.335.427.539.022.036.04.073.058.109.389.773.287 1.744-.329 2.376z" fill="#eec19a"/><path d="m195.84 99.8793c-.153 1.5017-.309 3.0017-.464 4.5017-.327 3.116-.659 6.233-1.002 9.349-.23 2.114-.466 4.227-.706 6.339-.004.045-.01.087-.014.13-.106.955-.216 1.917-.325 2.874-.023.185-.043.37-.063.555-.385.199-.82.292-1.257.345-.179.023-.356.037-.531.047-.663.047-1.323.067-1.986.065.044-.431.091-.862.138-1.291.118-1.077.236-2.152.348-3.227.016-.15.032-.299.046-.447.206-1.888.407-3.776.604-5.666.328-3.116.645-6.234.956-9.349.15-1.502.297-3.002.441-4.5021.159-1.6117.126-3.4409.576-4.9956.597-2.067 3.46-1.6219 3.637.4227.139 1.5609-.244 3.2904-.404 4.8493z" fill="#ff5f4b"/><path d="m177.678 197.876c2.843-.87 5.132-2.399 7.1-4.285.11-.855.118-1.758.015-2.709-.108-.992-.281-2.036-.964-2.811-.852-.967-2.296-1.288-3.644-1.422-5.738-.567-11.405 1.646-17.072 2.221-6.114.62-12.324.486-18.395-.419-4.348-.648-16.354-3.723-18.941 1.015-.524.961-.671 2.04-.675 3.123 11.856 13.758 35.622 10.219 52.574 5.289z" fill="#f4b987"/><path d="m177.678 197.876c-16.952 4.933-40.716 8.471-52.574-5.288 0 .406.016.813.043 1.215.053.785.162 1.516.325 2.201 2.005 8.437 14.014 10.92 21.982 11.674 11.135 1.055 35.677-1.241 37.324-14.088-1.97 1.886-4.257 3.414-7.1 4.284z" fill="#c47e43"/><path d="m141.562 194.975c-6.36-1.843-12.223-5.284-16.669-9.979-.141 1.285-.055 2.52.256 3.52 1.065 3.409 4.111 6.073 7.582 7.634 3.471 1.559 7.355 2.148 11.192 2.555 10.658 1.13 21.748.949 31.726-2.667 3.513-1.274 7.005-3.095 8.953-6.065.589-.9.986-1.926 1.171-2.979-11.491 9.77-29.254 12.231-44.211 7.981z" fill="#683613"/><path d="m183.436 180.521c-2.553-1.841-6.175-1.557-9.377-1.061-9.484 1.467-19.242 3.975-28.538 1.715-4.217-1.026-10.816-5.083-15.199-3.938-3.24.845-5.072 4.467-5.429 7.757 4.446 4.695 10.309 8.136 16.669 9.979 14.959 4.248 32.722 1.787 44.211-7.981.427-2.42-.269-4.979-2.337-6.471z" fill="#a4612c"/><path d="m132.523 183.667c-.015-.006-.013-.006 0 0z" fill="#ffc770"/><path d="m181.126 182.405c-.272.083-.488.181-.681.301-.018-.031-.028-.063-.049-.092-.632-.9-1.903-1.264-2.944-.707-1.458.778-2.956 1.488-4.496 2.12-.164.067-.329.134-.496.201-.073.028-.148.059-.221.087-.004 0-.006 0-.01.004-.391.145-.781.291-1.174.429-.787.277-1.58.535-2.381.775-1.574.469-3.172.867-4.788 1.193-.824.164-1.651.313-2.483.439-.386.059-.773.115-1.161.166-.104.014-.35.045-.399.051-.183.022-.368.043-.551.063-3.292.354-6.62.417-9.926.187-.84-.059-1.68-.136-2.518-.232-.075-.008-.148-.018-.223-.026-.008 0-.01 0-.021-.002-.178-.024-.357-.047-.536-.073-.448-.063-.893-.13-1.336-.203-1.629-.269-3.243-.614-4.84-1.013-1.797-.447-3.568-.987-5.298-1.621-.21-.078-.419-.157-.629-.236-.103-.043-.207-.084-.311-.124-.321-.128-.646-.246-.97-.368-.03-.012-.126-.049-.158-.063.018.006.052.02.124.049-.112-.045-.222-.088-.334-.132-.533-.214-1.067-.421-1.606-.62-.443-.165-.905-.208-1.371-.297-.593-.114-1.114.089-1.439.437-.529.043-1.041.345-.958.923.146 1.022.49 1.853 1.196 2.664.622.713 1.368 1.287 2.155 1.841.968.683 2.011 1.261 3.095 1.765-.041.185-.071.374-.098.569-.15 1.191.045 2.449.596 3.538.592 1.167 2.021 2.191 3.483 1.691 1.519-.52 2.068-2.087 1.69-3.449-.045-.158-.104-.315-.169-.469 2.361.565 4.793.894 7.222 1.113 4.659.419 9.352.456 14.018.118 4.291-.311 8.681-.801 12.822-1.92 1.005-.273 2.005-.588 2.981-.96-.134.618-.313 1.23-.502 1.821-.366 1.145-.665 2.451-.045 3.571.08.145.175.277.283.394.098.305.254.588.51.83.486.459 1.521.542 1.991 0 .085-.1.157-.193.222-.287.142-.063.282-.138.414-.23 1.214-.849 1.428-2.268.97-3.54-.227-.634-.585-1.225-.77-1.874-.067-.231-.096-.366-.102-.536.053-.425.12-.848.222-1.283.028-.126.032-.254.024-.382.83-.486 1.625-1.034 2.353-1.638.974-.807 2.21-1.88 2.248-3.136.037-1.183-1.356-2.215-2.612-1.827z" fill="#ffc770"/><path d="m138.276 192.81c.141.346.492.578.83.779 3.971 2.38 8.623 3.794 13.357 4.061.321.018.667.024.937-.137.295-.176.423-.506.553-.804 1.113-2.547 3.642-4.285 5.805-6.181.356-.311.734-.744.56-1.164-.126-.305-.492-.456-.828-.561-4.262-1.35-9.878-1.157-14.357-1.238-2.164-.039-7.973 2.504-6.855 5.248z" fill="#f3766a"/><path d="m124.84 177.905c.034.663.136 1.285.309 1.836 1.065 3.408 4.111 6.072 7.582 7.633s7.355 2.149 11.192 2.555c10.659 1.13 21.748.949 31.726-2.666 3.514-1.275 7.005-3.096 8.953-6.065.709-1.083 1.138-2.348 1.256-3.622-2.127 1.718-4.634 3.059-7.73 3.728-17.945 3.829-38.205 6.948-53.29-3.399z" fill="#683613"/><path d="m183.436 171.748c-2.553-1.842-6.175-1.557-9.377-1.061-9.484 1.467-19.242 3.975-28.538 1.715-4.217-1.026-10.816-5.083-15.199-3.939-3.809.994-5.669 5.821-5.48 9.443 15.085 10.349 35.343 7.229 53.289 3.398 3.095-.669 5.602-2.01 7.731-3.728.208-2.221-.537-4.469-2.424-5.828z" fill="#a4612c"/><path d="m144.025 180.47c.191-.242.337-.508.41-.801.167-.671-.183-1.484-.902-1.679-.578-.156-1.178.108-1.739.309-3.286 1.171-7.371-.1-10.199-1.788-.744-.446-.99-.624-1.7-1.275-.285-.26-.553-.534-.813-.815-.074-.079-.147-.16-.22-.242.102.128.092.114-.035-.04-.117-.149-.231-.297-.341-.451-.921-1.279-1.45-2.653-2.221-3.923-.315-.52-1.346-.612-1.63 0-.315.673-.468 1.307-.429 2.045.036.691.201 1.4.467 2.052-.01.137-.02.271-.034.403-.104.939-.197 1.876-.366 2.806-.303 1.669-1.029 3.895.858 5.02.693.415 1.647.553 2.397.179.891-.443 1.192-1.361 1.015-2.229-.143-.703-.547-1.344-.732-2.037.093.08.183.163.28.24.322.539.726 1.039 1.123 1.459 3.322 3.527 9.693 4.551 13.906 1.588.335-.236.657-.508.905-.821z" fill="#ffc770"/><path d="m155.175 179.969c-.138-.271-.228-.557-.24-.858-.026-.687.486-1.427 1.23-1.492.6-.053 1.135.309 1.645.604 2.987 1.717 7.259 1.177 10.384.006.824-.309 1.1-.441 1.932-.959.332-.208.653-.429.966-.659.089-.065.177-.132.264-.199-.126.108-.114.096.043-.035.146-.126.289-.252.429-.382 1.165-1.097 1.968-2.353 2.985-3.469.417-.457 1.448-.368 1.602.283.171.715.191 1.363.002 2.081-.177.672-.484 1.341-.88 1.935-.018.134-.035.268-.047.4-.089.939-.193 1.876-.217 2.819-.045 1.691.211 4.002-1.873 4.782-.767.287-1.731.258-2.391-.238-.783-.589-.891-1.542-.539-2.365.284-.667.811-1.224 1.136-1.874-.109.061-.213.128-.323.187-.425.473-.927.894-1.403 1.239-3.985 2.891-10.453 2.795-13.983-.845-.281-.289-.541-.612-.72-.961z" fill="#ffc770"/><path d="m173.967 183.291c.014.024.029.051.043.075.091.158.189.325.352.427.264.166.62.12.933.059 2.064-.401 4.065-1.075 5.921-1.996.496-.248 1.004-.531 1.293-.976.262-.404.311-.894.354-1.363.089-1.006.179-2.027-.031-3.019-.41-1.924-2.578-4.087-4.015-5.469-.135-.128-.281-.262-.47-.298-.244-.047-.484.081-.695.203-1.859 1.069-9.272 3.491-8.789 5.373.34 1.319 1.812 1.931 2.632 2.893 1.022 1.199 1.699 2.735 2.474 4.091z" fill="#f3766a"/><path d="m124.852 167.687c.043.601.14 1.168.297 1.675 1.065 3.408 4.111 6.072 7.582 7.633 3.471 1.559 7.355 2.148 11.192 2.555 10.658 1.13 21.748.949 31.726-2.667 3.513-1.274 7.005-3.095 8.953-6.064.691-1.053 1.112-2.279 1.244-3.516-10.429 8.245-26.791 9.446-40.221 9.446-8.099-.337-14.697-4.256-20.773-9.06z" fill="#683613"/><path d="m183.437 161.367c-2.554-1.842-6.176-1.557-9.378-1.061-9.484 1.467-19.241 3.975-28.538 1.715-4.217-1.026-10.815-5.083-15.199-3.939-3.865 1.01-5.722 5.965-5.47 9.603 6.076 4.805 12.674 8.723 20.773 9.061 13.43 0 29.792-1.201 40.221-9.447.24-2.254-.494-4.552-2.411-5.934z" fill="#a4612c"/><path d="m186.708 168.734c-.071-1.071-.447-2.102-.669-3.154-.108-.515-.166-1.045-.114-1.565.055-.533.362-1.002.482-1.519.073-.315-.13-.666-.445-.853 0-.071.008-.14.006-.212-.069-2.418-2.977-4.383-5.994-3.666-2.491.591-3.504 2.128-5.482 3.288-1.649.968-3.522 1.673-5.462 2.165-4.855 1.231-9.892 1.288-14.934 1.431-5.497.156-11.076.128-16.47-.832-2.76-.489-5.45-1.219-7.979-2.233-2.638-1.059-5.342-2.236-4.329 1.486 1.226 4.501 5.362 6.07 10.27 7.448 3.162.888 6.497 1.338 9.866 1.59.022.128.047.254.067.382.118.731.03 1.451-.13 2.172-.348 1.545-.667 3.201.386 4.63.986 1.335 3.105 1.982 4.894 1.291.816-.315 1.434-.956 1.625-1.665.222-.829-.096-1.593-.516-2.343-.387-.683-.924-1.307-1.143-2.002-.226-.712-.136-1.459-.153-2.205 1.367.046 2.727.079 4.071.116.297.008.594.014.891.02.14.288.301.579.518.837.45.531 1.064.955 1.704 1.331 1.206.708 2.885 1.055 4.368.99 3.027-.132 5.634-1.699 6.799-3.904 1.287-.209 2.558-.465 3.803-.787 2.899-.747 6.98-2.168 9.863-4.205.055.074.11.147.163.222.36.518.602 1.071.494 1.675-.128.709-.657 1.357-.941 2.028-.35.819-.354 1.601.113 2.388.2.335.871.571 1.312.429 2.42-.783 3.202-2.817 3.07-4.772z" fill="#ffc770"/><path d="m121.314 168.145c-.084.309-.157.645-.021.937.181.386.655.563 1.062.758 1.023.492 1.838 1.336 2.251 2.325.081.198.16.415.354.529.4.238.894-.138 1.173-.494 3.127-3.959 6.411-5.636 11.59-6.981-1.674-1.112-2.46-3.039-3.943-4.358-6.614-5.884-11.153 2.419-12.466 7.282z" fill="#f3766a"/><path d="m149.047 177.437c-.12-.191-.275-.351-.427-.518-.094-.122-.177-.252-.248-.386-.106-.262-.183-.543-.226-.817 0 .008.002.016.004.024-.01-.061-.024-.122-.045-.181-.026-.067-.047-.136-.063-.207 0-.006-.006-.02-.01-.033-.002-.016-.006-.028-.008-.044 0-.004-.002-.012 0-.017v.005c-.014-.086-.033-.161-.059-.228-.006-.031-.014-.061-.02-.092-.039-.205-.261-.376-.468-.428-.246-.063-.466.012-.653.158-.032.025-.063.049-.093.075.002 0 .004-.002.006-.004-.181.14-.309.327-.417.531-.122.229-.187.4-.214.654-.01.098-.016.195-.014.293.006.547.234 1.124.539 1.589.413.628 1.238 1.405 2.109.919.484-.271.587-.848.309-1.289z" fill="#fff"/><path d="m186.504 169.572c-.014-.12-.022-.227-.059-.337-.028-.086-.089-.203-.138-.297-.097-.189-.242-.36-.392-.516-.163-.169-.46-.242-.704-.195.002.002-.008.008-.032.01-.143.008-.309.067-.372.197-.004.008-.009.016-.013.024.023-.093-.016-.056-.118.112-.073.126-.103.25-.107.395 0 .032-.004.062-.006.093-.025.098-.053.195-.072.295-.026.144-.073.282-.134.416.037-.079.073-.16.11-.239-.055.115-.102.231-.148.347-.031.057-.061.114-.092.169-.075.134-.116.278-.173.418-.166.35-.354.787-.024 1.082.211.191.508.235.793.221.372-.02.653-.173.935-.372.169-.12.301-.242.411-.416.087-.139.15-.289.218-.437.101-.228.136-.476.138-.722 0-.083-.006-.167-.016-.25z" fill="#fff"/><path d="m185.146 168.237c.02-.006.043-.004.065-.008-.002-.004-.022-.004-.065.008z" fill="#fff"/><path d="m127.009 180.315c-.05-.167-.152-.291-.244-.435-.093-.144-.183-.299-.26-.453-.051-.126-.099-.254-.156-.38.028.063.059.126.087.189-.063-.141-.106-.287-.134-.435 0-.017-.004-.031-.004-.047-.016-.258-.193-.524-.486-.585-.277-.057-.61.034-.746.278-.135.238-.242.494-.289.758-.033.183-.045.34-.02.521.024.178.048.357.103.53.055.175.141.339.246.494.141.205.299.408.533.53.252.134.561.155.842.088.063-.015.134-.041.193-.069.163-.114.189-.133.075-.055.029-.021.057-.041.086-.061.04-.035.071-.078.087-.124.029-.065.029-.061 0 .012l.071-.152s0-.011.002-.017c.004-.026.01-.053.017-.079.038-.173.052-.339 0-.512z" fill="#fff"/><path d="m137.396 194.99s0-.002 0-.004c0-.007 0-.013-.002-.019 0 .004 0 .01.002.019-.018-.114-.075-.204-.159-.287-.024-.024-.047-.049-.069-.073-.006-.008-.012-.016-.018-.022-.041-.055-.088-.118-.141-.163-.022-.02-.05-.037-.077-.055-.11-.079-.215-.161-.337-.221-.055-.027-.106-.061-.157-.094-.073-.059-.144-.118-.211-.183-.078-.075-.163-.142-.238-.219-.012-.015-.023-.031-.035-.045-.032-.045-.061-.092-.087-.14-.027-.047-.057-.09-.082-.134-.01-.019-.02-.039-.03-.057-.006-.013-.01-.027-.016-.039-.076-.191-.344-.232-.468-.057-.069.098-.126.205-.169.315-.047.12-.055.258-.061.384-.006.143.012.283.035.423.024.15.087.287.164.421.08.138.181.258.285.382.104.122.228.25.374.329.098.053.212.089.317.124.177.059.332.045.513.018.116-.016.224-.044.331-.087.122-.047.226-.122.287-.234.016-.032.037-.069.049-.103.018-.053.01-.1.004-.147.006.043.012.073-.004-.03z" fill="#fff"/><path d="m178.355 196.186c-.031.006-.023.002 0 0z" fill="#fff"/><path d="m179.235 193.792c-.107-.152-.233-.309-.4-.41-.128-.078-.277-.134-.421-.175-.244-.067-.549.169-.445.408.028.065.05.133.065.202.004.016.006.034.01.052.004.023.006.043.01.065.008.039.022.078.03.118 0 .009.005.017.005.025.002.028.006.055.006.083 0 .053-.006.106-.011.159-.034.166-.085.337-.154.491l.083-.18c-.126.266-.234.518-.246.813 0 .026-.01.107-.006.081-.004.034-.008.065-.008.073v.01c-.002.008-.004.016-.006.02-.006.013-.012.025-.018.033-.133.242.028.549.341.549.096 0 .187-.012.281-.025.026-.004.055-.006.081-.012-.041.008-.065.014-.081.016.012 0 .026-.002.043-.004.162-.004.284-.055.433-.113.113-.045.217-.094.307-.179.156-.151.329-.389.378-.594.043-.175.065-.366.059-.546-.012-.33-.145-.681-.338-.958z" fill="#fff"/><path d="m167.027 170.803c-.467-.141-.884.012-1.23.307-.179.152-.323.333-.488.5-.073.073-.148.138-.23.203-.044.036-.091.071-.138.107-.022.017-.034.027-.047.037-.012.008-.022.014-.044.029-.393.26-.81.485-1.253.664-.02.008-.043.016-.049.018-.071.025-.142.049-.215.074-.128.044-.258.089-.389.128-.26.079-.524.134-.791.191-.522.111-1.063.227-1.472.555-.059.046-.071.146-.028.205.596.815 1.964.681 2.881.534 1.011-.162 2.001-.607 2.824-1.158.58-.386 1.42-.854 1.308-1.622-.051-.352-.252-.661-.641-.776z" fill="#fff"/><path d="m135.24 158.935c15.35 2.9 32.957 5.386 44.244-4.971 3.947-3.951 3.971-7.9 2.031-11.591-3.963-3.597-9.522-5.719-15.108-6.447-13.462-1.751-31.976-.103-39.733 11.589-1.002 1.51-1.915 3.406-2.466 5.388 2.694 3.01 6.862 5.075 11.034 6.032z" fill="#dfa264"/><path d="m184.185 145.371c-.771-1.096-1.672-2.092-2.67-2.998 1.94 3.691 1.915 7.64-2.031 11.591-11.287 10.357-28.894 7.871-44.244 4.971-4.172-.957-8.342-3.022-11.035-6.032-.921 3.313-.827 6.869 1.562 9.29 3.546 3.591 9.211 4.697 14.233 5.25 10.726 1.182 21.633.983 32.3-.594 2.954-.437 5.939-.994 8.589-2.272 7.787-3.762 7.617-13.062 3.296-19.208z" fill="#ce8e53"/><g fill="#ffc372"><path d="m145.352 145.811c-.468-.557-1.24-.792-1.989-.622-.608.139-1.031.49-1.51.838-.234.168-.468.337-.702.506-.238.17-.453.343-.663.542-.274.263-.579.624-.744.988-.061.112-.122.226-.181.34-.122.239-.214.459-.173.729.045.307.212.559.502.728.08.045.202.095.291.118.157.038.315.034.474.024.169-.01.337-.032.504-.032.616 0 1.238-.269 1.783-.502.344-.149.667-.356.993-.535.175-.095.351-.187.522-.291.143-.085.273-.17.409-.266.22-.156.234-.158.405-.362.079-.093.154-.183.227-.278.063-.138.126-.276.191-.415.023-.154.045-.307.068-.461 0-.386-.153-.75-.407-1.051z"/><path d="m169.409 148.815c.012-.11.022-.193 0 0z"/><path d="m174.372 149.428c-.152-.432-.433-.782-.86-1.024-.435-.248-1.102-.351-1.61-.388-.242-.018-.499-.055-.74-.051-.403.006-.84.055-1.2.214-.122.054-.23.14-.328.225-.142.122-.209.254-.229.435-.006.049-.01.098-.015.124-.014.144.009.295.057.433.057.167.149.309.257.449.128.169.254.356.41.502.167.157.356.301.537.443.358.285.954.671 1.423.746.249.071.497.081.747.031.248-.011.48-.078.695-.204l.378-.268c.183-.154.311-.339.387-.553.156-.341.221-.754.093-1.118z"/><path d="m169.405 148.843c0-.008 0-.018.002-.027 0 .011 0 .015-.002.027z"/><path d="m160.637 155.049c-.055-.213-.163-.4-.322-.559-.079-.124-.187-.221-.321-.295-.112-.101-.244-.172-.394-.211-.141-.075-.291-.112-.452-.112-.238-.049-.475-.038-.713.029-.094.01-.179.04-.261.089-.089.029-.174.063-.256.104-.13.073-.293.191-.398.29-.057.055-.114.11-.171.163-.11.102-.228.195-.336.297-.276.26-.492.559-.732.847.013-.016.027-.03.039-.047-.116.141-.22.283-.266.466-.055.205-.039.406.05.599.092.2.224.311.411.441.199.137.433.165.669.196.289.036.565.087.854.056.33-.036.628-.077.942-.164.085-.025.168-.049.252-.075.173-.055.356-.116.516-.195.289-.141.541-.407.708-.657.061-.13.12-.262.181-.392l.063-.437c-.021-.146-.043-.291-.063-.437z"/><path d="m158.235 138.119c-.108-.352-.392-.631-.744-.789-.435-.195-.791-.24-1.275-.165-.124.019-.25.037-.372.061-.453.096-.905.289-1.338.445-.52.189-1.047.344-1.555.561-.474.204-.96.433-1.155.87-.006.01-.015.021-.021.033-.095.15-.093.305-.038.451 0 0 0-.004-.002-.004 0 .006.004.008.006.014.012.031.022.059.038.087.112.257.362.439.623.568.351.172.738.195 1.126.241.47.057.921.029 1.393-.016.577-.055 1.157-.134 1.712-.299.508-.15 1.092-.459 1.37-.88.224-.339.354-.788.236-1.178z"/><path d="m134.966 155.211c-.039-.126-.122-.266-.183-.394-.055-.112-.134-.199-.213-.297-.153-.181-.285-.349-.478-.489-.297-.212-.59-.435-.938-.572-.174-.067-.288-.087-.496-.105-.038-.004-.077-.006-.116-.008-.081-.006-.164-.013-.246-.019-.242-.018-.508.179-.561.393-.053.219-.13.451-.126.674.008.297.128.612.242.889.081.199.161.394.295.567.132.172.256.361.429.5.24.193.49.384.815.43.051.009.102.015.153.023.162.022.309.032.459.018.448.089.816-.181.869-.581.048-.094.085-.191.101-.297.043-.284.086-.451 0-.734z"/><path d="m147.324 159.733c-.087-.291-.282-.536-.54-.719-.094-.086-.206-.145-.334-.179-.118-.063-.244-.094-.38-.096-.323-.04-.681 0-.962.165-.392.232-.716.5-.917.89-.144.281-.299.557-.374.86-.151.618-.38 1.622.518 1.865.56.153 1.143-.191 1.601-.447.268-.15.488-.341.711-.538.344-.303.562-.64.675-1.067.063-.234.07-.504 0-.736z"/><path d="m176.948 159.675c-.049-.337-.197-.575-.437-.837-.175-.191-.502-.354-.752-.417-.151-.036-.348-.079-.505-.073-.122.004-.246.021-.368.033-.355.032-.699.112-1.053.158.138-.016.277-.034.415-.051-.429.053-.85.137-1.279.189.055-.006.112-.014.167-.02-.69.09-1.649.303-1.489 1.108.149.738 1.009 1.124 1.692 1.388.327.128.651.193 1.002.24.326.042.535.071.842.04.332-.032.612-.059.913-.217.258-.134.533-.356.659-.608.152-.307.238-.585.189-.929z"/><path d="m165.895 141.204c-.027-.151-.082-.281-.137-.423-.168-.437-.778-.65-1.165-.282-.146.138-.29.276-.406.439-.094.13-.155.284-.226.426-.179.358-.34.722-.488 1.092-.116.286-.23.581-.293.882-.069.335-.085.638.014.967.12.401.381.75.842.866.816.205 1.489-.504 1.68-1.154.112-.38.15-.799.179-1.189.024-.326.042-.647.038-.972-.002-.219 0-.433-.038-.65z"/></g><path d="m204.925 173.603c-.11.057-.22.112-.332.167-4.223 1.9-8.938 2.914-13.733 3.113-.244.012-.488.019-.732.027 0 .235-.014.469-.039.705-.132 1.272-.612 2.538-1.409 3.622-.059.081-.126.16-.189.239 1.444 1.506 1.893 3.577 1.503 5.555-.202 1.024-.626 2.022-1.261 2.904.071.325.12.655.161.982.116.953.11 1.855-.017 2.709-1.516 10.554-20.351 13.987-33.948 14.292-3.743-3.114-5.159-8.959-3.748-13.066.995-2.895 3.286-5.333 5.993-7.158 3.096-2.086 6.716-3.151 10.299-4.063 3.69-.939 6.716-1.939 9.993-3.982 1.168-.729 2.306-1.512 3.349-2.41.509-.441.989-.917 1.452-1.415 1.123-1.205 2.143-2.538 3.239-3.774.608-.687 1.239-1.347 1.922-1.935.532-.463 1.096-.882 1.708-1.243.823-.488 1.667-.941 2.527-1.358l.061-.031c2.981-1.445 6.163-2.475 9.431-3.042 1.525-.264 3.117-.425 4.605-.008.006 2.912.411 6.764-.829 9.172z" fill="#000" opacity=".16"/><path d="m154.908 195.468c1.184-2.189 3.382-3.628 5.592-4.772 5.252-2.72 11.102-4.313 15.953-7.691 3.561-2.477 6.44-5.82 9.915-8.418 4.858-3.634 14.967-6.914 18.343.281 1.248 2.66 1.063 5.826.069 8.593-.994 2.766-2.731 5.198-4.555 7.503-2.637 3.331-5.502 6.483-8.57 9.422-6.064 5.811-14.476 8.593-22.67 9.593-2.511.307-5.094.472-7.54-.177-5.868-1.556-9.556-8.753-6.535-14.334z" fill="#dfa264"/><path d="m157.895 201.374c-2.737-7.556 7.188-10.292 12.19-11.81 6.647-2.018 12.731-5.902 17.302-11.135 3.399-3.892 7.175-11.247 13.412-9.309 2.255.702 3.861 2.909 4.18 5.248.996 7.262-8.526 16.282-13.56 20.434-5.23 4.312-11.326 7.589-17.829 9.511-4.906 1.451-10.797 4.563-14.581-.849-.504-.722-.87-1.419-1.112-2.09z" fill="#fe5e4a"/><path d="m169.428 207.49c0-.214-.108-.537-.321-.858-.858-1.179-1.393-2.571-2.251-3.963-.858-1.284.429-2.784 1.93-3.321 1.285-.429 2.572-.642 3.965-.858 2.358-.428 4.501-1.178 6.752-2.034.322-.108.643-.429.964-.537 8.68-3.534 18.113-8.784 20.899-18.425.213-.642.858-1.713 2.035-1.821v-.321c1.141-.108 2.328-.13 3.495-.025-.827-2.063-2.338-3.727-4.483-2.892-2.647 1.029-3.253 5.412-4.719 7.49-1.944 2.751-4.338 5.154-7.005 7.204-4.494 3.453-9.547 5.691-14.858 7.494-3.068 1.04-10.195.925-12.834 3.78-.446.482-.763 1.049-.911 1.719-.342 1.543.069 3.149.612 4.632.512 1.401 1.169 2.795 2.249 3.825 1.283 1.226 2.962 1.632 4.737 1.594.116-.884.043-1.799-.252-2.683z" fill="#df9f61"/><path d="m203.401 175.355v.321c-1.179.108-1.822 1.179-2.035 1.821-2.786 9.642-12.218 14.889-20.899 18.426-.321.107-.642.428-.963.536-2.251.858-4.395 1.608-6.753 2.034-1.393.214-2.68.429-3.965.858-1.501.537-2.786 2.035-1.93 3.321.858 1.392 1.393 2.784 2.251 3.963.214.321.321.642.321.858.295.884.368 1.799.252 2.683 2.597-.057 5.395-1.069 7.449-1.872 4.026-1.573 9.394-3.719 12.854-6.164 5.482-3.874 10.271-8.721 14.075-14.245 1.767-2.565 3.363-5.405 3.569-8.512.073-1.11-.175-2.669-.73-4.049-1.167-.105-2.357-.083-3.496.025z" fill="#ce8e53"/><path d="m169.672 192.904c-.313-.841-.833-1.62-1.498-2.225-.671-.614-1.629-1.297-2.568-1.319-.486-.013-.946.353-1.072.815-.14.51.112.957.51 1.254.283.211.665.317.97.504.232.142.435.303.631.494.384.378.723.865.866 1.345.083.282.101.366.079.691-.01.163-.063.242-.112.386.023-.067-.018.041-.049.053-.099.043-.012.024-.15.035-.222.014-.492-.153-.663-.279-.644-.467-1.132-1.118-1.793-1.577-.564-.392-1.241-.673-1.914-.809-.766-.154-1.521-.15-2.277.059-.746.205-1.271.537-1.795 1.089-.153.161-.24.411-.167.63.032.096.067.189.142.263.307.298.663.176 1.039.146.409-.035.791-.15 1.206-.15.677 0 1.399.091 2.011.39.817.398 1.34 1.177 2.041 1.729.832.657 1.92 1.057 2.971.724 1.759-.557 2.168-2.691 1.59-4.246z" fill="#fec76d"/><path d="m180.669 187.865c-.582-1.427-2.377-4.038-4.197-2.823-.49.327-.586.957-.181 1.398.439.478.976.626 1.405 1.061.388.395.675.907.858 1.427.193.553.331 1.183.069 1.725-.177.364-.514.568-.772.527-.94-.142-1.745-1.512-2.398-2.199-.982-1.033-2.487-2.102-3.977-1.976-.577.049-.976.756-.5 1.208.652.619 1.458 1.038 2.143 1.625.628.539 1.126 1.171 1.661 1.797 1.139 1.329 2.853 2.48 4.606 1.476 1.872-1.073 2.025-3.431 1.285-5.248z" fill="#fec76d"/><path d="m189.201 181.619c-.285-.64-.69-1.234-1.174-1.74-.571-.6-1.462-1.376-2.344-1.108-.543.165-.946.767-.759 1.338.255.78 1.023 1.016 1.519 1.552.338.364.655.915.81 1.387.201.611.272 1.089.187 1.739-.041.309-.216 1.065-.588 1.336-.364.264-.897-.155-1.226-.476-.51-.496-.846-1.118-1.273-1.681-.779-1.03-2.466-2.489-3.77-1.39-.297.25-.201.783.124.957.511.277.972.378 1.375.836.394.449.711.963 1.016 1.475.741 1.244 1.92 2.585 3.484 2.632 1.647.051 2.718-1.451 3.056-2.906.309-1.338.12-2.705-.433-3.949z" fill="#fec76d"/><path d="m196.703 174.331c-.423-.762-1.024-1.404-1.73-1.912-.722-.521-1.743-1.021-2.643-.805-1.052.252-1.07 1.607-.281 2.15.281.193.685.248.946.356.197.081.52.27.728.435.335.266.642.658.872 1.089.394.742.569 1.98-.163 2.587.033-.028-.093.043-.171.092-.04 0-.12.024-.05.044-.2-.058-.261-.136-.446-.325-.518-.526-.986-1.04-1.586-1.483-1.136-.836-2.975-1.61-4.335-.893-.398.21-.535.895-.154 1.198.689.548 1.577.766 2.344 1.197.71.398 1.242.888 1.781 1.493.653.734 1.46 1.323 2.489 1.291 1.015-.033 1.861-.693 2.412-1.5 1.014-1.486.825-3.5-.015-5.014z" fill="#fec76d"/><path d="m160.992 198.572c-.063-.22-.201-.415-.401-.53-.191-.11-.467-.135-.685-.049-.169-.012-.337.049-.48.168-.158.137-.248.358-.248.565 0 .22.096.405.234.567.187.218.486.358.773.346.223-.01.445-.094.598-.264.191-.214.286-.521.207-.803z" fill="#e43"/><path d="m167.431 195.575c-.197-.236-.435-.264-.713-.364-.287-.103-.551-.248-.808-.412-.494-.315-.913-.655-1.435-.913-.088-.043-.216.008-.208.12.051.717.401 1.183.976 1.616.468.349 1.399.945 1.989.701.321-.134.429-.47.197-.748z" fill="#fff"/><path d="m179.902 187.274c-.112-.876-.986-1.537-1.785-1.778-.307-.094-.574.333-.324.554.257.224.49.472.712.73.224.26.36.585.614.819.26.238.836.1.783-.323z" fill="#fff"/><path d="m188.845 185.748c-.167-.237-.478-.298-.7-.089-.319.301-.343.746-.683 1.045-.305.268-.75.41-1.159.343-.419-.069-.722.484-.305.724.655.378 1.415.292 2.048-.122.551-.36 1.264-1.24.799-1.901z" fill="#fff"/><path d="m195.927 177.529c-.232.185-.316.462-.499.689-.181.226-.439.447-.689.596-.598.355-1.008.02-1.401-.447-.722-.864-1.684-1.75-2.867-1.734-.201.002-.323.264-.169.409.551.516 1.214.902 1.745 1.457.502.526.864 1.248 1.594 1.494.663.223 1.346 0 1.879-.417.461-.362 1.114-1.156 1.075-1.772-.022-.36-.402-.488-.668-.277z" fill="#fff"/><path d="m145.842 202.604c.038.13.077.26.114.39.044.128.083.258.112.39 0 .012.004.025.004.037.006.134.01.268.01.4.008.134.012.268.008.401 0 .014-.004.03-.006.044-.029.128-.057.254-.09.382-.024.132-.055.263-.091.391-.051.13-.134.258-.195.376-.303.571-.175.347-.775.983-.258.226-.547.382-.864.476.04.045.081.089.118.138l.421.687c.209.484.288.99.235 1.514-.059.25-.115.498-.174.748-.192.506-.499.931-.917 1.272-.312.273-.665.449-1.06.529-.366.14-.746.183-1.141.128-.398-.027-.762-.147-1.089-.358-.372-.158-.682-.404-.93-.734-.14-.229-.28-.457-.421-.687-.209-.483-.288-.989-.235-1.514.024-.101.046-.201.071-.303-1.94-.632-3.892-1.243-5.799-1.967-1.045-.396-2.168-.727-3.097-1.362-.553-.378-1.078-.908-1.352-1.532-.293-.665.03-1.565-.759-1.87-.073-.028-.03-.136.043-.112.74.236 1.09-.558 1.639-.9.618-.386 1.381-.502 2.1-.461 1.167.067 2.326.542 3.439.874 1.736.516 3.452 1.097 5.175 1.658.132-.327.325-.612.587-.845.252-.322.574-.559.962-.714.248-.073.498-.144.746-.217.519-.077 1.023-.025 1.515.156.23.122.458.244.687.366.448.323.783.736 1.007 1.238z" fill="#f7dc8f"/><path d="m117.93 204.349c-1.438.38-2.81.987-4.319 1.359-2.358.58-4.794.836-7.222.777-6.293-.153-13.9794-2.862-17.6394-8.272-3.4119-5.044-2.871-12.507.7056-17.294 4.0585-5.43 11.7428-7.715 18.2108-5.68 5.425 1.707 9.563 6.144 11.517 11.397 1.716 4.614 4.873 9.748 10.477 9.758.997 0 2.005-.134 2.983.063.976.197 1.956.833 2.174 1.805.321 1.433-1.106 2.66-2.485 3.17 1.131-.03 1.901 1.449 1.379 2.451-.523 1.002-1.942 1.313-2.951.803.893.148 1.369 1.295 1.021 2.132-1.263 3.045-3.16.348-4.585-.681-1.928-1.386-4.341-2.093-6.702-2.136-.901-.016-1.742.126-2.562.344z" fill="#c37942"/><path d="m93.4507 196.023c-1.1834-2.158-1.7792-4.863-.675-7.064.8113-1.614 2.444-2.716 4.1907-3.177 1.7466-.461 3.6006-.341 5.3716.012 2.772.553 5.484 1.711 7.491 3.699s3.221 4.878 2.79 7.668c-1.71 11.077-15.7096 5.177-19.1683-1.14z" fill="#cc8e53"/><g fill="#fdc66b"><path d="m115.923 193.715c.053.486-.069.906-.372 1.291-.376.473-.832.632-1.42.685-.498.044-1.118-.059-1.586-.242-.528-.21-.978-.443-1.39-.838-.486-.465-.309-1.288.248-1.601.213-.12.419-.22.65-.305.063-.022.126-.045.189-.067.021-.008.051-.022.1-.041.433-.177.94-.347 1.405-.42 1.049-.167 2.056.416 2.178 1.54z"/><path d="m107.332 183.798c.486.953.086 1.774-.537 2.526-.388.47-.795.819-1.396.964-.34.081-.655-.088-.836-.37-.281-.443-.374-1.078-.311-1.704.03-.313.083-.67.187-.971.219-.646.669-.945 1.277-1.161.583-.205 1.348.192 1.614.718z"/><path d="m92.2937 188.254c.2501.425.3456 1.014.0813 1.46-.2786.469-.8947.758-1.4234.747-.5042-.01-.9434-.272-1.3704-.508-.6385-.353-1.5474-.851-1.1346-1.727.3416-.724 1.4436-.854 2.1451-.833.6792.02 1.338.243 1.702.861z"/><path d="m93.8063 200.91c.2522.594.4514 1.565.0305 2.132-.2562.344-.61.516-1.039.415-.669-.159-1.1549-.927-1.3603-1.545-.2237-.672-.1423-1.689.6364-1.975.73-.269 1.4579.331 1.7304.973z"/><path d="m111.063 201.011c.285.349.32.723.13 1.124-.406.865-1.529.762-2.234.392-.061-.033-.122-.067-.183-.106-.342-.067-.687-.246-.958-.443-.311-.226-.476-.74-.12-1.028.399-.321.923-.535 1.446-.458.169.025.333.08.488.157.514-.122 1.059-.092 1.431.364z"/><path d="m102.007 196.486c.055.516.108 1.026-.093 1.518-.169.412-.619.675-1.044.417-.5-.303-.817-.791-1.1016-1.291-.3762-.661-.488-1.289-.1627-1.99.2521-.544 1.0103-.634 1.4803-.378.653.354.848 1.033.921 1.724z"/><path d="m116.793 183.239c-.108.25-.236.424-.411.64-.042.051-.081.107-.13.154-.057.055-.614.358-.323.195-.274.155-.551.102-.777-.055l.006.007c-.349-.194-.561-.714-.66-1.088-.129-.481-.149-1.124.148-1.546.429-.608 1.324-.826 1.879-.218.467.51.537 1.283.268 1.909z"/><path d="m122.668 202.205c-.006.096-.1.391-.126.484-.198.384-.606.632-1.035.679-.372.041-.706-.032-1.05-.163-.51-.193-1.423-.642-1.12-1.323.238-.532 1.094-.815 1.627-.894.494-.073 1.002.039 1.372.39.202.191.35.543.332.827z"/><path d="m122.541 202.691s.013-.019.017-.029c-.027.069-.027.067-.017.029z"/><path d="m122.558 202.66c.014-.039.036-.1.071-.191-.019.067-.043.13-.071.191z"/><path d="m129.02 199.234c.252.569.315 1.173.13 1.779-.158.516-.52.977-.994 1.233-.519.281-1.265-.004-1.381-.613-.032-.167-.059-.307-.079-.482-.002-.008-.006-.018-.008-.029-.059-.203-.078-.412-.141-.615-.158-.502-.132-1.039.204-1.462.262-.329.648-.571 1.09-.526.465.047.974.252 1.179.715z"/><path d="m122.8 195.091c-.016.329-.277.612-.596.689-.301.073-.648-.022-.913-.163-.254-.136-.705-.333-.689-.676.018-.419.476-.691.848-.775.598-.132 1.387.214 1.35.925z"/><path d="m98.2352 181.549c-.1647.502-.4453 1.094-.9577 1.313-.3314.142-.7361.077-.917-.272-.1891-.358-.1912-.835-.2217-1.138-.0549-.553-.0264-1.26.4555-1.634.3172-.246.7076-.338 1.0716-.124.6222.361.7848 1.207.5693 1.855z"/></g><path d="m124.14 112.929c-1.016.38-1.616.876-2.59 1.172-1.631.496-3.382.681-5.004 1.218.055-.289.055-.594-.01-.9-.173-.809-.82-1.588-1.151-2.031-.405-.54-.732-1.134-1.106-1.697-.962-1.447-2.117-2.707-3.479-3.784-1.365-1.079-2.872-1.911-4.551-2.4-.773-.226-1.688-.456-2.481-.198-.28.092-1.238.565-1.195.947.185 1.58 1.384 2.187 2.574 3.045 1.137.821 2.249 1.795 3.208 2.815.07.073.135.148.202.223-.456.443-.838.982-1.257 1.447-.62.689-1.305 1.364-2.007 1.974-.97.845-3.794 2.66-2.232 4.17 1.567 1.517 4.089-.843 5.101-1.971.734-.817 1.645-2.028 2.133-3.27.132.201.263.404.395.61.947 1.473 2.245 3.018 4.152 2.64.002.111.022.217.063.313.97 2.306 3.808 2.225 5.941 2.038.067-.006.139-.012.21-.02-.334 1.14-.59 2.321-.915 3.402-.275.913-.562 1.847-.93 2.725-.366.87-.732 1.572-.54 2.533.077.384.425.668.778.778 2.542.799 3.624-2.959 4.163-4.678.469-1.5 1.14-3.687.941-5.518 1.505-.561 2.8-1.484 2.981-2.996.232-1.943-1.582-3.27-3.39-2.593z" fill="#111"/><path d="m107.515 142.055c-.242 1.299.059 2.492.909 3.58.874 1.091 2.041 1.76 3.501 2.008 1.47.231 2.806-.035 4.01-.799 1.21-.768 1.919-1.801 2.131-3.102.211-1.311-.13-2.504-1.025-3.581-.876-1.069-2.045-1.711-3.505-1.928-1.434-.226-2.739.036-3.921.786-1.173.746-1.872 1.756-2.1 3.034z" fill="#f2bb41"/><path d="m115.915 143.816c1.364-.958 2.118-2.332 2.263-4.12.116-1.789-.391-3.461-1.519-5.018-1.11-1.52-2.53-2.488-4.254-2.906-1.716-.435-3.229-.191-4.538.727-1.297.911-2.029 2.244-2.196 4-.179 1.754.266 3.404 1.336 4.953 1.094 1.581 2.519 2.609 4.274 3.083 1.752.457 3.296.218 4.634-.721z" fill="#f2bb41"/><path d="m122.503 144.292c1.155-.811 1.804-1.961 1.946-3.453.12-1.496-.291-2.884-1.232-4.166-.923-1.256-2.109-2.053-3.553-2.39-1.437-.344-2.71-.126-3.818.652-1.094.768-1.724 1.886-1.893 3.358-.155 1.461.205 2.835 1.082 4.125.908 1.307 2.1 2.149 3.572 2.525 1.47.359 2.769.144 3.896-.649z" fill="#f2bb41"/><path d="m95.6896 94.9277-7.8507 4.0851c1.3196 17.4662 7.625 30.0932 18.9161 37.8822 3.322.465 6.2-.368 8.636-2.5-10.468-8.441-17.0337-21.596-19.7014-39.4673z" fill="#f2bb41"/><path d="m88.1521 100.319c-.5958-1.1986-.606-2.4851-.0285-3.8611.5815-1.3678 1.5697-2.4144 2.9687-3.142 1.3989-.7276 2.8202-.9349 4.268-.622 1.4721.309 2.5254 1.0549 3.1577 2.2336.6548 1.1992.6995 2.4999.1342 3.9022-.5591 1.4003-1.5616 2.4773-3.0073 3.2293s-2.9016.955-4.3717.61c-1.4741-.342-2.5132-1.124-3.1211-2.35z" fill="#eac14b"/><path d="m98.5177 94.9277-7.8507 4.0851c1.3196 17.4662 7.625 30.0932 18.916 37.8822 3.323.465 6.2-.368 8.636-2.5-10.468-8.441-17.034-21.596-19.7013-39.4673z" fill="#f1d470"/><path d="m108.367 140.473c-.258 1.286-.016 2.453.728 3.499.767 1.051 1.816 1.677 3.144 1.88 1.337.187 2.566-.114 3.686-.9 1.126-.791 1.806-1.829 2.035-3.116.232-1.296-.046-2.463-.833-3.5-.771-1.028-1.82-1.627-3.148-1.8-1.303-.181-2.505.116-3.605.888-1.094.768-1.763 1.784-2.005 3.051z" fill="#f1d470"/><path d="m117.613 141.13c1.364-.957 2.119-2.331 2.263-4.12.116-1.788-.39-3.461-1.519-5.018-1.11-1.52-2.529-2.487-4.254-2.906-1.716-.435-3.228-.191-4.538.728-1.297.91-2.029 2.243-2.196 3.999-.179 1.754.266 3.405 1.336 4.953 1.094 1.582 2.519 2.61 4.274 3.084 1.753.457 3.296.217 4.634-.722z" fill="#f1d470"/><path d="m121.69 143.029c1.155-.811 1.804-1.962 1.946-3.453.12-1.496-.291-2.884-1.232-4.167-.923-1.256-2.109-2.053-3.553-2.39-1.437-.343-2.71-.126-3.818.652-1.094.769-1.724 1.887-1.893 3.358-.155 1.461.205 2.835 1.082 4.126.908 1.307 2.1 2.148 3.572 2.524 1.47.36 2.77.144 3.896-.648z" fill="#f1d470"/><path d="m118.229 137.821c1.163.111 2.247-.185 3.253-.893 1.013-.711 1.643-1.617 1.891-2.719.248-1.101.051-2.077-.593-2.929-.637-.837-1.53-1.304-2.682-1.402-1.125-.1-2.182.199-3.174.896-.979.687-1.603 1.569-1.869 2.644-.273 1.098-.104 2.076.506 2.931.633.86 1.521 1.35 2.67 1.472z" fill="#f1d470"/><path d="m90.8051 99.1721c.6019 1.2259 1.6389 2.0139 3.1151 2.3659 1.4681.337 2.924.13 4.3656-.62 1.0289-.535 1.0756-2.3718.1464-5.5099.4636-1.0141-.9028-2.1827-4.0992-3.5038-.1993.0772-.3986.1667-.5978.2703-1.399.7276-2.3851 1.7723-2.9585 3.136-.5856 1.3779-.5755 2.6644.0284 3.8615z" fill="#f7dc8f"/><path d="m89.4878 97.5649c.3172-1.3739 1.5168-2.3637 2.9361-2.7376-1.647-.5955-3.5075-.6463-5.0427.1605-1.5718.8272-2.6149 2.447-3.0846 4.1583-2.0374 7.4099 2.499 18.8709 5.8052 25.5069.1058.213.2318.443.4514.538.2217.094.4758.025.7056-.049 2.015-.636 4.0118-1.337 5.9841-2.097-4.7356-7.676-9.9044-16.109-7.7572-25.4801z" fill="#111"/><path d="m107.202 117.044c-.819-2.197-1.681-4.351-2.631-6.449-1.806-3.989-3.926-7.776-6.6795-11.2733-1.2749-1.6198-2.7287-3.1644-4.5648-4.1034-.2908-.1483-.5958-.2784-.9048-.3902-1.4193.376-2.619 1.3638-2.9362 2.7377-2.1492 9.3712 3.0195 17.8032 7.7572 25.4802 3.0911-1.191 6.1241-2.528 9.0851-4.01.429-.216.897-.482 1.027-.943.097-.346-.027-.711-.153-1.049z" fill="#333231"/><path d="m121.277 13.5307c-1.925-2.4633-3.794-4.54649-5.61-6.25167-2.194-2.0832-4.227-3.45913-6.098-4.12575-1.293-.45119-2.529-.56704-3.708-.34347-.909.16869-1.782.53452-2.617 1.09749-.234.16259-.466.33737-.698.52639-1.504 1.2804-2.9197 3.28027-4.2414 6.00371-1.1061 2.2519-2.1756 5.083-3.2065 8.4893-1.0533 3.4001-2.0435 8.1885-2.9728 14.369-.9394 6.1764-1.2586 15.1819-.9577 27.0185l2.6739-1.9267 40.5545-24.3724c-1.868-3.2843-3.59-6.215-5.166-8.7901-2.912-4.711-5.564-8.6092-7.955-11.6943z" fill="#e69a0a"/><path d="m183.737 28.105c-.171-.2541-.342-.4939-.51-.7215-.655-.8028-1.393-1.4247-2.219-1.8657-1.069-.5752-2.301-.8597-3.696-.8536-1.999.0223-4.376.6259-7.127 1.8088-2.257.9877-4.683 2.3027-7.277 3.9408-3.244 2.0547-6.971 4.7781-11.178 8.1661-2.293 1.8576-4.833 3.9916-7.621 6.4021l29.927 32.9917 4.093 5.0302c4.722-14.3751 7.235-23.0006 7.542-25.8764.657-5.4366.968-10.0928.933-13.9645.024-3.0486-.161-5.7842-.557-8.2028-.466-2.9266-1.234-5.213-2.306-6.8572z" fill="#e69a0a"/><path d="m173.223 98.7516c-1.021 1.6824-2.111 3.3394-3.259 4.9674-4.88 6.91-11.761 12.696-20.135 14.69-10.274 2.445-20.858-1.854-30.262-5.557-10.315-4.06-23.2509-8.656-31.2379-16.5982-7.1898-7.148-10.9535-17.3973-11.0979-27.4434-.059-4.1278.4473-8.2495 1.4111-12.2594 2.2591-9.3937 6.5108-18.5232 13.9284-24.7809 6.3094-5.3228 14.0743-8.6214 22.1923-9.9567 16.219-2.6644 33.598 2.0019 46.982 11.3428l.065.0447c8.579 5.9874 14.906 14.997 18.07 24.9273 4.583 14.3811.856 28.2278-6.657 40.6234z" fill="#f1d470"/><path d="m122.983 72.711c11.157 2.6949 25.029 15.1657 21.859 27.939-2.034 8.193-10.015 11.666-17.843 11.506-6.97-.145-13.593-3.228-19.292-7.24-4.185-2.945-8.099-6.5542-10.1974-11.2206-5.362-11.9301 5.1834-20.1044 16.1444-21.525 3.138-.4065 6.293-.1931 9.329.5406z" fill="#e69a0a"/><path d="m128.861 83.6553c.362-1.0711.543-1.7052.537-1.9044.035-2.012-.618-2.2884-1.956-.8272-.213.1057-.437.4329-.667.9776-.903 2.1259-4.561 6.6724-3.859 9.0665.728 2.4795 2.796-.0813 3.442-1.4023.938-1.9105 1.672-3.951 2.505-5.9102z" fill="#3e0a00"/><path d="m135.216 84.179c-.147-.8434-.484-1.63-1.011-2.3616-.933-1.3272-2.336-2.3657-4.211-3.1137-1.846-.7885-3.577-1.0487-5.187-.7824-.6.0975-1.12.2479-1.564.4512-.848 3.3168.356 6.0463 3.614 8.1925 3.239 1.254 6.024.4573 8.357-2.388z" fill="#3e0a00"/><path d="m137.251 105.345c-2.989 2.38-7.066 2.79-10.888 2.78-3.17-.01-6.363-.248-9.415-1.108-8.088-2.28-14.857-9.6249-15.221-18.0167-.102-2.325.291-4.7334 1.529-6.7048 1.24-1.9694 3.42-3.4327 5.75-3.4165 2.218.0143 4.215 1.2947 5.964 2.6564.049.0406.102.0772.15.1199 3.174 2.4876 6.023 5.3838 9.315 7.7149 3.268 2.3149 6.846 2.5182 10.203 3.64.814.2724 1.613.5976 2.39 1.0203 4.434 2.4043 3.859 8.4185.221 11.3145z" fill="#3e0a00"/><path d="m134.642 93.0113c-.083.4146-.218.8251-.403 1.2215-.547 1.1686-1.596 2.1563-2.871 2.3596-1.27.2012-2.706-.565-3.013-1.815-.85 1.1605-2.442 1.7276-3.839 1.3597-1.391-.3679-2.499-1.6462-2.666-3.077-1.35.8536-3.261.6971-4.459-.3659-1.197-1.0609-1.574-2.9408-.882-4.3859-1.151.2785-2.483.3171-3.392-.443-2.363-1.9796-.313-4.8452 2.009-6.211 3.174 2.4876 6.023 5.3838 9.315 7.7149 3.267 2.3149 6.846 2.5182 10.203 3.6401z" fill="#fff"/><path d="m151.771 63.2313c-2.092.2256-4.235 1.4308-6.425 3.6156-1.871 1.8718-3.489 4.1237-4.85 6.7557-1.12 2.2275-1.877 4.5464-2.273 6.9589-.338 2.1889-.34 4.2091-.01 6.0585.268 1.5609 1.269 3.2051 2.999 4.9326 1.73 1.7276 4.069 3.4165 7.019 5.0647 3.589 2.006 5.98 3.2478 7.174 3.7237 2.739 1.087 5.248 1.394 7.525.922 5.193-1.172 9.089-4.0847 11.692-8.7348 1.48-2.6462 2.438-4.8839 2.877-6.7171.555-2.3535.488-4.7131-.203-7.0808-.397-1.3637-1.593-3.0384-3.589-5.0261-1.969-1.9247-4.223-3.6522-6.761-5.1826-6.434-3.8961-11.49-5.6602-15.171-5.2924z" fill="#b1b0b7"/><path d="m157.965 68.2403c-2.06-.7703-3.941-1.1076-5.643-1.0142-1.523.0854-3.097 1.0284-4.723 2.8312-1.324 1.4328-2.556 3.2498-3.693 5.4529-.919 1.7844-1.527 3.6501-1.82 5.5951-.26 1.7418-.26 3.3433 0 4.8046.474 2.7539 2.953 5.3838 7.436 7.8897 2.804 1.567 4.811 2.5852 6.023 3.0568 2.381.9023 4.488 1.1523 6.316.7479 4.127-.9126 7.23-3.2295 9.312-6.9488 2.615-4.6745 3.518-8.0462 2.709-10.1172-.551-1.3698-1.82-2.9592-3.807-4.7659-1.791-1.6199-3.766-3.0954-5.923-4.4266-2.34-1.4023-4.402-2.4368-6.189-3.1014z" fill="#fff"/><path d="m132.804 52.871c.903 1.9003.999 4.3554.283 7.3634-.614 2.573-1.688 5.1297-3.219 7.6662-1.314 2.1197-2.893 3.9814-4.74 5.5809-1.689 1.4349-3.41 2.4937-5.158 3.1827-1.472.5894-3.396.5996-5.775.0305s-5.043-1.6767-7.991-3.325c-3.589-2.006-5.899-3.392-6.9296-4.1583-2.3607-1.7641-3.9365-3.7375-4.7275-5.9244-1.7202-5.0362-1.2789-9.8794 1.3217-14.5295 1.4803-2.6462 2.8853-4.6339 4.2174-5.9671 1.716-1.7052 3.761-2.884 6.142-3.5364 1.369-.376 3.423-.2357 6.163.4248 2.672.6686 5.324 1.6828 7.959 3.0445 6.69 3.4368 10.842 6.8207 12.454 10.1477z" fill="#b1b0b7"/><path d="m125.293 50.2201c1.735 1.3495 3.007 2.7742 3.819 4.2741.726 1.3414.746 3.1766.061 5.5037-.527 1.878-1.432 3.8778-2.713 5.9996-1.041 1.7174-2.312 3.2112-3.814 4.4794-1.348 1.1341-2.713 1.9714-4.095 2.5161-2.595 1.0386-6.135.3049-10.618-2.2011-2.804-1.5669-4.724-2.7437-5.761-3.5282-2.017-1.5548-3.3325-3.2173-3.9446-4.9875-1.3826-3.9916-1.0349-7.8491 1.0452-11.5683 2.6144-4.6745 5.0164-7.2089 7.2044-7.6032 1.456-.248 3.475 0 6.055.7439 2.318.6767 4.61 1.5852 6.875 2.7254 2.421 1.258 4.382 2.4734 5.884 3.6461z" fill="#fff"/><path d="m140.155 76.1895 2.212-4.3392c-3.357-3.9733-7.631-6.148-12.82-6.528l-2.213 4.3391c5.055-.1097 9.327 2.067 12.821 6.5281z" fill="#b1b0b7"/><path d="m116.163 58.2519c-1.596.4594-2.799 1.4166-3.613 2.8718-.813 1.4552-.996 2.9754-.547 4.5648.454 1.6055 1.409 2.8148 2.863 3.6278 1.456.8129 2.981.9897 4.575.5304 1.6-.443 2.808-1.3922 3.622-2.8453.813-1.4552.994-2.9836.538-4.5892-.449-1.5893-1.401-2.7904-2.856-3.6034-1.456-.8129-2.983-.9979-4.584-.5548z" fill="#413535"/><path d="m157.487 81.664c-1.596.4594-2.8 1.4166-3.613 2.8718s-.996 2.9754-.547 4.5648c.453 1.6055 1.409 2.8148 2.863 3.6278 1.456.8129 2.981.9897 4.575.5304 1.6-.443 2.808-1.3922 3.621-2.8453.814-1.4552.995-2.9836.539-4.5892-.449-1.5893-1.401-2.7904-2.857-3.6034-1.456-.8129-2.983-.9979-4.583-.5548z" fill="#413535"/><path d="m130.73 25.8287c.195.4065.458.8414.795 1.3129 2.021 2.8271 5.116 5.0586 8.321 6.337 1.781.7093 3.666 1.1463 5.577 1.3068 3.138.2642 6.34-.2134 9.246-1.4267 2.48-1.0365 6.809-4.203 6.517-7.2272-.22-2.2763-2.601-3.6522-4.783-4.268-3.461-.9735-7.173-1.0121-10.652-.1098 2.523-.9735 6.805-3.2355 3.062-6.2109-4.899-3.89-12.103.8007-15.751 4.3086-8.55 8.2251 8.459 18.1757 15.395 20.4398 2.127.6951 4.396 1.1767 6.596.7763 2.2-.4003 4.323-1.8413 4.998-3.9733.826-2.6035-1.023-5.7171-3.703-6.2435" fill="#e69a0a"/><path d="m161.602 51.1386c-3.123-1.7539-8.393-1.7092-10.266 1.7825-2.07 3.8615 1.161 8.1275 5.175 8.1722 1.368.437 2.859.4776 4.215-.0346 2.131-.8068 3.617-2.7721 3.729-5.0708.1-2.0405-1.112-3.8696-2.855-4.8472z" fill="#e69a0a"/><path d="m138.005 41.6688c-.535-1.6178-1.504-3.14-3.072-3.9184-1.81-.8984-4.114-.8353-5.639.6097-1.443 1.3698-1.756 3.2051-1.356 4.957.199 2.9734 2.912 5.8045 5.919 5.7557 1.615-.0264 3.227-.817 4.057-2.2356.903-1.5467.632-3.5384.093-5.1704z" fill="#e69a0a"/></svg>