<svg fill="none" height="216" viewBox="0 0 216 216" width="216" xmlns="http://www.w3.org/2000/svg"><path d="m88.9603 200.673c-.8052.542-1.2437 1.124-1.3155 1.746-.0478.335.016.669.1914 1.004.1515.311.3747.582.6697.813.4066.311 1.0444.598 1.9134.861 4.0341 1.22 8.6782 2.01 13.9317 2.368 3.205.224 7.949.315 14.231.275 3.58-.016 6.291-.103 8.133-.263 2.997-.263 5.632-.785 7.904-1.566.933-.319 1.683-.722 2.249-1.208.717-.606 1.072-1.288 1.064-2.045-.008-.646-.291-1.244-.849-1.794-.455-.454-1.048-.845-1.782-1.172-1.06-.478-2.172-.801-3.336-.969-.551-.079-1.18-.131-1.89-.155-.351-.016-.985-.028-1.901-.036-3.461-.016-8.663-.135-15.607-.359-6.195-.119-11.389-.012-15.5823.323-1.7221.144-3.1173.339-4.1856.586-1.5148.351-2.7944.881-3.8388 1.591z" fill="#000" fill-opacity=".14902"/><path d="m140.295 132.637c-.521-.309-.971-.942-1.35-1.898-.633-1.519-1.062-2.988-1.287-4.409-.056-.407-.141-1.04-.253-1.898-.085-.759-.204-1.385-.359-1.877-.436-1.28-1.23-2.398-2.384-3.354-1.209-.956-2.573-1.547-4.092-1.772-1.561-.225-3.079-.007-4.556.654-1.491.661-2.51 1.61-3.059 2.847-.309.732-.471 1.744-.485 3.038-.042 4.936 1.034 9.098 3.228 12.487 1.279 1.941 2.925 3.586 4.936 4.936 2.123 1.435 4.422 2.349 6.897 2.743 1.589.267 3.558.316 5.906.147 1.815-.098 3.354-.309 4.62-.633 1.631-.436 2.939-1.082 3.923-1.94.746-.647 1.301-1.406 1.667-2.278.365-.872.513-1.765.443-2.679-.07-.9-.366-1.716-.886-2.447-.563-.802-1.301-1.336-2.215-1.603-.534-.169-1.139-.246-1.814-.232-.464.014-1.097.063-1.898.147l-3.333.401c-.83.099-1.47.134-1.92.106-.689-.028-1.265-.19-1.729-.486z" fill="#7e39bd"/><path d="m149.386 126.752c-.717-.056-1.42.028-2.109.253-.704.24-1.308.605-1.815 1.097-.885.858-1.511 2.166-1.877 3.924-.098.394-.155.759-.169 1.097-.014.379.029.949.127 1.708.183 1.055.45 1.976.802 2.764.239 1.307.562 2.334.97 3.079.351.689.872 1.392 1.561 2.11 1.35 1.476 2.707 2.299 4.071 2.468.745.084 1.687-.022 2.826-.317 1.027-.281 1.955-.626 2.785-1.033-1.463-.549-2.7-1.611-3.713-3.186-1.406-2.151-2.109-4.711-2.109-7.678 0-1.659.176-2.847.527-3.565.197-.421.563-.871 1.097-1.35-.281-.267-.59-.499-.928-.696-.647-.365-1.329-.59-2.046-.675z" fill="#883ecc"/><path d="m161.198 135.802c-.225-1.308-.731-2.602-1.518-3.882-.83-1.392-1.786-2.432-2.869-3.122-.661-.407-1.343-.668-2.046-.78-.816-.141-1.575-.113-2.278.084-.042.014-.078.028-.106.043l-.021-.022c-.534.479-.9.929-1.097 1.35-.351.718-.527 1.906-.527 3.565 0 2.967.703 5.527 2.109 7.678 1.013 1.575 2.25 2.637 3.713 3.186.422-.225.822-.464 1.202-.718 1.308-.886 2.264-1.94 2.869-3.164.576-1.307.766-2.714.569-4.218z" fill="#8f45d3"/><path d="m82.8984 180.731c-.5484.422-1.1953 1.041-1.9406 1.856-2.5313 2.869-4.3172 5.436-5.3578 7.7-.9563 2.039-1.1953 3.775-.7172 5.21.4078 1.153 1.2375 2.032 2.4891 2.637 1.1812.576 2.4117.759 3.6914.548 2.1656-.366 4.2539-1.702 6.2648-4.008.45-.492.7313-.794.8438-.907.3515-.323.689-.562 1.0125-.717.4218-.169 1.132-.239 2.1304-.211 2.6719.042 5.0485-.267 7.1297-.928 1.6735-.549 3.2555-1.35 4.7465-2.405 1.462-1.054 2.742-2.299 3.839-3.733 2.165-2.799 3.501-6.061 4.007-9.788.324-2.419-.028-4.198-1.054-5.337-.605-.661-1.47-1.146-2.595-1.455-.267-.084-1.308-.274-3.122-.57-1.321-.225-2.046-.337-2.172-.337-.83-.084-1.547-.042-2.1518.126-1.5891.465-2.8899 1.864-3.9024 4.198-.464 1.238-.8226 2.166-1.0758 2.785-.45 1.068-.9281 1.926-1.4343 2.573-.4782.605-1.0336 1.09-1.6664 1.455-.6891.394-1.3922.612-2.1094.654-.4641.028-1.2094-.049-2.2359-.232-.9704-.183-1.7227-.239-2.2571-.168-.7875.098-1.575.45-2.3625 1.054z" fill="#8e46d1"/><path d="m72.171 200.819c.4219.552.9102.979 1.465 1.28.0767.042.1534.083.23.125.7287.349 1.4274.43 2.096.246.5437-.158.928-.434 1.1528-.826.1235-.215.1854-.448.1858-.7.0026-.026.0013-.045-.0037-.058.1451-.057.2856-.124.4215-.199.2517-.154.4231-.315.5141-.484.0584-.104.09-.211.0948-.321.0241-.28-.1038-.567-.384-.86-.3925-.316-.6567-.565-.7926-.747-.2331-.298-.395-.752-.4859-1.363-.2611-1.571-.2446-3.312.0497-5.223.2042-1.361.606-3.079 1.2051-5.154.2577-.94.6367-2.224 1.1371-3.851.157-.509.3124-.965.4661-1.366.2231-.189.4661-.386.729-.591.3734-.291.5145-.562.4234-.812-.0555-.135-.173-.236-.3524-.303.11-.215.1691-.325.1772-.332.1649-.375.2261-.714.1837-1.018-.0315-.371-.215-.682-.5504-.932.0059-.123-.014-.24-.0596-.349-.0894-.233-.2538-.415-.4931-.547-.2395-.129-.4864-.182-.7407-.16-.0835-.001-.1632.005-.2391.019-.0202-.002-.0374-.006-.0515-.01-.3758-.092-.7667-.063-1.1729.089-.3759.143-.7097.365-1.0015.666-.2448.264-.4735.587-.6861.968-.1403.258-.302.617-.4848 1.077-1.1133 2.696-1.9857 4.996-2.6173 6.9-.8499 2.529-1.4706 4.885-1.8622 7.068-.3744 2.068-.3892 3.742-.0443 5.021.2009.754.3777 1.248.5304 1.48.4544.615.7745 1.037.9604 1.267z" fill="#f4d7f9"/><path d="m86.5969 194.825c.2533-.085.7-.134 1.3402-.146.8203-.039 1.6247-.179 2.4133-.42.6428-.209 1.1217-.452 1.4366-.728.482-.408.8658-1.143 1.1514-2.204.2972-1.166.3653-2.16.2043-2.979-.0714-.436-.2182-.777-.4406-1.022-.3352-.418-.9132-.682-1.7339-.793-.4785-.071-.8468-.047-1.1048.07-.2023-.009-.4132-.005-.6326.01-.2607.016-.5082.049-.7424.099-.2666.084-.5847.215-.9544.393l-.7986.516c-.1852.077-.3388.155-.461.233-.0749-.054-.1647-.084-.2693-.09-.5646-.168-1.1711-.063-1.8193.315-.3962.235-.8734.646-1.4316 1.232-.3552.38-.6233.737-.8042 1.071-.0757.137-.1613.314-.2568.531-.1084.279-.2286.611-.3607.996-.0361.124-.0657.238-.0887.342-.075.126-.1452.255-.2106.389-.3939.816-.5557 1.528-.4854 2.138.0442.396.1644.728.3605.996.2404.305.5364.522.888.65.133.246.344.435.633.568.2794.127.5718.168.877.123.2603-.035.6377-.203 1.1323-.502.2461-.285.5381-.629.876-1.032.0844-.088.1742-.176.2696-.263.111-.05.2571-.126.4382-.228.2412-.129.4327-.218.5745-.265z" fill="#480063"/><path d="m75.4874 202.565c.6759.358 1.2421.535 1.6985.532.9533.134 1.8511-.228 2.6937-1.086.5442-.737 1.1202-1.454 1.7279-2.152.8932-1.052 1.8542-2.056 2.8831-3.013.482-.433.9191-.797 1.3112-1.094.201-.21.4181-.427.6511-.651.2171-.217.3458-.371.3862-.46.1086-.227.0981-.413-.0315-.557-.0527-.067-.2502 0-.5926.199.0548-.06-.0343.016-.2672.227-.4462.39-.8214.757-1.1258 1.101-.3655.447-.6633.726-.8934.836-.2094.098-.4397.134-.6909.109s-.4711-.113-.6597-.266c-.2154-.172-.3611-.375-.4371-.609l-.0143-.008c-.0397-.074-.0729-.135-.0998-.185-.0711-.443-.0747-.737-.0109-.881.2202-.501.6547-1.214 1.3034-2.14.4312-.622.8168-1.114 1.157-1.475.5755-.631 1.4576-1.33 2.6466-2.099.7271-.453 1.3922-.818 1.9952-1.094.1319-.105.25-.208.3543-.31.7051-.722 1.1718-1.747 1.4-3.075.0587-.378.1193-.94.1818-1.688.068-.758.1361-1.323.2044-1.695.0162-.178.0557-.448.1185-.811.0286-.259.0307-.487.0064-.685-.6917-.352-1.5785-.747-2.6607-1.186-1.8263-.744-3.233-1.266-4.2201-1.567-1.6054-.475-3.0791-.724-4.421-.746-.052-.001-.1014-.003-.1483-.006-.3257.251-.5872.544-.7844.877-.1388.235-.3371 1.288-.5949 3.158-.2426 1.867-.6194 3.232-1.1304 4.097-.2288.385-.6021.878-1.1199 1.476-.5308.601-1.2954 1.713-2.2939 3.334-1.0031 1.631-1.6301 3.58-1.8812 5.847-.2693 2.273.2257 4.348 1.4852 6.225.5735.719 1.198 1.226 1.8735 1.521z" fill="#550374"/><path d="m87.6566 194.061c-.0935.185-.2278.348-.4028.488-.0576.056-.1025.1-.1347.132.0069-.033.0112-.062.0129-.086.0477-.061.0631-.109.0462-.143.0792-.192.1128-.41.101-.652.2337-1.723-.0528-3.337-.8593-4.842-.0593-.244-.1662-.395-.3206-.454.0115-.043-.0096-.061-.0636-.053.0009-.024-.0134-.032-.0431-.024.0105-.019.0057-.021-.0144-.007-.0242-.026-.086-.028-.1854-.008-.0055.009-.0254.011-.0597.005l-.0144-.008-.0311.02c-.1474.044-.2819.133-.4034.265-.017.028-.044.063-.081.105-.0067.058-.0236.13-.0508.214-.0013.012-.0104.038-.0273.079-.0098.032-.0272.072-.0523.12.0078.166.0481.312.1208.438.1756.121.2959.217.3608.289.0963.09.1797.259.2502.509.4712 1.1.6305 2.297.4779 3.592-.0205.262-.061.47-.1214.623-.0249.247-.1433.512-.3553.794-.0628.102-.11.182-.1417.239.0647-.25.0828-.495.0542-.734.0116-.316-.0168-.611-.0851-.884-.1829-.993-.6175-1.992-1.3037-2.998-.2073-.287-.4039-.468-.59-.544-.1118-.061-.2525-.069-.4222-.025-.1519.042-.2808.12-.3868.237-.0216.025-.041.058-.0583.098-.031.095-.055.2-.0721.315.0138.144.0596.28.1375.41.0682.099.2062.23.4138.392.1281.107.2493.266.3637.477.5122.825.8078 1.749.8869 2.772.0289.252.0295.475.0019.671-.0581.254-.086.419-.0835.495-.0134.216.0468.361.1806.433.1825.099.3599.078.532-.064.0957-.072.1893-.22.281-.443.0474-.124.0825-.247.1054-.371.0097.042.0169.083.0218.123.0599.07.1027.137.1286.2.0649-.026.0944-.023.0885.011.1955.032.3552-.024.4791-.168.1097-.076.2087-.19.2968-.341.0171-.04.029-.071.0356-.092.0464-.074.0825-.135.1083-.184.0236-.024.0347-.043.0333-.056.0272-.035.0474-.08.0606-.135.0456-.024.0519-.046.019-.064.1124-.15.1703-.28.1735-.389l.0083-.015c.0031.027.0036.058.0015.094.0278.077.0658.142.1141.193.1246.043.2434.045.3564.007.0847-.028.171-.099.259-.213.193-.168.3292-.324.4088-.467.0498-.047.0872-.089.1121-.125.0269-.035.0463-.068.0583-.098.0738-.147.1379-.298.1924-.454.5964-1.439.7969-3.266.6015-5.482-.0029-.387-.0504-.692-.1426-.916-.0693-.137-.1573-.234-.2639-.292-.0183-.035-.0499-.046-.0946-.033.0161-.028.0169-.04.0023-.036l-.0227.006c.0107-.019.0087-.026-.006-.022l-.0454.013c-.1495-.019-.314.034-.4935.16-.0786.094-.1487.223-.2105.388-.0144.017-.0374.067-.069.149.0022.038-.0104.081-.0379.128-.0334.268-.0295.518.0117.752.126.254.2031.445.2313.572.0978.165.1476.434.1494.807.1279 1.386.0075 2.617-.3614 3.695-.0527.183-.1085.32-.1675.412z" fill="#f4d7f9"/><path d="m116.184 178.327c.268-1.21.268-2.18 0-2.911-.309-.872-1.118-1.716-2.425-2.532-2.152-1.364-4.507-2.376-7.067-3.037-2.517-.647-5.076-.914-7.6779-.802-1.0407.057-1.8071.218-2.2993.485-.7031.366-1.3711 1.14-2.0039 2.321-.4781.872-.8648 1.448-1.1601 1.729-.0703.071-.2813.247-.6328.528-.2672.211-.4641.401-.5907.569-.239.324-.3726.718-.4007 1.182-.0282.421.0421.836.2109 1.244.2531.619.7523 1.301 1.4976 2.046 1.0547 1.055 2.3204 2.11 3.7969 3.164 1.0266.746 2.4047 1.667 4.134 2.764 1.744 1.111 3.129 1.87 4.156 2.278 1.364.562 2.503.703 3.417.422.506-.155 1.097-.5 1.772-1.034 1.308-1.055 2.419-2.306 3.333-3.755.914-1.462 1.561-3.016 1.94-4.661z" fill="#280d30"/><path d="m50.3507 167.105c-.1547.829-.1265 1.659.0844 2.489.3094 1.237 1.0195 2.468 2.1305 3.691 1.7718 1.87 4.2679 3.347 7.4883 4.43.8296.281 1.6875.534 2.5734.759 2.1094.521 4.282.802 6.518.844 1.4062.014 2.9742-.07 4.7039-.253 1.1812-.127 2.7422-.345 4.6828-.654 1.6453-.267 2.8758-.471 3.6914-.612 1.3641-.281 2.5805-.597 3.6492-.949 2.2641-.731 4.0359-1.758 5.3156-3.08.7453-.773 1.3149-1.659 1.7086-2.658.0422-.182.0985-.33.1688-.442 1.9265-1.322 3.839-2.792 5.7375-4.409l-2.1938-7.741c-1.8843 1.856-3.8601 3.48-5.9273 4.872-.1688-.084-.3305-.147-.4852-.19-.675-.253-1.3008-.302-1.8773-.147-.3797.112-.7805.316-1.2024.611-.225.127-.5765.373-1.0546.739-1.0829.745-2.4047 1.3-3.9657 1.666-1.2375.267-2.707.436-4.4086.506-5.7234.141-11.4398-.738-17.1492-2.636-1.364-.479-2.2289-.76-2.5945-.844-.9703-.267-1.8352-.38-2.5945-.338-.8157.043-1.575.254-2.2782.633-.7312.352-1.3219.851-1.7719 1.498-.4781.633-.7945 1.371-.9492 2.215z" fill="#8942cc"/><path d="m130.106 116.585c-.271-1.265-.552-2.292-.844-3.08-.423-1.108-.929-2.037-1.518-2.784-1.024-1.299-2.465-2.22-4.324-2.763-1.276-.371-3.006-.61-5.19-.717-1.469-.069-2.854-.104-4.155-.106-2.631.002-4.924.142-6.877.422-4.071.582-7.551 1.799-10.441 3.649-1.6311 1.039-3.0865 2.27-4.3664 3.692-.7221.812-1.4042 1.69-2.0461 2.636-.8461 1.422-1.5492 3.116-2.1094 5.084-.1699.509-.3175 1.05-.4429 1.624-.3497 1.574-.7223 3.971-1.118 7.193l-1.1602 9.661c-.2623 2.111-.4592 3.996-.5906 5.653-.1419 1.773-.2122 3.306-.2109 4.599-.0001.232.007.457.0211.675.0973 3.936.8075 7.297 2.1304 10.082.6747 1.417 1.5185 2.725 2.5313 3.924.6764.812 1.4358 1.571 2.2781 2.278.6246.545 1.2715 1.044 1.9406 1.498.6922.488 1.4235.917 2.1938 1.286.8046.414 1.6343.772 2.4891 1.076 2.2911.816 4.7311 1.273 7.3191 1.371 1.322.047 2.665.005 4.029-.126 1.102-.106 2.213-.267 3.333-.485 2.87-.593 5.478-1.542 7.826-2.848 2.588-1.433 4.69-3.233 6.307-5.4 1.776-2.327 3.091-5.224 3.944-8.691.658-2.637 1.101-5.935 1.329-9.893.057-.673.099-1.334.127-1.982.116-2.166.165-4.233.148-6.202-.01-2.202-.095-4.403-.254-6.602-.202-2.577-.505-5.157-.907-7.742-.385-2.324-.849-4.652-1.392-6.982z" fill="#8e46d1"/><path d="m113.822 129.241c-.99-.328-1.974-.722-2.953-1.181-4.485-2.164-7.003-5.033-7.552-8.606-.026-.182-.055-.639-.084-1.371l-2.996.021c.176.693.275 1.453.296 2.278.076 2.985-.458 5.889-1.6033 8.712-1.415 3.483-3.3204 5.234-5.7164 5.252-2.6178.033-4.5655-.986-5.843-3.059-.9271-1.534-1.3982-3.44-1.4133-5.716-.0021-1.514.2721-3.286.8227-5.316.2047-.77.4227-1.48.6539-2.13h-.7172c-.0311.053-.0592.102-.0844.148-.4005.572-.738 1.536-1.0125 2.889-1.9535 9.63-2.9238 19.284-2.9109 28.962-.0127 1.804.0224 3.611.1054 5.421.0253.611.0745 1.075.1477 1.392.1039.526.2867.94.5484 1.245.2765.346.6562.592 1.1391.738.3433.104.7933.168 1.35.19 1.7173.068 3.9884-.009 6.8133-.232 3.5553-.286 5.8826-.447 6.982-.485 1.7825-.055 3.8005-.013 6.0535.127 1.371.065 3.424.212 6.16.442l15.103 1.35c.773.069 1.413.105 1.919.106h.486c.327-.031.637-.073.928-.127.663-2.151 1.472-4.95 2.426-8.395.945-3.408 1.592-7.859 1.94-13.352.339-5.372.487-9.064.443-11.074-.013-.641-.034-1.295-.063-1.962-.059-1.449-.157-2.967-.295-4.556-.176-2.325-.408-3.295-.697-2.911h-2.404v.611c-.084 3.143-.52 5.498-1.308 7.067-.683 1.34-1.737 2.395-3.164 3.164-.94.471-2.058.823-3.354 1.054-.948.185-1.975.298-3.08.338-1.506.072-2.997-.047-4.472-.359-.866-.162-1.731-.387-2.594-.675z" fill="#f9f4d7"/><path d="m95.8711 156.537c-3.9144-.876-7.0292-1.916-9.3446-3.122-.4271.532-.6662 1.263-.7171 2.194-.0563.675 0 1.455.1687 2.341.7313 3.895 2.25 7.362 4.5563 10.399 2.4187 3.235 5.3296 5.435 8.7328 6.603 1.3078.421 2.8058.738 4.4928.949.76.07 1.772.147 3.038.232.492.014 1.033.042 1.624.084 3.051.141 5.414.162 7.087.063 2.616-.168 4.901-.66 6.856-1.476 2.925-1.209 5.681-3.305 8.269-6.286 3.403-3.853 5.308-7.84 5.716-11.96.054-.495.075-.959.063-1.392-1.661.755-3.496 1.36-5.505 1.814-4.317.984-10.224 1.476-17.719 1.476-5.822 0-11.594-.64-17.3179-1.919z" fill="#280d30"/><path d="m119.897 168.518c.028 1.209.155 2.362.38 3.459.239 1.35.731 2.356 1.476 3.017.52.464 1.188.829 2.004 1.097.563.154 1.132.239 1.709.253.267-.014.548-.035.843-.064 1.111-.154 2.046-.583 2.806-1.286.267-.253.555-.57.865-.949.168-.211.422-.535.759-.971.169-.225.549-.654 1.139-1.287.506-.52.879-.942 1.118-1.265.464-.689.851-1.624 1.16-2.806.563-2.151.83-4.268.802-6.349-.014-1.35-.148-2.686-.401-4.008-.534-2.32-1.491-4.127-2.869-5.421-.773-.647-1.561-1.054-2.362-1.223-.267-.056-.549-.085-.844-.085-.281 0-.569.029-.865.085-.576.112-1.026.302-1.35.569-.14.099-.323.289-.548.57-.211.239-.401.415-.57.527-.267.183-.731.422-1.392.717-.647.38-1.104 1.076-1.371 2.089-1.069 3.684-1.765 6.475-2.088 8.374-.282 1.744-.415 3.396-.401 4.957z" fill="#1a0920"/><path d="m96.9891 124.2c.1406-.816.0843-1.624-.1688-2.426-.2531-.815-.668-1.497-1.2445-2.046-.4279-.412-.9552-.749-1.5821-1.012-.1549-.141-.3237-.275-.5062-.401-.5013-.057-1.0357-.121-1.6031-.19-.4098-.037-.8387-.079-1.2868-.127-.1382-.013-.2788-.027-.4218-.042-6.4828 0-11.9391 2.482-16.3688 7.446-4.0359 4.486-6.0539 9.443-6.0539 14.871 0 2.495.3024 4.78.9071 6.856.1849.242.8669 1.142 2.046 2.7 1.174 1.572 2.953 2.985 5.3368 4.24 2.4027 1.266 4.8988 2.342 7.4882 3.227 2.3429-.55 4.3608-1.605 6.054-3.164.6376-.608 1.1509-1.219 1.5398-1.835.1457-.748.1668-1.458.0633-2.131-.0935-.736-.3607-1.495-.8016-2.278-.0922-.15-.1906-.304-.2953-.464-.4641-.703-.9492-1.174-1.4555-1.413-.3234-.155-.7382-.26-1.2445-.316-.2953-.029-.7383-.064-1.3289-.106-1.0266-.141-2.2992-.612-3.818-1.413-.8437-.422-1.5047-.809-1.9828-1.16-.675-.493-1.1742-1.041-1.4976-1.646-.3938-.731-.6047-1.75-.6329-3.058 0-1.533.204-2.855.6118-3.966.1388-.358.3005-.71.4851-1.055.6807-.914 1.5245-1.674 2.5313-2.278 2.0812-1.223 4.6898-1.751 7.8258-1.582 1.1531.071 1.9054.078 2.257.021.9-.14 1.7789-.534 2.6367-1.181 1.4203-1.097 2.257-2.454 2.5102-4.071z" fill="#a254e9"/><path d="m88.0242 116.712c-2.2078-.141-4.0781-.021-5.611.358-1.5328.366-3.3609 1.175-5.4843 2.426-4.2469 2.461-7.3828 5.006-9.4078 7.636-1.9407 2.489-3.2063 5.337-3.7969 8.543-.6188 3.206-.4852 6.314.4008 9.323.7734 2.63 2.0672 4.986 3.8812 7.067 1.8422 2.137 3.9938 3.691 6.4547 4.662.6769.261 1.359.472 2.0461.632 1.0124.234 2.039.36 3.0797.38.934.016 1.8833-.054 2.8476-.211.3764-.062.7421-.139 1.0969-.232-2.5895-.885-5.0855-1.961-7.4883-3.227-2.3838-1.255-4.1627-2.668-5.3367-4.24-1.1791-1.558-1.8611-2.458-2.0461-2.7-.6047-2.076-.907-4.361-.907-6.856 0-5.428 2.018-10.385 6.0539-14.871 4.4297-4.964 9.8859-7.446 16.3687-7.446.1431.015.2837.029.4219.042.4481.048.877.09 1.2867.127.5675.069 1.1019.133 1.6032.19-1.2994-.886-3.1205-1.421-5.4633-1.603z" fill="#9042d6"/><path d="m110.004 175.247c.471.017.97-.011 1.498-.085 1.617-.21 3.817-.815 6.602-1.814 3.009-1.082 5.196-1.757 6.56-2.025 2.855-.562 5.013-.211 6.476 1.055.9.788 1.504 1.927 1.814 3.417.197.999.274 2.363.232 4.092-.056 1.758.007 3.129.19 4.114.281 1.476.858 2.622 1.729 3.438.858.788 2.089 1.322 3.692 1.603.676.121 1.372.198 2.088.232.158-.027.313-.063.464-.105-.753-2.349-2.054-6.047-3.902-11.096-1.716-4.711-3.185-7.593-4.409-8.648-1.308-1.125-3.951-1.688-7.931-1.688-1.73 0-5.105.486-10.125 1.456-3.247.628-5.694 1.142-7.341 1.54.097.854.343 1.677.739 2.468.423.836.964 1.518 1.624 2.046z" fill="#9042d6"/><path d="m119.644 156.916c-.971.239-1.695.443-2.173.612-2.714.97-5.062 2.707-7.045 5.21-1.814 2.307-2.757 4.578-2.827 6.814-.018.402-.003.795.042 1.181 1.647-.398 4.094-.912 7.341-1.54 5.02-.97 8.395-1.456 10.125-1.456 3.98 0 6.623.563 7.931 1.688 1.224 1.055 2.693 3.937 4.409 8.648 1.848 5.049 3.149 8.747 3.902 11.096 3.16-.7 6.289-1.565 9.387-2.595 1.772-.576 3.185-1.223 4.24-1.94 1.42-.957 2.313-2.103 2.679-3.439.197-.689.253-1.624.168-2.805-.182-2.377-.836-4.106-1.961-5.189-1.139-1.097-2.672-1.646-4.599-1.646-1.181.015-2.812.31-4.893.886-.071-3.093-.289-5.561-.654-7.404-.535-2.671-1.491-4.872-2.869-6.602-.97-1.223-2.18-2.243-3.628-3.058-1.392-.788-2.89-1.322-4.493-1.604-3.038-.548-6.167-.189-9.387 1.076-.253.099-.837.345-1.751.738-.717.31-1.301.542-1.751.697-.478.154-1.209.365-2.193.632z" fill="#a054e7"/><path d="m101.144 154.364c-3.1776.661-5.5261 1.589-7.0448 2.784-1.8985 1.519-2.8477 3.678-2.8477 6.476 0 5.639 2.9672 9.717 8.9015 12.235 1.769.754 3.64 1.33 5.611 1.729 1.06.432 2.227.735 3.502.907 1.29.172 2.056.299 2.299.38.244.097 1.059.153 2.447.169.358-.015.716-.022 1.075-.021 3.742-.06 6.815-.355 9.218-.886 1.562-.339 2.68-.846 3.354-1.519.23-.231.617-.674 1.16-1.329-.432.2-.58.122-.442-.232-1.561-.337-2.827-1.371-3.797-3.101-1.265-2.251-2.024-4.691-2.278-7.319-.254-2.625.259-5.606 1.539-8.944 1.279-3.327 3.501-4.845 6.666-4.556-.843-1.014-1.961-1.57-3.354-1.667-1.117-.099-2.256-.113-3.417-.042-1.544.072-2.986.276-4.324.612-1.324.339-2.744.704-4.261 1.097-1.517.405-2.698.764-3.544 1.076-.848.311-1.825.592-2.932.843-1.11.253-3.62.689-7.531 1.308z" fill="#32143b"/><path d="m95.5969 157.845c.9485-.994 1.6587-2.098 2.1304-3.312.2492-.702.425-1.399.5274-2.088-.4563.747-1.0188 1.478-1.6875 2.193-1.9022 2.047-3.9694 3.207-6.2016 3.481-2.5668.285-4.9575-.228-7.1719-1.54-1.1764-.667-2.8006-1.82-4.8726-3.459-.0291.325-.0362.669-.0211 1.033-.0152 1.31.0762 2.266.2742 2.869.4033 1.134 1.24 2.062 2.5102 2.784.9896.521 2.2693.921 3.839 1.203 1.336.26 2.5032.344 3.5016.253.1796-.022.3484-.043.5062-.064 1.1356-.13 2.2676-.453 3.3961-.97 1.2622-.612 2.352-1.406 3.2696-2.383z" fill="#9042d6"/><path d="m95.618 144.83c-.0792-.179-.1214-.489-.1266-.928-.023-.964-.255-1.828-.6961-2.595-.4994-.815-1.1604-1.399-1.9828-1.751-.8385-.351-1.8017-.471-2.8898-.358-.6735.091-1.3837.267-2.1305.527-2.1733.718-4.0858 1.921-5.7375 3.607-1.6372 1.685-2.7201 3.549-3.2484 5.59-.2645.965-.4263 2.364-.4852 4.198 2.072 1.639 3.6962 2.792 4.8727 3.459 2.2144 1.312 4.605 1.825 7.1718 1.54 2.2322-.274 4.2994-1.434 6.2016-3.481.6687-.715 1.2312-1.446 1.6875-2.193.0431-.336.0642-.653.0633-.95.0003-.225-.0067-.429-.0211-.611-.0606-.642-.1871-1.36-.3797-2.152-.4234-1.558-.9788-2.655-1.6664-3.291-.3249-.25-.5358-.454-.6328-.611z" fill="#a254e9"/><path d="m167.484 180.731c.367-.831.549-1.654.549-2.468 0-.112 0-.225 0-.337-.054-1.038-.391-1.868-1.013-2.489-.514-.5-1.062-.747-1.645-.739-.32.005-.622.089-.907.254-.031.014-.053.028-.063.042-.155-.124-.317-.236-.485-.338-.33-.178-.619-.262-.865-.253-.155.004-.295.039-.422.106-.333.157-.579.487-.738.991-.117.643-.236 1.1-.359 1.371-.194.454-.608.932-1.245 1.434-1.619 1.322-3.602 2.447-5.948 3.375-1.668.667-3.862 1.349-6.581 2.047-1.224.331-2.912.753-5.063 1.265-.674.16-1.285.287-1.835.38-.352-.124-.724-.264-1.118-.422-.56-.224-.953-.202-1.181.063-.118.15-.161.347-.127.591-.31.018-.472.025-.485.021-.526.063-.947.217-1.266.464-.401.279-.64.687-.717 1.224-.143.074-.263.173-.358.295-.21.252-.315.555-.317.907.002.35.093.66.275.928.05.093.106.177.168.253.01.024.017.045.021.063.127.479.401.893.823 1.245.394.323.851.548 1.371.675.45.098.956.141 1.519.126.38-.014.886-.07 1.519-.168 3.74-.535 6.883-1.076 9.429-1.624 3.389-.718 6.44-1.575 9.154-2.574 2.574-.942 4.479-2.025 5.717-3.248.73-.719 1.18-1.239 1.35-1.561.416-.908.697-1.541.843-1.899z" fill="#f4d7f9"/><path d="m151.812 168.645c-.253-.225-.584-.69-.992-1.393-.548-.886-1.202-1.687-1.961-2.404-.633-.577-1.203-.95-1.709-1.118-.759-.267-1.828-.211-3.206.168-1.505.436-2.672 1.013-3.502 1.73-.45.366-.745.752-.886 1.16-.267.647-.211 1.463.169 2.447.215.578.468.972.759 1.181.116.23.249.462.401.697.179.278.369.531.57.759.259.241.604.508 1.033.801l1.076.549c.201.155.384.274.548.358-.015.119.007.239.064.359.158.737.65 1.342 1.476 1.814.512.285 1.271.545 2.278.781.649.145 1.219.208 1.709.189.202-.005.455-.027.759-.063.383-.063.833-.147 1.35-.253.163-.041.311-.083.443-.127.188.002.378-.005.57-.021 1.167-.098 2.074-.386 2.721-.864.422-.31.724-.661.907-1.055.197-.467.261-.938.19-1.413.197-.31.281-.668.253-1.076-.028-.394-.162-.746-.401-1.055-.199-.266-.621-.576-1.265-.928-.475-.086-1.044-.185-1.709-.295-.152-.036-.306-.078-.464-.127-.125-.091-.3-.203-.527-.337-.296-.183-.514-.338-.654-.464z" fill="#480063"/><path d="m167.421 175.901c-.011-.986-.159-1.731-.443-2.236-.435-1.147-1.399-1.906-2.89-2.278-1.17-.121-2.337-.29-3.501-.507-1.742-.301-3.472-.708-5.189-1.223-.787-.251-1.469-.497-2.046-.738-.363-.085-.743-.184-1.14-.296-.379-.098-.632-.14-.759-.126-.323.028-.527.162-.612.401-.042.102.155.277.591.527-.101-.022.04.027.422.148.717.239 1.364.414 1.94.527.732.112 1.231.26 1.498.443.239.169.422.401.549.696.126.295.161.598.105.907-.063.353-.203.648-.422.886v.021c-.059.092-.108.17-.147.232-.459.37-.79.567-.992.591-.703.084-1.779.07-3.227-.042-.971-.071-1.765-.176-2.384-.317-1.069-.225-2.405-.745-4.008-1.561-.961-.51-1.783-1.009-2.468-1.497-.2-.078-.389-.141-.569-.19-1.252-.31-2.7-.155-4.345.464-.465.183-1.14.485-2.025.907-.9.422-1.582.717-2.047.886-.21.098-.541.232-.991.401-.31.138-.571.285-.78.443.027.999.125 2.243.295 3.733.281 2.517.555 4.423.823 5.717.45 2.095 1.075 3.895 1.877 5.4.031.058.059.114.084.168.485.197.978.296 1.477.296.351 0 1.666-.472 3.944-1.414 2.264-.956 4.043-1.434 5.337-1.434.578.001 1.366.092 2.363.274 1.008.195 2.737.314 5.189.359 2.465.043 5.06-.541 7.783-1.751 2.741-1.193 4.787-3.106 6.139-5.738.46-1.108.65-2.135.569-3.079z" fill="#550374"/><path d="m150.293 167.97c.267-.018.534.024.802.126.098.028.175.049.232.063-.043.015-.078.029-.106.043-.098-.013-.162.001-.19.042-.267.038-.534.144-.801.316-2.096.872-3.748 2.25-4.957 4.135-.239.225-.345.443-.317.653-.056.016-.063.051-.021.106-.028.015-.028.036 0 .063-.028.001-.028.008 0 .021-.014.044.021.114.106.211.014 0 .028.021.042.063v.022l.042.021c.141.135.323.226.548.274.043 0 .099.007.169.021.07-.031.162-.059.274-.084.014-.007.05-.014.106-.021.042-.011.098-.018.169-.022.182-.117.323-.258.421-.421.029-.274.064-.471.106-.591.042-.166.183-.37.422-.612.956-1.246 2.215-2.209 3.776-2.89.309-.149.569-.24.78-.274.295-.135.668-.177 1.118-.126.155.002.274.002.359 0-.324.092-.612.233-.865.421-.366.195-.682.42-.949.675-1.013.856-1.878 1.995-2.595 3.418-.197.418-.281.755-.253 1.012 0 .164.077.326.232.485.141.142.309.233.506.275.042.007.092.007.148 0 .126-.028.26-.071.401-.127.154-.11.281-.251.379-.422.071-.141.134-.38.19-.717.042-.213.148-.452.317-.717.618-1.111 1.483-2.046 2.594-2.806.267-.197.52-.345.759-.443.324-.102.528-.179.612-.232.253-.127.38-.288.38-.485 0-.268-.134-.451-.401-.548-.141-.059-.366-.066-.675-.021-.169.028-.33.07-.485.126.042-.039.084-.074.127-.105.042-.113.091-.204.147-.275-.07-.054-.084-.089-.042-.105-.084-.238-.246-.379-.485-.422-.155-.071-.345-.106-.57-.105-.056.007-.098.014-.126.021-.113-.003-.204-.003-.274 0-.043-.01-.071-.01-.085 0-.056-.008-.119-.001-.19.021-.056-.034-.084-.027-.084.021-.239-.027-.422-.005-.549.063h-.021c.029-.021.064-.042.106-.063.07-.082.119-.166.148-.253-.029-.167-.099-.3-.211-.401-.085-.075-.218-.125-.401-.148-.31-.104-.57-.153-.781-.147-.084-.024-.154-.039-.211-.043-.056-.006-.105-.006-.147 0-.211.014-.422.043-.633.085-1.997.282-4.191 1.259-6.581 2.932-.436.257-.753.51-.95.759-.112.167-.168.329-.168.485-.028.044-.021.086.021.127-.042.001-.056.008-.042.021l.021.021c-.028.001-.035.008-.021.021l.042.042c.07.179.232.327.485.443.155.026.344.019.569-.021.029.005.099-.002.211-.021.043-.027.099-.042.169-.042.324-.138.605-.307.844-.506.211-.307.38-.518.506-.633.127-.217.401-.449.823-.696 1.49-1.052 2.96-1.727 4.408-2.025.239-.061.429-.09.57-.084z" fill="#f4d7f9"/><path d="m120.319 14.2805c-2.25 2.8265-4.634 6.4757-7.151 10.9476-2.503 4.486-5.302 13.1203-8.395 25.9031-3.122 12.7688-.246 28.1954 8.627 46.2797l39.108-14.3226c7.34-3.4453 9.619-12.4875 6.834-27.1266-2.756-14.6672-5.21-24.3422-7.362-29.025-2.179-4.6406-4.268-8.4656-6.264-11.475-2.419-3.6562-4.817-6.24374-7.193-7.76249-.38-.23906-.746-.45702-1.097-.6539-1.308-.63281-2.63-.97735-3.966-1.0336-1.715-.09844-3.466.30235-5.252 1.20235-2.517 1.32187-5.147 3.67734-7.889 7.06644z" fill="#965cca"/><path d="m76.8234 18.8578c-1.3219.6891-2.3906 1.6313-3.2062 2.8266-.8578 1.2656-1.2586 2.5804-1.2024 3.9445-2.6297.5203-5.0765 1.5539-7.3406 3.1008-2.2781 1.5609-4.1344 3.4664-5.5688 5.7164-1.2234 1.9265-1.8632 3.7195-1.9195 5.3789-.0422.9984.1266 1.9476.5063 2.8476.3937.9422.9703 1.6876 1.7296 2.236.6469.45 1.4625.7664 2.4469.9492.0604.0118.1237.0188.1899.0211-2.5674 2.3269-4.8245 4.8511-6.7711 7.5727-.225.2953-.436.6046-.6328.9281-.9563 1.4062-1.8352 2.8687-2.6368 4.3875-.1125.1265-.1898.2812-.232.464-.0703.0844-.1266.1688-.1687.2532-.7172 1.364-1.4555 2.9672-2.2149 4.8093-.2944 2.2293-.4772 4.3949-.5484 6.4969-.0836 2.3899-.0273 4.6961.1687 6.9188 1.1122 12.4864 6.6388 22.5696 16.5797 30.2486 13.0607 8.615 28.4099 12.918 46.0477 12.909 8.388.007 17.289-.963 26.705-2.911 5.998-1.234 12.207-2.866 18.625-4.894 1.674-1.167 3.228-2.425 4.662-3.775 8.213-7.777 12.066-16.8683 11.56-27.2745-.704-15.9047-5.632-28.5469-14.787-37.9266-3.527-3.6029-8.393-6.7811-14.597-9.5343-.133-.7157-.372-1.4258-.717-2.1305.45-.4429.675-.9702.675-1.582 0-.4922-.155-1.0055-.464-1.5399-.197-.3656-.528-.8156-.992-1.35-6.398-7.5797-13.401-13.2117-21.009-16.8961-2.588-1.25154-4.95-2.08123-7.088-2.48905-1.982-.35156-3.684-.2953-5.104.16876-.858.28125-1.449.71015-1.772 1.28669-.155.3235-.246.8578-.274 1.6031-1.591-.2863-3.18-.4972-4.768-.6328-1.448-.1125-2.671-.1195-3.6699-.0211-1.3359.1407-2.4961.4711-3.4804.9915-1.111.6187-1.9407 1.5046-2.4891 2.6578-.5766 1.2375-.6328 2.3976-.1688 3.4804-2.5453-.464-5.1328-.7172-7.7625-.7593-3.5296-.0563-6.3.45-8.3109 1.5187z" fill="#a868e2"/><path d="m46.6593 73.3008c-.1406.5625-.2461 1.1461-.3164 1.7508-.1968.9-.3164 1.8-.3585 2.7v.232c-.0141.0422-.0141.0914 0 .1477-.2954 5.85.9632 11.8406 3.7757 17.9718.3516.7735.7172 1.5328 1.0969 2.2781.1406.2532.2883.5204.443.8016.0703.1125.5484.8442 1.4344 2.1942.8718 1.35 2.5804 3.522 5.1257 6.518.1828.154.3586.323.5274.506.0844.07.1617.14.232.211l1.6875 1.561c.5766.506 1.1672.998 1.7719 1.476.014 0 .0351.021.0633.064.014.014.0351.028.0632.042 5.4985 4.275 12.3399 7.319 20.5243 9.133 8.1703 1.772 15.0679 2.623 20.6933 2.553.197-.014.393-.021.59-.021h.317c2.66.132 5.241.202 7.741.21 3.901.027 7.613-.093 11.138-.358 1.096-.085 2.186-.183 3.269-.295 2.447-.268 4.809-.584 7.088-.95.773-.154 1.546-.309 2.32-.464.323-.056.661-.119 1.012-.19.183-.042.366-.084.549-.126.661-.155 1.308-.302 1.94-.443 7.046-1.758 13.043-4.338 17.993-7.742-6.418 2.028-12.627 3.66-18.625 4.894-9.416 1.948-18.317 2.918-26.705 2.911-17.6377.009-32.987-4.294-46.0477-12.909-9.9409-7.679-15.4675-17.7622-16.5797-30.2486-.196-2.2227-.2523-4.5289-.1687-6.9188.0712-2.102.254-4.2676.5484-6.4969-1.35 3.2907-2.1656 5.4211-2.4469 6.3915-.1265.3656-.246.7593-.3585 1.1812-.1407.4641-.2532.9422-.3376 1.4344z" fill="#9453cf"/><path d="m65.939 18.9c-4.2047-1.0688-7.7343-1.3641-10.589-.8859-1.9547.3375-3.586 1.0546-4.8938 2.1515-1.0266.8578-1.8562 1.9336-2.489 3.2274-.1969.3937-.3727.7804-.5274 1.1601-.9844 2.686-1.357 6.2016-1.118 10.5469.211 3.6141.8579 7.9312 1.9407 12.9516.5698 2.6418 1.9057 6.4387 4.0078 11.3906l46.7859-21.7055c-9.3994-7.6373-16.3392-12.4256-20.8195-14.3648-4.711-2.0953-8.8102-3.586-12.2977-4.4719z" fill="#b473ef"/><path d="m79.207 138.122c-.1032-.128-.1736-.212-.2109-.253-.2638-.273-.524-.519-.7805-.739-3.0491-.5-5.7139-.205-7.9945.886-1.125.535-2.2922 1.357-3.5016 2.468-.5625.535-.9633.964-1.2023 1.287-.3797.492-.7313 1.118-1.0547 1.877-.0141.043-.2672.718-.7594 2.025-.0361.095-.0713.187-.1054.275 1.0821 2.619 2.8188 5.045 5.2101 7.277 2.3916 2.249 4.5573 3.613 6.4969 4.092 1.9514.477 2.9568.512 3.0164.106-.1547-.266-.232-.744-.232-1.435 0-.661.1125-1.624.3375-2.89.0984-.661.2109-1.251.3375-1.771.3234-1.252.9703-2.707 1.9406-4.367.9099-1.58 1.7888-2.818 2.6367-3.712-.3129-.275-.6223-.591-.9281-.95-.4641-.52-1.0196-1.23-1.6664-2.13-.7457-1.007-1.259-1.689-1.5399-2.046z" fill="#32143b"/><path d="m97.2844 52.8609c-2.1657-.014-4.5914.1829-7.2774.5907-6.3844.914-11.6086 2.5101-15.6726 4.7882-2.4891 1.4204-4.6055 3.1008-6.3493 5.0415-1.9125 2.0953-3.2203 4.3382-3.9234 6.7289-.4922 1.6172-.7594 3.5437-.8016 5.7796-.0843 3.0797.225 5.9836.9282 8.7118.7593 2.9812 1.9617 5.639 3.607 7.9734 1.5328 2.1516 3.2484 3.6773 5.1469 4.5773 1.2797.5766 2.7843.9422 4.514 1.0969.5344.0422 1.1391.0703 1.8141.0844.8719 0 1.8563-.0281 2.9531-.0844 9.6469-.5203 18.3166-2.1937 26.0086-5.0203 1.997-.7172 3.642-1.4414 4.936-2.1726 1.673-.9844 3.023-2.0813 4.05-3.2907 1.828-2.25 2.742-5.0554 2.742-8.4164-.028-2.2922-.605-5.175-1.73-8.6484-1.153-3.6422-2.482-6.6094-3.986-8.9016-1.983-3.0656-4.395-5.3156-7.235-6.75-2.321-1.1812-5.063-1.8562-8.227-2.025-.4922-.0422-.9914-.0633-1.4976-.0633zm-4.3875 6.1805c3.4593-.4922 6.5953-.457 9.4081.1055 2.643.5062 4.682 1.4484 6.117 2.8265.703.661 1.35 1.5258 1.94 2.5946.352.6328.809 1.6101 1.372 2.932.97 2.3625 1.659 4.1414 2.067 5.3367.675 2.025 1.097 3.8883 1.265 5.5899.127 1.4343.05 2.6086-.232 3.5226-.576 1.786-1.982 3.3961-4.218 4.8305-1.407.8859-3.052 1.6523-4.936 2.2992-1.35.4641-3.101.9633-5.253 1.4977-3.2622.7734-6.4614 1.4554-9.5973 2.0461-1.7719.2953-3.2063.4992-4.3031.6117-1.5891.1406-3.0305.1617-4.3243.0633-1.5187-.1407-2.9109-.4782-4.1765-1.0125-1.3922-.5907-2.5172-1.3711-3.375-2.3414-1.125-1.2938-2.0039-3.2485-2.6368-5.8641-.6609-2.6578-1.1109-5.2945-1.3499-7.9102-.1407-1.4062-.1758-2.5804-.1055-3.5226.0844-1.3078.3515-2.4469.8015-3.4172.9-2.0672 2.6016-3.8109 5.1047-5.2313.9844-.5765 2.1305-1.1039 3.4383-1.582.8719-.3234 2.0813-.7172 3.6281-1.1812 3.6844-1.0969 6.8063-1.8282 9.3657-2.1938z" fill="#190f1c"/><path d="m102.305 59.1469c-2.8128-.5625-5.9488-.5977-9.4081-.1055-2.5594.3656-5.6813 1.0969-9.3657 2.1938-1.5468.464-2.7562.8578-3.6281 1.1812-1.3078.4781-2.4539 1.0055-3.4383 1.582-2.5031 1.4204-4.2046 3.1641-5.1046 5.2313-.45.9703-.7172 2.1094-.8016 3.4172-.0703.9422-.0352 2.1164.1055 3.5226.239 2.6157.689 5.2524 1.35 7.9102.6328 2.6156 1.5117 4.5703 2.6367 5.8641.8578.9703 1.9828 1.7507 3.375 2.3414 1.2656.5343 2.6578.8718 4.1765 1.0125 1.2938.0984 2.7352.0773 4.3243-.0633 1.0968-.1125 2.5312-.3164 4.3031-.6117 3.1359-.5907 6.3351-1.2727 9.5973-2.0461 2.152-.5344 3.903-1.0336 5.253-1.4977 1.884-.6469 3.529-1.4133 4.936-2.2992 2.236-1.4344 3.642-3.0445 4.218-4.8305.282-.914.359-2.0883.232-3.5226-.168-1.7016-.59-3.5649-1.265-5.5899-.408-1.1953-1.097-2.9742-2.067-5.3367-.563-1.3219-1.02-2.2992-1.372-2.932-.59-1.0688-1.237-1.9336-1.94-2.5946-1.435-1.3781-3.474-2.3203-6.117-2.8265z" fill="#fff"/><path d="m163.856 48.3258c-2.348-1.2308-4.872-2.0746-7.572-2.5313-1.646-.2828-3.333-.4094-5.063-.3797-.056 0-.105 0-.148 0-.351-.0001-.668.0139-.949.0422-.534-.0145-1.033.0206-1.497.1055-2.475.1414-5.063.5563-7.763 1.2445-2.391.5472-4.472 1.2221-6.244 2.025-.436.165-.829.3548-1.181.5696-2.545 1.2343-4.507 2.7882-5.885 4.6617-1.758 2.2019-2.841 5.0074-3.249 8.4164-.154 1.008-.232 2.1119-.232 3.3117v.5274c-.014.1932-.007.3901.022.5906-.029.0841-.029.1896 0 .3164-.015.4532 0 .9383.042 1.4554.042.931.126 1.9224.253 2.9743.351 3.3532.942 6.0462 1.772 8.0789 1.167 2.9109 2.861 5.0976 5.083 6.5601 1.196.7787 2.63 1.3763 4.303 1.793 1.266.2784 2.841.4823 4.725.6117.914.0139 1.892.049 2.932.1055.366-.0142.76-.0142 1.182 0 6.033-.0866 12.487-1.0358 19.364-2.8477.984-.2602 1.877-.5204 2.679-.7804.576-.2219 1.097-.4117 1.561-.5696 1.462-.681 2.679-1.4615 3.649-2.3414 1.378-1.4469 2.397-3.4157 3.058-5.9062.324-1.4871.542-2.9778.654-4.4719-.028-.3095-.021-.6049.021-.8859-.028-.6401-.049-1.2589-.063-1.8563-.084-.5383-.155-1.0375-.211-1.4976-.337-2.9215-1.111-5.8465-2.32-8.7751-.886-2.1553-1.849-3.9271-2.89-5.3156-1.547-2.1165-3.558-3.8603-6.033-5.2312zm-9.049 3.0164c1.322.0094 2.524.129 3.607.3586 2.756.4686 4.936 1.5444 6.539 3.2273.731.7464 1.385 1.7448 1.962 2.9953.365.8798.745 2.0259 1.139 3.4383.717 2.5476 1.28 5.2195 1.687 8.0156.324 2.6419.225 4.7583-.295 6.3493-.436 1.1503-1.16 2.2191-2.173 3.2062-.928.8449-2.032 1.5691-3.311 2.1727-1.111.4467-2.356.8616-3.734 1.2445-.492.0558-1.026.1542-1.603.2953-.703.1018-1.484.2144-2.341.3375-2.897.3592-5.808.6545-8.733.8859-1.983.1093-3.586.1796-4.81.211-1.786-.1007-3.382-.3398-4.788-.7172-2.292-.6468-3.973-1.6733-5.041-3.0797-.577-.7676-1.062-1.7801-1.456-3.0375-.478-1.5979-.801-3.3768-.97-5.3367-.141-1.2072-.239-3.0002-.295-5.3789-.043-1.3817-.029-2.4082.042-3.0797.014-1.1726.211-2.157.59-2.9531.633-1.7318 1.941-3.2506 3.924-4.5563 1.898-1.378 4.226-2.4116 6.982-3.1008.211-.0918.443-.1481.696-.1687 2.278-.5324 5.217-.9121 8.817-1.1391 1.477-.1592 2.665-.2224 3.565-.1898z" fill="#190f1c"/><path d="m158.414 51.7008c-1.083-.2296-2.285-.3492-3.607-.3586-.9-.0326-2.088.0306-3.565.1898-3.6.227-6.539.6067-8.817 1.1391-.253.0206-.485.0769-.696.1687-2.756.6892-5.084 1.7228-6.982 3.1008-1.983 1.3057-3.291 2.8245-3.924 4.5563-.379.7961-.576 1.7805-.59 2.9531-.071.6715-.085 1.698-.042 3.0797.056 2.3787.154 4.1717.295 5.3789.169 1.9599.492 3.7388.97 5.3367.394 1.2574.879 2.2699 1.456 3.0375 1.068 1.4064 2.749 2.4329 5.041 3.0797 1.406.3774 3.002.6165 4.788.7172 1.224-.0314 2.827-.1017 4.81-.211 2.925-.2314 5.836-.5267 8.733-.8859.857-.1231 1.638-.2357 2.341-.3375.577-.1411 1.111-.2395 1.603-.2953 1.378-.3829 2.623-.7978 3.734-1.2445 1.279-.6036 2.383-1.3278 3.311-2.1727 1.013-.9871 1.737-2.0559 2.173-3.2062.52-1.591.619-3.7074.295-6.3493-.407-2.7961-.97-5.468-1.687-8.0156-.394-1.4124-.774-2.5585-1.139-3.4383-.577-1.2505-1.231-2.2489-1.962-2.9953-1.603-1.6829-3.783-2.7587-6.539-3.2273z" fill="#fff"/><g fill="#190f1c"><path d="m125.086 75.6844c.941-.3544 1.595-.7341 1.962-1.1391.35-.3928.526-.8358.527-1.3289 0-.0703 0-.1336 0-.1898-.049-.5457-.323-1.0028-.823-1.3711-.302-.2098-.675-.3574-1.118-.443-.243-.0468-.622-.0609-1.139-.0422-1.783.1174-4.033.6236-6.75 1.5188-.866.2831-1.478.5995-1.835.9492-.308.3216-.47.7013-.485 1.139-.017.0428-.017.085 0 .1266-.015.3811.111.7257.38 1.0336.165.2402.46.4933.886.7594.391.2396.792.4013 1.202.4851.271.0472.581.0612.928.0422.469-.0111 1.017-.0885 1.645-.232 1.323-.2616 2.498-.5639 3.523-.907z"/><path d="m102.22 70.3477c-1.856.0984-3.4099.8367-4.6614 2.2148-1.2516 1.3781-1.8282 2.9953-1.7297 4.8516.0984 1.8703.8437 3.4242 2.2359 4.6617 1.3781 1.2656 2.9952 1.8492 4.8512 1.7508 1.857-.0985 3.411-.8438 4.662-2.236 1.252-1.3781 1.828-3.0023 1.73-4.8726-.099-1.8563-.844-3.4032-2.236-4.6407-1.378-1.2515-2.995-1.8281-4.852-1.7296z"/><path d="m136.877 67.1836c-1.251 1.3781-1.828 2.9953-1.729 4.8515.098 1.8704.843 3.4243 2.236 4.6618 1.378 1.2656 2.995 1.8492 4.851 1.7508 1.856-.0985 3.41-.8438 4.662-2.236 1.251-1.3781 1.828-3.0023 1.73-4.8726-.099-1.8563-.844-3.4032-2.236-4.6407-1.379-1.2515-2.996-1.8281-4.852-1.7297-1.856.0985-3.41.8368-4.662 2.2149z"/></g><g fill="#2e1346"><path d="m124.284 114.138c1.449-1.476 3.446-4.282 5.991-8.416-.984-.239-2.356-.886-4.113-1.941-1.589-.956-2.574-1.434-2.953-1.434-.296 0-1.646.633-4.05 1.898-2.715 1.266-4.986 1.899-6.814 1.899-.787 0-1.743-.148-2.868-.443-.415-.112-.815-.231-1.203-.359-.767.701-1.351 1.693-1.751 2.974-.337 1.097-.506 2.271-.506 3.523 0 1.856.844 3.333 2.531 4.43 1.533.984 3.432 1.476 5.696 1.476 4.331 0 7.678-1.202 10.04-3.607z"/><path d="m124.116 93.4031c.018-.9439-.003-1.4994-.064-1.6664-.292-.7579-.594-1.1306-.907-1.118-.322-.0141-.659.4007-1.012 1.2446-.15.1734-.248.5109-.295 1.0125l-.612 7.8892c-.222.287-.426.54-.612.759-1.762 1.926-4.04 3.107-6.834 3.544-1.097.169-2.504.042-4.219-.38-1.685-.424-3.098-1.823-4.24-4.197-.409.428-.648.92-.717 1.476-.049.304-.042.627.021.97.152.973.665 1.838 1.54 2.595.904.772 1.937 1.355 3.101 1.751 1.223.367 2.426.55 3.607.548.252 0 .505-.007.759-.021 2.953-.189 5.821-1.503 8.606-3.944 2.958 1.985 5.672 2.885 8.142 2.7 2.444-.188 3.928-.476 4.451-.865 1.221-.551 2.219-1.359 2.996-2.426.776-1.063 1.226-1.949 1.35-2.658.125-.7129-.016-1.4864-.422-2.3201-1.415 2.7611-2.983 4.4691-4.704 5.1261-1.209.431-2.376.635-3.502.611-2.739-.096-4.876-1.003-6.412-2.721-.163-.198-.325-.43-.485-.696z"/><path d="m123.715 96.4828c3.304-.3094 5.344-2.1234 6.117-5.4422-.506-.6328-1.132-1.1461-1.877-1.5398-1.378-.7172-3.031-1.0125-4.957-.886-1.927.1266-3.516.6329-4.768 1.5188-.492.3375-.871.6891-1.139 1.0547.703 3.0937 2.911 4.8586 6.624 5.2945z"/></g><path d="m38.7492 70.875c-.8856-.2706-2.0668-.4534-3.5438-.5484-.7734-.0563-2.3906-.0844-4.8515-.0844-7.0313 0-10.5469 2.25-10.5469 6.75 0 1.2094.7031 2.0531 2.1094 2.5312.8297.2813 1.8844.4219 3.164.4219 2.8547 0 5.9063-1.4625 9.1547-4.3875 1.0407-.9422 2.2641-2.1937 3.6703-3.7547.3022-.3318.5834-.6412.8438-.9281zm-7.7625-18.5625c-3.8531-1.8281-7.1578-2.7422-9.9141-2.7422-1.8422 0-3.2484.4149-4.2187 1.2445-1.125.9704-1.6875 2.5243-1.6875 4.6618 0 2.039.8367 3.4453 2.5101 4.2187 1.2375.5625 3.2133.8438 5.9274.8438 1.6875 0 4.6265-.5274 8.8172-1.5821 2.69-.675 5.0455-1.0336 7.0664-1.0757-2.3403-2.1305-5.1739-3.9868-8.5008-5.5688zm10.7789-6.7711c-.1944-2.1194-1.7484-4.6718-4.6617-7.657-1.4625-1.4766-2.9461-2.686-4.4508-3.6281-1.6031-.9985-2.932-1.4977-3.9867-1.4977-1.3078 0-2.4399.5625-3.3961 1.6875-.8297.9844-1.2445 1.9687-1.2445 2.9531 0 1.8281.8086 3.2133 2.4257 4.1555 1.1672.689 3.0375 1.2445 5.611 1.6664 4.0078.6469 6.1172.9914 6.3281 1.0336 1.3965.3337 2.5215.7627 3.375 1.2867z" fill="#61d4d0"/><path d="m119.306 24.3422c-1.462.0202-2.967.0835-4.514.1898-11.095.6962-21.628 2.9532-31.5983 6.7711-9.5062 3.6119-18.1968 8.5197-26.0718 14.7235-1.4485 1.1025-2.5946 2.0939-3.4383 2.9742-1.1813 1.2248-2.1024 2.4974-2.7633 3.8179-.7453 1.4484-1.3078 3.2273-1.6875 5.3368-.2531 1.3328-.4852 3.2874-.6961 5.864-.0281.1549-.0422.3237-.0422.5063 0 .4511.0633.88.1899 1.2867.1546.529.4007.8103.7382.8437h.1688c.3094-.0745.5836-.3979.8226-.9703 1.4766-1.2171 3.1008-2.3773 4.8727-3.4804 2.4609-1.5665 5.7445-3.3454 9.8508-5.3368 3.4875-1.6956 6.9187-3.1792 10.2937-4.4507 3.4032-1.3036 7.0313-2.4146 10.8844-3.3329 3.8953-.9436 7.7133-1.8085 11.4539-2.5945 3.7965-.8455 9.1755-1.612 16.1365-2.2992 7.228-.7347 14.274-1.0441 21.136-.9281 7.13.1122 12.945.4919 17.445 1.139 2.067.1026 3.424.1167 4.071.0422 2.629-.3117 3.832-1.2469 3.607-2.8054-.211-1.584-1.828-3.7567-4.852-6.518-1.42-1.1194-2.918-2.1671-4.493-3.143-3.754-2.301-7.79-4.0799-12.108-5.3367-3.796-1.1228-7.846-1.8329-12.15-2.1305-2.292-.1676-4.71-.2239-7.256-.1687z" fill="#32143b"/></svg>