<svg fill="none" height="216" viewBox="0 0 216 216" width="216" xmlns="http://www.w3.org/2000/svg"><path d="m64.4231 200.259c-1.4974 1.158-2.3029 2.389-2.4166 3.692-.0781.701.0526 1.4.395 2.096.2955.646.7245 1.205 1.2885 1.679.7757.638 1.9861 1.219 3.6312 1.743 7.6346 2.428 16.4029 3.936 26.3049 4.527 6.0406.369 14.9719.416 26.7959.139 6.737-.143 11.837-.409 15.298-.799 5.633-.642 10.575-1.815 14.826-3.519 1.745-.696 3.143-1.561 4.191-2.596 1.33-1.289 1.975-2.727 1.934-4.31-.037-1.35-.59-2.593-1.66-3.726-.871-.937-2.002-1.735-3.394-2.397-2.011-.968-4.117-1.609-6.313-1.924-1.039-.151-2.225-.239-3.562-.267-.66-.023-1.854-.029-3.58-.017-6.513.072-16.309-.019-29.387-.273-11.6641-.061-21.4382.324-29.32 1.153-3.2362.354-5.8559.804-7.859 1.354-2.8399.779-5.2295 1.928-7.1715 3.445z" fill="#c9caca"/><path d="m88.489 204.621c-.3679.308-.6265.757-.8638 1.218-.1875.365-.3636.785-.3466 1.295.01.297.3438.594.5512.504.1719-.075.3325-.169.4617-.305.1762-.186.2913-.446.4546-.649.1634-.203.3921-.349.7033-.275.1562.037.3253.129.483.17.2316.06.4248.009.6123-.043.1676-.045.3452-.102.3935-.295.0441-.172-.0241-.416-.1108-.647-.2074-.553-.6365-1.207-1.0797-1.338 0 0-.8907.058-1.2587.368z" fill="#7f4f21"/><path d="m87.3269 201.749c-.4163.239-.7515.634-1.0669 1.046-.2501.325-.4987.708-.5725 1.212-.0427.294.2315.645.4517.594.1833-.043.3566-.108.5086-.219.2074-.152.3666-.387.564-.558.1975-.17.449-.274.7416-.146.1478.065.2969.184.4447.253.2173.1.4162.083.6109.066.1733-.015.358-.039.4404-.22.0738-.16.0511-.414.0056-.657-.1065-.581-.4105-1.302-.8239-1.508 0 0-.8879-.101-1.3042.137z" fill="#7f4f21"/><path d="m86.6691 198.844c-.4034.261-.7146.673-1.0072 1.104-.2316.337-.4589.734-.5044 1.242-.027.295.2586.569.4845.568.2088 0 .3509-.126.4958-.247.1989-.163.3438-.408.5313-.588.1875-.182.4333-.3.7317-.187.1506.056.3068.167.4588.228.2217.088.4205.061.6138.033.1719-.026.3551-.06.4276-.244.0653-.165.027-.416-.0299-.658-.1378-.573-.483-1.276-.9063-1.46 0 0-.8922-.052-1.2943.209z" fill="#7f4f21"/><path d="m101.955 170.978c-1.554 1.005-4.0968 3.814-4.8711 5.494-.6393 1.387-1.3951 4.226-1.4377 6.381-.0156.774.0256 1.535.1094 2.274.0412.369.0938.732.1549 1.09.0625 1.26.733 2.5 1.0313 3.911.2032.541.4149 1.096.5413 1.606.1265.51.1634.976.0171 1.338-.1464.362-.4745.619-1.084.713-.5157.037-1.0484.086-1.5897.154-.5413.067-1.0896.152-1.6366.26-3.2206.385-6.6757 1.924-7.3206 5.523-.3382 2.161 2.4861 1.2 3.7249.859.4973-.159.9803-.34 1.4036-.514.8467-.35 1.4534-.675 1.4477-.764-.4205-.203-.8524-.279-1.2857-.26-1.7716.473-3.7349 1.11-4.6228 3.029-.1677.497-.1691 1.045.0696 1.639.5398 1.34 4.6256-.837 6.3844.024 1.675.818 4.6342.776 6.4143.226 2.7117-.84 5.4797-1.446 8.4867-2.801 2.887-1.546.596-5.815-.693-10.725-.119-.455-.27-.986-.43-1.565-.761-2.735-1.755-6.558-.81-8.564 1.149-2.44 3.969-4.897 6.521-3.989.352.125.73.172 1.105.156 7.264-.304 2.385-14.561-11.624-5.494z" fill="#f5a200"/><path d="m100.14 203.363c-2.6 1.339-6.5722 2.745-9.3538 3.501-.6095.167-1.236.326-1.8426.276-.6066-.051-1.199-.354-1.405-.896-.1989-.527-.0015-1.157.2869-1.697 1.0286-1.923 3.1979-3.211 5.336-3.468s7.4785-2.537 9.1265-1.393c.243.169-1.857 2.492-1.813 2.789s-.335.889-.335.889z" fill="#f5a200"/><path d="m87.2402 201.122c.7899-.476 1.4036-1.278 2.1523-1.83.7487-.553 1.6323-.894 2.3299-1.472.1903-.157-.0199-.423-.2231-.382-.922.188-1.8184.906-2.5429 1.479-.7246.572-1.5599 1.222-1.8895 2.071-.0384.1.0909.184.1747.134z" fill="#f28f00"/><path d="m88.2475 204.219c.6847-.244 1.2771-.746 1.9448-1.048.7715-.348 1.6224-.462 2.3867-.804.2004-.089.0839-.38-.1051-.387-.8254-.029-1.7019.357-2.4378.701-.6706.314-1.5088.726-1.9094 1.377-.0469.077.0313.191.1222.158z" fill="#f28f00"/><path d="m142.386 196.798c-.049-.413-.588-1.39-.776-1.761-.258-.508-1.445-1.637-1.851-2.039-.989-.978-1.608-2.259-2.209-3.513-.219-.456-.436-.91-.655-1.366-2.168-4.529-4.336-9.056-6.504-13.584-.27-.565-.677-1.03-1.085-1.506-.534-.623-1.047-1.137-2.202-1.459-1.75-.489-2.688-.005-4.315.805-3.52 1.752-2.151 4.78-2.151 4.78 2.362 5.059 4.723 10.12 7.084 15.18.059.129.121.261.179.395.376.863.672 1.807.318 2.656-.287.691-.939 1.145-1.53 1.601-1.09.839-2.098 1.83-2.715 3.06-.616 1.23-.798 2.726-.244 3.986.565 1.284 1.814 2.16 3.139 2.62 2.313.801 4.994.451 7.026-.915 1.012-.681 1.876-1.6 2.991-2.097.567-.253 1.184-.389 1.741-.663 1.267-.625 3.212-1.771 3.563-3.138.351-1.368.359-1.636.196-3.039z" fill="#f5a200"/><path d="m122.856 205.386c.725-.385 1.085.05 1.188.695-.209.129-.398.292-.557.48-.105.123-.199.261-.33.358-.13.096-.311.147-.457.073-.125-.062-.196-.203-.212-.342s.014-.278.044-.415" fill="#7f4f21"/><path d="m125.152 207.992c.358-.738.906-.601 1.369-.141-.092.229-.149.47-.166.716-.011.162-.007.328-.055.483-.049.155-.165.302-.326.329-.137.023-.278-.048-.372-.15s-.153-.233-.209-.361" fill="#7f4f21"/><path d="m128.466 208.321c.564-.596 1.044-.299 1.348.28-.156.189-.284.403-.375.632-.059.151-.105.311-.198.445-.094.133-.249.238-.41.215-.137-.02-.25-.129-.309-.257-.06-.127-.076-.268-.091-.407" fill="#7f4f21"/><path d="m124.079 199.865c-1.618 1.663-2.028 3.279-1.788 4.485.109.548.399 1.076.741 1.518.343.441.999.677 1.483.4-.044.673.245 1.36.756 1.802.253.217.567.379.901.385s.679-.172.812-.477c.161.378.476.677.844.862.846.424 1.92.217 2.664-.367.744-.583 1.186-1.486 1.381-2.412.011-.056.023-.115.003-.169s-.068-.094-.114-.129c-.496-.385-.997-.763-1.533-1.088-.862-.526-1.801-.91-2.686-1.395-1.287-.704-3.462-3.416-3.462-3.416z" fill="#f5a200"/><path d="m124.724 205.797c.016 0 .016-.025 0-.025-.015 0-.015.025 0 .025z" fill="#f28f00"/><path d="m126.165 202.735c-1.471.314-2.31 1.838-1.958 3.27.097.394.718.313.708-.095-.026-1.113.494-2.185 1.379-2.867.146-.112.068-.349-.129-.306z" fill="#f28f00"/><path d="m127.872 204.688c-.922.779-1.406 2.179-.866 3.321.133.283.615.148.594-.16-.077-1.077-.049-1.993.575-2.928.128-.192-.145-.367-.303-.233z" fill="#f28f00"/><path d="m100.937 69.3816c2.09-3.1354 3.583-5.7852 4.479-7.9493 1.272-3.0474 1.711-5.9272 1.318-8.6409-.457-3.4507-2.209-6.4384-5.255-8.9604-1.085-.9116-2.257-1.6898-3.5171-2.3331-6.4228 1.4286-12.7902 3.8199-19.1021 7.1726-8.3578 4.4674-16.0066 10.3421-22.9507 17.6225-3.6156 3.8086-6.4314 7.4609-8.4501 10.9612-2.5032 4.3737-3.9139 8.6608-4.2321 12.8584-.3609 4.5029.6378 8.692 2.9975 12.5654 1.9932 1.291 4.0518 2.432 6.1742 3.42 7.7809 3.676 13.7278 4.437 17.8406 2.286 3.5502-1.88 8.514-7.174 14.8927-15.8843 2.1907-3.0048 7.4585-10.7099 15.8031-23.1167z" fill="#f5a200"/><path d="m97.9619 41.4979c-1.9719-.9983-4.1099-1.6274-6.4171-1.8872-6.1202-.7058-13.026 1.0976-20.716 5.4131-5.8119 3.2192-11.1692 7.1399-16.0733 11.7635-4.9183 4.6336-9.1462 9.7698-12.6822 15.4073-2.7092 4.2615-4.4282 8.391-5.1598 12.3884-.8865 4.8451-.1634 8.895 2.1722 12.1511.8879 1.2383 2.5273 2.7151 4.9183 4.4289.7416.537 1.4817 1.041 2.2219 1.514-2.3597-3.8739-3.3585-8.063-2.9976-12.5659.3182-4.1976 1.7275-8.4846 4.2321-12.8583 2.0188-3.499 4.8345-7.1527 8.4501-10.9612 6.9427-7.2805 14.593-13.1537 22.9507-17.6226 6.312-3.3527 12.6793-5.7426 19.1021-7.1725z" fill="#fedd78"/><path d="m106.486 138.696c-.068-.649-.257-1.275-.567-1.876-.186-.361-.406-.703-.662-1.028-.716-.899-1.533-1.461-2.448-1.687-.703-.183-1.345-.125-1.926.173-.25.13-.486.301-.705.516-5.7578 5.372-10.5142 11.133-14.2775 17.279-1.7786 2.904-3.3371 5.894-4.6697 8.971l7.6886 3.63c1.29-2.569 2.7717-5.136 4.4367-7.704 3.2974-5.085 7.3279-10.168 12.0999-15.252.781-.846 1.125-1.853 1.031-3.021z" fill="#f5a200"/><path d="m149.998 156.953c.274-.771.491-1.707-.022-2.346-.507-.633-1.454-.632-2.263-.555-1.538.149-3.068.381-4.584.685-.961 1.381-1.99 2.649-3.099 3.79-2.526 2.621-5.289 4.442-8.288 5.46.023.096.047.193.074.292.138.523.399 1.119.782 1.788.223.374.565.94 1.025 1.7.174.288.409.708.709 1.261.272.014.54.024.807.032l.03-.107c.001.036.004.075.006.117 5.022.142 9.889-1.109 14.601-3.753.141-.078.269-.166.406-.247-.257-.207-.491-.451-.697-.74-1.49-2.098-.35-4.954.511-7.38z" fill="#fdd22b"/><path d="m161.496 152.997c.626-1.302.765-2.334.417-3.097-.211-.488-.607-.781-1.192-.879.241-.579.443-1.174.605-1.786.418-1.611.541-3.235.371-4.872-.094-.743-.299-1.246-.614-1.507-.291-.254-.658-.335-1.098-.244-.421.081-.759.288-1.017.622-.074.083-.14.15-.201.203-.002-.665-.066-1.395-.187-2.191-.078-.705-.183-1.27-.314-1.696-.185-.605-.45-1.103-.798-1.494-.215-.25-.469-.439-.762-.564-.315-.14-.612-.171-.894-.095-.359.114-.647.388-.865.82-.145-.422-.351-.825-.619-1.21-.493-.709-1.118-1.251-1.875-1.629-.512-.273-.922-.302-1.234-.087-.194.11-.335.286-.42.53-.061.156-.114.391-.159.707-.706 5.063-2.135 9.918-4.288 14.565-.961 2.067-2.038 3.942-3.222 5.644 1.516-.304 3.046-.537 4.585-.685.807-.078 1.756-.078 2.263.555.513.639.295 1.575.021 2.346-.861 2.426-2.002 5.281-.511 7.38.204.288.439.533.697.74 5.132-2.978 8.911-6.998 11.314-12.076z" fill="#f5a200"/><path d="m82.8092 153.841c2.1509.38 3.9977 1.418 5.5405 3.114 1.5287 1.681 2.3328 3.556 2.4109 5.623.0838 2.063-.591 3.699-2.0244 4.906-1.4647 1.234-3.2945 1.677-5.4895 1.332-2.202-.377-4.09-1.431-5.6655-3.162-1.6082-1.767-2.435-3.696-2.4805-5.791-.0071-2.075.7444-3.703 2.2546-4.888 1.486-1.15 3.3044-1.529 5.4553-1.136z" fill="#f5a200"/><path d="m134.207 164.47c-.254-4.874-1.101-9.85-2.541-14.928-.968-3.526-2.191-6.975-3.669-10.348-5.415 1.257-10.406 1.761-14.968 1.514-3.361-.207-6.418-.758-9.171-1.653-1.158-.4-2.158-.819-2.998-1.254-1.0229 3.529-1.8014 7.244-2.3355 11.143-.162 1.339-.3225 2.762-.4831 4.268-.0113.38-.0483.782-.1094 1.202-.0298.571-.0667 1.185-.1108 1.839-.0483.825-.0852 1.628-.1108 2.407-.0142.308-.0213.609-.0241.903-.054 2.444.027 4.621.2401 6.527.4475 3.746 1.4362 6.873 2.9666 9.382 1.473 2.367 3.448 4.267 5.921 5.7 2.323 1.257 4.88 2.05 7.673 2.378.179-.005.352.009.52.043.939.058 1.84.081 2.702.068 1.266-.067 2.502-.218 3.705-.457 2.338-.503 4.46-1.379 6.366-2.627.716-.479 1.382-.981 2.002-1.504 1.324-1.636 2.349-3.415 3.075-5.336 1.116-2.87 1.566-5.96 1.351-9.267z" fill="#fdd22b"/><path d="m113.029 140.708c-2.122-.131-4.124-.4-6.003-.805.135 1.075.325 2.144.572 3.199.316 1.348.743 2.72 1.654 3.762s2.415 1.676 3.716 1.204c1.029-.373 1.719-1.325 2.312-2.246 1.06-1.65 2.009-3.37 2.847-5.142-1.755.106-3.454.116-5.098.027z" fill="#fdd22b"/><path d="m104.639 129.481c-.72.831-1.497 2.257-2.334 4.275-.512 1.293-.993 2.642-1.444 4.045.841.436 1.84.854 2.998 1.254 1.014.33 2.07.612 3.168.848-.494-3.918-.25-7.928.708-11.759-1.572.308-2.603.754-3.095 1.337z" fill="#f5a200"/><path d="m136.348 162.844c.018-.161.024-.294.018-.404-.001-.349-.022-.676-.062-.98-.011-.6-.061-1.171-.146-1.709-.132-1.206-.381-2.643-.746-4.314-.229-1.317-.543-2.765-.942-4.343l-1.634-6.888c-.084-.374-.268-1.192-.552-2.454-.276-1.349-.701-3.059-1.275-5.128-.55-2.047-1.259-3.707-2.125-4.981-.835-1.297-2.408-2.258-4.721-2.883-.331-.095-.675-.185-1.029-.267-.375-.088-.764-.167-1.166-.241-.687 4.295-1.985 8.493-3.843 12.426 3.117-.188 6.406-.683 9.872-1.486 1.478 3.372 2.701 6.821 3.669 10.347 1.439 5.078 2.287 10.054 2.541 14.928.215 3.307-.234 6.396-1.351 9.267-.726 1.921-1.752 3.7-3.076 5.336.615-.537 1.179-1.097 1.695-1.68.51-.583.975-1.188 1.395-1.816.59-.836 1.091-1.704 1.503-2.604.634-1.301 1.111-2.644 1.434-4.027.281-1.183.46-2.422.538-3.712.023-.341.036-.69.039-1.047-.002-.378-.003-.747-.003-1.108.01-.106-.002-.184-.034-.234z" fill="#f5a200"/><path d="m119.198 127.878c-.209-.021-.424-.04-.645-.055-.942-.101-1.952-.161-3.029-.179-2.023-.065-3.911 0-5.67.194-.102.012-.206.022-.308.035-.669.073-1.273.163-1.814.269-.958 3.832-1.202 7.842-.708 11.76 1.88.404 3.881.673 6.004.805 1.644.089 3.343.079 5.097-.027 1.858-3.934 3.156-8.131 3.843-12.427-.862-.158-1.784-.284-2.77-.376z" fill="#f5a200"/><path d="m107.286 129.067c-1.268-.117-2.538-.193-3.809-.232-1.272 3.38-2.116 6.922-2.51 10.511 1.46.612 2.96 1.128 4.487 1.543.405-3.969 1.015-7.917 1.832-11.822z" fill="#e5e4e3"/><path d="m100.967 139.346c-.094.854-.164 1.709-.206 2.566l.461.34c1.329.441 2.658.883 3.987 1.325.069-.898.154-1.792.245-2.688-1.528-.415-3.028-.931-4.487-1.543z" fill="#d8d6d5"/><path d="m123.156 130.04c1.268.096 2.534.231 3.794.404.692 3.545.935 7.176.728 10.781-1.542.361-3.107.619-4.683.775.26-3.98.317-7.974.161-11.96z" fill="#e5e4e3"/><path d="m127.678 141.227c-.05.856-.124 1.712-.225 2.564l-.511.257c-1.384.215-2.768.429-4.151.643.079-.896.146-1.793.204-2.691 1.576-.154 3.141-.413 4.683-.775z" fill="#d8d6d5"/><path d="m119.624 183.944c6.781-.794 13.56-2.917 19.15-6.75-1.012-2.226-1.447-4.764-1.878-7.203-1.622-9.197-3.783-18.297-6.468-27.241-.082-.272-.175-.561-.391-.748-.224-.193-.537-.237-.832-.266-1.337-.123-2.113.381-3.432.631-1.233.233-2.871.292-4.215.446-1.748.2-3.509.24-5.265.132-5.309-.325-10.77-.696-15.588-2.955-.021-.01-.042-.022-.064-.033-.433-.244-.9786-.058-1.1803.398-.8297 1.875-1.1323 3.963-1.3866 6.011-.6322 5.092-4.0304 26.051-4.529 31.158-.2131 2.188-.3864 3.905-.4859 5.255l.2898.039c8.713 1.15 17.542 2.147 26.271 1.124z" fill="#f5f3f2"/><path d="m140.371 179.772c-.659-.787-1.177-1.656-1.597-2.578-5.59 3.832-12.369 5.955-19.15 6.75-8.728 1.022-17.558.025-26.2707-1.125-.0966-.013-.1932-.025-.2898-.038-.3992 5.41.3764 4.936 4.4267 5.23 1.6792.122 7.7638.437 9.4458.504 3.658.146 7.318.292 10.976.439 1.857.073 3.717.147 5.571.022 2.079-.14 4.135-.531 6.168-.992 2.283-.519 4.577-1.141 6.593-2.326 1.721-1.013 3.204-2.424 4.298-4.093.18-.274.356-.582.327-.909-.032-.342-.277-.619-.499-.883z" fill="#acadc0"/><path d="m122.7 164.073c.221.042.46.097.608.269.111.129.152.304.187.471.076.349-.061 4.588-.086 5.126-.539 11.295-18.105 6.239-18.595 6.024-2.447-1.066-6.3577-1.66-4.326-12.512.119-.637.737-1.058 1.384-.999.007 0 .014 0 .021.001 9.876 2.399 20.284 1.556 20.807 1.619z" fill="#e4e0e5"/><path d="m127.672 144.356c.361-1.526.638-3.074.83-4.643.125-1.008.264-2.318.42-3.928.149-1.247.36-2.191.632-2.832.31-.727.633-1.174.971-1.343.386-.194.909-.128 1.565.199.067-.01.127-.02.176-.03.116-.014.204-.018.265-.016.106.006.38.104.824.293.548.233 1.035.545 1.462.939 1.446 1.337 2.213 3.595 2.302 6.772.04 1.513-.071 3.232-.335 5.159-.366 2.675-1.011 5.58-1.932 8.714-.76 2.572-1.567 4.861-2.422 6.869-1.063 2.496-2.394 3.834-3.992 4.012-.181.017-.368.018-.564.005-.532-.018-1.127-.132-1.787-.339-.502-.159-1.378-.504-2.627-1.035-.891-.348-1.478-.582-1.762-.703-.443-.189-.716-.371-.82-.548-.125-.202-.125-.514 0-.936.086-.291.33-.913.735-1.863.347-.812.949-2.046 1.81-3.701.854-1.657 1.506-3.015 1.956-4.071.968-2.272 1.73-4.597 2.29-6.971z" fill="#fedd78"/><path d="m127.672 144.356c.361-1.526.638-3.074.83-4.643.125-1.008.264-2.318.42-3.928.149-1.247.36-2.191.632-2.832.31-.727.633-1.174.971-1.343.386-.194.909-.128 1.565.199.067-.01.127-.02.176-.03.116-.014.204-.018.265-.016.106.006.38.104.824.293.548.233 1.035.545 1.462.939 1.446 1.337 2.213 3.595 2.302 6.772.04 1.513-.071 3.232-.335 5.159-.366 2.675-1.011 5.58-1.932 8.714-.76 2.572-1.567 4.861-2.422 6.869-1.063 2.496-2.394 3.834-3.992 4.012-.181.017-.368.018-.564.005 4.324-8.411 6.687-16.618 7.09-24.623-3.014.437-5.446 1.923-7.295 4.456z" fill="#f7b02f"/><path d="m121.164 157.607c.344-.845.891-1.514 1.638-2.007l8.787 3.587c.979 1.329 1.28 2.41.903 3.239-.562 1.267-1.595 2.115-3.097 2.543-1.488.436-3.003.326-4.541-.329-1.521-.646-2.646-1.66-3.377-3.04-.718-1.375-.823-2.705-.313-3.995z" fill="#f7b02f"/><path d="m127.706 159.233c1.625.691 2.763 1.841 3.411 3.452.617 1.611.581 3.199-.108 4.762-.682 1.528-1.82 2.596-3.414 3.205-1.589.618-3.165.597-4.723-.068-1.546-.657-2.651-1.775-3.315-3.352-.666-1.571-.684-3.132-.055-4.681.643-1.583 1.769-2.706 3.38-3.371 1.623-.643 3.232-.626 4.824.051z" fill="#f7b02f"/><path d="m127.058 166.773c-.451-1.067-.453-2.125-.005-3.174.466-1.058 1.247-1.802 2.344-2.232 1.106-.419 2.209-.395 3.306.072 1.096.467 1.868 1.24 2.294 2.311.43 1.08.402 2.144-.084 3.193-.473 1.04-1.261 1.761-2.362 2.166-1.079.407-2.157.382-3.234-.077-1.07-.456-1.823-1.208-2.257-2.259z" fill="#f7b02f"/><g fill="#fedd78"><path d="m117.514 162.244c-.451-1.066-.453-2.124-.005-3.173.466-1.058 1.247-1.802 2.344-2.233 1.106-.419 2.209-.394 3.306.073 1.104.47 1.868 1.239 2.294 2.31.43 1.081.402 2.144-.084 3.194-.473 1.039-1.261 1.761-2.362 2.165-1.079.408-2.157.382-3.234-.076-1.07-.456-1.822-1.209-2.257-2.26z"/><path d="m126.652 159.205c1.335.569 2.225 1.614 2.668 3.137.419 1.528.287 3.075-.396 4.641-.675 1.531-1.711 2.643-3.107 3.336-1.385.705-2.719.785-4.001.24-1.269-.54-2.132-1.555-2.59-3.045-.467-1.487-.383-3.003.252-4.55.649-1.58 1.68-2.745 3.091-3.493 1.412-.733 2.773-.821 4.082-.264z"/><path d="m125.551 155.249c3.123.59 5.018 1.903 5.686 3.941.078.845-.07 1.683-.439 2.516-.57 1.264-1.513 2.15-2.83 2.658-1.317.509-2.62.489-3.909-.059-1.268-.54-2.182-1.463-2.742-2.771-.545-1.302-.429-2.811.35-4.531.784-1.717 2.078-2.3 3.884-1.752z"/><path d="m128.032 161.382c.971-.319 1.949-.271 2.933.148.992.422 1.692 1.086 2.101 1.994.409.907.417 1.792.019 2.652-.392.848-1.071 1.425-2.037 1.731-.941.303-1.897.247-2.867-.167-.958-.408-1.648-1.052-2.069-1.933-.429-.9-.46-1.779-.094-2.638.385-.866 1.056-1.463 2.015-1.788z"/></g><path d="m119.331 164.275c-.139-1.528.856-2.526 1.563-3.746.107-.185-.132-.347-.283-.219-1.125.957-2.037 2.509-1.444 3.988.032.079.174.081.164-.023z" fill="#f5a200"/><path d="m128.985 167.905c-1.179-.434-1.506-2.294-1.823-3.34-.087-.287-.489-.164-.44.12.204 1.22.7 3.333 2.229 3.467.15.012.157-.202.034-.247z" fill="#f5a200"/><path d="m133.757 158.619c.143 1.217.45 2.414.912 3.549.285-.38.569-.759.855-1.136.318-.424.642-.857.824-1.354.415-1.137.031-2.392-.352-3.541-.661.745-1.263 1.543-1.796 2.385l-.443.098z" fill="#e5e4e3"/><path d="m171.136 73.4215c.157-3.79-.64-7.5957-2.388-11.4198-.925-2.0193-2.066-3.952-3.424-5.7994.122 2.4041.211 5.433.268 9.0882.134 8.354.016 13.8197-.358 16.3999-.045.3138-.371 1.7722-.974 4.3751-.015.0582-.027.1136-.042.1661.056.6646.076 1.3206.06 1.9668-.02.5353-.071 1.3234-.152 2.3643-.096.9827-.173 1.6813-.234 2.096-.112.7739-.267 1.4555-.468 2.0448-.311.8818-.791 1.8318-1.442 2.8486-1.081 1.6983-2.284 3.2079-3.608 4.5289-1.306 1.346-2.529 2.084-3.671 2.218-1.156.153-2.28-.192-3.373-1.036-.541-.418-1.085-1.012-1.632-1.78-.006.292-.021.639-.047 1.041l-.374 5.32c-.042.692-.108 1.267-.197 1.723-.051.278-.146.694-.283 1.247-.204.943-.308 1.421-.309 1.431-.106.328-.375.896-.813 1.703-.172.318-.429.791-.771 1.417-.322.561-.6 1.024-.837 1.39-.364.531-.76 1.018-1.191 1.46-.703.745-1.425 1.299-2.163 1.663-.731.375-1.512.595-2.346.657-.834.063-1.645-.031-2.433-.282-.374-.115-.736-.264-1.087-.449-.03.219-.06.467-.09.743-.216 1.411-.879 2.838-1.992 4.28-.676.876-1.419 1.661-2.23 2.357-.904.785-1.759 1.315-2.566 1.587-.397.138-1.098.266-2.099.384-.77.095-1.35.143-1.739.145-1.898.058-3.664-.402-5.298-1.382-.122-.071-.243-.145-.362-.224-.181.778-.485 1.935-.914 3.474l-.238.824c-.171.548-.266.849-.286.903-.317.767-.925 1.606-1.824 2.519-.375.381-.668.654-.874.818-.361.28-.882.599-1.564.96-.744.396-1.311.675-1.702.837-.45.187-.93.34-1.44.461-.584.118-1.279.166-2.083.146-.009.057-.016.114-.024.168-.014-.053-.03-.107-.046-.161-.582-.011-1.223-.058-1.92-.139-1.218-.129-2.143-.355-2.772-.674-.635-.333-1.27-.888-1.907-1.666-1.116 1.429-2.58 2.518-4.388 3.265-1.8383.754-3.7292 1.036-5.6713.847-1.2572-.1-2.2844-.403-3.0814-.907-.1889-.118-.3693-.253-.5427-.405-2.0883-.048-3.9508-.156-5.5874-.325.2515.354.5228.697.814 1.028.8766.986 1.8853 1.778 3.0246 2.377.1364.071.2699.137.4006.196 1.0272.487 2.1168.8 3.2661.935 1.3042.164 2.5856.098 3.8429-.202 1.3766-.328 2.4705-.886 3.2817-1.673.1705-.166.3282-.349.4745-.549.1051.155.2145.306.3282.46.8154 1.09 1.6072 1.886 2.3692 2.385.712.469 1.849.919 3.413 1.351.408.116.716.194.928.237.345.073.659.112.944.119.378-.002.993-.096 1.846-.284.916-.234 1.589-.417 2.02-.549.734-.249 1.361-.543 1.879-.879.405-.263.813-.587 1.224-.974.777-.727 1.446-1.518 2.008-2.372.287-.244.567-.512.839-.806.64.586 1.177 1.031 1.611 1.332.832.578 1.648.918 2.446 1.022.449.065.952.068 1.51.011.35-.041.844-.13 1.482-.267.885-.181 1.503-.332 1.852-.454 1.624-.532 3.286-1.701 4.99-3.505.984-1.025 1.727-2.006 2.229-2.94.584-1.074 1.007-2.375 1.268-3.904.545.751 1.035 1.286 1.469 1.603.519.372 1.13.626 1.832.763 1.25.225 2.781-.034 4.595-.78 1.009-.403 1.762-.816 2.258-1.237.182-.146.557-.527 1.126-1.143.932-1.056 1.593-1.872 1.985-2.444.433-.625.848-1.354 1.245-2.189.261-.547.596-1.317 1.003-2.311.342-.787.574-1.4.694-1.84.023-.09.044-.189.061-.301.821.226 1.66.254 2.513.088 1.666-.344 3.197-1.319 4.598-2.925 1.203-1.35 2.107-2.896 2.715-4.641.618-1.743.875-3.52.77-5.332.798.893 1.876 1.357 3.234 1.394 1.289.037 2.482-.294 3.58-.995.958-.607 1.792-1.425 2.502-2.456.654-.958 1.152-2.032 1.496-3.219.551-1.913.701-4.2598.451-7.0445-.375-4.1933-1.471-8.3469-3.286-12.4607 1.483-3.4166 2.283-6.6955 2.399-9.8366z" fill="#f5a200"/><path d="m88.1636 41.9637c-1.3723.6958-3.4024 1.7935-6.0932 3.2944-2.0556 1.146-3.5928 2.1145-4.6114 2.9068-1.5414 1.2312-3.0999 2.9068-4.6768 5.0269-3.4891 4.7287-6.4072 10.5807-8.7541 17.5587-1.4462 4.3027-3.1212 10.7113-5.0263 19.2286-.7643 3.4734-1.2786 6.0834-1.5428 7.8314-.4333 2.9255-.5796 5.5665-.439 7.9225.2557 3.94 1.3369 7.794 3.2448 11.562 1.827 3.607 4.2463 6.84 7.2581 9.701 2.8399 2.7 6.1316 5.006 9.8764 6.92.9135.47 1.8781.891 2.8939 1.258.9888 1.151 1.9989 2.16 3.0331 3.031.0924.146.1861.291.2813.436 1.6366.169 3.4991.277 5.5874.325.1734.152.3538.287.5427.405.797.504 1.8242.806 3.0814.907 1.9421.189 3.833-.094 5.6713-.848 1.8086-.748 3.2716-1.836 4.3886-3.264.636.778 1.271 1.333 1.906 1.665.63.32 1.553.545 2.772.675.698.082 1.338.128 1.921.139.024 0 .048-.002.069-.007.804.02 1.499-.029 2.083-.146.51-.121.99-.276 1.441-.462.389-.162.957-.44 1.702-.836.681-.36 1.203-.679 1.564-.96.207-.165.498-.438.873-.818.9-.912 1.508-1.753 1.824-2.519.02-.054.114-.355.286-.904l.239-.823c.429-1.538.734-2.697.913-3.475.12.078.242.153.362.224 1.634.98 3.4 1.44 5.298 1.382.389 0 .969-.05 1.739-.145 1.002-.119 1.702-.247 2.1-.383.807-.273 1.662-.802 2.565-1.588.812-.696 1.555-1.481 2.231-2.357 1.112-1.443 1.777-2.868 1.992-4.28.029-.275.059-.523.089-.743.35.185.712.334 1.087.449.788.251 1.6.345 2.433.283.834-.063 1.616-.283 2.346-.658.74-.362 1.46-.917 2.164-1.663.43-.441.826-.928 1.19-1.459.236-.367.514-.831.837-1.391.342-.626.599-1.099.771-1.417.438-.806.708-1.374.813-1.702.001-.012.105-.489.31-1.432.136-.552.231-.968.282-1.247.088-.457.155-1.031.198-1.722l.373-5.321c.026-.402.042-.748.047-1.041.547.768 1.091 1.362 1.633 1.781 1.092.845 2.216 1.19 3.372 1.035 1.143-.133 2.366-.872 3.671-2.218 1.324-1.321 2.528-2.8301 3.609-4.5285.65-1.0167 1.131-1.9667 1.442-2.8486.199-.5893.355-1.2709.467-2.0448.06-.4147.138-1.1133.235-2.096.081-1.0408.132-1.8304.152-2.3643.015-.6461-.005-1.3008-.06-1.9668.013-.0511.027-.1065.041-.1661.605-2.6029.931-4.0613.975-4.3751.372-2.5788.491-8.0459.358-16.3999-.057-3.6552-.147-6.6841-.269-9.0882-1-1.3703-2.121-2.6952-3.361-3.9704-4.237-4.297-9.608-7.9053-16.116-10.8249-9.132-4.0996-18.781-6.1203-28.949-6.0635-10.317.0582-19.8946 2.265-28.7354 6.623z" fill="#fdd22b"/><path d="m135.736 82.6162c-3.582-3.0247-8.053-4.7486-13.411-5.1703-5.359-.4218-10.051.5822-14.078 3.009-3.997 2.451-6.303 5.7923-6.915 10.024-.598 4.2331 1.082 7.5276 5.04 9.8831 3.958 2.356 8.697 3.751 14.217 4.185 5.505.433 10.062-.158 13.671-1.769 3.594-1.613 5.63-4.6167 6.109-9.0075.492-4.3893-1.052-8.1069-4.633-11.1543z" fill="#fff"/><path d="m85.3351 73.1233c-2.658-2.2152-5.8516-3.3086-9.5794-3.2802s-6.9101 1.1701-9.544 3.4251c-2.614 2.272-4.0048 5.1518-4.1711 8.6394-.1562 3.4876 1.2033 6.0536 4.0816 7.6966 2.8768 1.6444 6.2353 2.451 10.0753 2.4226 3.8301-.0284 6.9427-.8251 9.338-2.3871 2.3852-1.562 3.6113-4.1479 3.6752-7.7562.0739-3.6083-1.2175-6.5279-3.8756-8.7602z" fill="#fff"/><path d="m114.882 89.8201c-1.107-1.3249-2.518-2.0548-4.229-2.1897-1.726-.1363-3.239.3649-4.541 1.4995-1.311 1.0949-2.034 2.505-2.171 4.2289-.136 1.7239.358 3.2376 1.481 4.537 1.108 1.3121 2.526 2.0349 4.252 2.1712 1.726.136 3.219-.3593 4.519-1.4811 1.325-1.1062 2.056-2.5234 2.192-4.2473s-.365-3.2306-1.502-4.5185z" fill="#231815"/><path d="m76.3395 80.2349c-1.1066-1.3249-2.5174-2.0548-4.2292-2.1897-1.7261-.1363-3.2391.3649-4.5405 1.4995-1.3112 1.0949-2.0343 2.505-2.1707 4.2289-.1364 1.7253.358 3.2376 1.4803 4.537 1.1081 1.3121 2.5259 2.0349 4.252 2.1712 1.7119.1349 3.2192-.3593 4.5191-1.4811 1.3255-1.1062 2.0557-2.5234 2.1921-4.2473.1364-1.7253-.3651-3.2306-1.5016-4.5185z" fill="#231815"/><path d="m72.0406 119.57c2.0941-.148 4.1512-.781 5.9654-1.835.2117-.122.4304-.254.6734-.268.3281-.019.6251.177.8978.36 1.8 1.203 3.7719 2.152 5.8347 2.806 1.5542.493 3.1652.824 4.6597 1.473.1634.071.3296.149.4532.277.2628.271.2742.698.2159 1.072-.1861 1.173-.9078 2.218-1.834 2.961-.9263.742-2.0472 1.209-3.1908 1.535-2.131.607-4.4325.749-6.562.136-1.0499-.303-2.0401-.781-2.9948-1.309-1.3894-.77-2.7404-1.669-3.742-2.901-1.0015-1.233-1.6238-2.843-1.3908-4.414l1.0129.109z" fill="#3f2b17"/><path d="m88.023 131.867c2.0685.419 4.4779.673 6.7936-2.442 1.1138-1.498.6251-4.077-.8552-5.215-1.9321-1.482-5.0704-1.498-6.7709-2.27-2.3455-1.065-3.5119-1.936-5.8034-4.489-.2372-.264-1.2658-.287-1.6124-.212-.4021.087-1.1834.811-1.5045 1.067-.7103.565-1.1465 1.177-3.1553 1.945 0 0 3.009 9.615 12.9081 11.616z" fill="#ec6d6d"/><path d="m78.874 119.737c.2927 1.231.5782 2.274 1.4278 3.251.8495.977 1.9193 1.851 2.9592 2.652s2.1906 1.51 3.3627 2.13c.6038.32 1.2203.617 1.8468.889.6265.273 1.3042.608 1.962.404.3878-.121.6208-.588.3892-.956-.331-.524-.9035-.713-1.4533-.954-.5214-.229-1.0414-.455-1.5514-.708-1.1194-.556-2.1878-1.195-3.2234-1.894-1.0357-.699-1.9733-1.383-2.8698-2.192-.8339-.753-2.0429-1.646-2.3455-2.761-.0881-.325-.5839-.189-.5057.139z" fill="#da4741"/><path d="m81.2266 108.394-3.5616-.417-.2316 8.809c.1336.118.3651.222.6976.311.3679.11.7657.168 1.1947.175.4731.021.9078-.091 1.3056-.336z" fill="#3f2b17"/><path d="m71.4979 101.51c-.5384.376-.8708.867-.9944 1.475-.0512.22-.0895.429-.1151.629-.1378 1.082.0241 2.014.4859 2.798.6506 1.072 1.5399 2.027 2.6651 2.864.7842.582 1.4036 1.012 1.8596 1.288.743.414 1.4505.703 2.1239.866l.5939.111c.527.082 1.101.109 1.7218.078.7004-.051 1.4888-.146 2.364-.284l2.8043-.533c.8098-.17 1.621-.448 2.4336-.836.7885-.375 1.3227-.865 1.6025-1.468.26-.575.4745-1.121.6407-1.638l.0256-.113c.0739-.209.1179-.438.1336-.685.0426-.392 0-.771-.1251-1.139-.1122-.349-.3054-.663-.5824-.938-.233-.249-.5839-.465-1.0527-.648-.3211-.11-.7317-.228-1.2303-.355-2.1182-.456-4.4708-.872-7.0593-1.247l-2.7816-.389c-1.2132-.153-2.1793-.252-2.8981-.298-1.1991-.082-2.0714.073-2.6212.463z" fill="#3f2b17"/><path d="m96.2443 120.101c-.4503.349-.9461.592-1.4874.731-.1776.05-.5612.118-1.1507.206-.8141.077-1.3468.118-1.5997.122-.5057 0-1.2658-.094-2.2816-.277-1.101-.221-1.8667-.405-2.3-.549-.3807-.13-.8098-.301-1.2885-.516-.9846-.423-3.1113-1.492-3.3542-1.631-.8496-.486-1.5954-1.009-2.239-1.571-.5384-.548-.841-1.005-1.4661-1.068-.6151-.061-1.4206.863-1.6977 1.128-.6748.617-1.4632 1.063-2.3639 1.337-.9121.281-1.8199.355-2.7234.223-.9135-.133-1.7602-.463-2.543-.987-.7913-.524-1.4221-1.177-1.8909-1.959-.2742.308-.4432.678-.5072 1.113-.0724.425-.0184.824.1591 1.198.1535.354.4731.752.959 1.192 1.1749 1.061 2.2943 1.7 3.3598 1.916 1.7688.369 3.7889-.259 6.0634-1.883.2983-.215.6776-.781 1.1038-1.382.1677.352.77 1.205.9562 1.373.6492.569 1.4334 1.116 2.3511 1.639.6152.349 1.4718.782 2.57 1.3l1.4974.692c.6577.3 3.5275.872 3.6511.898.473.113.8296.191 1.0683.23.3367.051.7188.063 1.1465.036.2727-.009.6606-.051 1.1663-.122.9362-.116 1.6139-.26 2.033-.431.5597-.218 1.0626-.547 1.5073-.987.4361-.45.7586-.956.9646-1.515.2543-.654.2884-1.236.1009-1.747-.0682-.172-.1563-.268-.2614-.29-.1336-.017-.2643.093-.3935.33-.287.487-.6564.904-1.1081 1.254z" fill="#3f2b17"/><path d="m78.0002 108.904c-1.7601-.003-3.3669-.866-4.6327-1.97-.5299-.461-1.0229-.981-1.3127-1.61-.2884-.629-.3523-1.386-.0327-2.028.3197-.642 1.0712-1.122 1.7972-1.028.3963.051.743.257 1.0626.474 1.6977 1.159 2.8257 2.896 3.6554 4.726.7032 1.555-.5385 1.436-.5385 1.436z" fill="#231815"/><path d="m80.458 109.256c1.5784.628 3.3869.398 4.9922-.178.672-.24 1.3354-.546 1.8625-1.029.527-.483.9064-1.163.8936-1.876s-.4831-1.427-1.1735-1.599c-.3779-.094-.7757-.027-1.155.061-2.0159.472-3.7676 1.683-5.2905 3.092-1.2928 1.194-.1293 1.529-.1293 1.529z" fill="#231815"/><path d="m195.477 111.911c.885-3.814.925-8.129.119-12.946-1.027-6.4284-2.834-12.5928-5.421-18.4944-2.612-6.0053-5.887-11.5307-9.825-16.5774-5.214-6.7494-10.669-10.9683-16.367-12.6539-.631-.1789-1.272-.3408-1.923-.4885-.74-.1306-1.415-.2215-2.025-.2727 6.121 5.9173 11.165 12.7746 15.13 20.572 5.164 10.166 7.961 20.7324 8.391 31.6979.118 2.613.02 4.865-.298 6.758-.408 2.458-1.19 4.52-2.347 6.186-1.476 2.107-3.529 3.687-6.158 4.741-2.47.993-5.092 1.42-7.868 1.282-2.344-.052-4.941-.491-7.794-1.317-1.008-.289-2.009-.618-2.999-.987.317.485.564.827.739 1.026 2.837 3.494 8.41 5.08 16.72 4.756 3.237-.125 6.35-.533 9.338-1.226 2.798-.613 4.814-1.299 6.047-2.059 3.309-2.01 5.49-5.343 6.54-9.998z" fill="#f5a200"/><path d="m160.036 50.4781-1.162-.0426c-1.77.0043-3.545.2684-5.323.7953-3.631 1.0607-6.325 3.0459-8.08 5.9556-1.362 2.255-2.058 4.9885-2.088 8.202-.03 2.1883.296 5.1051.975 8.746 2.682 14.0228 4.434 22.871 5.252 26.5446 1.543 6.58 3.097 11.67 4.665 15.268l.392.856c.489 1.026.965 1.895 1.425 2.609.99.369 1.991.699 2.999.987 2.853.826 5.451 1.265 7.794 1.318 2.776.137 5.399-.29 7.868-1.283 2.629-1.053 4.682-2.634 6.158-4.741 1.157-1.667 1.939-3.729 2.347-6.186.317-1.893.416-4.145.298-6.758-.431-10.9651-3.229-21.5315-8.391-31.6975-3.965-7.7974-9.009-14.6547-15.13-20.5719z" fill="#fedd78"/><path d="m5.99005 138.344c-.33385-2.122.62083-4.294 3.57295-6.336 9.7997-6.775 24.2634-9.152 36.9186-8.235 2.3128.167 4.61.449 6.8717.846 2.3483.415 4.6498.984 6.8547 1.73 4.8955 1.653 11.9008 4.409 13.0416 9.018.1676.678.1932 1.365.1037 2.047.0597.106.0909.223.0795.345-.4261 4.622.3794 7.955-4.0971 11.573-12.1111 9.787-32.2404 11.968-47.7852 7.039-4.2975-1.363-7.2681-2.431-11.4562-6.014-.79838-.683-1.584-1.391-2.11675-2.225-.76005-1.19-.99162-2.547-1.21324-3.875-.26282-1.582-.52564-3.164-.78846-4.746-.06393-.388-.1236-.794.0142-1.167z" fill="#333"/><path d="m15.9588 137.581c10.2387-7.144 23.8272-7.681 37.0195-6.092 7.1984.855 15.5874 4.783 15.2734 11.023-5.6101 5.1-14.1724 7.124-22.4847 7.96-7.5039.754-16.0875.154-23.1993-1.833-3.4579-.966-8.0565-2.914-11.2828-5.359.9731-2.183 2.4946-4.181 4.6725-5.697z" fill="#242729"/><path d="m58.8257 127.258c4.6384 1.526 11.2359 3.78 12.3554 8.337.5725 2.334-.6663 4.781-2.6225 6.636-.1009.095-.2046.187-.3069.279.2273-4.497-4.0702-7.793-9.1831-9.603-.726-2.135-1.5698-4.241-2.506-6.321.7614.205 1.5158.426 2.2631.672z" fill="#424242"/><path d="m11.282 132.222c1.7716-1.132 3.7733-2.07 5.3118-2.753 8.0466-3.572 17.5494-4.865 26.6743-4.644 4.5503.111 9.0254.616 13.293 1.76.9363 2.08 1.7801 4.186 2.5061 6.32-1.979-.7-4.0816-1.179-6.0904-1.417-13.1908-1.589-26.7793-1.052-37.0194 6.092-1.334.929-2.4208 2.039-3.2874 3.262-.8283-2.843-1.3596-5.706-1.3894-8.62z" fill="#4e4d4d"/><path d="m10.8217 132.525c.152-.103.3054-.204.4603-.301.0298 2.913.5612 5.778 1.3894 8.619-.5484.773-1.0087 1.591-1.3851 2.437-4.10289-3.111-5.98242-7.028-.4646-10.754z" fill="#424242"/><path d="m58.6481 154.346c1.3226.643 2.8868.121 4.127-.483.9703-.472 1.8994-1.043 2.7959-1.644.7217-.483 1.4476-.967 1.9065-1.724.0767-.126.0994-.253.0852-.369.0753-.996.108-2.025-.1094-3.006-.1264-.571-.4944-2.057-1.3041-2.03-.2529.009-.449.212-.6223.395-2.1651 2.272-5.3331 3.484-8.3875 3.773-.3808.036-.5029.352-.4333.641-.0057.051-.0086.103 0 .16.1392 1.021.1747 2.072.5824 2.93.26.548.6734 1.019 1.361 1.354z" fill="#666767"/><path d="m61.1883 152.266c6.3631 3.773 10.9532 10.322 18.281 12.459 2.9393.858 7.126 1.122 9.7641-.775.2501-.179.4816-.401.601-.683.7941-1.887-2.0458-4.212-3.2519-5.216-1.4093-1.173-2.9678-2.151-4.5404-3.089-2.3995-1.429-4.9311-2.625-7.5068-3.7-1.6465-.686-3.313-1.321-4.9893-1.93-1.3639-.496-2.9877-1.542-4.4651-1.472-1.1948.055-2.3427.583-3.1596 1.455-.4674.498-1.1649 1.711-.9575 2.472-.0369.174.0199.357.2245.477z" fill="#242729"/><path d="m83.788 154.505c1.3184-.335 2.5615-.163 3.7292.517 1.1579.675 1.9222 1.67 2.2916 2.988.3722 1.312.2329 2.554-.4163 3.723-.6649 1.194-1.665 1.977-3.0047 2.347-1.3482.353-2.6182.181-3.8102-.514-1.2175-.708-2.0031-1.733-2.3583-3.077-.3296-1.34-.1449-2.598.5541-3.773.689-1.146 1.6948-1.884 3.0146-2.211z" fill="#f5a200"/><path d="m73.5778 164.315c.1293-.7.493-1.239 1.0925-1.616.5895-.377 1.2402-.486 1.9519-.327.7004.151 1.2573.524 1.6722 1.119.412.592.5597 1.23.4432 1.916-.1122.698-.4589 1.244-1.0385 1.636-.5924.389-1.2459.511-1.9633.366-.7189-.153-1.2886-.534-1.7119-1.14-.4248-.611-.574-1.261-.4461-1.956z" fill="#f5a200"/><path d="m76.6222 165.529c.1705-.895.6365-1.586 1.3994-2.075.7501-.487 1.5755-.632 2.4748-.436.885.185 1.5868.656 2.1068 1.413.5171.751.6976 1.566.5427 2.443-.1492.894-.5938 1.594-1.3312 2.1-.7529.502-1.584.664-2.4904.488-.9092-.19-1.628-.67-2.1565-1.44-.5328-.775-.7146-1.606-.5456-2.492z" fill="#f5a200"/><path d="m143.242 46.1883c-4.217-2.299-7.735-5.6559-11.923-8.0032-4.14-2.3189-8.781-3.57-13.481-4.5484-.8 2.255-1.936 5.5892-2.379 7.5077-.067.2897-.128.5978.021.8818.185.3508.638.5723 1.06.7654 5.316 2.4368 10.973 4.1394 16.805 5.4544 2 .4515 5.259.9684 9.521 1.3731.267-.1604.908-.9216 1.661-2.7747-.434-.2073-.863-.426-1.285-.6546z" fill="#f5f3f2"/><path d="m143.242 46.1883c.422.23.85.4473 1.285.6546.3-.737.616-1.6472.936-2.7633.206-.72-6.765-6.9724-10.874-9.0186-4.108-2.0463-11.244-3.9761-15.898-3.7802 0 0-.363.9756-.853 2.3544 4.701.9784 9.341 2.2295 13.481 4.5484 4.189 2.3473 7.707 5.7057 11.923 8.0033z" fill="#e5e7e8"/><path d="m104.862 18.1611c-2.235 1.6814-2.855 4.6293-1.879 7.1314.975 2.5035 3.457 4.5541 6.353 5.5452 3.168 1.0849 6.634.9671 9.988 1.2809 6.564.6149 12.989 2.9948 18.105 6.7082 2.813 2.042 5.221 4.4575 8.018 6.5151 2.796 2.0576 6.14 3.7929 9.753 4.0301 4.451.2925 8.696-1.8404 11.002-4.9574 2.409-3.2561 2.798-7.7107.449-11.2068-1.37-2.0392-3.722-3.6225-6.315-4.3652-.372-.1065-.75-.196-1.134-.267-1.136-.2257-2.301-.1533-3.415-.1136-.371.0483-.74.1193-1.107.213.158-.1973.317-.3947.47-.5935 1.626-2.4766 3.629-4.9957 4.488-7.8173.067-.3536.107-.71.127-1.0679.109-2.5134-.695-5.1135-2.195-7.4196-.21-.3053-.431-.6049-.661-.9003-2.07-2.65687-4.9-4.90052-8.019-6.61165-.347-.19881-.692-.38199-1.045-.55382-4.455-2.1627-9.904-2.44812-14.777-2.44528-.408.02698-.81.0639-1.211.11218-1.986.2343-3.902.73699-5.628 1.55635-.344.16756-.655.34081-.964.52541-1.988 1.26525-3.568 2.98774-4.638 4.79828-.115.26412-.219.52967-.31.79805-.091.26839-.169.53819-.234.81084-.071.32514-.124.64754-.166.97134-.195 1.5918-.101 3.2305.21 4.7769.082.2897.173.578.273.8634.496 1.4314 1.193 2.8216 2.082 4.1252-3.994-3.4606-12.7-6.1445-17.619-2.4425z" fill="#f5f3f2"/><path d="m141.454 42.4436c3.304 3.4663 8.412 5.3521 13.176 4.7742.191-.0228.204-.3139 0-.3082-4.85.1491-9.387-1.4016-13.067-4.5753-.074-.0639-.177.0369-.109.1093z" fill="#e5e7e8"/><path d="m127.173 33.6452c-4.166-.8734-7.712-2.8557-11.068-5.4075-.159-.1207-.341.1349-.209.2698 2.931 2.9849 7.104 4.7912 11.181 5.487.226.0383.327-.3011.096-.3493z" fill="#e5e7e8"/><path d="m132.936 36.799c1.767.0512 3.531-.1931 5.148-.9358.159-.0738.047-.3322-.119-.2811-1.648.5041-3.298.8903-5.029.9273-.187.0042-.187.284 0 .2896z" fill="#e5e7e8"/><path d="m16.4759 139.589c-.9745-.071-1.4902 1.318-1.0072 2.167s1.4917 1.224 2.4236 1.514c12.6552 3.915 26.187 3.517 39.4275 3.083 1.567-.051 3.1368-.104 4.6924-.303.9703-.123 1.9662-.318 2.7731-.872.8055-.553 1.3781-1.552 1.1635-2.506-.3594-1.593-2.4065-2.012-4.0389-2.065-10.456-.331-21.0243.98-31.3283-.826-1.8355-.322-3.6568-.741-5.5079-.947-2.3341-.26-4.6924-.176-7.0393-.093-.7331.026-1.584.118-1.9733.739l.4177.109z" fill="#c9caca"/><path d="m54.3734 116.59c-3.4608-.92-7.1829-.59-10.5896-1.691-3.0899-.998-5.6968-3.104-8.0296-5.363-1.601-1.552-3.3712-3.316-5.6016-3.323-1.5457-.006-2.9464.857-4.2122 1.745-2.982 2.09-2.114 5.86-3.796 9.09-1.5017 2.882-6.8178 5.028-7.906 8.09-.6379 1.796.2415 7.117-.0895 8.994s2.2503 5.341 3.6071 6.68c13.3271.831 25.9525 5.268 39.882 3.002 1.1152-8.32-.4446-19.384-2.7731-27.063-.1577-.068-.3267-.117-.493-.161z" fill="#942121"/><path d="m54.8677 116.752c2.3285 7.678 3.8884 18.743 2.7732 27.063 1.2729-.207 2.5557-.468 3.8528-.796.7075-.573.9845-1.933.9859-3.198.0029-2.752-.5199-5.503-1.53-8.062-.2415-.61-.5129-1.228-.5342-1.884-.0227-.726.2671-1.434.2387-2.16-.0284-.737-.3808-1.419-.726-2.072-1.4107-2.675-2.8228-5.352-4.2335-8.027-.1123-.213-.2288-.432-.4035-.598-.1222-.117-.2671-.2-.4234-.267z" fill="#6a1515"/><path d="m30.6811 112.799c1.5485.453-2.7348 7.076-4.4694 10.464-1.5229 2.976-3.134 7.35-3.4891 8.995-.0767.352.1122.704.4475.837 4.4651 1.775 10.8907 3.224 18.9956 3.445 5.8758.161 9.9133.585 15.0362-1.326.4873-.182 1.0214.178 1.003.697-.0625 1.66 1.1223 4.087 2.1636 5.798.439.72.2231 1.44-.4446 1.643-3.698 1.123-7.3818 1.176-10.7061 1.149-7.2468-.058-20.8368-1.961-31.4249-3.611-.1648-.026-.2131-.029-.3253-.152-1.3141-1.441-3.8003-4.871-3.2846-5.179.3594-.214.8581-.913.8979-1.004.8779-1.968 10.4347-22.894 15.5988-21.756z" fill="#be7c7c"/><g fill="#691a1a"><path d="m29.86 122.645c1.9278-.478 3.7718-1.248 5.5178-2.192s3.5872-1.968 4.8913-3.388c.1847-.201-.0511-.536-.2983-.387-.8382.502-1.5855 1.152-2.3981 1.697-.8126.546-1.6451 1.074-2.5003 1.557-1.7063.961-3.4878 1.766-5.2849 2.539-.1023.044-.0284.2.0739.176z"/><path d="m28.6197 128.734c3.9267-1.006 7.6573-2.544 11.199-4.515 1.7546-.977 3.4366-2.083 5.0533-3.272 1.6466-1.211 3.2391-2.471 4.5546-4.044.0881-.107-.0298-.303-.1605-.208-1.6195 1.172-3.1226 2.488-4.7308 3.676-1.584 1.17-3.2391 2.236-4.9339 3.236-3.4721 2.049-7.2042 3.688-11.0215 4.977-.0951.031-.0568.176.0412.15z"/><path d="m28.9735 133.124c5.1356-.085 9.9943-2.204 14.4466-4.607 2.0941-1.13 4.1029-2.417 5.9796-3.881.9561-.745 1.8766-1.535 2.7503-2.375.8297-.8 1.7631-1.666 2.3484-2.667.0682-.117-.0838-.222-.179-.138-.8794.761-1.6196 1.704-2.4677 2.508-.895.848-1.8383 1.644-2.8214 2.387-1.8199 1.374-3.7633 2.577-5.765 3.668-4.3913 2.39-9.2528 4.558-14.2904 4.974-.0838.007-.0867.134 0 .132z"/><path d="m40.4978 134.804c2.8755-1.372 5.6656-2.948 8.2811-4.77 1.2288-.855 2.425-1.755 3.5899-2.695 1.165-.941 2.5373-1.962 3.4693-3.193.1264-.166-.1193-.397-.2856-.285-1.2175.833-2.2645 1.961-3.3939 2.912-1.2388 1.044-2.5174 2.04-3.8344 2.984-2.5273 1.81-5.1541 3.465-7.9102 4.906-.0923.048-.0113.183.081.139z"/><path d="m32.751 111.723c3.2859 2.906 6.8603 5.543 10.6307 7.79 1.9023 1.133 3.8628 2.172 5.8901 3.068.9291.411 1.8696.794 2.8242 1.142.9547.348 2.0912.852 3.1482.893.287.012.3921-.4.1449-.536-.8652-.48-1.9264-.683-2.8569-1.019-1.0456-.377-2.0756-.796-3.09-1.253-1.9818-.895-3.8997-1.926-5.7621-3.048-3.7136-2.235-7.1857-4.814-10.7615-7.253-.1293-.088-.2856.113-.1676.217z"/><path d="m33.3007 118.311c3.0715 3.142 6.4541 6.028 10.0583 8.545 1.7985 1.255 3.661 2.422 5.5974 3.455.966.514 1.9491.995 2.9507 1.437.9149.403 1.9122.926 2.9123 1.038.3055.034.3623-.396.1449-.537-.8566-.559-1.9562-.848-2.8896-1.268s-1.9037-.903-2.8314-1.403c-1.8951-1.024-3.7192-2.175-5.4808-3.414-3.5659-2.503-6.859-5.342-10.2671-8.048-.1364-.108-.3225.065-.1961.195z"/><path d="m28.1438 122.823c1.996 2.912 4.8018 5.305 7.6914 7.3 1.4903 1.03 3.0473 1.954 4.6768 2.744 1.5883.768 3.2959 1.57 5.0362 1.917.2316.045.412-.288.1719-.406-1.5812-.777-3.249-1.366-4.8202-2.173-1.54-.79-3.0417-1.663-4.4765-2.63-2.9678-2.001-5.4795-4.455-8.0338-6.941-.1222-.119-.3481.038-.2458.189z"/></g><path d="m99.715 143.798s7.508 3.925 27.376 1.172" stroke="#c1c0c0" stroke-linecap="round" stroke-linejoin="round" stroke-width="2.2"/></svg>