<svg fill="none" height="186" viewBox="0 0 268 186" width="268" xmlns="http://www.w3.org/2000/svg" xmlns:xlink="http://www.w3.org/1999/xlink"><clipPath id="a"><path d="m.5.417969h170v185h-170z"/></clipPath><g clip-path="url(#a)"><path d="m29.5817 180.493c-.5912.377-.9295.782-1.0147 1.215-.0532.234-.0266.466.0772.7.0879.215.2291.404.4208.566.2663.216.6951.415 1.2863.599 2.7431.848 5.9362 1.399 9.5767 1.649 2.2211.154 5.5234.218 9.9043.191 2.4954-.011 4.3889-.072 5.6832-.183 2.1039-.184 3.9708-.548 5.598-1.091.6684-.221 1.2117-.503 1.6351-.84.5353-.423.8203-.897.8576-1.423.0319-.45-.1332-.865-.49-1.248-.2903-.316-.6845-.588-1.1772-.816-.711-.333-1.47-.559-2.2716-.676-.3782-.056-.815-.09-1.3076-.109-.2424-.011-.6845-.018-1.3236-.024-2.4102-.01-6.0294-.093-10.8577-.25-4.3117-.082-7.9362-.008-10.879.224-1.2091.101-2.1918.236-2.9508.407-1.0759.244-1.9974.614-2.7644 1.106z" fill="#000" fill-opacity=".2"/><path d="m46.3729 166.646.8895 3.784 10.4902-.351 1.8455-3.71c.1145-1.096-2.0719-1.596-6.5567-1.5-4.5167.09-6.7377.681-6.6685 1.777z" fill="#106651"/><path d="m48.3516 166.412-1.1079 4.183-11.4276.104-1.8748-3.974c-.0826-1.194 2.3169-1.843 7.2038-1.946 4.9215-.115 7.3237.43 7.2065 1.633z" fill="#106651"/><g fill="#efb207"><path d="m40.1411 158.308 1.8216-5.157c-11.4249 2.167-21.0176-1.383-28.7807-10.655l-2.1465 6.08c7.1612 8.155 16.8631 11.4 29.1056 9.729z"/><path d="m15.5069 146.69c.2077-.88.0133-1.761-.5886-2.636-.5992-.883-1.1957-1.431-1.7923-1.646-.5992-.224-1.3129-.141-2.1438.242-.8283.38-1.39284.992-1.69112 1.843-.30093.848-.14114 1.721.47671 2.614.61521.889 1.28101 1.458 2.00001 1.711.7191.252 1.4701.181 2.2531-.213.7803-.402 1.2756-1.04 1.486-1.915z"/><path d="m60.0535 120.229 2.2797 6.269c6.1093-2.069 12.5088-3.085 19.1987-3.053l.6871-7.527c-6.807.17-14.1973 1.606-22.1681 4.311z"/><path d="m62.3332 121.533c-.7111-.795-1.5606-1.258-2.5513-1.383-.996-.12-1.8269.133-2.4927.761-.6632.603-.9827 1.396-.9561 2.383.0266.984.3835 1.861 1.0706 2.63s1.518 1.224 2.4954 1.362c.9827.146 1.8109-.077 2.4874-.668.695-.595 1.0386-1.393 1.0333-2.396-.0134-.997-.3755-1.894-1.0839-2.689z"/><path d="m84.7756 117.256c-.6578.76-.9561 1.646-.8948 2.649.0612.989.4661 1.827 1.2171 2.51.7483.679 1.6192.998 2.6125.958 1.012-.048 1.8642-.455 2.5513-1.226.6791-.78.9854-1.679.9215-2.7-.0666-1.045-.4821-1.907-1.2517-2.585-.7777-.668-1.6725-.96-2.6845-.883-.9907.077-1.8136.503-2.4714 1.274z"/><path d="m80.3122 117.233c-.799.926-1.1585 1.993-1.0839 3.203.0745 1.199.5672 2.213 1.4727 3.034.9028.825 1.9521 1.211 3.1505 1.155 1.2224-.056 2.253-.548 3.0866-1.474.8229-.941 1.1958-2.032 1.1185-3.266-.0799-1.261-.5859-2.303-1.518-3.125-.9427-.801-2.024-1.157-3.2437-1.064-1.1958.096-2.1891.607-2.9801 1.537z"/><path d="m86.7464 113.891c-.6259-.548-1.3529-.782-2.1785-.705-.8149.072-1.4914.431-2.0293 1.077-.5327.631-.7724 1.365-.7218 2.2.0533.83.3809 1.519.9881 2.061.6125.559 1.3262.814 2.1438.764.8256-.062 1.5154-.413 2.0693-1.048.5459-.647.7936-1.397.7403-2.248-.0532-.856-.3914-1.556-1.0119-2.098z"/><path d="m87.524 121.411c-.6259-.548-1.3529-.782-2.1785-.705-.8149.072-1.4913.431-2.0293 1.077-.5326.63-.7723 1.364-.7217 2.199.0533.83.3808 1.519.988 2.062.6125.558 1.3263.814 2.1439.763.8255-.061 1.5153-.412 2.0692-1.048.546-.646.7937-1.396.7404-2.247-.0533-.857-.3915-1.556-1.012-2.099z"/></g><path d="m128.004 92.4219-.916 1.1703-7.066 1.5852 7.859 3.1703.216-.0399 2.437 12.7262 3.041-11.9602 7.441-3.2528-6.77-3.0108h-.391l-3.579-11.9872-2.275 11.5989m25.556-76.9262-1.089 1.5453-9.111 2.298 10.28 3.8167.282-.0532 3.646 16.3145 3.459-15.5486 9.473-4.4895-8.841-3.6145h-.512l-5.11-15.346431z" fill="#ffeeb6"/><path d="m57.8804 154.681c-.1225-2.471-1.4861-3.652-4.0959-3.545-3.6193.183-5.3796 2.635-5.2838 7.359.1945 4.005-.0239 9.718-.6498 17.142l-.0133.109c-.0026.071-.0053.143-.008.215-.0373 1.263.0107 2.285.1438 3.067.1332.768.9348 1.165 2.4075 1.183 1.4728.021 3.337-.005 5.5927-.072 2.245-.074 3.6725-.492 4.285-1.252.1465-.179.2716-.378.3808-.599.3436-.689.4874-1.542.4315-2.558-.0666-1.354-.8656-2.195-2.3996-2.522-.5859-.125-1.1717-.25-1.763-.372.5859-7.559.9108-13.61.9694-18.152z" fill="#efb207"/><path d="m61.0069 125.856c-.7749.37-1.7044.708-2.791 1.014-2.5539.71-5.4248 1.066-8.6153 1.066-4.3968 0-9.4062-.79-15.0255-2.37-1.0972 3.259-1.9228 6.519-2.4741 9.785-.751 4.45-.9587 8.658-.6232 12.621.2158 2.534.9668 4.84 2.2557 6.912.8389 1.359 1.8829 2.58 3.1292 3.665.5726.359 1.1692.684 1.7844.976 1.6698.788 3.4514 1.314 5.3502 1.578 1.7764.255 3.5926.273 5.4489.061 2.1545-.245 4.1012-.79 5.8403-1.639 1.9201-.931 3.4541-2.181 4.6019-3.75 1.249-1.691 2.1066-3.843 2.57-6.455.3542-1.96.5086-4.415.4687-7.362-.0027-.492-.0107-.979-.024-1.455-.0479-1.58-.1332-3.085-.2557-4.511-.2902-3.409-.8389-6.787-1.6485-10.136z" fill="#ffc421"/><path d="m54.5035 115.33c-.9188-.25-2.1332-.404-3.6459-.465-3.0253-.133-5.5154-.064-7.4648.204-2.6791.357-4.9508 1.115-6.8177 2.28-1.0466.651-1.9707 1.425-2.7723 2.324-.4767.508-.9055 1.059-1.2837 1.655-.5486.888-.9933 1.96-1.3369 3.215-.1065.325-.197.67-.2689 1.037-.2317 1.022-.4634 2.583-.6951 4.687l-.7058 6.41c-.1571 1.417-.2716 2.691-.3462 3.824-.0958 1.439-.1331 2.647-.1065 3.628.0826 2.774.5806 5.197 1.4914 7.272.4713 1.05 1.0572 2.04 1.763 2.965.474.647 1.012 1.258 1.6085 1.838.4394.442.8948.851 1.3716 1.226.506.404 1.0306.779 1.5765 1.12-1.2463-1.085-2.2903-2.309-3.1292-3.665-1.2863-2.072-2.0399-4.378-2.2557-6.913-.3382-3.963-.1305-8.17.6232-12.62.5513-3.266 1.3742-6.529 2.4741-9.785 5.6193 1.58 10.6286 2.37 15.0255 2.37 3.1905 0 6.064-.356 8.6153-1.067 1.0866-.305 2.016-.643 2.791-1.013-.3995-1.601-.8495-3.192-1.3582-4.771-.2743-.86-.5326-1.554-.7776-2.08-.3542-.748-.7564-1.365-1.2091-1.851-.7936-.86-1.8456-1.466-3.1585-1.822z" fill="#efb207"/><path d="m46.1758 176.246.008.117v.234c-.0053 1.394-.0959 2.524-.269 3.396-.1731.854-1.0732 1.328-2.6951 1.415-1.6165.088-3.6645.149-6.1439.184-2.4608.021-4.0134-.373-4.6552-1.181-.1571-.189-.2903-.402-.4021-.641.0772.011.1491.029.2157.058.4234.112.9987.235 1.7257.367.3329.088.9934.179 1.9761.266.996.102 1.771.149 2.3276.149 2.3782 0 3.9281-.138 4.6498-.415 1.2251-.47 1.835-1.542 1.8296-3.212 0-.234 0-.439 0-.617-.0133-.41-.0239-.681-.0373-.809-.0106-.178-.1438-.942-.3914-2.29l-.0586-14.543 1.4327-2.115c-.0612 3.527.0054 7.878.2024 13.054.072 2.064.1678 4.258.285 6.586z" fill="#efb207"/><path d="m40.4207 152.553v.008c2.8869.077 4.6446 1.426 5.2678 4.045l-1.4328 2.115.0586 14.543c.2503 1.348.3808 2.112.3915 2.29.0106.128.0239.396.0372.808v.618c.008 1.67-.6018 2.742-1.8296 3.212-.7217.277-2.2716.415-4.6498.415-.5566 0-1.3316-.05-2.3276-.149-.9827-.087-1.6432-.178-1.9761-.266-.7297-.133-1.3049-.255-1.7257-.367-.0666-.026-.1385-.047-.2157-.058-.3462-.745-.4741-1.678-.3782-2.806.1278-1.492 1.0386-2.455 2.7297-2.889.6498-.167 1.3023-.329 1.9575-.492-.0613-1.377-.1172-2.683-.1652-3.92-.2583-5.992-.4154-10.343-.4767-13.054.4608-2.766 2.04-4.117 4.7351-4.053z" fill="#ffc421"/><path d="m62.2613 179.87.458-1.396v-.011c-1.1052.412-1.9494.673-2.5353.785-.5779.111-1.755.268-3.5367.47-.2237.027-.4633.043-.719.053-.8842.038-1.9894.014-3.313-.071-.4927-.035-.996-.08-1.51-.139-.522-.056-1.0519-.122-1.5899-.194-.8469-.122-1.7231-.266-2.6312-.433-.0612-.069.024.212.253.843.2104.545 1.0253.936 2.4475 1.178.229.029.4713.064.7243.098l.8789.104c1.5366.149 2.9827.197 4.3356.146.1598-.008.3142-.013.466-.018 1.4275-.085 2.7218-.258 3.8856-.521 1.2756-.293 2.0693-.591 2.3835-.897z" fill="#106651"/><path d="m62.7193 178.463c.2237-.659.3942-1.263.5114-1.813.5246-2.524-.1066-4.011-1.8935-4.466-.7963-.21-1.819-.298-3.068-.261.1252-1.447.4128-2.925.8602-4.441.4314-1.514.3489-1.883-.245-1.107-.5859.761-2.1705 1.261-4.7564 1.498-2.5779.228-5.0014-.187-7.2758-1.245-.3115-.556-.4181-.482-.3195.226.245 3.803.2663 6.287.0639 7.452-.2131 1.189-.2983 2.118-.261 2.79.0453.671.229 1.285.5513 1.841.9081.167 1.7843.311 2.6312.433.5379.072 1.0679.136 1.5899.195.514.055 1.0173.103 1.51.138 1.3236.085 2.4288.109 3.313.072.2556-.011.4953-.03.719-.053 1.7817-.203 2.9588-.36 3.5367-.471.5859-.112 1.4301-.373 2.5353-.785z" fill="#25a384"/><path d="m30.4392 181.545-.4474-1.508v-.014c1.1904.399 2.1012.647 2.7351.74.6258.095 1.9041.212 3.8402.351.2424.018.5034.026.7803.026.9614 0 2.1679-.077 3.6166-.234.538-.061 1.0866-.133 1.6512-.22.5726-.088 1.1531-.181 1.7417-.285.9268-.173 1.8882-.372 2.8868-.598.0693-.078-.0346.234-.3089.936-.2503.606-1.1531 1.074-2.7137 1.404-.2504.043-.5167.09-.7937.144-.3195.053-.6418.103-.9614.157-1.6804.234-3.2597.356-4.7351.364h-.5086c-1.5526-.027-2.9588-.157-4.2158-.391-1.3795-.261-2.2344-.551-2.5673-.87z" fill="#106651"/><path d="m29.9918 180.024c-.2184-.71-.3835-1.365-.49-1.963-.4794-2.737.2636-4.396 2.2317-4.976.8762-.269 1.9921-.412 3.3556-.428-.0852-1.578-.3436-3.184-.775-4.82-.4154-1.636-.3116-2.045.3063-1.221.6098.806 2.3196 1.277 5.1319 1.415 2.8016.131 5.4621-.436 7.9815-1.702.3622-.622.474-.545.3382.234-.4075 4.176-.522 6.894-.3436 8.16.1865 1.29.2477 2.303.1811 3.04-.0745.737-.2982 1.415-.6684 2.04-.996.226-1.9574.426-2.8869.599-.5885.103-1.1691.199-1.7417.284-.5646.088-1.1132.16-1.6511.221-1.4488.157-2.6525.234-3.6166.234-.277 0-.538-.008-.7803-.027-1.9335-.138-3.2145-.255-3.8403-.351-.6338-.095-1.5446-.343-2.7351-.739z" fill="#25a384"/><path d="m48.3143 60.9469c1.8882-2.7475 3.6406-4.9604 5.2624-6.636 1.9681-2.0346 3.811-3.3991 5.5261-4.0959 1.1984-.4867 2.3515-.6516 3.4541-.492.8602.117 1.6938.4255 2.5034.9255.2237.141.4474.2979.6737.4708 1.4621 1.1357 2.8629 2.9469 4.2078 5.4311 1.1212 2.0639 2.2424 4.6651 3.3636 7.8009 1.1212 3.1357 2.1412 9.519 3.0626 19.155.9215 9.6361-1.0865 15.3464-6.0294 17.1337l-31.6969 4.7c-.9667-10.7108-.0665-20.0995 2.6952-28.1664 2.759-8.0642 5.0813-13.474 6.9721-16.2267z" fill="#ffc421"/><path d="m24.4844 63.8645c-2.6472-2.0294-5.0014-3.5879-7.0627-4.6784-2.5034-1.3245-4.6792-2.0533-6.5274-2.1836-1.29163-.0931-2.43679.109-3.43813.6037-.78297.3777-1.47806.9283-2.09324 1.657-.16778.2048-.3329.4229-.49535.6543-1.03597 1.532-1.80829 3.6863-2.31695 6.4657-.42344 2.3113-.68177 5.1279-.77498 8.4552-.09321 3.3272.91879 9.7132 3.03334 19.1604 2.11454 9.4472 5.79771 14.2532 11.04941 14.4232l31.5957-5.343c-2.4075-10.4819-6.1758-19.1312-11.3051-25.9453-5.1239-6.8141-9.0121-11.2372-11.6646-13.2692z" fill="#ffc421"/><path d="m8.84101 120.045c-.0506-.043-.10652-.091-.16778-.136-.11718-.101-.23702-.197-.35952-.293.1731.144.34887.288.5273.431m10.38099-48.8343c-1.0147.5479-1.9814 1.1251-2.9002 1.7262-4.6126 2.9761-8.1812 6.5322-10.70055 10.6706-.13848.2075-.26897.4203-.38615.6357-.55128.9522-1.04929 1.9389-1.49404 2.9629-.06924.0931-.11185.1941-.12783.3005-.03728.0639-.06658.125-.09054.1836-.40214.9122-.80428 1.9867-1.20641 3.2182-.71107 12.3066 3.47808 21.4606 12.57272 27.4636 15.7766 8.799 35.5878 8.442 59.4337-1.069 1.0307-.832 1.9761-1.721 2.8416-2.665 4.9482-5.415 7.0095-11.479 6.1839-18.1922-1.2224-10.2531-5.0227-18.1949-11.401-23.8308-2.7111-2.3964-6.4715-4.3752-11.2811-5.9337-5.8031-1.8858-12.7113-2.3166-20.7247-1.2873-7.5607.4601-14.469 2.399-20.7247 5.8167z" fill="#ffc421"/><path d="m2.3216 90.907c-.71639 2.1942-1.14249 3.6065-1.27299 4.2342-.074567.25-.133157.5106-.181093.7819-.071906.3139-.125169.6304-.15979.9442-.061253.383-.098537.7687-.109189 1.157-.082558.5878-.114516 1.1729-.095874 1.7554-.002663.0505-.005326.101-.002663.1516 0 .0292.005326.0638.021305.1037.082558 3.798 1.179784 7.617 3.289004 11.453.26631.484.54328.952.83356 1.407.1012.167.20773.332.31692.494.0506.08.39681.535 1.03863 1.365.63117.832 1.84557 2.154 3.64054 3.963.11718.095.23436.194.3542.295.05594.048.10914.093.15974.138l1.1718.928c.3995.301.807.594 1.2251.875.0106 0 .024.011.0426.032.0107.008.0266.016.0479.024 3.7604 2.511 8.3357 4.149 13.7286 4.921 5.3769.763 9.8803.981 13.5155.662.1279-.016.2557-.027.3809-.032.0745-.005.1438-.008.2104-.011 4.4128-.114 8.4874-.449 12.2292-1.005.7004-.104 1.3955-.215 2.0879-.338 1.5793-.29 3.0999-.611 4.562-.965.4847-.136.9747-.271 1.4701-.404.213-.056.4314-.117.6551-.181.1118-.035.2237-.069.3409-.104.4207-.128.8362-.258 1.2463-.391 4.4768-1.476 8.2345-3.428 11.2705-5.862-23.8459 9.511-43.6571 9.868-59.4337 1.069-9.09466-6.003-13.28647-15.16-12.57275-27.4637z" fill="#efb207"/><path d="m25.0064 82.3125c-3.7711.4734-6.8071 2.2421-9.1107 5.3034-2.2983 3.0613-3.2064 6.5216-2.7191 10.3808.4847 3.8543 2.2238 6.9813 5.2118 9.3833 2.9908 2.391 6.373 3.349 10.1413 2.875 3.7498-.471 6.7724-2.234 9.0681-5.29 2.3196-3.069 3.2357-6.5295 2.7484-10.3834-.4874-3.8592-2.2344-6.9843-5.2411-9.378-2.9828-2.3964-6.349-3.3592-10.0987-2.8884z" fill="#fff"/><path d="m60.8844 77.7988c-3.771.4735-6.807 2.2421-9.1106 5.3035-2.2983 3.0613-3.2065 6.5215-2.7191 10.3807.4847 3.8539 2.2237 6.982 5.2118 9.383 2.9907 2.391 6.3729 3.349 10.1413 2.876 3.7497-.471 6.7724-2.235 9.068-5.291 2.3196-3.0689 3.2358-6.5291 2.7484-10.383-.4873-3.8592-2.2344-6.9844-5.2411-9.3781-2.9827-2.3964-6.3489-3.3592-10.0987-2.8884z" fill="#fff"/><path d="m34.6337 88.8598c-.9614-.7421-2.04-1.0373-3.2357-.8857-1.1958.1516-2.1652.7022-2.9082 1.6597-.743.9495-1.0386 2.024-.8895 3.2182.1518 1.2048.7057 2.1756 1.6618 2.9177.9587.7473 2.0347 1.0452 3.2304.8936 1.1958-.1516 2.1678-.7075 2.9135-1.6676.743-.9548 1.0386-2.0347.8868-3.2395-.1518-1.1942-.703-2.1597-1.6591-2.8964z" fill="#413535"/><path d="m67.244 83.9321c-.9614-.7421-2.0399-1.0373-3.2357-.8857-1.1957.1516-2.1651.7021-2.9082 1.6596-.743.9495-1.0386 2.0241-.8894 3.2183.1518 1.2048.7057 2.1756 1.6618 2.9176.9587.7474 2.0346 1.0453 3.2304.8937 1.1957-.1516 2.1678-.7075 2.9135-1.6676.743-.9549 1.0386-2.0347.8868-3.2395-.1518-1.1942-.7031-2.1597-1.6592-2.8964z" fill="#413535"/><path d="m48.9828 109.982c-.3755.037-.7457.095-1.1026.175-1.6698.367-3.1105 1.17-4.3196 2.407-1.4248 1.468-2.1359 3.112-2.1385 4.931 0 .474.0319.915.1038 1.325.1971 1.088.6578 1.949 1.3875 2.582.9055.79 1.9095 1.282 3.0174 1.479 1.1132.197 2.1385.253 3.0813.17.9454-.082 1.9601-.311 3.044-.683 1.0892-.37 2.0373-1.088 2.8389-2.155.8202-1.09 1.2756-2.505 1.3662-4.244.0106-.216.0106-.429 0-.639-.0746-1.532-.7217-2.816-1.9388-3.856-.8495-.721-1.8296-1.187-2.9428-1.399-.743-.147-1.5419-.176-2.3942-.088z" fill="#684e3a"/><path d="m49.6539 100.702c-.8549-.149-1.7603-.167-2.7217-.058-.9641.109-1.9788.346-3.0387.713-2.1146.704-4.1199 2.364-6.0134 4.976-1.8802 2.606-2.6499 4.811-2.317 6.615.3383 1.819 1.7178 3.109 4.1386 3.869 2.4634.766 5.2464-.039 8.349-2.417 4.2078 1.431 7.3317 1.399 9.3716-.093 1.6512-1.213 2.3862-2.527 2.2051-3.945-.0479-.335-.1438-.673-.2876-1.01-.7643-1.796-2.1465-3.617-4.1465-5.469-1.9681-1.835-3.8137-2.893-5.5421-3.178z" fill="#ffc421"/><path d="m46.807 106.873c-.0826.119-.1012.356-.0613.713l.5646 5.574c-.1065.202-.2104.386-.3142.554-.9534 1.404-2.3356 2.303-4.1519 2.699-.7377.152-1.7071.106-2.9108-.136-1.2011-.236-2.3329-1.172-3.3929-2.806-.3302.487-.3861 1.067-.1624 1.737.2263.676.6871 1.269 1.3821 1.78.7005.51 1.4648.888 2.293 1.13 1.0626.266 2.0693.343 3.02.237 1.9708-.229 3.7391-1.248 5.3051-3.056 2.2477 1.295 4.1864 1.84 5.8163 1.638 1.6352-.202 2.6099-.452 2.9215-.753.751-.42 1.3236-1.021 1.7124-1.8.3888-.78.5806-1.423.5699-1.926-.0053-.5-.1917-1.032-.5646-1.596-.6072 1.976-1.4514 3.221-2.53 3.735-.7696.351-1.5366.531-2.2983.545-1.8509.026-3.3982-.543-4.6445-1.705-.1332-.133-.277-.287-.4288-.463l-.5699-5.085c-.1279-.67-.2211-1.059-.2823-1.162-.5806-1.07-1.0067-1.022-1.2757.143z" fill="#684e3a"/><path d="m44.0293 105.815c-.3143.237-.5593.485-.727.737.5752 2.061 2.1252 3.184 4.6445 3.362 2.2184-.311 3.5367-1.604 3.9495-3.878-.3622-.401-.8043-.721-1.3263-.96-.9454-.433-2.0666-.577-3.3635-.431-1.297.146-2.3543.537-3.1745 1.17z" fill="#684e3a"/><path d="m66.3173 37.5716c.0612.3245.0879.6649.0825 1.0213-.0159 1.1012-1.707 3.3778-5.0706 6.8248-3.3636 3.4496-5.0627 6.2902-5.0946 8.527-.0453 2.9815.0559 4.8778.3009 5.6917.5539 1.8884 2.1146 3.8087 4.6818 5.7582.514.3963 1.2517.8298 2.2184 1.298.1598.0984.3223.2154.4821.3484 1.6272 1.0585 3.0786 1.6782 4.3516 1.8644.4021.2101.6604.3431.7723.4016l.6232.5453.5326.25.5779.4468c.016.0426.032.0771.0479.0984.0826.4096.2078.7687.3729 1.0745.5459 1.024 1.494 1.6384 2.8442 1.8432.277.0851.5034.1356.6791.1569.1625.0346.4368.0559.8256.0612 1.0387.0159 1.7044-.0053 1.9974-.0665.4234-.0585.7324-.1516.9294-.2766l.4448-.4309 1.2889-1.5346c.1998-.2554.3143-.4495.3489-.5772l.0559-.484c.6632-4.6811-1.1345-6.9126-5.3982-6.6945-.5486-.2021-1.1292-.3564-1.7443-.4654-4.2078-.7767-7.0441-1.8911-8.5168-3.3379-1.0866-1.0533-1.6139-2.6012-1.5846-4.6412.0399-2.6251 1.811-5.9683 5.313-10.0297 1.0892-1.2793 2.0133-2.2208 2.7697-2.8246h.0479c3.4595-4.5587 3.3449-8.8541-.3382-12.8862-.3222-.101-.743-.1569-1.2623-.1649-.6525.1516-1.3369.3511-2.0533.6011-1.4674.4974-2.4022 1.0639-2.8017 1.7076-.2982.4814-.4607 1.5-.4847 3.0559.269 1.4309.8549 2.3778 1.7577 2.8459m74.8264-7.12c-.519-.008-.942.0346-1.267.1277-2.581 4.3246-2.791 8.6333-.637 12.9207.727.6224 1.606 1.5772 2.634 2.8592 3.377 4.1677 5.044 7.5642 5.004 10.1866-.032 2.04-.607 3.572-1.726 4.5906-1.515 1.4017-4.386 2.4283-8.615 3.0773-.602.0851-1.172.2075-1.71.3617-3.941.8485-5.776 2.9895-5.502 6.4311-.042.0798-.077.1596-.101.2421-.035.1622.011.4043.136.7314.125.2926.298.5878.522.883l1.632 1.532c.054.0558.102.1037.144.1489 1.904 1.7927 3.998 1.8086 6.28.0479.343-.3085.591-.5958.743-.8644.165-.258.317-.6277.455-1.1117.123-.4336.208-.7581.259-.9682.117-.0665.231-.1303.343-.1888l2.112-1.2314c.218-.1224.432-.2474.639-.3804 1.055-.2659 2.216-.7846 3.481-1.5506.165-.1276.328-.2367.493-.3324.98-.4389 1.733-.8485 2.258-1.2288 2.626-1.8724 4.242-3.7422 4.858-5.6146.271-.8059.431-2.6996.476-5.6811.035-2.2368-1.576-5.1279-4.831-8.6786-3.254-3.5507-4.873-5.8752-4.857-6.9763.005-.3564.042-.6969.112-1.0187.916-.4388 1.528-1.3697 1.843-2.79.023-1.5559-.107-2.5773-.392-3.0693-.378-.6543-1.294-1.25-2.746-1.7926-.711-.2713-1.387-.4921-2.034-.6623z" fill="#f1a029"/><path d="m127.967 140.599 1.859-16.548c-13.33 3.277-31.0475 3.33-53.157.159.1518.708.3169 1.535.498 2.487.1438 1.008.5193 3.008 1.1238 5.998.2024 1.088.8682 3.173 1.9974 6.253 13.1853 4.995 29.0768 5.545 47.6758 1.651z" fill="#a85201"/><path d="m124.395 119.498c-.314-.128-.316.083-.01.633l-42.2326-1.229c-.5193.397-1.1931.873-2.0187 1.429-2.2743 1.601-3.4221 2.425-3.4461 2.476.016.244-.0852.356-.2983.335.0853.33.1758.689.2743 1.074 22.1096 3.171 39.8274 3.118 53.1564-.159l-5.275-5.088c.247.484.197.662-.155.532z" fill="#bf6611"/><path d="m125.919 121.902c.423-.122.751-.247.98-.375 1.012-.34 1.523-.997 1.539-1.971.011-.75-.074-1.446-.261-2.093-17.792 1.245-32.9778.04-45.5532-3.614-.8789.569-1.4514.965-1.7231 1.189-.0399.061-.0745.109-.0985.143-.6658 1.027-1.0067 2.237-1.028 3.631-.016.986.4607 1.641 1.4301 1.965.2663.16.5886.293.9668.405.3115.199.6018.3.8708.305.032 0 .0639-.016.0985-.047 1.5846.406 3.9016.731 6.9456.981 3.2091.261 7.5207.569 12.932.928v.048l.876.013h.048.147c.04 0 .072 0 .098.003l.829.013v-.048c5.451-.191 9.784-.367 13.004-.529 3.052-.149 5.377-.388 6.972-.721h.098c.259.003.536-.071.831-.231m-22.786-2.875v-.099c.064.032.115.051.147.051-.035 0-.083.016-.147.045m-.186 2.623h.146c-.039.005-.087.002-.146 0zm-5.4515-41.2574c.9454 1.2261 2.0826 2.1995 3.4115 2.9203 2.533.9415 5.079.9788 7.641.117v-.0479c1.329-.6622 2.479-1.5851 3.451-2.766v-.0479c-5.324.6995-10.634-.1277-15.9256-2.4788.3435.7287.8176 1.4974 1.4248 2.3059m-10.6846 23.8998c-.024.011-.0559.024-.0985.048v.098.099c-.4581.282-.7537.55-.8895.814-.1359.322-.2877.79-.4608 1.401-.1384.516-.2556.873-.3568 1.064-.0107.681-.1465 2.139-.4075 4.37-.0666.149-.1651.295-.2983.434 13.1907 1.957 26.3498 1.994 39.4738.117-.16-2.213-.237-3.657-.227-4.33-.093-.197-.202-.553-.325-1.075-.152-.617-.29-1.09-.415-1.415-.125-.26-.413-.54-.863-.84v-.147c-.029-.066-.061-.098-.093-.098-.9-.5-3.327-.989-7.279-1.473-.357-.038-1.195-.391-2.514-1.059-1.51-.963-2.647-1.968-3.409-3.0187-.636-3.4602-.892-6.8354-.769-10.1228l-6.754-4.04c.479 4.6092.33 9.0163-.445 13.216-.149.3058-.317.5771-.498.8192-.7933 1.0243-1.9598 1.9943-3.4991 2.9123-.5406.34-1.0466.625-1.5233.851-.3249.056-.6685.101-1.0253.13-3.9655.362-6.4049.777-7.321 1.25m52.3847-60.8399c.016.0133.032.0293.048.0505l.567-8.4498c-14.301 1.3006-28.227 1.4761-41.7719.5266-13.5208-.9495-22.4584-2.2049-26.8126-3.7634l.2743 10.6494c-.032 2.1543.0506 4.2448.245 6.2742.0852.7793.213 1.9469.3835 3.5054.0266.3884.0532.8112.0772 1.2661.0266.3244.0719.6489.1305.9734.0266.4176.0533.8405.0772 1.266.0586.4628.0852.7075.0852.7314 0 .0559-.0053.282-.0106.6809.0266.391.1625.9602.4128 1.7075 1.2037 6.7769 3.7737 10.6255 7.7072 11.5431 1.494 1.0825 4.1199 2.2235 7.8829 3.4257 2.6791.8511 4.9908 1.5027 6.9295 1.9522 6.4898 1.4734 12.7508 1.5692 18.7828.2872 1.953-.391 4.283-.9708 6.989-1.7394 2.836-.8006 5.038-1.5932 6.607-2.3778.604-.3059 1.11-.6223 1.523-.9495 2.613-1.5745 4.059-2.7501 4.339-3.5321.311-.7447.676-1.2739 1.094-1.5878.455-.2819 1.041-1.5533 1.763-3.814.748-2.2261 1.145-3.7103 1.188-4.455v.1463c-.005.1516.013.117.048-.0957.069-.2155.125-.7155.168-1.5054.077-.7793.133-1.3299.17-1.649.04-.4522.077-.8751.117-1.2634.219-1.5532.384-2.7155.493-3.4921.258-2.0374.405-4.1412.437-6.3142h.048m.916-15.2985c.01-.6489-.307-1.2527-.946-1.8139-1.089-.9894-2.996-1.5054-5.72-1.5453-.583-.0079-1.071 0-1.46.0266-1.587-.1862-4.002-.3856-7.243-.5957l-18.587-.5267c-.13 0-.293.0107-.487.0399-.226-.0345-.421-.0558-.583-.0585l-18.5943-.0425c-3.2464.1117-5.6672.2367-7.2598.375-.3888-.0373-.8762-.0612-1.4594-.0718-2.7244-.0426-4.6472.4149-5.7657 1.3697-.6578.5399-.9907 1.1357-1.0014 1.7847 0 .0319.024.5026.0746 1.4096 0 .0984.0133.1782.0453.2447-.032.0319-.0506.0798-.0506.1463.0239.1569.0373.3191.0399.4867l68.6984 1.9735.062-.7766c.034-.2261.072-.4362.106-.6304 0-.0638-.013-.1144-.045-.1463.035-.0638.051-.1463.053-.242.08-.907.117-1.3751.12-1.407z" fill="#ffc023"/><path d="m103.133 118.93v.098c.064-.032.112-.045.146-.045-.034 0-.082-.019-.146-.051z" fill="#ffd6a6"/><path d="m125.402 114.311c-.804-.532-1.347-1.024-1.632-1.484 0-.027 0-.059 0-.099-13.127 1.878-26.2831 1.841-39.4737-.117-.3036.335-.7484.686-1.3316 1.048-.1066.067-.2211.13-.3436.189 12.5781 3.652 27.7609 4.857 45.5529 3.614-.146-.558-.364-1.082-.657-1.566-.08-.114-.304-.311-.671-.593-.333-.245-.815-.577-1.447-.995m-29.3316-36.2275c5.2946 2.3538 10.6016 3.181 15.9286 2.4788 1.355-1.6703 2.093-3.165 2.21-4.4869-6.032 1.282-12.293 1.1862-18.7831-.2872.04.7101.2557 1.4761.6472 2.2953m4.8359 5.2263c.083.6064.155 1.2075.216 1.8032l6.754 4.0401c.093-1.9336.317-3.8406.671-5.7263-2.559.8617-5.108.8245-7.641-.117zm38.901-48.2601.008-3.6943-68.6987-1.9735c.024.0532.0399.1037.0453.1463l.0612 2.2847c4.3516 1.5585 13.2892 2.8139 26.8127 3.7634 13.5475.9495 27.4705.774 41.7715-.5266z" fill="#f1a029"/><path d="m113.78 72.2306c11.079-.6011 17.627-4.3087 19.641-11.1228 2.857-10.2611 4.306-18.0008 4.346-23.2191-4.383.6915-7.521 1.016-9.409.9734.192 16.5752-4.668 27.698-14.578 33.3685z" fill="#ffdd8c"/><path d="m72.9672 137.001c-9.6273 1.308-19.204.332-28.7302-2.931l.8203-7.74c9.0867 3.186 18.7593 4.037 29.0204 2.559 1.5766 3.393 1.2064 6.098-1.1105 8.109z" fill="#efb207"/><path d="m44.4581 134.141c-.9135-.114-1.6565-.588-2.2291-1.426-.5646-.835-.7909-1.779-.6791-2.835.1119-1.053.53-1.928 1.2597-2.62.735-.707 1.5633-1.021 2.4794-.933.9374.08 1.7017.54 2.293 1.38.5938.835.8309 1.798.7164 2.889-.1146 1.09-.5513 1.981-1.305 2.673-.7537.697-1.5979.986-2.53.869z" fill="#efb207"/><path d="m83.0792 131.315c.3089 1.088.1944 2.117-.3436 3.083-.5539.957-1.3582 1.58-2.4154 1.862-1.036.276-2.0294.14-2.9748-.41-.9454-.54-1.5659-1.333-1.8642-2.378-.293-1.029-.1811-2.029.3356-2.995.5193-.96 1.2889-1.598 2.3142-1.912 1.0493-.314 2.0613-.205 3.0414.333.972.55 1.6085 1.356 1.9094 2.417z" fill="#efb207"/><path d="m79.7369 131.995c.3729 1.314.2344 2.556-.4208 3.729-.6711 1.154-1.6458 1.904-2.9214 2.247-1.2517.333-2.4475.168-3.59-.494-1.1451-.655-1.8961-1.615-2.2557-2.873-.3542-1.25-.2183-2.455.4075-3.62.6232-1.162 1.5526-1.931 2.791-2.306 1.265-.383 2.49-.25 3.6725.394 1.1771.665 1.9467 1.638 2.3143 2.926z" fill="#efb207"/><path d="m74.882 135.269c.4234-.79 1.0573-1.304 1.9095-1.546.8628-.234 1.6911-.125 2.4847.325.791.463 1.3103 1.136 1.5633 2.021.253.891.1624 1.726-.277 2.5-.4421.782-1.0972 1.282-1.9654 1.5-.8549.221-1.6725.099-2.4528-.367-.7696-.449-1.2783-1.111-1.526-1.981-.245-.865-.1571-1.684.2637-2.455z" fill="#efb207"/><path d="m72.9698 127.333c.4235-.79 1.0573-1.303 1.9095-1.545.8629-.234 1.6911-.125 2.4847.324.791.463 1.3103 1.136 1.5633 2.022.253.891.1625 1.726-.2769 2.5-.4421.782-1.0973 1.282-1.9655 1.5-.8548.221-1.6724.096-2.4527-.367-.7697-.45-1.2783-1.112-1.526-1.982-.245-.864-.1571-1.683.2636-2.455z" fill="#ffd154"/><path d="m79.2416 131.349c.3062 1.077.1092 2.119-.5912 3.127-.7164.995-1.7125 1.665-2.9881 2.016-1.249.338-2.4235.256-3.518-.247-1.0973-.489-1.795-1.253-2.0906-2.287-.2903-1.024-.1012-2.038.5752-3.035.6685-1.003 1.6219-1.689 2.8629-2.059 1.2677-.377 2.4688-.321 3.6059.163 1.1292.492 1.8429 1.268 2.1439 2.324z" fill="#ffd154"/><path d="m82.9274 130.78c.261.912.1038 1.792-.4687 2.643-.5859.841-1.4088 1.405-2.4661 1.687-1.036.276-2.0107.202-2.9242-.226-.9108-.423-1.4913-1.072-1.7417-1.947-.245-.865-.0932-1.721.4554-2.57.554-.837 1.3423-1.412 2.3676-1.728 1.0493-.309 2.0479-.256 2.9934.162.9347.425 1.5313 1.085 1.7843 1.976z" fill="#ffd154"/><path d="m78.5998 133.235c.6657.428 1.1105 1.04 1.3369 1.835.229.801.1677 1.545-.1785 2.231-.3462.687-.8762 1.12-1.5872 1.298-.7004.176-1.3795.048-2.032-.383-.6392-.417-1.0706-1.021-1.2943-1.806-.221-.774-.1678-1.502.1598-2.183.3329-.694.8469-1.141 1.542-1.338.7084-.189 1.3928-.074 2.0559.343z" fill="#ffd154"/><path d="m41.5259 130.185c.7537.593 1.6219 1.122 2.6046 1.59 1.2996.612 2.9295 1.168 4.8949 1.665 4.4768 1.144 9.0387 1.822 13.6886 2.035 4.04.186 8.0534.013 12.0402-.519.5938-1.811.3728-3.835-.6632-6.072-9.6007 1.388-18.6873.731-27.2547-1.971-.4501-.338-.9668-.534-1.5473-.59-.9188-.08-1.7444.231-2.4794.933-.7271.7-1.1478 1.575-1.2597 2.628-.0106.098-.0186.2-.024.298z" fill="#ffd154"/></g><path d="m204.789 175.735c-1.178.39-2.178.984-3 1.781-.634.594-.975 1.245-1.024 1.952-.049.35 0 .72.146 1.111.106.341.281.646.525.915.325.349.821.671 1.488.963 3.195 1.375 6.825 2.254 10.89 2.636 2.422.252 6.125.358 11.109.317 2.829-.024 4.947-.126 6.354-.305 2.365-.293 4.426-.874 6.182-1.745.724-.349 1.309-.797 1.757-1.342.569-.691.845-1.456.829-2.293 0-.692-.22-1.359-.659-2.001-.349-.497-.813-.932-1.39-1.306-.805-.52-1.675-.882-2.61-1.086-.447-.089-.939-.146-1.475-.171l-1.488-.036c-2.699-.025-6.764-.159-12.195-.403-4.837-.13-8.894-.008-12.17.366-1.334.155-2.423.37-3.269.647z" fill="#000" fill-opacity=".14902"/><path d="m209.876 127.634c-.204.036-.443.038-.717.005-9.398-1.202-17.763-3.999-25.096-8.389l3.368-6.076c6.176 3.24 13.485 5.689 21.929 7.347.918.191 1.625.694 2.121 1.509.27.487.444.993.521 1.519.045.368.063.701.056.997-.048.936-.321 1.698-.819 2.287-.39.461-.844.728-1.363.801z" fill="#dd7287"/><path d="m180.746 112.568c1.027-.269 1.983-.142 2.869.381.863.519 1.428 1.278 1.696 2.275.256.996.13 1.942-.376 2.837-.505.883-1.252 1.471-2.242 1.763s-1.931.194-2.822-.295c-.912-.504-1.513-1.257-1.803-2.258-.277-1.011-.151-1.983.38-2.914.519-.904 1.286-1.501 2.298-1.789z" fill="#dd7287"/><path d="m189.644 116.787c.313 1.215.168 2.355-.436 3.42-.618 1.074-1.525 1.787-2.722 2.139-1.184.342-2.319.223-3.405-.356-1.083-.601-1.807-1.511-2.172-2.728-.336-1.219-.185-2.392.453-3.522.634-1.106 1.564-1.83 2.789-2.171 1.227-.324 2.379-.167 3.456.468 1.061.627 1.74 1.544 2.037 2.75z" fill="#dd7287"/><path d="m184.773 122.152c-.431.751-1.047 1.243-1.847 1.479-.831.249-1.611.179-2.339-.207-.744-.395-1.232-1.004-1.463-1.827-.223-.811-.118-1.596.315-2.358.426-.756 1.054-1.259 1.886-1.507.829-.237 1.615-.152 2.357.254.729.416 1.195 1.036 1.398 1.86.213.797.11 1.566-.307 2.306z" fill="#dd7287"/><path d="m182.678 114.733c-.234-.812-.132-1.601.308-2.367.426-.756 1.054-1.259 1.886-1.507.823-.232 1.608-.142 2.354.271.72.403 1.186 1.017 1.4 1.843.213.797.11 1.572-.309 2.324-.429.738-1.047 1.228-1.854 1.468-.815.257-1.591.186-2.329-.214-.744-.395-1.229-1.001-1.456-1.818z" fill="#dd7287"/><path d="m209.484 154.371.11 4.184c.057 2.546.366 6.735.927 12.567-1.244.277-2.13.488-2.658.635-1.61.439-2.496 1.427-2.659 2.964l-.049.745c-.008.829.11 1.541.354 2.135.097.244.219.463.366.658.585.846 2.048 1.261 4.39 1.245 2.439-.024 4.382-.077 5.829-.159 1.528-.073 2.39-.553 2.585-1.439.187-.911.293-2.074.317-3.49l.013-.244-.013-.11c-.065-3.334-.105-5.596-.122-6.783-.073-5.149-.044-9.626.086-13.433-.52-2.692-2.155-4.087-4.902-4.185v-.012c-2.545-.073-4.07 1.501-4.574 4.722z" fill="#dd7287"/><path d="m205.899 177.419c-.536-.252-.878-.289-1.024-.11-.073.089-.122.26-.147.512-.024.269.009.492.098.671.098.204.313.415.646.635.374.244 1.11.581 2.208 1.012 1.122.44 2.849.488 5.182.147 2.439-.342 4.179-.631 5.22-.866 1.146-.244 1.833-.436 2.061-.574.219-.154.357-.345.414-.573.057-.261.074-.505.049-.732-.073-.195-.183-.334-.329-.415-.081-.049-.268-.106-.561-.171-.724.325-1.533.582-2.427.769-1.106.227-2.671.443-4.695.646-1.227.122-2.52.053-3.878-.207-1.309-.252-2.248-.5-2.817-.744z" fill="#51887c"/><path d="m204.765 174.319c-.106.488-.118 1.102-.037 1.842.082.692.204 1.212.366 1.562.163.317.789.679 1.878 1.086 1.09.415 2.342.541 3.756.378l2.89-.317c1.22-.155 2.334-.33 3.342-.525l1.963-.402c.838-.212 1.305-.407 1.403-.586.122-.228.183-.752.183-1.574 0-.854-.074-1.594-.22-2.221-.325.334-1.427.696-3.305 1.086-1.894.391-3.3.647-4.219.769-1 .13-2.069.22-3.207.268-1.48.049-3.078-.406-4.793-1.366z" fill="#65c0ac"/><path d="m204.765 174.319c1.715.96 3.313 1.415 4.793 1.367 1.138-.049 2.207-.139 3.207-.269.918-.122 2.325-.378 4.219-.768 1.878-.391 2.98-.753 3.305-1.086.098-.854.02-1.505-.232-1.952-2.097.854-4.304 1.297-6.621 1.329.016-.187-.061-.418-.232-.695-.155-.26-.37-.455-.646-.586-.228-.089-.606-.195-1.135-.317l-1.292-.256c-.358-.073-.663-.102-.915-.085-.244.024-.63.166-1.158.427-.732.374-1.289.658-1.671.854-.594.333-1.02.638-1.281.915-.276.325-.39.699-.341 1.122z" fill="#69dbd6"/><path d="m248.337 151.187c-1.544.96-3.309 1.529-5.292 1.708-1.878.171-3.744-.025-5.598-.586-1.715-.52-3.386-1.35-5.012-2.489-1.179-.829-2.313-1.801-3.402-2.916l-2.5 1.233c-.553.276-.899.561-1.037.854-.162.382-.077.89.256 1.525.83 1.651 1.952 3.127 3.366 4.429 1.374 1.277 2.931 2.301 4.671 3.074 1.675.74 3.475 1.232 5.402 1.476 1.878.236 3.752.228 5.622-.024 2.512-.342 4.402-1.094 5.67-2.257.789-.708 1.346-1.582 1.671-2.623.317-1.082.277-2.083-.122-3.002-.357-.699-.78-1.102-1.268-1.208-.358-.105-.772-.061-1.244.135-.228.089-.622.313-1.183.671z" fill="#dd7287"/><path d="m210.131 123.138c-.951-.325-1.769-.667-2.451-1.025-.854 2.961-1.488 5.999-1.903 9.114l-.402 3.49c0 .252-.029.577-.086.976l-.085 1.512c-.033.432-.065 1.086-.098 1.965l-.012.732c-.049 2.033.016 3.815.195 5.344.366 3.066 1.171 5.624 2.415 7.674 1.219 1.944 2.833 3.497 4.841 4.661 1.903 1.024 3.992 1.671 6.268 1.94l.427.036c.821.049 1.557.069 2.208.061 1.073-.065 2.081-.191 3.024-.378 1.927-.415 3.662-1.131 5.207-2.147.52-.35 1.065-.761 1.634-1.233 1.065-1.301 1.903-2.757 2.512-4.368.919-2.342 1.285-4.868 1.098-7.576-.212-4.026-.903-8.093-2.073-12.201-.797-2.904-1.797-5.726-3-8.467-4.415 1.025-8.492 1.44-12.232 1.244-2.748-.17-5.243-.622-7.487-1.354z" fill="#f38da1"/><path d="m208.862 118.806c-.439 1.123-.833 2.225-1.182 3.306.682.358 1.5.7 2.451 1.025 2.244.732 4.739 1.184 7.487 1.355 3.74.195 7.817-.22 12.232-1.245 1.203 2.741 2.203 5.564 3 8.467 1.17 4.108 1.861 8.175 2.073 12.201.187 2.709-.179 5.234-1.098 7.577-.609 1.61-1.447 3.066-2.512 4.368.537-.464.996-.92 1.378-1.367.399-.447.781-.943 1.147-1.488.495-.708.906-1.42 1.231-2.136.512-1.057.903-2.155 1.171-3.294.228-.96.374-1.968.439-3.026l.024-1.769c.008-.073 0-.138-.024-.195l.012-.329c0-.309-.016-.574-.049-.793-.016-.529-.057-.997-.122-1.403-.113-1.05-.317-2.225-.609-3.526-.179-1.074-.435-2.257-.769-3.551l-1.78-7.637c-.252-1.196-.602-2.595-1.049-4.197-.455-1.692-1.032-3.051-1.731-4.075-.675-1.058-1.964-1.843-3.866-2.355-1.179-.35-2.529-.59-4.049-.72l-.524-.049c-.765-.081-1.59-.13-2.476-.146-1.748-.057-3.378.004-4.89.183-2.122.244-3.459.683-4.012 1.318-.594.691-1.228 1.858-1.903 3.501z" fill="#dd7287"/><path d="m229.825 117.721c-.284.089-.532.195-.743.317l-.281.171c-.772.52-1.276 1.244-1.512 2.171-.22.928-.09 1.774.39 2.538.179.285.399.533.659.744 1.943 1.969 4.422 5.084 7.439 9.346 3.073 4.335 5.101 8.52 6.085 12.555l6.731-2.758-.048-.195c-1.789-5.71-3.769-10.358-5.939-13.945-1.179-1.961-2.407-3.6-3.683-4.917-3.707-3.831-5.833-5.783-6.378-5.857l-1.232-.207c-.252-.057-.5-.081-.744-.073-.235 0-.483.036-.744.11z" fill="#dd7287"/><path d="m229.825 117.721c-.536.496-.894 1.114-1.073 1.854-.219.936-.089 1.777.391 2.526.187.301.402.549.646.744 1.878 1.895 4.357 5.01 7.439 9.346 3.057 4.302 5.089 8.487 6.097 12.554l5.22-2.135c-1.789-5.71-3.769-10.358-5.939-13.945-1.179-1.961-2.407-3.6-3.683-4.917-3.691-3.823-5.768-5.791-6.232-5.905-.439-.106-.821-.179-1.146-.22-.309-.033-.61-.045-.902-.037-.326.025-.598.07-.818.135z" fill="#f38da1"/><path d="m247.285 148.975c.901-.398 1.535-1.064 1.9-1.999.357-.942.329-1.856-.085-2.742-.414-.87-1.076-1.475-1.986-1.816-.934-.333-1.836-.305-2.705.085-.893.39-1.519 1.04-1.876 1.95-.374.902-.369 1.8.012 2.694.374.894 1.024 1.532 1.95 1.914.926.357 1.855.329 2.79-.086z" fill="#dd7287"/><path d="m248.454 140.369c-.487-1.056-1.287-1.788-2.4-2.194-1.104-.414-2.193-.382-3.265.097-1.072.48-1.827 1.268-2.266 2.365-.455 1.089-.455 2.17 0 3.242.479 1.089 1.267 1.857 2.364 2.304 1.12.431 2.245.402 3.374-.085 1.097-.488 1.864-1.296 2.303-2.426.422-1.129.386-2.23-.11-3.303z" fill="#dd7287"/><path d="m242.74 142.198c-.739-.276-1.478-.252-2.217.073-.731.325-1.251.858-1.559 1.597-.317.764-.325 1.507-.025 2.231.301.739.829 1.255 1.584 1.548.731.292 1.482.272 2.254-.061.763-.342 1.295-.89 1.596-1.646.3-.755.292-1.503-.025-2.243-.316-.731-.852-1.231-1.608-1.499z" fill="#dd7287"/><g fill="#f38da1"><path d="m249.551 139.505c-.74-.276-1.479-.252-2.218.073s-1.263.857-1.571 1.597c-.309.764-.313 1.507-.012 2.23.3.74.828 1.256 1.583 1.548.731.293 1.483.273 2.254-.061.747-.333 1.279-.881 1.596-1.645.301-.756.293-1.503-.024-2.243-.317-.731-.853-1.231-1.608-1.499z"/><path d="m248.259 140.163c-.479-1.049-1.21-1.813-2.193-2.292-.983-.463-1.904-.504-2.765-.122-.886.39-1.474 1.105-1.767 2.145-.317 1.04-.244 2.089.219 3.145.455 1.081 1.178 1.881 2.169 2.401.967.496 1.917.541 2.851.134.901-.398 1.498-1.129 1.791-2.194.292-1.064.191-2.137-.305-3.217z"/><path d="m247.735 148.769c.748-.325 1.259-.935 1.535-1.829.252-.877.175-1.771-.231-2.681-.414-.862-1.023-1.487-1.827-1.877-.837-.382-1.617-.411-2.34-.086-.747.325-1.25.923-1.51 1.792-.268.87-.216 1.743.158 2.621.39.91.995 1.568 1.815 1.974.829.407 1.629.435 2.4.086z"/><path d="m245.006 145.245c.293-.642.309-1.267.049-1.877-.26-.585-.719-.983-1.377-1.194-.641-.203-1.295-.159-1.961.134-.666.292-1.145.751-1.438 1.377-.3.626-.329 1.243-.085 1.853.244.609.694 1.024 1.352 1.243.658.22 1.324.179 1.998-.122.683-.3 1.17-.772 1.462-1.414z"/><path d="m193.416 39.2876c-1.243.2452-2.406 1.1251-3.487 2.6399-.796 1.1045-1.647 2.6985-2.553 4.782-2.015 4.5835-3.451 8.9595-4.307 13.128-1.01 4.8665-1.358 9.9889-1.045 15.3673.111 1.9185.288 3.8748.532 5.8689.942 2.2449 3.354 3.634 7.236 4.1673 3.924.5284 7.169.7137 9.735.5561 2.564-.1334 5.287-.4296 8.171-.8888 2.843-.4705 5.984-1.7786 9.424-3.9243 3.417-2.172 5.037-4.7829 4.86-7.8328-1.926-4.4686-3.644-8.0597-5.153-10.7735-1.414-2.5676-2.939-4.9275-4.573-7.0798-4.255-5.6715-7.029-9.1049-8.323-10.3-1.927-1.7428-3.508-3.0217-4.741-3.8368-2.333-1.5624-4.259-2.1869-5.776-1.8735z"/><path d="m260.632 45.2468c-.891-1.6369-1.933-2.6573-3.125-3.061-1.463-.4984-3.45-.1239-5.962 1.1234-1.316.6476-3.044 1.7198-5.184 3.2167-1.425 1.0062-4.613 4.0571-9.565 9.1528-1.924 1.9627-3.736 4.1138-5.437 6.4531-1.893 2.6018-4.047 5.9461-6.464 10.0329-.554 3.0169.728 5.8149 3.846 8.3938 3.121 2.5547 6.068 4.2469 8.842 5.0768 2.856.8281 5.522 1.4701 7.999 1.9257 2.517.475 5.758.7009 9.725.6778 3.92-.0433 6.488-1.1148 7.705-3.2147.496-1.9606.916-3.8822 1.259-5.765 1-5.2672 1.303-10.3931.911-15.3779-.321-4.2364-1.195-8.757-2.622-13.5618-.649-2.23-1.292-3.9209-1.928-5.0726z"/><path d="m182.339 81.5934c-.053.9926-.069 1.9188-.046 2.7784.094 5.8902 1.648 11.4456 4.661 16.6662 2.606 4.478 6.178 8.521 10.714 12.129 3.083 2.457 6.406 4.56 9.969 6.311 5.364 1.81 11.044 2.501 17.04 2.074 5.995-.42 11.941-2.547 17.836-6.382 5.887-3.827 10.927-8.725 15.119-14.695 4.201-5.978 6.643-12.1837 7.327-18.6173-.623-6.0297-3.406-10.2723-8.352-12.7279-7.491-3.7423-17.071-6.1085-28.739-7.0986-11.669-.9739-22.034-.6116-31.095 1.087-4.651.8765-8.222 3.0839-10.712 6.6222-2.185 3.0802-3.426 7.0312-3.722 11.853z"/></g><path d="m207.635 119.477c.874.428 1.78.843 2.721 1.243 4.136 1.739 7.733 2.691 10.791 2.858 1.48.084 3.053.023 4.719-.181 2.119-.258 4.404-.753 6.855-1.484 4.615-1.361 9.017-3.327 13.204-5.899 4.695-2.891 8.565-6.211 11.611-9.959 3.497-4.284 5.733-8.9008 6.709-13.849.307-1.5283.538-3.0136.692-4.4558.207-2.1245.214-4.089.02-5.8935-.683 6.4337-3.126 12.6394-7.327 18.6173-4.192 5.97-9.231 10.869-15.118 14.696-5.896 3.834-11.841 5.961-17.837 6.381-5.996.428-11.676-.263-17.04-2.074z" fill="#dd7287"/><path d="m231.071 80.1692c-2.887 2.491-4.601 5.8291-5.141 10.0142-.507 4.1877.621 7.3938 3.383 9.6183 2.771 2.2333 6.118 3.5043 10.043 3.8123 3.916.307 7.171-.372 9.766-2.037 2.593-1.6489 4.108-4.6475 4.547-8.9956.437-4.3319-.584-7.9582-3.064-10.8787-2.498-2.8975-5.645-4.4952-9.439-4.7931-3.795-.2979-7.16.7886-10.095 3.2596z" fill="#fff"/><path d="m205.129 74.0827c-3.794-.2979-7.159.7886-10.094 3.2596-2.896 2.4985-4.605 5.8369-5.128 10.0151-.523 4.1783.6 7.3841 3.37 9.6174 2.771 2.2333 6.118 3.5042 10.043 3.8122 3.908.307 7.167-.372 9.778-2.0358 2.585-1.6578 4.097-4.6567 4.535-8.9967.452-4.3226-.569-7.9488-3.064-10.8787-2.498-2.8975-5.645-4.4952-9.44-4.7931z" fill="#fff"/><path d="m229.509 85.2865c-.977.8048-1.516 1.8479-1.616 3.1295-.101 1.2897.268 2.4123 1.107 3.3677.821.9704 1.868 1.5056 3.141 1.6055 1.265.0993 2.383-.266 3.354-1.0957.977-.8129 1.516-1.8642 1.617-3.1539.101-1.2816-.269-2.396-1.109-3.3433-.828-.9873-1.874-1.5305-3.139-1.6298-1.273-.0999-2.392.2734-3.355 1.12z" fill="#3c3232"/><path d="m200.092 82.1166c-.978.8128-1.516 1.856-1.616 3.1295-.1 1.2816.268 2.4042 1.107 3.3677.821.9704 1.868 1.5056 3.141 1.6055 1.265.0993 2.383-.266 3.354-1.0957.977-.8129 1.516-1.8642 1.617-3.1539.101-1.2816-.269-2.396-1.108-3.3434-.829-.9872-1.875-1.5305-3.14-1.6297-1.273-.1-2.392.2734-3.355 1.12z" fill="#3c3232"/><path d="m222.867 105.328c2.254.307 4.098 1.315 5.532 3.023 1.366 1.606 2.015 3.366 1.947 5.279-.034.205-.068.428-.102.667-.069.341-.137.683-.205 1.025-.034.136-.086.273-.154.41-.342 1.093-.922 1.964-1.742 2.614-.922.751-1.929 1.264-3.022 1.537-1.025.239-1.998.359-2.92.359-.888 0-1.844-.085-2.869-.256-1.093-.24-2.117-.786-3.074-1.64-1.024-.923-1.827-2.29-2.407-4.101-.034-.205-.086-.427-.154-.666-.137-.615-.188-1.213-.154-1.794.069-1.23.496-2.374 1.281-3.434.854-1.23 1.981-2.101 3.381-2.613.956-.376 1.998-.564 3.125-.564.546 0 1.059.051 1.537.154z" fill="#571916"/><path d="m221.432 99.127c.572 0 1.119.017 1.64.0512.241.0344.48.0686.717.1025 3.483.3075 6.335 1.3153 8.555 3.0243 2.117 1.605 3.125 3.365 3.022 5.279-.034.205-.085.427-.153.666-.103.341-.205.683-.308 1.025-.068.137-.153.273-.256.41-.512 1.093-1.4 1.965-2.664 2.614-1.432.751-2.867 1.093-4.303 1.025-1.477-.035-2.604-.171-3.381-.41-.802-.239-1.724-1.196-2.766-2.87-1.906 1.355-3.408 2.158-4.508 2.408-1.13.262-2.376.074-3.74-.563-1.4-.647-2.544-1.877-3.432-3.69-.068-.205-.154-.428-.256-.667-.205-.615-.29-1.213-.256-1.794.102-1.23.768-2.374 1.998-3.433 1.332-1.23 3.073-2.102 5.225-2.6143 1.502-.3758 3.125-.5637 4.866-.5637z" fill="#f38da1"/><path d="m209.41 108.463c.02.483.241 1.096.664 1.84.432.735 1.02 1.296 1.765 1.681.298.26 1.249.465 2.852.615 1.595.15 3.452-.431 5.57-1.742 1.589 1.692 3.34 2.617 5.252 2.775.917.072 1.888-.035 2.914-.322.795-.256 1.522-.64 2.182-1.151.669-.519 1.102-1.101 1.3-1.746.056-.2.09-.373.101-.519.034-.43-.066-.817-.3-1.162-.99 1.604-2.068 2.543-3.231 2.819-1.172.267-2.111.337-2.819.208-1.777-.328-3.153-1.15-4.126-2.467l-.326-.527.316-5.447c.028-.349-.003-.584-.091-.705-.168-.568-.349-.856-.544-.863-.211-.017-.447.238-.709.765-.066.117-.141.499-.224 1.145l-.34 4.968c-.082.108-.213.265-.392.471-1.168 1.157-2.646 1.751-4.435 1.782-.719.017-1.47-.136-2.253-.459-1.072-.467-1.955-1.642-2.648-3.525-.283.492-.442.961-.477 1.407z" fill="#571916"/><path d="m224.107 103.935c.871-.699 1.325-1.61 1.364-2.733.022-.586-.486-1.03-1.523-1.3314-.668-.2238-1.634-.3853-2.899-.4845-.842-.0743-1.763.0085-2.76.2485-1.15.3096-1.698.7364-1.642 1.2784.09 1.142.519 2.061 1.289 2.758.732.645 1.686 1.026 2.859 1.143 1.321.12 2.425-.173 3.312-.879z" fill="#571916"/><path d="m223.618 157.397-1.402-2.038c.154 3.278.211 7.504.171 12.677-.017 2.261-.045 4.396-.086 6.405l-.012.11.012.232c.033 1.309.147 2.407.342 3.294.187.838 1.036 1.285 2.548 1.342 1.415.065 3.33.106 5.744.122 2.301 0 3.74-.398 4.317-1.196.155-.195.272-.402.354-.622l-.195.061c-.391.114-.927.236-1.61.366-.268.09-.878.183-1.829.281-.846.097-1.569.154-2.171.171-2.211.024-3.663-.094-4.354-.354-1.154-.448-1.752-1.485-1.792-3.111v-1.379c0-.114.101-.858.305-2.233z" fill="#dd7287"/><path d="m231.508 160.763c.041-2.228.061-4.062.061-5.502-.512-2.676-2.024-3.974-4.536-3.892v.012c-2.683.098-4.289 1.423-4.817 3.977l1.402 2.038.342 14.128c-.204 1.375-.305 2.119-.305 2.233v1.379c.04 1.626.638 2.664 1.792 3.111.691.26 2.143.378 4.354.354.602-.017 1.325-.073 2.171-.171.951-.098 1.561-.191 1.829-.281.683-.13 1.219-.252 1.61-.366l.195-.061c.244-.561.353-1.232.329-2.013 0-.26-.016-.5-.049-.72-.162-1.456-1.036-2.383-2.622-2.781l-2.365-.598c.357-4.62.561-8.236.609-10.847z" fill="#f38da1"/><path d="m222.094 176.991c-.146.073-.244.203-.293.39-.024.236-.004.472.061.708.057.219.195.435.415.646.195.196.853.435 1.975.72 1.147.277 2.886.541 5.22.793 2.374.269 4.044.204 5.012-.195.967-.39 1.565-.728 1.792-1.013.228-.284.358-.52.391-.707.032-.204.036-.431.012-.684-.024-.252-.073-.414-.146-.488-.147-.162-.468-.13-.964.098-.463.22-1.337.46-2.622.72-1.244.244-2.451.309-3.622.195-1.951-.203-3.426-.411-4.426-.622-.813-.171-1.573-.411-2.281-.72-.276.049-.451.102-.524.159z" fill="#51887c"/><path d="m221.813 175.844c0 .765.065 1.265.196 1.501.105.171.544.354 1.317.549.39.097 1.004.224 1.841.378 1.041.22 2.089.386 3.146.5l2.683.354c1.309.163 2.447.061 3.415-.305.967-.382 1.553-.74 1.756-1.074.219-.341.366-.858.439-1.549.057-.683.061-1.342.012-1.977-1.642 1.058-3.159 1.562-4.549 1.513-1.105-.048-2.114-.13-3.024-.244-.911-.13-2.232-.378-3.963-.744-1.773-.366-2.809-.712-3.11-1.037-.13.634-.183 1.346-.159 2.135z" fill="#65c0ac"/><path d="m225.082 174.747c1.731.366 3.052.614 3.963.744.911.114 1.919.195 3.024.244 1.391.049 2.907-.455 4.549-1.513-.033-.301-.106-.581-.22-.842-.113-.26-.508-.541-1.182-.842-.586-.252-1.187-.528-1.805-.829-.504-.26-.878-.403-1.122-.427-.22-.016-.5.012-.842.085l-1.219.244c-.398.09-.744.191-1.037.305-.252.098-.455.281-.609.549-.155.285-.22.5-.196.647-2.17-.008-4.247-.423-6.231-1.245-.22.415-.281 1.029-.183 1.843.301.325 1.337.671 3.11 1.037z" fill="#69dbd6"/></svg>