<svg fill="none" height="350" viewBox="0 0 350 350" width="350" xmlns="http://www.w3.org/2000/svg"><g fill="#612a94"><path d="m300.238 24.3853c-3.106-1.207-6.362-1.7602-9.768-1.6596-1.503-.0251-2.993.1006-4.47.3772-.526.0754-.977.1635-1.353.264-.576.0755-1.127.1886-1.653.3395-.501.1006-.952.2263-1.352.3772-.627.176-1.127.3394-1.503.4903-.15-.0503-.226-.0377-.226.0377-.25 0-.35.0503-.3.1509-1.052.2012-2.041.5406-2.968 1.0184-.326.0251-.564.1132-.714.264-7.313 2.8163-15.591 7.6569-24.833 14.5216-5.234 3.7719-10.957 8.3735-17.168 13.8049-2.58 2.1123-5.197 4.4131-7.852 6.9025-9.016 8.0215-22.779 24.0267-41.288 48.0151-1.553 1.861-3.018 3.823-4.395 5.885-17.056 23.058-33.273 53.12-48.651 90.184l114.696 67.554c.977.276 2.054.641 3.231 1.094 46.535-56.729 69.226-115.632 68.074-176.711-.05-1.4836-.1-2.9546-.15-4.413-.226-4.5514-.526-9.0147-.902-13.3901-.225-1.6093-.438-3.1935-.639-4.7525-.15-.6789-.25-1.3705-.3-2.0745-.451-3.269-.977-6.4499-1.578-9.5428-.676-3.1432-1.378-6.2235-2.104-9.241-.451-1.4333-.839-2.8037-1.165-4.1113-2.479-8.5243-5.51-16.7218-9.091-24.5924-.576-.3772-1.102-.6412-1.578-.7921z"/><path d="m154.811 97.5969c-1.804-2.2631-3.532-4.4382-5.185-6.5253-13.625-17.2248-23.731-28.9426-30.318-35.1536-3.681-3.4952-7.15-6.6636-10.406-9.505-3.331-2.9169-6.437-5.4943-9.3169-7.7323-3.6567-2.9169-7.0754-5.3937-10.2562-7.4305-3.0806-2.0368-5.9233-3.6964-8.528-4.9789-.9768-.528-1.916-.9806-2.8177-1.3578-.1252-.0755-.2379-.1132-.3381-.1132-1.2523-.5783-2.4545-1.031-3.6066-1.3579-.1502-.1257-.288-.176-.4132-.1508-.1753-.1006-.3256-.1383-.4508-.1132-.2755-.1508-.5385-.2514-.789-.3017-.9266-.2766-1.7907-.4275-2.5922-.4526-.9517-.2012-1.8784-.3395-2.78-.4149-1.7031-.1258-3.3311-.0629-4.8839.1885-.4509.0503-.8892.1509-1.3149.3018-.0752.0251-.1378.0754-.1879.1509-9.7427 12.0447-16.217 26.4531-19.4228 43.2253-.0251.2263-.0752.4652-.1503.7166-.3507 1.383-.6011 2.8163-.7514 4.2999-.7514 4.4759-1.2272 9.1153-1.4276 13.9181-.4759 8.977-.1503 18.3307.9768 28.0627 4.1325 35.757 18.7967 75.311 43.9926 118.662 1.102-.025 2.2165-.05 3.3436-.076l123.4125-37.19c-19.16-41.264-37.757-73.488-55.789-96.6721z"/><path d="m305.873 148.026c-1.053-3.019-2.143-5.873-3.268-8.562-5.689-13.669-12.276-23.099-19.761-28.289-10.142-7.131-19.585-12.0596-28.327-14.7853-8.727-2.9679-24.594-5.8722-47.599-8.7129-3.055-.3537-8.014-.5172-14.877-.4904-7.965-.0289-18.484.1848-31.558.6412-8.185.3013-16.764.7665-25.734 1.3956-35.9277 5.1536-61.637 16.3938-77.128 33.7198-.7581 1.05-1.5095 2.106-2.2541 3.169-.4382.616-.8515 1.232-1.2398 1.848-3.6426 5.728-6.5354 12.504-8.6783 20.33-.3446 1.188-.6577 2.395-.9392 3.621-.8176 3.427-1.5063 7.035-2.0662 10.825-.0757.553-.1508 1.119-.2255 1.698-3.8923 15.236-5.9085 31.304-6.0485 48.204.0002 2.277.0253 4.578.0752 6.902.0003.547.0128 1.101.0375 1.66.1608 5.769.549 11.615 1.1647 17.539.3408 1.774.7916 3.559 1.3524 5.356.0255.183.0755.371.1503.566 1.965 6.566 5.0456 13.544 9.2418 20.934 1.9639 3.469 5.032 7.455 9.2043 11.956 5.3383 6.785 14.0667 12.719 26.1852 17.803.2827.12.5833.233.9016.34 5.5013 2.267 11.5373 4.266 18.1076 5.997 2.466.741 5.033 1.445 7.702 2.112 1.804.862 4.822 1.73 9.054 2.603.107.019.22.031.338.038l.075.037h.075l.113.038c2.313.426 6.245 1.105 11.796 2.037-1.314-.184-.913-.096 1.203.264 12.294 1.814 23.001 2.656 32.121 2.527.396-.012.821-.025 1.277-.038.219.013.432.026.639.038.35.013.688.026 1.014.038.176.012.351.012.526 0 3.786.13 7.505.218 11.158.264h5.109c4.216.002 8.336-.086 12.36-.264.614-.037 1.215-.062 1.803-.076.828-.037 1.667-.075 2.517-.113 2.037-.131 4.103-.257 6.199-.377 2.304-.195 4.596-.383 6.875-.566 2.216-.251 4.407-.515 6.575-.792 24.789-3.152 45.301-8.735 61.537-16.747 8.444-4.612 16.171-11.589 23.18-20.934 3.819-5.601 6.574-12.328 8.265-20.179.573-2.77.999-5.926 1.277-9.467.095-1.339.195-2.659.3-3.961.212-3.535.362-7.068.451-10.599.069-2.638.094-5.253.075-7.845.013-.999 0-1.993-.037-2.98-.013-2.789-.089-5.58-.226-8.373-.068-1.42-.131-2.841-.187-4.262-1.039-17.145-3.707-34.282-8.003-51.411-.7-2.858-.538-2.003.489 2.565-.755-2.44-1.519-4.778-2.292-7.015-.012-.063-.037-.139-.075-.227z"/></g><path d="m249.408 166.094c-.996.232-1.86.509-2.593.829-8.865 3.704-17.581 9.815-26.147 18.332-7.795 7.365-12.228 15.223-13.299 23.574-.226.913-.301 1.844-.226 2.791-.073.342-.073.732 0 1.169-.1.081-.151.181-.15.302-.002.027.011.077.037.151-.026.026-.039.051-.037.075-.002.027.011.064.037.113v.151c-.026.021-.039.058-.037.113-.002.045.011.083.037.113-.026.065-.039.14-.037.227 0 .188.05.389.15.603-.1 1.375.012 2.859.338 4.451 2.249 12.019 9.149 18.582 20.7 19.689 3.367.274 7.023.136 10.97-.415 1.705-.236 3.458-.55 5.26-.943 1.472-.321 3.087-.71 4.846-1.169 1.256-.405 2.571-.807 3.945-1.207.739-.269 1.528-.546 2.367-.83.77-.278 1.596-.579 2.479-.905 2.33-.945 4.772-1.938 7.326-2.98.233-.199.483-.337.752-.415.394-.259 1.434-.775 3.118-1.546 16.819-8.043 26.612-18.516 29.378-31.42.179-.93.354-1.835.526-2.715.081-.751.156-1.455.226-2.113.019-.717.057-1.421.112-2.112.092-2.84-.033-5.782-.375-8.826-.374-1.368-.725-2.688-1.052-3.96-1.013-3.652-4.232-7.222-9.655-10.712-6.686-2.462-12.847-3.694-18.484-3.697-.293-.025-.581-.037-.864-.038-.434.001-.822.026-1.165.076-.285-.05-.548-.075-.789-.076-.242.001-.467.013-.676.038-.128-.024-.228-.012-.3.038-.142-.025-.255-.038-.339-.038-.235.025-.448.063-.638.113-.297-.024-.548-.024-.752 0-.136 0-.248.013-.338.038-.403.05-.728.126-.977.226-.485-.049-.874.001-1.164.151-.282-.074-.545-.062-.789.038-.258-.025-.509.026-.751.151-.478-.075-.929.013-1.353.264-.326-.1-.614-.1-.864 0-.173 0-.273.038-.301.113-.103-.025-.178 0-.225.075-.234-.024-.397.013-.488.114-.11-.025-.236 0-.376.075-.29.025-.565.126-.827.302-.785.081-1.524.207-2.216.377-.868.163-1.694.352-2.48.566-.684.119-1.298.345-1.84.679z" fill="#fff"/><path d="m156.426 212.11c0-.351 0-.678 0-.98-.422-7.619-4.103-15.037-11.045-22.254-8.466-8.725-16.405-14.722-23.819-17.992-.911-.416-1.75-.743-2.517-.981-.588-.358-1.165-.596-1.728-.716-.563-.264-1.089-.465-1.578-.604-.227-.119-.465-.194-.714-.226-.463-.177-.826-.315-1.089-.415-.347-.15-.698-.251-1.052-.302-.249-.125-.412-.201-.488-.226-.161-.075-.286-.087-.376-.038-.097-.075-.159-.113-.188-.113-.079-.05-.117-.037-.113.038-.473-.201-.936-.339-1.39-.415-.17-.075-.333-.126-.488-.151-.236-.125-.436-.188-.601-.189-.197-.074-.36-.099-.488-.075-.285-.1-.548-.163-.789-.189-.298-.099-.548-.15-.752-.15-.412-.175-.737-.276-.977-.302-1.64-.395-3.256-.697-4.846-.905-.915-.186-1.7917-.286-2.6296-.302-1.5235-.229-3.0513-.354-4.5834-.377-1.0926-.123-2.1946-.173-3.306-.151-.239-.024-.4644-.024-.6762 0-3.1282-.024-6.3966.189-9.8054.641-6.5629 1.676-10.8833 3.775-12.9611 6.299-.8247.891-1.6012 1.834-2.3292 2.829-2.4701 3.686-4.098 7.307-4.8839 10.863-.123.556-.2107 1.16-.263 1.81-.3475 1.828-.4602 3.626-.3381 5.394.5648 9.038 7.5149 17.927 20.8504 26.667 1.4997 1.057 2.5015 1.786 3.0055 2.188.2507.046.5387.235.8641.565 2.4583 1.489 4.9628 2.96 7.5137 4.413 2.648 1.442 5.2903 2.787 7.9269 4.036 3.2403 1.456 6.4713 2.751 9.6923 3.885 1.202.388 2.492.791 3.87 1.207.554.108 1.13.284 1.728.528 2.415.556 4.782 1.021 7.1 1.396 1.261.173 2.513.337 3.757.49 14.382 1.238 23.987-4.067 28.815-15.917.277-.943.528-1.836.752-2.678.244-.811.432-1.641.563-2.489.071-.206.121-.394.15-.566.033-.536.096-1.039.188-1.509.028-.72.04-1.399.038-2.037z" fill="#fff"/><path d="m146.358 209.545c.175-4.576-1.303-8.562-4.433-11.957-.451-.477-.915-.93-1.39-1.357-2.881-2.49-6.262-3.81-10.144-3.961s-7.326.893-10.331 3.131c-.551.377-1.077.792-1.578 1.244-3.356 3.119-5.122 6.966-5.297 11.542-.201 4.627 1.252 8.625 4.358 11.995 3.13 3.42 6.975 5.217 11.533 5.394 4.558.176 8.528-1.308 11.909-4.451 3.382-3.093 5.172-6.953 5.373-11.58z" fill="#0d001b"/><path d="m236.184 193.364c-3.883-.151-7.326.893-10.332 3.131-.551.377-1.077.792-1.578 1.244-3.356 3.119-5.121 6.966-5.297 11.542-.2 4.627 1.252 8.625 4.358 11.995 3.131 3.42 6.975 5.217 11.534 5.393 4.558.177 8.528-1.307 11.909-4.45 3.381-3.093 5.172-6.953 5.372-11.58.175-4.576-1.302-8.562-4.433-11.957-.451-.477-.914-.93-1.39-1.357-2.88-2.49-6.261-3.81-10.143-3.961z" fill="#0d001b"/><path d="m152.594 273.895c1.553 7.267 5.209 13.151 10.97 17.652 5.134 3.948 10.907 5.935 17.319 5.96 6.412-.025 12.197-2.012 17.357-5.96 5.735-4.501 9.392-10.385 10.97-17.652.2-.981.363-1.936.488-2.867.977-7.644-.739-14.697-5.147-21.16-5.785-8.474-13.675-12.711-23.668-12.711-10.018 0-17.908 4.237-23.668 12.711-4.408 6.438-6.124 13.478-5.147 21.123.125.955.301 1.923.526 2.904z" fill="#0d001b"/><path d="m207.181 261.936c-.501.226-.951.528-1.352.905-2.129 1.76-3.031 5.042-2.705 9.845 0 .553-.013.943-.038 1.169.051.025.051.138 0 .339.126.906.251 1.823.376 2.754.125 1.031.301 1.999.526 2.904.251 1.182.564 2.314.939 3.395.151.402.326.83.526 1.282.075.151.138.34.188.566.376.779.739 1.484 1.09 2.112.25.377.488.729.713 1.056 2.78 3.898 6.111 4.539 9.994 1.924.275-.176.526-.377.751-.604.2-.201.401-.377.601-.528.075-.075.138-.125.188-.15.1-.151.2-.29.3-.415.176-.202.339-.378.489-.528.05-.126.113-.214.188-.264 1.402-2.188 2.141-4.866 2.216-8.034.05-3.621-.288-6.463-1.014-8.525-.1-.251-.188-.478-.263-.679-.05-.201-.113-.352-.188-.452-.05-.176-.1-.327-.15-.453-.025-.05-.05-.088-.075-.113-.076-.126-.126-.226-.151-.302-.025-.05-.05-.138-.075-.264-.025-.075-.05-.113-.075-.113 0-.05 0-.088 0-.113l-.038-.038c-.025 0-.037.013-.037.038-.05-.126-.113-.252-.188-.377 0-.051-.012-.088-.037-.114l-.038-.188c-.025-.05-.05-.088-.075-.113-.05-.025-.088-.076-.113-.151-.025-.076-.075-.139-.15-.189 0-.1-.038-.188-.113-.264-.175-.377-.376-.716-.601-1.018-.125-.227-.263-.415-.413-.566-.201-.327-.426-.629-.676-.905-.151-.227-.326-.44-.526-.641-.051-.076-.088-.114-.113-.114-.551-.603-1.152-1.194-1.803-1.772-1.428-.981-2.568-1.459-3.419-1.434-.326 0-.676.013-1.052.038-1.177.075-2.229.352-3.156.83-.175.1-.325.188-.451.264zm-66.421 7.996c.051.05.038.164-.037.34v2.791c-.025 1.031.012 2.024.113 2.98.075 1.181.225 2.338.45 3.47.101.427.213.88.338 1.358.051.15.088.339.113.565.251.805.526 1.559.827 2.263.175.403.35.78.526 1.132 2.229 4.25 5.435 5.356 9.617 3.319.301-.151.576-.314.827-.49.25-.176.488-.34.713-.491.076-.05.138-.088.188-.113.126-.125.251-.251.376-.377.2-.176.376-.327.526-.452.075-.101.15-.176.225-.227 1.703-1.961 2.805-4.513 3.306-7.657.551-3.57.614-6.424.188-8.562-.075-.251-.138-.49-.188-.716 0-.202-.037-.352-.112-.453-.025-.176-.05-.327-.075-.453-.025-.075-.051-.125-.076-.15-.05-.126-.075-.239-.075-.34-.025-.05-.05-.138-.075-.264 0-.075-.012-.113-.037-.113 0-.05 0-.088 0-.113l-.038-.038c-.025-.025-.038-.025-.038 0-.025-.126-.062-.251-.112-.377 0-.05-.013-.088-.038-.113v-.189c-.025-.05-.05-.088-.075-.113-.025-.05-.05-.113-.075-.189-.025-.075-.063-.138-.113-.188 0-.101-.025-.189-.075-.264-.15-.403-.313-.767-.488-1.094-.101-.252-.213-.453-.338-.604-.151-.377-.326-.716-.526-1.018-.126-.251-.276-.49-.451-.717-.025-.075-.05-.113-.075-.113-.451-.679-.965-1.345-1.541-1.999-1.277-1.182-2.341-1.823-3.193-1.924-.326-.05-.664-.088-1.014-.113-1.203-.075-2.292.051-3.269.378-.175.075-.338.15-.488.226-.526.151-1.015.377-1.465.679-2.355 1.458-3.707 4.589-4.058 9.392-.075.553-.137.93-.188 1.131z" fill="#fff"/><path d="m186.593 263.331c-.25-.352-.463-.679-.638-.98l.563-14.56-6.199-.528-.788 14.899c-.526.729-1.052 1.408-1.578 2.037-4.659 5.18-10.682 8.084-18.071 8.713-2.98.176-6.687-.566-11.12-2.226-4.433-1.634-8.002-5.947-10.707-12.937-.075-.101-.125-.201-.15-.302-1.177 1.257-1.841 2.791-1.991 4.602-.101.075-.138.163-.113.264 0 .025.025.063.075.113-.075.201-.1.402-.075.603 0 .101.025.202.075.302-.05.101-.075.201-.075.302 0 .201.05.427.15.679.05 1.106.313 2.213.789 3.319.576 1.584 1.578 3.143 3.006 4.677.726.805 1.527 1.584 2.404 2.339 1.628 1.483 3.506 2.728 5.635 3.734 3.932 1.685 7.777 2.602 11.534 2.753 7.964.252 15.678-2.942 23.142-9.58 6.612 5.482 12.761 8.788 18.446 9.92 1.277.251 2.58.402 3.907.452h1.954 1.765c4.534-.125 7.364-.616 8.491-1.471.225-.15.488-.276.789-.377 2.855-1.383 5.159-3.457 6.912-6.223.601-1.006 1.152-1.937 1.653-2.792.326-.704.626-1.37.902-1.999.125-.628.275-1.181.451-1.659.05-.403.087-.78.113-1.132-.026-.327 0-.616.075-.867-.101-1.861-.677-3.898-1.728-6.111-.401.981-.814 1.899-1.24 2.754-3.006 6.135-6.5 9.882-10.482 11.24-3.331.955-6.487 1.27-9.467.943-7.489-1.056-13.362-4.313-17.62-9.769-.25-.352-.513-.729-.789-1.132z" fill="#0d001b"/><path d="m185.955 262.351c.175.302.388.628.639.98.275.403.538.78.789 1.132 4.257 5.457 10.13 8.713 17.619 9.769 2.981.327 6.136.013 9.467-.943 3.983-1.358 7.476-5.104 10.482-11.24l-1.315-19.576-84.98-3.244-.601 18.52c2.705 6.991 6.274 11.303 10.707 12.938 4.433 1.659 8.14 2.401 11.12 2.225 7.389-.629 13.412-3.533 18.071-8.713.526-.629 1.052-1.308 1.578-2.037l.789-14.899 6.198.528z" fill="#612a94"/><path d="m202.86 230.629c-1.628-1.961-3.669-3.57-6.123-4.828-4.383-2.388-9.693-3.382-15.929-2.979-6.262.301-11.421 1.861-15.478 4.677-1.578 1.031-2.831 2.099-3.757 3.206 2.079 9.279 8.327 14.899 18.746 16.86.802.151 1.591.289 2.367.415h.188l.864-.076c10.194-1.081 16.568-6.839 19.122-17.275z" fill="#b98ce2"/></svg>