<svg fill="none" height="350" viewBox="0 0 350 350" width="350" xmlns="http://www.w3.org/2000/svg"><path d="m282.325 36.0652c-3.662-1.5931-7.775-2.091-12.341-1.4935-6.515.8463-14.1 4.0077-22.755 9.4841-7.086 4.4807-14.647 10.206-22.684 17.176-9.939 8.7124-21.328 19.9888-34.168 33.8292-6.943 7.617-14.623 16.33-23.041 26.137l114.49 113.138 7.347 8.588c9.416-40.078 14.789-70.994 16.121-92.751 1.379-21.756 1.569-38.807.571-51.1541-.999-12.3468-2.473-22.7768-4.423-31.2901-2.378-10.2558-5.54-18.1219-9.487-23.5983-.618-.8464-1.26-1.6181-1.926-2.3151-2.33-2.5888-4.898-4.5055-7.704-5.7502z" fill="#d18f3e"/><path d="m52.3482 67.7288c-1.9498 8.5133-3.424 18.9433-4.4227 31.2901-.9986 12.3471 1.3078 36.3181 6.9193 71.9151 5.6591 35.547 17.7856 54.191 36.3797 55.934h96.1565c4.898-48.392-1.07-85.78-17.904-112.167-16.883-26.4357-29.818-43.6864-38.805-51.7516-8.988-8.1151-17.025-14.4129-24.111-18.8936-8.655-5.4764-16.24-8.6378-22.7551-9.4841-4.5653-.5975-8.6788-.0996-12.3406 1.4935-2.8057 1.2447-5.3737 3.1614-7.7039 5.7502-.6658.697-1.3078 1.4687-1.926 2.3151-3.9471 5.4764-7.1095 13.3425-9.4872 23.5983z" fill="#464646"/><path d="m187.167 86.0995c-1.854-.041-3.709-.0659-5.564-.0746-3.994-.453-6.633-.0298-7.918 1.2695 2.906 10.0627 5.26 22.0856 7.062 36.0696.222 1.74.436 3.507.642 5.302.672 6.756 1.147 13.203 1.427 19.342 1.416 24.857-5.432 43.925-20.544 57.203-15.122 13.267-30.125 21.83-45.011 25.689-7.21 1.892-14.819 2.838-22.8264 2.838-21.907 0-40.9528-7.094-57.1376-21.283-.3208 3.298-.5823 6.609-.7846 9.932-.113 1.744-.2081 3.437-.2853 5.078l1.8546 1.718c-.0437.075-.0437.124 0 .149.3197 5.249.605 8.584.856 10.007.5071 3.283 1.7911 7.988 3.852 14.114 1.2124 3.45 2.6391 5.939 4.2799 7.468 1.1328 1.02 2.6308 1.692 4.494 2.016 2.4693.422 3.8009.646 3.9946.672 1.3136.582 2.2409 1.727 2.782 3.436.2491.824.3918 2.243.428 4.256.0494 1.96.2396 3.404.5707 4.332.5532 1.799 1.9323 3.666 4.1373 5.601 84.3408 29.858 165.0418 30.455 242.1038 1.792 1.18-.702 2.274-1.449 3.281-2.241.695-1.952.838-3.669.428-5.152-.062-.066-.299-.713-.713-1.942-.347-.916-.561-1.787-.642-2.614 3.715-.824 6.092-1.696 7.133-2.613 1.136-1.002 1.801-1.773 1.997-2.315.194-.557.622-1.727 1.284-3.51.349-1.043.587-2.437.713-4.182.655-7-.558-19.696-3.637-38.086-1.408-8.13-2.954-16.17-4.637-24.121-12.108 7.166-25.257 10.75-39.447 10.753-22.543-.009-41.612-9.169-57.209-27.481-3.243-3.801-6.144-7.784-8.703-11.949-6.505-10.531-10.928-22.231-13.268-35.098-1.268-7.36-1.886-15.102-1.854-23.225.085-7.915.798-15.5819 2.14-23.0011-1.76-.0249-3.519-.0747-5.279-.1494z" fill="#e5e2d3"/><path d="m45.3575 160.628c-.384.843-.6931 1.764-.9273 2.763-1.4115 3.953-2.5528 8.085-3.424 12.397-.1884.384-.2597.807-.214 1.269-.0216.263-.0454.487-.0714.672-.8182 3.762-1.4602 8.093-1.9259 12.994-.0901.835-.1615 1.632-.214 2.39-.4851 4.898-.7942 8.607-.9274 11.127-.0429 1.13-.0667 2.026-.0713 2.689-.0431.835-.0431 1.781 0 2.837-.0303.125-.0303.199 0 .224-.073.842-.1681 1.663-.2853 2.465 16.1847 14.189 35.2306 21.283 57.1375 21.283 8.0076 0 15.6166-.946 22.8266-2.838 14.885-3.859 29.889-12.423 45.011-25.689 15.112-13.278 21.96-32.346 20.544-57.203-.28-6.139-.755-12.586-1.427-19.342-.206-1.795-.42-3.562-.642-5.302-1.802-13.984-4.156-26.0071-7.062-36.0697-3.71-1.3518-6.111-1.999-7.204-1.9417-1.598 0-3.191.0249-4.78.0747-25.171.732-48.093 7.3286-68.7646 19.7897-4.1315 2.344-7.9835 4.933-11.5559 7.767-17.217 12.886-29.2247 28.767-36.023 47.644z" fill="#464646"/><path d="m307.292 283.026c.793-.758 1.316-1.504 1.569-2.241-1.007.792-2.101 1.539-3.281 2.241-77.062 28.663-157.763 28.066-242.1039-1.793-2.205-1.934-3.5841-3.801-4.1373-5.6-.331-.928-.5212-2.372-.5707-4.332-.0362-2.014-.1788-3.432-.4279-4.256-.5412-1.709-1.4685-2.854-2.782-3.436-.1938-.026-1.5253-.25-3.9947-.672-1.8632-.324-3.3611-.996-4.4939-2.016-1.6409-1.529-3.0675-4.018-4.28-7.468-2.0608-6.126-3.3448-10.831-3.852-14.114-.2509-1.423-.5363-4.758-.856-10.007-.0436-.025-.0436-.075 0-.149l-1.8546-1.718v.15c-.6067 10.388-.6067 19.126 0 26.212.3388 3.481.8144 6.593 1.4267 9.334.3936 1.797.8691 3.44 1.4266 4.929.9099 2.55 2.717 4.318 5.4213 5.302 1.414.519 3.6491.843 6.7053.971.4675 1.559.6815 2.853.642 3.883-.0892.968.101 2.113.5706 3.436 1.6706 4.879 6.9017 9.037 15.6932 12.471 5.0123 1.959 12.5022 4.025 22.4699 6.198 1.7959.349 3.4841.697 5.0646 1.046 5.2908 1.098 9.4278 1.919 12.4118 2.464 3.189.599 5.067.997 5.635 1.195 4.724.944 8.48 1.765 11.271 2.464 14.003 3.218 25.725 4.985 35.167 5.302.332-.018.665-.018.999 0 .169.025.36.025.57 0 9.522.851 18.51 1.299 26.964 1.345 1.513-.047 3.035-.072 4.565-.075 1.778-.041 3.585-.115 5.422-.224 2.798-.106 5.532-.281 8.203-.523 1.304-.065 2.564-.165 3.781-.299 1.314-.171 2.645-.32 3.994-.448.315-.04.648-.115.999-.224.232-.022.494-.046.785-.074.298-.056.583-.081.856-.075 1.186-.171 2.327-.321 3.424-.448 5.983-1.044 11.618-2.363 16.905-3.958 6.337-1.429 10.641-2.425 12.912-2.987 2.32-.589 6.695-1.783 13.125-3.585 6.493-1.897 10.44-3.067 11.841-3.51 7.924-2.613 14.273-4.978 19.046-7.094 6.327-2.741 10.583-5.28 12.769-7.617z" fill="#beb9a1"/><path d="m195.299 86.4727c-.951-.0622-1.903-.1369-2.854-.224-1.341 7.4192-2.054 15.0863-2.14 23.0013-.032 8.123.587 15.865 1.855 23.224 2.34 12.868 6.762 24.568 13.268 35.099 2.559 4.165 5.46 8.147 8.703 11.949 15.596 18.312 34.666 27.472 57.208 27.481 14.191-.003 27.34-3.588 39.447-10.753-.357-1.889-.761-3.806-1.212-5.751-.236-1.144-.474-2.314-.714-3.51-.675-8.886-2.22-17.424-4.636-25.614-1.392-4.598-3.033-9.054-4.922-13.368-6.152-13.941-17.398-26.91-33.741-38.907-13.279-9.6248-29.258-16.2213-47.935-19.7895-7.062-1.3734-14.504-2.3193-22.327-2.8378z" fill="#d18f3e"/><path d="m192.176 237.928-.504 2.613-.239 20.873c-.46.704-.903 1.343-1.328 1.918-3.929 4.799-9.176 7.55-15.743 8.254-2.669.256-6.076-.318-10.221-1.723-4.149-1.385-7.769-5.322-10.858-11.812-1.365 1.664-1.789 3.786-1.275 6.364.532 2.596 1.921 4.986 4.169 7.171 2.265 2.187 4.814 3.901 7.646 5.142 3.645 1.427 7.168 2.14 10.566 2.14 7.052-.018 13.707-3.048 19.964-9.088 7.415 5.734 14.043 8.569 19.885 8.504 5.859-.064 9.398-.583 10.619-1.556 2.823-1.244 5.08-3.226 6.77-5.948 1.691-2.722 2.62-5.02 2.788-6.893.185-1.855-.266-3.902-1.354-6.142-2.937 7.065-6.415 11.317-10.434 12.757-2.858.975-5.637 1.327-8.336 1.056-6.547-.681-11.786-3.433-15.717-8.254-.421-.55-.863-1.18-1.327-1.89l.027-19.067c-.178-2.537-.355-4.01-.531-4.419-1.619-4.204-3.141-4.204-4.567 0z" fill="#322016"/><path d="m192.176 237.928c-.335.409-.503 1.28-.504 2.613z" fill="#41351a"/><path d="m152.445 161.388c-8.565-10.671-19.34-16.601-32.328-17.79-13.081-1.211-24.5062 2.692-34.2749 11.709-9.7499 9.017-15.039 20.492-15.8671 34.425-.847 13.91 3.0209 26.212 11.6039 36.907 8.6017 10.671 19.4431 16.612 32.5251 17.824 12.987 1.188 24.346-2.726 34.077-11.743 9.826-8.994 15.162-20.446 16.009-34.356.828-13.933-3.087-26.258-11.745-36.976z" fill="#fff"/><path d="m290.402 161.388c-8.564-10.671-19.34-16.601-32.327-17.79-13.082-1.211-24.507 2.692-34.275 11.709-9.75 9.017-15.039 20.492-15.868 34.425-.847 13.91 3.021 26.212 11.604 36.907 8.602 10.671 19.444 16.612 32.525 17.824 12.988 1.188 24.347-2.726 34.078-11.743 9.825-8.994 15.161-20.446 16.008-34.356.828-13.933-3.087-26.258-11.745-36.976z" fill="#fff"/><path d="m147.55 185.427c-3.129-3.257-6.883-4.885-11.26-4.885s-8.122 1.628-11.233 4.885c-3.111 3.239-4.667 7.149-4.667 11.732 0 4.621 1.556 8.559 4.667 11.817 3.111 3.276 6.856 4.914 11.233 4.914s8.131-1.638 11.26-4.914c3.111-3.258 4.667-7.196 4.667-11.817 0-4.583-1.556-8.493-4.667-11.732z" fill="#282323"/><path d="m246.132 184.381c-3.13-3.257-6.883-4.885-11.26-4.885-4.378 0-8.122 1.628-11.233 4.885-3.112 3.239-4.667 7.149-4.667 11.732 0 4.62 1.555 8.559 4.667 11.816 3.111 3.277 6.855 4.915 11.233 4.915 4.377 0 8.13-1.638 11.26-4.915 3.111-3.257 4.667-7.196 4.667-11.816 0-4.583-1.556-8.493-4.667-11.732z" fill="#282323"/><path d="m182.727 228.328c-1.209.747-2.165 1.553-2.867 2.418 1.206 7.874 6.223 12.673 15.053 14.397 7.96-.217 13.128-4.451 15.504-12.701-1.114-1.635-2.548-3.006-4.301-4.114-3.168-2.001-7.07-3.001-11.708-3.001-4.637 0-8.53 1-11.681 3.001z" fill="#322016"/></svg>