<svg fill="none" height="350" viewBox="0 0 350 350" width="350" xmlns="http://www.w3.org/2000/svg"><path d="m276.568 41.4953c-4.264 1.3445-8.541 3.2616-12.83 5.7514-3.716 2.1662-7.581 4.8427-11.596 8.0296-3.092 2.4898-6.646 5.6021-10.661 9.3368-7.257 6.7971-12.843 12.8847-16.758 18.2627-2.868 3.9338-4.963 7.7557-6.285 11.4655-.723 2.1412-1.197 4.2077-1.421 6.1997-.199 2.091-.1 4.108.299 6.05.424 1.892 1.235 3.822 2.432 5.789.897 1.444 2.144 3.137 3.74 5.079 9.452 11.03 20.936 19.744 34.452 26.143 8.803 4.158 16.845 6.237 24.127 6.237 4.564 0 8.866-.772 12.906-2.316 4.414-1.718 8.104-4.182 11.072-7.394 2.145-2.316 4.027-5.129 5.648-8.441 1.272-2.589 2.507-5.751 3.704-9.486 3.241-10.084 5.236-20.018 5.985-29.8028.199-2.7636.299-5.4651.299-8.1043 0-7.0461-.711-13.7686-2.132-20.1673-1.347-6.0502-3.242-10.7186-5.686-14.0052-2.544-3.4857-5.998-6.1871-10.362-8.1042-4.114-1.8176-8.553-2.7264-13.317-2.7264-1.022 0-2.069.0374-3.142.1121-3.391.2739-6.883.971-10.474 2.0914zm-135.225 59.0087c-.191-1.9739-.665-4.028-1.421-6.1627-1.307-3.7046-3.389-7.5389-6.247-11.5029-3.912-5.3587-9.498-11.4338-16.758-18.2253-4.007-3.7465-7.574-6.8587-10.699-9.3368-3.985-3.1908-7.8504-5.8798-11.5956-8.0669-4.2646-2.4679-8.5414-4.3726-12.8305-5.7141-3.5711-1.1256-7.0499-1.8227-10.4365-2.0914-1.077-.0827-2.1368-.1201-3.1795-.1121-4.7282.0045-9.1547.9008-13.2794 2.689-4.36 1.9406-7.8264 4.642-10.3991 8.1043-2.4207 3.3036-4.316 7.9844-5.6858 14.0425-1.3976 6.4067-2.0958 13.1292-2.0948 20.1673-.0023 2.637.0975 5.3384.2993 8.1043.7575 9.7808 2.7525 19.7028 5.9851 29.7658 1.1958 3.767 2.4302 6.941 3.7032 9.523 1.6302 3.317 3.5006 6.131 5.611 8.441 2.9955 3.218 6.6987 5.67 11.1098 7.357 4.051 1.569 8.3403 2.353 12.8679 2.353 7.3105 0 15.3529-2.079 24.1269-6.237 13.542-6.389 25.026-15.116 34.452-26.18 1.632-1.908 2.891-3.601 3.778-5.079 1.185-1.938 1.983-3.868 2.394-5.789.432-1.906.532-3.923.299-6.05z" fill="#d675d5"/><path d="m143.962 285.819c-.827.311-1.662.56-2.506.747-2.269.523-4.776.697-7.519.523-6.459-.374-12.057-2.229-16.795-5.565-1.781-1.275-3.364-2.744-4.751-4.407-.302 0-.614 0-.935 0-2.12 0-5.511.635-10.175 1.905-4.6631 1.269-8.7778 1.904-12.344 1.904-7.3566 0-13.9028-2.153-19.6385-6.461-6.409-4.83-9.6135-11.03-9.6135-18.598 0-.523.212-2.453.6359-5.789.1365-1.074.2487-2.008.3367-2.801-1.8215-1.033-3.5672-2.19-5.2369-3.474-3.5661-2.713-6.6085-5.826-9.1273-9.336-4.4638-6.25-7.2194-13.694-8.2668-22.334-.9227-7.718-.424-15.81 1.4962-24.275.96-4.269 2.1944-8.066 3.7033-11.391-2.6184-1.934-4.8877-4.287-6.808-7.059-2.2943-3.286-3.8903-6.847-4.7881-10.681-.6733-2.789-1.0598-6.71-1.1596-11.764-.0249-2.141.0125-3.835.1122-5.079.0744-.928.1866-1.812.3367-2.652-1.4214 3.851-2.1322 8.121-2.1322 12.81 0 9.66 1.8704 18.113 5.611 25.359.1075.206.2072.406.2993.597-3.8951 2.778-7.0497 6.761-9.4639 11.951-2.793 6.025-4.1896 12.885-4.1896 20.578 0 11.528 2.9178 21.413 8.7532 29.654 2.4687 3.478 5.3989 6.553 8.7906 9.224-.0284.244-.0533.493-.0748.747-.0748.722-.1123 3.71-.1123 8.964 0 10.93 3.8654 19.706 11.5961 26.329 8.429 7.246 20.4365 10.868 36.0226 10.868 6.6126 0 13.695-1.282 21.2467-3.846.898 1.224 2.02 2.469 3.367 3.734 4.613 4.308 9.701 6.461 15.262 6.461 3.99 0 7.219-.473 9.688-1.419.488-.185 1.897-.894 4.227-2.129.27.324.545.648.823.971 3.965 4.606 8.666 7.968 14.102 10.084 5.187 2.017 11.559 3.025 19.115 3.025 4.888.05 9.065-.373 12.531-1.27 5.761-1.444 10.848-4.369 15.262-8.776.393-.39.767-.788 1.123-1.195 4.253 1.792 8.218 2.689 11.895 2.689 6.409 0 11.858-1.693 16.347-5.08.855-.65 1.641-1.347 2.356-2.091 2.024 1.34 4.169 2.535 6.434 3.585 4.763 2.241 9.763 3.735 15 4.482 5.137.747 10.362.747 15.674 0 5.187-.697 10.224-2.079 15.112-4.146 4.464-1.892 8.441-4.22 11.933-6.983 3.79-3.013 6.808-6.412 9.052-10.196 2.22-3.76 3.816-8.154 4.788-13.184.773-4.058 1.185-8.789 1.235-14.191.023-1.835-.002-3.553-.075-5.154 2.334-1.738 4.491-3.829 6.471-6.275 5.554-6.865 8.834-15.156 9.838-24.873-.773 2.84-1.808 5.541-3.105 8.105-3.416 6.722-8.703 12.897-15.86 18.524-2.27 1.776-4.464 3.22-6.584 4.332.056.403.118.801.187 1.195.325 12.1-2.668 21.836-8.977 29.205-6.434 7.495-15.237 11.242-26.409 11.242-9.676 0-17.856-1.93-24.539-5.789-2.968-1.917-5.025-3.249-6.172-3.996-.019-.012-.044-.025-.075-.037-2.684 3.034-6.175 5.3-10.474 6.797-4.638 1.618-9.788 2.079-15.449 1.381-2.472-.31-4.741-.833-6.808-1.568-.964.683-1.974 1.33-3.03 1.942-3.765 2.141-7.469 3.61-11.11 4.407-2.444.523-5.935.884-10.474 1.083-3.316.124-6.059.162-8.229.112-2.993-.124-5.711-.436-8.155-.934-3.69-.747-7.219-2.041-10.586-3.884-3.359-1.838-6.364-4.116-9.015-6.834z" fill="#d675d5"/><path d="m310.534 124.183c-3.916-4.781-8.193-8.553-12.831-11.317-3.821-2.264-7.475-3.609-10.96-4.033-.066-11.6199-2.41-20.6579-7.033-27.114-4.757-6.6061-11.577-10.0171-20.461-10.233-.58-4.11-2.039-8.0687-4.377-11.8764-3.291-5.4277-7.668-9.4239-13.129-11.9884-4.813-2.2408-10.05-3.1869-15.711-2.8383-5.511.3236-10.686 1.8051-15.524 4.4443-.702.3896-1.376.7879-2.02 1.1951-1.171-1.2481-2.442-2.4059-3.815-3.4733-4.115-3.2119-8.629-5.3406-13.541-6.3863-4.863-1.0956-9.814-1.0209-14.851.224-5.786 1.469-10.885 4.4443-15.299 8.926-.599.6049-1.173 1.2149-1.721 1.83-.729-.3537-1.477-.6898-2.244-1.0084-5.237-2.1661-10.823-3.0251-16.759-2.5769-5.835.4481-11.284 2.0914-16.346 4.9298-3.616 2.0914-6.621 4.5065-9.015 7.2453-1.824 2.0772-3.333 4.3554-4.526 6.8345-.056 0-.118 0-.188 0-14.1891 0-25.673 5.5522-34.4511 16.6567-3.7656 4.7805-6.6583 10.2082-8.6783 16.2833-1.2203 3.639-2.0557 7.287-2.5062 10.943-4.8327.318-9.1095 1.476-12.8305 3.473-2.6933 1.469-5.6235 3.76-8.7906 6.872-2.4938 2.465-4.813 5.079-6.9576 7.843-2.2195 2.938-3.7033 5.564-4.4514 7.88-.2384.726-.4379 1.498-.5985 2.315-.1502.84-.2624 1.724-.3367 2.652-.0998 1.245-.1372 2.938-.1122 5.079.0997 5.055.4863 8.976 1.1596 11.765.8978 3.834 2.4938 7.394 4.788 10.681 1.9203 2.771 4.1897 5.124 6.8081 7.058-1.509 3.326-2.7434 7.123-3.7033 11.391-1.9202 8.466-2.419 16.557-1.4963 24.276 1.0474 8.639 3.803 16.084 8.2669 22.333 2.5187 3.511 5.5611 6.623 9.1272 9.337 1.6698 1.283 3.4154 2.441 5.237 3.473-.088.794-.2002 1.727-.3367 2.801-.4239 3.337-.6359 5.266-.6359 5.789 0 7.569 3.2045 13.769 9.6135 18.599 5.7357 4.307 12.2818 6.461 19.6385 6.461 3.5661 0 7.6808-.635 12.3445-1.905 4.663-1.27 8.055-1.904 10.174-1.904h.935c1.387 1.663 2.971 3.132 4.751 4.406 4.738 3.337 10.337 5.192 16.796 5.565 2.743.174 5.249 0 7.518-.523.844-.186 1.68-.435 2.507-.747 2.65 2.718 5.656 4.997 9.015 6.835 3.366 1.842 6.895 3.137 10.586 3.884 2.444.498 5.162.809 8.154.934 2.17.049 4.913.012 8.23-.112 4.539-.2 8.03-.561 10.474-1.083 3.641-.797 7.344-2.266 11.11-4.407 1.056-.612 2.066-1.26 3.029-1.942 2.067.735 4.337 1.258 6.808 1.568 5.661.697 10.811.237 15.449-1.382 4.299-1.497 7.79-3.763 10.474-6.797.031.013.056.025.075.037 1.147.747 3.205 2.079 6.172 3.997 6.684 3.859 14.863 5.788 24.539 5.788 11.172 0 19.975-3.747 26.409-11.241 6.309-7.37 9.302-17.105 8.978-29.205-.07-.395-.132-.793-.187-1.196 2.119-1.111 4.314-2.555 6.583-4.332 7.157-5.627 12.444-11.801 15.861-18.524 1.297-2.563 2.331-5.265 3.104-8.104.719-2.48 1.23-5.069 1.534-7.768.624-5.453.424-11.018-.598-16.694-.898-4.905-2.282-9.026-4.153-12.362-1.109-2.01-2.469-3.865-4.077-5.565.058-.146.108-.296.15-.448 1.571-5.885 2.356-11.425 2.356-16.62 0-13.594-4.501-25.894-13.503-36.898z" fill="#e498ef"/><path d="m281.17 144.163c-8.325-5.261-15.744-8.71-22.257-10.345-.839-.282-1.612-.493-2.32-.635-1.07-.32-2.055-.532-2.955-.635-.432-.098-.818-.172-1.159-.224-.419-.077-.793-.089-1.122-.037-.424-.133-.835-.17-1.235-.112-.324-.142-.623-.205-.898-.187-.267-.061-.517-.049-.748.037-.413-.201-.875-.238-1.384-.112-.367-.186-.679-.248-.935-.186-.176-.039-.264-.039-.262 0-.157-.054-.232-.041-.224.037-.213-.055-.375-.055-.487 0-.168-.045-.293-.02-.374.075-.355-.067-.679-.042-.972.074-.781-.123-1.492-.172-2.132-.149-.381-.012-.755-.012-1.123 0-.468.005-.929.03-1.384.075-.249-.012-.473-.012-.673 0-.15-.002-.299-.002-.449 0-.28.05-.542.112-.785.186-.912.094-1.747.218-2.507.374-7.564 1.138-15.519 5.582-23.865 13.333-6.529 5.741-10.233 13.011-11.11 21.81-.226.895-.313 1.891-.262 2.988-.054.378-.054.814 0 1.307-.095.062-.108.211-.037.448h-.038c-.044-.009-.044.016 0 .075-.043-.009-.03.016.038.075v.224c-.047.014-.072.039-.075.075.003.063.028.125.075.186-.046.09-.059.189-.038.299-.024.19.001.39.075.598-.053 1.587.059 3.317.337 5.191 1.936 14.732 8.17 25.476 18.703 32.23 4.826 2.969 10.262 5.21 16.31 6.723 1.593.379 3.326.728 5.199 1.046 1.325.211 2.721.398 4.19.56.852.093 1.725.18 2.618.261.903.049 1.825.112 2.768.187 1.955-.001 3.987.012 6.097.037h2.282c.25-.128.537-.178.861-.149.476-.132 1.698-.244 3.666-.336 21.38-1.645 33.263-11.281 35.648-28.907.107-1.227.206-2.447.299-3.66.024-1.017.049-2.013.075-2.988-.029-1.029-.029-2.025 0-2.987-.263-4.01-.799-8.242-1.608-12.698-.726-2.135-1.362-4.139-1.908-6.013-1.762-5.493-6.4-11.544-13.915-18.151z" fill="#fff"/><path d="m163.975 182.069c.099-2.693.174-5.183.224-7.47-.048-.351-.048-.625 0-.821-.098-.794-.135-1.528-.112-2.204-.168-1.412-.342-2.732-.524-3.959-1.742-9.985-6.406-18.002-13.99-24.051-9.456-7.428-17.972-11.462-25.548-12.1-.256-.019-.518-.044-.786-.075-.623-.034-1.196-.034-1.721 0-.314-.093-.626-.156-.935-.187-.316-.014-.603.011-.86.075-.422-.059-.821-.059-1.197 0-.165-.037-.315-.037-.449 0-.106 0-.218-.013-.337-.038-.152.034-.289.071-.411.113-.341-.018-.653-.03-.935-.038-.072.009-.122.021-.15.038-.404.01-.766.06-1.085.149-.168-.072-.293-.085-.374-.037-.084-.004-.146.008-.187.037h-.112c-.099-.039-.162-.039-.187 0-.112-.021-.187-.008-.225.037-.07-.05-.095-.037-.074.038-.51-.028-.946.01-1.31.112-.26.017-.497.067-.71.149-.19.002-.365.027-.524.075-.219-.018-.394.032-.524.149-.311-.067-.61-.055-.897.037-.287.036-.536.11-.749.225-.462.038-.786.087-.972.149-1.695.289-3.328.712-4.9 1.27-.952.228-1.85.539-2.694.933-1.5966.457-3.1428 1.055-4.6382 1.793-4.3588 1.958-9.0097 4.709-13.9527 8.254-6.4963 6.004-10.5985 11.432-12.3068 16.283-.7028 1.756-1.3138 3.549-1.8329 5.378-1.9415 6.802-2.9764 13.014-3.1047 18.636-.0788.938-.0913 1.896-.0374 2.876.1007 17.411 9.3401 28.665 27.7183 33.762 1.6511.564 2.8107.975 3.4788 1.232.1957-.088.5199-.001.9726.261 2.7377.61 5.518 1.158 8.342 1.644 3.608.499 7.124.748 10.548.747 2.828.002 5.596-.173 8.305-.523 1.274-.188 2.583-.387 3.927-.598.503-.236 1.089-.373 1.758-.411 3.693-.993 7.259-2.312 10.699-3.958 13.424-6.716 21.217-19.377 23.379-37.982z" fill="#fff"/><path d="m153.014 181.247c.225-5.602-1.571-10.47-5.386-14.603-.599-.597-1.197-1.17-1.796-1.718-3.516-3.012-7.668-4.618-12.456-4.817-4.788-.2-9.04 1.07-12.756 3.809-.648.498-1.272 1.021-1.87 1.569-4.165 3.809-6.36 8.515-6.584 14.117-.224 5.676 1.584 10.581 5.424 14.714 3.815 4.183 8.529 6.387 14.14 6.611 5.636.224 10.548-1.594 14.738-5.453 4.14-3.809 6.322-8.552 6.546-14.229z" fill="#1a232d"/><path d="m254.573 181.77c.224-5.602-1.571-10.469-5.387-14.602-.598-.598-1.197-1.17-1.795-1.718-3.517-3.013-7.669-4.619-12.457-4.818s-9.04 1.071-12.755 3.809c-.649.498-1.272 1.021-1.871 1.569-4.164 3.809-6.359 8.515-6.583 14.117-.225 5.677 1.583 10.582 5.424 14.715 3.815 4.183 8.528 6.386 14.139 6.61 5.636.224 10.549-1.593 14.739-5.452 4.139-3.81 6.321-8.553 6.546-14.23z" fill="#1a232d"/><g fill="#8f3876"><path d="m180.846 243.206c-.449.722-.898 1.394-1.347 2.017-3.99 5.129-9.139 8.004-15.449 8.627-2.568.174-5.748-.56-9.538-2.204-3.841-1.643-6.933-6.013-9.277-13.108-1.023 1.244-1.596 2.763-1.721 4.556-.075.075-.1.162-.075.261 0 .025.013.063.038.112-.05.2-.063.399-.038.598 0 .099.013.199.038.299-.025.099-.038.199-.038.298 0 .2.038.424.112.673.05 1.095.275 2.191.674 3.286.499 1.569 1.359 3.112 2.581 4.631.623.797 1.309 1.569 2.057 2.316 1.397 1.469 3.005 2.701 4.826 3.697 3.366 1.668 6.658 2.577 9.875 2.726 6.808.249 13.404-2.913 19.788-9.486 5.661 5.428 10.923 8.702 15.786 9.823 1.097.249 2.219.398 3.366.448h1.646 1.534c3.865-.125 6.284-.61 7.257-1.457.199-.149.424-.274.673-.373 2.444-1.37 4.414-3.424 5.91-6.163.524-.995.998-1.917 1.422-2.763.274-.697.536-1.357.785-1.98.1-.622.225-1.17.374-1.643.05-.398.088-.772.113-1.12-.025-.324-.013-.61.037-.859-.075-1.843-.561-3.859-1.459-6.05-2.818 7.693-6.159 12.312-10.025 13.855-2.868.946-5.573 1.258-8.117.934-6.409-1.046-11.434-4.27-15.075-9.673-.224-.348-.449-.722-.673-1.12-.225-.349-.412-.673-.561-.971l.486-14.416-5.312-.523z"/><path d="m200.371 220.275c-1.272-1.543-2.881-2.813-4.826-3.809-3.466-1.867-7.668-2.652-12.606-2.353-4.938.249-9.015 1.482-12.232 3.698-1.247.796-2.232 1.63-2.955 2.502 1.646 7.295 6.584 11.714 14.813 13.258.623.124 1.247.237 1.87.336h.15l.673-.075c8.055-.846 13.093-5.365 15.113-13.557z"/></g></svg>