<svg fill="none" height="236" viewBox="0 0 288 236" width="288" xmlns="http://www.w3.org/2000/svg" xmlns:xlink="http://www.w3.org/1999/xlink"><clipPath id="a"><path d="m0 0h288v236h-288z"/></clipPath><g clip-path="url(#a)"><path d="m112.126 162.3c4.498-2.9 5.028-7.131 1.596-12.694-11.586.539-19.7331-6.492-24.447-21.097.172-.56.2719-1.136.2928-1.731 0-1.508-.5135-2.707-1.545-3.597-.9897-.885-2.2233-1.234-3.7102-1.046-1.4195.212-2.6485.888-3.6939 2.027-1.0339 1.157-1.5798 2.463-1.6449 3.92-.0256 1.375.3764 2.512 1.2081 3.404 1.9167 18.485 12.5641 28.758 31.9441 30.817z" fill="#c95981"/><path d="m110.015 154.24.118 3.405c.056 1.547.211 2.693.476 3.427.312.843.823 1.601 1.536 2.27.695.628 1.485 1.085 2.374 1.38 1.747.586 3.553.475 5.409-.329 1.584-.679 2.869-1.778 3.859-3.295 1.003-1.509 1.501-3.121 1.496-4.843 0-1.566-.383-3.009-1.157-4.322-.435-.741-.915-1.348-1.447-1.829-.932-.855-2.033-1.424-3.302-1.71-1.268-.302-2.504-.279-3.712.07-1.483.416-3.002 1.389-4.556 2.909-.497.493-.809.922-.943 1.299-.135.36-.186.885-.149 1.575v-.004z" fill="#c95981"/><path d="m147.189 124.248c.418-1.124.599-2.163.55-3.116-.018-.978-.274-1.903-.764-2.776-.476-.867-1.125-1.55-1.935-2.05-.825-.502-1.74-.755-2.746-.755-1.018-.007-1.922.258-2.719.795-.638.439-1.205 1.08-1.703 1.921-.334.516-.734 1.315-1.198 2.401-8.98 20.097-13.415 25.174-27.38 42.049-1.233 1.545-2.335 2.726-3.31 3.532-.628.518-1.647 1.301-3.067 2.342-1.09.93-1.812 1.896-2.17 2.898-.311.895-.337 1.854-.074 2.87.251.98.727 1.826 1.431 2.535.653.664 1.461 1.176 2.418 1.526.925.333 1.894.495 2.897.495 2.235-.058 4.384-.938 6.45-2.632.855-.707 1.707-1.587 2.562-2.642.56-.674 1.308-1.669 2.242-2.984 12.664-17.971 17.039-23.518 27.21-43.464.634-1.246 1.069-2.229 1.306-2.949h.002z" fill="#5e5e5e"/><path d="m165.904 93.8534c.523.2998.809.7204.858 1.2641.032.4973-.24 1.1851-.82 2.0658-.709 1.0666-2.161 3.4857-4.366 7.2547-1.823 3.032-3.38 5.423-4.672 7.166-.571.727-1.106 1.108-1.6 1.141-.44.007-.809-.205-1.102-.63-.288-.402-.395-.853-.33-1.352.047-.393.196-.813.451-1.264.151-.233.432-.607.848-1.125 1.011-1.29 2.028-2.746 3.051-4.368.39-.651 1.328-2.303 2.813-4.9498l2.035-3.7853c.444-.8203.871-1.3222 1.276-1.5058.474-.2439.996-.2161 1.558.0883zm8.878 9.8576c.367-.823.638-1.543.81-2.159.323-1.543.261-3.1232-.192-4.7359-.451-1.6126-1.25-2.9836-2.391-4.1129-.353-.3206-.613-.56-.781-.7157-.265-.2695-.453-.546-.567-.8318-.19-.3277-.281-.6576-.271-.9899.007-.3927.144-.7041.409-.9272.088-.0511.171-.0929.25-.1255-.032-.2579.007-.5042.121-.7366.135-.481.404-.7645.811-.8481.453-.1371.971.0186 1.55.4694.467.0488 1.027.2881 1.672.718.902.7157 1.55 1.2339 1.94 1.5569.69.6343 1.227 1.2594 1.61 1.8752.809 1.2966 1.111 2.9115.904 4.8448-.125 1.299-.583 2.8861-1.373 4.7633-.565 1.406-1.245 2.868-2.047 4.376-.065.044-.095.095-.088.158-.504 1.062-1.136 2.242-1.894 3.539-1.301 2.217-2.481 3.976-3.54 5.281-1.422 1.771-2.953 3.135-4.584 4.088-1.194.709-2.658 1.292-4.388 1.75-1.011.276-2.561.601-4.656.971-3.074.488-5.351.762-6.835.829-1.338.052-2.858.005-4.563-.137-1.752-.127-3.023-.33-3.822-.606-1.447-.49-2.43-1.292-2.948-2.405-.407-.888-.437-1.673-.093-2.349.258-.351.576-.598.953-.737.453-.137.838-.098 1.15.123.227.191.436.521.629.988.242.513.451.846.63.987.293.288.799.498 1.517.63 2.161.383 4.574.483 7.237.3 1.963-.17 4.358-.516 7.195-1.039.629-.137 1.234-.267 1.803-.397-.198-.072-.379-.156-.544-.251-.302-.235-.504-.528-.599-.881-.126-.369-.114-.711.044-1.018.19-.369.564-.609 1.127-.725.248-.016.748-.039 1.493-.065 1.274-.007 2.53-.3 3.773-.88 1.162-.549 2.228-1.299 3.188-2.261.78-.744 1.594-1.72 2.439-2.928-.053-.567.2-1.236.76-2.013.885-1.206 1.601-2.323 2.149-3.362m-17.838-14.8691c.618-.8784 1.192-1.3152 1.726-1.3106.416 0 .758.2045 1.02.6135.239.3764.351.7784.33 1.199-.037.5554-.395 1.3036-1.073 2.2493-3.292 4.7752-6.18 9.9219-8.664 15.4389-.474 1.041-.917 1.731-1.328 2.072-.34.284-.739.426-1.192.423-.439.007-.781-.141-1.027-.439-.488-.537-.444-1.417.132-2.64 2.928-6.155 6.287-12.027 10.078-17.6108m-5.517-5.3653c-.023.5251-.353 1.2989-.997 2.3236-1.317 2.1076-2.946 5.1238-4.879 9.0485-2.144 4.3615-3.691 7.38-4.649 9.062-.536.946-1.105 1.425-1.709 1.436-.354-.004-.674-.174-.955-.516-.267-.332-.407-.699-.414-1.101.005-.534.237-1.255.697-2.166l9.254-18.1452c.762-1.5127 1.589-2.1634 2.476-1.9496.432.1069.751.3695.953.7831.211.3997.285.8086.22 1.2315v-.0046z" fill="#8d8d8d"/><path d="m142.098 76.0431c.421-.6343.885-1.1362 1.39-1.4987 1.259-.9295 2.976-1.1898 5.143-.7808.295-.0279.6-.0255.916.0163 2.534.3207 5.513 1.2687 8.937 2.8535 7.509 3.4646 13.507 7.6286 18.005 12.4874.941 1.0968 1.564 2.0309 1.861 2.7954.309.8133.414 1.8473.316 3.1021-.146 1.687-.609 3.4902-1.382 5.4117-.502 1.267-1.313 2.956-2.44 5.077-.894 1.673-1.633 2.972-2.211 3.893-.865 1.415-1.729 2.618-2.593 3.615-.839.99-1.719 1.841-2.639 2.545-.172.2-.335.364-.49.495-.86.778-1.938 1.454-3.234 2.026-.981.395-2.187.795-3.629 1.204-5.225 1.443-10.151 2.188-14.781 2.242-1.51.009-2.778-.081-3.803-.27-1.338-.33-2.446-.841-3.32-1.543-.936-.757-1.666-1.798-2.177-3.125-.076-.142-.169-.295-.276-.455-.342-.656-.662-1.752-.953-3.293l-1.821-9.455c-.402-1.94-.641-3.4182-.718-4.4383-.118-1.6405-.026-3.1068.276-4.4057.284-1.2316 1.004-2.8953 2.159-4.9983l6.428-11.7717c.444-.7808.79-1.3547 1.043-1.7312m14.562 15.4967c-.371.3439-.764.9062-1.168 1.6869-1.571 3.0394-3.318 5.9533-5.244 8.7466-.646.922-1.01 1.636-1.099 2.145-.069.399.005.808.221 1.231.179.381.46.623.841.72.806.184 1.615-.364 2.426-1.654l5.81-9.5899c.499-.8086.774-1.4267.818-1.8589.058-.3462.025-.6715-.093-.9806-.149-.3648-.36-.6251-.628-.7761-.276-.1394-.606-.1882-.987-.1487-.33.0906-.627.2463-.892.474m-7.202-4.7496c-.17-.2579-.386-.4206-.646-.488-.769-.1835-1.484.3648-2.149 1.6336l-5.248 10.2683c-.483.9551-.716 1.7103-.692 2.2589.039.381.209.732.499 1.059.286.302.606.435.962.402.504-.048.999-.483 1.482-1.301 1.389-2.4049 2.414-4.2453 3.078-5.514 1.113-2.0658 2.001-3.9735 2.661-5.7256.264-.7435.381-1.3338.35-1.7683-.014-.2858-.116-.5646-.299-.8295m15.609 13.7704.816-1.1738c.36-.5693.555-.9922.581-1.2803.044-.4926-.198-.9086-.718-1.2455-.495-.2835-.988-.3369-1.482-.165-.46.2138-.883.5763-1.274 1.0898-1.145 1.6289-1.772 2.5348-1.872 2.7138-.072.161-.242.419-.507.783-.248.333-.727 1.155-1.428 2.461-.718 1.257-1.311 2.194-1.775 2.802-.539.665-.86 1.109-.964 1.327-.344.639-.391 1.211-.137 1.711.225.367.594.587 1.108.664.46.063.899-.03 1.322-.286.504-.33 1.059-1.045 1.665-2.147 1.011-1.705 2.568-4.127 4.665-7.259z" fill="#5e5e5e"/><path d="m122.934 147.482c-.599-.969-1.615-1.659-3.043-2.061-.974-.286-1.926-.372-2.863-.251-1.022.112-1.881.46-2.581 1.048-.808.663-1.343 1.569-1.607 2.712-.237 1.088-.179 2.154.169 3.209.267.82.672 1.496 1.206 2.036.862.857 1.977 1.322 3.345 1.389 1.102.07 2.3-.156 3.594-.678 1.009-.391 1.699-.881 2.077-1.464.405-.642.556-1.638.453-2.989-.095-1.294-.343-2.274-.748-2.946v-.005z" fill="#c95981"/><path d="m131.502 152.58c-.418-.177-.869-.186-1.352-.033-.441.135-.839.382-1.187.742-.267.281-.535.657-.806 1.122-.295.567-.516.981-.674 1.241-.397.727-.948 1.524-1.647 2.396-.82 1.017-1.434 1.777-1.845 2.277-1.043 1.313-1.659 2.412-1.852 3.295-.146.655-.127 1.299.061 1.924.204.669.56 1.164 1.073 1.492.614.406 1.394.546 2.347.425 1.482-.191 2.746-.809 3.789-1.852.627-.641 1.333-1.743 2.126-3.309.478-1.013.787-1.701.927-2.061.65-1.785.787-3.6.406-5.445-.232-1.175-.685-1.91-1.364-2.216l-.004.004z" fill="#c95981"/><path d="m89.6561 224.071c1.7285.481 3.1968 1.213 4.4049 2.193.9316.73 1.4334 1.534 1.5031 2.405.072.43 0 .888-.216 1.369-.1557.42-.4112.797-.769 1.127-.4763.43-1.2035.827-2.1839 1.187-4.6906 1.694-10.0201 2.777-15.9885 3.246-3.5569.309-8.9932.442-16.3068.391-4.1539-.03-7.2624-.156-9.3278-.377-3.4732-.36-6.5004-1.078-9.0769-2.151-1.0617-.43-1.9213-.983-2.5787-1.655-.8341-.853-1.243-1.794-1.2174-2.825 0-.853.3229-1.676.9664-2.466.5112-.611 1.1942-1.148 2.0422-1.61 1.1825-.644 2.4603-1.088 3.831-1.339.6575-.111 1.3777-.181 2.1676-.209l2.1861-.044c3.9635-.03 9.9295-.195 17.9006-.497 7.1021-.16 13.0542-.009 17.8657.451 1.9584.19 3.5545.455 4.7974.797v.004z" fill="#000" fill-opacity=".15"/><path d="m84.3753 193.774.1766-6.836.0046-.005c-.8177-5.261-3.3013-7.833-7.4482-7.712v.018c-4.4769.158-7.137 2.44-7.985 6.837.2114 6.22.2579 13.533.1394 21.942-.0093.721-.0232 1.683-.0442 2.886h13.9673c.7133-7.772 1.1105-13.484 1.1895-17.132z" fill="#c95981"/><path d="m87.198 215.336c-.862-.24-2.3047-.586-4.3329-1.039.1115-1.171.2184-2.303.3183-3.393h-13.9673c-.0348 2.04-.086 4.771-.1533 8.196l-.0186.179.0186.4c.0418 2.312.2114 4.215.5181 5.702.3206 1.45 1.7215 2.231 4.212 2.351 2.3557.133 5.5223.221 9.4951.261 3.8147.028 6.1984-.651 7.1509-2.034.2346-.318.4367-.678.5947-1.075.3973-.969.5878-2.131.5762-3.486l-.0813-1.218c-.2672-2.509-1.7099-4.124-4.3329-4.842z" fill="#cecece"/><path d="m21.2552 181.735c2.5184 1.569 5.3899 2.498 8.6239 2.789 3.0573.279 6.1008-.04 9.121-.958 2.7948-.852 5.5177-2.203 8.1662-4.066 1.919-1.355 3.7682-2.944 5.5409-4.764l4.0749 2.015c.8991.453 1.4637.918 1.6867 1.394.2672.623.1278 1.457-.4182 2.491-1.3521 2.696-3.1782 5.11-5.4828 7.236-2.2396 2.087-4.7766 3.762-7.6109 5.024-2.7298 1.208-5.6618 2.015-8.8005 2.414-3.0573.384-6.1124.372-9.1605-.039-4.0935-.558-7.1718-1.785-9.2372-3.688-1.2847-1.155-2.1931-2.584-2.7228-4.285-.5181-1.766-.4507-3.402.1975-4.903.5831-1.143 1.2708-1.801 2.0653-1.97.5832-.175 1.2592-.1 2.0282.22.3717.147 1.0106.512 1.926 1.097v-.004z" fill="#c95981"/><path d="m83.5043 135.915c1.5473-.53 2.8808-1.087 3.9936-1.673 1.3893 4.838 2.4255 9.799 3.1016 14.886l.6574 5.702c0 .411.0465.946.1394 1.596l.1394 2.47c.0535.705.1046 1.773.158 3.207l.0186 1.197c.0813 3.323-.0279 6.232-.316 8.73-.5947 5.007-1.9073 9.188-3.9355 12.534-1.9887 3.176-4.614 5.714-7.8897 7.61-3.1016 1.673-6.5028 2.73-10.213 3.169l-.6946.058c-1.3359.082-2.537.112-3.5941.1-1.7494-.104-3.3896-.313-4.9276-.615-3.1387-.679-5.966-1.848-8.4844-3.509-.8503-.569-1.7332-1.243-2.6601-2.015-1.7332-2.126-3.1015-4.505-4.0936-7.133-1.4985-3.828-2.0932-7.952-1.7889-12.376.3439-6.579 1.4706-13.22 3.378-19.928 1.2964-4.745 2.9273-9.355 4.8881-13.833 7.1951 1.673 13.8349 2.351 19.9311 2.033 4.4745-.279 8.5425-1.015 12.1993-2.212h-.0047z" fill="#e56f95"/><path d="m85.5695 128.843c.7132 1.831 1.359 3.632 1.9259 5.4-1.1128.586-2.444 1.143-3.9936 1.673-3.6568 1.197-7.7225 1.933-12.1993 2.212-6.0939.319-12.736-.36-19.9311-2.033-1.9608 4.478-3.5917 9.088-4.8881 13.833-1.9073 6.708-3.0318 13.352-3.378 19.928-.3043 4.424.2905 8.549 1.7889 12.376.9921 2.63 2.3604 5.007 4.0936 7.133-.8736-.76-1.6216-1.503-2.2443-2.23-.6481-.732-1.2708-1.541-1.8678-2.433-.8062-1.155-1.4753-2.319-2.0073-3.486-.8341-1.726-1.4706-3.52-1.9074-5.379-.3717-1.569-.611-3.214-.7156-4.943l-.0395-2.89c-.0116-.121 0-.226.0395-.319l-.0185-.539c0-.504.0278-.936.0813-1.294.0278-.864.0929-1.627.1974-2.293.1859-1.713.5181-3.632.9921-5.761.2904-1.754.7109-3.688 1.2522-5.797l2.8994-12.476c.4089-1.952.9804-4.239 1.7076-6.855.7411-2.763 1.6843-4.982 2.8227-6.655 1.1012-1.727 3.1968-3.009 6.2983-3.846 1.919-.569 4.1191-.964 6.5957-1.178l.8526-.081c1.2429-.133 2.5904-.214 4.0308-.24 2.846-.093 5.5037.007 7.9664.298 3.457.399 5.6338 1.115 6.5376 2.154.9664 1.131 2.0003 3.037 3.1015 5.721z" fill="#c95981"/><path d="m53.1232 161c-.9153-.255-2.3906-.411-4.4281-.464-1.9538-.042-3.4221-.217-4.4048-.528-1.1245-.367-1.7378-.558-1.833-.569-.7179-.156-1.3103-.098-1.7727.169-.4205.24-.7457.635-.9688 1.185-.1533.379-.2927.911-.4205 1.585l-.5064 2.879c-.1394.86-.1394 1.494 0 1.901.2393.662.9153 1.229 2.0235 1.694 1.1128.465 2.4022.867 3.8821 1.204.9154.213 2.2466.464 4.0053.762.985.156 1.7773.204 2.3836.146.8736-.097 1.5264-.413 1.9608-.952.3671-.437.618-1.204.7597-2.306l.5901-4.589c.086-.704.0279-1.197-.1696-1.48-.2114-.295-.5761-.507-1.0965-.634v-.005z" fill="#d3ae44"/><path d="m91.9281 230.22c.3461-.093.6737-.221.9293-.412.0395-.032.072-.069.1068-.104.0953-.356.1952-.711.2835-1.069.0069-1.329.0139-2.656.0209-3.988 0-.225 0-.46-.086-.664-.295-.707-1.6355-.328-2.1629-.302-.9177.044-1.833.086-2.7507.123-1.7912.074-3.5848.137-5.376.191-5.4364.158-9.286.211-14.7223.162h-.2277c-.014.033-.0302.072-.0442.114-.1092.339-.1742.913-.1951 1.724-.0023 1.09-.4438 3.214.5761 3.862.2068.133.4508.177.6924.221 1.5682.276 3.3083.072 4.9159.088 1.8726.019 3.7405.035 5.613.047 3.6382.021 7.281.051 10.9169-.026.1487-.002.8526.042 1.5147.035l-.0046-.005z" fill="#84571c"/><path d="m88.8708 215.199c.079.079.1371.163.1626.246.2533.774-.3182 1.753-.4367 2.529-.3834 2.486-.3323 4.366-.6529 6.539-.0255.176-.058.36-.1835.499-.1371.151-.3555.251-.5808.284-1.3568.188-3.7404.176-5.1274.011-.2091-.025-.4298-.053-.5971-.16-.3136-.198-.3415-.576-.3392-.904.0163-1.796.0837-3.616.6691-5.345.402-1.192 1.0432-2.409 2.0561-3.327.4298-.388 1.1105-.902 1.7192-1.074.5785-.165 2.832.226 3.3106.702z" fill="#bc3131"/><path d="m63.5357 209.259c-.065-8.451.0279-15.355.2788-20.706l-2.286 3.327h.0046l-.4577 19.027h2.4766c-.0046-.544-.0093-1.093-.0139-1.646z" fill="#c95981"/><path d="m63.5498 210.905h-2.4765l-.0976 4.052c.3322 2.247.4972 3.462.4972 3.648v2.25c-.0651 2.658-1.0385 4.35-2.9203 5.082-1.0571.399-3.2015.59-6.4331.58-.2184 0-.4391 0-.6667-.004-.9805-.028-2.1583-.121-3.536-.279-.4623-.046-.8712-.095-1.236-.142-.5715-.072-1.0222-.144-1.3475-.214-.1626-.034-.2973-.069-.3995-.102-1.1129-.214-1.9887-.411-2.623-.597l-.3066-.098c.1324.356.3229.695.5738 1.011.9386 1.302 3.2827 1.952 7.0324 1.952 3.9309-.023 7.051-.093 9.3557-.197 2.4626-.093 3.8473-.825 4.1516-2.192.316-1.45.5018-3.241.5553-5.379l.0186-.379-.0186-.179c-.0558-2.788-.0976-5.727-.1255-8.816z" fill="#cecece"/><path d="m61.5238 191.878 2.2861-3.327c-.8619-4.171-3.4756-6.337-7.8479-6.495v-.019c-4.0936-.134-6.5562 1.987-7.3902 6.356 0 2.351.0348 5.344.0999 8.985.0627 3.439.2904 7.95.683 13.526h11.7091l.4577-19.026z" fill="#e56f95"/><path d="m42.32 225.181c.6366.186 1.5101.383 2.623.597.0999.035.2323.067.3903.102.3252.07.7783.142 1.3474.214.3648.046.776.093 1.243.142 1.3777.158 2.5555.251 3.5359.278.2254.003.4438.005.6598.005 3.2293.009 5.369-.184 6.4261-.581 1.8795-.732 2.853-2.426 2.9203-5.082v-2.249c0-.186-.1649-1.401-.4972-3.648l.0976-4.053h-11.7091c.0929 1.336.1975 2.733.309 4.192l-3.8542.976c-2.5835.651-4.0053 2.166-4.2702 4.543-.0534.36-.0813.75-.0813 1.178-.0395 1.273.1394 2.37.5367 3.288h.0093l.316.1z" fill="#e9e9e9"/><path d="m44.9338 225.779c.1022.033.2369.068.3996.102-.158-.034-.2905-.067-.3904-.102-1.1128-.214-1.984-.411-2.6229-.597l-.3159-.1v.002l.3066.098c.6343.186 1.5101.383 2.623.597z" fill="#e56f95"/><path d="m47.9236 226.235c-.467-.048-.8782-.095-1.2429-.141.3647.046.7713.093 1.2359.141 1.3777.159 2.5556.251 3.536.279.2277.003.4507.005.6668.005-.2161 0-.4345 0-.6598-.005-.9804-.028-2.1583-.12-3.536-.279z" fill="#e56f95"/><path d="m51.4134 127.072c.4623.146.8689.318 1.2127.518l.4554.279c1.2592.852 2.0816 2.033 2.4626 3.548.3601 1.515.1464 2.897-.6365 4.145-.2905.465-.6482.872-1.0734 1.216-3.1666 3.216-7.2043 8.304-12.1226 15.264-5.0089 7.08-8.3102 13.916-9.9133 20.506l-10.968-4.505.0813-.319c2.9157-9.327 6.1403-16.918 9.6763-22.779 1.919-3.202 3.9193-5.879 6.0009-8.028 6.0405-6.26 9.5044-9.448 10.3919-9.567l2.0072-.337c.4089-.093.8155-.132 1.2128-.12.3833 0 .7876.058 1.2127.179z" fill="#c95981"/><path d="m51.4133 127.071c.8735.809 1.4566 1.82 1.7494 3.03.3601 1.527.1463 2.9-.6366 4.125-.3043.492-.6575.899-1.0548 1.215-3.0597 3.095-7.1021 8.184-12.118 15.264-4.981 7.027-8.2916 13.863-9.9364 20.507l-8.5031-3.486c2.9157-9.327 6.1403-16.918 9.6763-22.779 1.919-3.202 3.9193-5.879 6.0009-8.028 6.0126-6.244 9.3998-9.46 10.1526-9.646.7132-.174 1.3358-.29 1.8678-.36.5019-.053.9921-.074 1.4707-.058.5297.039.9734.112 1.3312.221l-.0047-.005z" fill="#e56f95"/><path d="m22.6309 178.356c-1.4707-.651-2.5022-1.739-3.0969-3.265-.5832-1.541-.5367-3.033.1394-4.483.676-1.422 1.754-2.409 3.2362-2.967 1.5218-.546 2.9924-.499 4.4095.14 1.4567.639 2.4743 1.7 3.0574 3.188.611 1.475.6017 2.939-.0186 4.401-.611 1.459-1.668 2.502-3.1782 3.125-1.5101.586-3.0225.539-4.5488-.139z" fill="#c95981"/><path d="m20.7212 164.293c.7945-1.726 2.0978-2.921 3.9123-3.587 1.8005-.679 3.5754-.623 5.3202.158 1.7494.783 2.9784 2.072 3.6916 3.864.7411 1.777.7411 3.543 0 5.298-.7806 1.777-2.0653 3.032-3.8542 3.764-1.8261.704-3.6615.658-5.4991-.139-1.7889-.797-3.0388-2.119-3.7544-3.962-.6877-1.843-.6296-3.644.1766-5.4h.0046z" fill="#c95981"/><path d="m30.0371 167.28c1.2058-.453 2.4092-.411 3.615.121 1.1942.53 2.0398 1.401 2.5416 2.612.5181 1.248.5297 2.463.0395 3.646-.4902 1.208-1.3521 2.052-2.5788 2.528-1.1941.476-2.4185.446-3.673-.1-1.2429-.558-2.1118-1.452-2.602-2.688-.4902-1.237-.474-2.457.0395-3.665.518-1.197 1.3893-2.01 2.6229-2.451z" fill="#c95981"/><path d="m18.9345 162.88c1.2058-.453 2.4092-.411 3.6149.121 1.2058.53 2.0584 1.401 2.5603 2.612.5018 1.247.5087 2.463.0185 3.643-.4902 1.208-1.3521 2.054-2.5788 2.531-1.1941.476-2.4184.446-3.673-.1-1.2174-.546-2.0863-1.441-2.602-2.689-.4902-1.236-.474-2.456.0395-3.664.5181-1.197 1.3893-2.01 2.6229-2.452z" fill="#e56f95"/><path d="m21.0393 163.958c.7806-1.713 1.9724-2.958 3.5755-3.746 1.603-.755 3.1038-.825 4.507-.198 1.4451.639 2.4023 1.806 2.8808 3.507.5181 1.701.3973 3.413-.3601 5.14-.7411 1.766-1.919 3.076-3.5336 3.924-1.5752.809-3.1248.883-4.6465.221-1.4706-.65-2.4394-1.847-2.9203-3.588-.4739-1.738-.3136-3.494.4972-5.26z" fill="#e56f95"/><path d="m21.8921 178.018c-1.2174-.53-2.0514-1.527-2.5021-2.986-.4089-1.434-.2858-2.893.3786-4.38.6761-1.406 1.6681-2.428 2.9784-3.067 1.3638-.623 2.6346-.669 3.8125-.14 1.2173.53 2.0398 1.506 2.4626 2.928.4368 1.422.3508 2.847-.2579 4.285-.6366 1.487-1.6216 2.565-2.9575 3.228-1.3521.662-2.6531.708-3.9123.139v-.005z" fill="#e56f95"/><path d="m26.3409 172.263c-.4739-1.051-.5018-2.073-.0813-3.068.4252-.957 1.1709-1.608 2.2443-1.951 1.0454-.333 2.1118-.261 3.1968.22 1.0849.477 1.8655 1.227 2.3441 2.25.4902 1.022.5367 2.033.1394 3.03-.3973.994-1.1314 1.673-2.2048 2.033-1.0733.36-2.1582.29-3.2548-.198-1.1128-.492-1.9074-1.261-2.3837-2.307v-.007z" fill="#e56f95"/><path d="m88.736 127.1h-1.7727v.191c0-.031-.0162-.059-.0418-.086-.0163-.035-.0395-.07-.0627-.105h-4.8509c1.5031 5.837 1.819 11.674.9502 17.511l-23.7412.256-.4019-17.762h-6.8931c.5251 22.948-.1417 43.636-2.0049 62.067.4623 1.748 1.7308 2.812 3.7962 3.191 2.0816.367 5.1366.569 9.1721.611l17.415-.019c1.8423 0 3.2595-.111 4.2585-.336.532-.128 1.0199-.275 1.4566-.447.7876-.139 1.4567-.436 2.005-.887.223-.198.4275-.423.611-.679 4.6651-14.472 4.6999-35.638.1046-63.508zm-.2115 42.591h-.0186c.0117-.086.0186-.179.0186-.274z" fill="#edd366"/><path d="m90.2345 163.474c0-.79-.1394-1.503-.4205-2.133-.3787-.832-.9432-1.248-1.6867-1.248-.2555 0-.9502.214-2.0886.635-1.1383.423-1.9886.634-2.5532.634-.7016 0-1.3637-.26-1.9817-.783-.3369-.284-.8643-.867-1.5798-1.754-1.3638-1.694-2.7066-2.538-4.0285-2.538-.8735 0-1.8539.414-2.9505 1.248-1.4056 1.085-2.1072 2.433-2.1072 4.041 0 .016.1975.739.5901 2.177.0279.098.0581.198.086.295-.395.481-.8991.825-1.5171 1.039-.4205.156-1.0036.325-1.7494.506-.5204.214-.7806.565-.7806 1.058 0 .945.309 1.503.927 1.67.985.284 1.8005.923 2.444 1.924-.3252.354-.611.756-.8642 1.206-.2672.507-.402.953-.402 1.332 0 .609.2742 1.178.8225 1.712.5761.551 1.2174.825 1.919.825.3508 0 .841-.139 1.4752-.423.6343-.283 1.1245-.422 1.4753-.422.5901 0 1.1035.29 1.5403.866.0418.058.4135.686 1.1151 1.882 1.0548 1.834 2.5556 2.752 4.5094 2.752 1.0106 0 2.0584-.558 3.1434-1.671 1.1384-1.169 1.7076-2.375 1.7076-3.618 0-.353-.1394-.988-.4205-1.901-.2812-.918-.4206-1.55-.4206-1.903 0-1.313.6343-2.502 1.8958-3.576 1.2662-1.085 1.8958-2.363 1.8958-3.827l.0046-.007z" fill="#f4edc6"/><path d="m117.999 2.72878c1.985.55769 3.757 2.13779 5.323 4.74031 1.15 1.89845 2.328 4.60091 3.534 8.10731 2.688 7.7146 4.46 15.018 5.32 21.9077 1.02 8.0446.934 16.4238-.258 25.1352-.425 3.1068-.962 6.267-1.605 9.4783-1.815 3.532-5.904 5.4839-12.272 5.8557-6.433.3602-11.72.244-15.863-.3369-4.1421-.5461-8.5214-1.3756-13.1446-2.491-4.5536-1.127-9.4835-3.6552-14.7897-7.5868-5.2668-3.9712-7.5645-8.4257-6.8884-13.3635 3.6916-7.0222 6.9348-12.6455 9.7274-16.8676 2.6229-3.9967 5.3945-7.6426 8.3171-10.9353 7.6226-8.6836 12.5618-13.9142 14.8132-15.6941 3.348-2.58626 6.075-4.46612 8.178-5.63493 3.984-2.24235 7.185-3.01381 9.611-2.30742v-.00464z" fill="#e56f95"/><path d="m9.45335 5.19987c1.49845-2.64203 3.22235-4.273252 5.17385-4.893675 2.3953-.766815 5.6153-.092947 9.667 2.016955 2.1188 1.09678 4.8997 2.90228 8.3358 5.40953 2.2907 1.68699 7.3832 6.76192 15.2845 15.23402 3.0713 3.2625 5.9522 6.8293 8.6518 10.7006 3.0016 4.3034 6.4051 9.8291 10.2152 16.5701.8132 4.9379-1.3591 9.4621-6.512 13.575-5.1553 4.0711-10.0015 6.741-14.5411 8.0074-4.6721 1.2641-9.0328 2.2238-13.0729 2.893-4.1098.6971-9.3882.9643-15.8445.8016-6.3749-.1905-10.5219-2.0216-12.43857-5.4838-.74808-3.216-1.37303-6.3646-1.87253-9.4458-1.46828-8.6232-1.807475-16.9954-1.01758-25.119.65051-6.9036 2.2094-14.2511 4.679-22.0424 1.12445-3.618 2.22102-6.35529 3.29203-8.21656z" fill="#e56f95"/><path d="m.729492 62.2953c1.765658-9.7037 6.832638-16.2448 15.198608-19.6235 12.6733-5.1283 28.5363-7.7448 47.5845-7.8494 19.0645-.1045 35.8569 1.8055 50.3794 5.7302 7.427 2.0147 12.945 6.0532 16.553 12.1134 3.171 5.2933 4.684 11.8717 4.533 19.7373-.031 1.443-.121 2.9464-.27 4.5103-.887 9.5643-4.119 18.3896-9.697 26.4804-4.795 6.932-11.11 13.045-18.944 18.339-5.357 3.629-11.0257 6.62-17.0034 8.976-8.9352 2.249-18.249 2.649-27.9416 1.194-9.7088-1.452-19.097-5.662-28.1669-12.631-9.0792-6.966-16.6437-15.566-22.6864-25.8045-6.059-10.2382-9.23719-20.6297-9.539208-31.1722z" fill="#e56f95"/><path d="m.571585 79.1904c-.31596-2.5863-.5041421-5.0308-.56454622-7.3312-.05808088-3.4693.18121222-6.6574.72252622-9.5643.299695 10.5426 3.480205 20.9317 9.539235 31.1722 6.045 10.2359 13.6072 18.8379 22.6864 25.8049 9.0699 6.966 18.4581 11.176 28.1669 12.631 9.6925 1.452 19.0064 1.055 27.9416-1.194-1.5078.599-3.0342 1.155-4.5791 1.668-6.9163 2.301-12.8777 3.39-17.8843 3.272-2.4069-.054-4.9555-.353-7.6458-.902-3.4244-.69-7.0789-1.78-10.961-3.271-7.3229-2.812-14.2229-6.572-20.7024-11.277-7.2159-5.263-13.0798-11.149-17.5892-17.663-5.12738-7.3982-8.17082-15.1802-9.132638-23.3456z" fill="#c95981"/><path d="m58.9334 108.767c1.6821-2.968 4.7604-4.968 8.4055-6.339 3.234-1.218 6.9442-1.278 9.904.648 1.9399 1.262 3.4174 3.258 4.8509 5.214 2.6322 3.59 1.6983 12.743-2.149 15.365-3.4523 2.377-7.9571 2.351-12.053 2.044-2.5741-.179-5.5107-.792-7.6992-2.683-1.6076-1.381-1.7377-2.889-2.2721-5.443-.7597-3.62-.2927-6.501 1.0129-8.804z" fill="#561814"/><path d="m121.877 80.7574c.051.3532.211.6901.451.8993.462.402 1.119.3903 1.64.5019.697.151 1.354.2533 1.972.3183 1.564-.0883 3.109.079 4.514-.7738.76-.4601 2.626-1.4406 1.968-2.721-.332-.6437-.939-.3555-1.51-.1952-1.873.4229-3.343.5693-5.251.639-.35.0302-.703.007-1.059-.0697-.441-.0418-.88-.0906-1.32-.151-.239.0372-.45.0836-.636.1417-.274.1232-.439.2301-.488.3253-.258.2812-.339.6948-.283 1.0875z" fill="#c64f74"/><path d="m121.285 88.7998c.529.3277.989.5693 1.373.7343.302.0604.553.1092.75.1557 1.464.3369 2.56.6878 4.059.4392 1.236-.1743 2.128-.316 3.129-1.3408.151-.1533.3-.3183.397-.5251.14-.2975.156-.6483.168-.983.03-.8179-1.78-.1998-2.27-.1556-.6.0557-1.22.1115-1.819.0604-.572-.0488-1.141-.1116-1.708-.1906-1.382-.2254-1.982-.6483-2.658-.9689-.123-.0279-.246-.0581-.369-.086-.43-.0488-.853-.1464-1.185.2277-.567.6367-.655 1.9589.035 2.498l.093.1371z" fill="#c64f74"/><path d="m13.9231 80.1656c-.0511.3532-.2114.6901-.4507.8993-.4623.402-1.1198.3903-1.6402.5019-.697.151-1.3545.2533-1.97245.3183-1.56354-.0883-3.10849.079-4.51405-.7738-.7597-.46-2.62526-1.4406-1.96778-2.721.33222-.6437.93858-.3555 1.5101-.1952 1.87253.4229 3.34314.5693 5.25048.639.3508.0302.704.007 1.0594-.0697.4414-.0418.8805-.0906 1.3196-.151.2393.0372.4507.0836.6366.1417.2741.1232.4391.2301.4879.3253.2579.2812.3392.6948.2834 1.0875z" fill="#c64f74"/><path d="m14.6061 88.0696c.69-.5391.6017-1.8612.0349-2.4979-.3323-.3718-.7551-.2742-1.1849-.2278-.1231.0303-.2463.0581-.3694.086-.6761.3184-1.2754.7436-2.6578.969-.56684.079-1.13603.1417-1.70755.1905-.5994.0512-1.21738-.0046-1.8191-.0604-.48787-.0464-2.3-.6646-2.2698.1557.01162.3369.02788.6855.16728.9829.09757.2045.24626.3695.39727.5252.99899 1.0247 1.89344 1.1665 3.1294 1.3407 1.49849.2487 2.5951-.1022 4.0587-.4391.1975-.0465.4484-.0953.7504-.1557.3833-.165.8433-.4067 1.373-.7343l.093-.1371z" fill="#c64f74"/><path d="m114.77 68.2248c-2.202-1.5406-4.551-2.893-6.87-3.9851-7.388-3.4762-17.2707-5.5838-23.4063.5066-4.3979 4.4335-6.7583 10.0801-7.0813 16.9396-.3066 6.8618 1.9353 11.9298 6.7235 15.2085 4.7882 3.2786 10.3918 4.9166 16.8111 4.9166 6.4 0 11.614-1.519 15.638-4.5588 4.007-3.0394 6.086-8.1096 6.24-15.2085.132-6.1229-3.169-10.4031-8.057-13.8189z" fill="#fff"/><path d="m26.4801 68.2248c2.2025-1.5406 4.5513-2.893 6.8698-3.9851 7.3879-3.4762 17.271-5.5838 23.4066.5066 4.3979 4.4335 6.7583 10.0801 7.0813 16.9396.3066 6.8618-1.9353 11.9298-6.7235 15.2085-4.7882 3.2786-10.3918 4.9166-16.8109 4.9166-6.4005 0-11.6139-1.519-15.6377-4.5588-4.0076-3.0394-6.0869-8.1096-6.2402-15.2085-.1324-6.1229 3.1689-10.4031 8.057-13.8189z" fill="#fff"/><path d="m101.395 85.2279c1.459-1.4918 3.227-2.2377 5.304-2.2377s3.868.7459 5.327 2.2377c1.476 1.443 2.214 3.2114 2.214 5.305s-.738 3.8689-2.214 5.3282c-1.459 1.4755-3.236 2.2145-5.327 2.2145-2.077 0-3.842-.739-5.304-2.2145-1.4913-1.4593-2.237-3.2369-2.237-5.3282s.7457-3.8596 2.237-5.305z" fill="#3c3232"/><path d="m46.1721 84.0658c1.459-1.4918 3.227-2.2377 5.3039-2.2377 2.077 0 3.8682.7459 5.3272 2.2377 1.4753 1.443 2.2141 3.2114 2.2141 5.305s-.7388 3.8689-2.2141 5.3282c-1.459 1.4755-3.2362 2.2145-5.3272 2.2145-2.0769 0-3.8426-.739-5.3039-2.2145-1.4915-1.4593-2.2373-3.2369-2.2373-5.3282 0-2.0936.7458-3.8596 2.2373-5.305z" fill="#3c3232"/><path d="m70.6122 97.8265c-12.65 0-17.8169 7.7705-18.3512 13.6605 5.5781 8.115 14.6131 5.315 18.3536 1.186 3.7102 4.108 12.4502 6.411 17.9981-1.704-.5297-5.893-4.5257-13.1448-18.0005-13.1448z" fill="#e56f95"/><path d="m69.7946 101.778c.0046-.57.0882-.941.2532-1.116.3276-.9036.6575-1.3544.9897-1.3475.3415-.0023.6923.4439 1.0501 1.3435.0813.174.158.804.2277 1.889l-.0953 8.128c.2161.302.4159.572.5948.809 1.7354 2.026 4.061 3.183 6.9767 3.471 1.1871.107 2.4301-.051 3.7264-.469 1.7959-.607 3.3803-2.405 4.7487-5.398.4112.843.6087 1.631.5948 2.361.0023.083-.0047.172-.0233.262-.0999.781-.5366 1.745-1.3149 2.891-.7783 1.141-1.8029 1.975-3.0713 2.505-.5506.397-2.1212.616-4.7139.653-2.609.037-5.5572-1.143-8.8422-3.544-2.8042 2.535-5.7686 3.811-8.8934 3.832-1.5078.005-3.0759-.293-4.7022-.888-1.2569-.525-2.3929-1.243-3.4105-2.149-1.0129-.918-1.6425-1.917-1.8911-3.002-.0604-.307-.093-.595-.0953-.862 0-.721.2184-1.334.6482-1.845 1.4032 2.739 3.0318 4.403 4.8858 4.993 1.8423.579 3.3594.811 4.5512.702 2.9296-.304 5.2761-1.466 7.044-3.49.1905-.249.3903-.521.5948-.818l.1626-8.904z" fill="#511414"/><path d="m78.0467 99.2695c.1487-.883-.6923-1.6428-2.5207-2.2818-1.5565-.5228-3.0364-.7784-4.4397-.7645-2.07.0139-3.6684.1534-4.7951.4159-1.7216.3695-2.6021 1.0294-2.6392 1.9845-.0697 1.8404.5552 3.3784 1.8748 4.6124 1.3452 1.25 3.1015 1.866 5.2714 1.847 1.9283-.034 3.5244-.532 4.7882-1.491 1.3289-1.004 2.149-2.445 2.4603-4.3201z" fill="#511414"/><path d="m54.2359 101.348c-3.5429.786-7.2136 3.939-9.5044 5.935-1.9143 1.696-5.3899 4.71-4.4536 6.309 1.064 1.833 6.2263-3.713 7.8479-5.235 1.6216-1.523 4.7069-2.817 6.7931-4.285 1.0269-.716 1.4288-3.265-.683-2.724z" fill="#c95981"/><path d="m83.9735 101.414c3.594.495 7.5087 3.339 9.9551 5.142 2.0467 1.534 5.7546 4.257 4.9508 5.926-.9107 1.912-6.5074-3.195-8.2475-4.58s-4.9206-2.426-7.1184-3.718c-1.0826-.63-1.689-3.14.46-2.77z" fill="#c95981"/><path d="m76.4389 92.0746c-1.6169-.7924-3.6149-1.2804-5.9428-1.3571-1.3451-.0441-2.7763.2254-4.2283.8203-.4205.172-.7852.3416-1.0942.5042.2277.7064.3438 1.4593.3438 2.2587 0 .2184-.0093.4322-.0279.6436.3625-.1928.8596-.3973 1.5009-.6065 1.1941-.3927 2.3789-.5925 3.529-.6018 2.0212-.007 3.9285.4508 5.6175 1.3292-.0232-.251-.0371-.5043-.0371-.7645 0-.7878.1184-1.529.3391-2.2261z" fill="#909090"/><path d="m65.1737 92.0416c-.3392-1.048-.927-1.996-1.7703-2.8372-1.4032-1.4105-3.1015-2.1146-5.0949-2.1146-1.9933 0-3.6846.7041-5.0948 2.1146-.1139.1139-.2207.2324-.3253.3485.1905 3.0255 1.7564 6.0137 4.5234 7.3986 2.4301 1.0132 5.3225.9411 7.7364-.3253.1788-.5344.2927-1.0944.3391-1.6823.0163-.2115.0279-.4252.0279-.6437 0-.7993-.1161-1.5522-.3438-2.2586z" fill="#c5ebf9" opacity=".85"/><path d="m57.414 96.9513c-2.7693-1.3849-4.3328-4.3731-4.5233-7.3986-1.1849 1.3385-1.7796 2.9209-1.7796 4.745 0 1.9867.7016 3.6853 2.1048 5.0958 1.4102 1.4105 3.1085 2.1145 5.0949 2.1145s3.6916-.704 5.0949-2.1145c.8224-.8249 1.4055-1.7474 1.747-2.7675-2.4161 1.2664-5.3062 1.3385-7.7364.3253z" fill="#89d9ef" opacity=".85"/><path d="m88.3944 89.2044c-1.4033-1.4105-3.1016-2.1146-5.0949-2.1146s-3.6847.7041-5.0949 2.1146c-.1138.1139-.2207.2324-.3252.3485.1905 3.0255 1.7564 6.0137 4.5233 7.3986 2.4301 1.0132 5.3226.9411 7.7364-.3253.2439-.725.3671-1.5011.3671-2.3283 0-1.9867-.704-3.6854-2.1142-5.0958z" fill="#c5ebf9" opacity=".85"/><path d="m82.405 96.9513c-2.7693-1.3849-4.3328-4.3731-4.5233-7.3986-.6738.7599-1.1501 1.6034-1.4405 2.5212-.2207.6971-.3391 1.4384-.3391 2.2261 0 .2603.0116.5135.0371.7645.1603 1.6614.848 3.1068 2.0677 4.3313 1.4102 1.4102 3.1085 2.1142 5.0949 2.1142 1.9863 0 3.6916-.704 5.0948-2.1142.8224-.8249 1.4056-1.7474 1.7471-2.7675-2.4162 1.2664-5.3063 1.3385-7.7364.3254z" fill="#89d9ef" opacity=".85"/><path d="m41.256 230.24c-.3415-.092-.6621-.216-.913-.402-.0372-.032-.0697-.067-.1046-.102-.0952-.348-.1928-.697-.2788-1.048-.0093-1.306-.0139-2.609-.0209-3.915 0-.223 0-.451.0837-.653.2904-.695 1.6053-.321 2.1234-.298.9014.045 2.3372.084 3.2386.121 1.7587.072 3.5197.135 5.2784.186 5.3388.154 9.1164.209 14.4552.161h.2253c.0139.032.0302.069.0441.111.1092.332.1696.897.1929 1.692.0023 1.071.4344 3.155-.5646 3.792-.2021.13-.4437.172-.6784.216-1.5403.27-3.2478.07-4.8276.086-1.8377.019-3.6731.035-5.5108.046-3.5731.021-7.6852.052-11.2584-.025-.1463-.002-.8386.042-1.4868.035l.0046-.005z" fill="#9e7135"/><path d="m45.1544 215.356c-.079.079-.1348.16-.1627.244-.2532.771.316 1.743.4345 2.516.381 2.475.3299 4.346.6482 6.507.0278.174.0557.358.1835.499.1371.154.3531.251.5785.281 1.3521.186 3.7241.177 5.1064.012.2068-.023.4275-.053.5948-.158.3136-.195.3369-.572.3345-.897-.0162-1.787-.0836-3.599-.6644-5.319-.3996-1.187-1.0385-2.398-2.0491-3.313-.4275-.388-1.1059-.895-1.7099-1.069-.5762-.163-2.8227.225-3.299.699h.0023z" fill="#e24040"/><path d="m233.546 161.229c-.196-.846-.704-1.45-1.499-1.84-.866-.437-1.8-.493-2.818-.186-.578.174-1.178.49-1.81.95-.165.117-.701.563-1.64 1.309-.59.471-1.459 1.087-2.623 1.812-1.775 1.118-3.603 2.161-5.478 3.125-1.529.788-2.677 1.295-3.408 1.581-2.189.88-4.438 1.468-6.673 1.759-.446.058-.787.118-1.024.183-.36.119-.632.288-.823.511-.283.323-.404.853-.362 1.592.049 1.057.098 1.843.158 2.349.121.874.321 1.625.609 2.25.076.16.151.304.227.439-.011 0-.025.002-.037.004.26.409.593.684 1.001.816.423.144 1.102.121 2.029-.091 1.916-.404 3.828-.878 5.729-1.424 6.18-1.88 11.769-5.349 16-9.862.864-.927 1.482-1.749 1.877-2.451.513-.962.697-1.834.579-2.603-.014-.055-.031-.118-.049-.181.007-.014.018-.03.025-.044zm-26.606 15.769c.197-.023.395-.047.59-.075-.197.028-.393.049-.59.075z" fill="#cc697c"/><path d="m220.364 223.568c.936-.306 2.142-.546 3.619-.715 3.627-.414 8.12-.551 13.475-.407 6.01.27 10.51.418 13.5.446l1.647.04c.595.025 1.139.088 1.634.19 1.033.228 1.998.628 2.89 1.204.639.414 1.152.895 1.54 1.448.488.711.73 1.45.73 2.216.018.93-.291 1.776-.918 2.542-.495.605-1.145 1.1-1.945 1.488-1.944.964-4.226 1.61-6.844 1.933-1.559.197-3.903.311-7.035.337-5.517.044-9.62-.072-12.301-.351-4.5-.425-8.52-1.397-12.055-2.919-.737-.323-1.288-.68-1.648-1.066-.271-.298-.467-.634-.58-1.016-.163-.432-.217-.843-.163-1.231.056-.786.432-1.504 1.134-2.163.908-.883 2.016-1.541 3.322-1.973h.002z" fill="#000" fill-opacity=".15"/><path d="m226.615 199.669c.816-3.521 2.626-5.135 5.43-4.85v.014c3.027.333 4.718 2.006 5.076 5.022-.451 4.196-.846 9.143-1.18 14.836-.077 1.316-.216 3.816-.414 7.508l.005.121-.035.27c-.142 1.561-.353 2.839-.632 3.831-.288.962-1.275 1.422-2.971 1.381-1.605-.028-3.754-.126-6.449-.298-2.589-.172-4.168-.748-4.749-1.731-.144-.23-.263-.483-.351-.76-.221-.674-.295-1.471-.218-2.386l.114-.82c.302-1.687 1.361-2.708 3.173-3.063.595-.119 1.591-.279 2.988-.486-.147-6.49-.151-11.146-.007-13.963l.218-4.631z" fill="#cc697c"/><path d="m220.796 224.841c.608.316 1.626.667 3.05 1.053 1.48.397 2.9.576 4.266.543 2.253-.06 3.998-.172 5.236-.334 1.004-.135 1.917-.353 2.742-.653.318.095.518.174.604.235.155.099.262.262.33.485.007.256-.028.525-.114.807-.082.248-.251.448-.504.601-.261.135-1.037.291-2.321.467-1.169.177-3.113.356-5.834.535-2.602.188-4.509-.005-5.71-.583-1.176-.567-1.964-1-2.356-1.299-.351-.27-.572-.523-.662-.753-.084-.202-.103-.453-.054-.748.047-.277.116-.46.202-.553.175-.184.551-.117 1.122.204h.003z" fill="#51887c"/><path d="m219.785 221.33c1.817 1.199 3.545 1.831 5.181 1.896 1.262.04 2.451.026 3.564-.037 1.024-.06 2.597-.232 4.721-.509 2.105-.279 3.35-.59 3.738-.932.111.704.132 1.529.063 2.473-.066.906-.177 1.48-.33 1.724-.121.193-.653.369-1.594.534l-2.2.289c-1.129.132-2.375.237-3.731.309l-3.216.116c-1.573.065-2.948-.177-4.116-.723-1.171-.537-1.831-.988-1.987-1.352-.149-.4-.241-.986-.276-1.755-.031-.825.035-1.503.19-2.033h-.004z" fill="#65c0ac"/><path d="m219.792 221.328c-.018-.472.137-.876.47-1.213.309-.281.806-.585 1.486-.906.437-.184 1.076-.456 1.915-.809.601-.246 1.043-.372 1.312-.379.279.003.614.059 1.004.17l1.408.388c.574.179.983.323 1.227.442.295.165.515.397.666.697.165.318.235.583.2.788 2.56.153 5.035-.159 7.418-.932.242.513.274 1.241.098 2.177-.388.342-1.631.653-3.736.932-2.123.279-3.699.448-4.721.509-1.115.062-2.302.074-3.564.037-1.637-.065-3.366-.697-5.18-1.896h.002z" fill="#69dbd6"/><path d="m273.187 210.443c.562.018 1.004.16 1.315.432.444.33.688.929.73 1.799-.017 1.108-.433 2.14-1.246 3.085-.803.902-1.763 1.532-2.88 1.885-1.81.595-4.061.492-6.752-.312-2-.597-3.896-1.447-5.682-2.542-1.831-1.124-3.425-2.444-4.777-3.957-1.403-1.575-2.509-3.323-3.311-5.237-.834-1.959-1.291-3.962-1.377-6.007-.047-.793.097-1.346.437-1.657.271-.235.75-.365 1.433-.39l3.085-.103c.593 1.625 1.292 3.123 2.103 4.499 1.122 1.894 2.43 3.495 3.921 4.803 1.613 1.415 3.409 2.463 5.379 3.149 2.084.725 4.123.957 6.119.692.73-.104 1.229-.151 1.501-.137z" fill="#cc697c"/><path d="m228.644 165.745c2.502.748 5.276 1.178 8.324 1.292 4.144.114 8.645-.46 13.502-1.717 1.408 3.004 2.593 6.102 3.555 9.297 1.41 4.52 2.288 9.004 2.634 13.456.282 2.993-.053 5.803-1.005 8.421-.63 1.804-1.515 3.439-2.658 4.91-.616.537-1.208 1.007-1.775 1.411-1.682 1.171-3.583 2.01-5.704 2.523-1.038.235-2.149.4-3.336.505-.72.03-1.533.025-2.444-.005l-.474-.03c-2.53-.233-4.858-.89-6.993-1.973-2.256-1.234-4.084-2.909-5.487-5.026-1.431-2.238-2.396-5.05-2.886-8.435-.239-1.689-.362-3.66-.362-5.914l-.007-.811c.011-.976.028-1.698.053-2.179l.054-1.678c.053-.442.076-.804.067-1.083l.346-3.876c.374-3.462.99-6.843 1.854-10.147.767.376 1.682.732 2.742 1.066h-.003z" fill="#f38da1"/><path d="m227.124 160.982c.7-1.838 1.371-3.149 2.008-3.932.592-.716 2.06-1.241 4.402-1.571 1.668-.242 3.471-.353 5.409-.339.982-.005 1.898.025 2.746.095l.58.04c1.685.102 3.186.33 4.501.685 2.121.514 3.568 1.35 4.344 2.5.801 1.118 1.48 2.605 2.028 4.466.539 1.764.964 3.302 1.276 4.62l2.181 8.412c.404 1.422.72 2.728.95 3.91.36 1.434.618 2.731.774 3.89.084.451.142.967.174 1.552.042.242.068.535.077.879l-.005.367c.028.063.04.135.033.216l.021 1.961c-.042 1.174-.177 2.294-.402 3.363-.265 1.266-.669 2.495-1.206 3.68-.339.804-.774 1.601-1.303 2.401-.391.613-.797 1.176-1.227 1.68-.411.506-.906 1.022-1.487 1.552 1.143-1.473 2.026-3.109 2.658-4.91.952-2.619 1.287-5.426 1.006-8.421-.349-4.452-1.224-8.939-2.635-13.456-.964-3.195-2.146-6.295-3.554-9.297-4.858 1.257-9.358 1.831-13.503 1.717-3.046-.114-5.822-.544-8.324-1.292-1.064-.335-1.977-.69-2.741-1.067.357-1.206.762-2.44 1.217-3.694v-.005z" fill="#dd7287"/><path d="m222.587 74.8999c1.227 1.0852 2.762 2.7327 4.611 4.9402 1.234 1.5103 3.75 5.7046 7.549 12.585 1.463 2.6142 2.771 5.4374 3.928 8.4749 1.236 3.211 2.572 7.417 3.999 12.617-.275 3.374-2.451 5.993-6.533 7.852-4.103 1.829-7.751 2.781-10.941 2.86-3.231.061-6.265-.032-9.097-.279-2.839-.22-6.368-.922-10.594-2.105-4.175-1.183-6.608-3.076-7.298-5.686.04-2.226.147-4.401.319-6.525.481-5.953 1.649-11.5205 3.503-16.707 1.582-4.4429 3.827-9.0275 6.74-13.7492 1.312-2.1494 2.493-3.769 3.534-4.8588 1.419-1.4965 2.829-2.2842 4.228-2.3632 1.712-.1115 3.729.8691 6.05 2.9441z" fill="#f38da1"/><path d="m284.466 84.5991c1.696 5.2887 2.774 10.2753 3.232 14.9645.558 5.5144.344 11.2024-.632 17.0604-.335 2.094-.75 4.234-1.252 6.418-1.297 2.359-4.117 3.606-8.454 3.753-4.394.123-7.988-.047-10.785-.511-2.753-.442-5.722-1.088-8.903-1.936-3.092-.85-6.398-2.656-9.913-5.41-3.515-2.779-5.002-5.848-4.463-9.206 2.577-4.587 4.881-8.344 6.914-11.2745 1.826-2.635 3.782-5.0633 5.864-7.2847 5.357-5.7674 8.814-9.2273 10.366-10.3752 2.335-1.7103 4.222-2.9395 5.662-3.6924 2.753-1.443 4.942-1.9077 6.575-1.3919 1.329.4183 2.509 1.5221 3.533 3.3136.732 1.2594 1.485 3.1161 2.259 5.5722z" fill="#f38da1"/><path d="m195.547 120.027c.207-5.347 1.487-9.752 3.828-13.217 2.67-3.978 6.566-6.511 11.689-7.5961 9.983-2.103 21.438-2.7582 34.37-1.9682 12.933.8087 23.587 3.1903 31.965 7.1503 5.529 2.595 8.714 7.224 9.548 13.886-.597 7.138-3.15 14.07-7.65 20.792-4.493 6.711-9.948 12.26-16.367 16.643-6.426 4.389-12.954 6.892-19.576 7.503-6.621.622-12.922-.003-18.899-1.876-3.985-1.849-7.711-4.096-11.182-6.741-5.109-3.882-9.156-8.274-12.148-13.166-3.457-5.706-5.316-11.82-5.562-18.338-.046-.95-.053-1.975-.019-3.077v.005z" fill="#f38da1"/><path d="m243.352 163.225c6.621-.611 13.15-3.114 19.576-7.503 6.419-4.383 11.874-9.929 16.367-16.643 4.5-6.722 7.051-13.651 7.65-20.792.258 1.994.298 4.169.121 6.527-.137 1.601-.355 3.251-.657 4.952-.958 5.503-3.318 10.668-7.082 15.499-3.278 4.225-7.478 7.994-12.601 11.312-4.572 2.948-9.393 5.235-14.464 6.855-2.693.866-5.209 1.473-7.546 1.81-1.838.265-3.576.372-5.216.316-3.387-.112-7.39-1.076-12.006-2.898-1.05-.42-2.063-.855-3.039-1.31 5.978 1.87 12.278 2.498 18.899 1.875z" fill="#dd7287"/><path d="m255.86 113.729c4.208.237 7.73 1.931 10.566 5.079 2.818 3.177 4.038 7.169 3.659 11.981-.378 4.829-1.984 8.189-4.816 10.08-2.832 1.908-6.421 2.74-10.763 2.496-4.354-.244-8.09-1.573-11.212-3.978-3.113-2.398-4.44-5.923-3.98-10.577.495-4.65 2.312-8.394 5.448-11.222 3.19-2.811 6.891-4.096 11.098-3.859z" fill="#fff"/><path d="m227.77 116.662c2.644 3.174 3.771 7.164 3.385 11.965-.374 4.821-1.884 8.186-4.535 10.096-2.676 1.917-6.045 2.765-10.104 2.535-4.077-.23-7.571-1.54-10.489-3.936-2.916-2.396-4.143-5.916-3.676-10.559.46-4.645 2.175-8.393 5.13-11.244 2.997-2.821 6.466-4.12 10.408-3.899 3.943.221 7.237 1.903 9.883 5.04z" fill="#fff"/><path d="m244.279 130.321c1.048-.962 2.277-1.401 3.687-1.322 1.403.079 2.574.656 3.515 1.729.953 1.029 1.387 2.256 1.308 3.678-.079 1.432-.65 2.61-1.714 3.535-1.055.943-2.284 1.375-3.687 1.296-1.413-.079-2.584-.648-3.52-1.703-.953-1.039-1.389-2.275-1.308-3.704.081-1.422.65-2.591 1.714-3.506h.003z" fill="#3c3232"/><path d="m212.85 127.524c1.404.079 2.574.656 3.515 1.729.953 1.029 1.39 2.256 1.311 3.678-.079 1.432-.651 2.61-1.713 3.535-1.054.943-2.283 1.375-3.686 1.296-1.411-.079-2.584-.646-3.52-1.703-.95-1.045-1.385-2.282-1.308-3.704.081-1.413.653-2.581 1.712-3.506 1.048-.962 2.277-1.401 3.687-1.322z" fill="#3c3232"/><path d="m255.338 220.581c-.476.191-.955.374-1.434.553-.213-.265-.794-.927-1.626-2.082-2.681-5.277-3.571-11.249-2.602-17.009.639-.802 1.313-1.548 2.017-2.24-1.085 3.692-1.534 8.841.441 14.565.809 2.316 1.914 4.394 3.206 6.213z" fill="#dd7287"/><path d="m245.754 223.966c.086-.132.175-.262.263-.395-4.008-6.255-5.111-12.152-5.32-16.326-.165-3.597-.105-4.626.392-6.936 1.559-4.287 5-4.215 6.317-4.215 1.315 0 4.44.746 4.287 3.718-.704.692-1.378 1.438-2.017 2.24-.969 5.76-.079 11.73 2.602 17.009.829 1.15 1.41 1.81 1.624 2.08-2.683 1.006-5.439 1.873-8.15 2.828h.002z" fill="#f38da1"/><path d="m255.675 224.277c-.084-.052-.279-.082-.588-.093-.751.453-1.566.841-2.442 1.157-1.078.392-2.681.853-4.802 1.385-1.273.311-2.602.427-3.984.353-1.429-.086-2.405-.214-2.932-.384-.56-.176-.916-.16-1.064.042-.075.093-.114.281-.121.565-.007.283.014.537.065.755.053.2.214.442.483.723.272.279.953.562 2.044.841 1.092.29 2.928.1 5.509-.572 2.537-.646 4.423-1.213 5.657-1.698 1.208-.493 1.91-.862 2.107-1.109.223-.269.358-.529.402-.783.053-.272.056-.534.012-.792-.068-.2-.189-.33-.353-.388h.002z" fill="#51887c"/><path d="m255.891 222.957c-.035-.878-.151-1.657-.342-2.34-.304.409-1.412.953-3.327 1.638-1.868.677-3.296 1.16-4.284 1.448-.99.27-2.086.516-3.294.746-1.522.272-3.222-.047-5.107-.962-.004.709.054 1.438.17 2.187.135.752.334 1.301.602 1.647.251.337.922.644 2.009.913 1.09.253 2.344.188 3.766-.2l2.914-.813c1.147-.293 2.283-.644 3.408-1.048.906-.302 1.568-.539 1.988-.709.832-.337 1.297-.608 1.401-.813.124-.281.156-.846.096-1.694z" fill="#65c0ac"/><path d="m255.549 220.616c.042-.918-.074-1.59-.346-2.012-2.112 1.222-4.354 2.007-6.733 2.358.014-.165-.074-.393-.265-.685-.19-.272-.427-.442-.711-.512-.329-.079-.715-.137-1.161-.174l-1.355-.079c-.378-.028-.69-.016-.929.037-.262.065-.662.281-1.194.651-.655.43-1.292.829-1.914 1.201-.716.439-1.125.814-1.229 1.12-.105.307-.163.628-.175.967 1.884.913 3.585 1.236 5.107.962 1.208-.226 2.304-.476 3.294-.746.988-.29 2.416-.771 4.284-1.45 1.915-.685 3.02-1.229 3.327-1.638z" fill="#69dbd6"/><path d="m241.143 152.413c.081 1.987-.59 3.711-2.017 5.166-1.424 1.462-3.192 2.235-5.304 2.321-2.112.084-3.94-.543-5.485-1.884-1.54-1.334-2.346-2.995-2.43-4.982-.081-1.982.592-3.702 2.017-5.166 1.431-1.454 3.203-2.223 5.313-2.309 2.112-.086 3.933.536 5.473 1.872 1.541 1.341 2.351 3.003 2.43 4.982z" fill="#571916"/><path d="m239.177 139.754c1.067.098 2.084.495 3.053 1.194.904.653 1.649 1.481 2.237 2.484.251.426.458.851.62 1.276.458 1.176.588 2.359.393 3.546-.207 1.332-.866 2.463-1.977 3.402-1.101.96-2.319 1.45-3.659 1.471-1.294.044-2.681-.363-4.163-1.225-.934-.534-1.796-1.187-2.579-1.963-.676.653-1.461 1.157-2.354 1.503-.871.339-1.779.514-2.727.525-.641-.009-1.594-.146-2.858-.409-.543-.097-.968-.197-1.273-.295-.455-.174-.836-.381-1.143-.623-.455-.381-.892-1.068-1.305-2.061-.328-.753-.539-1.38-.637-1.882-.023-.153-.039-.29-.051-.409-.056-.511 0-1.078.163-1.698.106-.405.297-.965.571-1.685.239-.567.448-.96.62-1.178.36-.414.753-.604 1.176-.572.23.012.437.112.62.295.163.175.235.37.214.588 1.252-.643 2.572-1.064 3.952-1.259.794-.133 1.491-.133 2.088 0 .753.162 1.329.497 1.731.999.174.218.332.328.474.328.107 0 .225-.086.358-.261.774-.892 2.079-1.526 3.919-1.896 1.034-.188 1.88-.253 2.532-.197h-.002z" fill="#f38da1"/><path d="m220.733 148.33v-.177c.028-.495.193-1.017.495-1.571.813 2.069 1.819 3.349 3.018 3.842.873.339 1.71.49 2.504.453 1.979-.079 3.603-.772 4.867-2.085.195-.234.335-.411.423-.532l.256-5.514c.076-.72.151-1.143.22-1.276.277-.59.532-.878.767-.864.216.002.423.318.623.943.1.133.139.393.118.781l-.218 6.044.374.576c1.11 1.436 2.653 2.315 4.63 2.633.788.126 1.826.026 3.115-.297 1.283-.335 2.452-1.402 3.509-3.205.269.377.388.804.36 1.281-.007.162-.042.355-.1.576-.202.723-.667 1.378-1.394 1.968-.718.583-1.515 1.025-2.391 1.329-1.129.342-2.202.488-3.217.43-2.124-.13-4.085-1.108-5.885-2.946-2.314 1.503-4.354 2.191-6.124 2.065-1.78-.125-2.835-.33-3.171-.611-.835-.409-1.497-1.015-1.996-1.822-.486-.81-.744-1.487-.778-2.021z" fill="#571916"/><path d="m236.854 143.966c-.967.804-2.179 1.155-3.645 1.055-1.304-.1-2.37-.5-3.195-1.197-.869-.753-1.368-1.763-1.494-3.025-.074-.6.521-1.085 1.787-1.457 1.096-.291 2.116-.402 3.05-.342 1.404.079 2.477.235 3.22.467 1.155.312 1.729.788 1.72 1.439-.017 1.245-.498 2.265-1.446 3.062h.003z" fill="#571916"/><path d="m198.883 172.938c-.627.985-.818 2.045-.581 3.179.249 1.161.857 2.058 1.836 2.69.98.614 2.025.793 3.154.535 1.092-.253 1.943-.867 2.549-1.838.599-.971.79-2.01.553-3.114-.239-1.115-.836-1.989-1.78-2.623-.959-.63-1.984-.839-3.08-.63-1.12.221-2.003.823-2.653 1.803h.004z" fill="#cc697c"/><path d="m205.63 169.082c-1.362.271-2.426.992-3.206 2.165-.758 1.185-.995 2.473-.7 3.855.302 1.404 1.046 2.487 2.219 3.246 1.203.739 2.472.953 3.808.653 1.324-.323 2.351-1.064 3.076-2.221.732-1.176.955-2.435.673-3.778-.283-1.33-1.005-2.38-2.16-3.151-1.136-.779-2.372-1.034-3.71-.769z" fill="#cc697c"/><path d="m209.27 177.892c-.202-.92-.685-1.631-1.447-2.133-.776-.532-1.62-.702-2.526-.507-.913.212-1.626.723-2.137 1.531-.499.821-.653 1.699-.448 2.64.206.948.697 1.676 1.48 2.182.796.509 1.651.653 2.557.43.888-.216 1.583-.734 2.087-1.555.49-.787.634-1.649.436-2.588z" fill="#cc697c"/><path d="m202.063 173.299c.79.506 1.641.65 2.544.427.906-.213 1.601-.727 2.082-1.54.492-.797.641-1.657.451-2.584-.207-.932-.69-1.65-1.455-2.15-.785-.525-1.626-.687-2.516-.49-.922.212-1.635.713-2.144 1.515-.504.82-.653 1.699-.448 2.64.202.957.696 1.687 1.489 2.184h-.003z" fill="#cc697c"/><path d="m138.374 165.532c.075-3.118 1.52-5.579 3.209-7.888.141-.145.288-.286.436-.423 1.004-.921 4.417-3.279 5.651-3.597 1.682-.437 1.04.615 2.697.088.267-.084.532-.167.799-.251.497 1.187.994 2.377 1.522 3.551 1.308 2.911 2.704 5.772 4.186 8.588 5.211 9.901 11.145 19.335 16.242 29.311 3.243 6.343 11.305 17.532 9.771 17.892-3.236.758-11.237 4.552-14.571 4.854-3.074.279-6.582.876-9.641-.297-3.485-1.339-4.282-3.769-5.611-7.373-2.03-5.498-4.354-12.127-6.301-17.656-2.104-5.978-4.153-11.976-6.133-17.996-.987-3.005-1.877-5.733-2.253-8.8z" fill="#888"/><path d="m150.23 152.743c.014.037 13.207-4.111 14.044-4.371 5.373-1.673 10.817-3.188 16.26-4.641 2.495-.667 5.553-1.131 8.192-1.143 2.637-.014 5.673.779 7.114 3.704.634 1.283 1.282 2.64 1.742 4.001.599 1.234 1.038 2.619 1.482 3.911 2.825 8.214 7.63 20.693 10.178 29.471 1.608 5.545 5.481 13.994-.318 18.446-2.609 2.003-4.758 3.153-7.774 4.273-4.553 1.694-9.139 3.297-13.744 4.831-6.979 2.324-14.727 5.73-20.818 5.126-1.229-.121-2.293-.263-3.195-.534-1.141-.391-2.1-.986-2.881-1.778-.508-.518-.987-1.176-1.433-1.964-.274-.543-.618-1.303-1.029-2.277-1.448-3.348-3.072-7.477-4.349-10.638-5.009-12.601-7.293-18.979-10.562-32.076-.45-1.801-.729-3.223-.841-4.261-.181-1.611-.111-2.975.207-4.09.462-1.661 1.482-2.993 3.062-3.997.565-.402 1.264-.776 2.096-1.115.743-.304 1.6-.625 2.56-.878z" fill="#b1aeae"/><path d="m154.625 160.501c.479-.195 1.008-.37 1.585-.516l30.936-9.669c.985-.302 1.761-.474 2.323-.52.883-.091 1.668.053 2.351.439.651.328 1.257.89 1.824 1.689.43.572.887 1.334 1.375 2.294.428.869.855 1.835 1.278 2.9.053.104.102.225.149.362.053.105.102.226.148.363.372.89.73 1.835 1.069 2.837 2.07 6.079 8.947 26.962 9.869 31.437.251 1.215.444 2.477.256 3.69-.546 3.497-6.145 5.753-8.861 6.562-.102.04-.202.072-.307.102-1.171.335-11.995 3.66-17.292 5.672-2.142.7-4.16 1.23-6.054 1.592-2.328.446-4.472.639-6.431.586-1.043-.054-1.949-.193-2.72-.416-.957-.302-1.763-.776-2.423-1.425-.43-.432-.827-.966-1.197-1.605-.223-.444-.509-1.067-.857-1.869-1.189-2.739-3.336-7.212-4.324-9.838-.383-1.027-.752-2.031-1.108-3.014-2.53-7.066-4.586-13.84-6.173-20.316-.369-1.482-.594-2.651-.666-3.509-.142-1.322-.07-2.442.216-3.36.413-1.364 1.294-2.467 2.641-3.309.488-.339 1.085-.653 1.794-.938.188-.077.388-.151.602-.223v.007z" fill="#fff"/><path d="m166.074 151.515c.1-2.047 2.307-3.602 3.982-1.685.707.809 1.311 2.71.841 3.63-.706 1.38-2.328 1.864-3.626.69-.904-.82-1.239-1.768-1.197-2.635z" fill="#808080"/><path d="m168.555 150.34c.005-.096.047-.184.11-.237.16-.131.418-.103.611.004.302.168.569.472.745.811.198.381.358.946.326 1.357-.024.312-.247.635-.549.523-.218-.084-.457-.388-.399-.669.016-.077.021-.156.025-.233 0-.013 0-.023 0-.037-.004-.042-.009-.081-.016-.123-.002-.009-.002-.021-.007-.03-.009-.037-.021-.072-.032-.109-.121-.358-.347-.672-.611-.904-.063-.054-.131-.107-.17-.184-.028-.053-.039-.114-.037-.169h.002z" fill="#fff"/><path d="m169.329 151.48.014.037s-.012-.027-.026-.06v.007s.007.012.01.016h.004z" fill="#fff"/><path d="m169.192 151.249v.006c-.021-.025-.035-.044-.037-.046.007.009.014.014.021.023.004.007.007.012.014.017z" fill="#fff"/><path d="m165.428 168.077c-.45-.648-.964-1.011-1.542-1.085-.274-.019-.642.033-1.104.156-.309.025-.597.095-.859.213-.477.079-.925.191-1.348.33-.441.133-.88.277-1.313.437-1.201.367-2.402.814-3.601 1.339-.583.209-.971.432-1.159.667-.367.309-.534.711-.504 1.201-.04.186-.005.439.102.764-.011.114.033.272.133.474.694 2.794 1.398 5.113 2.111 6.96.014.246.098.469.249.669.112.184.26.328.448.439.005.061.042.103.117.126.316.193.792.293 1.431.3.443-.024 1.208-.198 2.288-.526 1.062-.383 2.089-.748 3.078-1.094.927-.386 1.654-.746 2.18-1.078.441-.335.769-.609.982-.821.135-.248.314-.567.537-.955-.065-1.152-.314-2.63-.743-4.429-.481-1.547-.893-2.711-1.236-3.49-.135-.206-.219-.404-.249-.599z" fill="#7cc0a6"/><path d="m194.745 159.94c-.102-.205-.195-.386-.281-.542-.432-.634-.934-.985-1.505-1.05-.265-.04-.635.005-1.111.135-2.165.462-4.53 1.217-7.088 2.263-.539.172-.92.386-1.145.639-.284.3-.43.685-.444 1.157-.026.274.044.667.214 1.174.769 2.756 1.514 5.054 2.239 6.892.089.244.184.455.286.634.16.193.321.351.483.474.028.037.075.077.14.119.341.204.822.285 1.44.248.465-.035 1.248-.223 2.349-.569 1.05-.377 2.07-.762 3.057-1.157.948-.398 1.654-.742 2.119-1.034.425-.342.736-.639.934-.897.165-.214.33-.502.49-.869-.035-1.132-.318-2.563-.85-4.299-.479-1.471-.922-2.577-1.329-3.318z" fill="#7cc0a6"/><path d="m180.26 164.041c-.47-.676-1.002-1.048-1.601-1.113-.288-.026-.678.009-1.171.107-1.189.258-2.4.597-3.631 1.02-1.157.367-2.344.825-3.564 1.373-.534.195-.908.405-1.122.632-.284.312-.414.7-.393 1.165-.004.288.084.704.265 1.252.869 2.772 1.694 5.075 2.472 6.911.095.225.2.434.309.625.144.209.302.378.469.502.04.041.086.081.14.118.337.228.824.332 1.461.314.455-.012 1.234-.168 2.333-.47 1.073-.306 2.114-.653 3.122-1.038.983-.347 1.722-.67 2.216-.972.453-.334.783-.625.992-.871.154-.197.323-.497.507-.897-.047-1.183-.383-2.7-1.011-4.552-.536-1.541-1.031-2.723-1.482-3.551-.095-.206-.197-.392-.309-.555z" fill="#7cc0a6"/><g fill="#836c57"><path d="m186.962 185.928c-.611.13-.999.404-1.161.82-.149.376-.14.897.028 1.566.192.66.392 1.102.604 1.322.395.449 1.047.521 1.958.219l4.923-1.539c.888-.367 1.208-.708 1.445-1.222.263-.523-.142-1.176-.372-1.787-.162-.49-.374-.836-.631-1.038-.356-.244-.725-.303-1.439-.065l-3.352 1.059-2 .665z"/><path d="m175.239 198.306c-.183.413-.197.945-.046 1.601.181.643.388 1.069.615 1.275.428.421 1.178.453 2.247.1.63-.234 1.259-.469 1.889-.704.906-.337 1.949-.553 2.755-1.09.144-.095.286-.204.374-.353.251-.413.012-1.32-.109-1.759-.039-.023-.065-.102-.079-.237-.135-.407-.283-.948-.688-1.162-.501-.267-1.326.089-1.828.254l-3.74 1.192c-.714.167-1.178.462-1.39.885"/><path d="m176.192 183.162c-.191-.095-.569-.102-1.134-.016-1.003.202-1.975.504-2.913.904-.495.223-.818.418-.969.583-.016.021-.035.033-.056.04-.114.067-.211.151-.292.251-.072.125-.068.313.016.562l.66 1.984c.051.361.218.591.501.686.279.081.721.037 1.322-.135.962-.262 1.926-.583 2.895-.962.402-.163.658-.321.767-.474.016-.021.023-.037.018-.049.135-.074.214-.144.237-.209.061-.093.058-.237-.007-.434l-.75-2.261c-.079-.237-.177-.393-.293-.47"/><path d="m181.161 181.579c-.13-.084-.327-.126-.595-.126-.724.037-1.426.207-2.102.509-.177.084-.279.177-.309.274-.042.065-.037.177.016.339l.005.017c-.03.137-.019.311.039.52.084.444.237.96.458 1.548.172.516.397.811.676.883.172.058.425.011.757-.137.096-.019.193-.033.293-.04l.825-.216c.332-.111.562-.244.688-.4.088-.118.153-.248.195-.39.007-.016.016-.03.023-.046.049-.119.056-.293.019-.521-.137-.527-.295-1.06-.474-1.599-.07-.206-.133-.344-.195-.413-.089-.112-.184-.168-.286-.172-.017-.007-.026-.016-.028-.028"/><path d="m183.354 180.411c-.014.032-.035.053-.058.06-.132.072-.237.149-.316.233-.111.134-.128.323-.046.564l.643 1.938c.063.346.237.556.523.628.309.065.823 0 1.543-.196 1.094-.323 2.188-.685 3.282-1.092.481-.202.779-.372.89-.506.017-.033.021-.056.016-.07.156-.079.251-.146.286-.2.093-.116.107-.267.044-.458l-.727-2.186c-.076-.228-.188-.367-.334-.416-.193-.105-.609-.1-1.25.014-1.166.262-2.291.613-3.371 1.057-.567.258-.941.467-1.125.627"/><path d="m180.288 188.441c-.579.193-.99.391-1.232.593-.172.151-.306.311-.404.481-.016.019-.032.037-.049.056-.107.144-.141.339-.104.583.102.576.246 1.143.434 1.703.072.219.165.365.279.437.1.102.239.151.414.146.023.005.037.014.041.026.2.07.523.077.971.023 1.222-.19 2.431-.523 3.622-1.001.33-.137.523-.263.574-.374.084-.082.098-.21.04-.379l-.007-.019c.079-.162.102-.358.069-.592-.069-.479-.23-1.027-.48-1.648-.182-.548-.491-.839-.92-.871-.296-.023-.739.077-1.329.3-.163.041-.328.081-.491.123l-1.424.413"/><path d="m188.9 193.856c-.205-.061-.488-.028-.855.093-.86.244-1.68.516-2.465.82-.597.198-.934.409-1.006.632-.032.123-.019.277.04.455l.664 1.418c.2.544.409.927.632 1.15.151.177.344.256.576.235.116.018.311-.033.586-.151.19-.091.676-.24 1.456-.442.149-.049.3-.1.449-.148.148-.049.29-.098.422-.142.158-.081.316-.16.472-.242.286-.195.462-.381.532-.56.028-.137.014-.316-.042-.539-.299-.792-.594-1.482-.88-2.068-.151-.29-.346-.46-.583-.509"/><path d="m175.509 190.193c-.79.221-1.575.481-2.356.783-.341.156-.548.3-.616.435-.03.023-.041.042-.037.053-.093.059-.158.117-.197.17-.042.098-.033.242.03.43l.72 2.168c.075.225.163.379.265.458.165.1.481.118.948.06.832-.151 1.64-.4 2.425-.743.407-.191.667-.363.786-.514.011-.019.028-.03.044-.035.072-.065.142-.137.209-.216.072-.121.067-.302-.012-.541l-.639-1.924c-.074-.34-.22-.556-.441-.649-.253-.083-.63-.062-1.134.063"/></g><path d="m200.758 173.365c.734.725 1.612 1.073 2.634 1.038 1.018-.023 1.88-.416 2.584-1.18.706-.741 1.064-1.631 1.069-2.67-.014-1.046-.372-1.926-1.076-2.637-.725-.744-1.585-1.109-2.588-1.099-1.034.016-1.917.395-2.642 1.138-.729.765-1.087 1.676-1.08 2.731 0 1.073.369 1.968 1.104 2.681h-.003z" fill="#cc697c"/><path d="m225.732 178.374c-.199 1.05-.271 2.247-.206 3.585 3.859 1.578 7.276 2.614 10.259 3.105 3.399.564 6.554.255 9.456-.923 2.067-.802 3.949-1.989 5.648-3.562.192-.158.36-.307.508-.439.607-.572 1.157-1.197 1.652-1.871.809-.939 1.564-1.922 2.263-2.944.929-1.357 1.759-2.781 2.493-4.255.176-.355.316-.771.539-1.099.2-.293.362-.564.481-.906.237-.692.283-1.436.253-2.163-.054-1.248-.469-2.556-1.206-3.565-.843-1.152-2.36-1.345-3.777-1.18-1.434.169-2.672 1.252-3.253 2.658-.223.539 4.317 4.092 5.106 4.234-1.031 2.244-2.604 5.233-3.861 6.676-2.381 2.309-4.616 4.006-6.705 5.089-2.086 1.082-4.82 1.294-8.201.634-3.368-.651-6.54-1.346-9.509-2.091l-1.937-.983z" fill="#e2778c"/><path d="m227.628 175.198c-1.078.976-2.023 3.311-2.204 4.459l2.448.774c2.972 1.255 5.885 1.963 9.303 2.256 3.294.281 6.158-.318 8.247-1.399 2.089-1.08 3.78-1.926 6.28-4.787 2.223-2.56 6.521-7.675 5.057-11.269-.025-.065-.055-.133-.083-.196-.36-.773-.767-1.522-1.561-1.893-.69-.323-1.49-.419-2.238-.251-.06.014-.121.028-.179.044-.731.209-1.408.669-1.856 1.289-.416.577-.66 1.306-.976 1.955-.713 1.461-1.549 2.872-2.597 4.117-1.782 2.122-3.745 3.662-5.892 4.622-2.149.976-4.43 1.206-6.832.692-2.396-.504-4.061-1.061-4.998-1.673-.894.535-1.533.951-1.916 1.253v.007z" fill="#f9a5ba"/><path d="m231.578 184.365c.316-.058.641-.14.945-.261.265-.323.511-.676.73-1.061.964-1.667 1.196-3.423.699-5.275-.146-.549-.348-1.058-.597-1.529.105-.379.167-.753.179-1.125.018-.655-.112-1.315-.388-1.98-.53-1.222-1.438-2.103-2.716-2.646-.569-.244-1.136-.398-1.703-.451-.755-.081-1.51.005-2.26.262-.086.031-.165.063-.251.096-.511-.019-1.076-.033-1.703-.037-.669 0-1.703-.33-3.106-.995-1.397-.646-2.463-.767-3.195-.36-.734.402-1.234.881-1.498 1.429-.175.348-.286.709-.351 1.083 1.266 1.88 3.041 3.409 5.088 4.382.481.226.968.381 1.482.507-.181 1.452-.314 2.914.237 4.329 1.229 3.162 5.394 4.189 8.405 3.634z" fill="#f9a5ba"/><path d="m217.436 175.224c.79 1.083 1.838 1.866 3.134 2.358-.378 1.223-.395 2.491-.044 3.8.495 1.852 1.578 3.253 3.241 4.205 1.673.967 3.436 1.202 5.288.705 1.424-.372 2.579-1.102 3.471-2.182-.305.12-.63.202-.946.26-3.011.553-7.176-.474-8.405-3.634-.553-1.418-.419-2.877-.237-4.329-.514-.124-1.004-.277-1.483-.507-2.044-.971-3.821-2.503-5.087-4.382-.033.188-.056.376-.061.571-.025 1.069.351 2.112 1.127 3.133h.002z" fill="#e2778c"/></g></svg>