<svg fill="none" height="92" viewBox="0 0 96 92" width="96" xmlns="http://www.w3.org/2000/svg" xmlns:xlink="http://www.w3.org/1999/xlink"><filter id="a" color-interpolation-filters="sRGB" filterUnits="userSpaceOnUse" height="82.3819" width="86.906" x="4.76587" y="5.28265"><feFlood flood-opacity="0" result="BackgroundImageFix"/><feColorMatrix in="SourceAlpha" result="hardAlpha" type="matrix" values="0 0 0 0 0 0 0 0 0 0 0 0 0 0 0 0 0 0 127 0"/><feOffset dx="2" dy="2"/><feComposite in2="hardAlpha" operator="out"/><feColorMatrix type="matrix" values="0 0 0 0 0 0 0 0 0 0 0 0 0 0 0 0 0 0 0.15 0"/><feBlend in2="BackgroundImageFix" mode="normal" result="effect1_dropShadow_364_784"/><feBlend in="SourceGraphic" in2="effect1_dropShadow_364_784" mode="normal" result="shape"/></filter><g filter="url(#a)"><path d="m89.6374 44.5235c-.2198-4.4744-1.0065-8.7127-2.3602-12.7148-1.4483-4.3299-3.5052-8.1344-6.1706-11.4135-3.3819-4.1756-7.7723-7.5611-13.1714-10.1565-5.2647-2.51569-10.9738-4.02648-16.7703-4.63025-8.4799-.90686-15.8315.07945-22.0547 2.95894-3.7631 1.77901-7.3263 4.33561-10.6898 7.66971-5.2764 5.2365-9.07205 11.3791-11.38701 18.4277-2.27924 6.7718-2.91602 14.0242-1.56419 21.0593.75014 4.0313 2.10229 7.7156 4.05646 11.0528 2.00634 3.5307 4.53404 6.424 7.58304 8.6799 2.3066 1.6702 7.7907 5.509 12.0015 7.2537 5.9965 2.4968 13.5039 2.954 22.0547 2.954 15.7379-1.3129 20.9895-5.445 24.9282-8.5338 6.2363-4.8906 10.3629-12.173 12.1677-18.8805 1.1326-4.4948 1.5398-9.0934 1.3766-13.7267z" fill="#fff"/></g><path d="m59.8279 29.0587c-.239.1234-.4592.2468-.6605.3703-.4992-.4218-1.0154-.8023-1.5485-1.1418-.8144-.5246-1.7879-1.0286-2.9204-1.512.0235-.1029.0416-.2212.0543-.3549.0404-.3497.0394-.7817-.003-1.296-.0146-.1132-.02-.2315-.0163-.3549-.1446-1.5121-.2944-2.623-.4493-3.3327-.1323-.6275-.332-1.0852-.5993-1.3732-.0786-.072-.1659-.1286-.2619-.1697-.0578-.0309-.1157-.0617-.1736-.0926-.4676-.144-1-.2623-1.597-.3549-.9857-.1543-2.1567-.2468-3.513-.2777-1.4796-.0514-2.692-.1234-3.6372-.216-.1397.0309-.2505.0772-.3324.1389-.3015.1954-.5543.6326-.7584 1.3114-.1561.4938-.2984.9824-.4268 1.4658-.2299.936-.4008 1.8258-.5126 2.6692-.0273.2263-.0501.4475-.0684.6635-.7828.1646-1.6103.3806-2.4825.648-1.1785.36-2.1906.756-3.0365 1.1881-.063-.144-.1397-.2778-.2301-.4012-.2023-.3086-.472-.648-.8089-1.0183-.0875-.0617-.1715-.1492-.2519-.2623-1.0818-1.0183-1.8958-1.7384-2.4421-2.1601-.4954-.3394-.9365-.5194-1.3232-.54-.1125.0103-.2108.0206-.295.0309-.0536.0617-.1129.1028-.1778.1234-.4215.2468-.868.5657-1.3393.9566-.7494.6892-1.6132 1.548-2.5917 2.5766-1.0212 1.1212-1.8923 2.0264-2.6135 2.7156-.0409.1337-.0684.252-.0825.3548-.1058.3601.0124.8846.3545 1.5738.2014.4937.4205.9618.6572 1.4041.4339.8434.8934 1.6303 1.3786 2.3606.3938.5863.7825 1.0595 1.166 1.4195.0099.0103.0198.0206.0296.0309-.2836.5863-.5378 1.1983-.7625 1.836-.309.8538-.5559 1.7281-.7407 2.623-.1698-.0103-.3488-.0155-.537-.0155-.103.0103-.2206.0103-.3528 0-1.379.0926-2.385.2109-3.0183.3549-.5485.144-.9573.36-1.2264.648-.0715.0823-.1239.1697-.1573.2623-.0056.0823-.0212.1543-.0466.216-.1081.5143-.1894 1.1006-.2439 1.7589-.0445 1.0801-.0413 2.3813.0098 3.9036.0745 1.6252.0987 2.9727.0725 4.0424.0537.144.1153.2572.185.3395.1755.3394.603.6326 1.2824.8794.4507.1852.9052.3498 1.3634.4938.8497.2674 1.6778.4731 2.4842.6171.4554.0823.8715.1286 1.2484.1389.3784 1.0697.8267 2.1241 1.3448 3.163.3628.7303.7525 1.4297 1.1689 2.0983-.1368.0926-.2629.216-.3782.3703-.1942.2777-.4038.6326-.6286 1.0646-.0517.1029-.1079.2109-.1686.324-.6166 1.3269-1.0224 2.3247-1.2176 2.9933-.1707.5863-.2043 1.0852-.1007 1.4966.0245.1234.0621.2263.113.3086.0682.0514.1178.108.1489.1697.3473.3909.7611.7972 1.2415 1.2189.8121.6789 1.8204 1.4298 3.0249 2.2527 1.301.8743 2.3613 1.6303 3.181 2.268.1331.0309.2512.0412.3542.0309.3496.0309.7861-.1954 1.3097-.6789.3622-.3086.7141-.6377 1.0556-.9874.6303-.6172 1.1936-1.2601 1.6898-1.9287.1689-.216.3237-.432.4643-.648.9508.3494 1.9136.622 2.8885.8177.3329.1019.6904.2048 1.0727.3086.9043.2263 1.5696.3703 1.9958.432.6921.1132 1.7292.1595 3.1115.1389l1.3119-.0154c.0403.0775.0815.1546.1235.2314.0616.1132.1186.2263.1708.3394.7478 1.3269 1.3367 2.2681 1.7668 2.8236.3802.4937.7569.8074 1.13.9412.1053.0411.2004.0617.2851.0617.0738-.0309.1437-.0463.2095-.0463.4752-.1029.9948-.2623 1.5589-.4783.9145-.3703 1.9777-.8846 3.1895-1.5429 1.3116-.7406 2.4098-1.3115 3.2947-1.7127.0987-.1028.1646-.2057.1975-.3086.1924-.3188.2243-.8537.0958-1.6046-.0707-.5143-.1602-1.0286-.2684-1.5429-.1841-.936-.4225-1.8258-.7153-2.6692-.0334-.1132-.0713-.2212-.1137-.324.0222-.0217.0447-.0423.0678-.0618.0805.1188.2023.2114.3656.2778.1825.0823.4227.0874.7205.0154.2968-.0926.6894-.3549 1.1777-.7869.4342-.3806.7456-.6686.9342-.864.3326-.3395.5995-.6738.8008-1.0029l.738-1.1418c.6167.1051 1.1136.1668 1.4905.1852.5754.0308 1.0228-.0617 1.3422-.2777.1007-.0618.1776-.1286.2307-.2006.0249-.072.055-.1337.0903-.1852.223-.4731.4334-1.0131.6314-1.62.3202-1.0183.6211-2.2527.9027-3.703.3122-1.6046.6004-2.911.8647-3.919-.0161-.144-.0452-.2674-.0876-.3703-.1021-.3806-.4496-.7766-1.0425-1.188-.3995-.2983-.8123-.5812-1.2386-.8486-.6888-.4526-1.3746-.8384-2.0573-1.1572-.1799-1.6664-.5053-3.3224-.976-4.9682-.0998-.3291-.1996-.6583-.2993-.9875.1368-.0925.2777-.2005.4226-.324.0908-.072.1818-.1388.2731-.2005 1.0782-.9052 1.8362-1.6098 2.2742-2.1138.3937-.4423.6187-.8692.6751-1.2807.0231-.1131.0228-.2211-.0007-.324-.0221-.072-.044-.1388-.0657-.2005-.1741-.5143-.4019-1.0698-.6833-1.6664-.4871-.9772-1.1408-2.0983-1.961-3.3635-.8823-1.3887-1.5799-2.5458-2.0929-3.4716-.1077-.0926-.2098-.1646-.3063-.216-.3279-.1749-.817-.1697-1.4671.0154-.4653.1132-.9202.2469-1.3648.4012-.835.2571-1.6063.5709-2.3138.9412zm-10.5149 14.7656c.4498.3703.8655.8178 1.2472 1.3424.4418.6068.8053 1.2497 1.0905 1.9286.2871.72.4801 1.4401.579 2.1601.0909.7509.0729 1.4863-.054 2.2063-.0432.2881-.1058.5658-.1876.8332-.0715.0823-.1387.1543-.2018.216-.2879.288-.7025.5812-1.244.8795-.6793.3703-1.2843.6171-1.8149.7406-.8285.1954-1.7937.18-2.8955-.0463-.4465-.0926-.8375-.2057-1.173-.3395-.8727-.36-1.6827-.9926-2.43-1.8977-.4973-.5863-.9227-1.2446-1.2761-1.975-.3342-.72-.585-1.4709-.7526-2.2526-.1822-.8949-.2202-1.7229-.114-2.4841.0305-.1543.0656-.3137.1051-.4783.413-.432.8754-.8126 1.3872-1.1418.7677-.4937 1.5853-.8228 2.4529-.9874.9235-.1749 1.8416-.1594 2.7543.0463.9603.216 1.8027.6326 2.5273 1.2497z" fill="#000" fill-opacity=".098039"/><path d="m44.996 35.8688c-3.5285 0-6.4769 1.3629-8.8453 4.0887s-3.4641 6.0174-3.2871 9.8746c.177 3.8573 1.5747 7.1489 4.1933 9.8747 2.6185 2.7258 5.692 4.0887 9.2205 4.0887s6.4769-1.3629 8.8453-4.0887 3.4641-6.0174 3.2872-9.8747c-.177-3.8572-1.5748-7.1488-4.1933-9.8746-2.6186-2.7258-5.6921-4.0887-9.2206-4.0887zm6.3952 10.4918c.4418.6069.8054 1.2498 1.0906 1.9286.2871.7201.4801 1.4401.579 2.1601.0909.7509.0729 1.4864-.0541 2.2064-.1255.7509-.3575 1.4349-.6962 2.052-.1397.2366-.364.5761-.6731 1.0184-.3095.432-.5496.7354-.7204.9103-.2878.288-.7025.5811-1.244.8794-.6793.3703-1.2843.6172-1.8149.7406-.8285.1955-1.7937.18-2.8955-.0462-.4465-.0926-.8375-.2058-1.1729-.3395-.8728-.36-1.6828-.9926-2.43-1.8978-.4974-.5863-.9228-1.2446-1.2762-1.9749-.3342-.72-.585-1.4709-.7526-2.2526-.1822-.8949-.2202-1.723-.114-2.4841.1546-.9361.5645-1.8464 1.2296-2.731.5499-.7303 1.2042-1.3372 1.963-1.8206.7678-.4937 1.5854-.8229 2.4529-.9875.9235-.1748 1.8416-.1594 2.7543.0463.9603.216 1.8027.6326 2.5273 1.2498.4498.3703.8656.8177 1.2472 1.3423z" fill="#34c1c6"/><path d="m61.0437 61.0921c-.1567.072-.3317.1543-.525.2469l-6.5116 3.8881-1.3598.5092c-.4827.144-.7793.3446-.8898.6017-.1073.3292-.075.7252.0968 1.1881.0179.1851.0596.3754.125.5709.1191.3394.297.7303.5337 1.1726.0616.1131.1186.2263.1708.3394.7478 1.3269 1.3367 2.2681 1.7668 2.8235.3802.4938.7568.8075 1.1299.9412.1054.0412.2005.0617.2852.0617.0738-.0308.1437-.0463.2095-.0463.4752-.1028.9948-.2622 1.5589-.4783.9145-.3703 1.9777-.8846 3.1895-1.5429 1.3115-.7406 2.4098-1.3114 3.2947-1.7126.0987-.1029.1646-.2057.1975-.3086.1924-.3189.2243-.8537.0957-1.6046-.0706-.5143-.1601-1.0286-.2683-1.5429-.1841-.9361-.4226-1.8258-.7153-2.6693-.2184-.6583-.461-1.2291-.7278-1.7126-.2052-.3703-.4092-.612-.612-.7252-.2522-.1645-.6003-.1645-1.0444 0zm-38.0393-19.4252c-.1081.5143-.1894 1.1006-.2439 1.7589-.0445 1.08-.0413 2.3812.0098 3.9036.0745 1.6252.0987 2.9727.0725 4.0424.0537.144.1153.2572.185.3394.1755.3395.603.6326 1.2824.8795.4507.1852.9052.3497 1.3634.4937.8497.2675 1.6778.4732 2.4842.6172.6356.1131 1.1973.1543 1.6852.1234.3947-.0103.6779-.0925.8496-.2468.2376-.1543.3728-.4886.4057-1.0029.0093-.2057.0133-.4269.0119-.6635l-.5771-8.27.1388-1.5892c.0606-.5246.0102-.9052-.1512-1.1417-.2287-.2675-.5608-.432-.9965-.4938-.1637-.0823-.3357-.1388-.5159-.1697-.3312-.0411-.732-.0617-1.2025-.0617-.103.0103-.2206.0103-.3528 0-1.379.0926-2.385.2109-3.0183.3549-.5485.144-.9573.36-1.2264.648-.0715.0823-.1239.1697-.1573.2623-.0056.0823-.0212.1543-.0466.216zm9.7884 16.7714c-.3171.0618-.6083.2778-.8736.6481-.1364.1028-.2622.2314-.3775.3857-.1942.2777-.4038.6326-.6286 1.0646-.0517.1029-.1079.2109-.1686.324-.6166 1.3269-1.0225 2.3247-1.2176 2.9933-.1707.5863-.2043 1.0851-.1007 1.4966.0245.1234.0621.2263.113.3086.0682.0514.1178.108.1489.1697.3472.3909.7611.7972 1.2415 1.2189.8121.6789 1.8204 1.4297 3.0249 2.2526 1.301.8743 2.3613 1.6304 3.1809 2.2681.1332.0309.2513.0412.3543.0309.3496.0308.7861-.1955 1.3097-.6789.3622-.3086.7141-.6377 1.0556-.9875.6303-.6171 1.1936-1.26 1.6898-1.9286.3994-.5246.7105-1.0235.9335-1.4966.1806-.3703.256-.6738.2264-.9104-.0053-.3188-.1989-.6428-.581-.972-.1468-.1234-.3126-.252-.4975-.3857l-6.7006-4.2276-1.1624-1.0337c-.3745-.3703-.698-.5503-.9704-.5401zm33.0588-11.9112c-.0484.1748-.1006.3703-.1566.5863l-1.3657 8.0694-.4684 1.4812c-.1938.4937-.2372.8794-.1304 1.1572.1558.3188.4494.5657.8808.7406.137.1131.292.2108.4651.2931.3073.1337.6895.2623 1.1469.3857.1138.0206.2281.0515.3429.0926 1.3781.2983 2.3924.4629 3.0431.4938.5754.0308 1.0228-.0618 1.3422-.2778.1006-.0617.1776-.1285.2307-.2005.0249-.072.055-.1338.0903-.1852.2229-.4732.4334-1.0132.6314-1.6201.3202-1.0183.6211-2.2526.9027-3.7029.3122-1.6047.6004-2.911.8647-3.919-.0161-.144-.0453-.2675-.0876-.3703-.1022-.3806-.4497-.7766-1.0425-1.1881-.3995-.2983-.8123-.5811-1.2386-.8486-.7665-.504-1.5292-.9257-2.2881-1.2652-.5961-.2777-1.1416-.4783-1.6366-.6017-.3895-.0823-.6859-.0823-.8892 0-.2686.0926-.481.3857-.6371.8795zm-4.4922-17.9287c-.5702.288-1.055.5915-1.4543.9104-.2987.2571-.4855.4937-.5603.7097-.0997.288-.0351.6686.1936 1.1417.0828.1646.1804.3446.2929.5401l4.6184 6.8351.6868 1.4349c.2208.504.4607.8126.72.9257.3058.1029.6558.0412 1.05-.1851.168-.0309.3348-.0875.5004-.1698.285-.144.6136-.3651.9857-.6634.0908-.072.1818-.1389.2731-.2006 1.0782-.9052 1.8362-1.6098 2.2742-2.1138.3937-.4423.6187-.8691.6751-1.2806.0231-.1131.0228-.2211-.0007-.324-.0222-.072-.044-.1389-.0657-.2006-.1741-.5143-.4019-1.0697-.6834-1.6663-.487-.9772-1.1407-2.0984-1.9609-3.3636-.8823-1.3886-1.5799-2.5458-2.0929-3.4715-.1077-.0926-.2098-.1646-.3063-.216-.3279-.1749-.817-.1697-1.4671.0154-.4653.1131-.9202.2469-1.3648.4012-.835.2571-1.6063.5708-2.3138.9411zm-5.5437-7.6219c-.1323-.6275-.3321-1.0852-.5993-1.3732-.0786-.072-.1659-.1286-.2619-.1698-.0578-.0308-.1157-.0617-.1736-.0925-.4676-.144-1-.2623-1.597-.3549-.9857-.1543-2.1567-.2469-3.513-.2777-1.4797-.0515-2.6921-.1235-3.6372-.216-.1398.0308-.2505.0771-.3324.1388-.3015.1955-.5543.6326-.7584 1.3115-.1562.4937-.2984.9823-.4268 1.4658-.2299.936-.4008 1.8257-.5126 2.6692-.0907.6892-.1233 1.3115-.0978 1.8669.0391.4423.1149.7612.2273.9566.1638.288.4873.4681.9704.5401.1704.0205.3687.036.595.0462l7.5495-.0308 1.4503.2314c.4944.1132.8459.0823 1.0543-.0926.2441-.216.3828-.576.4162-1.08.0493-.1543.0879-.3394.1156-.5554.0404-.3498.0394-.7818-.003-1.2961-.0146-.1131-.02-.2314-.0163-.3549-.1446-1.512-.2944-2.6229-.4493-3.3326zm-17.6004 7.6837c.4008-.2881.6183-.5709.6526-.8486.0019-.3703-.1327-.7406-.4038-1.1109-.0654-.1955-.1581-.3703-.2781-.5246-.2023-.3086-.472-.6481-.8089-1.0184-.0875-.0617-.1715-.1491-.2519-.2622-1.0818-1.0184-1.8958-1.7384-2.4421-2.1601-.4954-.3395-.9365-.5195-1.3232-.54-.1125.0102-.2108.0205-.295.0308-.0536.0617-.1129.1029-.1778.1234-.4215.2469-.868.5658-1.3393.9567-.7494.6891-1.6132 1.548-2.5917 2.5766-1.0212 1.1212-1.8924 2.0264-2.6135 2.7155-.0409.1338-.0684.252-.0825.3549-.1058.36.0124.8846.3545 1.5738.2014.4937.4205.9617.6572 1.404.4339.8435.8934 1.6304 1.3786 2.3607.3938.5863.7825 1.0594 1.166 1.4195.2969.3188.559.4937.7862.5245.2673.0823.5867-.0308.9583-.3394.1449-.1234.2888-.2674.4318-.432l5.0795-5.8785z" fill="#50eaee"/><path d="m55.8564 26.1623c-3.1655-1.3166-6.0498-1.9389-8.6529-1.8669-1.616.0514-3.5329.4166-5.7505 1.0955-1.7539.5348-3.1374 1.1417-4.1507 1.8206-.62.432-1.4891 1.1778-2.6072 2.2372-1.1351 1.1006-1.9656 1.9698-2.4915 2.6075-1.3293 1.5841-2.3692 3.4253-3.1198 5.5237-.7341 2.0469-1.148 4.2018-1.2418 6.4648-.0881 2.1806.1265 4.3972.6439 6.6499.4948 2.1704 1.2499 4.2739 2.2655 6.3105.8908 1.7795 1.9033 3.3378 3.0373 4.675 1.8803 2.2218 4.1891 3.9396 6.9265 5.1533 2.6032 1.1624 5.3308 1.7538 8.1828 1.7744 2.6732.0206 5.2722-.4474 7.797-1.4041 2.5244-.9668 4.7942-2.3555 6.8094-4.1658 2.4118-2.1909 4.0736-4.6287 4.9854-7.3134.7125-2.1087 1.0151-4.5362.9079-7.2825-.0902-2.3761-.4662-4.7265-1.128-7.0512-.6712-2.3246-1.5993-4.5053-2.7842-6.5419-1.7986-3.1064-3.9101-5.4465-6.3347-7.0202-.9015-.5761-1.9996-1.1315-3.2944-1.6664zm-8.5928 12.9759c.9235-.1749 1.8416-.1594 2.7543.0463.9603.216 1.8027.6326 2.5273 1.2497.4498.3703.8655.8178 1.2472 1.3424.4418.6069.8053 1.2497 1.0905 1.9286.2871.72.4801 1.4401.579 2.1601.0909.7509.0729 1.4863-.054 2.2064-.1255.7508-.3576 1.4349-.6962 2.052-.1397.2366-.3641.576-.6731 1.0183-.3095.4321-.5496.7355-.7204.9104-.2879.288-.7026.5811-1.244.8794-.6793.3703-1.2843.6172-1.815.7406-.8284.1955-1.7936.18-2.8955-.0463-.4464-.0925-.8374-.2057-1.1729-.3394-.8727-.36-1.6827-.9926-2.43-1.8978-.4973-.5863-.9227-1.2446-1.2762-1.9749-.3341-.72-.585-1.4709-.7526-2.2527-.1822-.8949-.2201-1.7229-.1139-2.4841.1546-.936.5645-1.8463 1.2296-2.7309.5499-.7303 1.2042-1.3372 1.963-1.8206.7677-.4938 1.5853-.8229 2.4529-.9875z" fill="#78fcff"/></svg>