<svg fill="none" height="92" viewBox="0 0 96 92" width="96" xmlns="http://www.w3.org/2000/svg" xmlns:xlink="http://www.w3.org/1999/xlink"><filter id="a" color-interpolation-filters="sRGB" filterUnits="userSpaceOnUse" height="82.3819" width="86.906" x="4.76587" y="5.28265"><feFlood flood-opacity="0" result="BackgroundImageFix"/><feColorMatrix in="SourceAlpha" result="hardAlpha" type="matrix" values="0 0 0 0 0 0 0 0 0 0 0 0 0 0 0 0 0 0 127 0"/><feOffset dx="2" dy="2"/><feComposite in2="hardAlpha" operator="out"/><feColorMatrix type="matrix" values="0 0 0 0 0 0 0 0 0 0 0 0 0 0 0 0 0 0 0.15 0"/><feBlend in2="BackgroundImageFix" mode="normal" result="effect1_dropShadow_364_785"/><feBlend in="SourceGraphic" in2="effect1_dropShadow_364_785" mode="normal" result="shape"/></filter><g filter="url(#a)"><path d="m89.6374 44.5235c-.2198-4.4744-1.0065-8.7127-2.3602-12.7148-1.4483-4.3299-3.5052-8.1344-6.1706-11.4135-3.3819-4.1756-7.7723-7.5611-13.1714-10.1565-5.2647-2.51569-10.9738-4.02648-16.7703-4.63025-8.4799-.90686-15.8315.07945-22.0547 2.95894-3.7631 1.77901-7.3263 4.33561-10.6898 7.66971-5.2764 5.2365-9.07205 11.3791-11.38701 18.4277-2.27924 6.7718-2.91602 14.0242-1.56419 21.0593.75014 4.0313 2.10229 7.7156 4.05646 11.0528 2.00634 3.5307 4.53404 6.424 7.58304 8.6799 2.3066 1.6702 7.7907 5.509 12.0015 7.2537 5.9965 2.4968 13.5039 2.954 22.0547 2.954 15.7379-1.3129 20.9895-5.445 24.9282-8.5338 6.2363-4.8906 10.3629-12.173 12.1677-18.8804 1.1326-4.4949 1.5398-9.0935 1.3766-13.7268z" fill="#fff"/></g><path d="m27.8783 27.7612c-.0315.0174-.059.0349-.0826.0523-.6298.4272-1.1571.8892-1.5822 1.3861-.1889.0959-.366.2921-.5313.5884-.37.6364-.5904 1.421-.6612 2.3538-.0315.462-.0276 1.0287.0118 1.6999.4802 2.8245.8698 5.0301 1.1689 6.6167.5038 2.7112 1.0075 5.1477 1.5113 7.3097.4565 1.9876 1.1295 4.6421 2.019 7.9635l1.9128 7.2312c.5824 2.1533 1.0114 3.6876 1.2869 4.6029.5274 1.7087 1.0705 3.1994 1.6294 4.4722.4565 1.0199.921 1.835 1.3932 2.4452.2519.3313.5196.6146.8029.85.0158.0087.0315.0174.0473.0262.0472.0348.0983.0697.1534.1046.1732.122.37.2266.5904.3138.2047.0785.4329.1351.6848.17.3542.0523.8108.0654 1.3696.0392 1.6609-.0784 3.5107-.3748 5.5494-.8892 1.1964-.3051 3.0108-.8499 5.443-1.6345l15.4791-5.0475c.8737-.2877 1.5113-.51 1.9127-.6669.6927-.2877 1.2909-.6015 1.7947-.9415.8029-.5318 1.2673-1.1333 1.3933-1.8045.0787-.4011.0039-.789-.2244-1.1638-.0236-.0436-.0472-.0829-.0708-.1177-.244.0959-.4841.1918-.7203.2877.0394-.2354.0276-.4969-.0354-.7846-.0236-.1134-.1259-.449-.307-1.0069-.0157-.0436-.0275-.0872-.0354-.1308-.0079-.0174-.0079-.0392 0-.0654-.063-.1743-.122-.3574-.1771-.5492-.1417-.5666-.244-1.1812-.307-1.8437-.0629-.6451-.1023-1.5387-.118-2.6807 0-.2964-.0276-.5361-.0827-.7192.244-.2877.4211-.5666.5313-.8369.1417-.3487.2204-.7541.2362-1.2161 0-.2964-.0276-.68-.0827-1.1507-.2519-.8631-.5903-1.9745-1.0154-3.3345l-7.71-24.2436c-.5431-1.7087-1.0115-2.9858-1.4051-3.8314-.3857-.8369-.8107-1.5604-1.2751-2.1707-.3149-.2528-.6415-.4489-.98-.5884-.7635-.3138-1.8301-.4054-3.1997-.2746-1.4956.1482-3.1879.4359-5.0771.863-6.7772 1.5169-13.2829 3.9491-19.5171 7.2967-.7084.3748-1.283.7148-1.7238 1.0199zm11.5001 46.0681c-.4408.0349-.8186.0131-1.1335-.0654-.2204-.0523-.4132-.1307-.5785-.2353-.063-.0436-.126-.0872-.1889-.1308.7477.2441 1.5191.3792 2.3141.4054-.1416.0087-.2794.0174-.4132.0261z" fill="#000" fill-opacity=".098039"/><path d="m72.9697 62.4842c.0787-.401.0039-.7889-.2244-1.1638-.0257-.0417-.0532-.0809-.0826-.1176-5.3963 2.1191-9.8948 3.8147-13.4955 5.0867-5.0298 1.7871-9.6779 3.2516-13.9442 4.3936-.7556.2093-1.3578.3444-1.8065.4054-.3242.0459-.6351.0677-.9327.0654-.4705.0816-.9074.1339-1.3106.1569-.4383.0313-.8201.0052-1.1453-.0785-.2517.7404-.4839 1.4116-.6966 2.0138.2143.0831.4465.1441.6966.1831.3542.0523.8108.0654 1.3696.0392 1.6609-.0785 3.5107-.3748 5.5494-.8892 1.1964-.3051 3.0108-.85 5.443-1.6345l15.4791-5.0475c.8737-.2877 1.5113-.51 1.9128-.6669.6926-.2877 1.2909-.6015 1.7946-.9415.8029-.5318 1.2673-1.1333 1.3933-1.8046z" fill="#9f63d5"/><path d="m70.9747 54.4253c0-.309-.0315-.5531-.0944-.7323.0069-.4638.0226-.8997.0472-1.3076-.3729-.1134-.8255-.1744-1.3578-.1831-2.9518-.0436-6.2105.4141-9.7763 1.373-2.2669.6103-5.4352 1.6782-9.5047 3.2037-2.4244.9241-4.2545 1.6956-5.4903 2.3146-1.9757 1.0025-3.6208 2.1314-4.9353 3.3867-.7478.7149-1.2555 1.4079-1.5231 2.0792-.244.6015-.3818 1.4776-.4133 2.6283-.0079.68.0236 1.2336.0945 1.6607.1023.5928.2912 1.0854.5667 1.4777.1212.169.2589.3215.4133.4577 1.042.3736 2.1243.5349 3.2469.4838.5667-.0262 1.2083-.1177 1.9246-.2746.3463-.0785.976-.2398 1.8891-.4839 7.769-2.1183 11.8071-3.2211 12.1141-3.3083 3.2895-.997 6.2334-2.0649 8.8316-3.2037 1.3854-.4131 2.5819-.8272 3.5894-1.2423.6927-.2876 1.1217-.6363 1.287-1.0461.1102-.2789.122-.6146.0354-1.0068-.0236-.1134-.126-.449-.307-1.0069-.0145-.0432-.0302-.0868-.0472-.1308.0035-.0217.0035-.0435 0-.0654-.0587-.1714-.1177-.3589-.1771-.5623-.1325-.5553-.2309-1.1655-.2952-1.8306-.063-.6452-.1023-1.5387-.1181-2.6807z" fill="#fffdee"/><path d="m61.4459 19.0914c-.3862-.8342-.8152-1.5577-1.2869-2.1707-.3074-.2486-.6301-.4447-.9682-.5884-.7635-.3138-1.8301-.4054-3.1997-.2746-1.4956.1482-3.1879.4359-5.0771.863-6.7772 1.5169-13.2829 3.9491-19.5171 7.2967-.7113.3774-1.2859.7131-1.7238 1.0068 1.0887 4.8398 3.1274 13.0562 6.1161 24.649 1.7032 6.6096 2.9941 11.5699 3.8727 14.881.5227-.4065 1.1052-.6376 1.7474-.6931.5945-.0497 1.4525-.2284 2.574-.5361-.1911.0459.9306-.2854 3.365-.9938 3.3061-.962 6.6711-2.0124 10.095-3.1514 3.4228-1.1304 5.7842-1.9281 7.0843-2.393 1.3017-.466 2.2974-.8104 2.9872-1.0331.6978-.2147 1.4652-.6419 2.3024-1.2814.8431-.6374 1.3783-1.239 1.6057-1.8046.1417-.3487.2204-.7541.2362-1.2161 0-.2992-.0276-.6871-.0827-1.1638-.2481-.8547-.5866-1.9619-1.0154-3.3214l-7.71-24.2436c-.5431-1.7087-1.0115-2.9858-1.4051-3.8314z" fill="#b980ec"/><path d="m29.5904 25.2913c-.6297.4272-1.1571.8892-1.5821 1.3861-.1889.0959-.366.2921-.5313.5885-.37.6364-.5904 1.4209-.6612 2.3537-.034.4639-.034 1.0306 0 1.6999.4897 2.8208.8833 5.0264 1.1807 6.6167.5037 2.7112 1.0075 5.1477 1.5113 7.3097.4565 1.9876 1.1295 4.6421 2.019 7.9635l1.9127 7.2313c.5825 2.1532 1.0115 3.6875 1.287 4.6029.5274 1.7086 1.0705 3.1993 1.6294 4.4721.4565 1.0199.9209 1.835 1.3932 2.4453.2544.328.5181.6114.7911.8499.0225.006.0421.0103.059.0131.0504.0425.1015.0817.1535.1177.1744.1229.3673.2231.5786.3008.2127-.6022.4449-1.2735.6966-2.0138-.2136-.0468-.4025-.1209-.5668-.2223-.4408-.2703-.7871-.7454-1.039-1.4253-.307-.8195-.3581-1.6738-.1535-2.563.0545-.2459.1214-.4769.2008-.6931.1331-.4732.4794-.9526 1.039-1.4384.0523-.0457.1035-.0892.1535-.1307-.8786-3.3111-2.1696-8.2714-3.8728-14.881-2.9886-11.5928-5.0273-19.8092-6.116-24.6489-.0288.0252-.0564.0469-.0827.0653z" fill="#ac6be7"/><path d="m59.1711 29.8445c.2204-.1395.3818-.3095.4841-.51.1811-.3312.2086-.8543.0827-1.5691-.2126-1.2466-.5077-2.4802-.8856-3.7006-.2676-.8631-.5943-1.4472-.9799-1.7523-.433-.34-1.102-.4664-2.0073-.3792-.8815.0785-1.9953.2877-3.3414.6277-4.0695 1.0199-8.8592 2.7024-14.3692 5.0475-.6375.2789-1.102.4925-1.3932.6407-.5116.2528-.9524.5187-1.3224.7977-.3857.3051-.6336.5971-.7438.8761-.1496.3923-.122.9763.0826 1.7522l.8737 3.3476c.126.4707.2401.8281.3424 1.0722.1732.3836.3818.6713.6258.8631.4251.34.9564.4315 1.594.2746.307-.0698.8186-.2833 1.5349-.6408 2.1961-1.1245 5.3014-2.2622 9.3158-3.4129 4.6362-1.3251 7.7926-2.332 9.4692-3.0207.2755-.1046.4881-.2092.6376-.3138z" fill="#dbbdf4"/></svg>