<svg fill="none" height="92" viewBox="0 0 96 92" width="96" xmlns="http://www.w3.org/2000/svg" xmlns:xlink="http://www.w3.org/1999/xlink"><filter id="a" color-interpolation-filters="sRGB" filterUnits="userSpaceOnUse" height="82.3819" width="86.906" x="4.76587" y="5.28265"><feFlood flood-opacity="0" result="BackgroundImageFix"/><feColorMatrix in="SourceAlpha" result="hardAlpha" type="matrix" values="0 0 0 0 0 0 0 0 0 0 0 0 0 0 0 0 0 0 127 0"/><feOffset dx="2" dy="2"/><feComposite in2="hardAlpha" operator="out"/><feColorMatrix type="matrix" values="0 0 0 0 0 0 0 0 0 0 0 0 0 0 0 0 0 0 0.15 0"/><feBlend in2="BackgroundImageFix" mode="normal" result="effect1_dropShadow_364_787"/><feBlend in="SourceGraphic" in2="effect1_dropShadow_364_787" mode="normal" result="shape"/></filter><g filter="url(#a)"><path d="m89.6374 44.5235c-.2198-4.4744-1.0065-8.7127-2.3602-12.7148-1.4483-4.3299-3.5052-8.1344-6.1706-11.4135-3.3819-4.1756-7.7723-7.5611-13.1714-10.1565-5.2647-2.51569-10.9738-4.02648-16.7703-4.63025-8.4799-.90686-15.8315.07945-22.0547 2.95894-3.7631 1.77901-7.3263 4.33561-10.6898 7.66971-5.2764 5.2365-9.07205 11.3791-11.38701 18.4277-2.27924 6.7718-2.91602 14.0242-1.56419 21.0593.75014 4.0313 2.10229 7.7156 4.05646 11.0528 2.00634 3.5307 4.53404 6.424 7.58304 8.6799 2.3066 1.6702 7.7907 5.509 12.0015 7.2537 5.9965 2.4968 13.5039 2.954 22.0547 2.954 15.7379-1.3129 20.9895-5.445 24.9282-8.5338 6.2363-4.8906 10.3629-12.173 12.1677-18.8804 1.1326-4.4949 1.5398-9.0935 1.3766-13.7268z" fill="#fff"/></g><path d="m58.1249 20.4001c-2.4283-.6325-4.9333-.7259-7.4319-.7747-2.0987-.0424-1.9159.2717-1.9329 2.3814-.0234 2.8717-.2041 6.1296.3105 8.961 3.6022-1.0952 7.2788-3.2622 10.8746-5.754.9548-.6601 2.8579-2.0269 2.0456-3.2452-.4253-.6389-1.7819-.8893-2.4496-1.1313-.4679-.1676-.9421-.312-1.4163-.4372z" fill="#de5c51"/><path d="m48.5944 42.7622c.2041-.0106.438-.0467.6996-.1083 1.9116-.452.9866-2.5809.8782-3.5996-.1765-1.6449-.3254-3.2898-.4466-4.9326-.2509-3.3853-.387-6.7685-.4168-10.1431-.0361-.7344-.0638-1.3669-.085-1.9018.0425-.8787.017-1.5791-.0744-2.1012-.0617-.3099-.1808-.5412-.3573-.6898-.1616-.1379-.3338-.2228-.5146-.2589-.2275-.0531-.421-.0276-.5741.0764-.1616.0509-.2807.138-.3551.2632-.134.1698-.2042.4245-.2169.7662-.3233 4.317-.521 8.6489-.4912 12.9978.0127 1.855.068 3.7143.185 5.5757.0531.8511.1233 1.7043.1998 2.5554.066.7323.2914 1.5706 1.5694 1.5006z" fill="#80abc2"/><path d="m39.053 43.4138c-.5444-.0722-1.1823-.0297-1.9138.1294-.8484.2165-1.4864.38-1.9138.4882-1.5799.4563-2.8473.4372-3.8042-.0552-.034-.017-.0702-.07-.1084-.0552-1.3333.5667-7.7743 8.6787-8.5356 9.706-1.9074 2.5766-5.0885 7.6493-3.1981 10.8351 1.1823 1.9908 3.7893 2.5108 6.0922 2.7719 8.3357.9487 16.7415.8341 25.1154.6112 3.8765-.104 7.7508.1741 11.6273.0446 3.1706-.1061 7.2321.0382 10.1219-1.4178.504-.2547 1.01-.5773 1.261-1.0824.1935-.3906.2084-.8448.202-1.2799-.1085-7.7511-5.3629-16.0563-10.494-21.5576-.3594-.3842-.7166-.7578-1.076-1.1164-.4019.8065-.9888 1.4538-1.7607 1.942-.8548.5433-1.8521.8638-2.9897.9657-1.0143.087-2.0776-.0064-3.1854-.2823-1.1462-.3544-2.0074-.5921-2.5879-.7152-.9994-.2165-1.8479-.2059-2.5432.0318-.3977.1443-.9973.4988-1.7947 1.0633-.74.5285-1.3482.8533-1.8267.9764-.8548.2016-1.9605-.0298-3.3151-.6941-1.631-.8023-2.7537-1.2416-3.3704-1.3138z" fill="#40d57c"/><path d="m41.4346 36.4033c-2.5305 1.2162-5.1758 3.05-7.9359 5.5014-.74.6601-1.4693 1.3329-2.186 2.0185.0383.0191.0745.036.1085.0551.9569.4924 2.2242.5094 3.8042.0552.4274-.1082 1.0653-.2716 1.9138-.4881.7315-.1592 1.3694-.2017 1.9138-.1295.6166.0722 1.7394.5094 3.3704 1.3138 1.3545.6664 2.4603.8978 3.3151.694.4785-.1231 1.0866-.4478 1.8266-.9763.7974-.5646 1.395-.919 1.7947-1.0633.6954-.2378 1.5438-.2505 2.5432-.0319.5806.1231 1.4418.3608 2.5879.7153 1.1079.2759 2.1711.3693 3.1854.2823 1.1377-.1019 2.135-.4224 2.9898-.9657.7719-.4882 1.3588-1.1355 1.7607-1.9421-1.6565-1.6661-3.2577-3.016-4.8058-4.0475-2.3561-1.5621-4.7143-2.4811-7.0767-2.757-2.9069-.3481-5.9434.2419-9.1097 1.768z" fill="#74e191"/></svg>