<svg fill="none" height="92" viewBox="0 0 96 92" width="96" xmlns="http://www.w3.org/2000/svg" xmlns:xlink="http://www.w3.org/1999/xlink"><filter id="a" color-interpolation-filters="sRGB" filterUnits="userSpaceOnUse" height="82.3819" width="86.906" x="4.76587" y="5.28265"><feFlood flood-opacity="0" result="BackgroundImageFix"/><feColorMatrix in="SourceAlpha" result="hardAlpha" type="matrix" values="0 0 0 0 0 0 0 0 0 0 0 0 0 0 0 0 0 0 127 0"/><feOffset dx="2" dy="2"/><feComposite in2="hardAlpha" operator="out"/><feColorMatrix type="matrix" values="0 0 0 0 0 0 0 0 0 0 0 0 0 0 0 0 0 0 0.15 0"/><feBlend in2="BackgroundImageFix" mode="normal" result="effect1_dropShadow_364_786"/><feBlend in="SourceGraphic" in2="effect1_dropShadow_364_786" mode="normal" result="shape"/></filter><g filter="url(#a)"><path d="m89.6374 44.5235c-.2198-4.4744-1.0065-8.7127-2.3602-12.7148-1.4483-4.3299-3.5052-8.1344-6.1706-11.4135-3.3819-4.1756-7.7723-7.5611-13.1714-10.1565-5.2647-2.51569-10.9738-4.02648-16.7703-4.63025-8.4799-.90686-15.8315.07945-22.0547 2.95894-3.7631 1.77901-7.3263 4.33561-10.6898 7.66971-5.2764 5.2365-9.07205 11.3791-11.38701 18.4277-2.27924 6.7718-2.91602 14.0242-1.56419 21.0593.75014 4.0313 2.10229 7.7156 4.05646 11.0528 2.00634 3.5307 4.53404 6.424 7.58304 8.6799 2.3066 1.6702 7.7907 5.509 12.0015 7.2537 5.9965 2.4968 13.5039 2.954 22.0547 2.954 15.7379-1.3129 20.9895-5.445 24.9282-8.5338 6.2363-4.8906 10.3629-12.173 12.1677-18.8804 1.1326-4.4949 1.5398-9.0935 1.3766-13.7268z" fill="#fff"/></g><path d="m60.0096 51.9128c-.2098-.0464-.4213-.0636-.6346-.0517-.2788-.0202-.5691-.0195-.8709.0022-2.721.1376-5.6008.9227-8.6392 2.3554-.9946.4495-1.8193.9003-2.4742 1.3524-.8426.5468-1.5334 1.1409-2.0723 1.7824-.5398.6332-.874 1.2671-1.0027 1.9017-.0512.2172-.0727.4672-.0643.7499-.0024.1665.0097.3452.0364.5361.0235.3491.0825.7434.1769 1.1828.2302 1.2276.5489 2.254.9561 3.0792.5204 1.0812 1.3047 2.0707 2.353 2.9682.961.8242 2.0695 1.5044 3.3254 2.0407 2.0659.8887 4.2246 1.2848 6.4759 1.1885.0803-.0013.1691-.007.2665-.017.4673-.0661.9644-.1494 1.4911-.2498 2.0548-.3843 3.5647-.5762 4.5296-.5759 1.7425.0038 3.0252.4439 3.8482 1.3203.4954.5242.8567 1.2878 1.0839 2.2908.2159.9782.2599 1.8844.132 2.7187.0667-.051.1286-.1062.1856-.1654.1459-.1606.3064-.4046.4814-.7321.3832-.7803.7694-1.6231 1.1588-2.5283.5816-1.4327.8719-2.6359.8708-3.6094-.0058-.158-.0156-.3118-.0295-.4613-.1058-.9468-.4195-1.9192-.9411-2.9172-.5641-1.0722-1.3269-2.0703-2.2883-2.9943-.8106-.7435-1.4121-1.3033-1.8044-1.6795-.6943-.6456-1.2051-1.2402-1.5326-1.7839-.2976-.5108-.5533-1.1472-.767-1.9091-.2164-.8867-.3852-1.5495-.5064-1.9885-.4867-1.6809-1.2526-2.8079-2.2975-3.3811-.423-.2258-.9052-.3674-1.4466-.4248z" fill="#fff281"/><g fill="#fc636a"><path d="m27.0103 16.7989c-.0229.042-.0462.0798-.0699.1135-2.582 4.0377-3.5264 9.7869-2.8333 17.2474.2771 2.9825.8079 5.811 1.5924 8.4854 1.2904-1.1119 2.7352-2.1973 4.3343-3.2561 3.6528-2.4166 7.833-4.5426 12.5404-6.3779 2.8448-1.1132 5.6542-2.0303 8.4283-2.7512-3.5298-3.7596-7.3347-6.7782-11.4148-9.0557-4.0242-2.2535-8.2167-3.7219-12.5774-4.4054z"/><path d="m30.9442 52.2171c-.3082.7208-.5347 1.5526-.6794 2.4953-.1136.7009-.1938 1.5676-.2409 2.6002-.1865 3.473-.004 6.3989.5475 8.7777.1932.8288.4329 1.4863.7193 1.9724.4224.7001.9582 1.1778 1.6073 1.4331.7608.3033 1.5851.2811 2.473-.0668.5174-.2001 1.201-.6319 2.0506-1.2953.8326-.6548 1.6758-1.3389 2.5297-2.0523.5389-.4501 1.0266-.8744 1.4631-1.2729.341-.272.7674-.6828 1.2792-1.2323.2437-.2621.4154-.4813.5151-.6577.1545-.2606.2157-.5154.1836-.7645-.0359-.2906-.2434-.6491-.6225-1.0754-.9016-1.0498-1.6418-1.8527-2.2206-2.4088-.8439-.718-1.4584-1.2734-1.8433-1.6663-.2179-.2293-.6179-.6885-1.2001-1.3776l-1.9047-2.3268c-.2426-.3038-.4512-.5291-.6256-.6759-.2625-.2285-.5306-.3738-.8044-.4357-.119-.0313-.2867-.0576-.5031-.0789-.1163-.0979-.2356-.1791-.3577-.2436-.2435-.1207-.6285-.2265-1.1552-.3174-.2811-.0452-.4826-.0501-.6044-.0148-.2436.0707-.4457.2988-.6065.6843z"/><path d="m56.4268 40.1784c-.1538.4603-.2325.8152-.2361 1.0649.0115.1246.0369.2532.076.3857-.0901.1845-.1479.3311-.1736.4397-.066.2508-.0487.5334.052.8479.055.2071.1741.4797.3574.8177l1.3816 2.6102c.4041.792.6636 1.3243.7782 1.597.2061.4874.4588 1.2362.7582 2.2463.2812.7192.7194 1.6853 1.3145 2.8984.2344.5036.4887.8363.7628.9981.228.146.5078.2244.8394.2355.2237.0045.5243-.0297.9017-.1027.7734-.1378 1.3769-.277 1.8105-.4175.6016-.16 1.25-.3457 1.945-.5571 1.1214-.3352 2.1974-.6779 3.228-1.0282 1.0663-.3508 1.8215-.684 2.2657-.9993.7631-.5372 1.1727-1.1765 1.2289-1.918.0662-.6335-.1419-1.2874-.6245-1.9615-.3457-.4518-.8838-.9545-1.6142-1.5079-2.0741-1.5543-4.8607-3.0839-8.3597-4.5891-1.0431-.4567-1.9334-.8077-2.6709-1.0532-.9958-.3326-1.9228-.55-2.781-.6519-.4521-.059-.7731-.0036-.9628.166-.0912.0765-.1836.2361-.2771.479z"/></g><path d="m54.1393 33.8765c-1.0206-1.2725-2.0662-2.478-3.1368-3.6165-2.7741.7209-5.5835 1.638-8.4283 2.7512-4.7074 1.8353-8.8876 3.9613-12.5404 6.3779-1.5991 1.0588-3.0439 2.1442-4.3343 3.2561 1.4231 4.8353 3.6817 9.1448 6.776 12.9285 2.5508 3.1271 5.7844 6.0056 9.7006 8.6353 4.0438-.7091 8.6004-2.2922 13.67-4.7494 2.9151-1.414 5.4929-2.9013 7.7333-4.4619.5621-.3923 1.0768-.7671 1.5439-1.1245-.5175-1.5306-1.1504-3.1508-1.8989-4.8606-2.397-5.5095-5.4254-10.5549-9.0851-15.1361z" fill="#fbd981"/><path d="m53.8307 55.0752c.5253-.4998.8552-1.0837.9897-1.7516.0673-.334.0814-.7586.0425-1.2739-.0812-1.3549-.4901-2.438-1.2266-3.2494-.3872-.4178-.8563-.7552-1.4073-1.0121-.5235-.2491-1.0778-.3978-1.663-.4462-1.1437-.0971-2.2244.1458-3.2423.7288-.4846.2662-.9049.5978-1.2611.9949-.648.7183-1.0079 1.5564-1.0797 2.5146-.016.3081.0371.7357.1594 1.2829.1126.5389.3193.9848.6201 1.3375s.5493.6231.7454.8111c.1776.1801.5544.3901 1.1306.6299.4459.1839.7288.2956.8486.3352.4405.1257 1.1514.1802 2.1326.1636.5619-.0095 1.0097-.0462 1.3433-.1101.7117-.1285 1.3343-.4469 1.8678-.9552zm-5.6252-11.937c.0672-.3339.0818-.7544.0436-1.2613-.082-1.3633-.4912-2.4506-1.2277-3.2619-.3873-.4178-.8564-.7552-1.4074-1.0121-.5234-.2491-1.0777-.3978-1.6629-.4462-1.1437-.0972-2.2245.1458-3.2424.7288-.4845.2662-.9048.5978-1.2611.9949-.6472.7266-1.0071 1.5647-1.0796 2.5146-.0161.3081.0371.7357.1594 1.2828.1126.539.3193.9848.6201 1.3376.3008.3527.5492.6231.7454.8111.1775.1801.5548.3942 1.1317.6424.446.1838.7284.2914.8475.3227.4405.1257 1.1514.1802 2.1326.1636.5619-.0095 1.0097-.0462 1.3432-.1101.7117-.1285 1.3343-.4469 1.8678-.9552.5254-.4998.8553-1.0837.9898-1.7517z" fill="#fff"/></svg>