<svg fill="none" height="212" viewBox="0 0 187 212" width="187" xmlns="http://www.w3.org/2000/svg" xmlns:xlink="http://www.w3.org/1999/xlink"><linearGradient id="a" gradientUnits="userSpaceOnUse" x1="161.777" x2="171.404" y1="90.6226" y2="26.8087"><stop offset=".21" stop-color="#dcb064"/><stop offset=".26" stop-color="#dfa750"/><stop offset=".46" stop-color="#ef8200"/></linearGradient><clipPath id="b"><path d="m0 .027344h187v211h-187z"/></clipPath><g clip-path="url(#b)"><path d="m141.912 105.484c3.699 2.693 4.944 6.611 3.734 11.758-13.229 7.437-26.281 11.467-39.155 12.09l-3.309-10.428c13.186-2.225 26.094-6.701 38.734-13.415z" fill="#efb207"/><path d="m141.17 104.614c1.34-1.299 2.919-1.94 4.745-1.922 1.861.026 3.444.71 4.746 2.047 1.288 1.368 1.891 3.009 1.817 4.927-.069 1.878-.798 3.476-2.186 4.787-1.401 1.29-3.032 1.892-4.893 1.814-1.817-.078-3.349-.801-4.589-2.169-1.249-1.367-1.835-2.961-1.765-4.787.069-1.84.78-3.403 2.125-4.693z" fill="#efb207"/><path d="m144.653 56.9479c-.139.5065-.26 1.013-.369 1.5152-1.11 5.2076-1.444 10.9564.36 16.1338 1.896 5.4328 5.544 8.9652 9.972 12.5149 5.656 4.5324 13.082 4.8744 19.927 2.5238 3.969-1.3636 7.027-2.8614 8.744-6.896.911-2.1385 2.638-4.1125 3.097-6.4111.031-.1429.048-.2987-.021-.4243-.1-.1818-.339-.2294-.547-.2467-1.579-.1299-3.474.1818-4.828 1.0389.447-.619.907-1.2337 1.375-1.8354 2.72-3.4761 3.579-6.922 4-11.3288.204-2.1212.594-4.2899.637-6.4154.013-.7446-.126-6.0389-1.006-6.2077-.49-.0952-.989.1991-1.28.6017-1.336 1.8485-3.314 4.6276-3.903 6.8484 1.062-4.0043.355-7.8181-1.258-11.5582-1.466-3.3939-3.076-6.5107-3.418-10.2379-.204-2.1991.754-4.3852.568-6.6406-.009-.0996-.022-.2078-.104-.2684-.078-.0606-.187-.0476-.286-.0303-6.051 1.0563-13.135 4.935-17.238 9.5539-1.748 1.9697-3.101 4.2857-4.012 6.7531-.911 2.4675-2.151 4.9307-1.241 7.4934-.663-1.8614-1.461-3.8224-2.242-5.6276-3.917.3333-6.103 6.1124-6.927 9.147z" fill="url(#a)"/><path d="m154.478 82.2513c1.049.7619 2.207 1.4285 3.431 1.9913 1.101-1.1991 2.472-2.0693 4.029-2.5065-2.563-.3549-4.923-.0606-7.46.5152z" fill="#54392b"/><path d="m151.116 78.7434c.056.1905.13.3766.243.5627.85 1.0779 1.912 2.0693 3.118 2.9437 2.542-.5757 4.902-.8701 7.461-.5151.299-.0866.603-.1515.911-.2035-.313.052-.612.1212-.911.2035-1.557.4372-2.928 1.3073-4.03 2.5064 4.689 2.1428 10.367 2.6536 14.661.2727.625-1.0259.646-2.3592.013-3.4977-.785-1.4156-2.121-2.026-3.574-2.3247-1.757-1.1818-3.709-1.883-5.834-2.238-2.238-.3766-4.849-.7749-7.109-.4372-.677.0995-1.354.3463-1.948.7099-1.015.3247-1.999.7576-2.702 1.5931-.113.1342-.213.2813-.304.4285z" fill="#a37042"/><path d="m157.956 84.2628c-1.371-.6234-2.655-1.381-3.8-2.2511-1.162 3.0346-1.583 6.3938-1.787 9.7487.889-3.225 2.663-5.8916 5.583-7.4976z" fill="#54392b"/><path d="m148.275 89.7179c-2.026 9.173-5.409 18.2291-5.388 27.7271 0 1.917.395 3.61 1.184 5.103.603.433 1.054.806 1.835.645.59-.121 1.171-.277 1.74-.471.845-.29 1.687-.663 2.524-1.13.048-.312.091-.628.139-.94 0-.026 0-.047 0-.073.104-.113.199-.251.273-.433 4.915-12.299 11.62-23.8135 19.944-34.1163.299-.0996.586-.2164.85-.3679.516-.2901.92-.6927 1.197-1.1515-4.276 2.3765-9.933 1.8744-14.617-.2511-2.924 1.6017-4.698 4.2683-5.582 7.4977.199-3.355.624-6.7142 1.787-9.7488-1.072-.8138-2.022-1.7229-2.798-2.7012-.113-.1861-.191-.3766-.243-.5628-.161.2598-.291.5368-.369.8269-.594 1.1774-.789 2.5064-1.084 3.8311-.464 2.1038-.933 4.212-1.397 6.3202z" fill="#754c24"/><path d="m151.862 109.825c.104.26.256.433.473.472.338.065.212-.126.338-.186.412-.199.386-.615.434-.909.078-.459.16-.918.256-1.377.351-1.68.846-3.333 1.47-4.952.581-1.507 1.046-3.0998 2.295-4.4288.178-.1904-.33-.6277-.603-.3246-1.956 2.1864-3.791 4.3504-4.442 6.8874-.117.463-.711 3.597-.225 4.814z" fill="#54392b"/><path d="m145.785 97.8435c1.943-.355 3.943-.1472 5.903-.2814 1.618-.1125 3.232-.3463 4.815-.6926 3.379-.7359 6.593-2.0476 9.577-3.7835 1.462-.8485.083-3.0778-1.379-2.225-2.984 1.7358-6.194 2.9739-9.586 3.6362-3.349.6537-6.754.2338-10.089.8442-1.657.303-.889 2.8051.759 2.5064z" fill="#8c6239"/><path d="m147.789 85.752c.633 7.4414 4.858 14.277 11.278 18.134 1.487.892 3.144-1.256 1.648-2.156-5.86-3.5194-9.651-9.5323-10.232-16.3417-.148-1.7445-2.841-1.3679-2.694.3637z" fill="#a67c52"/><path d="m153.397 86.0508c.681.5325 1.449 1.0087 2.312 1.4156 3.557 1.6882 7.855 2.0172 11.781 1.5151 5.426-.697 9.746-5.593 10.271-10.4414.269-2.4934-.078-5.541-.98-7.9305-1.072-2.8355-2.95-.0173-4.676.1948 1.015-.1256.351-6.8614.204-7.567-.772-3.6579-.738-6.9912-.889-10.6707-.005-.1342-.018-.2771-.113-.3767-.113-.1212-.304-.1471-.482-.1558-2.225-.1255-3.877 1.1169-5.634 2.0562-2.13 1.1429-4.125 2.4935-5.717 4.2337-3.444 3.7705-3.722 8.1211-4.155 12.7573-.391-1.1948-.681-2.4155-.868-3.6492-.104-.684.182-3.0216-.308-3.4978-.872-.8441-1.731.6753-2.277 1.4026-2.672 3.567-4.246 8.16-3.253 12.4066.768 3.29 2.134 6.2337 4.784 8.3115z" fill="#f0ebca" opacity=".53"/><path d="m147.455 99.3888c.776.9652 1.089 2.0862.937 3.3722-.152 1.277-.72 2.329-1.705 3.151-.989.806-2.108 1.152-3.348 1.035-1.228-.13-2.217-.688-2.971-1.671-.751-.961-1.054-2.065-.907-3.311.147-1.256.698-2.2818 1.661-3.087.972-.8225 2.069-1.1861 3.297-1.0866 1.245.0953 2.255.6234 3.04 1.5974z" fill="#efb207"/><path d="m150.752 104.691c.976-.943 2.125-1.411 3.448-1.394 1.353.013 2.498.511 3.444 1.489.933.992 1.371 2.182 1.319 3.576-.052 1.359-.582 2.515-1.584 3.468-1.019.935-2.199 1.376-3.548 1.32-1.323-.061-2.433-.589-3.335-1.576-.903-.995-1.332-2.151-1.28-3.472.052-1.337.564-2.476 1.54-3.406z" fill="#efb207"/><path d="m148.054 110.814c.91-.905 1.986-1.355 3.231-1.351 1.258-.004 2.321.45 3.188 1.359.859.905 1.262 2.009 1.21 3.307-.047 1.295-.538 2.39-1.461 3.295-.933.887-2.03 1.324-3.288 1.303-1.241-.03-2.282-.511-3.123-1.442-.833-.904-1.228-1.987-1.18-3.251.048-1.268.525-2.346 1.427-3.225z" fill="#efb207"/><path d="m44.733 201.79c-.1041.463-.0694.987.1518 1.575 1.0844 2.875 5.4827 3.091 7.8987 3.481 6.6494 1.078 13.377 1.606 20.1088 1.589 3.8561-.009 7.6775-.308 11.5249-.572 2.2034-.151 1.7046.186 2.789 1.576.3644.467.9456.697 1.5008.883 3.7823 1.234 7.4823.459 11.377.563 3.861.099 7.73.104 11.59 0 7.721-.204 15.429-.831 23.076-1.94 1.726-.251 3.505-.545 4.975-1.467 1.471-.922 2.559-2.649 2.195-4.325-.434-1.982-2.629-3.086-4.663-3.437-8.371-1.433-16.686-1.398-25.162-1.935-9.265-.584-18.5213-.705-27.8036-.584-10.8092.229-18.9074.355-24.2902.368-1.4271.008-2.4117.021-2.9582.039-1.1018.026-2.0864.078-2.9409.16-1.8131.173-3.5438.502-5.192.996-1.6309.48-3.791 1.372-4.1684 3.034z" fill="#000" fill-opacity=".15"/><path d="m108.425 194.192c8.003-1.03 20.291 2.693 25.67-3.952-2.898-2.883-7.027-4.692-11.915-5.805-7.201-1.641-15.412.896-20.001 6.775-.507.649-.993 1.35-1.704 1.762-.8462.493-1.8742.502-2.8414.653-2.8628.446-5.1921 2.528-6.6451 4.944-.0217.035-.0391.069-.0608.104 6.1463.299 14.4353 1.896 17.4893-4.476z" fill="#bbbcb5"/><path d="m138.61 202.101c-.03-5.207-1.687-9.043-4.519-11.861-5.379 6.645-17.667 2.922-25.67 3.953-3.053 6.376-11.3469 4.774-17.4888 4.476-.9022 1.545-2.8151 5.792-.8198 7.082.36.234.8024.298 1.2275.355 8.571 1.19 17.1811 1.649 25.8211.506 2.169-.294 4.399-1.264 6.563-1.303 1.77-.03 3.44.429 5.313.204 2.343-.282 4.681-.559 7.023-.844 2.746-.334 2.572-.052 2.555-2.572z" fill="#a2a5a0"/><path d="m75.9286 155.43c-.052.225-.1215.459-.2212.697-3.2055 7.623-9.3778 13.983-16.9858 17.255-4.0079 1.918-8.3541 3.143-12.8391 3.55-5.6388.511-12.2623-.546-17.2721-3.472-4.0383-2.363-5.1617-7.627-.4728-9.766 1.1711-.532 2.2252-.433 3.0623.035.4598.121.9152.324 1.3273.601 5.7689 3.853 13.3162 5.122 20.0264 3.282 1.5398-.424 3.0189-1.009 4.4243-1.719 2.8454-1.55 5.4393-3.558 7.582-5.952.013-.017.026-.026.039-.039 1.7047-1.983 3.1101-4.225 4.1337-6.654.2776-.653.6637-1.147 1.1104-1.506 1.3273-.255 3.0276.636 4.0296 1.355.8675.623 1.5572 1.424 2.056 2.329z" fill="#efb207"/><path d="m111.496 164.072c7.274.074 10.918 1.039 10.94 2.901l-2.304 6.229-16.994.052-1.523-6.632c-.741-1.783 2.551-2.636 9.877-2.55z" fill="#563824"/><path d="m98.8004 154.678c-1.5702 1.455-2.2468 3.334-1.8651 5.429.0564.312.1214.593.1952.857.3166 1.16.7807 1.957 1.4357 2.545.8849.806 2.1078 1.252 3.7438 1.762.316.1.633.199.949.295.603.212 1.202.433 1.801.653.294.208.568.416.819.615 1.484 1.242 2.33 2.615 2.538 4.108.087.684.021 1.502-.195 2.459-.122.524-.339 1.333-.651 2.429-.429 1.714-.49 3.246-.178 4.597.195.831.534 1.615 1.011 2.346.425.654.954 1.269 1.6 1.84 1.267 1.121 2.755 1.931 4.464 2.42 1.279.35 2.407.45 3.383.294.152-.034.317-.073.486-.117.772-.216 1.453-.619 2.038-1.203.499-.468.872-1.017 1.132-1.641.187-.242.339-.502.46-.775.243-.519.308-1.026.187-1.523-.078-.386-.256-.745-.538-1.087-.174-.554-.43-1.048-.768-1.489-.425-.559-1.136-1.169-2.138-1.831-.508-.321-.994-.606-1.458-.857.078-.122.156-.251.235-.381.334-.615.624-1.368.876-2.26.03-.052.221-.84.572-2.368.239-.87.412-1.524.512-1.965.165-.754.269-1.416.317-1.987.087-.957 0-1.896-.256-2.81-.664-2.558-2.577-5-5.739-7.324-.59-.433-1.314-.935-2.177-1.507-3.748-2.498-10.115-3.627-14.2056.165l1.4054-1.684z" fill="#efb207"/><path d="m127.45 190.616c-.512.49-1.826.927-3.926 1.312-1.917.346-4.055.533-6.415.554-.251 0-.507 0-.768-.004-2.238-.03-4.628-.234-7.17-.615-.485-.082-.967-.169-1.453-.251-.42-.082-.819-.16-1.197-.229-2.355-.524-3.708-1.256-4.064-2.195-.39-1.087-.534-1.572-.429-1.446 1.505.359 2.953.675 4.354.957.894.164 1.77.32 2.633.459.85.142 1.683.259 2.499.359 2.19.255 4.016.389 5.478.402.421 0 .815-.008 1.184-.03 2.941-.195 4.889-.359 5.838-.498.963-.143 2.36-.51 4.178-1.112v.021l-.738 2.321z" fill="#2d1e10"/><path d="m128.192 188.274c-1.822.602-3.214.974-4.177 1.112-.955.143-2.898.308-5.839.498-.368.022-.763.035-1.184.03-1.461-.013-3.288-.142-5.478-.402-.811-.1-1.644-.221-2.498-.359-.868-.139-1.744-.295-2.633-.459-1.401-.277-2.85-.598-4.355-.957-.538-.965-.85-2.017-.933-3.156-.074-1.138.057-2.701.391-4.688.321-1.948.251-6.147-.209-12.597-.173-1.204 0-1.325.525-.359 3.774 1.982 7.786 2.887 12.046 2.718 4.268-.182 6.883-.892 7.842-2.125.971-1.264 1.11-.632.421 1.887-.72 2.519-1.172 5-1.362 7.428 2.064.044 3.756.273 5.075.702 2.962.917 4.025 3.485 3.192 7.705-.187.922-.456 1.927-.82 3.022z" fill="#704821"/><path d="m119.998 29.9059c-.907-1.2727-1.783-2.4502-2.494-3.4502-5.179-7.2596-9.812-15.1642-16.327-21.22464-6.8271-6.41545-15.1421-5.424127-23.3748-4.605962l-.2342.017315c-4.1684 1.549757-8.263 3.328937-12.4487 4.900337-5.5261 2.06489-11.3991 3.1601-17.2981 3.16443-1.8435-.00866-3.6609-.14285-5.4957-.29004-.1258-.00432-.2386-.02597-.3644-.0303-1.6916.72726-3.3616 1.53244-4.9838 2.40686-8.4322 4.5497-12.3837 11.8006-14.8951 20.6403-1.7914 6.1687-2.6069 12.6058-2.5765 18.9736-.0043 1.3377.0477 2.658.1345 3.9783 5.5216-4.3722 11.4164-8.2552 17.554-11.5928 25.5134-14.2898 56.3793-18.7399 84.8468-9.857-.66-1.0476-1.354-2.0605-2.021-3.0086l-.018-.013z" fill="#696d35"/><path d="m122.019 32.9137c-28.467-8.8829-59.3286-4.4198-84.8463 9.857-6.1376 3.3376-12.028 7.2206-17.554 11.5928.1127 1.9437.3166 3.8701.5812 5.7791.1475 1.039.7981 1.7013 1.6179 2.0216-.1388.5368-.1215 1.0779.0607 1.5454.5769 1.4762 2.2425 1.8788 3.7954 1.4502 11.9802-3.3029 23.9085-6.6145 35.9191-9.2465 7.1656-1.5801 14.3833-2.9091 21.666-3.8354 9.8202-1.2511 19.766-1.3593 29.578-2.4719 2.19-.2467 4.389-.5367 6.541-.935 2.221-.4199 4.298-1.1039 5.417-3.0173 2.069-3.6103-.078-8.4716-2.78-12.7573v.0303z" fill="#464421"/><path d="m144.544 57.7489c.26-1.355.36-2.7402.395-4.1212-.013-.4329-.03-.8484-.043-1.277-.59-.4632-1.206-.9091-1.818-1.316-3.262-1.58-6.862-2.3982-10.124-4.0086-.46-.2207-.885-.4848-1.292-.7489-.07.0044-.156-.0173-.226-.013-1.375.1039-2.728.3204-4.108.3853-2.281.1082-4.571.1082-6.853.0217-3.192-.1212-6.372-.2598-9.568-.2857-8.493.1168-17.0036.6839-25.4748 1.3159-8.0288.6018-16.0663 1.4979-23.8782 3.5368-2.134.645-4.2378 1.3809-6.2894 2.2294-1.9302.7965-3.9211.8874-5.7516.4112-6.1159 2.0649-12.0453 4.6449-17.9314 7.2899-5.4609 2.4675-10.9826 4.8657-16.192 7.831-2.7066 1.6969-5.2441 3.606-7.49528 5.8873.27327-.2813.55087-.5671.82413-.8354-1.58754 1.554-3.17941 2.593-5.43927 3.0085-.26025.0433-.52484.078-.78943.0953 2.46372 1.9826 7.26971 2.2597 11.11715 1.5194 31.6076-6.0951 63.3454-10.4327 95.2001-14.9131 8.658-1.2164 17.598-.7792 26.103-2.9739 2.798-.7273 6.268-1.4892 9.482-2.7056.048-.1126.083-.2294.13-.342l.014.013z" fill="#827a3f"/><path d="m113.045 126.873c-.976.697-2.104.887-3.383.597-1.28-.307-2.325-1-3.149-2.113-.824-1.099-1.185-2.307-1.102-3.601.082-1.321.598-2.351 1.548-3.074.963-.749 2.104-.974 3.401-.697s2.381.987 3.232 2.126c.85 1.138 1.21 2.376 1.114 3.697-.113 1.32-.655 2.35-1.644 3.056h-.013z" fill="#ffc421"/><path d="m118.957 129.595c.282-4.575-.147-9.341-1.258-14.32-3.587.788-6.094 1.122-7.53.983-1.436-.138-2.433-.16-2.967-.091-.546.065-1.062.23-1.566.472-.494.229-1.084.732-1.761 1.515-.685.758-1.171 1.896-1.435 3.403-.278 1.497-.126 3.108.459 4.813.573 1.702 1.501 2.914 2.768 3.645.668.381 1.47.615 2.364.732.663.078 1.501.082 2.511.022 3.232-.174 6.025-.555 8.419-1.135v-.034z" fill="#d3b489"/><path d="m97.8244 166.362s-.0694-.039-.0955-.056c-4.5934-2.801-2.1991-9.316.7895-12.433.7027-.727 1.4836-1.407 2.4246-1.757 1.488-.572 3.14-.308 4.689.03 2.164.48 4.285 1.082 6.367 1.835.447.161.907.342 1.189.71.612.801-.49 2.87-.75 3.667-.655 2.082-1.111 4.515-2.273 6.363-.703 1.117-1.267 3.468-2.542 4.044-.711.329-1.536.134-2.286-.057-1.154-.294-2.299-.597-3.453-.891-1.401-.36-2.8234-.728-4.0683-1.451l.013-.008z" fill="#565e26"/><path d="m59.0424 150.652c-.2212 2.641-.0824 5.018.4164 7.173.3643 1.502 1.6873 4.074 3.9862 7.714.3079.36.6419.71.9759 1.044.5986.597 1.2275 1.169 1.8955 1.679.7114.541 1.4618 1.044 2.2425 1.49 2.1298 1.207 4.4981 2.069 7.1049 2.558 2.4377.472 5.0012.623 7.6905.446 3.1187-.208 6.0335-.849 8.7358-1.931 2.9799-1.182 5.5173-2.835 7.608-4.961 2.2559-2.294 4.0949-5.255 5.5039-8.896.53-1.346 1.033-2.878 1.493-4.571-.265.095-.53.208-.807.307-8.2892 3.017-16.7735 4.238-25.4659 3.641-7.6774-.528-14.7953-2.42-21.358-5.671l-.013-.013z" fill="#696d35"/><path d="m59.6411 146.579c-.0694.333-.1258.64-.1822.943-.1952 1.082-.334 2.126-.4164 3.126 6.5627 3.251 13.6936 5.142 21.358 5.671 8.6925.597 17.1767-.611 25.4655-3.641.278-.095.555-.208.807-.307.377-1.334.724-2.793 1.045-4.338-7.564 3.03-15.45 4.489-23.6523 4.364-8.8615-.126-16.9944-2.057-24.4333-5.81l.013-.013z" fill="#2d1e10"/><path d="m103.827 108.761c-1.227-.403-2.897-.697-5.0267-.875-4.2335-.376-7.7729-.446-10.614-.195-3.8864.334-7.3261 1.251-10.3103 2.767-1.67.848-3.2055 1.861-4.5978 3.073-.8198.68-1.5876 1.433-2.2989 2.238-1.0324 1.208-1.9779 2.684-2.8281 4.42-.2516.459-.4728.931-.681 1.446-.2386.528-.5031 1.169-.7807 1.917 6.9357 1.836 14.0839 2.723 21.4795 2.684 7.3391-.056 14.587-1.013 21.744-2.904-.095-2.057-.265-4.113-.486-6.156-.139-1.225-.308-2.208-.486-2.974-.29-1.069-.681-1.961-1.171-2.667-.876-1.251-2.186-2.168-3.93-2.753l-.013-.013z" fill="#d3b489"/><path d="m107.731 148.024c.096-.446.183-.905.278-1.377.139-.697.265-1.376.39-2.043.391-2.208.699-4.32.946-6.337.586-4.81.794-9.576.612-14.329 0-.208-.013-.416-.026-.624-7.162 1.892-14.4054 2.862-21.7445 2.905-7.3825.043-14.5438-.848-21.4795-2.684-.4598 1.238-.9889 2.779-1.5745 4.602l-2.8541 8.952c-.642 1.974-1.1711 3.753-1.6179 5.338-.4338 1.571-.7808 2.961-1.015 4.142 7.4389 3.754 15.5761 5.697 24.4334 5.81 8.2066.112 16.0881-1.334 23.6521-4.364v.013z" fill="#efd1a6"/><path d="m84.5473 136.863c-1.9519-.502-3.817-1.151-5.5997-1.974l-.4598 6.03c.0564 1.667.681 2.793 1.8825 3.364.8241.359 2.2989.641 4.472.835.8371 0 1.4748 0 1.9085.044.4164 0 .8502-.026 1.2796-.126.4164-.095 1.2102-.459 2.3553-1.056.1258-.182.2515-.359.3903-.554.4598-2.364.8372-5.017 1.1278-7.965-2.4681.697-4.9058 1.151-7.3435 1.389m24.2387 4.849c.251-2.364.472-5.018.654-7.935l-2.576 1.736-3.596-1.139-.308 5.978c0 1.628.278 2.684.85 3.143.378.277 1.089.416 2.117.416.403-.083.711-.126.907-.126.195-.026.403-.112.629-.238.195-.126.585-.554 1.127-1.251.07-.195.126-.39.196-.571z" fill="#efd1a6"/><path d="m92.0035 134.375c-2.0039.805-4.151 1.294-6.4239 1.433-2.7456-.611-5.4045-1.503-7.994-2.684l-.6984 8.476c.4858 1.541 1.1017 2.723 1.8391 3.545 1.4921.459 3.0797.749 4.7366.874 1.5745.1 3.2315.057 4.9752-.138.6116-.346 1.2535-.974 1.9519-1.874-1.1408.61-1.9346.961-2.3553 1.056-.4338.095-.8632.138-1.2796.125-.4337-.043-1.0714-.056-1.9085-.043-2.1601-.195-3.6479-.472-4.472-.835-1.1972-.585-1.8261-1.71-1.8825-3.364l.4598-6.03c1.7827.805 3.6478 1.472 5.5997 1.974 2.4377-.238 4.8885-.697 7.3435-1.39.026-.376.0694-.736.1128-1.112m17.4411-.598c.026-.376.057-.736.07-1.112-.976.987-1.84 1.61-2.577 1.891l-4.303-1.805-.46 8.407c.209 1.472.486 2.571.825 3.32.711.321 1.461.459 2.255.446.75-.043 1.531-.238 2.368-.584.308-.403.629-1.082.963-2.03-.555.709-.932 1.125-1.127 1.251-.209.125-.417.207-.629.238-.209 0-.504.043-.907.125-1.032 0-1.726-.125-2.117-.415-.572-.472-.85-1.515-.85-3.143l.308-5.978 3.596 1.138 2.576-1.736.013-.013z" fill="#d9ba8d"/><path d="m94.1329 130.791c.0434-.68.0261-1.364-.0563-2.043-6.0032.264-11.7157-.139-17.1203-1.208l-.5032 5.06c.36.182.7374.347 1.1278.529 2.5895 1.181 5.2527 2.086 7.9941 2.684 2.2728-.152 4.4156-.624 6.4239-1.433.4728-.208.9456-.416 1.4227-.654.347-.861.5725-1.723.668-2.584.013-.126.026-.238.0433-.347zm16.4521-1.848c.044-.667-.126-1.308-.46-1.892-1.951.584-4.459 1.082-7.538 1.502l-.473 3.766c.169.152.347.29.529.416l4.303 1.805c.737-.277 1.588-.905 2.577-1.892.221-.238.446-.485.681-.766.169-.875.29-1.753.36-2.597 0-.126.013-.239.026-.347h-.013z" fill="#fbe2bd"/><path d="m99.8585 150.224c-.2906-.169-.6983-.251-1.2535-.238-1.349.026-2.6589.597-3.9559.835-.8935.169-2.1167.39-2.6198 1.225-.6246 1.044-.3601 3.087-.2646 4.238 0 .083.013.182.0694.251.0694.083.1952.113.3079.113.5292.043 1.0584-.056 1.5876-.152 1.5181-.29 4.832-.264 5.9771-1.432.7803-.793 1.3103-4.182.1518-4.836z" fill="#a3a3a3"/><path d="m133.913 48.4501c-2.637 23.8956-11.62 47.0726-25.96 66.3099-4.026 5.407-8.7491 10.554-15.1773 12.987-1.6613.628-.4598 3.139 1.2015 2.511 5.8296-2.212 10.4098-6.584 14.2788-11.368 3.843-4.753 7.24-9.926 10.311-15.212 6.224-10.7223 11.026-22.2502 14.218-34.2456 1.809-6.7921 3.106-13.7313 3.882-20.7182.204-1.7835-2.55-2.0303-2.754-.2641z" fill="#5d4025"/><path d="m54.5011 33.2346c-2.9061-2.4459-5.6431-4.4545-8.2326-6.0389-3.1317-1.922-5.8904-3.0389-8.2717-3.3635-1.6569-.2165-3.1534-.052-4.498.5065-1.041.4199-1.9953 1.0735-2.8498 1.9696-.2342.2554-.4728.5108-.6853.8052-1.4748 1.8961-2.6589 4.6189-3.5438 8.173-.7417 2.948-1.3186 6.5756-1.709 10.8742-.3947 4.2986-.3817 10.2336.0608 17.8135.4381 7.5669 2.3119 18.3416 5.6127 32.3197l2.711-2.961 42.1348-39.0208c-3.0449-3.4372-5.8383-6.4977-8.3454-9.16-4.6281-4.87-8.7618-8.8267-12.3793-11.8916v-.0259z" fill="#ffc421"/><path d="m85.5751 32.0752c1.4357-3.3679 2.9192-6.2943 4.4416-8.7791 1.8522-3.0042 3.7477-5.1773 5.6388-6.489 1.336-.9091 2.698-1.4199 4.086-1.5238 1.0845-.0866 2.1815.065 3.3095.4632.312.1039.629.2381.95.3983 2.091.9913 4.294 2.8224 6.606 5.4934 1.935 2.212 3.86 4.896 5.799 8.0301 2.494 3.9307 5.184 8.8786 8.068 14.8439 1.536 3.1298 4.633 13.5798 9.322 31.3327l-7.131-2.4805-49.7563-14.1772c1.1234-4.2813 2.1818-8.1254 3.1837-11.5063 1.8608-6.1946 3.6783-11.4023 5.4653-15.6014h.0131z" fill="#ffc421"/><path d="m135.305 73.2949c-.186-.4762-.368-.9091-.52-1.316-.052-.1342-.087-.2597-.139-.3939-.065-.1645-.134-.3117-.2-.4762-.668-1.671-1.071-2.7013-1.214-3.1082-.486-1.2207-1.015-2.4545-1.601-3.6666-.143-.2684-.269-.4978-.342-.7142-4.546-8.7228-12.093-15.5365-22.655-20.4368l-.048-.052c-3.943-1.8225-8.037-3.2337-12.2795-4.2423-.0651.013-.1345.0216-.1996.0346-2.5981.4545-5.192.9351-7.7815 1.4459-.4511.0865-3.0146.7315-1.015.1991-.5248.1385-1.0714.2208-1.6049.329-1.2449.2597-2.4941.5238-3.7389.7965-5.1574 1.1255-10.2887 2.3549-15.394 3.6882-10.1064 2.6407-20.0264 5.7965-29.9247 9.1124-1.2578.4199-2.5201.8312-3.7823 1.2338-1.0583 1.1947-2.0386 2.4328-2.9452 3.7228-.2038.2771-.4077.5584-.5855.8485-.8632 1.2813-1.6396 2.6017-2.3293 3.9869-.1041.1169-.1648.2598-.2082.4156-.0521.0866-.0998.1602-.1215.2467-.6462 1.2251-1.1754 2.4719-1.6222 3.7575-.1561.3593.4164-.6839 1.7047-3.1341-2.403 4.9783-3.7867 8.134-4.1424 9.4803-.1301.342-.2342.697-.321 1.0779-.1127.4243-.2212.8528-.3036 1.2857-.1171.5238-.1952 1.0563-.2429 1.5887-.1562.8052-.2559 1.6061-.2689 2.4286-.0087.0692-.0174.1385-.0261.2121l.0087.1515c-.1952 5.251 1.015 10.6318 3.6436 16.1122 2.6242 5.4679 6.4672 10.0859 11.5335 13.8739 5.0402 3.775 11.3036 6.424 18.7598 7.922 7.4432 1.485 13.7153 2.156 18.7989 2 .1822-.013.36-.026.5422-.009l.295.009c24.6242.775 42.0268-3.723 52.2108-13.506 9.985-9.6319 12.54-21.5581 7.669-35.7786l.382.8788z" fill="#ffc421"/><path d="m24.5503 70.1953c-1.0713 2.3679-1.7176 3.974-1.9519 4.8354-.1301.342-.2342.697-.3209 1.0779-.1128.4242-.2213.8485-.3037 1.2857-.1171.5238-.1952 1.0563-.2429 1.5887-.1561.8052-.2559 1.606-.2689 2.4285-.0087.0693-.0174.1386-.026.2122l.0086.1515c-.1951 5.2509 1.015 10.6318 3.6436 16.1122 1.9779 4.1166 4.6325 7.7446 7.9854 10.9046 1.1017 1.039 2.2859 2.035 3.5481 2.97 5.0402 3.774 11.3036 6.424 18.7599 7.921 7.4432 1.485 13.7153 2.156 18.7989 2 .1821-.013.36-.026.5421-.008l.295.008c21.5055.676 37.5194-2.671 47.9994-10.051-38.3354 11.986-67.8176 9.753-88.4296-6.68-9.8679-10.2377-13.2078-21.8002-10.0197-34.7134l-.0174-.039z" fill="#efb207"/><path d="m103.368 102.921c-.512.256-1.019.416-1.531.494-1.388.329-2.9799.324-4.7887-.018-.7937-.155-1.3923-.355-1.8131-.588-.2732-.148-.5118-.329-.72-.55-.1301-.074-.2472-.152-.3644-.225-.5682-.338-.9846-.714-1.2622-1.13-.2342-.346-.4467-2.1169-.6593-5.303.642-.2381 1.3143-.6017 2.0343-1.1082.7851-.593 1.3707-1.1904 1.7524-1.7748.2255-.4199.36-.8615.4294-1.3247-.0087-.1385.0217-.2814.0564-.4199-.0217-.3333-.0434-.6233-.1431-.8701-.2646-.6363-.8676-1.0692-1.8175-1.2987-.8501-.1948-1.748-.2337-2.7023-.1125-.1561-.0433-.2689-.052-.3513-.0173-.2516.0173-.4685.0606-.6593.1428-.295-.0086-.5292.0087-.7244.0476h-.0954c-.0824.013-.1388.0303-.1648.0303-.1085.0347-.2039.0563-.3037.0606-.1821.013-.36.065-.5378.1213-.0564 0-.0954.0043-.1258.0216-.0564 0-.1128.0087-.1648.026-.5205.1472-.9977.329-1.4444.5541-.8415.3896-1.349.9134-1.5442 1.567-.1518.2598-.1995.5714-.1605.9437.0044.0693.0087.1386.0564.2208.026.3896.1215.7576.2993 1.1082.2993.5368.7938 1.0216 1.4791 1.4329.7287.4675 1.4748.7532 2.2208.8701l.4164-.026.0608 3.4242c-.0564.4069-.1562.805-.295 1.203-.1995.987-.5118 1.762-.9326 2.334-.4251.528-1.0757 1.047-1.9345 1.562-.9239.576-1.7264.936-2.4247 1.096-.4815.117-1.2145.19-2.1905.229-.8631.056-1.5745.048-2.1644.004-.0434-.026-.0867-.052-.1301-.073-.0738-.039-.2733-.095-.6116-.169-.2559-.065-.5856-.186-1.002-.364l-.6072-.294-.3557-.312c-.3817-.307-.668-.597-.8675-.861-.1388-.212-.2516-.442-.3557-.701l-.0737-.303c-.0044-.083-.0131-.208-.0131-.377-.0043-.095-.0694-.234-.1691-.42-.0347-.121-.0781-.316-.1215-.576-.1301-.268-.3643-.42-.7157-.454-.3643-.048-.6376.043-.8328.277-.1301.134-.2169.32-.2559.576-.0434.199-.0607.562-.052 1.103-.0044.334.039.611.0954.832 0 .056.0347.108.065.164.0217.346.2169.71.5466 1.091.2125.502.5075.939.8848 1.32.0434 0 .0868.022.1258.035.5032.441 1.0584.779 1.644 1.017 0 .057-.0087.113 0 .182-.0217.489.026 1.017.1474 1.593.013.165.0521.329.0911.511.2646 1.264.6593 2.325 1.1928 3.208.8806 1.502 2.2079 2.723 3.9993 3.619 1.6048.813 3.3963 1.294 5.3742 1.424 1.8651.143 3.6262-.048 5.2527-.559 1.0671-.337 1.9996-.774 2.8151-1.329.1518-.008.3036-.073.4511-.155.1345-.065.36-.234.694-.507.3947-.377.6289-.597.707-.688.1692-.191.3861-.498.6637-.935.3166-.494.5552-.901.7287-1.217l.4901-1.008c.0742-.143.4942-.94 1.2662-2.399.326-.593.582-1.125.785-1.61.122-.299.213-.571.282-.827.057-.199.074-.368.065-.506l.777-.303c1.332-.576 2.373-1.286 3.127-2.117l.13-.147c.135-.078.243-.143.321-.204.36-.272.599-.666.716-1.19.095-.45.091-.94 0-1.463-.056-.416-.173-.7406-.36-.9917-.273-.3419-.577-.4761-.92-.4112-.373.0649-.62.3203-.746.7749-.069.199-.099.576-.091 1.134.009.113-.013.225-.021.338-.556.662-1.193 1.164-1.896 1.519l-.026.044z" fill="#684e3a"/><path d="m114.407 55.5678c-5.153-.645-9.772.6191-13.85 3.7748-4.0726 3.1688-6.4236 7.3202-7.0742 12.45-.6506 5.1254.6072 9.7227 3.7693 13.8049 3.1749 4.0778 7.3389 6.4371 12.4919 7.0821 5.14.6494 9.747-.619 13.82-3.7878 4.103-3.1688 6.467-7.3115 7.113-12.437.651-5.1254-.62-9.7227-3.808-13.8005-3.162-4.0822-7.313-6.4371-12.449-7.0735z" fill="#fff"/><path d="m65.2279 58.9694c-5.3526-.6753-10.1499.632-14.3963 3.922-4.2335 3.29-6.6842 7.6016-7.3478 12.9261-.6637 5.3246.6333 10.1124 3.9168 14.3374 3.2965 4.238 7.621 6.6795 12.9736 7.3591 5.3351.6624 10.1194-.645 14.3572-3.9349 4.2638-3.29 6.7275-7.5929 7.3912-12.9175.6636-5.3246-.6463-10.1124-3.9559-14.3504-3.2835-4.225-7.595-6.6838-12.9302-7.3461z" fill="#fff"/><path d="m67.5615 70.7411c-1.4878 1.1428-2.338 2.6493-2.5765 4.5021-.2386 1.8527.2342 3.5367 1.3836 5.0215 1.1452 1.4848 2.6546 2.329 4.5284 2.5671 1.8739.238 3.5308-.2338 5.0186-1.3766 1.4877-1.1429 2.3336-2.6623 2.5765-4.5324.2385-1.8701-.2343-3.5108-1.3794-4.9913-1.1451-1.4848-2.6545-2.3462-4.5153-2.5843-1.8609-.2381-3.5438.2337-5.0186 1.3766l-.013.013z" fill="#413535"/><path d="m117.17 66.7787c-1.436 1.1125-2.26 2.5454-2.477 4.3289s.226 3.4112 1.327 4.8268c1.115 1.4285 2.564 2.2553 4.355 2.4675 1.787.2164 3.392-.2251 4.828-1.3247 1.436-1.1125 2.26-2.5584 2.472-4.3549.217-1.7965-.225-3.3852-1.323-4.8008-1.114-1.4285-2.55-2.2553-4.341-2.4847-1.787-.2295-3.405.2251-4.841 1.3376z" fill="#413535"/><path d="m56.518 176.699-.4511 7.298 18.3435 4.247 4.4503-5.909c.5682-1.952-3.0667-3.874-10.8873-5.796-7.8769-1.944-11.6896-1.883-11.4554.164z" fill="#563824"/><path d="m69.6912 161.582s.1605-.074.2515-.117c.2516-.117.4902-.164.6984-.16.1561 0 .3123.048.4424.143.2039.147.334.355.4121.61-.0087.026.013.061.039.078-.0911.143-.1691.29-.2602.433-.3991.667-.7895 1.351-1.1972 2.048-.1735.316-.3687.645-.5335.991-1.3316 2.415-2.6893 5.013-4.1163 7.814-.6116 1.194-1.2189 2.532-1.8608 4.025-1.3707 3.269-2.8194 7.273-4.3246 12.013l-2.3899-.666c1.735-5.061 3.201-9.121 4.4069-12.186.7547-1.888 1.401-3.394 1.9432-4.528 1.4314-2.888 2.9409-5.632 4.5067-8.225.0087-.044.0304-.065.0651-.091.412-.654.759-1.156 1.0366-1.502.256-.303.5379-.546.8589-.71z" fill="#efb207"/><path d="m79.0473 167.769 1.6223.589c-.1171.082-.2256.177-.3253.294-.0391.039-.0738.074-.1128.113.0347.034.0564.052.052.065-.0607.078-.1258.164-.1995.242-.7157.991-1.4878 2.147-2.3162 3.476-1.2796 2.095-2.8672 4.87-4.767 8.312-1.6092 2.93-3.4527 6.355-5.513 10.277l-8.25-1.68c1.5051-4.74 2.9408-8.744 4.3245-12.013.629-1.493 1.2492-2.831 1.8608-4.026 1.4227-2.801 2.7891-5.411 4.1163-7.813.1822-.347.3601-.676.5336-.992.3947-.697.8024-1.394 1.1971-2.047.0781-.147.1692-.29.2603-.433.039.177.0347.376.0086.589l7.504 5.047z" fill="#ffc421"/><path d="m57.6414 202.901c-3.7433-1.056-6.476-2.433-8.185-4.13-.6333 1.451-.9326 2.39-.9109 2.797.0217.411 1.5138 1.234 4.472 2.433 2.9713 1.216 5.8644 2.099 8.6925 2.662 2.828.576 4.9881.909 6.4846 1 1.5095.078 3.1143.087 4.7886.022l1.6353-2.282c-.282 0-.5466-.026-.7808-.052-1.0714-.095-3.1013-.268-6.0812-.502-2.9929-.238-6.3632-.883-10.1325-1.939l.0174-.013z" fill="#2d1e10"/><path d="m77.8544 184.313c1.4184-2.329 1.4357-3 .0521-1.987-1.3707 1.013-4.3332 1.035-8.892.065-4.5501-.939-8.5276-2.918-11.9542-5.917-.5466-.845-.8589-.568-.937.852-1.9562 6.351-3.3572 10.494-4.1813 12.463-.8285 1.983-1.4358 3.732-1.8131 5.26-.3644 1.532-.5813 2.766-.6724 3.705 1.709 1.697 4.446 3.074 8.185 4.13 3.7563 1.057 7.1352 1.706 10.1325 1.94 2.9799.233 5.0098.407 6.0812.502.2342.021.5032.034.7808.052 2.6329-5.095 3.2661-8.623 1.8955-10.606-1.375-1.957-2.0257-3.126-1.9302-3.463.759-2.347 1.8391-4.68 3.2661-7.009l-.0173.013z" fill="#704821"/><path d="m81.2811 164.894c-.4684-1.593-1.6049-2.675-2.7803-3.493-1.8175-1.265-3.8388-2.109-5.9555-2.49-1.3229-.233-2.776-.281-4.0339.593-1.3576.944-2.8367 3.213-3.6826 4.823-.7981 1.493-1.3186 3.16-1.8391 4.814-.1214.398-.2429.783-.3773 1.186-.1041.316-.1909.632-.1649.965.0824.844 2.5375 1.411 3.1534 1.68 1.31.562 2.6372 1.095 3.9949 1.558 1.3576.463 2.7066.896 4.086 1.26.6116.169 3.4396 1.372 3.9645.931 1.1754-1.005 1.8564-2.676 2.4594-4.247.9325-2.424 1.8781-5.177 1.2015-7.528l-.0217-.048z" fill="#787d36"/><path d="m39.2636 151.28c6.0595-12.965 17.233-20.034 33.5162-21.212l-5.9381-9.601c-15.3245 3.039-26.7496 9.705-34.2709 19.986-.2299 4.619 2.0039 8.225 6.6928 10.823z" fill="#efb207"/><path d="m66.5468 120.566c-1.1104.64-1.761 1.679-1.9605 3.108-.2039 1.428.1127 2.818.9499 4.169.8371 1.35 1.9389 2.259 3.3182 2.731 1.375.476 2.6069.373 3.6869-.316 1.0627-.666 1.6786-1.714 1.8478-3.143.1735-1.406-.1475-2.761-.9543-4.069-.8068-1.307-1.8868-2.207-3.2314-2.701-1.3533-.489-2.5722-.416-3.6566.212z" fill="#efb207"/><path d="m71.244 127.756c-16.7082 3.424-28.6104 10.364-35.7196 20.822-2.2295-2.238-3.2618-4.961-3.1057-8.173 6.4152-11.22 17.8446-17.882 34.2839-19.995l4.5414 7.342z" fill="#ffd154"/><path d="m70.2207 120.341c1.3403.485 2.416 1.381 3.2228 2.688.1127.187.2168.373.3079.563-.9803 3.134-1.9692 4.507-2.9712 4.108-2.8931 1.044-4.6368 1.087-5.2311.126-.8328-1.346-1.1537-2.736-.9586-4.16.2082-1.433.8676-2.472 1.978-3.108 1.08-.637 2.3032-.71 3.6565-.212z" fill="#ffd154"/><path d="m28.3329 154.068c-1.1147-1.03-1.7047-2.298-1.7654-3.813-.0434-1.516.4598-2.806 1.5008-3.871 1.028-1.038 2.2946-1.567 3.7997-1.593 1.5095-.017 2.802.472 3.8821 1.468 1.0974 1.013 1.6786 2.26 1.748 3.736.0781 1.485-.373 2.766-1.3663 3.844-1.0106 1.099-2.2772 1.68-3.7997 1.744-1.5225.044-2.8584-.458-3.9992-1.515z" fill="#efb207"/><path d="m31.2694 150.471c-1.3489-1.247-2.0646-2.788-2.1384-4.619-.0477-1.831.5596-3.39 1.8218-4.675 1.2362-1.26 2.763-1.901 4.5804-1.922 1.8218-.026 3.3876.562 4.6976 1.775 1.3186 1.22 2.0256 2.727 2.108 4.519.0998 1.788-.4511 3.333-1.6439 4.636-1.2232 1.325-2.7543 2.026-4.5891 2.113-1.8478.052-3.4614-.554-4.8407-1.827z" fill="#efb207"/><path d="m38.3352 146.665c1.2101-.026 2.2685.381 3.175 1.221.9109.844 1.4054 1.87 1.4748 3.078.0824 1.229-.2819 2.294-1.0887 3.186-.8111.909-1.8348 1.385-3.0753 1.428-1.2276.039-2.3076-.372-3.2445-1.233-.9282-.857-1.4314-1.909-1.5008-3.147-.0564-1.238.3297-2.303 1.1581-3.199.8285-.875 1.8608-1.321 3.0927-1.334z" fill="#efb207"/><g fill="#ffd154"><path d="m29.7946 139.392c1.2102-.026 2.2686.381 3.1751 1.221.9109.844 1.4054 1.87 1.4748 3.077.0824 1.23-.282 2.295-1.0887 3.186-.8112.91-1.8348 1.386-3.0754 1.429-1.2275.039-2.3075-.372-3.2444-1.234-.9283-.857-1.4314-1.909-1.5008-3.147-.0564-1.238.3296-2.303 1.1581-3.199.8285-.874 1.8608-1.32 3.0927-1.333z"/><path d="m29.2741 145.424c.1171-1.676.8068-3.156 2.0647-4.446 1.2319-1.264 2.6719-1.987 4.3202-2.16 1.6482-.187 3.0102.216 4.0859 1.207 1.0844 1.005 1.5832 2.321 1.4965 3.953-.0694 1.636-.707 3.099-1.9042 4.394-1.2318 1.32-2.6762 2.099-4.3462 2.337-1.6743.217-3.0796-.199-4.2074-1.247-1.1104-1.026-1.6136-2.372-1.5095-4.038z"/><path d="m27.7733 153.548c-.9325-.866-1.3706-1.996-1.3056-3.39.0781-1.402.6377-2.636 1.6787-3.709 1.028-1.039 2.2295-1.632 3.6045-1.771 1.3836-.134 2.5331.221 3.4396 1.061.9196.848 1.349 1.952 1.297 3.316-.0478 1.367-.5683 2.588-1.5572 3.666-1.0107 1.1-2.2165 1.736-3.6175 1.918-1.4011.16-2.5809-.204-3.5351-1.087z"/><path d="m33.503 149.873c-.0998-1.061.1909-1.957.8719-2.693.6766-.714 1.5485-1.056 2.6112-1.021 1.041.034 1.9692.424 2.776 1.173.8241.762 1.2926 1.658 1.4053 2.688.1172 1.061-.1474 1.957-.8067 2.693-.668.744-1.5312 1.112-2.5896 1.099-1.0626-.013-2.0126-.407-2.8497-1.182-.8328-.77-1.3056-1.692-1.4141-2.761z"/></g><path d="m74.506 121.644c-4.3029-3.294-10.5056 0-15.8971 1.45.2386 2.879.72 7.186 1.4878 10.81 5.1313-1.923 11.3079-2.858 12.8694-3.892 1.5746-1.039 3.6826-3.355 1.8175-7.827-.0868-.208-.2039-.372-.282-.554v.013z" fill="#fbe2bd"/><path d="m58.6045 123.077c5.3959-1.433 11.5942-4.745 15.897-1.45-1.2795-2.541-3.1794-3.212-4.6541-3.416-2.1601-.303-8.7489 1.528-11.3948 2.541.0174.567.0781 1.372.1605 2.338v-.013z" fill="#d9ba8d"/><path d="m92.8841 127.882c-23.774-1-45.696-16.787-59.3852-36.1721-4.2075-5.961-7.7556-12.2725-10.7268-18.7313-.7677-1.6882-3.5437-1.2121-2.7587.5022 10.3754 22.6272 28.4066 43.9432 53.3388 53.1112 6.4412 2.373 13.1254 3.784 19.7184 4.052 1.8608.074 1.6786-2.675-.1822-2.744v-.013z" fill="#5d4025"/><path d="m97.7639 125.692c-2.8845.182-11.1735.208-8.7748 5.42.9759 2.112 5.4176 1.805 7.3 1.459 1.7828-.334 4.0249-1.152 4.7629-2.987.238-.611.277-1.295.169-1.931-.056-.39-.182-.792-.416-1.113-.334-.445-.8637-.697-1.4058-.792-.5422-.099-1.0888-.069-1.644-.026l.013-.026z" fill="#2d1e10"/><path d="m99.9065 133.779s0-.026-.013-.026c-.4728-.749-1.0714-1.416-1.7698-1.987-1.8824-1.541-3.8604-3.654-5.5867-.624-.8241 1.433-1.8131 3.1-2.1991 4.697-.0434.152-.0694.308-.0261.446.0694.321.4164.472.7114.585.5552.207 1.1278.376 1.7003.528.1388.026.2646.069.4034.043.308-.056.4858-.377.5986-.667.5031-1.238 1.7263-2.766 1.7263-2.766s1.2666 1.961 1.5876 2.182c1.1017.749 2.4377-.571 2.9104-1.502.0822-.152.1522-.321.1392-.485 0-.139-.083-.277-.1695-.403l-.013-.013z" fill="#5d4025"/><path d="m137.717 42.6982c-13.85-4.2207-28.867-5.5497-43.2499-5.2207-17.8142.4026-35.5461 4.1817-52.0114 10.9998-8.3411 3.4501-15.8147 7.9868-23.6179 12.4586-6.7622 3.8874-13.26852 7.4847-17.45425 14.4066-5.24408 8.6622 5.64748 7.4414 12.41405 6.1428 2.3032-.4459 4.6065-.8788 6.9227-1.2944 1.0106-.5281 2.0213-1.0822 3.0189-1.6493.2386-.3766.5509-.7186.9109-1.0086 2.2295-1.723 4.5805-3.355 6.888-4.9696 13.5548-9.4804 29.7295-14.7746 46.03-17.0127 8.2587-1.1342 16.6388-1.5064 24.9709-1.1298 9.469.4285 18.192 2.277 27.166 5.3722 2.217.7575 4.477 1.6103 6.828 1.8614 1.938.2035 4.823-1.1688 6.41-.1602 4.373-1.4328 8.589-3.5497 10.528-7.3548 2.862-5.6233-12.666-10.4976-15.715-11.424l-.031-.013z" fill="#787d36"/></g></svg>